<?xml version="1.0" encoding="us-ascii" standalone="no"?><svg xmlns="http://www.w3.org/2000/svg" xmlns:xlink="http://www.w3.org/1999/xlink" contentStyleType="text/css" height="2232px" preserveAspectRatio="none" style="width:1414px;height:2232px;background:#CED4DA;" version="1.1" viewBox="0 0 1414 2232" width="1414px" zoomAndPan="magnify"><defs/><g><rect fill="#CED4DA" height="2232" style="stroke:none;stroke-width:1.0;" width="1414" x="0" y="0"/><!--class AbstractDatePicker<P, C>--><g id="elem_AbstractDatePicker&lt;P, C&gt;"><rect codeLine="7" fill="#FFFFFF" height="569.5" id="AbstractDatePicker&lt;P, C&gt;" rx="2.5" ry="2.5" style="stroke:#272B30;stroke-width:0.5;" width="707" x="413.5" y="636"/><ellipse cx="672.25" cy="652" fill="#A9DCDF" rx="11" ry="11" style="stroke:#181818;stroke-width:1.0;"/><path d="M672.3594,647.3438 L671.2031,652.4219 L673.5313,652.4219 L672.3594,647.3438 Z M670.875,645.1094 L673.8594,645.1094 L677.2188,657.5 L674.7656,657.5 L674,654.4375 L670.7188,654.4375 L669.9688,657.5 L667.5313,657.5 L670.875,645.1094 Z " fill="#000000"/><text fill="#000000" font-family="sans-serif" font-size="14" font-style="italic" lengthAdjust="spacing" textLength="181" x="692.75" y="656.8467">AbstractDatePicker&lt;P, C&gt;</text><line style="stroke:#272B30;stroke-width:0.5;" x1="414.5" x2="1119.5" y1="668" y2="668"/><polygon fill="none" points="424.5,676.6484,428.5,680.6484,424.5,684.6484,420.5,680.6484" style="stroke:#B38D22;stroke-width:1.0;"/><text fill="#000000" font-family="sans-serif" font-size="14" lengthAdjust="spacing" textLength="180" x="433.5" y="684.9951">isProviderBased : boolean</text><polygon fill="none" points="424.5,692.9453,428.5,696.9453,424.5,700.9453,420.5,696.9453" style="stroke:#B38D22;stroke-width:1.0;"/><text fill="#000000" font-family="sans-serif" font-size="14" lengthAdjust="spacing" textLength="393" x="433.5" y="701.292">providerEventsManagerInstance : IProviderEventManager</text><line style="stroke:#272B30;stroke-width:0.5;" x1="414.5" x2="1119.5" y1="708.5938" y2="708.5938"/><ellipse cx="424.5" cy="722.2422" fill="#84BE84" rx="3" ry="3" style="stroke:#038048;stroke-width:1.0;"/><text fill="#000000" font-family="sans-serif" font-size="14" lengthAdjust="spacing" textLength="84" x="433.5" y="725.5889">build() : void</text><ellipse cx="424.5" cy="738.5391" fill="#84BE84" rx="3" ry="3" style="stroke:#038048;stroke-width:1.0;"/><text fill="#000000" font-family="sans-serif" font-size="14" lengthAdjust="spacing" textLength="484" x="433.5" y="741.8857">changeProperty(propertyName: string, propertyValue: unknown) : void</text><ellipse cx="424.5" cy="754.8359" fill="#84BE84" rx="3" ry="3" style="stroke:#038048;stroke-width:1.0;"/><text fill="#000000" font-family="sans-serif" font-size="14" lengthAdjust="spacing" textLength="241" x="433.5" y="758.1826">checkAddedProviderEvents() : void</text><ellipse cx="424.5" cy="771.1328" fill="#84BE84" rx="3" ry="3" style="stroke:#038048;stroke-width:1.0;"/><text fill="#000000" font-family="sans-serif" font-size="14" lengthAdjust="spacing" textLength="253" x="433.5" y="774.4795">checkPendingProviderEvents() : void</text><ellipse cx="424.5" cy="787.4297" fill="#84BE84" rx="3" ry="3" style="stroke:#038048;stroke-width:1.0;"/><text fill="#000000" font-family="sans-serif" font-size="14" font-style="italic" lengthAdjust="spacing" textLength="85" x="433.5" y="790.7764">clear() : void</text><ellipse cx="424.5" cy="803.7266" fill="#84BE84" rx="3" ry="3" style="stroke:#038048;stroke-width:1.0;"/><text fill="#000000" font-family="sans-serif" font-size="14" font-style="italic" lengthAdjust="spacing" textLength="88" x="433.5" y="807.0732">close() : void</text><ellipse cx="424.5" cy="820.0234" fill="#84BE84" rx="3" ry="3" style="stroke:#038048;stroke-width:1.0;"/><text fill="#000000" font-family="sans-serif" font-size="14" font-style="italic" lengthAdjust="spacing" textLength="228" x="433.5" y="823.3701">disableDays(value: string[]) : void</text><ellipse cx="424.5" cy="836.3203" fill="#84BE84" rx="3" ry="3" style="stroke:#038048;stroke-width:1.0;"/><text fill="#000000" font-family="sans-serif" font-size="14" font-style="italic" lengthAdjust="spacing" textLength="284" x="433.5" y="839.667">disableWeekDays(value: number[]) : void</text><ellipse cx="424.5" cy="852.6172" fill="#84BE84" rx="3" ry="3" style="stroke:#038048;stroke-width:1.0;"/><text fill="#000000" font-family="sans-serif" font-size="14" lengthAdjust="spacing" textLength="106" x="433.5" y="855.9639">dispose() : void</text><ellipse cx="424.5" cy="868.9141" fill="#84BE84" rx="3" ry="3" style="stroke:#038048;stroke-width:1.0;"/><text fill="#000000" font-family="sans-serif" font-size="14" lengthAdjust="spacing" textLength="267" x="433.5" y="872.2607">equalsToID(patternId: string) : boolean</text><ellipse cx="424.5" cy="885.2109" fill="#84BE84" rx="3" ry="3" style="stroke:#038048;stroke-width:1.0;"/><text fill="#000000" font-family="sans-serif" font-size="14" font-style="italic" lengthAdjust="spacing" textLength="88" x="433.5" y="888.5576">open() : void</text><ellipse cx="424.5" cy="901.5078" fill="#84BE84" rx="3" ry="3" style="stroke:#038048;stroke-width:1.0;"/><text fill="#000000" font-family="sans-serif" font-size="14" lengthAdjust="spacing" textLength="434" x="433.5" y="904.8545">registerCallback(eventName: string, callback: OSGeneric) : void</text><ellipse cx="424.5" cy="917.8047" fill="#84BE84" rx="3" ry="3" style="stroke:#038048;stroke-width:1.0;"/><text fill="#000000" font-family="sans-serif" font-size="14" font-style="italic" lengthAdjust="spacing" textLength="226" x="433.5" y="921.1514">setLanguage(value: string) : void</text><ellipse cx="424.5" cy="934.1016" fill="#84BE84" rx="3" ry="3" style="stroke:#038048;stroke-width:1.0;"/><text fill="#000000" font-family="sans-serif" font-size="14" lengthAdjust="spacing" textLength="362" x="433.5" y="937.4482">setProviderConfigs(providerConfigs: unknown) : void</text><ellipse cx="424.5" cy="950.3984" fill="#84BE84" rx="3" ry="3" style="stroke:#038048;stroke-width:1.0;"/><text fill="#000000" font-family="sans-serif" font-size="14" lengthAdjust="spacing" textLength="681" x="433.5" y="953.7451">setProviderEvent(eventName: string, callback: Generic, uniqueId: string, saveEvent: boolean) : void</text><ellipse cx="424.5" cy="966.6953" fill="#84BE84" rx="3" ry="3" style="stroke:#038048;stroke-width:1.0;"/><text fill="#000000" font-family="sans-serif" font-size="14" lengthAdjust="spacing" textLength="285" x="433.5" y="970.042">unsetProviderEvent(eventId: string) : void</text><ellipse cx="424.5" cy="982.9922" fill="#84BE84" rx="3" ry="3" style="stroke:#038048;stroke-width:1.0;"/><text fill="#000000" font-family="sans-serif" font-size="14" font-style="italic" lengthAdjust="spacing" textLength="351" x="433.5" y="986.3389">updateInitialDate(date1: string, date2: string) : void</text><ellipse cx="424.5" cy="999.2891" fill="#84BE84" rx="3" ry="3" style="stroke:#038048;stroke-width:1.0;"/><text fill="#000000" font-family="sans-serif" font-size="14" font-style="italic" lengthAdjust="spacing" textLength="308" x="433.5" y="1002.6357">updatePrompt(promptMessage: string) : void</text><ellipse cx="424.5" cy="1015.5859" fill="#84BE84" rx="3" ry="3" style="stroke:#038048;stroke-width:1.0;"/><text fill="#000000" font-family="sans-serif" font-size="14" lengthAdjust="spacing" textLength="374" x="433.5" y="1018.9326">updateProviderEvents(providerInfo: ProviderInfo) : void</text><polygon fill="#FFFF44" points="424.5,1026.8828,428.5,1030.8828,424.5,1034.8828,420.5,1030.8828" style="stroke:#B38D22;stroke-width:1.0;"/><text fill="#000000" font-family="sans-serif" font-size="14" lengthAdjust="spacing" textLength="121" x="433.5" y="1035.2295">finishBuild() : void</text><polygon fill="#FFFF44" points="424.5,1043.1797,428.5,1047.1797,424.5,1051.1797,420.5,1047.1797" style="stroke:#B38D22;stroke-width:1.0;"/><text fill="#000000" font-family="sans-serif" font-size="14" font-style="italic" lengthAdjust="spacing" textLength="157" x="433.5" y="1051.5264">prepareConfigs() : void</text><polygon fill="#FFFF44" points="424.5,1059.4766,428.5,1063.4766,424.5,1067.4766,420.5,1063.4766" style="stroke:#B38D22;stroke-width:1.0;"/><text fill="#000000" font-family="sans-serif" font-size="14" lengthAdjust="spacing" textLength="98" x="433.5" y="1067.8232">redraw() : void</text><polygon fill="#FFFF44" points="424.5,1075.7734,428.5,1079.7734,424.5,1083.7734,420.5,1079.7734" style="stroke:#B38D22;stroke-width:1.0;"/><text fill="#000000" font-family="sans-serif" font-size="14" font-style="italic" lengthAdjust="spacing" textLength="179" x="433.5" y="1084.1201">setA11YProperties() : void</text><polygon fill="#FFFF44" points="424.5,1092.0703,428.5,1096.0703,424.5,1100.0703,420.5,1096.0703" style="stroke:#B38D22;stroke-width:1.0;"/><text fill="#000000" font-family="sans-serif" font-size="14" font-style="italic" lengthAdjust="spacing" textLength="137" x="433.5" y="1100.417">setCallbacks() : void</text><polygon fill="#FFFF44" points="424.5,1108.3672,428.5,1112.3672,424.5,1116.3672,420.5,1112.3672" style="stroke:#B38D22;stroke-width:1.0;"/><text fill="#000000" font-family="sans-serif" font-size="14" font-style="italic" lengthAdjust="spacing" textLength="169" x="433.5" y="1116.7139">setHtmlElements() : void</text><polygon fill="#FFFF44" points="424.5,1124.6641,428.5,1128.6641,424.5,1132.6641,420.5,1128.6641" style="stroke:#B38D22;stroke-width:1.0;"/><text fill="#000000" font-family="sans-serif" font-size="14" lengthAdjust="spacing" textLength="569" x="433.5" y="1133.0107">triggerPlatformEventCallback(platFormCallback: OSGeneric, args: unknown[]) : void</text><polygon fill="#FFFF44" points="424.5,1140.9609,428.5,1144.9609,424.5,1148.9609,420.5,1144.9609" style="stroke:#B38D22;stroke-width:1.0;"/><text fill="#000000" font-family="sans-serif" font-size="14" lengthAdjust="spacing" textLength="311" x="433.5" y="1149.3076">triggerPlatformInitializedEventCallback() : void</text><polygon fill="#FFFF44" points="424.5,1157.2578,428.5,1161.2578,424.5,1165.2578,420.5,1161.2578" style="stroke:#B38D22;stroke-width:1.0;"/><text fill="#000000" font-family="sans-serif" font-size="14" lengthAdjust="spacing" textLength="156" x="433.5" y="1165.6045">unsetCallbacks() : void</text><polygon fill="#FFFF44" points="424.5,1173.5547,428.5,1177.5547,424.5,1181.5547,420.5,1177.5547" style="stroke:#B38D22;stroke-width:1.0;"/><text fill="#000000" font-family="sans-serif" font-size="14" lengthAdjust="spacing" textLength="199" x="433.5" y="1181.9014">unsetGlobalCallbacks() : void</text><polygon fill="#FFFF44" points="424.5,1189.8516,428.5,1193.8516,424.5,1197.8516,420.5,1193.8516" style="stroke:#B38D22;stroke-width:1.0;"/><text fill="#000000" font-family="sans-serif" font-size="14" font-style="italic" lengthAdjust="spacing" textLength="187" x="433.5" y="1198.1982">unsetHtmlElements() : void</text></g><!--class AbstractProviderPattern<P, C>--><g id="elem_AbstractProviderPattern&lt;P, C&gt;"><rect codeLine="41" fill="#FFFFFF" height="569.5" id="AbstractProviderPattern&lt;P, C&gt;" rx="2.5" ry="2.5" style="stroke:#272B30;stroke-width:0.5;" width="800" x="9" y="7"/><ellipse cx="298.75" cy="23" fill="#A9DCDF" rx="11" ry="11" style="stroke:#181818;stroke-width:1.0;"/><path d="M298.8594,18.3438 L297.7031,23.4219 L300.0313,23.4219 L298.8594,18.3438 Z M297.375,16.1094 L300.3594,16.1094 L303.7188,28.5 L301.2656,28.5 L300.5,25.4375 L297.2188,25.4375 L296.4688,28.5 L294.0313,28.5 L297.375,16.1094 Z " fill="#000000"/><text fill="#000000" font-family="sans-serif" font-size="14" font-style="italic" lengthAdjust="spacing" textLength="212" x="319.25" y="27.8467">AbstractProviderPattern&lt;P, C&gt;</text><line style="stroke:#272B30;stroke-width:0.5;" x1="10" x2="808" y1="39" y2="39"/><polygon fill="none" points="20,47.6484,24,51.6484,20,55.6484,16,51.6484" style="stroke:#B38D22;stroke-width:1.0;"/><text fill="#000000" font-family="sans-serif" font-size="14" lengthAdjust="spacing" textLength="180" x="29" y="55.9951">isProviderBased : boolean</text><polygon fill="none" points="20,63.9453,24,67.9453,20,71.9453,16,67.9453" style="stroke:#B38D22;stroke-width:1.0;"/><text fill="#000000" font-family="sans-serif" font-size="14" lengthAdjust="spacing" textLength="393" x="29" y="72.292">providerEventsManagerInstance : IProviderEventManager</text><rect fill="none" height="6" style="stroke:#C82930;stroke-width:1.0;" width="6" x="17" y="82.2422"/><text fill="#000000" font-family="sans-serif" font-size="14" lengthAdjust="spacing" textLength="196" x="29" y="88.5889">_asyncInvocationId : number</text><rect fill="none" height="6" style="stroke:#C82930;stroke-width:1.0;" width="6" x="17" y="98.5391"/><text fill="#000000" font-family="sans-serif" font-size="14" lengthAdjust="spacing" textLength="405" x="29" y="104.8857">_platformEventProviderConfigsAppliedCallback : OSGeneric</text><rect fill="none" height="6" style="stroke:#C82930;stroke-width:1.0;" width="6" x="17" y="114.8359"/><text fill="#000000" font-family="sans-serif" font-size="14" lengthAdjust="spacing" textLength="85" x="29" y="121.1826">_provider : P</text><rect fill="none" height="6" style="stroke:#C82930;stroke-width:1.0;" width="6" x="17" y="131.1328"/><text fill="#000000" font-family="sans-serif" font-size="14" lengthAdjust="spacing" textLength="182" x="29" y="137.4795">_providerInfo : ProviderInfo</text><line style="stroke:#272B30;stroke-width:0.5;" x1="10" x2="808" y1="144.7813" y2="144.7813"/><ellipse cx="20" cy="158.4297" fill="#84BE84" rx="3" ry="3" style="stroke:#038048;stroke-width:1.0;"/><text fill="#000000" font-family="sans-serif" font-size="14" lengthAdjust="spacing" textLength="84" x="29" y="161.7764">build() : void</text><ellipse cx="20" cy="174.7266" fill="#84BE84" rx="3" ry="3" style="stroke:#038048;stroke-width:1.0;"/><text fill="#000000" font-family="sans-serif" font-size="14" lengthAdjust="spacing" textLength="484" x="29" y="178.0732">changeProperty(propertyName: string, propertyValue: unknown) : void</text><ellipse cx="20" cy="191.0234" fill="#84BE84" rx="3" ry="3" style="stroke:#038048;stroke-width:1.0;"/><text fill="#000000" font-family="sans-serif" font-size="14" lengthAdjust="spacing" textLength="241" x="29" y="194.3701">checkAddedProviderEvents() : void</text><ellipse cx="20" cy="207.3203" fill="#84BE84" rx="3" ry="3" style="stroke:#038048;stroke-width:1.0;"/><text fill="#000000" font-family="sans-serif" font-size="14" lengthAdjust="spacing" textLength="253" x="29" y="210.667">checkPendingProviderEvents() : void</text><ellipse cx="20" cy="223.6172" fill="#84BE84" rx="3" ry="3" style="stroke:#038048;stroke-width:1.0;"/><text fill="#000000" font-family="sans-serif" font-size="14" lengthAdjust="spacing" textLength="106" x="29" y="226.9639">dispose() : void</text><ellipse cx="20" cy="239.9141" fill="#84BE84" rx="3" ry="3" style="stroke:#038048;stroke-width:1.0;"/><text fill="#000000" font-family="sans-serif" font-size="14" lengthAdjust="spacing" textLength="267" x="29" y="243.2607">equalsToID(patternId: string) : boolean</text><ellipse cx="20" cy="256.2109" fill="#84BE84" rx="3" ry="3" style="stroke:#038048;stroke-width:1.0;"/><text fill="#000000" font-family="sans-serif" font-size="14" lengthAdjust="spacing" textLength="434" x="29" y="259.5576">registerCallback(eventName: string, callback: OSGeneric) : void</text><ellipse cx="20" cy="272.5078" fill="#84BE84" rx="3" ry="3" style="stroke:#038048;stroke-width:1.0;"/><text fill="#000000" font-family="sans-serif" font-size="14" lengthAdjust="spacing" textLength="362" x="29" y="275.8545">setProviderConfigs(providerConfigs: unknown) : void</text><ellipse cx="20" cy="288.8047" fill="#84BE84" rx="3" ry="3" style="stroke:#038048;stroke-width:1.0;"/><text fill="#000000" font-family="sans-serif" font-size="14" lengthAdjust="spacing" textLength="681" x="29" y="292.1514">setProviderEvent(eventName: string, callback: Generic, uniqueId: string, saveEvent: boolean) : void</text><ellipse cx="20" cy="305.1016" fill="#84BE84" rx="3" ry="3" style="stroke:#038048;stroke-width:1.0;"/><text fill="#000000" font-family="sans-serif" font-size="14" lengthAdjust="spacing" textLength="285" x="29" y="308.4482">unsetProviderEvent(eventId: string) : void</text><ellipse cx="20" cy="321.3984" fill="#84BE84" rx="3" ry="3" style="stroke:#038048;stroke-width:1.0;"/><text fill="#000000" font-family="sans-serif" font-size="14" lengthAdjust="spacing" textLength="374" x="29" y="324.7451">updateProviderEvents(providerInfo: ProviderInfo) : void</text><polygon fill="#FFFF44" points="20,332.6953,24,336.6953,20,340.6953,16,336.6953" style="stroke:#B38D22;stroke-width:1.0;"/><text fill="#000000" font-family="sans-serif" font-size="14" lengthAdjust="spacing" textLength="121" x="29" y="341.042">finishBuild() : void</text><polygon fill="#FFFF44" points="20,348.9922,24,352.9922,20,356.9922,16,352.9922" style="stroke:#B38D22;stroke-width:1.0;"/><text fill="#000000" font-family="sans-serif" font-size="14" font-style="italic" lengthAdjust="spacing" textLength="157" x="29" y="357.3389">prepareConfigs() : void</text><polygon fill="#FFFF44" points="20,365.2891,24,369.2891,20,373.2891,16,369.2891" style="stroke:#B38D22;stroke-width:1.0;"/><text fill="#000000" font-family="sans-serif" font-size="14" lengthAdjust="spacing" textLength="98" x="29" y="373.6357">redraw() : void</text><polygon fill="#FFFF44" points="20,381.5859,24,385.5859,20,389.5859,16,385.5859" style="stroke:#B38D22;stroke-width:1.0;"/><text fill="#000000" font-family="sans-serif" font-size="14" font-style="italic" lengthAdjust="spacing" textLength="179" x="29" y="389.9326">setA11YProperties() : void</text><polygon fill="#FFFF44" points="20,397.8828,24,401.8828,20,405.8828,16,401.8828" style="stroke:#B38D22;stroke-width:1.0;"/><text fill="#000000" font-family="sans-serif" font-size="14" font-style="italic" lengthAdjust="spacing" textLength="137" x="29" y="406.2295">setCallbacks() : void</text><polygon fill="#FFFF44" points="20,414.1797,24,418.1797,20,422.1797,16,418.1797" style="stroke:#B38D22;stroke-width:1.0;"/><text fill="#000000" font-family="sans-serif" font-size="14" font-style="italic" lengthAdjust="spacing" textLength="169" x="29" y="422.5264">setHtmlElements() : void</text><polygon fill="#FFFF44" points="20,430.4766,24,434.4766,20,438.4766,16,434.4766" style="stroke:#B38D22;stroke-width:1.0;"/><text fill="#000000" font-family="sans-serif" font-size="14" lengthAdjust="spacing" textLength="569" x="29" y="438.8232">triggerPlatformEventCallback(platFormCallback: OSGeneric, args: unknown[]) : void</text><polygon fill="#FFFF44" points="20,446.7734,24,450.7734,20,454.7734,16,450.7734" style="stroke:#B38D22;stroke-width:1.0;"/><text fill="#000000" font-family="sans-serif" font-size="14" lengthAdjust="spacing" textLength="311" x="29" y="455.1201">triggerPlatformInitializedEventCallback() : void</text><polygon fill="#FFFF44" points="20,463.0703,24,467.0703,20,471.0703,16,467.0703" style="stroke:#B38D22;stroke-width:1.0;"/><text fill="#000000" font-family="sans-serif" font-size="14" lengthAdjust="spacing" textLength="156" x="29" y="471.417">unsetCallbacks() : void</text><polygon fill="#FFFF44" points="20,479.3672,24,483.3672,20,487.3672,16,483.3672" style="stroke:#B38D22;stroke-width:1.0;"/><text fill="#000000" font-family="sans-serif" font-size="14" lengthAdjust="spacing" textLength="199" x="29" y="487.7139">unsetGlobalCallbacks() : void</text><polygon fill="#FFFF44" points="20,495.6641,24,499.6641,20,503.6641,16,499.6641" style="stroke:#B38D22;stroke-width:1.0;"/><text fill="#000000" font-family="sans-serif" font-size="14" font-style="italic" lengthAdjust="spacing" textLength="187" x="29" y="504.0107">unsetHtmlElements() : void</text><rect fill="#F24D5C" height="6" style="stroke:#C82930;stroke-width:1.0;" width="6" x="17" y="513.9609"/><text fill="#000000" font-family="sans-serif" font-size="14" lengthAdjust="spacing" textLength="155" x="29" y="520.3076">_cancelRedraw() : void</text><rect fill="#F24D5C" height="6" style="stroke:#C82930;stroke-width:1.0;" width="6" x="17" y="530.2578"/><text fill="#000000" font-family="sans-serif" font-size="14" lengthAdjust="spacing" textLength="398" x="29" y="536.6045">_getEventIndexFromArray(event: IProviderEvent) : number</text><rect fill="#F24D5C" height="6" style="stroke:#C82930;stroke-width:1.0;" width="6" x="17" y="546.5547"/><text fill="#000000" font-family="sans-serif" font-size="14" lengthAdjust="spacing" textLength="774" x="29" y="552.9014">_handleProviderEventsAPI(eventName: string, callback: Generic, addEvent: boolean, event: IProviderEvent) : void</text><rect fill="#F24D5C" height="6" style="stroke:#C82930;stroke-width:1.0;" width="6" x="17" y="562.8516"/><text fill="#000000" font-family="sans-serif" font-size="14" lengthAdjust="spacing" textLength="157" x="29" y="569.1982">_handleRedraw() : void</text></g><!--class IDatePicker--><g id="elem_IDatePicker"><rect codeLine="76" fill="#FFFFFF" height="373.9375" id="IDatePicker" rx="2.5" ry="2.5" style="stroke:#272B30;stroke-width:0.5;" width="563" x="844.5" y="104.5"/><ellipse cx="1082.75" cy="120.5" fill="#B4A7E5" rx="11" ry="11" style="stroke:#181818;stroke-width:1.0;"/><path d="M1078.6719,116.2656 L1078.6719,114.1094 L1086.0625,114.1094 L1086.0625,116.2656 L1083.5938,116.2656 L1083.5938,124.3438 L1086.0625,124.3438 L1086.0625,126.5 L1078.6719,126.5 L1078.6719,124.3438 L1081.1406,124.3438 L1081.1406,116.2656 L1078.6719,116.2656 Z " fill="#000000"/><text fill="#000000" font-family="sans-serif" font-size="14" font-style="italic" lengthAdjust="spacing" textLength="78" x="1103.25" y="125.3467">IDatePicker</text><line style="stroke:#272B30;stroke-width:0.5;" x1="845.5" x2="1406.5" y1="136.5" y2="136.5"/><ellipse cx="855.5" cy="150.1484" fill="none" rx="3" ry="3" style="stroke:#038048;stroke-width:1.0;"/><text fill="#000000" font-family="sans-serif" font-size="14" lengthAdjust="spacing" textLength="110" x="864.5" y="153.4951">isBuilt : boolean</text><ellipse cx="855.5" cy="166.4453" fill="none" rx="3" ry="3" style="stroke:#038048;stroke-width:1.0;"/><text fill="#000000" font-family="sans-serif" font-size="14" lengthAdjust="spacing" textLength="189" x="864.5" y="169.792">selfElement : HTMLElement</text><ellipse cx="855.5" cy="182.7422" fill="none" rx="3" ry="3" style="stroke:#038048;stroke-width:1.0;"/><text fill="#000000" font-family="sans-serif" font-size="14" lengthAdjust="spacing" textLength="112" x="864.5" y="186.0889">uniqueId : string</text><ellipse cx="855.5" cy="199.0391" fill="none" rx="3" ry="3" style="stroke:#038048;stroke-width:1.0;"/><text fill="#000000" font-family="sans-serif" font-size="14" lengthAdjust="spacing" textLength="110" x="864.5" y="202.3857">widgetId : string</text><line style="stroke:#272B30;stroke-width:0.5;" x1="845.5" x2="1406.5" y1="209.6875" y2="209.6875"/><ellipse cx="855.5" cy="223.3359" fill="#84BE84" rx="3" ry="3" style="stroke:#038048;stroke-width:1.0;"/><text fill="#000000" font-family="sans-serif" font-size="14" lengthAdjust="spacing" textLength="84" x="864.5" y="226.6826">build() : void</text><ellipse cx="855.5" cy="239.6328" fill="#84BE84" rx="3" ry="3" style="stroke:#038048;stroke-width:1.0;"/><text fill="#000000" font-family="sans-serif" font-size="14" lengthAdjust="spacing" textLength="484" x="864.5" y="242.9795">changeProperty(propertyName: string, propertyValue: unknown) : void</text><ellipse cx="855.5" cy="255.9297" fill="#84BE84" rx="3" ry="3" style="stroke:#038048;stroke-width:1.0;"/><text fill="#000000" font-family="sans-serif" font-size="14" lengthAdjust="spacing" textLength="84" x="864.5" y="259.2764">clear() : void</text><ellipse cx="855.5" cy="272.2266" fill="#84BE84" rx="3" ry="3" style="stroke:#038048;stroke-width:1.0;"/><text fill="#000000" font-family="sans-serif" font-size="14" lengthAdjust="spacing" textLength="88" x="864.5" y="275.5732">close() : void</text><ellipse cx="855.5" cy="288.5234" fill="#84BE84" rx="3" ry="3" style="stroke:#038048;stroke-width:1.0;"/><text fill="#000000" font-family="sans-serif" font-size="14" lengthAdjust="spacing" textLength="275" x="864.5" y="291.8701">disableDays(disableDays: string[]) : void</text><ellipse cx="855.5" cy="304.8203" fill="#84BE84" rx="3" ry="3" style="stroke:#038048;stroke-width:1.0;"/><text fill="#000000" font-family="sans-serif" font-size="14" lengthAdjust="spacing" textLength="329" x="864.5" y="308.167">disableWeekDays(disableDays: number[]) : void</text><ellipse cx="855.5" cy="321.1172" fill="#84BE84" rx="3" ry="3" style="stroke:#038048;stroke-width:1.0;"/><text fill="#000000" font-family="sans-serif" font-size="14" lengthAdjust="spacing" textLength="106" x="864.5" y="324.4639">dispose() : void</text><ellipse cx="855.5" cy="337.4141" fill="#84BE84" rx="3" ry="3" style="stroke:#038048;stroke-width:1.0;"/><text fill="#000000" font-family="sans-serif" font-size="14" lengthAdjust="spacing" textLength="217" x="864.5" y="340.7607">equalsToID(id: string) : boolean</text><ellipse cx="855.5" cy="353.7109" fill="#84BE84" rx="3" ry="3" style="stroke:#038048;stroke-width:1.0;"/><text fill="#000000" font-family="sans-serif" font-size="14" lengthAdjust="spacing" textLength="87" x="864.5" y="357.0576">open() : void</text><ellipse cx="855.5" cy="370.0078" fill="#84BE84" rx="3" ry="3" style="stroke:#038048;stroke-width:1.0;"/><text fill="#000000" font-family="sans-serif" font-size="14" lengthAdjust="spacing" textLength="434" x="864.5" y="373.3545">registerCallback(eventName: string, callback: OSGeneric) : void</text><ellipse cx="855.5" cy="386.3047" fill="#84BE84" rx="3" ry="3" style="stroke:#038048;stroke-width:1.0;"/><text fill="#000000" font-family="sans-serif" font-size="14" lengthAdjust="spacing" textLength="225" x="864.5" y="389.6514">setLanguage(value: string) : void</text><ellipse cx="855.5" cy="402.6016" fill="#84BE84" rx="3" ry="3" style="stroke:#038048;stroke-width:1.0;"/><text fill="#000000" font-family="sans-serif" font-size="14" lengthAdjust="spacing" textLength="322" x="864.5" y="405.9482">setProviderConfigs(providerConfigs: any) : void</text><ellipse cx="855.5" cy="418.8984" fill="#84BE84" rx="3" ry="3" style="stroke:#038048;stroke-width:1.0;"/><text fill="#000000" font-family="sans-serif" font-size="14" lengthAdjust="spacing" textLength="537" x="864.5" y="422.2451">setProviderEvent(eventName: string, callback: Generic, uniqueId: string) : void</text><ellipse cx="855.5" cy="435.1953" fill="#84BE84" rx="3" ry="3" style="stroke:#038048;stroke-width:1.0;"/><text fill="#000000" font-family="sans-serif" font-size="14" lengthAdjust="spacing" textLength="285" x="864.5" y="438.542">unsetProviderEvent(eventId: string) : void</text><ellipse cx="855.5" cy="451.4922" fill="#84BE84" rx="3" ry="3" style="stroke:#038048;stroke-width:1.0;"/><text fill="#000000" font-family="sans-serif" font-size="14" lengthAdjust="spacing" textLength="351" x="864.5" y="454.8389">updateInitialDate(date1: string, date2: string) : void</text><ellipse cx="855.5" cy="467.7891" fill="#84BE84" rx="3" ry="3" style="stroke:#038048;stroke-width:1.0;"/><text fill="#000000" font-family="sans-serif" font-size="14" lengthAdjust="spacing" textLength="311" x="864.5" y="471.1357">updatePrompt(promptMessage: string) : void</text></g><!--class AbstractFlatpickr<C>--><g id="elem_AbstractFlatpickr&lt;C&gt;"><rect codeLine="99" fill="#FFFFFF" height="960.625" id="AbstractFlatpickr&lt;C&gt;" rx="2.5" ry="2.5" style="stroke:#272B30;stroke-width:0.5;" width="707" x="413.5" y="1265"/><ellipse cx="688.75" cy="1281" fill="#A9DCDF" rx="11" ry="11" style="stroke:#181818;stroke-width:1.0;"/><path d="M688.8594,1276.3438 L687.7031,1281.4219 L690.0313,1281.4219 L688.8594,1276.3438 Z M687.375,1274.1094 L690.3594,1274.1094 L693.7188,1286.5 L691.2656,1286.5 L690.5,1283.4375 L687.2188,1283.4375 L686.4688,1286.5 L684.0313,1286.5 L687.375,1274.1094 Z " fill="#000000"/><text fill="#000000" font-family="sans-serif" font-size="14" font-style="italic" lengthAdjust="spacing" textLength="148" x="709.25" y="1285.8467">AbstractFlatpickr&lt;C&gt;</text><line style="stroke:#272B30;stroke-width:0.5;" x1="414.5" x2="1119.5" y1="1297" y2="1297"/><ellipse cx="424.5" cy="1310.6484" fill="none" rx="3" ry="3" style="stroke:#038048;stroke-width:1.0;"/><text fill="#000000" font-family="sans-serif" font-size="14" lengthAdjust="spacing" textLength="205" x="433.5" y="1313.9951">onCloseCustomCallback : any</text><polygon fill="none" points="424.5,1321.9453,428.5,1325.9453,424.5,1329.9453,420.5,1325.9453" style="stroke:#B38D22;stroke-width:1.0;"/><text fill="#000000" font-family="sans-serif" font-size="14" lengthAdjust="spacing" textLength="341" x="433.5" y="1330.292">datePickerPlatformInputElem : HTMLInputElement</text><polygon fill="none" points="424.5,1338.2422,428.5,1342.2422,424.5,1346.2422,420.5,1342.2422" style="stroke:#B38D22;stroke-width:1.0;"/><text fill="#000000" font-family="sans-serif" font-size="14" lengthAdjust="spacing" textLength="265" x="433.5" y="1346.5889">flatpickrInputElem : HTMLInputElement</text><polygon fill="none" points="424.5,1354.5391,428.5,1358.5391,424.5,1362.5391,420.5,1358.5391" style="stroke:#B38D22;stroke-width:1.0;"/><text fill="#000000" font-family="sans-serif" font-size="14" lengthAdjust="spacing" textLength="210" x="433.5" y="1362.8857">flatpickrOpts : FlatpickrOptions</text><polygon fill="none" points="424.5,1370.8359,428.5,1374.8359,424.5,1378.8359,420.5,1374.8359" style="stroke:#B38D22;stroke-width:1.0;"/><text fill="#000000" font-family="sans-serif" font-size="14" lengthAdjust="spacing" textLength="180" x="433.5" y="1379.1826">isProviderBased : boolean</text><polygon fill="none" points="424.5,1387.1328,428.5,1391.1328,424.5,1395.1328,420.5,1391.1328" style="stroke:#B38D22;stroke-width:1.0;"/><text fill="#000000" font-family="sans-serif" font-size="14" lengthAdjust="spacing" textLength="321" x="433.5" y="1395.4795">onSelectedCallbackEvent : OSOnChangeEvent</text><polygon fill="none" points="424.5,1403.4297,428.5,1407.4297,424.5,1411.4297,420.5,1407.4297" style="stroke:#B38D22;stroke-width:1.0;"/><text fill="#000000" font-family="sans-serif" font-size="14" lengthAdjust="spacing" textLength="393" x="433.5" y="1411.7764">providerEventsManagerInstance : IProviderEventManager</text><rect fill="none" height="6" style="stroke:#C82930;stroke-width:1.0;" width="6" x="421.5" y="1421.7266"/><text fill="#000000" font-family="sans-serif" font-size="14" lengthAdjust="spacing" textLength="274" x="433.5" y="1428.0732">_a11yInfoContainerElem : HTMLElement</text><rect fill="none" height="6" style="stroke:#C82930;stroke-width:1.0;" width="6" x="421.5" y="1438.0234"/><text fill="#000000" font-family="sans-serif" font-size="14" lengthAdjust="spacing" textLength="385" x="433.5" y="1444.3701">_bodyScrollCommonBehaviour : UpdatePositionOnScroll</text><rect fill="none" height="6" style="stroke:#C82930;stroke-width:1.0;" width="6" x="421.5" y="1454.3203"/><text fill="#000000" font-family="sans-serif" font-size="14" lengthAdjust="spacing" textLength="293" x="433.5" y="1460.667">_providerFocusSpanTarget : HTMLElement</text><rect fill="none" height="6" style="stroke:#C82930;stroke-width:1.0;" width="6" x="421.5" y="1470.6172"/><text fill="#000000" font-family="sans-serif" font-size="14" lengthAdjust="spacing" textLength="234" x="433.5" y="1476.9639">_todayButtonElem : HTMLElement</text><rect fill="none" height="6" style="stroke:#C82930;stroke-width:1.0;" width="6" x="421.5" y="1486.9141"/><text fill="#000000" font-family="sans-serif" font-size="14" lengthAdjust="spacing" textLength="285" x="433.5" y="1493.2607">_zindexCommonBehavior : UpdateZindex</text><line style="stroke:#272B30;stroke-width:0.5;" x1="414.5" x2="1119.5" y1="1500.5625" y2="1500.5625"/><ellipse cx="424.5" cy="1514.2109" fill="#84BE84" rx="3" ry="3" style="stroke:#038048;stroke-width:1.0;"/><text fill="#000000" font-family="sans-serif" font-size="14" lengthAdjust="spacing" textLength="84" x="433.5" y="1517.5576">build() : void</text><ellipse cx="424.5" cy="1530.5078" fill="#84BE84" rx="3" ry="3" style="stroke:#038048;stroke-width:1.0;"/><text fill="#000000" font-family="sans-serif" font-size="14" lengthAdjust="spacing" textLength="484" x="433.5" y="1533.8545">changeProperty(propertyName: string, propertyValue: unknown) : void</text><ellipse cx="424.5" cy="1546.8047" fill="#84BE84" rx="3" ry="3" style="stroke:#038048;stroke-width:1.0;"/><text fill="#000000" font-family="sans-serif" font-size="14" lengthAdjust="spacing" textLength="241" x="433.5" y="1550.1514">checkAddedProviderEvents() : void</text><ellipse cx="424.5" cy="1563.1016" fill="#84BE84" rx="3" ry="3" style="stroke:#038048;stroke-width:1.0;"/><text fill="#000000" font-family="sans-serif" font-size="14" lengthAdjust="spacing" textLength="253" x="433.5" y="1566.4482">checkPendingProviderEvents() : void</text><ellipse cx="424.5" cy="1579.3984" fill="#84BE84" rx="3" ry="3" style="stroke:#038048;stroke-width:1.0;"/><text fill="#000000" font-family="sans-serif" font-size="14" lengthAdjust="spacing" textLength="84" x="433.5" y="1582.7451">clear() : void</text><ellipse cx="424.5" cy="1595.6953" fill="#84BE84" rx="3" ry="3" style="stroke:#038048;stroke-width:1.0;"/><text fill="#000000" font-family="sans-serif" font-size="14" lengthAdjust="spacing" textLength="88" x="433.5" y="1599.042">close() : void</text><ellipse cx="424.5" cy="1611.9922" fill="#84BE84" rx="3" ry="3" style="stroke:#038048;stroke-width:1.0;"/><text fill="#000000" font-family="sans-serif" font-size="14" lengthAdjust="spacing" textLength="275" x="433.5" y="1615.3389">disableDays(disableDays: string[]) : void</text><ellipse cx="424.5" cy="1628.2891" fill="#84BE84" rx="3" ry="3" style="stroke:#038048;stroke-width:1.0;"/><text fill="#000000" font-family="sans-serif" font-size="14" lengthAdjust="spacing" textLength="368" x="433.5" y="1631.6357">disableWeekDays(disableWeekDays: number[]) : void</text><ellipse cx="424.5" cy="1644.5859" fill="#84BE84" rx="3" ry="3" style="stroke:#038048;stroke-width:1.0;"/><text fill="#000000" font-family="sans-serif" font-size="14" lengthAdjust="spacing" textLength="106" x="433.5" y="1647.9326">dispose() : void</text><ellipse cx="424.5" cy="1660.8828" fill="#84BE84" rx="3" ry="3" style="stroke:#038048;stroke-width:1.0;"/><text fill="#000000" font-family="sans-serif" font-size="14" lengthAdjust="spacing" textLength="267" x="433.5" y="1664.2295">equalsToID(patternId: string) : boolean</text><ellipse cx="424.5" cy="1677.1797" fill="#84BE84" rx="3" ry="3" style="stroke:#038048;stroke-width:1.0;"/><text fill="#000000" font-family="sans-serif" font-size="14" lengthAdjust="spacing" textLength="87" x="433.5" y="1680.5264">open() : void</text><ellipse cx="424.5" cy="1693.4766" fill="#84BE84" rx="3" ry="3" style="stroke:#038048;stroke-width:1.0;"/><text fill="#000000" font-family="sans-serif" font-size="14" lengthAdjust="spacing" textLength="434" x="433.5" y="1696.8232">registerCallback(eventName: string, callback: OSGeneric) : void</text><ellipse cx="424.5" cy="1709.7734" fill="#84BE84" rx="3" ry="3" style="stroke:#038048;stroke-width:1.0;"/><text fill="#000000" font-family="sans-serif" font-size="14" lengthAdjust="spacing" textLength="294" x="433.5" y="1713.1201">setEditableInput(isEditable: boolean) : void</text><ellipse cx="424.5" cy="1726.0703" fill="#84BE84" rx="3" ry="3" style="stroke:#038048;stroke-width:1.0;"/><text fill="#000000" font-family="sans-serif" font-size="14" lengthAdjust="spacing" textLength="225" x="433.5" y="1729.417">setLanguage(value: string) : void</text><ellipse cx="424.5" cy="1742.3672" fill="#84BE84" rx="3" ry="3" style="stroke:#038048;stroke-width:1.0;"/><text fill="#000000" font-family="sans-serif" font-size="14" lengthAdjust="spacing" textLength="382" x="433.5" y="1745.7139">setProviderConfigs(newConfigs: FlatpickrOptions) : void</text><ellipse cx="424.5" cy="1758.6641" fill="#84BE84" rx="3" ry="3" style="stroke:#038048;stroke-width:1.0;"/><text fill="#000000" font-family="sans-serif" font-size="14" lengthAdjust="spacing" textLength="681" x="433.5" y="1762.0107">setProviderEvent(eventName: string, callback: Generic, uniqueId: string, saveEvent: boolean) : void</text><ellipse cx="424.5" cy="1774.9609" fill="#84BE84" rx="3" ry="3" style="stroke:#038048;stroke-width:1.0;"/><text fill="#000000" font-family="sans-serif" font-size="14" lengthAdjust="spacing" textLength="285" x="433.5" y="1778.3076">unsetProviderEvent(eventId: string) : void</text><ellipse cx="424.5" cy="1791.2578" fill="#84BE84" rx="3" ry="3" style="stroke:#038048;stroke-width:1.0;"/><text fill="#000000" font-family="sans-serif" font-size="14" font-style="italic" lengthAdjust="spacing" textLength="328" x="433.5" y="1794.6045">updateInitialDate(start: string, end: string) : void</text><ellipse cx="424.5" cy="1807.5547" fill="#84BE84" rx="3" ry="3" style="stroke:#038048;stroke-width:1.0;"/><text fill="#000000" font-family="sans-serif" font-size="14" lengthAdjust="spacing" textLength="311" x="433.5" y="1810.9014">updatePrompt(promptMessage: string) : void</text><ellipse cx="424.5" cy="1823.8516" fill="#84BE84" rx="3" ry="3" style="stroke:#038048;stroke-width:1.0;"/><text fill="#000000" font-family="sans-serif" font-size="14" lengthAdjust="spacing" textLength="374" x="433.5" y="1827.1982">updateProviderEvents(providerInfo: ProviderInfo) : void</text><polygon fill="#FFFF44" points="424.5,1835.1484,428.5,1839.1484,424.5,1843.1484,420.5,1839.1484" style="stroke:#B38D22;stroke-width:1.0;"/><text fill="#000000" font-family="sans-serif" font-size="14" lengthAdjust="spacing" textLength="143" x="433.5" y="1843.4951">addTodayBtn() : void</text><polygon fill="#FFFF44" points="424.5,1851.4453,428.5,1855.4453,424.5,1859.4453,420.5,1855.4453" style="stroke:#B38D22;stroke-width:1.0;"/><text fill="#000000" font-family="sans-serif" font-size="14" lengthAdjust="spacing" textLength="210" x="433.5" y="1859.792">createProviderInstance() : void</text><polygon fill="#FFFF44" points="424.5,1867.7422,428.5,1871.7422,424.5,1875.7422,420.5,1871.7422" style="stroke:#B38D22;stroke-width:1.0;"/><text fill="#000000" font-family="sans-serif" font-size="14" lengthAdjust="spacing" textLength="121" x="433.5" y="1876.0889">finishBuild() : void</text><polygon fill="#FFFF44" points="424.5,1884.0391,428.5,1888.0391,424.5,1892.0391,420.5,1888.0391" style="stroke:#B38D22;stroke-width:1.0;"/><text fill="#000000" font-family="sans-serif" font-size="14" lengthAdjust="spacing" textLength="153" x="433.5" y="1892.3857">jumpIntoToday() : void</text><polygon fill="#FFFF44" points="424.5,1900.3359,428.5,1904.3359,424.5,1908.3359,420.5,1904.3359" style="stroke:#B38D22;stroke-width:1.0;"/><text fill="#000000" font-family="sans-serif" font-size="14" lengthAdjust="spacing" textLength="183" x="433.5" y="1908.6826">onDatePickerClose() : void</text><polygon fill="#FFFF44" points="424.5,1916.6328,428.5,1920.6328,424.5,1924.6328,420.5,1920.6328" style="stroke:#B38D22;stroke-width:1.0;"/><text fill="#000000" font-family="sans-serif" font-size="14" font-style="italic" lengthAdjust="spacing" textLength="355" x="433.5" y="1924.9795">onDateSelectedEvent(selectedDates: Date[]) : void</text><polygon fill="#FFFF44" points="424.5,1932.9297,428.5,1936.9297,424.5,1940.9297,420.5,1936.9297" style="stroke:#B38D22;stroke-width:1.0;"/><text fill="#000000" font-family="sans-serif" font-size="14" lengthAdjust="spacing" textLength="157" x="433.5" y="1941.2764">prepareConfigs() : void</text><polygon fill="#FFFF44" points="424.5,1949.2266,428.5,1953.2266,424.5,1957.2266,420.5,1953.2266" style="stroke:#B38D22;stroke-width:1.0;"/><text fill="#000000" font-family="sans-serif" font-size="14" lengthAdjust="spacing" textLength="202" x="433.5" y="1957.5732">prepareToAndRedraw() : void</text><polygon fill="#FFFF44" points="424.5,1965.5234,428.5,1969.5234,424.5,1973.5234,420.5,1969.5234" style="stroke:#B38D22;stroke-width:1.0;"/><text fill="#000000" font-family="sans-serif" font-size="14" lengthAdjust="spacing" textLength="98" x="433.5" y="1973.8701">redraw() : void</text><polygon fill="#FFFF44" points="424.5,1981.8203,428.5,1985.8203,424.5,1989.8203,420.5,1985.8203" style="stroke:#B38D22;stroke-width:1.0;"/><text fill="#000000" font-family="sans-serif" font-size="14" lengthAdjust="spacing" textLength="180" x="433.5" y="1990.167">setA11YProperties() : void</text><polygon fill="#FFFF44" points="424.5,1998.1172,428.5,2002.1172,424.5,2006.1172,420.5,2002.1172" style="stroke:#B38D22;stroke-width:1.0;"/><text fill="#000000" font-family="sans-serif" font-size="14" lengthAdjust="spacing" textLength="138" x="433.5" y="2006.4639">setCallbacks() : void</text><polygon fill="#FFFF44" points="424.5,2014.4141,428.5,2018.4141,424.5,2022.4141,420.5,2018.4141" style="stroke:#B38D22;stroke-width:1.0;"/><text fill="#000000" font-family="sans-serif" font-size="14" lengthAdjust="spacing" textLength="169" x="433.5" y="2022.7607">setHtmlElements() : void</text><polygon fill="#FFFF44" points="424.5,2030.7109,428.5,2034.7109,424.5,2038.7109,420.5,2034.7109" style="stroke:#B38D22;stroke-width:1.0;"/><text fill="#000000" font-family="sans-serif" font-size="14" font-style="italic" lengthAdjust="spacing" textLength="282" x="433.5" y="2039.0576">todayBtnClick(event: MouseEvent) : void</text><polygon fill="#FFFF44" points="424.5,2047.0078,428.5,2051.0078,424.5,2055.0078,420.5,2051.0078" style="stroke:#B38D22;stroke-width:1.0;"/><text fill="#000000" font-family="sans-serif" font-size="14" lengthAdjust="spacing" textLength="569" x="433.5" y="2055.3545">triggerPlatformEventCallback(platFormCallback: OSGeneric, args: unknown[]) : void</text><polygon fill="#FFFF44" points="424.5,2063.3047,428.5,2067.3047,424.5,2071.3047,420.5,2067.3047" style="stroke:#B38D22;stroke-width:1.0;"/><text fill="#000000" font-family="sans-serif" font-size="14" lengthAdjust="spacing" textLength="311" x="433.5" y="2071.6514">triggerPlatformInitializedEventCallback() : void</text><polygon fill="#FFFF44" points="424.5,2079.6016,428.5,2083.6016,424.5,2087.6016,420.5,2083.6016" style="stroke:#B38D22;stroke-width:1.0;"/><text fill="#000000" font-family="sans-serif" font-size="14" lengthAdjust="spacing" textLength="156" x="433.5" y="2087.9482">unsetCallbacks() : void</text><polygon fill="#FFFF44" points="424.5,2095.8984,428.5,2099.8984,424.5,2103.8984,420.5,2099.8984" style="stroke:#B38D22;stroke-width:1.0;"/><text fill="#000000" font-family="sans-serif" font-size="14" lengthAdjust="spacing" textLength="199" x="433.5" y="2104.2451">unsetGlobalCallbacks() : void</text><polygon fill="#FFFF44" points="424.5,2112.1953,428.5,2116.1953,424.5,2120.1953,420.5,2116.1953" style="stroke:#B38D22;stroke-width:1.0;"/><text fill="#000000" font-family="sans-serif" font-size="14" lengthAdjust="spacing" textLength="187" x="433.5" y="2120.542">unsetHtmlElements() : void</text><polygon fill="#FFFF44" points="424.5,2128.4922,428.5,2132.4922,424.5,2136.4922,420.5,2132.4922" style="stroke:#B38D22;stroke-width:1.0;"/><text fill="#000000" font-family="sans-serif" font-size="14" font-style="italic" lengthAdjust="spacing" textLength="224" x="433.5" y="2136.8389">updatePlatformInputAttrs() : void</text><rect fill="#F24D5C" height="6" style="stroke:#C82930;stroke-width:1.0;" width="6" x="421.5" y="2146.7891"/><text fill="#000000" font-family="sans-serif" font-size="14" lengthAdjust="spacing" textLength="147" x="433.5" y="2153.1357">_setAttributes() : void</text><rect fill="#F24D5C" height="6" style="stroke:#C82930;stroke-width:1.0;" width="6" x="421.5" y="2163.0859"/><text fill="#000000" font-family="sans-serif" font-size="14" lengthAdjust="spacing" textLength="221" x="433.5" y="2169.4326">_setCalendarCssClasses() : void</text><rect fill="#F24D5C" height="6" style="stroke:#C82930;stroke-width:1.0;" width="6" x="421.5" y="2179.3828"/><text fill="#000000" font-family="sans-serif" font-size="14" lengthAdjust="spacing" textLength="194" x="433.5" y="2185.7295">_setParentMinHeight() : void</text><rect fill="#F24D5C" height="6" style="stroke:#C82930;stroke-width:1.0;" width="6" x="421.5" y="2195.6797"/><text fill="#000000" font-family="sans-serif" font-size="14" lengthAdjust="spacing" textLength="328" x="433.5" y="2202.0264">_todayButtonKeydown(e: KeyboardEvent) : void</text><rect fill="#F24D5C" height="6" style="stroke:#C82930;stroke-width:1.0;" width="6" x="421.5" y="2211.9766"/><text fill="#000000" font-family="sans-serif" font-size="14" lengthAdjust="spacing" textLength="212" x="433.5" y="2218.3232">_unsetParentMinHeight() : void</text></g><!--reverse link AbstractProviderPattern<P, C> to AbstractDatePicker<P, C>--><g id="link_AbstractProviderPattern&lt;P, C&gt;_AbstractDatePicker&lt;P, C&gt;"><path codeLine="75" d="M579.9028,591.8228 C591.1928,611.6028 593.66,615.91 604.95,635.69 " fill="none" id="AbstractProviderPattern&lt;P, C&gt;-backto-AbstractDatePicker&lt;P, C&gt;" style="stroke:#272B30;stroke-width:1.0;"/><polygon fill="none" points="570.98,576.19,574.6919,594.797,585.1138,588.8485,570.98,576.19" style="stroke:#272B30;stroke-width:1.0;"/></g><!--reverse link IDatePicker to AbstractDatePicker<P, C>--><g id="link_IDatePicker_AbstractDatePicker&lt;P, C&gt;"><path codeLine="98" d="M1010.3179,494.5418 C982.0579,543.9118 959.83,582.71 929.34,635.97 " fill="none" id="IDatePicker-backto-AbstractDatePicker&lt;P, C&gt;" style="stroke:#272B30;stroke-width:1.0;stroke-dasharray:7.0,7.0;"/><polygon fill="none" points="1019.26,478.92,1005.1107,491.5611,1015.5252,497.5224,1019.26,478.92" style="stroke:#272B30;stroke-width:1.0;"/></g><!--reverse link AbstractDatePicker<P, C> to AbstractFlatpickr<C>--><g id="link_AbstractDatePicker&lt;P, C&gt;_AbstractFlatpickr&lt;C&gt;"><path codeLine="157" d="M767,1223.02 C767,1242.54 767,1244.49 767,1264.67 " fill="none" id="AbstractDatePicker&lt;P, C&gt;-backto-AbstractFlatpickr&lt;C&gt;" style="stroke:#272B30;stroke-width:1.0;"/><polygon fill="none" points="767,1205.02,761,1223.02,773,1223.02,767,1205.02" style="stroke:#272B30;stroke-width:1.0;"/></g><!--SRC=[xLbjJoCt4FxEhx38bo32gT1AbH2g51OuLZtAgd2jsgf2tlKaSUErzsnlQEwE_twpRubtixjm79nqj7mXzhpOdfTdPX8pvpAXciR44zIOiTRgrbD2QJ8u-F4W_FwxBLFdE5QQWUvdeT5ygbKgMSascKmSdWro1Em7HhTcd061EB5B4eETAMRShGa7WJiqD5RJo98eEubiZylr2RKGy6WE-YWO4U-dRV9XY-3VW9j0gmNgqSVK02E795HA09K5EIc9fmkGrbnGIQUWVMaibH4Win-u32Kz5zqDKoxOS0UP5egpOY-QKJa5b4b0s-KmAJ_yGcCu97XJBgSZKkt-HaMAswcSItKhcueWceyP0rQxW1csi0KW6IhkO_nGsUqEPV3rke-i37IJ6JSq5712bsQuA1vGlEkll- -J-HrWxih9D0v1D-GovcJZ1hlmBgN2N2l_P9XGQq5BdrKdxpISwXwDbfODLHgctA06ZmeHOYmE8JDOtKLHIJiabrUlGOBcKUVh3DWtwFKK8wDkaVgno5Pvo5DomgTccDJN7Q7W2EQkxRzlUTiHwkBlKbXRQKGCNK2kOMMk-a6fR3-gRkbM6wG9mmJq9RUSYYmNXzbwVtrsjZnue1gy0gPyPXtyTm76e6NRRRhYTmE_igel9-gG1Cwg9ZoOSCdDx7WpYvqR8Ju0eXPK7gjhqC0qlUqMHdEEz_V_AE60W-bbhUAnd-lSnk9KGBoPumCqq1JHAH3KJfIEStEiWZp1tJFSzJOZUqIeTgAlaP1DjQMJ-NjWzHFgKdamTJof8BuMAgJY0Q_EkTlVVTTP42g_1mLQVAsgi7T3pL96lboeY5gk4AP8XNGbG-Bwfm49uoGH75Xb5E9ugP8k1P0KDBQo42VrYF_sAjKJuF-J8FpBm-l_qVA_ZfO5N4GPY8bVMxonTpC5cr_Jbmp-FSC2Z0C1NHPXrOIzdIQm8Q8mqOYlSU0_CFufO_LW7v7EOvqR5uSsNtEtTLyXEFgujzSpFcnnYTmJYd2_xQ-fLG7PvIPB1Tj47WDYKjeTIUVN5s_ALPMnHOwJoXB5zYrdQFYDxUU5xSqfeAtrh_NxpkUEhd-ZrQ-9FBBXvzr8_qpj_LFsz5GkdwK-F4KjU5J3_ZbTEkPXBNkEFhvwrPTrNTtS6S9fWfpwQDt4xIhfPG7hfSQgs6cPqE85SBAL_ZKS9wdDKhBCpjMwIj71f3hfCrWl4skGwynPO-Td7jHgAda50YAxRlfox-MTtwNqydJFTvwWCztVNsQ57KFJKevXvRpEVTZUJQZOyYhIIWXFnR6Inp2Z2wxIhEjyMtXV6Puzyb8MV8rMz4n5gRbAgBp6OWcszH2h65qUfzOgsNcHzpmhHBLBhE_mPqxy1blShukzrVhvld1vJXW-PTnchyZJRyXDjUxeYHyFt19kLvZTpEINy8KCGeIswxCnJByOtRzygi2cxpg70Tk8dq6amL5R8TpmWKF9u9yqJdnfLQwzGLDoNNYytcyxIzOAeGiNc7ALKJ1Mid_D8Q1t3Yg9rseiMLiNtZeetJSTzOn4_NEG-rfRki8Jl4hOGtAXKWERdVUBcf_k6vfgyrKHxsv3CRPMRunPcSDmduUfXJOYNWLpa6hFcFnNarQc00C5opYNvy2dCzlaS4hepx1aQCuXPYb-31NLh6rSAY2bIwipDct-e5AVc6eTsIS0]--></g></svg>