<?xml version="1.0" encoding="us-ascii" standalone="no"?><svg xmlns="http://www.w3.org/2000/svg" xmlns:xlink="http://www.w3.org/1999/xlink" contentStyleType="text/css" height="1646px" preserveAspectRatio="none" style="width:1291px;height:1646px;background:#CED4DA;" version="1.1" viewBox="0 0 1291 1646" width="1291px" zoomAndPan="magnify"><defs/><g><rect fill="#CED4DA" height="1646" style="stroke:none;stroke-width:1.0;" width="1291" x="0" y="0"/><!--class AbstractFlatpickrConfig--><g id="elem_AbstractFlatpickrConfig"><rect codeLine="7" fill="#FFFFFF" height="650.9844" id="AbstractFlatpickrConfig" rx="2.5" ry="2.5" style="stroke:#272B30;stroke-width:0.5;" width="620" x="336" y="408"/><ellipse cx="562.75" cy="424" fill="#A9DCDF" rx="11" ry="11" style="stroke:#181818;stroke-width:1.0;"/><path d="M562.8594,419.3438 L561.7031,424.4219 L564.0313,424.4219 L562.8594,419.3438 Z M561.375,417.1094 L564.3594,417.1094 L567.7188,429.5 L565.2656,429.5 L564.5,426.4375 L561.2188,426.4375 L560.4688,429.5 L558.0313,429.5 L561.375,417.1094 Z " fill="#000000"/><text fill="#000000" font-family="sans-serif" font-size="14" font-style="italic" lengthAdjust="spacing" textLength="158" x="583.25" y="428.8467">AbstractFlatpickrConfig</text><line style="stroke:#272B30;stroke-width:0.5;" x1="337" x2="955" y1="440" y2="440"/><ellipse cx="347" cy="453.6484" fill="none" rx="3" ry="3" style="stroke:#038048;stroke-width:1.0;"/><text fill="#000000" font-family="sans-serif" font-size="14" lengthAdjust="spacing" textLength="139" x="356" y="456.9951">AllowInput : boolean</text><ellipse cx="347" cy="469.9453" fill="none" rx="3" ry="3" style="stroke:#038048;stroke-width:1.0;"/><text fill="#000000" font-family="sans-serif" font-size="14" lengthAdjust="spacing" textLength="152" x="356" y="473.292">CalendarMode : Mode</text><ellipse cx="347" cy="486.2422" fill="none" rx="3" ry="3" style="stroke:#038048;stroke-width:1.0;"/><text fill="#000000" font-family="sans-serif" font-size="14" lengthAdjust="spacing" textLength="133" x="356" y="489.5889">DateFormat : string</text><ellipse cx="347" cy="502.5391" fill="none" rx="3" ry="3" style="stroke:#038048;stroke-width:1.0;"/><text fill="#000000" font-family="sans-serif" font-size="14" lengthAdjust="spacing" textLength="98" x="356" y="505.8857">Disable : any[]</text><ellipse cx="347" cy="518.8359" fill="none" rx="3" ry="3" style="stroke:#038048;stroke-width:1.0;"/><text fill="#000000" font-family="sans-serif" font-size="14" lengthAdjust="spacing" textLength="165" x="356" y="522.1826">DisableMobile : boolean</text><ellipse cx="347" cy="535.1328" fill="none" rx="3" ry="3" style="stroke:#038048;stroke-width:1.0;"/><text fill="#000000" font-family="sans-serif" font-size="14" lengthAdjust="spacing" textLength="155" x="356" y="538.4795">ExtendedClass : string</text><ellipse cx="347" cy="551.4297" fill="none" rx="3" ry="3" style="stroke:#038048;stroke-width:1.0;"/><text fill="#000000" font-family="sans-serif" font-size="14" lengthAdjust="spacing" textLength="161" x="356" y="554.7764">FirstWeekDay : number</text><ellipse cx="347" cy="567.7266" fill="none" rx="3" ry="3" style="stroke:#038048;stroke-width:1.0;"/><text fill="#000000" font-family="sans-serif" font-size="14" lengthAdjust="spacing" textLength="112" x="356" y="571.0732">MaxDate : string</text><ellipse cx="347" cy="584.0234" fill="none" rx="3" ry="3" style="stroke:#038048;stroke-width:1.0;"/><text fill="#000000" font-family="sans-serif" font-size="14" lengthAdjust="spacing" textLength="109" x="356" y="587.3701">MinDate : string</text><ellipse cx="347" cy="600.3203" fill="none" rx="3" ry="3" style="stroke:#038048;stroke-width:1.0;"/><text fill="#000000" font-family="sans-serif" font-size="14" lengthAdjust="spacing" textLength="141" x="356" y="603.667">OnChange : Generic</text><ellipse cx="347" cy="616.6172" fill="none" rx="3" ry="3" style="stroke:#038048;stroke-width:1.0;"/><text fill="#000000" font-family="sans-serif" font-size="14" lengthAdjust="spacing" textLength="126" x="356" y="619.9639">OnClose : Generic</text><ellipse cx="347" cy="632.9141" fill="none" rx="3" ry="3" style="stroke:#038048;stroke-width:1.0;"/><text fill="#000000" font-family="sans-serif" font-size="14" lengthAdjust="spacing" textLength="196" x="356" y="636.2607">ShowTodayButton : boolean</text><ellipse cx="347" cy="649.2109" fill="none" rx="3" ry="3" style="stroke:#038048;stroke-width:1.0;"/><text fill="#000000" font-family="sans-serif" font-size="14" lengthAdjust="spacing" textLength="209" x="356" y="652.5576">ShowWeekNumbers : boolean</text><ellipse cx="347" cy="665.5078" fill="none" rx="3" ry="3" style="stroke:#038048;stroke-width:1.0;"/><text fill="#000000" font-family="sans-serif" font-size="14" lengthAdjust="spacing" textLength="134" x="356" y="668.8545">TimeFormat : string</text><polygon fill="none" points="347,676.8047,351,680.8047,347,684.8047,343,680.8047" style="stroke:#B38D22;stroke-width:1.0;"/><text fill="#000000" font-family="sans-serif" font-size="14" lengthAdjust="spacing" textLength="300" x="356" y="685.1514">providerExtendedOptions : FlatpickrOptions</text><rect fill="none" height="6" style="stroke:#C82930;stroke-width:1.0;" width="6" x="344" y="695.1016"/><text fill="#000000" font-family="sans-serif" font-size="14" lengthAdjust="spacing" textLength="146" x="356" y="701.4482">_disabledDays : any[]</text><rect fill="none" height="6" style="stroke:#C82930;stroke-width:1.0;" width="6" x="344" y="711.3984"/><text fill="#000000" font-family="sans-serif" font-size="14" lengthAdjust="spacing" textLength="185" x="356" y="717.7451">_disabledWeekDays : any[]</text><rect fill="none" height="6" style="stroke:#C82930;stroke-width:1.0;" width="6" x="344" y="727.6953"/><text fill="#000000" font-family="sans-serif" font-size="14" lengthAdjust="spacing" textLength="193" x="356" y="734.042">_isUsingDateTime : boolean</text><rect fill="none" height="6" style="stroke:#C82930;stroke-width:1.0;" width="6" x="344" y="743.9922"/><text fill="#000000" font-family="sans-serif" font-size="14" lengthAdjust="spacing" textLength="88" x="356" y="750.3389">_lang : string</text><rect fill="none" height="6" style="stroke:#C82930;stroke-width:1.0;" width="6" x="344" y="760.2891"/><text fill="#000000" font-family="sans-serif" font-size="14" lengthAdjust="spacing" textLength="241" x="356" y="766.6357">_providerOptions : FlatpickrOptions</text><line style="stroke:#272B30;stroke-width:0.5;" x1="337" x2="955" y1="773.9375" y2="773.9375"/><ellipse cx="347" cy="787.5859" fill="#84BE84" rx="3" ry="3" style="stroke:#038048;stroke-width:1.0;"/><text fill="#000000" font-family="sans-serif" font-size="14" lengthAdjust="spacing" textLength="257" x="356" y="790.9326">getProviderConfig() : FlatpickrOptions</text><ellipse cx="347" cy="803.8828" fill="#84BE84" rx="3" ry="3" style="stroke:#038048;stroke-width:1.0;"/><text fill="#000000" font-family="sans-serif" font-size="14" lengthAdjust="spacing" textLength="406" x="356" y="807.2295">setExtensibilityConfigs(newConfigs: FlatpickrOptions) : void</text><ellipse cx="347" cy="820.1797" fill="#84BE84" rx="3" ry="3" style="stroke:#038048;stroke-width:1.0;"/><text fill="#000000" font-family="sans-serif" font-size="14" lengthAdjust="spacing" textLength="412" x="356" y="823.5264">validateCanChange(_isBuilt: boolean, _key: string) : boolean</text><ellipse cx="347" cy="836.4766" fill="#84BE84" rx="3" ry="3" style="stroke:#038048;stroke-width:1.0;"/><text fill="#000000" font-family="sans-serif" font-size="14" lengthAdjust="spacing" textLength="377" x="356" y="839.8232">validateDefault(key: string, value: unknown) : unknown</text><polygon fill="#FFFF44" points="347,847.7734,351,851.7734,347,855.7734,343,851.7734" style="stroke:#B38D22;stroke-width:1.0;"/><text fill="#000000" font-family="sans-serif" font-size="14" lengthAdjust="spacing" textLength="594" x="356" y="856.1201">mergeConfigs(commonConfigs: any, specificConfigs: any, extendedConfigs: any) : any</text><polygon fill="#FFFF44" points="347,864.0703,351,868.0703,347,872.0703,343,868.0703" style="stroke:#B38D22;stroke-width:1.0;"/><text fill="#000000" font-family="sans-serif" font-size="14" lengthAdjust="spacing" textLength="447" x="356" y="872.417">validateBoolean(value: boolean, defaultValue: boolean) : boolean</text><polygon fill="#FFFF44" points="347,880.3672,351,884.3672,347,888.3672,343,884.3672" style="stroke:#B38D22;stroke-width:1.0;"/><text fill="#000000" font-family="sans-serif" font-size="14" lengthAdjust="spacing" textLength="464" x="356" y="888.7139">validateDate(value: string | Date, defaultValue: string) : string | Date</text><polygon fill="#FFFF44" points="347,896.6641,351,900.6641,347,904.6641,343,900.6641" style="stroke:#B38D22;stroke-width:1.0;"/><text fill="#000000" font-family="sans-serif" font-size="14" lengthAdjust="spacing" textLength="592" x="356" y="905.0107">validateInRange(value: unknown, defaultValue: unknown, args: unknown[]) : unknown</text><polygon fill="#FFFF44" points="347,912.9609,351,916.9609,347,920.9609,343,916.9609" style="stroke:#B38D22;stroke-width:1.0;"/><text fill="#000000" font-family="sans-serif" font-size="14" lengthAdjust="spacing" textLength="439" x="356" y="921.3076">validateNumber(value: number, defaultValue: number) : number</text><polygon fill="#FFFF44" points="347,929.2578,351,933.2578,347,937.2578,343,933.2578" style="stroke:#B38D22;stroke-width:1.0;"/><text fill="#000000" font-family="sans-serif" font-size="14" lengthAdjust="spacing" textLength="379" x="356" y="937.6045">validateString(value: string, defaultValue: string) : string</text><polygon fill="#FFFF44" points="347,945.5547,351,949.5547,347,953.5547,343,949.5547" style="stroke:#B38D22;stroke-width:1.0;"/><text fill="#000000" font-family="sans-serif" font-size="14" lengthAdjust="spacing" textLength="373" x="356" y="953.9014">validateTime(value: string, defaultValue: string) : string</text><rect fill="#F24D5C" height="6" style="stroke:#C82930;stroke-width:1.0;" width="6" x="344" y="963.8516"/><text fill="#000000" font-family="sans-serif" font-size="14" lengthAdjust="spacing" textLength="176" x="356" y="970.1982">_checkAltFormat() : string</text><rect fill="#F24D5C" height="6" style="stroke:#C82930;stroke-width:1.0;" width="6" x="344" y="980.1484"/><text fill="#000000" font-family="sans-serif" font-size="14" lengthAdjust="spacing" textLength="325" x="356" y="986.4951">_checkDisableWeeksDay(date: Date) : boolean</text><rect fill="#F24D5C" height="6" style="stroke:#C82930;stroke-width:1.0;" width="6" x="344" y="996.4453"/><text fill="#000000" font-family="sans-serif" font-size="14" lengthAdjust="spacing" textLength="214" x="356" y="1002.792">_checkLocale() : CustomLocale</text><rect fill="#F24D5C" height="6" style="stroke:#C82930;stroke-width:1.0;" width="6" x="344" y="1012.7422"/><text fill="#000000" font-family="sans-serif" font-size="14" lengthAdjust="spacing" textLength="236" x="356" y="1019.0889">_mapProviderDateFormat() : string</text><rect fill="#F24D5C" height="6" style="stroke:#C82930;stroke-width:1.0;" width="6" x="344" y="1029.0391"/><text fill="#000000" font-family="sans-serif" font-size="14" lengthAdjust="spacing" textLength="131" x="356" y="1035.3857">_setDisable() : void</text><rect fill="#F24D5C" height="6" style="stroke:#C82930;stroke-width:1.0;" width="6" x="344" y="1045.3359"/><text fill="#000000" font-family="sans-serif" font-size="14" lengthAdjust="spacing" textLength="279" x="356" y="1051.6826">_validateDate(date: string) : string | Date</text></g><!--class AbstractDatePickerConfig--><g id="elem_AbstractDatePickerConfig"><rect codeLine="46" fill="#FFFFFF" height="341.3438" id="AbstractDatePickerConfig" rx="2.5" ry="2.5" style="stroke:#272B30;stroke-width:0.5;" width="620" x="336" y="7"/><ellipse cx="554.25" cy="23" fill="#A9DCDF" rx="11" ry="11" style="stroke:#181818;stroke-width:1.0;"/><path d="M554.3594,18.3438 L553.2031,23.4219 L555.5313,23.4219 L554.3594,18.3438 Z M552.875,16.1094 L555.8594,16.1094 L559.2188,28.5 L556.7656,28.5 L556,25.4375 L552.7188,25.4375 L551.9688,28.5 L549.5313,28.5 L552.875,16.1094 Z " fill="#000000"/><text fill="#000000" font-family="sans-serif" font-size="14" font-style="italic" lengthAdjust="spacing" textLength="175" x="574.75" y="27.8467">AbstractDatePickerConfig</text><line style="stroke:#272B30;stroke-width:0.5;" x1="337" x2="955" y1="39" y2="39"/><ellipse cx="347" cy="52.6484" fill="none" rx="3" ry="3" style="stroke:#038048;stroke-width:1.0;"/><text fill="#000000" font-family="sans-serif" font-size="14" lengthAdjust="spacing" textLength="133" x="356" y="55.9951">DateFormat : string</text><ellipse cx="347" cy="68.9453" fill="none" rx="3" ry="3" style="stroke:#038048;stroke-width:1.0;"/><text fill="#000000" font-family="sans-serif" font-size="14" lengthAdjust="spacing" textLength="155" x="356" y="72.292">ExtendedClass : string</text><ellipse cx="347" cy="85.2422" fill="none" rx="3" ry="3" style="stroke:#038048;stroke-width:1.0;"/><text fill="#000000" font-family="sans-serif" font-size="14" lengthAdjust="spacing" textLength="161" x="356" y="88.5889">FirstWeekDay : number</text><ellipse cx="347" cy="101.5391" fill="none" rx="3" ry="3" style="stroke:#038048;stroke-width:1.0;"/><text fill="#000000" font-family="sans-serif" font-size="14" lengthAdjust="spacing" textLength="112" x="356" y="104.8857">MaxDate : string</text><ellipse cx="347" cy="117.8359" fill="none" rx="3" ry="3" style="stroke:#038048;stroke-width:1.0;"/><text fill="#000000" font-family="sans-serif" font-size="14" lengthAdjust="spacing" textLength="109" x="356" y="121.1826">MinDate : string</text><ellipse cx="347" cy="134.1328" fill="none" rx="3" ry="3" style="stroke:#038048;stroke-width:1.0;"/><text fill="#000000" font-family="sans-serif" font-size="14" lengthAdjust="spacing" textLength="196" x="356" y="137.4795">ShowTodayButton : boolean</text><ellipse cx="347" cy="150.4297" fill="none" rx="3" ry="3" style="stroke:#038048;stroke-width:1.0;"/><text fill="#000000" font-family="sans-serif" font-size="14" lengthAdjust="spacing" textLength="209" x="356" y="153.7764">ShowWeekNumbers : boolean</text><ellipse cx="347" cy="166.7266" fill="none" rx="3" ry="3" style="stroke:#038048;stroke-width:1.0;"/><text fill="#000000" font-family="sans-serif" font-size="14" lengthAdjust="spacing" textLength="134" x="356" y="170.0732">TimeFormat : string</text><line style="stroke:#272B30;stroke-width:0.5;" x1="337" x2="955" y1="177.375" y2="177.375"/><ellipse cx="347" cy="191.0234" fill="#84BE84" rx="3" ry="3" style="stroke:#038048;stroke-width:1.0;"/><text fill="#000000" font-family="sans-serif" font-size="14" font-style="italic" lengthAdjust="spacing" textLength="171" x="356" y="194.3701">getProviderConfig() : any</text><ellipse cx="347" cy="207.3203" fill="#84BE84" rx="3" ry="3" style="stroke:#038048;stroke-width:1.0;"/><text fill="#000000" font-family="sans-serif" font-size="14" lengthAdjust="spacing" textLength="412" x="356" y="210.667">validateCanChange(_isBuilt: boolean, _key: string) : boolean</text><ellipse cx="347" cy="223.6172" fill="#84BE84" rx="3" ry="3" style="stroke:#038048;stroke-width:1.0;"/><text fill="#000000" font-family="sans-serif" font-size="14" lengthAdjust="spacing" textLength="377" x="356" y="226.9639">validateDefault(key: string, value: unknown) : unknown</text><polygon fill="#FFFF44" points="347,234.9141,351,238.9141,347,242.9141,343,238.9141" style="stroke:#B38D22;stroke-width:1.0;"/><text fill="#000000" font-family="sans-serif" font-size="14" lengthAdjust="spacing" textLength="594" x="356" y="243.2607">mergeConfigs(commonConfigs: any, specificConfigs: any, extendedConfigs: any) : any</text><polygon fill="#FFFF44" points="347,251.2109,351,255.2109,347,259.2109,343,255.2109" style="stroke:#B38D22;stroke-width:1.0;"/><text fill="#000000" font-family="sans-serif" font-size="14" lengthAdjust="spacing" textLength="447" x="356" y="259.5576">validateBoolean(value: boolean, defaultValue: boolean) : boolean</text><polygon fill="#FFFF44" points="347,267.5078,351,271.5078,347,275.5078,343,271.5078" style="stroke:#B38D22;stroke-width:1.0;"/><text fill="#000000" font-family="sans-serif" font-size="14" lengthAdjust="spacing" textLength="464" x="356" y="275.8545">validateDate(value: string | Date, defaultValue: string) : string | Date</text><polygon fill="#FFFF44" points="347,283.8047,351,287.8047,347,291.8047,343,287.8047" style="stroke:#B38D22;stroke-width:1.0;"/><text fill="#000000" font-family="sans-serif" font-size="14" lengthAdjust="spacing" textLength="592" x="356" y="292.1514">validateInRange(value: unknown, defaultValue: unknown, args: unknown[]) : unknown</text><polygon fill="#FFFF44" points="347,300.1016,351,304.1016,347,308.1016,343,304.1016" style="stroke:#B38D22;stroke-width:1.0;"/><text fill="#000000" font-family="sans-serif" font-size="14" lengthAdjust="spacing" textLength="439" x="356" y="308.4482">validateNumber(value: number, defaultValue: number) : number</text><polygon fill="#FFFF44" points="347,316.3984,351,320.3984,347,324.3984,343,320.3984" style="stroke:#B38D22;stroke-width:1.0;"/><text fill="#000000" font-family="sans-serif" font-size="14" lengthAdjust="spacing" textLength="379" x="356" y="324.7451">validateString(value: string, defaultValue: string) : string</text><polygon fill="#FFFF44" points="347,332.6953,351,336.6953,347,340.6953,343,336.6953" style="stroke:#B38D22;stroke-width:1.0;"/><text fill="#000000" font-family="sans-serif" font-size="14" lengthAdjust="spacing" textLength="373" x="356" y="341.042">validateTime(value: string, defaultValue: string) : string</text></g><!--class FlatpickrRangeDateConfig--><g id="elem_FlatpickrRangeDateConfig"><rect codeLine="67" fill="#FFFFFF" height="520.6094" id="FlatpickrRangeDateConfig" rx="2.5" ry="2.5" style="stroke:#272B30;stroke-width:0.5;" width="620" x="9" y="1119"/><ellipse cx="225.25" cy="1135" fill="#ADD1B2" rx="11" ry="11" style="stroke:#181818;stroke-width:1.0;"/><path d="M228.2188,1140.6406 Q227.6406,1140.9375 227,1141.0781 Q226.3594,1141.2344 225.6563,1141.2344 Q223.1563,1141.2344 221.8281,1139.5938 Q220.5156,1137.9375 220.5156,1134.8125 Q220.5156,1131.6875 221.8281,1130.0313 Q223.1563,1128.375 225.6563,1128.375 Q226.3594,1128.375 227,1128.5313 Q227.6563,1128.6875 228.2188,1128.9844 L228.2188,1131.7031 Q227.5938,1131.125 227,1130.8594 Q226.4063,1130.5781 225.7813,1130.5781 Q224.4375,1130.5781 223.75,1131.6563 Q223.0625,1132.7188 223.0625,1134.8125 Q223.0625,1136.9063 223.75,1137.9844 Q224.4375,1139.0469 225.7813,1139.0469 Q226.4063,1139.0469 227,1138.7813 Q227.5938,1138.5 228.2188,1137.9219 L228.2188,1140.6406 Z " fill="#000000"/><text fill="#000000" font-family="sans-serif" font-size="14" lengthAdjust="spacing" textLength="179" x="245.75" y="1139.8467">FlatpickrRangeDateConfig</text><line style="stroke:#272B30;stroke-width:0.5;" x1="10" x2="628" y1="1151" y2="1151"/><ellipse cx="20" cy="1164.6484" fill="none" rx="3" ry="3" style="stroke:#038048;stroke-width:1.0;"/><text fill="#000000" font-family="sans-serif" font-size="14" lengthAdjust="spacing" textLength="139" x="29" y="1167.9951">AllowInput : boolean</text><ellipse cx="20" cy="1180.9453" fill="none" rx="3" ry="3" style="stroke:#038048;stroke-width:1.0;"/><text fill="#000000" font-family="sans-serif" font-size="14" lengthAdjust="spacing" textLength="152" x="29" y="1184.292">CalendarMode : Mode</text><ellipse cx="20" cy="1197.2422" fill="none" rx="3" ry="3" style="stroke:#038048;stroke-width:1.0;"/><text fill="#000000" font-family="sans-serif" font-size="14" lengthAdjust="spacing" textLength="133" x="29" y="1200.5889">DateFormat : string</text><ellipse cx="20" cy="1213.5391" fill="none" rx="3" ry="3" style="stroke:#038048;stroke-width:1.0;"/><text fill="#000000" font-family="sans-serif" font-size="14" lengthAdjust="spacing" textLength="98" x="29" y="1216.8857">Disable : any[]</text><ellipse cx="20" cy="1229.8359" fill="none" rx="3" ry="3" style="stroke:#038048;stroke-width:1.0;"/><text fill="#000000" font-family="sans-serif" font-size="14" lengthAdjust="spacing" textLength="165" x="29" y="1233.1826">DisableMobile : boolean</text><ellipse cx="20" cy="1246.1328" fill="none" rx="3" ry="3" style="stroke:#038048;stroke-width:1.0;"/><text fill="#000000" font-family="sans-serif" font-size="14" lengthAdjust="spacing" textLength="155" x="29" y="1249.4795">ExtendedClass : string</text><ellipse cx="20" cy="1262.4297" fill="none" rx="3" ry="3" style="stroke:#038048;stroke-width:1.0;"/><text fill="#000000" font-family="sans-serif" font-size="14" lengthAdjust="spacing" textLength="161" x="29" y="1265.7764">FirstWeekDay : number</text><ellipse cx="20" cy="1278.7266" fill="none" rx="3" ry="3" style="stroke:#038048;stroke-width:1.0;"/><text fill="#000000" font-family="sans-serif" font-size="14" lengthAdjust="spacing" textLength="146" x="29" y="1282.0732">InitialEndDate : string</text><ellipse cx="20" cy="1295.0234" fill="none" rx="3" ry="3" style="stroke:#038048;stroke-width:1.0;"/><text fill="#000000" font-family="sans-serif" font-size="14" lengthAdjust="spacing" textLength="151" x="29" y="1298.3701">InitialStartDate : string</text><ellipse cx="20" cy="1311.3203" fill="none" rx="3" ry="3" style="stroke:#038048;stroke-width:1.0;"/><text fill="#000000" font-family="sans-serif" font-size="14" lengthAdjust="spacing" textLength="112" x="29" y="1314.667">MaxDate : string</text><ellipse cx="20" cy="1327.6172" fill="none" rx="3" ry="3" style="stroke:#038048;stroke-width:1.0;"/><text fill="#000000" font-family="sans-serif" font-size="14" lengthAdjust="spacing" textLength="109" x="29" y="1330.9639">MinDate : string</text><ellipse cx="20" cy="1343.9141" fill="none" rx="3" ry="3" style="stroke:#038048;stroke-width:1.0;"/><text fill="#000000" font-family="sans-serif" font-size="14" lengthAdjust="spacing" textLength="141" x="29" y="1347.2607">OnChange : Generic</text><ellipse cx="20" cy="1360.2109" fill="none" rx="3" ry="3" style="stroke:#038048;stroke-width:1.0;"/><text fill="#000000" font-family="sans-serif" font-size="14" lengthAdjust="spacing" textLength="126" x="29" y="1363.5576">OnClose : Generic</text><ellipse cx="20" cy="1376.5078" fill="none" rx="3" ry="3" style="stroke:#038048;stroke-width:1.0;"/><text fill="#000000" font-family="sans-serif" font-size="14" lengthAdjust="spacing" textLength="196" x="29" y="1379.8545">ShowTodayButton : boolean</text><ellipse cx="20" cy="1392.8047" fill="none" rx="3" ry="3" style="stroke:#038048;stroke-width:1.0;"/><text fill="#000000" font-family="sans-serif" font-size="14" lengthAdjust="spacing" textLength="209" x="29" y="1396.1514">ShowWeekNumbers : boolean</text><ellipse cx="20" cy="1409.1016" fill="none" rx="3" ry="3" style="stroke:#038048;stroke-width:1.0;"/><text fill="#000000" font-family="sans-serif" font-size="14" lengthAdjust="spacing" textLength="134" x="29" y="1412.4482">TimeFormat : string</text><polygon fill="none" points="20,1420.3984,24,1424.3984,20,1428.3984,16,1424.3984" style="stroke:#B38D22;stroke-width:1.0;"/><text fill="#000000" font-family="sans-serif" font-size="14" lengthAdjust="spacing" textLength="300" x="29" y="1428.7451">providerExtendedOptions : FlatpickrOptions</text><line style="stroke:#272B30;stroke-width:0.5;" x1="10" x2="628" y1="1436.0469" y2="1436.0469"/><ellipse cx="20" cy="1449.6953" fill="#84BE84" rx="3" ry="3" style="stroke:#038048;stroke-width:1.0;"/><text fill="#000000" font-family="sans-serif" font-size="14" lengthAdjust="spacing" textLength="257" x="29" y="1453.042">getProviderConfig() : FlatpickrOptions</text><ellipse cx="20" cy="1465.9922" fill="#84BE84" rx="3" ry="3" style="stroke:#038048;stroke-width:1.0;"/><text fill="#000000" font-family="sans-serif" font-size="14" lengthAdjust="spacing" textLength="406" x="29" y="1469.3389">setExtensibilityConfigs(newConfigs: FlatpickrOptions) : void</text><ellipse cx="20" cy="1482.2891" fill="#84BE84" rx="3" ry="3" style="stroke:#038048;stroke-width:1.0;"/><text fill="#000000" font-family="sans-serif" font-size="14" lengthAdjust="spacing" textLength="412" x="29" y="1485.6357">validateCanChange(_isBuilt: boolean, _key: string) : boolean</text><ellipse cx="20" cy="1498.5859" fill="#84BE84" rx="3" ry="3" style="stroke:#038048;stroke-width:1.0;"/><text fill="#000000" font-family="sans-serif" font-size="14" lengthAdjust="spacing" textLength="377" x="29" y="1501.9326">validateDefault(key: string, value: unknown) : unknown</text><polygon fill="#FFFF44" points="20,1509.8828,24,1513.8828,20,1517.8828,16,1513.8828" style="stroke:#B38D22;stroke-width:1.0;"/><text fill="#000000" font-family="sans-serif" font-size="14" lengthAdjust="spacing" textLength="594" x="29" y="1518.2295">mergeConfigs(commonConfigs: any, specificConfigs: any, extendedConfigs: any) : any</text><polygon fill="#FFFF44" points="20,1526.1797,24,1530.1797,20,1534.1797,16,1530.1797" style="stroke:#B38D22;stroke-width:1.0;"/><text fill="#000000" font-family="sans-serif" font-size="14" lengthAdjust="spacing" textLength="447" x="29" y="1534.5264">validateBoolean(value: boolean, defaultValue: boolean) : boolean</text><polygon fill="#FFFF44" points="20,1542.4766,24,1546.4766,20,1550.4766,16,1546.4766" style="stroke:#B38D22;stroke-width:1.0;"/><text fill="#000000" font-family="sans-serif" font-size="14" lengthAdjust="spacing" textLength="464" x="29" y="1550.8232">validateDate(value: string | Date, defaultValue: string) : string | Date</text><polygon fill="#FFFF44" points="20,1558.7734,24,1562.7734,20,1566.7734,16,1562.7734" style="stroke:#B38D22;stroke-width:1.0;"/><text fill="#000000" font-family="sans-serif" font-size="14" lengthAdjust="spacing" textLength="592" x="29" y="1567.1201">validateInRange(value: unknown, defaultValue: unknown, args: unknown[]) : unknown</text><polygon fill="#FFFF44" points="20,1575.0703,24,1579.0703,20,1583.0703,16,1579.0703" style="stroke:#B38D22;stroke-width:1.0;"/><text fill="#000000" font-family="sans-serif" font-size="14" lengthAdjust="spacing" textLength="439" x="29" y="1583.417">validateNumber(value: number, defaultValue: number) : number</text><polygon fill="#FFFF44" points="20,1591.3672,24,1595.3672,20,1599.3672,16,1595.3672" style="stroke:#B38D22;stroke-width:1.0;"/><text fill="#000000" font-family="sans-serif" font-size="14" lengthAdjust="spacing" textLength="379" x="29" y="1599.7139">validateString(value: string, defaultValue: string) : string</text><polygon fill="#FFFF44" points="20,1607.6641,24,1611.6641,20,1615.6641,16,1611.6641" style="stroke:#B38D22;stroke-width:1.0;"/><text fill="#000000" font-family="sans-serif" font-size="14" lengthAdjust="spacing" textLength="373" x="29" y="1616.0107">validateTime(value: string, defaultValue: string) : string</text><rect fill="#F24D5C" height="6" style="stroke:#C82930;stroke-width:1.0;" width="6" x="17" y="1625.9609"/><text fill="#000000" font-family="sans-serif" font-size="14" lengthAdjust="spacing" textLength="183" x="29" y="1632.3076">_setDefaultDate() : string[]</text></g><!--class FlatpickrSingleDateConfig--><g id="elem_FlatpickrSingleDateConfig"><rect codeLine="99" fill="#FFFFFF" height="488.0156" id="FlatpickrSingleDateConfig" rx="2.5" ry="2.5" style="stroke:#272B30;stroke-width:0.5;" width="620" x="664" y="1135.5"/><ellipse cx="881.75" cy="1151.5" fill="#ADD1B2" rx="11" ry="11" style="stroke:#181818;stroke-width:1.0;"/><path d="M884.7188,1157.1406 Q884.1406,1157.4375 883.5,1157.5781 Q882.8594,1157.7344 882.1563,1157.7344 Q879.6563,1157.7344 878.3281,1156.0938 Q877.0156,1154.4375 877.0156,1151.3125 Q877.0156,1148.1875 878.3281,1146.5313 Q879.6563,1144.875 882.1563,1144.875 Q882.8594,1144.875 883.5,1145.0313 Q884.1563,1145.1875 884.7188,1145.4844 L884.7188,1148.2031 Q884.0938,1147.625 883.5,1147.3594 Q882.9063,1147.0781 882.2813,1147.0781 Q880.9375,1147.0781 880.25,1148.1563 Q879.5625,1149.2188 879.5625,1151.3125 Q879.5625,1153.4063 880.25,1154.4844 Q880.9375,1155.5469 882.2813,1155.5469 Q882.9063,1155.5469 883.5,1155.2813 Q884.0938,1155 884.7188,1154.4219 L884.7188,1157.1406 Z " fill="#000000"/><text fill="#000000" font-family="sans-serif" font-size="14" lengthAdjust="spacing" textLength="176" x="902.25" y="1156.3467">FlatpickrSingleDateConfig</text><line style="stroke:#272B30;stroke-width:0.5;" x1="665" x2="1283" y1="1167.5" y2="1167.5"/><ellipse cx="675" cy="1181.1484" fill="none" rx="3" ry="3" style="stroke:#038048;stroke-width:1.0;"/><text fill="#000000" font-family="sans-serif" font-size="14" lengthAdjust="spacing" textLength="139" x="684" y="1184.4951">AllowInput : boolean</text><ellipse cx="675" cy="1197.4453" fill="none" rx="3" ry="3" style="stroke:#038048;stroke-width:1.0;"/><text fill="#000000" font-family="sans-serif" font-size="14" lengthAdjust="spacing" textLength="152" x="684" y="1200.792">CalendarMode : Mode</text><ellipse cx="675" cy="1213.7422" fill="none" rx="3" ry="3" style="stroke:#038048;stroke-width:1.0;"/><text fill="#000000" font-family="sans-serif" font-size="14" lengthAdjust="spacing" textLength="133" x="684" y="1217.0889">DateFormat : string</text><ellipse cx="675" cy="1230.0391" fill="none" rx="3" ry="3" style="stroke:#038048;stroke-width:1.0;"/><text fill="#000000" font-family="sans-serif" font-size="14" lengthAdjust="spacing" textLength="98" x="684" y="1233.3857">Disable : any[]</text><ellipse cx="675" cy="1246.3359" fill="none" rx="3" ry="3" style="stroke:#038048;stroke-width:1.0;"/><text fill="#000000" font-family="sans-serif" font-size="14" lengthAdjust="spacing" textLength="165" x="684" y="1249.6826">DisableMobile : boolean</text><ellipse cx="675" cy="1262.6328" fill="none" rx="3" ry="3" style="stroke:#038048;stroke-width:1.0;"/><text fill="#000000" font-family="sans-serif" font-size="14" lengthAdjust="spacing" textLength="155" x="684" y="1265.9795">ExtendedClass : string</text><ellipse cx="675" cy="1278.9297" fill="none" rx="3" ry="3" style="stroke:#038048;stroke-width:1.0;"/><text fill="#000000" font-family="sans-serif" font-size="14" lengthAdjust="spacing" textLength="161" x="684" y="1282.2764">FirstWeekDay : number</text><ellipse cx="675" cy="1295.2266" fill="none" rx="3" ry="3" style="stroke:#038048;stroke-width:1.0;"/><text fill="#000000" font-family="sans-serif" font-size="14" lengthAdjust="spacing" textLength="165" x="684" y="1298.5732">InitialDate : string | Date</text><ellipse cx="675" cy="1311.5234" fill="none" rx="3" ry="3" style="stroke:#038048;stroke-width:1.0;"/><text fill="#000000" font-family="sans-serif" font-size="14" lengthAdjust="spacing" textLength="112" x="684" y="1314.8701">MaxDate : string</text><ellipse cx="675" cy="1327.8203" fill="none" rx="3" ry="3" style="stroke:#038048;stroke-width:1.0;"/><text fill="#000000" font-family="sans-serif" font-size="14" lengthAdjust="spacing" textLength="109" x="684" y="1331.167">MinDate : string</text><ellipse cx="675" cy="1344.1172" fill="none" rx="3" ry="3" style="stroke:#038048;stroke-width:1.0;"/><text fill="#000000" font-family="sans-serif" font-size="14" lengthAdjust="spacing" textLength="141" x="684" y="1347.4639">OnChange : Generic</text><ellipse cx="675" cy="1360.4141" fill="none" rx="3" ry="3" style="stroke:#038048;stroke-width:1.0;"/><text fill="#000000" font-family="sans-serif" font-size="14" lengthAdjust="spacing" textLength="126" x="684" y="1363.7607">OnClose : Generic</text><ellipse cx="675" cy="1376.7109" fill="none" rx="3" ry="3" style="stroke:#038048;stroke-width:1.0;"/><text fill="#000000" font-family="sans-serif" font-size="14" lengthAdjust="spacing" textLength="196" x="684" y="1380.0576">ShowTodayButton : boolean</text><ellipse cx="675" cy="1393.0078" fill="none" rx="3" ry="3" style="stroke:#038048;stroke-width:1.0;"/><text fill="#000000" font-family="sans-serif" font-size="14" lengthAdjust="spacing" textLength="209" x="684" y="1396.3545">ShowWeekNumbers : boolean</text><ellipse cx="675" cy="1409.3047" fill="none" rx="3" ry="3" style="stroke:#038048;stroke-width:1.0;"/><text fill="#000000" font-family="sans-serif" font-size="14" lengthAdjust="spacing" textLength="134" x="684" y="1412.6514">TimeFormat : string</text><polygon fill="none" points="675,1420.6016,679,1424.6016,675,1428.6016,671,1424.6016" style="stroke:#B38D22;stroke-width:1.0;"/><text fill="#000000" font-family="sans-serif" font-size="14" lengthAdjust="spacing" textLength="300" x="684" y="1428.9482">providerExtendedOptions : FlatpickrOptions</text><line style="stroke:#272B30;stroke-width:0.5;" x1="665" x2="1283" y1="1436.25" y2="1436.25"/><ellipse cx="675" cy="1449.8984" fill="#84BE84" rx="3" ry="3" style="stroke:#038048;stroke-width:1.0;"/><text fill="#000000" font-family="sans-serif" font-size="14" lengthAdjust="spacing" textLength="257" x="684" y="1453.2451">getProviderConfig() : FlatpickrOptions</text><ellipse cx="675" cy="1466.1953" fill="#84BE84" rx="3" ry="3" style="stroke:#038048;stroke-width:1.0;"/><text fill="#000000" font-family="sans-serif" font-size="14" lengthAdjust="spacing" textLength="406" x="684" y="1469.542">setExtensibilityConfigs(newConfigs: FlatpickrOptions) : void</text><ellipse cx="675" cy="1482.4922" fill="#84BE84" rx="3" ry="3" style="stroke:#038048;stroke-width:1.0;"/><text fill="#000000" font-family="sans-serif" font-size="14" lengthAdjust="spacing" textLength="412" x="684" y="1485.8389">validateCanChange(_isBuilt: boolean, _key: string) : boolean</text><ellipse cx="675" cy="1498.7891" fill="#84BE84" rx="3" ry="3" style="stroke:#038048;stroke-width:1.0;"/><text fill="#000000" font-family="sans-serif" font-size="14" lengthAdjust="spacing" textLength="377" x="684" y="1502.1357">validateDefault(key: string, value: unknown) : unknown</text><polygon fill="#FFFF44" points="675,1510.0859,679,1514.0859,675,1518.0859,671,1514.0859" style="stroke:#B38D22;stroke-width:1.0;"/><text fill="#000000" font-family="sans-serif" font-size="14" lengthAdjust="spacing" textLength="594" x="684" y="1518.4326">mergeConfigs(commonConfigs: any, specificConfigs: any, extendedConfigs: any) : any</text><polygon fill="#FFFF44" points="675,1526.3828,679,1530.3828,675,1534.3828,671,1530.3828" style="stroke:#B38D22;stroke-width:1.0;"/><text fill="#000000" font-family="sans-serif" font-size="14" lengthAdjust="spacing" textLength="447" x="684" y="1534.7295">validateBoolean(value: boolean, defaultValue: boolean) : boolean</text><polygon fill="#FFFF44" points="675,1542.6797,679,1546.6797,675,1550.6797,671,1546.6797" style="stroke:#B38D22;stroke-width:1.0;"/><text fill="#000000" font-family="sans-serif" font-size="14" lengthAdjust="spacing" textLength="464" x="684" y="1551.0264">validateDate(value: string | Date, defaultValue: string) : string | Date</text><polygon fill="#FFFF44" points="675,1558.9766,679,1562.9766,675,1566.9766,671,1562.9766" style="stroke:#B38D22;stroke-width:1.0;"/><text fill="#000000" font-family="sans-serif" font-size="14" lengthAdjust="spacing" textLength="592" x="684" y="1567.3232">validateInRange(value: unknown, defaultValue: unknown, args: unknown[]) : unknown</text><polygon fill="#FFFF44" points="675,1575.2734,679,1579.2734,675,1583.2734,671,1579.2734" style="stroke:#B38D22;stroke-width:1.0;"/><text fill="#000000" font-family="sans-serif" font-size="14" lengthAdjust="spacing" textLength="439" x="684" y="1583.6201">validateNumber(value: number, defaultValue: number) : number</text><polygon fill="#FFFF44" points="675,1591.5703,679,1595.5703,675,1599.5703,671,1595.5703" style="stroke:#B38D22;stroke-width:1.0;"/><text fill="#000000" font-family="sans-serif" font-size="14" lengthAdjust="spacing" textLength="379" x="684" y="1599.917">validateString(value: string, defaultValue: string) : string</text><polygon fill="#FFFF44" points="675,1607.8672,679,1611.8672,675,1615.8672,671,1611.8672" style="stroke:#B38D22;stroke-width:1.0;"/><text fill="#000000" font-family="sans-serif" font-size="14" lengthAdjust="spacing" textLength="373" x="684" y="1616.2139">validateTime(value: string, defaultValue: string) : string</text></g><!--reverse link AbstractDatePickerConfig to AbstractFlatpickrConfig--><g id="link_AbstractDatePickerConfig_AbstractFlatpickrConfig"><path codeLine="66" d="M646,366.11 C646,385.35 646,387.42 646,407.84 " fill="none" id="AbstractDatePickerConfig-backto-AbstractFlatpickrConfig" style="stroke:#272B30;stroke-width:1.0;"/><polygon fill="none" points="646,348.11,640,366.11,652,366.11,646,348.11" style="stroke:#272B30;stroke-width:1.0;"/></g><!--reverse link AbstractFlatpickrConfig to FlatpickrRangeDateConfig--><g id="link_AbstractFlatpickrConfig_FlatpickrRangeDateConfig"><path codeLine="98" d="M472.9109,1075.3797 C462.7509,1095.3897 460.75,1099.33 450.77,1119 " fill="none" id="AbstractFlatpickrConfig-backto-FlatpickrRangeDateConfig" style="stroke:#272B30;stroke-width:1.0;"/><polygon fill="none" points="481.06,1059.33,467.561,1072.6633,478.2607,1078.096,481.06,1059.33" style="stroke:#272B30;stroke-width:1.0;"/></g><!--reverse link AbstractFlatpickrConfig to FlatpickrSingleDateConfig--><g id="link_AbstractFlatpickrConfig_FlatpickrSingleDateConfig"><path codeLine="128" d="M819.6105,1075.3688 C832.5905,1100.8488 837.38,1110.26 850.01,1135.05 " fill="none" id="AbstractFlatpickrConfig-backto-FlatpickrSingleDateConfig" style="stroke:#272B30;stroke-width:1.0;"/><polygon fill="none" points="811.44,1059.33,814.2642,1078.0923,824.9567,1072.6453,811.44,1059.33" style="stroke:#272B30;stroke-width:1.0;"/></g><!--SRC=[xLTTQzim57tFhn3jYqDh6DrW4FQIfCq8B6jPkksXbA1OSY8iIqQIcuQs_tsI9JkH7RSms0QPyvBuVXoTUwLxhCY4i0mAc88nXL8EXU2RCQTSWDEBZnVBz-zwqeyOSO6mU3q4HibAy9mX5nR7yLvCmnrXz071tfeW372QgIr8iLfp9FTDCS5KM-1IAW4Z1IAp4ZWPkkS9XIeZKQAPiPYiJi1J3-ZFsP1IlfcoB5TW09QSKmoPzOmXnGn1CUDwZG4mNzPn2HMUS952awBH2Liv1v5mIKqmPDkxUyyuuqjIkBmrhXwLNWEZeYqrj0aHKlt4EBc4M-rYURh4mhfcyD6Gg2NC23jWlMRZDMGhO_wC6HOagkoKouPvlkQRMuxWTfGhnLcTi74RJbyBDhBklYNfmTQSPe8_wBqIPS7NcIAScVngOvofY0yNoBODwUAbrz2To_McxYRokzJhcbOOEZMAuOBgRlZimaL9xmrQPokiRboeFKT1lpLMObLKAudUUQAsDa4636_SpsQcGNlW15c41qW9qcMCeTl3G1StoWbLLKtdO97WRLbDlxuV9S8bZc5ELR0NUmwqCyS3aBE4yGqpkUwdtR8KYnKkIKSyJJchUEj-dmEPuOZ49FAjk3pIUzQ-tIABMt8QMQA1er4LX2pN7vwvNbc5OhQvXB25WMTWZ7MWNOUyC1zjohuLVVPRKuUgp52O0jtZtNsZXIMidPOIrKvo7THQ-_waLmZpWhDVw5iL-WXc5duZFrn4QnmbGwhiN0U7_Kxbp4XAFPE1MN5GDBZV6C0YuGkFjBuMQEDSAfvQWmj9OLREsKvjcqlh4NCB1zxaX0llU5WoRGVWfVMTOTmtUZfn_QNH-WRu2th-PmJwgUp1Ivl8bVFRgLAdIlzKbLvwhmpef-SmRB_qzTo0L_QYhmRb66w5KqOKWVIAeGEouPnp1OKwf3N7VgFihcwTIFvtLpTpFx9nHQztVYr3UpBQ-6ziLRHL9HioEjUGzDXqr5E-_IFNYMKdbfrO7kUDyYqfR2ZTBm00]--></g></svg>