<?xml version="1.0" encoding="us-ascii" standalone="no"?><svg xmlns="http://www.w3.org/2000/svg" xmlns:xlink="http://www.w3.org/1999/xlink" contentStyleType="text/css" height="1923px" preserveAspectRatio="none" style="width:1414px;height:1923px;background:#CED4DA;" version="1.1" viewBox="0 0 1414 1923" width="1414px" zoomAndPan="magnify"><defs/><g><rect fill="#CED4DA" height="1923" style="stroke:none;stroke-width:1.0;" width="1414" x="0" y="0"/><!--class AbstractRangeSlider<P, C>--><g id="elem_AbstractRangeSlider&lt;P, C&gt;"><rect codeLine="7" fill="#FFFFFF" height="488.0156" id="AbstractRangeSlider&lt;P, C&gt;" rx="2.5" ry="2.5" style="stroke:#272B30;stroke-width:0.5;" width="707" x="413.5" y="636"/><ellipse cx="667.75" cy="652" fill="#A9DCDF" rx="11" ry="11" style="stroke:#181818;stroke-width:1.0;"/><path d="M667.8594,647.3438 L666.7031,652.4219 L669.0313,652.4219 L667.8594,647.3438 Z M666.375,645.1094 L669.3594,645.1094 L672.7188,657.5 L670.2656,657.5 L669.5,654.4375 L666.2188,654.4375 L665.4688,657.5 L663.0313,657.5 L666.375,645.1094 Z " fill="#000000"/><text fill="#000000" font-family="sans-serif" font-size="14" font-style="italic" lengthAdjust="spacing" textLength="190" x="688.25" y="656.8467">AbstractRangeSlider&lt;P, C&gt;</text><line style="stroke:#272B30;stroke-width:0.5;" x1="414.5" x2="1119.5" y1="668" y2="668"/><polygon fill="none" points="424.5,676.6484,428.5,680.6484,424.5,684.6484,420.5,680.6484" style="stroke:#B38D22;stroke-width:1.0;"/><text fill="#000000" font-family="sans-serif" font-size="14" lengthAdjust="spacing" textLength="180" x="433.5" y="684.9951">isProviderBased : boolean</text><polygon fill="none" points="424.5,692.9453,428.5,696.9453,424.5,700.9453,420.5,696.9453" style="stroke:#B38D22;stroke-width:1.0;"/><text fill="#000000" font-family="sans-serif" font-size="14" lengthAdjust="spacing" textLength="393" x="433.5" y="701.292">providerEventsManagerInstance : IProviderEventManager</text><line style="stroke:#272B30;stroke-width:0.5;" x1="414.5" x2="1119.5" y1="708.5938" y2="708.5938"/><ellipse cx="424.5" cy="722.2422" fill="#84BE84" rx="3" ry="3" style="stroke:#038048;stroke-width:1.0;"/><text fill="#000000" font-family="sans-serif" font-size="14" lengthAdjust="spacing" textLength="84" x="433.5" y="725.5889">build() : void</text><ellipse cx="424.5" cy="738.5391" fill="#84BE84" rx="3" ry="3" style="stroke:#038048;stroke-width:1.0;"/><text fill="#000000" font-family="sans-serif" font-size="14" lengthAdjust="spacing" textLength="484" x="433.5" y="741.8857">changeProperty(propertyName: string, propertyValue: unknown) : void</text><ellipse cx="424.5" cy="754.8359" fill="#84BE84" rx="3" ry="3" style="stroke:#038048;stroke-width:1.0;"/><text fill="#000000" font-family="sans-serif" font-size="14" lengthAdjust="spacing" textLength="241" x="433.5" y="758.1826">checkAddedProviderEvents() : void</text><ellipse cx="424.5" cy="771.1328" fill="#84BE84" rx="3" ry="3" style="stroke:#038048;stroke-width:1.0;"/><text fill="#000000" font-family="sans-serif" font-size="14" lengthAdjust="spacing" textLength="253" x="433.5" y="774.4795">checkPendingProviderEvents() : void</text><ellipse cx="424.5" cy="787.4297" fill="#84BE84" rx="3" ry="3" style="stroke:#038048;stroke-width:1.0;"/><text fill="#000000" font-family="sans-serif" font-size="14" font-style="italic" lengthAdjust="spacing" textLength="100" x="433.5" y="790.7764">disable() : void</text><ellipse cx="424.5" cy="803.7266" fill="#84BE84" rx="3" ry="3" style="stroke:#038048;stroke-width:1.0;"/><text fill="#000000" font-family="sans-serif" font-size="14" lengthAdjust="spacing" textLength="106" x="433.5" y="807.0732">dispose() : void</text><ellipse cx="424.5" cy="820.0234" fill="#84BE84" rx="3" ry="3" style="stroke:#038048;stroke-width:1.0;"/><text fill="#000000" font-family="sans-serif" font-size="14" font-style="italic" lengthAdjust="spacing" textLength="99" x="433.5" y="823.3701">enable() : void</text><ellipse cx="424.5" cy="836.3203" fill="#84BE84" rx="3" ry="3" style="stroke:#038048;stroke-width:1.0;"/><text fill="#000000" font-family="sans-serif" font-size="14" lengthAdjust="spacing" textLength="267" x="433.5" y="839.667">equalsToID(patternId: string) : boolean</text><ellipse cx="424.5" cy="852.6172" fill="#84BE84" rx="3" ry="3" style="stroke:#038048;stroke-width:1.0;"/><text fill="#000000" font-family="sans-serif" font-size="14" lengthAdjust="spacing" textLength="434" x="433.5" y="855.9639">registerCallback(eventName: string, callback: OSGeneric) : void</text><ellipse cx="424.5" cy="868.9141" fill="#84BE84" rx="3" ry="3" style="stroke:#038048;stroke-width:1.0;"/><text fill="#000000" font-family="sans-serif" font-size="14" lengthAdjust="spacing" textLength="362" x="433.5" y="872.2607">setProviderConfigs(providerConfigs: unknown) : void</text><ellipse cx="424.5" cy="885.2109" fill="#84BE84" rx="3" ry="3" style="stroke:#038048;stroke-width:1.0;"/><text fill="#000000" font-family="sans-serif" font-size="14" lengthAdjust="spacing" textLength="681" x="433.5" y="888.5576">setProviderEvent(eventName: string, callback: Generic, uniqueId: string, saveEvent: boolean) : void</text><ellipse cx="424.5" cy="901.5078" fill="#84BE84" rx="3" ry="3" style="stroke:#038048;stroke-width:1.0;"/><text fill="#000000" font-family="sans-serif" font-size="14" font-style="italic" lengthAdjust="spacing" textLength="303" x="433.5" y="904.8545">setRangeIntervalChangeOnDragEnd() : void</text><ellipse cx="424.5" cy="917.8047" fill="#84BE84" rx="3" ry="3" style="stroke:#038048;stroke-width:1.0;"/><text fill="#000000" font-family="sans-serif" font-size="14" lengthAdjust="spacing" textLength="285" x="433.5" y="921.1514">unsetProviderEvent(eventId: string) : void</text><ellipse cx="424.5" cy="934.1016" fill="#84BE84" rx="3" ry="3" style="stroke:#038048;stroke-width:1.0;"/><text fill="#000000" font-family="sans-serif" font-size="14" lengthAdjust="spacing" textLength="374" x="433.5" y="937.4482">updateProviderEvents(providerInfo: ProviderInfo) : void</text><polygon fill="#FFFF44" points="424.5,945.3984,428.5,949.3984,424.5,953.3984,420.5,949.3984" style="stroke:#B38D22;stroke-width:1.0;"/><text fill="#000000" font-family="sans-serif" font-size="14" lengthAdjust="spacing" textLength="121" x="433.5" y="953.7451">finishBuild() : void</text><polygon fill="#FFFF44" points="424.5,961.6953,428.5,965.6953,424.5,969.6953,420.5,965.6953" style="stroke:#B38D22;stroke-width:1.0;"/><text fill="#000000" font-family="sans-serif" font-size="14" font-style="italic" lengthAdjust="spacing" textLength="157" x="433.5" y="970.042">prepareConfigs() : void</text><polygon fill="#FFFF44" points="424.5,977.9922,428.5,981.9922,424.5,985.9922,420.5,981.9922" style="stroke:#B38D22;stroke-width:1.0;"/><text fill="#000000" font-family="sans-serif" font-size="14" lengthAdjust="spacing" textLength="98" x="433.5" y="986.3389">redraw() : void</text><polygon fill="#FFFF44" points="424.5,994.2891,428.5,998.2891,424.5,1002.2891,420.5,998.2891" style="stroke:#B38D22;stroke-width:1.0;"/><text fill="#000000" font-family="sans-serif" font-size="14" font-style="italic" lengthAdjust="spacing" textLength="179" x="433.5" y="1002.6357">setA11YProperties() : void</text><polygon fill="#FFFF44" points="424.5,1010.5859,428.5,1014.5859,424.5,1018.5859,420.5,1014.5859" style="stroke:#B38D22;stroke-width:1.0;"/><text fill="#000000" font-family="sans-serif" font-size="14" font-style="italic" lengthAdjust="spacing" textLength="137" x="433.5" y="1018.9326">setCallbacks() : void</text><polygon fill="#FFFF44" points="424.5,1026.8828,428.5,1030.8828,424.5,1034.8828,420.5,1030.8828" style="stroke:#B38D22;stroke-width:1.0;"/><text fill="#000000" font-family="sans-serif" font-size="14" font-style="italic" lengthAdjust="spacing" textLength="169" x="433.5" y="1035.2295">setHtmlElements() : void</text><polygon fill="#FFFF44" points="424.5,1043.1797,428.5,1047.1797,424.5,1051.1797,420.5,1047.1797" style="stroke:#B38D22;stroke-width:1.0;"/><text fill="#000000" font-family="sans-serif" font-size="14" lengthAdjust="spacing" textLength="569" x="433.5" y="1051.5264">triggerPlatformEventCallback(platFormCallback: OSGeneric, args: unknown[]) : void</text><polygon fill="#FFFF44" points="424.5,1059.4766,428.5,1063.4766,424.5,1067.4766,420.5,1063.4766" style="stroke:#B38D22;stroke-width:1.0;"/><text fill="#000000" font-family="sans-serif" font-size="14" lengthAdjust="spacing" textLength="311" x="433.5" y="1067.8232">triggerPlatformInitializedEventCallback() : void</text><polygon fill="#FFFF44" points="424.5,1075.7734,428.5,1079.7734,424.5,1083.7734,420.5,1079.7734" style="stroke:#B38D22;stroke-width:1.0;"/><text fill="#000000" font-family="sans-serif" font-size="14" lengthAdjust="spacing" textLength="156" x="433.5" y="1084.1201">unsetCallbacks() : void</text><polygon fill="#FFFF44" points="424.5,1092.0703,428.5,1096.0703,424.5,1100.0703,420.5,1096.0703" style="stroke:#B38D22;stroke-width:1.0;"/><text fill="#000000" font-family="sans-serif" font-size="14" lengthAdjust="spacing" textLength="199" x="433.5" y="1100.417">unsetGlobalCallbacks() : void</text><polygon fill="#FFFF44" points="424.5,1108.3672,428.5,1112.3672,424.5,1116.3672,420.5,1112.3672" style="stroke:#B38D22;stroke-width:1.0;"/><text fill="#000000" font-family="sans-serif" font-size="14" font-style="italic" lengthAdjust="spacing" textLength="187" x="433.5" y="1116.7139">unsetHtmlElements() : void</text></g><!--class AbstractProviderPattern<P, C>--><g id="elem_AbstractProviderPattern&lt;P, C&gt;"><rect codeLine="36" fill="#FFFFFF" height="569.5" id="AbstractProviderPattern&lt;P, C&gt;" rx="2.5" ry="2.5" style="stroke:#272B30;stroke-width:0.5;" width="800" x="9" y="7"/><ellipse cx="298.75" cy="23" fill="#A9DCDF" rx="11" ry="11" style="stroke:#181818;stroke-width:1.0;"/><path d="M298.8594,18.3438 L297.7031,23.4219 L300.0313,23.4219 L298.8594,18.3438 Z M297.375,16.1094 L300.3594,16.1094 L303.7188,28.5 L301.2656,28.5 L300.5,25.4375 L297.2188,25.4375 L296.4688,28.5 L294.0313,28.5 L297.375,16.1094 Z " fill="#000000"/><text fill="#000000" font-family="sans-serif" font-size="14" font-style="italic" lengthAdjust="spacing" textLength="212" x="319.25" y="27.8467">AbstractProviderPattern&lt;P, C&gt;</text><line style="stroke:#272B30;stroke-width:0.5;" x1="10" x2="808" y1="39" y2="39"/><polygon fill="none" points="20,47.6484,24,51.6484,20,55.6484,16,51.6484" style="stroke:#B38D22;stroke-width:1.0;"/><text fill="#000000" font-family="sans-serif" font-size="14" lengthAdjust="spacing" textLength="180" x="29" y="55.9951">isProviderBased : boolean</text><polygon fill="none" points="20,63.9453,24,67.9453,20,71.9453,16,67.9453" style="stroke:#B38D22;stroke-width:1.0;"/><text fill="#000000" font-family="sans-serif" font-size="14" lengthAdjust="spacing" textLength="393" x="29" y="72.292">providerEventsManagerInstance : IProviderEventManager</text><rect fill="none" height="6" style="stroke:#C82930;stroke-width:1.0;" width="6" x="17" y="82.2422"/><text fill="#000000" font-family="sans-serif" font-size="14" lengthAdjust="spacing" textLength="196" x="29" y="88.5889">_asyncInvocationId : number</text><rect fill="none" height="6" style="stroke:#C82930;stroke-width:1.0;" width="6" x="17" y="98.5391"/><text fill="#000000" font-family="sans-serif" font-size="14" lengthAdjust="spacing" textLength="405" x="29" y="104.8857">_platformEventProviderConfigsAppliedCallback : OSGeneric</text><rect fill="none" height="6" style="stroke:#C82930;stroke-width:1.0;" width="6" x="17" y="114.8359"/><text fill="#000000" font-family="sans-serif" font-size="14" lengthAdjust="spacing" textLength="85" x="29" y="121.1826">_provider : P</text><rect fill="none" height="6" style="stroke:#C82930;stroke-width:1.0;" width="6" x="17" y="131.1328"/><text fill="#000000" font-family="sans-serif" font-size="14" lengthAdjust="spacing" textLength="182" x="29" y="137.4795">_providerInfo : ProviderInfo</text><line style="stroke:#272B30;stroke-width:0.5;" x1="10" x2="808" y1="144.7813" y2="144.7813"/><ellipse cx="20" cy="158.4297" fill="#84BE84" rx="3" ry="3" style="stroke:#038048;stroke-width:1.0;"/><text fill="#000000" font-family="sans-serif" font-size="14" lengthAdjust="spacing" textLength="84" x="29" y="161.7764">build() : void</text><ellipse cx="20" cy="174.7266" fill="#84BE84" rx="3" ry="3" style="stroke:#038048;stroke-width:1.0;"/><text fill="#000000" font-family="sans-serif" font-size="14" lengthAdjust="spacing" textLength="484" x="29" y="178.0732">changeProperty(propertyName: string, propertyValue: unknown) : void</text><ellipse cx="20" cy="191.0234" fill="#84BE84" rx="3" ry="3" style="stroke:#038048;stroke-width:1.0;"/><text fill="#000000" font-family="sans-serif" font-size="14" lengthAdjust="spacing" textLength="241" x="29" y="194.3701">checkAddedProviderEvents() : void</text><ellipse cx="20" cy="207.3203" fill="#84BE84" rx="3" ry="3" style="stroke:#038048;stroke-width:1.0;"/><text fill="#000000" font-family="sans-serif" font-size="14" lengthAdjust="spacing" textLength="253" x="29" y="210.667">checkPendingProviderEvents() : void</text><ellipse cx="20" cy="223.6172" fill="#84BE84" rx="3" ry="3" style="stroke:#038048;stroke-width:1.0;"/><text fill="#000000" font-family="sans-serif" font-size="14" lengthAdjust="spacing" textLength="106" x="29" y="226.9639">dispose() : void</text><ellipse cx="20" cy="239.9141" fill="#84BE84" rx="3" ry="3" style="stroke:#038048;stroke-width:1.0;"/><text fill="#000000" font-family="sans-serif" font-size="14" lengthAdjust="spacing" textLength="267" x="29" y="243.2607">equalsToID(patternId: string) : boolean</text><ellipse cx="20" cy="256.2109" fill="#84BE84" rx="3" ry="3" style="stroke:#038048;stroke-width:1.0;"/><text fill="#000000" font-family="sans-serif" font-size="14" lengthAdjust="spacing" textLength="434" x="29" y="259.5576">registerCallback(eventName: string, callback: OSGeneric) : void</text><ellipse cx="20" cy="272.5078" fill="#84BE84" rx="3" ry="3" style="stroke:#038048;stroke-width:1.0;"/><text fill="#000000" font-family="sans-serif" font-size="14" lengthAdjust="spacing" textLength="362" x="29" y="275.8545">setProviderConfigs(providerConfigs: unknown) : void</text><ellipse cx="20" cy="288.8047" fill="#84BE84" rx="3" ry="3" style="stroke:#038048;stroke-width:1.0;"/><text fill="#000000" font-family="sans-serif" font-size="14" lengthAdjust="spacing" textLength="681" x="29" y="292.1514">setProviderEvent(eventName: string, callback: Generic, uniqueId: string, saveEvent: boolean) : void</text><ellipse cx="20" cy="305.1016" fill="#84BE84" rx="3" ry="3" style="stroke:#038048;stroke-width:1.0;"/><text fill="#000000" font-family="sans-serif" font-size="14" lengthAdjust="spacing" textLength="285" x="29" y="308.4482">unsetProviderEvent(eventId: string) : void</text><ellipse cx="20" cy="321.3984" fill="#84BE84" rx="3" ry="3" style="stroke:#038048;stroke-width:1.0;"/><text fill="#000000" font-family="sans-serif" font-size="14" lengthAdjust="spacing" textLength="374" x="29" y="324.7451">updateProviderEvents(providerInfo: ProviderInfo) : void</text><polygon fill="#FFFF44" points="20,332.6953,24,336.6953,20,340.6953,16,336.6953" style="stroke:#B38D22;stroke-width:1.0;"/><text fill="#000000" font-family="sans-serif" font-size="14" lengthAdjust="spacing" textLength="121" x="29" y="341.042">finishBuild() : void</text><polygon fill="#FFFF44" points="20,348.9922,24,352.9922,20,356.9922,16,352.9922" style="stroke:#B38D22;stroke-width:1.0;"/><text fill="#000000" font-family="sans-serif" font-size="14" font-style="italic" lengthAdjust="spacing" textLength="157" x="29" y="357.3389">prepareConfigs() : void</text><polygon fill="#FFFF44" points="20,365.2891,24,369.2891,20,373.2891,16,369.2891" style="stroke:#B38D22;stroke-width:1.0;"/><text fill="#000000" font-family="sans-serif" font-size="14" lengthAdjust="spacing" textLength="98" x="29" y="373.6357">redraw() : void</text><polygon fill="#FFFF44" points="20,381.5859,24,385.5859,20,389.5859,16,385.5859" style="stroke:#B38D22;stroke-width:1.0;"/><text fill="#000000" font-family="sans-serif" font-size="14" font-style="italic" lengthAdjust="spacing" textLength="179" x="29" y="389.9326">setA11YProperties() : void</text><polygon fill="#FFFF44" points="20,397.8828,24,401.8828,20,405.8828,16,401.8828" style="stroke:#B38D22;stroke-width:1.0;"/><text fill="#000000" font-family="sans-serif" font-size="14" font-style="italic" lengthAdjust="spacing" textLength="137" x="29" y="406.2295">setCallbacks() : void</text><polygon fill="#FFFF44" points="20,414.1797,24,418.1797,20,422.1797,16,418.1797" style="stroke:#B38D22;stroke-width:1.0;"/><text fill="#000000" font-family="sans-serif" font-size="14" font-style="italic" lengthAdjust="spacing" textLength="169" x="29" y="422.5264">setHtmlElements() : void</text><polygon fill="#FFFF44" points="20,430.4766,24,434.4766,20,438.4766,16,434.4766" style="stroke:#B38D22;stroke-width:1.0;"/><text fill="#000000" font-family="sans-serif" font-size="14" lengthAdjust="spacing" textLength="569" x="29" y="438.8232">triggerPlatformEventCallback(platFormCallback: OSGeneric, args: unknown[]) : void</text><polygon fill="#FFFF44" points="20,446.7734,24,450.7734,20,454.7734,16,450.7734" style="stroke:#B38D22;stroke-width:1.0;"/><text fill="#000000" font-family="sans-serif" font-size="14" lengthAdjust="spacing" textLength="311" x="29" y="455.1201">triggerPlatformInitializedEventCallback() : void</text><polygon fill="#FFFF44" points="20,463.0703,24,467.0703,20,471.0703,16,467.0703" style="stroke:#B38D22;stroke-width:1.0;"/><text fill="#000000" font-family="sans-serif" font-size="14" lengthAdjust="spacing" textLength="156" x="29" y="471.417">unsetCallbacks() : void</text><polygon fill="#FFFF44" points="20,479.3672,24,483.3672,20,487.3672,16,483.3672" style="stroke:#B38D22;stroke-width:1.0;"/><text fill="#000000" font-family="sans-serif" font-size="14" lengthAdjust="spacing" textLength="199" x="29" y="487.7139">unsetGlobalCallbacks() : void</text><polygon fill="#FFFF44" points="20,495.6641,24,499.6641,20,503.6641,16,499.6641" style="stroke:#B38D22;stroke-width:1.0;"/><text fill="#000000" font-family="sans-serif" font-size="14" font-style="italic" lengthAdjust="spacing" textLength="187" x="29" y="504.0107">unsetHtmlElements() : void</text><rect fill="#F24D5C" height="6" style="stroke:#C82930;stroke-width:1.0;" width="6" x="17" y="513.9609"/><text fill="#000000" font-family="sans-serif" font-size="14" lengthAdjust="spacing" textLength="155" x="29" y="520.3076">_cancelRedraw() : void</text><rect fill="#F24D5C" height="6" style="stroke:#C82930;stroke-width:1.0;" width="6" x="17" y="530.2578"/><text fill="#000000" font-family="sans-serif" font-size="14" lengthAdjust="spacing" textLength="398" x="29" y="536.6045">_getEventIndexFromArray(event: IProviderEvent) : number</text><rect fill="#F24D5C" height="6" style="stroke:#C82930;stroke-width:1.0;" width="6" x="17" y="546.5547"/><text fill="#000000" font-family="sans-serif" font-size="14" lengthAdjust="spacing" textLength="774" x="29" y="552.9014">_handleProviderEventsAPI(eventName: string, callback: Generic, addEvent: boolean, event: IProviderEvent) : void</text><rect fill="#F24D5C" height="6" style="stroke:#C82930;stroke-width:1.0;" width="6" x="17" y="562.8516"/><text fill="#000000" font-family="sans-serif" font-size="14" lengthAdjust="spacing" textLength="157" x="29" y="569.1982">_handleRedraw() : void</text></g><!--class IRangeSlider--><g id="elem_IRangeSlider"><rect codeLine="71" fill="#FFFFFF" height="276.1563" id="IRangeSlider" rx="2.5" ry="2.5" style="stroke:#272B30;stroke-width:0.5;" width="563" x="844.5" y="153.5"/><ellipse cx="1078.25" cy="169.5" fill="#B4A7E5" rx="11" ry="11" style="stroke:#181818;stroke-width:1.0;"/><path d="M1074.1719,165.2656 L1074.1719,163.1094 L1081.5625,163.1094 L1081.5625,165.2656 L1079.0938,165.2656 L1079.0938,173.3438 L1081.5625,173.3438 L1081.5625,175.5 L1074.1719,175.5 L1074.1719,173.3438 L1076.6406,173.3438 L1076.6406,165.2656 L1074.1719,165.2656 Z " fill="#000000"/><text fill="#000000" font-family="sans-serif" font-size="14" font-style="italic" lengthAdjust="spacing" textLength="87" x="1098.75" y="174.3467">IRangeSlider</text><line style="stroke:#272B30;stroke-width:0.5;" x1="845.5" x2="1406.5" y1="185.5" y2="185.5"/><ellipse cx="855.5" cy="199.1484" fill="none" rx="3" ry="3" style="stroke:#038048;stroke-width:1.0;"/><text fill="#000000" font-family="sans-serif" font-size="14" lengthAdjust="spacing" textLength="110" x="864.5" y="202.4951">isBuilt : boolean</text><ellipse cx="855.5" cy="215.4453" fill="none" rx="3" ry="3" style="stroke:#038048;stroke-width:1.0;"/><text fill="#000000" font-family="sans-serif" font-size="14" lengthAdjust="spacing" textLength="189" x="864.5" y="218.792">selfElement : HTMLElement</text><ellipse cx="855.5" cy="231.7422" fill="none" rx="3" ry="3" style="stroke:#038048;stroke-width:1.0;"/><text fill="#000000" font-family="sans-serif" font-size="14" lengthAdjust="spacing" textLength="112" x="864.5" y="235.0889">uniqueId : string</text><ellipse cx="855.5" cy="248.0391" fill="none" rx="3" ry="3" style="stroke:#038048;stroke-width:1.0;"/><text fill="#000000" font-family="sans-serif" font-size="14" lengthAdjust="spacing" textLength="110" x="864.5" y="251.3857">widgetId : string</text><line style="stroke:#272B30;stroke-width:0.5;" x1="845.5" x2="1406.5" y1="258.6875" y2="258.6875"/><ellipse cx="855.5" cy="272.3359" fill="#84BE84" rx="3" ry="3" style="stroke:#038048;stroke-width:1.0;"/><text fill="#000000" font-family="sans-serif" font-size="14" lengthAdjust="spacing" textLength="84" x="864.5" y="275.6826">build() : void</text><ellipse cx="855.5" cy="288.6328" fill="#84BE84" rx="3" ry="3" style="stroke:#038048;stroke-width:1.0;"/><text fill="#000000" font-family="sans-serif" font-size="14" lengthAdjust="spacing" textLength="484" x="864.5" y="291.9795">changeProperty(propertyName: string, propertyValue: unknown) : void</text><ellipse cx="855.5" cy="304.9297" fill="#84BE84" rx="3" ry="3" style="stroke:#038048;stroke-width:1.0;"/><text fill="#000000" font-family="sans-serif" font-size="14" lengthAdjust="spacing" textLength="208" x="864.5" y="308.2764">disable(uniqueId: string) : void</text><ellipse cx="855.5" cy="321.2266" fill="#84BE84" rx="3" ry="3" style="stroke:#038048;stroke-width:1.0;"/><text fill="#000000" font-family="sans-serif" font-size="14" lengthAdjust="spacing" textLength="106" x="864.5" y="324.5732">dispose() : void</text><ellipse cx="855.5" cy="337.5234" fill="#84BE84" rx="3" ry="3" style="stroke:#038048;stroke-width:1.0;"/><text fill="#000000" font-family="sans-serif" font-size="14" lengthAdjust="spacing" textLength="206" x="864.5" y="340.8701">enable(uniqueId: string) : void</text><ellipse cx="855.5" cy="353.8203" fill="#84BE84" rx="3" ry="3" style="stroke:#038048;stroke-width:1.0;"/><text fill="#000000" font-family="sans-serif" font-size="14" lengthAdjust="spacing" textLength="217" x="864.5" y="357.167">equalsToID(id: string) : boolean</text><ellipse cx="855.5" cy="370.1172" fill="#84BE84" rx="3" ry="3" style="stroke:#038048;stroke-width:1.0;"/><text fill="#000000" font-family="sans-serif" font-size="14" lengthAdjust="spacing" textLength="434" x="864.5" y="373.4639">registerCallback(eventName: string, callback: OSGeneric) : void</text><ellipse cx="855.5" cy="386.4141" fill="#84BE84" rx="3" ry="3" style="stroke:#038048;stroke-width:1.0;"/><text fill="#000000" font-family="sans-serif" font-size="14" lengthAdjust="spacing" textLength="322" x="864.5" y="389.7607">setProviderConfigs(providerConfigs: any) : void</text><ellipse cx="855.5" cy="402.7109" fill="#84BE84" rx="3" ry="3" style="stroke:#038048;stroke-width:1.0;"/><text fill="#000000" font-family="sans-serif" font-size="14" lengthAdjust="spacing" textLength="537" x="864.5" y="406.0576">setProviderEvent(eventName: string, callback: Generic, uniqueId: string) : void</text><ellipse cx="855.5" cy="419.0078" fill="#84BE84" rx="3" ry="3" style="stroke:#038048;stroke-width:1.0;"/><text fill="#000000" font-family="sans-serif" font-size="14" lengthAdjust="spacing" textLength="285" x="864.5" y="422.3545">unsetProviderEvent(eventId: string) : void</text></g><!--class AbstractNoUiSlider<C>--><g id="elem_AbstractNoUiSlider&lt;C&gt;"><rect codeLine="88" fill="#FFFFFF" height="732.4688" id="AbstractNoUiSlider&lt;C&gt;" rx="2.5" ry="2.5" style="stroke:#272B30;stroke-width:0.5;" width="707" x="413.5" y="1184"/><ellipse cx="681.75" cy="1200" fill="#A9DCDF" rx="11" ry="11" style="stroke:#181818;stroke-width:1.0;"/><path d="M681.8594,1195.3438 L680.7031,1200.4219 L683.0313,1200.4219 L681.8594,1195.3438 Z M680.375,1193.1094 L683.3594,1193.1094 L686.7188,1205.5 L684.2656,1205.5 L683.5,1202.4375 L680.2188,1202.4375 L679.4688,1205.5 L677.0313,1205.5 L680.375,1193.1094 Z " fill="#000000"/><text fill="#000000" font-family="sans-serif" font-size="14" font-style="italic" lengthAdjust="spacing" textLength="162" x="702.25" y="1204.8467">AbstractNoUiSlider&lt;C&gt;</text><line style="stroke:#272B30;stroke-width:0.5;" x1="414.5" x2="1119.5" y1="1216" y2="1216"/><polygon fill="none" points="424.5,1224.6484,428.5,1228.6484,424.5,1232.6484,420.5,1228.6484" style="stroke:#B38D22;stroke-width:1.0;"/><text fill="#000000" font-family="sans-serif" font-size="14" lengthAdjust="spacing" textLength="263" x="433.5" y="1232.9951">eventProviderValueChanged : Generic</text><polygon fill="none" points="424.5,1240.9453,428.5,1244.9453,424.5,1248.9453,420.5,1244.9453" style="stroke:#B38D22;stroke-width:1.0;"/><text fill="#000000" font-family="sans-serif" font-size="14" lengthAdjust="spacing" textLength="180" x="433.5" y="1249.292">isProviderBased : boolean</text><polygon fill="none" points="424.5,1257.2422,428.5,1261.2422,424.5,1265.2422,420.5,1261.2422" style="stroke:#B38D22;stroke-width:1.0;"/><text fill="#000000" font-family="sans-serif" font-size="14" lengthAdjust="spacing" textLength="169" x="433.5" y="1265.5889">noUiSliderOpts : Options</text><polygon fill="none" points="424.5,1273.5391,428.5,1277.5391,424.5,1281.5391,420.5,1277.5391" style="stroke:#B38D22;stroke-width:1.0;"/><text fill="#000000" font-family="sans-serif" font-size="14" lengthAdjust="spacing" textLength="371" x="433.5" y="1281.8857">platformEventValueChange : OSOnValueChangeEvent</text><polygon fill="none" points="424.5,1289.8359,428.5,1293.8359,424.5,1297.8359,420.5,1293.8359" style="stroke:#B38D22;stroke-width:1.0;"/><text fill="#000000" font-family="sans-serif" font-size="14" lengthAdjust="spacing" textLength="393" x="433.5" y="1298.1826">providerEventsManagerInstance : IProviderEventManager</text><polygon fill="none" points="424.5,1306.1328,428.5,1310.1328,424.5,1314.1328,420.5,1310.1328" style="stroke:#B38D22;stroke-width:1.0;"/><text fill="#000000" font-family="sans-serif" font-size="14" lengthAdjust="spacing" textLength="126" x="433.5" y="1314.4795">throttleTimer : any</text><polygon fill="none" points="424.5,1322.4297,428.5,1326.4297,424.5,1330.4297,420.5,1326.4297" style="stroke:#B38D22;stroke-width:1.0;"/><text fill="#000000" font-family="sans-serif" font-size="14" lengthAdjust="spacing" textLength="189" x="433.5" y="1330.7764">throttleTimeValue : number</text><rect fill="none" height="6" style="stroke:#C82930;stroke-width:1.0;" width="6" x="421.5" y="1340.7266"/><text fill="#000000" font-family="sans-serif" font-size="14" lengthAdjust="spacing" textLength="136" x="433.5" y="1347.0732">_isInterval : boolean</text><rect fill="none" height="6" style="stroke:#C82930;stroke-width:1.0;" width="6" x="421.5" y="1357.0234"/><text fill="#000000" font-family="sans-serif" font-size="14" lengthAdjust="spacing" textLength="283" x="433.5" y="1363.3701">_rangeSliderProviderElem : HTMLElement</text><line style="stroke:#272B30;stroke-width:0.5;" x1="414.5" x2="1119.5" y1="1370.6719" y2="1370.6719"/><ellipse cx="424.5" cy="1384.3203" fill="#84BE84" rx="3" ry="3" style="stroke:#038048;stroke-width:1.0;"/><text fill="#000000" font-family="sans-serif" font-size="14" lengthAdjust="spacing" textLength="84" x="433.5" y="1387.667">build() : void</text><ellipse cx="424.5" cy="1400.6172" fill="#84BE84" rx="3" ry="3" style="stroke:#038048;stroke-width:1.0;"/><text fill="#000000" font-family="sans-serif" font-size="14" lengthAdjust="spacing" textLength="484" x="433.5" y="1403.9639">changeProperty(propertyName: string, propertyValue: unknown) : void</text><ellipse cx="424.5" cy="1416.9141" fill="#84BE84" rx="3" ry="3" style="stroke:#038048;stroke-width:1.0;"/><text fill="#000000" font-family="sans-serif" font-size="14" lengthAdjust="spacing" textLength="241" x="433.5" y="1420.2607">checkAddedProviderEvents() : void</text><ellipse cx="424.5" cy="1433.2109" fill="#84BE84" rx="3" ry="3" style="stroke:#038048;stroke-width:1.0;"/><text fill="#000000" font-family="sans-serif" font-size="14" lengthAdjust="spacing" textLength="253" x="433.5" y="1436.5576">checkPendingProviderEvents() : void</text><ellipse cx="424.5" cy="1449.5078" fill="#84BE84" rx="3" ry="3" style="stroke:#038048;stroke-width:1.0;"/><text fill="#000000" font-family="sans-serif" font-size="14" lengthAdjust="spacing" textLength="100" x="433.5" y="1452.8545">disable() : void</text><ellipse cx="424.5" cy="1465.8047" fill="#84BE84" rx="3" ry="3" style="stroke:#038048;stroke-width:1.0;"/><text fill="#000000" font-family="sans-serif" font-size="14" lengthAdjust="spacing" textLength="106" x="433.5" y="1469.1514">dispose() : void</text><ellipse cx="424.5" cy="1482.1016" fill="#84BE84" rx="3" ry="3" style="stroke:#038048;stroke-width:1.0;"/><text fill="#000000" font-family="sans-serif" font-size="14" lengthAdjust="spacing" textLength="98" x="433.5" y="1485.4482">enable() : void</text><ellipse cx="424.5" cy="1498.3984" fill="#84BE84" rx="3" ry="3" style="stroke:#038048;stroke-width:1.0;"/><text fill="#000000" font-family="sans-serif" font-size="14" lengthAdjust="spacing" textLength="267" x="433.5" y="1501.7451">equalsToID(patternId: string) : boolean</text><ellipse cx="424.5" cy="1514.6953" fill="#84BE84" rx="3" ry="3" style="stroke:#038048;stroke-width:1.0;"/><text fill="#000000" font-family="sans-serif" font-size="14" lengthAdjust="spacing" textLength="215" x="433.5" y="1518.042">getValue() : number | number[]</text><ellipse cx="424.5" cy="1530.9922" fill="#84BE84" rx="3" ry="3" style="stroke:#038048;stroke-width:1.0;"/><text fill="#000000" font-family="sans-serif" font-size="14" lengthAdjust="spacing" textLength="434" x="433.5" y="1534.3389">registerCallback(eventName: string, callback: OSGeneric) : void</text><ellipse cx="424.5" cy="1547.2891" fill="#84BE84" rx="3" ry="3" style="stroke:#038048;stroke-width:1.0;"/><text fill="#000000" font-family="sans-serif" font-size="14" lengthAdjust="spacing" textLength="325" x="433.5" y="1550.6357">setProviderConfigs(newConfigs: Options) : void</text><ellipse cx="424.5" cy="1563.5859" fill="#84BE84" rx="3" ry="3" style="stroke:#038048;stroke-width:1.0;"/><text fill="#000000" font-family="sans-serif" font-size="14" lengthAdjust="spacing" textLength="681" x="433.5" y="1566.9326">setProviderEvent(eventName: string, callback: Generic, uniqueId: string, saveEvent: boolean) : void</text><ellipse cx="424.5" cy="1579.8828" fill="#84BE84" rx="3" ry="3" style="stroke:#038048;stroke-width:1.0;"/><text fill="#000000" font-family="sans-serif" font-size="14" lengthAdjust="spacing" textLength="301" x="433.5" y="1583.2295">setRangeIntervalChangeOnDragEnd() : void</text><ellipse cx="424.5" cy="1596.1797" fill="#84BE84" rx="3" ry="3" style="stroke:#038048;stroke-width:1.0;"/><text fill="#000000" font-family="sans-serif" font-size="14" lengthAdjust="spacing" textLength="285" x="433.5" y="1599.5264">unsetProviderEvent(eventId: string) : void</text><ellipse cx="424.5" cy="1612.4766" fill="#84BE84" rx="3" ry="3" style="stroke:#038048;stroke-width:1.0;"/><text fill="#000000" font-family="sans-serif" font-size="14" lengthAdjust="spacing" textLength="374" x="433.5" y="1615.8232">updateProviderEvents(providerInfo: ProviderInfo) : void</text><polygon fill="#FFFF44" points="424.5,1623.7734,428.5,1627.7734,424.5,1631.7734,420.5,1627.7734" style="stroke:#B38D22;stroke-width:1.0;"/><text fill="#000000" font-family="sans-serif" font-size="14" lengthAdjust="spacing" textLength="121" x="433.5" y="1632.1201">finishBuild() : void</text><polygon fill="#FFFF44" points="424.5,1640.0703,428.5,1644.0703,424.5,1648.0703,420.5,1644.0703" style="stroke:#B38D22;stroke-width:1.0;"/><text fill="#000000" font-family="sans-serif" font-size="14" font-style="italic" lengthAdjust="spacing" textLength="157" x="433.5" y="1648.417">prepareConfigs() : void</text><polygon fill="#FFFF44" points="424.5,1656.3672,428.5,1660.3672,424.5,1664.3672,420.5,1660.3672" style="stroke:#B38D22;stroke-width:1.0;"/><text fill="#000000" font-family="sans-serif" font-size="14" lengthAdjust="spacing" textLength="98" x="433.5" y="1664.7139">redraw() : void</text><polygon fill="#FFFF44" points="424.5,1672.6641,428.5,1676.6641,424.5,1680.6641,420.5,1676.6641" style="stroke:#B38D22;stroke-width:1.0;"/><text fill="#000000" font-family="sans-serif" font-size="14" font-style="italic" lengthAdjust="spacing" textLength="179" x="433.5" y="1681.0107">setA11YProperties() : void</text><polygon fill="#FFFF44" points="424.5,1688.9609,428.5,1692.9609,424.5,1696.9609,420.5,1692.9609" style="stroke:#B38D22;stroke-width:1.0;"/><text fill="#000000" font-family="sans-serif" font-size="14" font-style="italic" lengthAdjust="spacing" textLength="137" x="433.5" y="1697.3076">setCallbacks() : void</text><polygon fill="#FFFF44" points="424.5,1705.2578,428.5,1709.2578,424.5,1713.2578,420.5,1709.2578" style="stroke:#B38D22;stroke-width:1.0;"/><text fill="#000000" font-family="sans-serif" font-size="14" lengthAdjust="spacing" textLength="169" x="433.5" y="1713.6045">setHtmlElements() : void</text><polygon fill="#FFFF44" points="424.5,1721.5547,428.5,1725.5547,424.5,1729.5547,420.5,1725.5547" style="stroke:#B38D22;stroke-width:1.0;"/><text fill="#000000" font-family="sans-serif" font-size="14" lengthAdjust="spacing" textLength="189" x="433.5" y="1729.9014">setInitialCSSClasses() : void</text><polygon fill="#FFFF44" points="424.5,1737.8516,428.5,1741.8516,424.5,1745.8516,420.5,1741.8516" style="stroke:#B38D22;stroke-width:1.0;"/><text fill="#000000" font-family="sans-serif" font-size="14" lengthAdjust="spacing" textLength="569" x="433.5" y="1746.1982">triggerPlatformEventCallback(platFormCallback: OSGeneric, args: unknown[]) : void</text><polygon fill="#FFFF44" points="424.5,1754.1484,428.5,1758.1484,424.5,1762.1484,420.5,1758.1484" style="stroke:#B38D22;stroke-width:1.0;"/><text fill="#000000" font-family="sans-serif" font-size="14" lengthAdjust="spacing" textLength="311" x="433.5" y="1762.4951">triggerPlatformInitializedEventCallback() : void</text><polygon fill="#FFFF44" points="424.5,1770.4453,428.5,1774.4453,424.5,1778.4453,420.5,1774.4453" style="stroke:#B38D22;stroke-width:1.0;"/><text fill="#000000" font-family="sans-serif" font-size="14" lengthAdjust="spacing" textLength="156" x="433.5" y="1778.792">unsetCallbacks() : void</text><polygon fill="#FFFF44" points="424.5,1786.7422,428.5,1790.7422,424.5,1794.7422,420.5,1790.7422" style="stroke:#B38D22;stroke-width:1.0;"/><text fill="#000000" font-family="sans-serif" font-size="14" lengthAdjust="spacing" textLength="199" x="433.5" y="1795.0889">unsetGlobalCallbacks() : void</text><polygon fill="#FFFF44" points="424.5,1803.0391,428.5,1807.0391,424.5,1811.0391,420.5,1807.0391" style="stroke:#B38D22;stroke-width:1.0;"/><text fill="#000000" font-family="sans-serif" font-size="14" lengthAdjust="spacing" textLength="187" x="433.5" y="1811.3857">unsetHtmlElements() : void</text><rect fill="#F24D5C" height="6" style="stroke:#C82930;stroke-width:1.0;" width="6" x="421.5" y="1821.3359"/><text fill="#000000" font-family="sans-serif" font-size="14" lengthAdjust="spacing" textLength="210" x="433.5" y="1827.6826">createProviderInstance() : void</text><rect fill="#F24D5C" height="6" style="stroke:#C82930;stroke-width:1.0;" width="6" x="421.5" y="1837.6328"/><text fill="#000000" font-family="sans-serif" font-size="14" lengthAdjust="spacing" textLength="151" x="433.5" y="1843.9795">setInitialStates() : void</text><rect fill="#F24D5C" height="6" style="stroke:#C82930;stroke-width:1.0;" width="6" x="421.5" y="1853.9297"/><text fill="#000000" font-family="sans-serif" font-size="14" lengthAdjust="spacing" textLength="287" x="433.5" y="1860.2764">_setIsDisabled(isDisabled: boolean) : void</text><rect fill="#F24D5C" height="6" style="stroke:#C82930;stroke-width:1.0;" width="6" x="421.5" y="1870.2266"/><text fill="#000000" font-family="sans-serif" font-size="14" lengthAdjust="spacing" textLength="448" x="433.5" y="1876.5732">_setOnValueChangeEvent(changeEvent: NoUISliderEvents) : void</text><rect fill="#F24D5C" height="6" style="stroke:#C82930;stroke-width:1.0;" width="6" x="421.5" y="1886.5234"/><text fill="#000000" font-family="sans-serif" font-size="14" lengthAdjust="spacing" textLength="109" x="433.5" y="1892.8701">_setSize() : void</text><rect fill="#F24D5C" height="6" style="stroke:#C82930;stroke-width:1.0;" width="6" x="421.5" y="1902.8203"/><text fill="#000000" font-family="sans-serif" font-size="14" lengthAdjust="spacing" textLength="198" x="433.5" y="1909.167">_updateRangeValues() : void</text></g><!--reverse link AbstractProviderPattern<P, C> to AbstractRangeSlider<P, C>--><g id="link_AbstractProviderPattern&lt;P, C&gt;_AbstractRangeSlider&lt;P, C&gt;"><path codeLine="70" d="M591.6111,591.6621 C603.7511,611.5421 606.54,616.12 618.52,635.76 " fill="none" id="AbstractProviderPattern&lt;P, C&gt;-backto-AbstractRangeSlider&lt;P, C&gt;" style="stroke:#272B30;stroke-width:1.0;"/><polygon fill="none" points="582.23,576.3,586.4904,594.7892,596.7318,588.5351,582.23,576.3" style="stroke:#272B30;stroke-width:1.0;"/></g><!--reverse link IRangeSlider to AbstractRangeSlider<P, C>--><g id="link_IRangeSlider_AbstractRangeSlider&lt;P, C&gt;"><path codeLine="87" d="M1032.6624,444.992 C995.0524,506.432 958.94,565.43 915.85,635.82 " fill="none" id="IRangeSlider-backto-AbstractRangeSlider&lt;P, C&gt;" style="stroke:#272B30;stroke-width:1.0;stroke-dasharray:7.0,7.0;"/><polygon fill="none" points="1042.06,429.64,1027.545,441.8595,1037.7797,448.1246,1042.06,429.64" style="stroke:#272B30;stroke-width:1.0;"/></g><!--reverse link AbstractRangeSlider<P, C> to AbstractNoUiSlider<C>--><g id="link_AbstractRangeSlider&lt;P, C&gt;_AbstractNoUiSlider&lt;C&gt;"><path codeLine="132" d="M767,1142.05 C767,1161.64 767,1163.67 767,1183.86 " fill="none" id="AbstractRangeSlider&lt;P, C&gt;-backto-AbstractNoUiSlider&lt;C&gt;" style="stroke:#272B30;stroke-width:1.0;"/><polygon fill="none" points="767,1124.05,761,1142.05,773,1142.05,767,1124.05" style="stroke:#272B30;stroke-width:1.0;"/></g><!--SRC=[xLXjRzis4FxkNq74Nnp4BjPkG04ZAE0uQIjWROGwAr0KHK2B9vi8HQeaRTTjyjzteYIRUh6Thiks3l4dwUxuSiVd7ZwokU4ofPecP2oeCIEjrMgiXDAa- -pvi-clltHCDU9CQGPwVmYDRcPQBIGhmk8uzc8QxWZORunsvfm1WIIrQvA0dIjcV5FCGQ25JetLDB8aobOYHwFY_HsLCvW8ZDUdOP-CNnoHRns2louteLRBp7563J0o95Eb152PkzF2UR44QSqRAkaCT22DfJ8230v2Fw3mkw4dqmKNh7UCGKl5MMwBvjb6S4mAsgvxQV7mbYOm9BXLBcTzKbhVKx50yqBUIBMIzOaWkXan1goo0TDh2Gj1CfnuN-2tid1tv8HnGwS2QZEXDLK6TWy3sJ8AFY-eC5SgEE-br5hGCc1beiUrMfzec763CMCgn1HHq8DifzNQH8LlI2udhq22vb5rHGEsJ7IiPCndffTMttTKr1leAhH_zMBjFix5FozWcrMV6Be4DyCclPqrmpKTCWE9QI-f63juNCfpJMSNiWwUXMpVOxMaNdpAg8NQiPV526IiXYJqtYg3kp6NtCpFcXZsze_T0TYqK1QwEeC6fkbgzs1CPlJqwOUY6JYOlQ4bAFP7lRQ9k12GD17UnGBDi3T3GMsiTEBAiK5QYjQNQ1qtuTKdL7kW-VXfxxI1v9PJmRy2gwvG7UMESaTAkVELK5C4nE6iNNHxtdSx-R0yzp1lod-A4mVNrAnb5CYbYgZb2ja0u-KYcMu2KlzyQfqyIbF1WPL58TufbQEB0UWAQwOCugIA-9-Ffzjf-95ccpJxo9QFRFbzR9dJHPIHc7ZNSXg3wnbOjyr0ClZoKgi4zJ1Tvx2gqzvndTYGKPYeuMiK1lV4FsMi2lO-sRcij-DyqNesTvr35y7fxM2mJprtUAPOOefyVnHuxl8AEU4cQmPRvnu38YugZwxNLsz-BzxAdisxd9IroCqhph3q3VE34dUfWkl4SoywblSOwd4s_m-GDPNh1o7glqpA2D8giavldppPYybTOkUj-eCNaPx80LzWE2JawZj3cIyg3gaXkPdzChKcqoHffcnCePLy0lLMSThbKdeM5_6Z0gjhvrfPA-2A9qu5uR4s7MxLEZznKtw5r38SNEjjhJShOzksTV3F9gRk-wNxDtpU8eMvv7hRgu7S5WyVFprikqjORJgzmEU_9CiUFtb_LCGTK6xeBMJLU39nVxZ1_rdS7LHqaGOF4YMBreAsHPjOZ6weminlpdEwO3s-UMm7kOjladilsZuF2TvAGSwfEKoRCqomTFMDv01t7UIcDwsghkNlpggYgrw9Vm80]--></g></svg>