<?xml version="1.0" encoding="us-ascii" standalone="no"?><svg xmlns="http://www.w3.org/2000/svg" xmlns:xlink="http://www.w3.org/1999/xlink" contentStyleType="text/css" height="2070px" preserveAspectRatio="none" style="width:1414px;height:2070px;background:#CED4DA;" version="1.1" viewBox="0 0 1414 2070" width="1414px" zoomAndPan="magnify"><defs/><g><rect fill="#CED4DA" height="2070" style="stroke:none;stroke-width:1.0;" width="1414" x="0" y="0"/><!--class AbstractTimePicker<P, C>--><g id="elem_AbstractTimePicker&lt;P, C&gt;"><rect codeLine="7" fill="#FFFFFF" height="536.9063" id="AbstractTimePicker&lt;P, C&gt;" rx="2.5" ry="2.5" style="stroke:#272B30;stroke-width:0.5;" width="707" x="413.5" y="653"/><ellipse cx="671.75" cy="669" fill="#A9DCDF" rx="11" ry="11" style="stroke:#181818;stroke-width:1.0;"/><path d="M671.8594,664.3438 L670.7031,669.4219 L673.0313,669.4219 L671.8594,664.3438 Z M670.375,662.1094 L673.3594,662.1094 L676.7188,674.5 L674.2656,674.5 L673.5,671.4375 L670.2188,671.4375 L669.4688,674.5 L667.0313,674.5 L670.375,662.1094 Z " fill="#000000"/><text fill="#000000" font-family="sans-serif" font-size="14" font-style="italic" lengthAdjust="spacing" textLength="182" x="692.25" y="673.8467">AbstractTimePicker&lt;P, C&gt;</text><line style="stroke:#272B30;stroke-width:0.5;" x1="414.5" x2="1119.5" y1="685" y2="685"/><polygon fill="none" points="424.5,693.6484,428.5,697.6484,424.5,701.6484,420.5,697.6484" style="stroke:#B38D22;stroke-width:1.0;"/><text fill="#000000" font-family="sans-serif" font-size="14" lengthAdjust="spacing" textLength="180" x="433.5" y="701.9951">isProviderBased : boolean</text><polygon fill="none" points="424.5,709.9453,428.5,713.9453,424.5,717.9453,420.5,713.9453" style="stroke:#B38D22;stroke-width:1.0;"/><text fill="#000000" font-family="sans-serif" font-size="14" lengthAdjust="spacing" textLength="393" x="433.5" y="718.292">providerEventsManagerInstance : IProviderEventManager</text><line style="stroke:#272B30;stroke-width:0.5;" x1="414.5" x2="1119.5" y1="725.5938" y2="725.5938"/><ellipse cx="424.5" cy="739.2422" fill="#84BE84" rx="3" ry="3" style="stroke:#038048;stroke-width:1.0;"/><text fill="#000000" font-family="sans-serif" font-size="14" lengthAdjust="spacing" textLength="84" x="433.5" y="742.5889">build() : void</text><ellipse cx="424.5" cy="755.5391" fill="#84BE84" rx="3" ry="3" style="stroke:#038048;stroke-width:1.0;"/><text fill="#000000" font-family="sans-serif" font-size="14" lengthAdjust="spacing" textLength="484" x="433.5" y="758.8857">changeProperty(propertyName: string, propertyValue: unknown) : void</text><ellipse cx="424.5" cy="771.8359" fill="#84BE84" rx="3" ry="3" style="stroke:#038048;stroke-width:1.0;"/><text fill="#000000" font-family="sans-serif" font-size="14" lengthAdjust="spacing" textLength="241" x="433.5" y="775.1826">checkAddedProviderEvents() : void</text><ellipse cx="424.5" cy="788.1328" fill="#84BE84" rx="3" ry="3" style="stroke:#038048;stroke-width:1.0;"/><text fill="#000000" font-family="sans-serif" font-size="14" lengthAdjust="spacing" textLength="253" x="433.5" y="791.4795">checkPendingProviderEvents() : void</text><ellipse cx="424.5" cy="804.4297" fill="#84BE84" rx="3" ry="3" style="stroke:#038048;stroke-width:1.0;"/><text fill="#000000" font-family="sans-serif" font-size="14" font-style="italic" lengthAdjust="spacing" textLength="85" x="433.5" y="807.7764">clear() : void</text><ellipse cx="424.5" cy="820.7266" fill="#84BE84" rx="3" ry="3" style="stroke:#038048;stroke-width:1.0;"/><text fill="#000000" font-family="sans-serif" font-size="14" font-style="italic" lengthAdjust="spacing" textLength="88" x="433.5" y="824.0732">close() : void</text><ellipse cx="424.5" cy="837.0234" fill="#84BE84" rx="3" ry="3" style="stroke:#038048;stroke-width:1.0;"/><text fill="#000000" font-family="sans-serif" font-size="14" lengthAdjust="spacing" textLength="106" x="433.5" y="840.3701">dispose() : void</text><ellipse cx="424.5" cy="853.3203" fill="#84BE84" rx="3" ry="3" style="stroke:#038048;stroke-width:1.0;"/><text fill="#000000" font-family="sans-serif" font-size="14" lengthAdjust="spacing" textLength="267" x="433.5" y="856.667">equalsToID(patternId: string) : boolean</text><ellipse cx="424.5" cy="869.6172" fill="#84BE84" rx="3" ry="3" style="stroke:#038048;stroke-width:1.0;"/><text fill="#000000" font-family="sans-serif" font-size="14" font-style="italic" lengthAdjust="spacing" textLength="88" x="433.5" y="872.9639">open() : void</text><ellipse cx="424.5" cy="885.9141" fill="#84BE84" rx="3" ry="3" style="stroke:#038048;stroke-width:1.0;"/><text fill="#000000" font-family="sans-serif" font-size="14" lengthAdjust="spacing" textLength="434" x="433.5" y="889.2607">registerCallback(eventName: string, callback: OSGeneric) : void</text><ellipse cx="424.5" cy="902.2109" fill="#84BE84" rx="3" ry="3" style="stroke:#038048;stroke-width:1.0;"/><text fill="#000000" font-family="sans-serif" font-size="14" font-style="italic" lengthAdjust="spacing" textLength="226" x="433.5" y="905.5576">setLanguage(value: string) : void</text><ellipse cx="424.5" cy="918.5078" fill="#84BE84" rx="3" ry="3" style="stroke:#038048;stroke-width:1.0;"/><text fill="#000000" font-family="sans-serif" font-size="14" lengthAdjust="spacing" textLength="362" x="433.5" y="921.8545">setProviderConfigs(providerConfigs: unknown) : void</text><ellipse cx="424.5" cy="934.8047" fill="#84BE84" rx="3" ry="3" style="stroke:#038048;stroke-width:1.0;"/><text fill="#000000" font-family="sans-serif" font-size="14" lengthAdjust="spacing" textLength="681" x="433.5" y="938.1514">setProviderEvent(eventName: string, callback: Generic, uniqueId: string, saveEvent: boolean) : void</text><ellipse cx="424.5" cy="951.1016" fill="#84BE84" rx="3" ry="3" style="stroke:#038048;stroke-width:1.0;"/><text fill="#000000" font-family="sans-serif" font-size="14" lengthAdjust="spacing" textLength="285" x="433.5" y="954.4482">unsetProviderEvent(eventId: string) : void</text><ellipse cx="424.5" cy="967.3984" fill="#84BE84" rx="3" ry="3" style="stroke:#038048;stroke-width:1.0;"/><text fill="#000000" font-family="sans-serif" font-size="14" font-style="italic" lengthAdjust="spacing" textLength="247" x="433.5" y="970.7451">updateInitialTime(time: string) : void</text><ellipse cx="424.5" cy="983.6953" fill="#84BE84" rx="3" ry="3" style="stroke:#038048;stroke-width:1.0;"/><text fill="#000000" font-family="sans-serif" font-size="14" font-style="italic" lengthAdjust="spacing" textLength="308" x="433.5" y="987.042">updatePrompt(promptMessage: string) : void</text><ellipse cx="424.5" cy="999.9922" fill="#84BE84" rx="3" ry="3" style="stroke:#038048;stroke-width:1.0;"/><text fill="#000000" font-family="sans-serif" font-size="14" lengthAdjust="spacing" textLength="374" x="433.5" y="1003.3389">updateProviderEvents(providerInfo: ProviderInfo) : void</text><polygon fill="#FFFF44" points="424.5,1011.2891,428.5,1015.2891,424.5,1019.2891,420.5,1015.2891" style="stroke:#B38D22;stroke-width:1.0;"/><text fill="#000000" font-family="sans-serif" font-size="14" lengthAdjust="spacing" textLength="121" x="433.5" y="1019.6357">finishBuild() : void</text><polygon fill="#FFFF44" points="424.5,1027.5859,428.5,1031.5859,424.5,1035.5859,420.5,1031.5859" style="stroke:#B38D22;stroke-width:1.0;"/><text fill="#000000" font-family="sans-serif" font-size="14" font-style="italic" lengthAdjust="spacing" textLength="157" x="433.5" y="1035.9326">prepareConfigs() : void</text><polygon fill="#FFFF44" points="424.5,1043.8828,428.5,1047.8828,424.5,1051.8828,420.5,1047.8828" style="stroke:#B38D22;stroke-width:1.0;"/><text fill="#000000" font-family="sans-serif" font-size="14" lengthAdjust="spacing" textLength="98" x="433.5" y="1052.2295">redraw() : void</text><polygon fill="#FFFF44" points="424.5,1060.1797,428.5,1064.1797,424.5,1068.1797,420.5,1064.1797" style="stroke:#B38D22;stroke-width:1.0;"/><text fill="#000000" font-family="sans-serif" font-size="14" font-style="italic" lengthAdjust="spacing" textLength="179" x="433.5" y="1068.5264">setA11YProperties() : void</text><polygon fill="#FFFF44" points="424.5,1076.4766,428.5,1080.4766,424.5,1084.4766,420.5,1080.4766" style="stroke:#B38D22;stroke-width:1.0;"/><text fill="#000000" font-family="sans-serif" font-size="14" font-style="italic" lengthAdjust="spacing" textLength="137" x="433.5" y="1084.8232">setCallbacks() : void</text><polygon fill="#FFFF44" points="424.5,1092.7734,428.5,1096.7734,424.5,1100.7734,420.5,1096.7734" style="stroke:#B38D22;stroke-width:1.0;"/><text fill="#000000" font-family="sans-serif" font-size="14" font-style="italic" lengthAdjust="spacing" textLength="169" x="433.5" y="1101.1201">setHtmlElements() : void</text><polygon fill="#FFFF44" points="424.5,1109.0703,428.5,1113.0703,424.5,1117.0703,420.5,1113.0703" style="stroke:#B38D22;stroke-width:1.0;"/><text fill="#000000" font-family="sans-serif" font-size="14" lengthAdjust="spacing" textLength="569" x="433.5" y="1117.417">triggerPlatformEventCallback(platFormCallback: OSGeneric, args: unknown[]) : void</text><polygon fill="#FFFF44" points="424.5,1125.3672,428.5,1129.3672,424.5,1133.3672,420.5,1129.3672" style="stroke:#B38D22;stroke-width:1.0;"/><text fill="#000000" font-family="sans-serif" font-size="14" lengthAdjust="spacing" textLength="311" x="433.5" y="1133.7139">triggerPlatformInitializedEventCallback() : void</text><polygon fill="#FFFF44" points="424.5,1141.6641,428.5,1145.6641,424.5,1149.6641,420.5,1145.6641" style="stroke:#B38D22;stroke-width:1.0;"/><text fill="#000000" font-family="sans-serif" font-size="14" lengthAdjust="spacing" textLength="156" x="433.5" y="1150.0107">unsetCallbacks() : void</text><polygon fill="#FFFF44" points="424.5,1157.9609,428.5,1161.9609,424.5,1165.9609,420.5,1161.9609" style="stroke:#B38D22;stroke-width:1.0;"/><text fill="#000000" font-family="sans-serif" font-size="14" lengthAdjust="spacing" textLength="199" x="433.5" y="1166.3076">unsetGlobalCallbacks() : void</text><polygon fill="#FFFF44" points="424.5,1174.2578,428.5,1178.2578,424.5,1182.2578,420.5,1178.2578" style="stroke:#B38D22;stroke-width:1.0;"/><text fill="#000000" font-family="sans-serif" font-size="14" font-style="italic" lengthAdjust="spacing" textLength="187" x="433.5" y="1182.6045">unsetHtmlElements() : void</text></g><!--class AbstractProviderPattern<P, C>--><g id="elem_AbstractProviderPattern&lt;P, C&gt;"><rect codeLine="39" fill="#FFFFFF" height="585.7969" id="AbstractProviderPattern&lt;P, C&gt;" rx="2.5" ry="2.5" style="stroke:#272B30;stroke-width:0.5;" width="800" x="9" y="7"/><ellipse cx="298.75" cy="23" fill="#A9DCDF" rx="11" ry="11" style="stroke:#181818;stroke-width:1.0;"/><path d="M298.8594,18.3438 L297.7031,23.4219 L300.0313,23.4219 L298.8594,18.3438 Z M297.375,16.1094 L300.3594,16.1094 L303.7188,28.5 L301.2656,28.5 L300.5,25.4375 L297.2188,25.4375 L296.4688,28.5 L294.0313,28.5 L297.375,16.1094 Z " fill="#000000"/><text fill="#000000" font-family="sans-serif" font-size="14" font-style="italic" lengthAdjust="spacing" textLength="212" x="319.25" y="27.8467">AbstractProviderPattern&lt;P, C&gt;</text><line style="stroke:#272B30;stroke-width:0.5;" x1="10" x2="808" y1="39" y2="39"/><polygon fill="none" points="20,47.6484,24,51.6484,20,55.6484,16,51.6484" style="stroke:#B38D22;stroke-width:1.0;"/><text fill="#000000" font-family="sans-serif" font-size="14" lengthAdjust="spacing" textLength="180" x="29" y="55.9951">isProviderBased : boolean</text><polygon fill="none" points="20,63.9453,24,67.9453,20,71.9453,16,67.9453" style="stroke:#B38D22;stroke-width:1.0;"/><text fill="#000000" font-family="sans-serif" font-size="14" lengthAdjust="spacing" textLength="393" x="29" y="72.292">providerEventsManagerInstance : IProviderEventManager</text><rect fill="none" height="6" style="stroke:#C82930;stroke-width:1.0;" width="6" x="17" y="82.2422"/><text fill="#000000" font-family="sans-serif" font-size="14" lengthAdjust="spacing" textLength="196" x="29" y="88.5889">_asyncInvocationId : number</text><rect fill="none" height="6" style="stroke:#C82930;stroke-width:1.0;" width="6" x="17" y="98.5391"/><text fill="#000000" font-family="sans-serif" font-size="14" lengthAdjust="spacing" textLength="405" x="29" y="104.8857">_platformEventProviderConfigsAppliedCallback : OSGeneric</text><rect fill="none" height="6" style="stroke:#C82930;stroke-width:1.0;" width="6" x="17" y="114.8359"/><text fill="#000000" font-family="sans-serif" font-size="14" lengthAdjust="spacing" textLength="85" x="29" y="121.1826">_provider : P</text><rect fill="none" height="6" style="stroke:#C82930;stroke-width:1.0;" width="6" x="17" y="131.1328"/><text fill="#000000" font-family="sans-serif" font-size="14" lengthAdjust="spacing" textLength="182" x="29" y="137.4795">_providerInfo : ProviderInfo</text><rect fill="none" height="6" style="stroke:#C82930;stroke-width:1.0;" width="6" x="17" y="147.4297"/><text fill="#000000" font-family="sans-serif" font-size="14" lengthAdjust="spacing" textLength="178" x="29" y="153.7764">_redrawCallback : Generic</text><line style="stroke:#272B30;stroke-width:0.5;" x1="10" x2="808" y1="161.0781" y2="161.0781"/><ellipse cx="20" cy="174.7266" fill="#84BE84" rx="3" ry="3" style="stroke:#038048;stroke-width:1.0;"/><text fill="#000000" font-family="sans-serif" font-size="14" lengthAdjust="spacing" textLength="84" x="29" y="178.0732">build() : void</text><ellipse cx="20" cy="191.0234" fill="#84BE84" rx="3" ry="3" style="stroke:#038048;stroke-width:1.0;"/><text fill="#000000" font-family="sans-serif" font-size="14" lengthAdjust="spacing" textLength="484" x="29" y="194.3701">changeProperty(propertyName: string, propertyValue: unknown) : void</text><ellipse cx="20" cy="207.3203" fill="#84BE84" rx="3" ry="3" style="stroke:#038048;stroke-width:1.0;"/><text fill="#000000" font-family="sans-serif" font-size="14" lengthAdjust="spacing" textLength="241" x="29" y="210.667">checkAddedProviderEvents() : void</text><ellipse cx="20" cy="223.6172" fill="#84BE84" rx="3" ry="3" style="stroke:#038048;stroke-width:1.0;"/><text fill="#000000" font-family="sans-serif" font-size="14" lengthAdjust="spacing" textLength="253" x="29" y="226.9639">checkPendingProviderEvents() : void</text><ellipse cx="20" cy="239.9141" fill="#84BE84" rx="3" ry="3" style="stroke:#038048;stroke-width:1.0;"/><text fill="#000000" font-family="sans-serif" font-size="14" lengthAdjust="spacing" textLength="106" x="29" y="243.2607">dispose() : void</text><ellipse cx="20" cy="256.2109" fill="#84BE84" rx="3" ry="3" style="stroke:#038048;stroke-width:1.0;"/><text fill="#000000" font-family="sans-serif" font-size="14" lengthAdjust="spacing" textLength="267" x="29" y="259.5576">equalsToID(patternId: string) : boolean</text><ellipse cx="20" cy="272.5078" fill="#84BE84" rx="3" ry="3" style="stroke:#038048;stroke-width:1.0;"/><text fill="#000000" font-family="sans-serif" font-size="14" lengthAdjust="spacing" textLength="434" x="29" y="275.8545">registerCallback(eventName: string, callback: OSGeneric) : void</text><ellipse cx="20" cy="288.8047" fill="#84BE84" rx="3" ry="3" style="stroke:#038048;stroke-width:1.0;"/><text fill="#000000" font-family="sans-serif" font-size="14" lengthAdjust="spacing" textLength="362" x="29" y="292.1514">setProviderConfigs(providerConfigs: unknown) : void</text><ellipse cx="20" cy="305.1016" fill="#84BE84" rx="3" ry="3" style="stroke:#038048;stroke-width:1.0;"/><text fill="#000000" font-family="sans-serif" font-size="14" lengthAdjust="spacing" textLength="681" x="29" y="308.4482">setProviderEvent(eventName: string, callback: Generic, uniqueId: string, saveEvent: boolean) : void</text><ellipse cx="20" cy="321.3984" fill="#84BE84" rx="3" ry="3" style="stroke:#038048;stroke-width:1.0;"/><text fill="#000000" font-family="sans-serif" font-size="14" lengthAdjust="spacing" textLength="285" x="29" y="324.7451">unsetProviderEvent(eventId: string) : void</text><ellipse cx="20" cy="337.6953" fill="#84BE84" rx="3" ry="3" style="stroke:#038048;stroke-width:1.0;"/><text fill="#000000" font-family="sans-serif" font-size="14" lengthAdjust="spacing" textLength="374" x="29" y="341.042">updateProviderEvents(providerInfo: ProviderInfo) : void</text><polygon fill="#FFFF44" points="20,348.9922,24,352.9922,20,356.9922,16,352.9922" style="stroke:#B38D22;stroke-width:1.0;"/><text fill="#000000" font-family="sans-serif" font-size="14" lengthAdjust="spacing" textLength="121" x="29" y="357.3389">finishBuild() : void</text><polygon fill="#FFFF44" points="20,365.2891,24,369.2891,20,373.2891,16,369.2891" style="stroke:#B38D22;stroke-width:1.0;"/><text fill="#000000" font-family="sans-serif" font-size="14" font-style="italic" lengthAdjust="spacing" textLength="157" x="29" y="373.6357">prepareConfigs() : void</text><polygon fill="#FFFF44" points="20,381.5859,24,385.5859,20,389.5859,16,385.5859" style="stroke:#B38D22;stroke-width:1.0;"/><text fill="#000000" font-family="sans-serif" font-size="14" lengthAdjust="spacing" textLength="98" x="29" y="389.9326">redraw() : void</text><polygon fill="#FFFF44" points="20,397.8828,24,401.8828,20,405.8828,16,401.8828" style="stroke:#B38D22;stroke-width:1.0;"/><text fill="#000000" font-family="sans-serif" font-size="14" font-style="italic" lengthAdjust="spacing" textLength="179" x="29" y="406.2295">setA11YProperties() : void</text><polygon fill="#FFFF44" points="20,414.1797,24,418.1797,20,422.1797,16,418.1797" style="stroke:#B38D22;stroke-width:1.0;"/><text fill="#000000" font-family="sans-serif" font-size="14" font-style="italic" lengthAdjust="spacing" textLength="137" x="29" y="422.5264">setCallbacks() : void</text><polygon fill="#FFFF44" points="20,430.4766,24,434.4766,20,438.4766,16,434.4766" style="stroke:#B38D22;stroke-width:1.0;"/><text fill="#000000" font-family="sans-serif" font-size="14" font-style="italic" lengthAdjust="spacing" textLength="169" x="29" y="438.8232">setHtmlElements() : void</text><polygon fill="#FFFF44" points="20,446.7734,24,450.7734,20,454.7734,16,450.7734" style="stroke:#B38D22;stroke-width:1.0;"/><text fill="#000000" font-family="sans-serif" font-size="14" lengthAdjust="spacing" textLength="569" x="29" y="455.1201">triggerPlatformEventCallback(platFormCallback: OSGeneric, args: unknown[]) : void</text><polygon fill="#FFFF44" points="20,463.0703,24,467.0703,20,471.0703,16,467.0703" style="stroke:#B38D22;stroke-width:1.0;"/><text fill="#000000" font-family="sans-serif" font-size="14" lengthAdjust="spacing" textLength="311" x="29" y="471.417">triggerPlatformInitializedEventCallback() : void</text><polygon fill="#FFFF44" points="20,479.3672,24,483.3672,20,487.3672,16,483.3672" style="stroke:#B38D22;stroke-width:1.0;"/><text fill="#000000" font-family="sans-serif" font-size="14" lengthAdjust="spacing" textLength="156" x="29" y="487.7139">unsetCallbacks() : void</text><polygon fill="#FFFF44" points="20,495.6641,24,499.6641,20,503.6641,16,499.6641" style="stroke:#B38D22;stroke-width:1.0;"/><text fill="#000000" font-family="sans-serif" font-size="14" lengthAdjust="spacing" textLength="199" x="29" y="504.0107">unsetGlobalCallbacks() : void</text><polygon fill="#FFFF44" points="20,511.9609,24,515.9609,20,519.9609,16,515.9609" style="stroke:#B38D22;stroke-width:1.0;"/><text fill="#000000" font-family="sans-serif" font-size="14" font-style="italic" lengthAdjust="spacing" textLength="187" x="29" y="520.3076">unsetHtmlElements() : void</text><rect fill="#F24D5C" height="6" style="stroke:#C82930;stroke-width:1.0;" width="6" x="17" y="530.2578"/><text fill="#000000" font-family="sans-serif" font-size="14" lengthAdjust="spacing" textLength="155" x="29" y="536.6045">_cancelRedraw() : void</text><rect fill="#F24D5C" height="6" style="stroke:#C82930;stroke-width:1.0;" width="6" x="17" y="546.5547"/><text fill="#000000" font-family="sans-serif" font-size="14" lengthAdjust="spacing" textLength="398" x="29" y="552.9014">_getEventIndexFromArray(event: IProviderEvent) : number</text><rect fill="#F24D5C" height="6" style="stroke:#C82930;stroke-width:1.0;" width="6" x="17" y="562.8516"/><text fill="#000000" font-family="sans-serif" font-size="14" lengthAdjust="spacing" textLength="774" x="29" y="569.1982">_handleProviderEventsAPI(eventName: string, callback: Generic, addEvent: boolean, event: IProviderEvent) : void</text><rect fill="#F24D5C" height="6" style="stroke:#C82930;stroke-width:1.0;" width="6" x="17" y="579.1484"/><text fill="#000000" font-family="sans-serif" font-size="14" lengthAdjust="spacing" textLength="157" x="29" y="585.4951">_handleRedraw() : void</text></g><!--class ITimePicker--><g id="elem_ITimePicker"><rect codeLine="75" fill="#FFFFFF" height="341.3438" id="ITimePicker" rx="2.5" ry="2.5" style="stroke:#272B30;stroke-width:0.5;" width="563" x="844.5" y="129.5"/><ellipse cx="1082.25" cy="145.5" fill="#B4A7E5" rx="11" ry="11" style="stroke:#181818;stroke-width:1.0;"/><path d="M1078.1719,141.2656 L1078.1719,139.1094 L1085.5625,139.1094 L1085.5625,141.2656 L1083.0938,141.2656 L1083.0938,149.3438 L1085.5625,149.3438 L1085.5625,151.5 L1078.1719,151.5 L1078.1719,149.3438 L1080.6406,149.3438 L1080.6406,141.2656 L1078.1719,141.2656 Z " fill="#000000"/><text fill="#000000" font-family="sans-serif" font-size="14" font-style="italic" lengthAdjust="spacing" textLength="79" x="1102.75" y="150.3467">ITimePicker</text><line style="stroke:#272B30;stroke-width:0.5;" x1="845.5" x2="1406.5" y1="161.5" y2="161.5"/><ellipse cx="855.5" cy="175.1484" fill="none" rx="3" ry="3" style="stroke:#038048;stroke-width:1.0;"/><text fill="#000000" font-family="sans-serif" font-size="14" lengthAdjust="spacing" textLength="110" x="864.5" y="178.4951">isBuilt : boolean</text><ellipse cx="855.5" cy="191.4453" fill="none" rx="3" ry="3" style="stroke:#038048;stroke-width:1.0;"/><text fill="#000000" font-family="sans-serif" font-size="14" lengthAdjust="spacing" textLength="118" x="864.5" y="194.792">isOpen : boolean</text><ellipse cx="855.5" cy="207.7422" fill="none" rx="3" ry="3" style="stroke:#038048;stroke-width:1.0;"/><text fill="#000000" font-family="sans-serif" font-size="14" lengthAdjust="spacing" textLength="189" x="864.5" y="211.0889">selfElement : HTMLElement</text><ellipse cx="855.5" cy="224.0391" fill="none" rx="3" ry="3" style="stroke:#038048;stroke-width:1.0;"/><text fill="#000000" font-family="sans-serif" font-size="14" lengthAdjust="spacing" textLength="112" x="864.5" y="227.3857">uniqueId : string</text><ellipse cx="855.5" cy="240.3359" fill="none" rx="3" ry="3" style="stroke:#038048;stroke-width:1.0;"/><text fill="#000000" font-family="sans-serif" font-size="14" lengthAdjust="spacing" textLength="110" x="864.5" y="243.6826">widgetId : string</text><line style="stroke:#272B30;stroke-width:0.5;" x1="845.5" x2="1406.5" y1="250.9844" y2="250.9844"/><ellipse cx="855.5" cy="264.6328" fill="#84BE84" rx="3" ry="3" style="stroke:#038048;stroke-width:1.0;"/><text fill="#000000" font-family="sans-serif" font-size="14" lengthAdjust="spacing" textLength="84" x="864.5" y="267.9795">build() : void</text><ellipse cx="855.5" cy="280.9297" fill="#84BE84" rx="3" ry="3" style="stroke:#038048;stroke-width:1.0;"/><text fill="#000000" font-family="sans-serif" font-size="14" lengthAdjust="spacing" textLength="484" x="864.5" y="284.2764">changeProperty(propertyName: string, propertyValue: unknown) : void</text><ellipse cx="855.5" cy="297.2266" fill="#84BE84" rx="3" ry="3" style="stroke:#038048;stroke-width:1.0;"/><text fill="#000000" font-family="sans-serif" font-size="14" lengthAdjust="spacing" textLength="84" x="864.5" y="300.5732">clear() : void</text><ellipse cx="855.5" cy="313.5234" fill="#84BE84" rx="3" ry="3" style="stroke:#038048;stroke-width:1.0;"/><text fill="#000000" font-family="sans-serif" font-size="14" lengthAdjust="spacing" textLength="88" x="864.5" y="316.8701">close() : void</text><ellipse cx="855.5" cy="329.8203" fill="#84BE84" rx="3" ry="3" style="stroke:#038048;stroke-width:1.0;"/><text fill="#000000" font-family="sans-serif" font-size="14" lengthAdjust="spacing" textLength="106" x="864.5" y="333.167">dispose() : void</text><ellipse cx="855.5" cy="346.1172" fill="#84BE84" rx="3" ry="3" style="stroke:#038048;stroke-width:1.0;"/><text fill="#000000" font-family="sans-serif" font-size="14" lengthAdjust="spacing" textLength="217" x="864.5" y="349.4639">equalsToID(id: string) : boolean</text><ellipse cx="855.5" cy="362.4141" fill="#84BE84" rx="3" ry="3" style="stroke:#038048;stroke-width:1.0;"/><text fill="#000000" font-family="sans-serif" font-size="14" lengthAdjust="spacing" textLength="257" x="864.5" y="365.7607">open(isOpenedByApi: boolean) : void</text><ellipse cx="855.5" cy="378.7109" fill="#84BE84" rx="3" ry="3" style="stroke:#038048;stroke-width:1.0;"/><text fill="#000000" font-family="sans-serif" font-size="14" lengthAdjust="spacing" textLength="434" x="864.5" y="382.0576">registerCallback(eventName: string, callback: OSGeneric) : void</text><ellipse cx="855.5" cy="395.0078" fill="#84BE84" rx="3" ry="3" style="stroke:#038048;stroke-width:1.0;"/><text fill="#000000" font-family="sans-serif" font-size="14" lengthAdjust="spacing" textLength="225" x="864.5" y="398.3545">setLanguage(value: string) : void</text><ellipse cx="855.5" cy="411.3047" fill="#84BE84" rx="3" ry="3" style="stroke:#038048;stroke-width:1.0;"/><text fill="#000000" font-family="sans-serif" font-size="14" lengthAdjust="spacing" textLength="322" x="864.5" y="414.6514">setProviderConfigs(providerConfigs: any) : void</text><ellipse cx="855.5" cy="427.6016" fill="#84BE84" rx="3" ry="3" style="stroke:#038048;stroke-width:1.0;"/><text fill="#000000" font-family="sans-serif" font-size="14" lengthAdjust="spacing" textLength="537" x="864.5" y="430.9482">setProviderEvent(eventName: string, callback: Generic, uniqueId: string) : void</text><ellipse cx="855.5" cy="443.8984" fill="#84BE84" rx="3" ry="3" style="stroke:#038048;stroke-width:1.0;"/><text fill="#000000" font-family="sans-serif" font-size="14" lengthAdjust="spacing" textLength="285" x="864.5" y="447.2451">unsetProviderEvent(eventId: string) : void</text><ellipse cx="855.5" cy="460.1953" fill="#84BE84" rx="3" ry="3" style="stroke:#038048;stroke-width:1.0;"/><text fill="#000000" font-family="sans-serif" font-size="14" lengthAdjust="spacing" textLength="246" x="864.5" y="463.542">updateInitialTime(time: string) : void</text></g><!--class OSUIFlatpickrTime--><g id="elem_OSUIFlatpickrTime"><rect codeLine="96" fill="#FFFFFF" height="813.9531" id="OSUIFlatpickrTime" rx="2.5" ry="2.5" style="stroke:#272B30;stroke-width:0.5;" width="707" x="413.5" y="1250"/><ellipse cx="700.75" cy="1266" fill="#ADD1B2" rx="11" ry="11" style="stroke:#181818;stroke-width:1.0;"/><path d="M703.7188,1271.6406 Q703.1406,1271.9375 702.5,1272.0781 Q701.8594,1272.2344 701.1563,1272.2344 Q698.6563,1272.2344 697.3281,1270.5938 Q696.0156,1268.9375 696.0156,1265.8125 Q696.0156,1262.6875 697.3281,1261.0313 Q698.6563,1259.375 701.1563,1259.375 Q701.8594,1259.375 702.5,1259.5313 Q703.1563,1259.6875 703.7188,1259.9844 L703.7188,1262.7031 Q703.0938,1262.125 702.5,1261.8594 Q701.9063,1261.5781 701.2813,1261.5781 Q699.9375,1261.5781 699.25,1262.6563 Q698.5625,1263.7188 698.5625,1265.8125 Q698.5625,1267.9063 699.25,1268.9844 Q699.9375,1270.0469 701.2813,1270.0469 Q701.9063,1270.0469 702.5,1269.7813 Q703.0938,1269.5 703.7188,1268.9219 L703.7188,1271.6406 Z " fill="#000000"/><text fill="#000000" font-family="sans-serif" font-size="14" lengthAdjust="spacing" textLength="124" x="721.25" y="1270.8467">OSUIFlatpickrTime</text><line style="stroke:#272B30;stroke-width:0.5;" x1="414.5" x2="1119.5" y1="1282" y2="1282"/><polygon fill="none" points="424.5,1290.6484,428.5,1294.6484,424.5,1298.6484,420.5,1294.6484" style="stroke:#B38D22;stroke-width:1.0;"/><text fill="#000000" font-family="sans-serif" font-size="14" lengthAdjust="spacing" textLength="265" x="433.5" y="1298.9951">flatpickrInputElem : HTMLInputElement</text><polygon fill="none" points="424.5,1306.9453,428.5,1310.9453,424.5,1314.9453,420.5,1310.9453" style="stroke:#B38D22;stroke-width:1.0;"/><text fill="#000000" font-family="sans-serif" font-size="14" lengthAdjust="spacing" textLength="180" x="433.5" y="1315.292">isProviderBased : boolean</text><polygon fill="none" points="424.5,1323.2422,428.5,1327.2422,424.5,1331.2422,420.5,1327.2422" style="stroke:#B38D22;stroke-width:1.0;"/><text fill="#000000" font-family="sans-serif" font-size="14" lengthAdjust="spacing" textLength="314" x="433.5" y="1331.5889">onChangeCallbackEvent : OSOnChangeEvent</text><polygon fill="none" points="424.5,1339.5391,428.5,1343.5391,424.5,1347.5391,420.5,1343.5391" style="stroke:#B38D22;stroke-width:1.0;"/><text fill="#000000" font-family="sans-serif" font-size="14" lengthAdjust="spacing" textLength="393" x="433.5" y="1347.8857">providerEventsManagerInstance : IProviderEventManager</text><polygon fill="none" points="424.5,1355.8359,428.5,1359.8359,424.5,1363.8359,420.5,1359.8359" style="stroke:#B38D22;stroke-width:1.0;"/><text fill="#000000" font-family="sans-serif" font-size="14" lengthAdjust="spacing" textLength="340" x="433.5" y="1364.1826">timePickerPlatformInputElem : HTMLInputElement</text><rect fill="none" height="6" style="stroke:#C82930;stroke-width:1.0;" width="6" x="421.5" y="1374.1328"/><text fill="#000000" font-family="sans-serif" font-size="14" lengthAdjust="spacing" textLength="246" x="433.5" y="1380.4795">_bodyOnClickGlobalEvent : IListener</text><rect fill="none" height="6" style="stroke:#C82930;stroke-width:1.0;" width="6" x="421.5" y="1390.4297"/><text fill="#000000" font-family="sans-serif" font-size="14" lengthAdjust="spacing" textLength="385" x="433.5" y="1396.7764">_bodyScrollCommonBehaviour : UpdatePositionOnScroll</text><rect fill="none" height="6" style="stroke:#C82930;stroke-width:1.0;" width="6" x="421.5" y="1406.7266"/><text fill="#000000" font-family="sans-serif" font-size="14" lengthAdjust="spacing" textLength="217" x="433.5" y="1413.0732">_flatpickrOpts : FlatpickrOptions</text><rect fill="none" height="6" style="stroke:#C82930;stroke-width:1.0;" width="6" x="421.5" y="1423.0234"/><text fill="#000000" font-family="sans-serif" font-size="14" lengthAdjust="spacing" textLength="285" x="433.5" y="1429.3701">_zindexCommonBehavior : UpdateZindex</text><line style="stroke:#272B30;stroke-width:0.5;" x1="414.5" x2="1119.5" y1="1436.6719" y2="1436.6719"/><ellipse cx="424.5" cy="1450.3203" fill="#84BE84" rx="3" ry="3" style="stroke:#038048;stroke-width:1.0;"/><text fill="#000000" font-family="sans-serif" font-size="14" lengthAdjust="spacing" textLength="84" x="433.5" y="1453.667">build() : void</text><ellipse cx="424.5" cy="1466.6172" fill="#84BE84" rx="3" ry="3" style="stroke:#038048;stroke-width:1.0;"/><text fill="#000000" font-family="sans-serif" font-size="14" lengthAdjust="spacing" textLength="484" x="433.5" y="1469.9639">changeProperty(propertyName: string, propertyValue: unknown) : void</text><ellipse cx="424.5" cy="1482.9141" fill="#84BE84" rx="3" ry="3" style="stroke:#038048;stroke-width:1.0;"/><text fill="#000000" font-family="sans-serif" font-size="14" lengthAdjust="spacing" textLength="241" x="433.5" y="1486.2607">checkAddedProviderEvents() : void</text><ellipse cx="424.5" cy="1499.2109" fill="#84BE84" rx="3" ry="3" style="stroke:#038048;stroke-width:1.0;"/><text fill="#000000" font-family="sans-serif" font-size="14" lengthAdjust="spacing" textLength="253" x="433.5" y="1502.5576">checkPendingProviderEvents() : void</text><ellipse cx="424.5" cy="1515.5078" fill="#84BE84" rx="3" ry="3" style="stroke:#038048;stroke-width:1.0;"/><text fill="#000000" font-family="sans-serif" font-size="14" lengthAdjust="spacing" textLength="84" x="433.5" y="1518.8545">clear() : void</text><ellipse cx="424.5" cy="1531.8047" fill="#84BE84" rx="3" ry="3" style="stroke:#038048;stroke-width:1.0;"/><text fill="#000000" font-family="sans-serif" font-size="14" lengthAdjust="spacing" textLength="88" x="433.5" y="1535.1514">close() : void</text><ellipse cx="424.5" cy="1548.1016" fill="#84BE84" rx="3" ry="3" style="stroke:#038048;stroke-width:1.0;"/><text fill="#000000" font-family="sans-serif" font-size="14" lengthAdjust="spacing" textLength="106" x="433.5" y="1551.4482">dispose() : void</text><ellipse cx="424.5" cy="1564.3984" fill="#84BE84" rx="3" ry="3" style="stroke:#038048;stroke-width:1.0;"/><text fill="#000000" font-family="sans-serif" font-size="14" lengthAdjust="spacing" textLength="267" x="433.5" y="1567.7451">equalsToID(patternId: string) : boolean</text><ellipse cx="424.5" cy="1580.6953" fill="#84BE84" rx="3" ry="3" style="stroke:#038048;stroke-width:1.0;"/><text fill="#000000" font-family="sans-serif" font-size="14" lengthAdjust="spacing" textLength="87" x="433.5" y="1584.042">open() : void</text><ellipse cx="424.5" cy="1596.9922" fill="#84BE84" rx="3" ry="3" style="stroke:#038048;stroke-width:1.0;"/><text fill="#000000" font-family="sans-serif" font-size="14" lengthAdjust="spacing" textLength="434" x="433.5" y="1600.3389">registerCallback(eventName: string, callback: OSGeneric) : void</text><ellipse cx="424.5" cy="1613.2891" fill="#84BE84" rx="3" ry="3" style="stroke:#038048;stroke-width:1.0;"/><text fill="#000000" font-family="sans-serif" font-size="14" lengthAdjust="spacing" textLength="294" x="433.5" y="1616.6357">setEditableInput(isEditable: boolean) : void</text><ellipse cx="424.5" cy="1629.5859" fill="#84BE84" rx="3" ry="3" style="stroke:#038048;stroke-width:1.0;"/><text fill="#000000" font-family="sans-serif" font-size="14" lengthAdjust="spacing" textLength="225" x="433.5" y="1632.9326">setLanguage(value: string) : void</text><ellipse cx="424.5" cy="1645.8828" fill="#84BE84" rx="3" ry="3" style="stroke:#038048;stroke-width:1.0;"/><text fill="#000000" font-family="sans-serif" font-size="14" lengthAdjust="spacing" textLength="382" x="433.5" y="1649.2295">setProviderConfigs(newConfigs: FlatpickrOptions) : void</text><ellipse cx="424.5" cy="1662.1797" fill="#84BE84" rx="3" ry="3" style="stroke:#038048;stroke-width:1.0;"/><text fill="#000000" font-family="sans-serif" font-size="14" lengthAdjust="spacing" textLength="681" x="433.5" y="1665.5264">setProviderEvent(eventName: string, callback: Generic, uniqueId: string, saveEvent: boolean) : void</text><ellipse cx="424.5" cy="1678.4766" fill="#84BE84" rx="3" ry="3" style="stroke:#038048;stroke-width:1.0;"/><text fill="#000000" font-family="sans-serif" font-size="14" lengthAdjust="spacing" textLength="315" x="433.5" y="1681.8232">toggleNativeBehavior(isNative: boolean) : void</text><ellipse cx="424.5" cy="1694.7734" fill="#84BE84" rx="3" ry="3" style="stroke:#038048;stroke-width:1.0;"/><text fill="#000000" font-family="sans-serif" font-size="14" lengthAdjust="spacing" textLength="285" x="433.5" y="1698.1201">unsetProviderEvent(eventId: string) : void</text><ellipse cx="424.5" cy="1711.0703" fill="#84BE84" rx="3" ry="3" style="stroke:#038048;stroke-width:1.0;"/><text fill="#000000" font-family="sans-serif" font-size="14" lengthAdjust="spacing" textLength="252" x="433.5" y="1714.417">updateInitialTime(value: string) : void</text><ellipse cx="424.5" cy="1727.3672" fill="#84BE84" rx="3" ry="3" style="stroke:#038048;stroke-width:1.0;"/><text fill="#000000" font-family="sans-serif" font-size="14" lengthAdjust="spacing" textLength="311" x="433.5" y="1730.7139">updatePrompt(promptMessage: string) : void</text><ellipse cx="424.5" cy="1743.6641" fill="#84BE84" rx="3" ry="3" style="stroke:#038048;stroke-width:1.0;"/><text fill="#000000" font-family="sans-serif" font-size="14" lengthAdjust="spacing" textLength="374" x="433.5" y="1747.0107">updateProviderEvents(providerInfo: ProviderInfo) : void</text><polygon fill="#FFFF44" points="424.5,1754.9609,428.5,1758.9609,424.5,1762.9609,420.5,1758.9609" style="stroke:#B38D22;stroke-width:1.0;"/><text fill="#000000" font-family="sans-serif" font-size="14" lengthAdjust="spacing" textLength="210" x="433.5" y="1763.3076">createProviderInstance() : void</text><polygon fill="#FFFF44" points="424.5,1771.2578,428.5,1775.2578,424.5,1779.2578,420.5,1775.2578" style="stroke:#B38D22;stroke-width:1.0;"/><text fill="#000000" font-family="sans-serif" font-size="14" lengthAdjust="spacing" textLength="121" x="433.5" y="1779.6045">finishBuild() : void</text><polygon fill="#FFFF44" points="424.5,1787.5547,428.5,1791.5547,424.5,1795.5547,420.5,1791.5547" style="stroke:#B38D22;stroke-width:1.0;"/><text fill="#000000" font-family="sans-serif" font-size="14" lengthAdjust="spacing" textLength="108" x="433.5" y="1795.9014">onClose() : void</text><polygon fill="#FFFF44" points="424.5,1803.8516,428.5,1807.8516,424.5,1811.8516,420.5,1807.8516" style="stroke:#B38D22;stroke-width:1.0;"/><text fill="#000000" font-family="sans-serif" font-size="14" lengthAdjust="spacing" textLength="107" x="433.5" y="1812.1982">onOpen() : void</text><polygon fill="#FFFF44" points="424.5,1820.1484,428.5,1824.1484,424.5,1828.1484,420.5,1824.1484" style="stroke:#B38D22;stroke-width:1.0;"/><text fill="#000000" font-family="sans-serif" font-size="14" lengthAdjust="spacing" textLength="349" x="433.5" y="1828.4951">onTimeSelectedEvent(selectedTime: Date[]) : void</text><polygon fill="#FFFF44" points="424.5,1836.4453,428.5,1840.4453,424.5,1844.4453,420.5,1840.4453" style="stroke:#B38D22;stroke-width:1.0;"/><text fill="#000000" font-family="sans-serif" font-size="14" lengthAdjust="spacing" textLength="157" x="433.5" y="1844.792">prepareConfigs() : void</text><polygon fill="#FFFF44" points="424.5,1852.7422,428.5,1856.7422,424.5,1860.7422,420.5,1856.7422" style="stroke:#B38D22;stroke-width:1.0;"/><text fill="#000000" font-family="sans-serif" font-size="14" lengthAdjust="spacing" textLength="98" x="433.5" y="1861.0889">redraw() : void</text><polygon fill="#FFFF44" points="424.5,1869.0391,428.5,1873.0391,424.5,1877.0391,420.5,1873.0391" style="stroke:#B38D22;stroke-width:1.0;"/><text fill="#000000" font-family="sans-serif" font-size="14" lengthAdjust="spacing" textLength="180" x="433.5" y="1877.3857">setA11YProperties() : void</text><polygon fill="#FFFF44" points="424.5,1885.3359,428.5,1889.3359,424.5,1893.3359,420.5,1889.3359" style="stroke:#B38D22;stroke-width:1.0;"/><text fill="#000000" font-family="sans-serif" font-size="14" lengthAdjust="spacing" textLength="138" x="433.5" y="1893.6826">setCallbacks() : void</text><polygon fill="#FFFF44" points="424.5,1901.6328,428.5,1905.6328,424.5,1909.6328,420.5,1905.6328" style="stroke:#B38D22;stroke-width:1.0;"/><text fill="#000000" font-family="sans-serif" font-size="14" lengthAdjust="spacing" textLength="169" x="433.5" y="1909.9795">setHtmlElements() : void</text><polygon fill="#FFFF44" points="424.5,1917.9297,428.5,1921.9297,424.5,1925.9297,420.5,1921.9297" style="stroke:#B38D22;stroke-width:1.0;"/><text fill="#000000" font-family="sans-serif" font-size="14" lengthAdjust="spacing" textLength="569" x="433.5" y="1926.2764">triggerPlatformEventCallback(platFormCallback: OSGeneric, args: unknown[]) : void</text><polygon fill="#FFFF44" points="424.5,1934.2266,428.5,1938.2266,424.5,1942.2266,420.5,1938.2266" style="stroke:#B38D22;stroke-width:1.0;"/><text fill="#000000" font-family="sans-serif" font-size="14" lengthAdjust="spacing" textLength="311" x="433.5" y="1942.5732">triggerPlatformInitializedEventCallback() : void</text><polygon fill="#FFFF44" points="424.5,1950.5234,428.5,1954.5234,424.5,1958.5234,420.5,1954.5234" style="stroke:#B38D22;stroke-width:1.0;"/><text fill="#000000" font-family="sans-serif" font-size="14" lengthAdjust="spacing" textLength="156" x="433.5" y="1958.8701">unsetCallbacks() : void</text><polygon fill="#FFFF44" points="424.5,1966.8203,428.5,1970.8203,424.5,1974.8203,420.5,1970.8203" style="stroke:#B38D22;stroke-width:1.0;"/><text fill="#000000" font-family="sans-serif" font-size="14" lengthAdjust="spacing" textLength="199" x="433.5" y="1975.167">unsetGlobalCallbacks() : void</text><polygon fill="#FFFF44" points="424.5,1983.1172,428.5,1987.1172,424.5,1991.1172,420.5,1987.1172" style="stroke:#B38D22;stroke-width:1.0;"/><text fill="#000000" font-family="sans-serif" font-size="14" lengthAdjust="spacing" textLength="187" x="433.5" y="1991.4639">unsetHtmlElements() : void</text><polygon fill="#FFFF44" points="424.5,1999.4141,428.5,2003.4141,424.5,2007.4141,420.5,2003.4141" style="stroke:#B38D22;stroke-width:1.0;"/><text fill="#000000" font-family="sans-serif" font-size="14" lengthAdjust="spacing" textLength="223" x="433.5" y="2007.7607">updatePlatformInputAttrs() : void</text><rect fill="#F24D5C" height="6" style="stroke:#C82930;stroke-width:1.0;" width="6" x="421.5" y="2017.7109"/><text fill="#000000" font-family="sans-serif" font-size="14" lengthAdjust="spacing" textLength="250" x="433.5" y="2024.0576">_getBodyOnClickGlobalEvent() : void</text><rect fill="#F24D5C" height="6" style="stroke:#C82930;stroke-width:1.0;" width="6" x="421.5" y="2034.0078"/><text fill="#000000" font-family="sans-serif" font-size="14" lengthAdjust="spacing" textLength="147" x="433.5" y="2040.3545">_setAttributes() : void</text><rect fill="#F24D5C" height="6" style="stroke:#C82930;stroke-width:1.0;" width="6" x="421.5" y="2050.3047"/><text fill="#000000" font-family="sans-serif" font-size="14" lengthAdjust="spacing" textLength="221" x="433.5" y="2056.6514">_setCalendarCssClasses() : void</text></g><!--reverse link AbstractProviderPattern<P, C> to AbstractTimePicker<P, C>--><g id="link_AbstractProviderPattern&lt;P, C&gt;_AbstractTimePicker&lt;P, C&gt;"><path codeLine="74" d="M586.7888,608.6434 C598.2988,628.5534 600.85,632.98 612.28,652.76 " fill="none" id="AbstractProviderPattern&lt;P, C&gt;-backto-AbstractTimePicker&lt;P, C&gt;" style="stroke:#272B30;stroke-width:1.0;"/><polygon fill="none" points="577.78,593.06,581.5943,611.6463,591.9832,605.6405,577.78,593.06" style="stroke:#272B30;stroke-width:1.0;"/></g><!--reverse link ITimePicker to AbstractTimePicker<P, C>--><g id="link_ITimePicker_AbstractTimePicker&lt;P, C&gt;"><path codeLine="95" d="M1018.6351,486.2641 C986.0451,542.5041 957.96,590.98 922.16,652.75 " fill="none" id="ITimePicker-backto-AbstractTimePicker&lt;P, C&gt;" style="stroke:#272B30;stroke-width:1.0;stroke-dasharray:7.0,7.0;"/><polygon fill="none" points="1027.66,470.69,1013.4438,483.2558,1023.8265,489.2724,1027.66,470.69" style="stroke:#272B30;stroke-width:1.0;"/></g><!--reverse link AbstractTimePicker<P, C> to OSUIFlatpickrTime--><g id="link_AbstractTimePicker&lt;P, C&gt;_OSUIFlatpickrTime"><path codeLine="145" d="M767,1208.16 C767,1227.71 767,1229.66 767,1249.77 " fill="none" id="AbstractTimePicker&lt;P, C&gt;-backto-OSUIFlatpickrTime" style="stroke:#272B30;stroke-width:1.0;"/><polygon fill="none" points="767,1190.16,761,1208.16,773,1208.16,767,1190.16" style="stroke:#272B30;stroke-width:1.0;"/></g><!--SRC=[xLXTRzis57tFho3Y5mUrYxKRC2081jXkqWf8Qc591sp34D3YbKsO8bMIikUs-U-xaYXP7xQSTKw7hijBmlj5ylBmy4HcoMLCDOt8H51ZHbghzKG9fKdlvOylPzz_TsBg4MEb6UZk41eivrebahcmC0mhCIrt0Em7HayMd061ABOR4e5TA6Qgff23G0kT6QjfO4cGpaHEHsvynoFmUR04VU4FoEIdK_BnXE1FZnjVgnNMqMDgW95pCbDA09MvEtREonL8Qswef7FGdZIMoW0msFEh0SwVfJwR9Lom_Xa6hHHdkIrOK3a7p8b1sqq_Td-yfH6S4rmfb_C1AQo_K96WEP5BgTQoMGY2vOWnOBK5cFwEC1yamy9TWH-BlZrW3kvUTxcLWSOqZ9kuRONt2HNcJdcl-Z6r5hJqMB7BiqQZgpFWxcMZb8OvDrXXGeMO8Jxwa6wYthR0-Sx9zFOrID0ysBi90_OQJoB1q-glyZPlrxMT5iEAhasK3FdSzEFwUC_nL1ApTdUlrwrsWBNu-mIsNHeGGrUGLIZRLPyeaRkdgdTwPm-Ic54BdkIMKv7UZxxb4Jmo3QV4QvTs0t_TW37OoTqzBEEhu2kwwCbGdHE_Cgebzq8kkLcCspUfiYAyeu3C0SK9rIjeO9gkzoTZ-qOlNlpghYG7qnbQuAyxwesDnAM0g7tFUjYWEJA4BwWDbOwoTfIWZj5wXTP96ya3GdK5RR__qLdM7Ih_0Am-Gpqh0y-UBUNErqBDg7Z4hhFetVj-s4lAnRdxEJjyAMOUtbEpaO4dLogWbYka9OoNIJGh0-Bg-JGeO1J7WWChca8gfrHakmHq-GrJ2d5IHxoBo85QgLgj-LKz9aTu3ev2-Fyz-lwVJBzrCisv8aWvJloyupI6ztEmsJ8zoU3FAtoVKRFJJGwh9YkUDNaF6OM91hv6llT8_5F6wc0VaBtJLbQSJzhSpSF9eNVYujDmsA7mJxZ4w93YQt3gRRt5-_ACc_Ggs2RpS3D5_Tcq6X2XEmrqlRcxkNQZuXxdDvyK_SdDQyxmE5hcfoNpjdp_FCtEzxDpfj3pHW4RRqOntyDlnwBnOubrAZTFmlJ7OFM3IXnlH0t75v-UF-_2lrDRqzjttXLoMOnEdKQL2Yiih9wC4vi2sc6x71S0FoJ6b9na-2tEETjqfeocpfDP_gbowzboarjsFh3quVrCiGqkGs1UJi75whph59ooPByqy3RGIeY9YY8bnx2WAwwILCYzorzUPNYg6ASoZtE9PIEdiJKOV5KPOxHnOHzuoicrsjlIlsNEhr3j7Orm3gl29_eoaBB09UEMpWHa-45kAyPxYEtpEKd2kgIZ9ax-9HLgrNmku2t-BxI20fVOWjnmLELQvRYEjdtHRmo1XafomKFzHshdbFhQO4Vhj8LLDAORlmK1WNLYic_Sw2vZ_5UuagOS_TkA_90Cxz3Utv3WFgIoUmvKrNTcPAqsEmJtUESBqmnCZmKBy5bYmUnmuaAHRgcU69Dz9mUpKmstFsNdGhZzply5]--></g></svg>