<?xml version="1.0" encoding="us-ascii" standalone="no"?><svg xmlns="http://www.w3.org/2000/svg" xmlns:xlink="http://www.w3.org/1999/xlink" contentStyleType="text/css" height="2265px" preserveAspectRatio="none" style="width:1414px;height:2265px;background:#CED4DA;" version="1.1" viewBox="0 0 1414 2265" width="1414px" zoomAndPan="magnify"><defs/><g><rect fill="#CED4DA" height="2265" style="stroke:none;stroke-width:1.0;" width="1414" x="0" y="0"/><!--class AbstractDatePicker<P, C>--><g id="elem_AbstractDatePicker&lt;P, C&gt;"><rect codeLine="7" fill="#FFFFFF" height="569.5" id="AbstractDatePicker&lt;P, C&gt;" rx="2.5" ry="2.5" style="stroke:#272B30;stroke-width:0.5;" width="707" x="413.5" y="653"/><ellipse cx="672.25" cy="669" fill="#A9DCDF" rx="11" ry="11" style="stroke:#181818;stroke-width:1.0;"/><path d="M672.3594,664.3438 L671.2031,669.4219 L673.5313,669.4219 L672.3594,664.3438 Z M670.875,662.1094 L673.8594,662.1094 L677.2188,674.5 L674.7656,674.5 L674,671.4375 L670.7188,671.4375 L669.9688,674.5 L667.5313,674.5 L670.875,662.1094 Z " fill="#000000"/><text fill="#000000" font-family="sans-serif" font-size="14" font-style="italic" lengthAdjust="spacing" textLength="181" x="692.75" y="673.8467">AbstractDatePicker&lt;P, C&gt;</text><line style="stroke:#272B30;stroke-width:0.5;" x1="414.5" x2="1119.5" y1="685" y2="685"/><polygon fill="none" points="424.5,693.6484,428.5,697.6484,424.5,701.6484,420.5,697.6484" style="stroke:#B38D22;stroke-width:1.0;"/><text fill="#000000" font-family="sans-serif" font-size="14" lengthAdjust="spacing" textLength="180" x="433.5" y="701.9951">isProviderBased : boolean</text><polygon fill="none" points="424.5,709.9453,428.5,713.9453,424.5,717.9453,420.5,713.9453" style="stroke:#B38D22;stroke-width:1.0;"/><text fill="#000000" font-family="sans-serif" font-size="14" lengthAdjust="spacing" textLength="393" x="433.5" y="718.292">providerEventsManagerInstance : IProviderEventManager</text><line style="stroke:#272B30;stroke-width:0.5;" x1="414.5" x2="1119.5" y1="725.5938" y2="725.5938"/><ellipse cx="424.5" cy="739.2422" fill="#84BE84" rx="3" ry="3" style="stroke:#038048;stroke-width:1.0;"/><text fill="#000000" font-family="sans-serif" font-size="14" lengthAdjust="spacing" textLength="84" x="433.5" y="742.5889">build() : void</text><ellipse cx="424.5" cy="755.5391" fill="#84BE84" rx="3" ry="3" style="stroke:#038048;stroke-width:1.0;"/><text fill="#000000" font-family="sans-serif" font-size="14" lengthAdjust="spacing" textLength="484" x="433.5" y="758.8857">changeProperty(propertyName: string, propertyValue: unknown) : void</text><ellipse cx="424.5" cy="771.8359" fill="#84BE84" rx="3" ry="3" style="stroke:#038048;stroke-width:1.0;"/><text fill="#000000" font-family="sans-serif" font-size="14" lengthAdjust="spacing" textLength="241" x="433.5" y="775.1826">checkAddedProviderEvents() : void</text><ellipse cx="424.5" cy="788.1328" fill="#84BE84" rx="3" ry="3" style="stroke:#038048;stroke-width:1.0;"/><text fill="#000000" font-family="sans-serif" font-size="14" lengthAdjust="spacing" textLength="253" x="433.5" y="791.4795">checkPendingProviderEvents() : void</text><ellipse cx="424.5" cy="804.4297" fill="#84BE84" rx="3" ry="3" style="stroke:#038048;stroke-width:1.0;"/><text fill="#000000" font-family="sans-serif" font-size="14" font-style="italic" lengthAdjust="spacing" textLength="85" x="433.5" y="807.7764">clear() : void</text><ellipse cx="424.5" cy="820.7266" fill="#84BE84" rx="3" ry="3" style="stroke:#038048;stroke-width:1.0;"/><text fill="#000000" font-family="sans-serif" font-size="14" font-style="italic" lengthAdjust="spacing" textLength="88" x="433.5" y="824.0732">close() : void</text><ellipse cx="424.5" cy="837.0234" fill="#84BE84" rx="3" ry="3" style="stroke:#038048;stroke-width:1.0;"/><text fill="#000000" font-family="sans-serif" font-size="14" font-style="italic" lengthAdjust="spacing" textLength="228" x="433.5" y="840.3701">disableDays(value: string[]) : void</text><ellipse cx="424.5" cy="853.3203" fill="#84BE84" rx="3" ry="3" style="stroke:#038048;stroke-width:1.0;"/><text fill="#000000" font-family="sans-serif" font-size="14" font-style="italic" lengthAdjust="spacing" textLength="284" x="433.5" y="856.667">disableWeekDays(value: number[]) : void</text><ellipse cx="424.5" cy="869.6172" fill="#84BE84" rx="3" ry="3" style="stroke:#038048;stroke-width:1.0;"/><text fill="#000000" font-family="sans-serif" font-size="14" lengthAdjust="spacing" textLength="106" x="433.5" y="872.9639">dispose() : void</text><ellipse cx="424.5" cy="885.9141" fill="#84BE84" rx="3" ry="3" style="stroke:#038048;stroke-width:1.0;"/><text fill="#000000" font-family="sans-serif" font-size="14" lengthAdjust="spacing" textLength="267" x="433.5" y="889.2607">equalsToID(patternId: string) : boolean</text><ellipse cx="424.5" cy="902.2109" fill="#84BE84" rx="3" ry="3" style="stroke:#038048;stroke-width:1.0;"/><text fill="#000000" font-family="sans-serif" font-size="14" font-style="italic" lengthAdjust="spacing" textLength="88" x="433.5" y="905.5576">open() : void</text><ellipse cx="424.5" cy="918.5078" fill="#84BE84" rx="3" ry="3" style="stroke:#038048;stroke-width:1.0;"/><text fill="#000000" font-family="sans-serif" font-size="14" lengthAdjust="spacing" textLength="434" x="433.5" y="921.8545">registerCallback(eventName: string, callback: OSGeneric) : void</text><ellipse cx="424.5" cy="934.8047" fill="#84BE84" rx="3" ry="3" style="stroke:#038048;stroke-width:1.0;"/><text fill="#000000" font-family="sans-serif" font-size="14" font-style="italic" lengthAdjust="spacing" textLength="226" x="433.5" y="938.1514">setLanguage(value: string) : void</text><ellipse cx="424.5" cy="951.1016" fill="#84BE84" rx="3" ry="3" style="stroke:#038048;stroke-width:1.0;"/><text fill="#000000" font-family="sans-serif" font-size="14" lengthAdjust="spacing" textLength="362" x="433.5" y="954.4482">setProviderConfigs(providerConfigs: unknown) : void</text><ellipse cx="424.5" cy="967.3984" fill="#84BE84" rx="3" ry="3" style="stroke:#038048;stroke-width:1.0;"/><text fill="#000000" font-family="sans-serif" font-size="14" lengthAdjust="spacing" textLength="681" x="433.5" y="970.7451">setProviderEvent(eventName: string, callback: Generic, uniqueId: string, saveEvent: boolean) : void</text><ellipse cx="424.5" cy="983.6953" fill="#84BE84" rx="3" ry="3" style="stroke:#038048;stroke-width:1.0;"/><text fill="#000000" font-family="sans-serif" font-size="14" lengthAdjust="spacing" textLength="285" x="433.5" y="987.042">unsetProviderEvent(eventId: string) : void</text><ellipse cx="424.5" cy="999.9922" fill="#84BE84" rx="3" ry="3" style="stroke:#038048;stroke-width:1.0;"/><text fill="#000000" font-family="sans-serif" font-size="14" font-style="italic" lengthAdjust="spacing" textLength="351" x="433.5" y="1003.3389">updateInitialDate(date1: string, date2: string) : void</text><ellipse cx="424.5" cy="1016.2891" fill="#84BE84" rx="3" ry="3" style="stroke:#038048;stroke-width:1.0;"/><text fill="#000000" font-family="sans-serif" font-size="14" font-style="italic" lengthAdjust="spacing" textLength="308" x="433.5" y="1019.6357">updatePrompt(promptMessage: string) : void</text><ellipse cx="424.5" cy="1032.5859" fill="#84BE84" rx="3" ry="3" style="stroke:#038048;stroke-width:1.0;"/><text fill="#000000" font-family="sans-serif" font-size="14" lengthAdjust="spacing" textLength="374" x="433.5" y="1035.9326">updateProviderEvents(providerInfo: ProviderInfo) : void</text><polygon fill="#FFFF44" points="424.5,1043.8828,428.5,1047.8828,424.5,1051.8828,420.5,1047.8828" style="stroke:#B38D22;stroke-width:1.0;"/><text fill="#000000" font-family="sans-serif" font-size="14" lengthAdjust="spacing" textLength="121" x="433.5" y="1052.2295">finishBuild() : void</text><polygon fill="#FFFF44" points="424.5,1060.1797,428.5,1064.1797,424.5,1068.1797,420.5,1064.1797" style="stroke:#B38D22;stroke-width:1.0;"/><text fill="#000000" font-family="sans-serif" font-size="14" font-style="italic" lengthAdjust="spacing" textLength="157" x="433.5" y="1068.5264">prepareConfigs() : void</text><polygon fill="#FFFF44" points="424.5,1076.4766,428.5,1080.4766,424.5,1084.4766,420.5,1080.4766" style="stroke:#B38D22;stroke-width:1.0;"/><text fill="#000000" font-family="sans-serif" font-size="14" lengthAdjust="spacing" textLength="98" x="433.5" y="1084.8232">redraw() : void</text><polygon fill="#FFFF44" points="424.5,1092.7734,428.5,1096.7734,424.5,1100.7734,420.5,1096.7734" style="stroke:#B38D22;stroke-width:1.0;"/><text fill="#000000" font-family="sans-serif" font-size="14" font-style="italic" lengthAdjust="spacing" textLength="179" x="433.5" y="1101.1201">setA11YProperties() : void</text><polygon fill="#FFFF44" points="424.5,1109.0703,428.5,1113.0703,424.5,1117.0703,420.5,1113.0703" style="stroke:#B38D22;stroke-width:1.0;"/><text fill="#000000" font-family="sans-serif" font-size="14" font-style="italic" lengthAdjust="spacing" textLength="137" x="433.5" y="1117.417">setCallbacks() : void</text><polygon fill="#FFFF44" points="424.5,1125.3672,428.5,1129.3672,424.5,1133.3672,420.5,1129.3672" style="stroke:#B38D22;stroke-width:1.0;"/><text fill="#000000" font-family="sans-serif" font-size="14" font-style="italic" lengthAdjust="spacing" textLength="169" x="433.5" y="1133.7139">setHtmlElements() : void</text><polygon fill="#FFFF44" points="424.5,1141.6641,428.5,1145.6641,424.5,1149.6641,420.5,1145.6641" style="stroke:#B38D22;stroke-width:1.0;"/><text fill="#000000" font-family="sans-serif" font-size="14" lengthAdjust="spacing" textLength="569" x="433.5" y="1150.0107">triggerPlatformEventCallback(platFormCallback: OSGeneric, args: unknown[]) : void</text><polygon fill="#FFFF44" points="424.5,1157.9609,428.5,1161.9609,424.5,1165.9609,420.5,1161.9609" style="stroke:#B38D22;stroke-width:1.0;"/><text fill="#000000" font-family="sans-serif" font-size="14" lengthAdjust="spacing" textLength="311" x="433.5" y="1166.3076">triggerPlatformInitializedEventCallback() : void</text><polygon fill="#FFFF44" points="424.5,1174.2578,428.5,1178.2578,424.5,1182.2578,420.5,1178.2578" style="stroke:#B38D22;stroke-width:1.0;"/><text fill="#000000" font-family="sans-serif" font-size="14" lengthAdjust="spacing" textLength="156" x="433.5" y="1182.6045">unsetCallbacks() : void</text><polygon fill="#FFFF44" points="424.5,1190.5547,428.5,1194.5547,424.5,1198.5547,420.5,1194.5547" style="stroke:#B38D22;stroke-width:1.0;"/><text fill="#000000" font-family="sans-serif" font-size="14" lengthAdjust="spacing" textLength="199" x="433.5" y="1198.9014">unsetGlobalCallbacks() : void</text><polygon fill="#FFFF44" points="424.5,1206.8516,428.5,1210.8516,424.5,1214.8516,420.5,1210.8516" style="stroke:#B38D22;stroke-width:1.0;"/><text fill="#000000" font-family="sans-serif" font-size="14" font-style="italic" lengthAdjust="spacing" textLength="187" x="433.5" y="1215.1982">unsetHtmlElements() : void</text></g><!--class AbstractProviderPattern<P, C>--><g id="elem_AbstractProviderPattern&lt;P, C&gt;"><rect codeLine="41" fill="#FFFFFF" height="585.7969" id="AbstractProviderPattern&lt;P, C&gt;" rx="2.5" ry="2.5" style="stroke:#272B30;stroke-width:0.5;" width="800" x="9" y="7"/><ellipse cx="298.75" cy="23" fill="#A9DCDF" rx="11" ry="11" style="stroke:#181818;stroke-width:1.0;"/><path d="M298.8594,18.3438 L297.7031,23.4219 L300.0313,23.4219 L298.8594,18.3438 Z M297.375,16.1094 L300.3594,16.1094 L303.7188,28.5 L301.2656,28.5 L300.5,25.4375 L297.2188,25.4375 L296.4688,28.5 L294.0313,28.5 L297.375,16.1094 Z " fill="#000000"/><text fill="#000000" font-family="sans-serif" font-size="14" font-style="italic" lengthAdjust="spacing" textLength="212" x="319.25" y="27.8467">AbstractProviderPattern&lt;P, C&gt;</text><line style="stroke:#272B30;stroke-width:0.5;" x1="10" x2="808" y1="39" y2="39"/><polygon fill="none" points="20,47.6484,24,51.6484,20,55.6484,16,51.6484" style="stroke:#B38D22;stroke-width:1.0;"/><text fill="#000000" font-family="sans-serif" font-size="14" lengthAdjust="spacing" textLength="180" x="29" y="55.9951">isProviderBased : boolean</text><polygon fill="none" points="20,63.9453,24,67.9453,20,71.9453,16,67.9453" style="stroke:#B38D22;stroke-width:1.0;"/><text fill="#000000" font-family="sans-serif" font-size="14" lengthAdjust="spacing" textLength="393" x="29" y="72.292">providerEventsManagerInstance : IProviderEventManager</text><rect fill="none" height="6" style="stroke:#C82930;stroke-width:1.0;" width="6" x="17" y="82.2422"/><text fill="#000000" font-family="sans-serif" font-size="14" lengthAdjust="spacing" textLength="196" x="29" y="88.5889">_asyncInvocationId : number</text><rect fill="none" height="6" style="stroke:#C82930;stroke-width:1.0;" width="6" x="17" y="98.5391"/><text fill="#000000" font-family="sans-serif" font-size="14" lengthAdjust="spacing" textLength="405" x="29" y="104.8857">_platformEventProviderConfigsAppliedCallback : OSGeneric</text><rect fill="none" height="6" style="stroke:#C82930;stroke-width:1.0;" width="6" x="17" y="114.8359"/><text fill="#000000" font-family="sans-serif" font-size="14" lengthAdjust="spacing" textLength="85" x="29" y="121.1826">_provider : P</text><rect fill="none" height="6" style="stroke:#C82930;stroke-width:1.0;" width="6" x="17" y="131.1328"/><text fill="#000000" font-family="sans-serif" font-size="14" lengthAdjust="spacing" textLength="182" x="29" y="137.4795">_providerInfo : ProviderInfo</text><rect fill="none" height="6" style="stroke:#C82930;stroke-width:1.0;" width="6" x="17" y="147.4297"/><text fill="#000000" font-family="sans-serif" font-size="14" lengthAdjust="spacing" textLength="178" x="29" y="153.7764">_redrawCallback : Generic</text><line style="stroke:#272B30;stroke-width:0.5;" x1="10" x2="808" y1="161.0781" y2="161.0781"/><ellipse cx="20" cy="174.7266" fill="#84BE84" rx="3" ry="3" style="stroke:#038048;stroke-width:1.0;"/><text fill="#000000" font-family="sans-serif" font-size="14" lengthAdjust="spacing" textLength="84" x="29" y="178.0732">build() : void</text><ellipse cx="20" cy="191.0234" fill="#84BE84" rx="3" ry="3" style="stroke:#038048;stroke-width:1.0;"/><text fill="#000000" font-family="sans-serif" font-size="14" lengthAdjust="spacing" textLength="484" x="29" y="194.3701">changeProperty(propertyName: string, propertyValue: unknown) : void</text><ellipse cx="20" cy="207.3203" fill="#84BE84" rx="3" ry="3" style="stroke:#038048;stroke-width:1.0;"/><text fill="#000000" font-family="sans-serif" font-size="14" lengthAdjust="spacing" textLength="241" x="29" y="210.667">checkAddedProviderEvents() : void</text><ellipse cx="20" cy="223.6172" fill="#84BE84" rx="3" ry="3" style="stroke:#038048;stroke-width:1.0;"/><text fill="#000000" font-family="sans-serif" font-size="14" lengthAdjust="spacing" textLength="253" x="29" y="226.9639">checkPendingProviderEvents() : void</text><ellipse cx="20" cy="239.9141" fill="#84BE84" rx="3" ry="3" style="stroke:#038048;stroke-width:1.0;"/><text fill="#000000" font-family="sans-serif" font-size="14" lengthAdjust="spacing" textLength="106" x="29" y="243.2607">dispose() : void</text><ellipse cx="20" cy="256.2109" fill="#84BE84" rx="3" ry="3" style="stroke:#038048;stroke-width:1.0;"/><text fill="#000000" font-family="sans-serif" font-size="14" lengthAdjust="spacing" textLength="267" x="29" y="259.5576">equalsToID(patternId: string) : boolean</text><ellipse cx="20" cy="272.5078" fill="#84BE84" rx="3" ry="3" style="stroke:#038048;stroke-width:1.0;"/><text fill="#000000" font-family="sans-serif" font-size="14" lengthAdjust="spacing" textLength="434" x="29" y="275.8545">registerCallback(eventName: string, callback: OSGeneric) : void</text><ellipse cx="20" cy="288.8047" fill="#84BE84" rx="3" ry="3" style="stroke:#038048;stroke-width:1.0;"/><text fill="#000000" font-family="sans-serif" font-size="14" lengthAdjust="spacing" textLength="362" x="29" y="292.1514">setProviderConfigs(providerConfigs: unknown) : void</text><ellipse cx="20" cy="305.1016" fill="#84BE84" rx="3" ry="3" style="stroke:#038048;stroke-width:1.0;"/><text fill="#000000" font-family="sans-serif" font-size="14" lengthAdjust="spacing" textLength="681" x="29" y="308.4482">setProviderEvent(eventName: string, callback: Generic, uniqueId: string, saveEvent: boolean) : void</text><ellipse cx="20" cy="321.3984" fill="#84BE84" rx="3" ry="3" style="stroke:#038048;stroke-width:1.0;"/><text fill="#000000" font-family="sans-serif" font-size="14" lengthAdjust="spacing" textLength="285" x="29" y="324.7451">unsetProviderEvent(eventId: string) : void</text><ellipse cx="20" cy="337.6953" fill="#84BE84" rx="3" ry="3" style="stroke:#038048;stroke-width:1.0;"/><text fill="#000000" font-family="sans-serif" font-size="14" lengthAdjust="spacing" textLength="374" x="29" y="341.042">updateProviderEvents(providerInfo: ProviderInfo) : void</text><polygon fill="#FFFF44" points="20,348.9922,24,352.9922,20,356.9922,16,352.9922" style="stroke:#B38D22;stroke-width:1.0;"/><text fill="#000000" font-family="sans-serif" font-size="14" lengthAdjust="spacing" textLength="121" x="29" y="357.3389">finishBuild() : void</text><polygon fill="#FFFF44" points="20,365.2891,24,369.2891,20,373.2891,16,369.2891" style="stroke:#B38D22;stroke-width:1.0;"/><text fill="#000000" font-family="sans-serif" font-size="14" font-style="italic" lengthAdjust="spacing" textLength="157" x="29" y="373.6357">prepareConfigs() : void</text><polygon fill="#FFFF44" points="20,381.5859,24,385.5859,20,389.5859,16,385.5859" style="stroke:#B38D22;stroke-width:1.0;"/><text fill="#000000" font-family="sans-serif" font-size="14" lengthAdjust="spacing" textLength="98" x="29" y="389.9326">redraw() : void</text><polygon fill="#FFFF44" points="20,397.8828,24,401.8828,20,405.8828,16,401.8828" style="stroke:#B38D22;stroke-width:1.0;"/><text fill="#000000" font-family="sans-serif" font-size="14" font-style="italic" lengthAdjust="spacing" textLength="179" x="29" y="406.2295">setA11YProperties() : void</text><polygon fill="#FFFF44" points="20,414.1797,24,418.1797,20,422.1797,16,418.1797" style="stroke:#B38D22;stroke-width:1.0;"/><text fill="#000000" font-family="sans-serif" font-size="14" font-style="italic" lengthAdjust="spacing" textLength="137" x="29" y="422.5264">setCallbacks() : void</text><polygon fill="#FFFF44" points="20,430.4766,24,434.4766,20,438.4766,16,434.4766" style="stroke:#B38D22;stroke-width:1.0;"/><text fill="#000000" font-family="sans-serif" font-size="14" font-style="italic" lengthAdjust="spacing" textLength="169" x="29" y="438.8232">setHtmlElements() : void</text><polygon fill="#FFFF44" points="20,446.7734,24,450.7734,20,454.7734,16,450.7734" style="stroke:#B38D22;stroke-width:1.0;"/><text fill="#000000" font-family="sans-serif" font-size="14" lengthAdjust="spacing" textLength="569" x="29" y="455.1201">triggerPlatformEventCallback(platFormCallback: OSGeneric, args: unknown[]) : void</text><polygon fill="#FFFF44" points="20,463.0703,24,467.0703,20,471.0703,16,467.0703" style="stroke:#B38D22;stroke-width:1.0;"/><text fill="#000000" font-family="sans-serif" font-size="14" lengthAdjust="spacing" textLength="311" x="29" y="471.417">triggerPlatformInitializedEventCallback() : void</text><polygon fill="#FFFF44" points="20,479.3672,24,483.3672,20,487.3672,16,483.3672" style="stroke:#B38D22;stroke-width:1.0;"/><text fill="#000000" font-family="sans-serif" font-size="14" lengthAdjust="spacing" textLength="156" x="29" y="487.7139">unsetCallbacks() : void</text><polygon fill="#FFFF44" points="20,495.6641,24,499.6641,20,503.6641,16,499.6641" style="stroke:#B38D22;stroke-width:1.0;"/><text fill="#000000" font-family="sans-serif" font-size="14" lengthAdjust="spacing" textLength="199" x="29" y="504.0107">unsetGlobalCallbacks() : void</text><polygon fill="#FFFF44" points="20,511.9609,24,515.9609,20,519.9609,16,515.9609" style="stroke:#B38D22;stroke-width:1.0;"/><text fill="#000000" font-family="sans-serif" font-size="14" font-style="italic" lengthAdjust="spacing" textLength="187" x="29" y="520.3076">unsetHtmlElements() : void</text><rect fill="#F24D5C" height="6" style="stroke:#C82930;stroke-width:1.0;" width="6" x="17" y="530.2578"/><text fill="#000000" font-family="sans-serif" font-size="14" lengthAdjust="spacing" textLength="155" x="29" y="536.6045">_cancelRedraw() : void</text><rect fill="#F24D5C" height="6" style="stroke:#C82930;stroke-width:1.0;" width="6" x="17" y="546.5547"/><text fill="#000000" font-family="sans-serif" font-size="14" lengthAdjust="spacing" textLength="398" x="29" y="552.9014">_getEventIndexFromArray(event: IProviderEvent) : number</text><rect fill="#F24D5C" height="6" style="stroke:#C82930;stroke-width:1.0;" width="6" x="17" y="562.8516"/><text fill="#000000" font-family="sans-serif" font-size="14" lengthAdjust="spacing" textLength="774" x="29" y="569.1982">_handleProviderEventsAPI(eventName: string, callback: Generic, addEvent: boolean, event: IProviderEvent) : void</text><rect fill="#F24D5C" height="6" style="stroke:#C82930;stroke-width:1.0;" width="6" x="17" y="579.1484"/><text fill="#000000" font-family="sans-serif" font-size="14" lengthAdjust="spacing" textLength="157" x="29" y="585.4951">_handleRedraw() : void</text></g><!--class IDatePicker--><g id="elem_IDatePicker"><rect codeLine="77" fill="#FFFFFF" height="373.9375" id="IDatePicker" rx="2.5" ry="2.5" style="stroke:#272B30;stroke-width:0.5;" width="563" x="844.5" y="113"/><ellipse cx="1082.75" cy="129" fill="#B4A7E5" rx="11" ry="11" style="stroke:#181818;stroke-width:1.0;"/><path d="M1078.6719,124.7656 L1078.6719,122.6094 L1086.0625,122.6094 L1086.0625,124.7656 L1083.5938,124.7656 L1083.5938,132.8438 L1086.0625,132.8438 L1086.0625,135 L1078.6719,135 L1078.6719,132.8438 L1081.1406,132.8438 L1081.1406,124.7656 L1078.6719,124.7656 Z " fill="#000000"/><text fill="#000000" font-family="sans-serif" font-size="14" font-style="italic" lengthAdjust="spacing" textLength="78" x="1103.25" y="133.8467">IDatePicker</text><line style="stroke:#272B30;stroke-width:0.5;" x1="845.5" x2="1406.5" y1="145" y2="145"/><ellipse cx="855.5" cy="158.6484" fill="none" rx="3" ry="3" style="stroke:#038048;stroke-width:1.0;"/><text fill="#000000" font-family="sans-serif" font-size="14" lengthAdjust="spacing" textLength="110" x="864.5" y="161.9951">isBuilt : boolean</text><ellipse cx="855.5" cy="174.9453" fill="none" rx="3" ry="3" style="stroke:#038048;stroke-width:1.0;"/><text fill="#000000" font-family="sans-serif" font-size="14" lengthAdjust="spacing" textLength="189" x="864.5" y="178.292">selfElement : HTMLElement</text><ellipse cx="855.5" cy="191.2422" fill="none" rx="3" ry="3" style="stroke:#038048;stroke-width:1.0;"/><text fill="#000000" font-family="sans-serif" font-size="14" lengthAdjust="spacing" textLength="112" x="864.5" y="194.5889">uniqueId : string</text><ellipse cx="855.5" cy="207.5391" fill="none" rx="3" ry="3" style="stroke:#038048;stroke-width:1.0;"/><text fill="#000000" font-family="sans-serif" font-size="14" lengthAdjust="spacing" textLength="110" x="864.5" y="210.8857">widgetId : string</text><line style="stroke:#272B30;stroke-width:0.5;" x1="845.5" x2="1406.5" y1="218.1875" y2="218.1875"/><ellipse cx="855.5" cy="231.8359" fill="#84BE84" rx="3" ry="3" style="stroke:#038048;stroke-width:1.0;"/><text fill="#000000" font-family="sans-serif" font-size="14" lengthAdjust="spacing" textLength="84" x="864.5" y="235.1826">build() : void</text><ellipse cx="855.5" cy="248.1328" fill="#84BE84" rx="3" ry="3" style="stroke:#038048;stroke-width:1.0;"/><text fill="#000000" font-family="sans-serif" font-size="14" lengthAdjust="spacing" textLength="484" x="864.5" y="251.4795">changeProperty(propertyName: string, propertyValue: unknown) : void</text><ellipse cx="855.5" cy="264.4297" fill="#84BE84" rx="3" ry="3" style="stroke:#038048;stroke-width:1.0;"/><text fill="#000000" font-family="sans-serif" font-size="14" lengthAdjust="spacing" textLength="84" x="864.5" y="267.7764">clear() : void</text><ellipse cx="855.5" cy="280.7266" fill="#84BE84" rx="3" ry="3" style="stroke:#038048;stroke-width:1.0;"/><text fill="#000000" font-family="sans-serif" font-size="14" lengthAdjust="spacing" textLength="88" x="864.5" y="284.0732">close() : void</text><ellipse cx="855.5" cy="297.0234" fill="#84BE84" rx="3" ry="3" style="stroke:#038048;stroke-width:1.0;"/><text fill="#000000" font-family="sans-serif" font-size="14" lengthAdjust="spacing" textLength="275" x="864.5" y="300.3701">disableDays(disableDays: string[]) : void</text><ellipse cx="855.5" cy="313.3203" fill="#84BE84" rx="3" ry="3" style="stroke:#038048;stroke-width:1.0;"/><text fill="#000000" font-family="sans-serif" font-size="14" lengthAdjust="spacing" textLength="329" x="864.5" y="316.667">disableWeekDays(disableDays: number[]) : void</text><ellipse cx="855.5" cy="329.6172" fill="#84BE84" rx="3" ry="3" style="stroke:#038048;stroke-width:1.0;"/><text fill="#000000" font-family="sans-serif" font-size="14" lengthAdjust="spacing" textLength="106" x="864.5" y="332.9639">dispose() : void</text><ellipse cx="855.5" cy="345.9141" fill="#84BE84" rx="3" ry="3" style="stroke:#038048;stroke-width:1.0;"/><text fill="#000000" font-family="sans-serif" font-size="14" lengthAdjust="spacing" textLength="217" x="864.5" y="349.2607">equalsToID(id: string) : boolean</text><ellipse cx="855.5" cy="362.2109" fill="#84BE84" rx="3" ry="3" style="stroke:#038048;stroke-width:1.0;"/><text fill="#000000" font-family="sans-serif" font-size="14" lengthAdjust="spacing" textLength="87" x="864.5" y="365.5576">open() : void</text><ellipse cx="855.5" cy="378.5078" fill="#84BE84" rx="3" ry="3" style="stroke:#038048;stroke-width:1.0;"/><text fill="#000000" font-family="sans-serif" font-size="14" lengthAdjust="spacing" textLength="434" x="864.5" y="381.8545">registerCallback(eventName: string, callback: OSGeneric) : void</text><ellipse cx="855.5" cy="394.8047" fill="#84BE84" rx="3" ry="3" style="stroke:#038048;stroke-width:1.0;"/><text fill="#000000" font-family="sans-serif" font-size="14" lengthAdjust="spacing" textLength="225" x="864.5" y="398.1514">setLanguage(value: string) : void</text><ellipse cx="855.5" cy="411.1016" fill="#84BE84" rx="3" ry="3" style="stroke:#038048;stroke-width:1.0;"/><text fill="#000000" font-family="sans-serif" font-size="14" lengthAdjust="spacing" textLength="322" x="864.5" y="414.4482">setProviderConfigs(providerConfigs: any) : void</text><ellipse cx="855.5" cy="427.3984" fill="#84BE84" rx="3" ry="3" style="stroke:#038048;stroke-width:1.0;"/><text fill="#000000" font-family="sans-serif" font-size="14" lengthAdjust="spacing" textLength="537" x="864.5" y="430.7451">setProviderEvent(eventName: string, callback: Generic, uniqueId: string) : void</text><ellipse cx="855.5" cy="443.6953" fill="#84BE84" rx="3" ry="3" style="stroke:#038048;stroke-width:1.0;"/><text fill="#000000" font-family="sans-serif" font-size="14" lengthAdjust="spacing" textLength="285" x="864.5" y="447.042">unsetProviderEvent(eventId: string) : void</text><ellipse cx="855.5" cy="459.9922" fill="#84BE84" rx="3" ry="3" style="stroke:#038048;stroke-width:1.0;"/><text fill="#000000" font-family="sans-serif" font-size="14" lengthAdjust="spacing" textLength="351" x="864.5" y="463.3389">updateInitialDate(date1: string, date2: string) : void</text><ellipse cx="855.5" cy="476.2891" fill="#84BE84" rx="3" ry="3" style="stroke:#038048;stroke-width:1.0;"/><text fill="#000000" font-family="sans-serif" font-size="14" lengthAdjust="spacing" textLength="311" x="864.5" y="479.6357">updatePrompt(promptMessage: string) : void</text></g><!--class AbstractFlatpickr<C>--><g id="elem_AbstractFlatpickr&lt;C&gt;"><rect codeLine="100" fill="#FFFFFF" height="976.9219" id="AbstractFlatpickr&lt;C&gt;" rx="2.5" ry="2.5" style="stroke:#272B30;stroke-width:0.5;" width="707" x="413.5" y="1282"/><ellipse cx="688.75" cy="1298" fill="#A9DCDF" rx="11" ry="11" style="stroke:#181818;stroke-width:1.0;"/><path d="M688.8594,1293.3438 L687.7031,1298.4219 L690.0313,1298.4219 L688.8594,1293.3438 Z M687.375,1291.1094 L690.3594,1291.1094 L693.7188,1303.5 L691.2656,1303.5 L690.5,1300.4375 L687.2188,1300.4375 L686.4688,1303.5 L684.0313,1303.5 L687.375,1291.1094 Z " fill="#000000"/><text fill="#000000" font-family="sans-serif" font-size="14" font-style="italic" lengthAdjust="spacing" textLength="148" x="709.25" y="1302.8467">AbstractFlatpickr&lt;C&gt;</text><line style="stroke:#272B30;stroke-width:0.5;" x1="414.5" x2="1119.5" y1="1314" y2="1314"/><ellipse cx="424.5" cy="1327.6484" fill="none" rx="3" ry="3" style="stroke:#038048;stroke-width:1.0;"/><text fill="#000000" font-family="sans-serif" font-size="14" lengthAdjust="spacing" textLength="205" x="433.5" y="1330.9951">onCloseCustomCallback : any</text><polygon fill="none" points="424.5,1338.9453,428.5,1342.9453,424.5,1346.9453,420.5,1342.9453" style="stroke:#B38D22;stroke-width:1.0;"/><text fill="#000000" font-family="sans-serif" font-size="14" lengthAdjust="spacing" textLength="341" x="433.5" y="1347.292">datePickerPlatformInputElem : HTMLInputElement</text><polygon fill="none" points="424.5,1355.2422,428.5,1359.2422,424.5,1363.2422,420.5,1359.2422" style="stroke:#B38D22;stroke-width:1.0;"/><text fill="#000000" font-family="sans-serif" font-size="14" lengthAdjust="spacing" textLength="265" x="433.5" y="1363.5889">flatpickrInputElem : HTMLInputElement</text><polygon fill="none" points="424.5,1371.5391,428.5,1375.5391,424.5,1379.5391,420.5,1375.5391" style="stroke:#B38D22;stroke-width:1.0;"/><text fill="#000000" font-family="sans-serif" font-size="14" lengthAdjust="spacing" textLength="210" x="433.5" y="1379.8857">flatpickrOpts : FlatpickrOptions</text><polygon fill="none" points="424.5,1387.8359,428.5,1391.8359,424.5,1395.8359,420.5,1391.8359" style="stroke:#B38D22;stroke-width:1.0;"/><text fill="#000000" font-family="sans-serif" font-size="14" lengthAdjust="spacing" textLength="180" x="433.5" y="1396.1826">isProviderBased : boolean</text><polygon fill="none" points="424.5,1404.1328,428.5,1408.1328,424.5,1412.1328,420.5,1408.1328" style="stroke:#B38D22;stroke-width:1.0;"/><text fill="#000000" font-family="sans-serif" font-size="14" lengthAdjust="spacing" textLength="321" x="433.5" y="1412.4795">onSelectedCallbackEvent : OSOnChangeEvent</text><polygon fill="none" points="424.5,1420.4297,428.5,1424.4297,424.5,1428.4297,420.5,1424.4297" style="stroke:#B38D22;stroke-width:1.0;"/><text fill="#000000" font-family="sans-serif" font-size="14" lengthAdjust="spacing" textLength="393" x="433.5" y="1428.7764">providerEventsManagerInstance : IProviderEventManager</text><rect fill="none" height="6" style="stroke:#C82930;stroke-width:1.0;" width="6" x="421.5" y="1438.7266"/><text fill="#000000" font-family="sans-serif" font-size="14" lengthAdjust="spacing" textLength="274" x="433.5" y="1445.0732">_a11yInfoContainerElem : HTMLElement</text><rect fill="none" height="6" style="stroke:#C82930;stroke-width:1.0;" width="6" x="421.5" y="1455.0234"/><text fill="#000000" font-family="sans-serif" font-size="14" lengthAdjust="spacing" textLength="385" x="433.5" y="1461.3701">_bodyScrollCommonBehaviour : UpdatePositionOnScroll</text><rect fill="none" height="6" style="stroke:#C82930;stroke-width:1.0;" width="6" x="421.5" y="1471.3203"/><text fill="#000000" font-family="sans-serif" font-size="14" lengthAdjust="spacing" textLength="293" x="433.5" y="1477.667">_providerFocusSpanTarget : HTMLElement</text><rect fill="none" height="6" style="stroke:#C82930;stroke-width:1.0;" width="6" x="421.5" y="1487.6172"/><text fill="#000000" font-family="sans-serif" font-size="14" lengthAdjust="spacing" textLength="234" x="433.5" y="1493.9639">_todayButtonElem : HTMLElement</text><rect fill="none" height="6" style="stroke:#C82930;stroke-width:1.0;" width="6" x="421.5" y="1503.9141"/><text fill="#000000" font-family="sans-serif" font-size="14" lengthAdjust="spacing" textLength="285" x="433.5" y="1510.2607">_zindexCommonBehavior : UpdateZindex</text><line style="stroke:#272B30;stroke-width:0.5;" x1="414.5" x2="1119.5" y1="1517.5625" y2="1517.5625"/><ellipse cx="424.5" cy="1531.2109" fill="#84BE84" rx="3" ry="3" style="stroke:#038048;stroke-width:1.0;"/><text fill="#000000" font-family="sans-serif" font-size="14" lengthAdjust="spacing" textLength="84" x="433.5" y="1534.5576">build() : void</text><ellipse cx="424.5" cy="1547.5078" fill="#84BE84" rx="3" ry="3" style="stroke:#038048;stroke-width:1.0;"/><text fill="#000000" font-family="sans-serif" font-size="14" lengthAdjust="spacing" textLength="484" x="433.5" y="1550.8545">changeProperty(propertyName: string, propertyValue: unknown) : void</text><ellipse cx="424.5" cy="1563.8047" fill="#84BE84" rx="3" ry="3" style="stroke:#038048;stroke-width:1.0;"/><text fill="#000000" font-family="sans-serif" font-size="14" lengthAdjust="spacing" textLength="241" x="433.5" y="1567.1514">checkAddedProviderEvents() : void</text><ellipse cx="424.5" cy="1580.1016" fill="#84BE84" rx="3" ry="3" style="stroke:#038048;stroke-width:1.0;"/><text fill="#000000" font-family="sans-serif" font-size="14" lengthAdjust="spacing" textLength="253" x="433.5" y="1583.4482">checkPendingProviderEvents() : void</text><ellipse cx="424.5" cy="1596.3984" fill="#84BE84" rx="3" ry="3" style="stroke:#038048;stroke-width:1.0;"/><text fill="#000000" font-family="sans-serif" font-size="14" lengthAdjust="spacing" textLength="84" x="433.5" y="1599.7451">clear() : void</text><ellipse cx="424.5" cy="1612.6953" fill="#84BE84" rx="3" ry="3" style="stroke:#038048;stroke-width:1.0;"/><text fill="#000000" font-family="sans-serif" font-size="14" lengthAdjust="spacing" textLength="88" x="433.5" y="1616.042">close() : void</text><ellipse cx="424.5" cy="1628.9922" fill="#84BE84" rx="3" ry="3" style="stroke:#038048;stroke-width:1.0;"/><text fill="#000000" font-family="sans-serif" font-size="14" lengthAdjust="spacing" textLength="275" x="433.5" y="1632.3389">disableDays(disableDays: string[]) : void</text><ellipse cx="424.5" cy="1645.2891" fill="#84BE84" rx="3" ry="3" style="stroke:#038048;stroke-width:1.0;"/><text fill="#000000" font-family="sans-serif" font-size="14" lengthAdjust="spacing" textLength="368" x="433.5" y="1648.6357">disableWeekDays(disableWeekDays: number[]) : void</text><ellipse cx="424.5" cy="1661.5859" fill="#84BE84" rx="3" ry="3" style="stroke:#038048;stroke-width:1.0;"/><text fill="#000000" font-family="sans-serif" font-size="14" lengthAdjust="spacing" textLength="106" x="433.5" y="1664.9326">dispose() : void</text><ellipse cx="424.5" cy="1677.8828" fill="#84BE84" rx="3" ry="3" style="stroke:#038048;stroke-width:1.0;"/><text fill="#000000" font-family="sans-serif" font-size="14" lengthAdjust="spacing" textLength="267" x="433.5" y="1681.2295">equalsToID(patternId: string) : boolean</text><ellipse cx="424.5" cy="1694.1797" fill="#84BE84" rx="3" ry="3" style="stroke:#038048;stroke-width:1.0;"/><text fill="#000000" font-family="sans-serif" font-size="14" lengthAdjust="spacing" textLength="87" x="433.5" y="1697.5264">open() : void</text><ellipse cx="424.5" cy="1710.4766" fill="#84BE84" rx="3" ry="3" style="stroke:#038048;stroke-width:1.0;"/><text fill="#000000" font-family="sans-serif" font-size="14" lengthAdjust="spacing" textLength="434" x="433.5" y="1713.8232">registerCallback(eventName: string, callback: OSGeneric) : void</text><ellipse cx="424.5" cy="1726.7734" fill="#84BE84" rx="3" ry="3" style="stroke:#038048;stroke-width:1.0;"/><text fill="#000000" font-family="sans-serif" font-size="14" lengthAdjust="spacing" textLength="294" x="433.5" y="1730.1201">setEditableInput(isEditable: boolean) : void</text><ellipse cx="424.5" cy="1743.0703" fill="#84BE84" rx="3" ry="3" style="stroke:#038048;stroke-width:1.0;"/><text fill="#000000" font-family="sans-serif" font-size="14" lengthAdjust="spacing" textLength="225" x="433.5" y="1746.417">setLanguage(value: string) : void</text><ellipse cx="424.5" cy="1759.3672" fill="#84BE84" rx="3" ry="3" style="stroke:#038048;stroke-width:1.0;"/><text fill="#000000" font-family="sans-serif" font-size="14" lengthAdjust="spacing" textLength="382" x="433.5" y="1762.7139">setProviderConfigs(newConfigs: FlatpickrOptions) : void</text><ellipse cx="424.5" cy="1775.6641" fill="#84BE84" rx="3" ry="3" style="stroke:#038048;stroke-width:1.0;"/><text fill="#000000" font-family="sans-serif" font-size="14" lengthAdjust="spacing" textLength="681" x="433.5" y="1779.0107">setProviderEvent(eventName: string, callback: Generic, uniqueId: string, saveEvent: boolean) : void</text><ellipse cx="424.5" cy="1791.9609" fill="#84BE84" rx="3" ry="3" style="stroke:#038048;stroke-width:1.0;"/><text fill="#000000" font-family="sans-serif" font-size="14" lengthAdjust="spacing" textLength="285" x="433.5" y="1795.3076">unsetProviderEvent(eventId: string) : void</text><ellipse cx="424.5" cy="1808.2578" fill="#84BE84" rx="3" ry="3" style="stroke:#038048;stroke-width:1.0;"/><text fill="#000000" font-family="sans-serif" font-size="14" font-style="italic" lengthAdjust="spacing" textLength="328" x="433.5" y="1811.6045">updateInitialDate(start: string, end: string) : void</text><ellipse cx="424.5" cy="1824.5547" fill="#84BE84" rx="3" ry="3" style="stroke:#038048;stroke-width:1.0;"/><text fill="#000000" font-family="sans-serif" font-size="14" lengthAdjust="spacing" textLength="311" x="433.5" y="1827.9014">updatePrompt(promptMessage: string) : void</text><ellipse cx="424.5" cy="1840.8516" fill="#84BE84" rx="3" ry="3" style="stroke:#038048;stroke-width:1.0;"/><text fill="#000000" font-family="sans-serif" font-size="14" lengthAdjust="spacing" textLength="374" x="433.5" y="1844.1982">updateProviderEvents(providerInfo: ProviderInfo) : void</text><polygon fill="#FFFF44" points="424.5,1852.1484,428.5,1856.1484,424.5,1860.1484,420.5,1856.1484" style="stroke:#B38D22;stroke-width:1.0;"/><text fill="#000000" font-family="sans-serif" font-size="14" lengthAdjust="spacing" textLength="143" x="433.5" y="1860.4951">addTodayBtn() : void</text><polygon fill="#FFFF44" points="424.5,1868.4453,428.5,1872.4453,424.5,1876.4453,420.5,1872.4453" style="stroke:#B38D22;stroke-width:1.0;"/><text fill="#000000" font-family="sans-serif" font-size="14" lengthAdjust="spacing" textLength="210" x="433.5" y="1876.792">createProviderInstance() : void</text><polygon fill="#FFFF44" points="424.5,1884.7422,428.5,1888.7422,424.5,1892.7422,420.5,1888.7422" style="stroke:#B38D22;stroke-width:1.0;"/><text fill="#000000" font-family="sans-serif" font-size="14" lengthAdjust="spacing" textLength="121" x="433.5" y="1893.0889">finishBuild() : void</text><polygon fill="#FFFF44" points="424.5,1901.0391,428.5,1905.0391,424.5,1909.0391,420.5,1905.0391" style="stroke:#B38D22;stroke-width:1.0;"/><text fill="#000000" font-family="sans-serif" font-size="14" lengthAdjust="spacing" textLength="153" x="433.5" y="1909.3857">jumpIntoToday() : void</text><polygon fill="#FFFF44" points="424.5,1917.3359,428.5,1921.3359,424.5,1925.3359,420.5,1921.3359" style="stroke:#B38D22;stroke-width:1.0;"/><text fill="#000000" font-family="sans-serif" font-size="14" lengthAdjust="spacing" textLength="183" x="433.5" y="1925.6826">onDatePickerClose() : void</text><polygon fill="#FFFF44" points="424.5,1933.6328,428.5,1937.6328,424.5,1941.6328,420.5,1937.6328" style="stroke:#B38D22;stroke-width:1.0;"/><text fill="#000000" font-family="sans-serif" font-size="14" lengthAdjust="spacing" textLength="182" x="433.5" y="1941.9795">onDatePickerOpen() : void</text><polygon fill="#FFFF44" points="424.5,1949.9297,428.5,1953.9297,424.5,1957.9297,420.5,1953.9297" style="stroke:#B38D22;stroke-width:1.0;"/><text fill="#000000" font-family="sans-serif" font-size="14" font-style="italic" lengthAdjust="spacing" textLength="355" x="433.5" y="1958.2764">onDateSelectedEvent(selectedDates: Date[]) : void</text><polygon fill="#FFFF44" points="424.5,1966.2266,428.5,1970.2266,424.5,1974.2266,420.5,1970.2266" style="stroke:#B38D22;stroke-width:1.0;"/><text fill="#000000" font-family="sans-serif" font-size="14" lengthAdjust="spacing" textLength="157" x="433.5" y="1974.5732">prepareConfigs() : void</text><polygon fill="#FFFF44" points="424.5,1982.5234,428.5,1986.5234,424.5,1990.5234,420.5,1986.5234" style="stroke:#B38D22;stroke-width:1.0;"/><text fill="#000000" font-family="sans-serif" font-size="14" lengthAdjust="spacing" textLength="202" x="433.5" y="1990.8701">prepareToAndRedraw() : void</text><polygon fill="#FFFF44" points="424.5,1998.8203,428.5,2002.8203,424.5,2006.8203,420.5,2002.8203" style="stroke:#B38D22;stroke-width:1.0;"/><text fill="#000000" font-family="sans-serif" font-size="14" lengthAdjust="spacing" textLength="98" x="433.5" y="2007.167">redraw() : void</text><polygon fill="#FFFF44" points="424.5,2015.1172,428.5,2019.1172,424.5,2023.1172,420.5,2019.1172" style="stroke:#B38D22;stroke-width:1.0;"/><text fill="#000000" font-family="sans-serif" font-size="14" lengthAdjust="spacing" textLength="180" x="433.5" y="2023.4639">setA11YProperties() : void</text><polygon fill="#FFFF44" points="424.5,2031.4141,428.5,2035.4141,424.5,2039.4141,420.5,2035.4141" style="stroke:#B38D22;stroke-width:1.0;"/><text fill="#000000" font-family="sans-serif" font-size="14" lengthAdjust="spacing" textLength="138" x="433.5" y="2039.7607">setCallbacks() : void</text><polygon fill="#FFFF44" points="424.5,2047.7109,428.5,2051.7109,424.5,2055.7109,420.5,2051.7109" style="stroke:#B38D22;stroke-width:1.0;"/><text fill="#000000" font-family="sans-serif" font-size="14" lengthAdjust="spacing" textLength="169" x="433.5" y="2056.0576">setHtmlElements() : void</text><polygon fill="#FFFF44" points="424.5,2064.0078,428.5,2068.0078,424.5,2072.0078,420.5,2068.0078" style="stroke:#B38D22;stroke-width:1.0;"/><text fill="#000000" font-family="sans-serif" font-size="14" font-style="italic" lengthAdjust="spacing" textLength="282" x="433.5" y="2072.3545">todayBtnClick(event: MouseEvent) : void</text><polygon fill="#FFFF44" points="424.5,2080.3047,428.5,2084.3047,424.5,2088.3047,420.5,2084.3047" style="stroke:#B38D22;stroke-width:1.0;"/><text fill="#000000" font-family="sans-serif" font-size="14" lengthAdjust="spacing" textLength="569" x="433.5" y="2088.6514">triggerPlatformEventCallback(platFormCallback: OSGeneric, args: unknown[]) : void</text><polygon fill="#FFFF44" points="424.5,2096.6016,428.5,2100.6016,424.5,2104.6016,420.5,2100.6016" style="stroke:#B38D22;stroke-width:1.0;"/><text fill="#000000" font-family="sans-serif" font-size="14" lengthAdjust="spacing" textLength="311" x="433.5" y="2104.9482">triggerPlatformInitializedEventCallback() : void</text><polygon fill="#FFFF44" points="424.5,2112.8984,428.5,2116.8984,424.5,2120.8984,420.5,2116.8984" style="stroke:#B38D22;stroke-width:1.0;"/><text fill="#000000" font-family="sans-serif" font-size="14" lengthAdjust="spacing" textLength="156" x="433.5" y="2121.2451">unsetCallbacks() : void</text><polygon fill="#FFFF44" points="424.5,2129.1953,428.5,2133.1953,424.5,2137.1953,420.5,2133.1953" style="stroke:#B38D22;stroke-width:1.0;"/><text fill="#000000" font-family="sans-serif" font-size="14" lengthAdjust="spacing" textLength="199" x="433.5" y="2137.542">unsetGlobalCallbacks() : void</text><polygon fill="#FFFF44" points="424.5,2145.4922,428.5,2149.4922,424.5,2153.4922,420.5,2149.4922" style="stroke:#B38D22;stroke-width:1.0;"/><text fill="#000000" font-family="sans-serif" font-size="14" lengthAdjust="spacing" textLength="187" x="433.5" y="2153.8389">unsetHtmlElements() : void</text><polygon fill="#FFFF44" points="424.5,2161.7891,428.5,2165.7891,424.5,2169.7891,420.5,2165.7891" style="stroke:#B38D22;stroke-width:1.0;"/><text fill="#000000" font-family="sans-serif" font-size="14" font-style="italic" lengthAdjust="spacing" textLength="224" x="433.5" y="2170.1357">updatePlatformInputAttrs() : void</text><rect fill="#F24D5C" height="6" style="stroke:#C82930;stroke-width:1.0;" width="6" x="421.5" y="2180.0859"/><text fill="#000000" font-family="sans-serif" font-size="14" lengthAdjust="spacing" textLength="147" x="433.5" y="2186.4326">_setAttributes() : void</text><rect fill="#F24D5C" height="6" style="stroke:#C82930;stroke-width:1.0;" width="6" x="421.5" y="2196.3828"/><text fill="#000000" font-family="sans-serif" font-size="14" lengthAdjust="spacing" textLength="221" x="433.5" y="2202.7295">_setCalendarCssClasses() : void</text><rect fill="#F24D5C" height="6" style="stroke:#C82930;stroke-width:1.0;" width="6" x="421.5" y="2212.6797"/><text fill="#000000" font-family="sans-serif" font-size="14" lengthAdjust="spacing" textLength="194" x="433.5" y="2219.0264">_setParentMinHeight() : void</text><rect fill="#F24D5C" height="6" style="stroke:#C82930;stroke-width:1.0;" width="6" x="421.5" y="2228.9766"/><text fill="#000000" font-family="sans-serif" font-size="14" lengthAdjust="spacing" textLength="328" x="433.5" y="2235.3232">_todayButtonKeydown(e: KeyboardEvent) : void</text><rect fill="#F24D5C" height="6" style="stroke:#C82930;stroke-width:1.0;" width="6" x="421.5" y="2245.2734"/><text fill="#000000" font-family="sans-serif" font-size="14" lengthAdjust="spacing" textLength="212" x="433.5" y="2251.6201">_unsetParentMinHeight() : void</text></g><!--reverse link AbstractProviderPattern<P, C> to AbstractDatePicker<P, C>--><g id="link_AbstractProviderPattern&lt;P, C&gt;_AbstractDatePicker&lt;P, C&gt;"><path codeLine="76" d="M582.4278,608.851 C593.6378,628.741 596.08,633.08 607.25,652.93 " fill="none" id="AbstractProviderPattern&lt;P, C&gt;-backto-AbstractDatePicker&lt;P, C&gt;" style="stroke:#272B30;stroke-width:1.0;"/><polygon fill="none" points="573.59,593.17,577.2008,611.7969,587.6548,605.9051,573.59,593.17" style="stroke:#272B30;stroke-width:1.0;"/></g><!--reverse link IDatePicker to AbstractDatePicker<P, C>--><g id="link_IDatePicker_AbstractDatePicker&lt;P, C&gt;"><path codeLine="99" d="M1011.8575,503.0527 C982.5875,554.8727 958.97,596.68 927.3,652.74 " fill="none" id="IDatePicker-backto-AbstractDatePicker&lt;P, C&gt;" style="stroke:#272B30;stroke-width:1.0;stroke-dasharray:7.0,7.0;"/><polygon fill="none" points="1020.71,487.38,1006.6332,500.1018,1017.0817,506.0035,1020.71,487.38" style="stroke:#272B30;stroke-width:1.0;"/></g><!--reverse link AbstractDatePicker<P, C> to AbstractFlatpickr<C>--><g id="link_AbstractDatePicker&lt;P, C&gt;_AbstractFlatpickr&lt;C&gt;"><path codeLine="159" d="M767,1240.16 C767,1259.67 767,1261.62 767,1281.8 " fill="none" id="AbstractDatePicker&lt;P, C&gt;-backto-AbstractFlatpickr&lt;C&gt;" style="stroke:#272B30;stroke-width:1.0;"/><polygon fill="none" points="767,1222.16,761,1240.16,773,1240.16,767,1222.16" style="stroke:#272B30;stroke-width:1.0;"/></g><!--SRC=[xLdhJoCt4F_ENs6HBq64Kw6LAY5KAInmH3tAgd2jsgf2tlKaSUErzsnlQEwE__rcNudt2SV1IKVB5sBFm_OyVZEJc0MNCTKq8fwWneorLhUU4agJmS6F1y7ttssPAiUnqWnqFmiD5pEj4iaAjkbqwl0qo26m7nZTcdC61ABOhaW4TgwOSRUc70JkqC1OJKDBmlGaiZqkrYVKWi_31UWZVqIydxR9Xos2VmDkVAsMg4SVKmEC7990AG5KvkIu89ukGLfpGIMTWPv8OwaC0PadlijGq3FHtI3XWWrta6cfECltmZcLCq2P6BHT3UFYmoyqWaE2D-LoDYBbxczK9BYTo8LKjxAk2CB5c35WbGkOOGkR3vAXuZx63wNTxb06Nw_xoCf0DvbnGmC19tHbXily0Vcx_lhxFfdV0HQkd4oY07HDBcME6pVOXNS95UPQJKw6CRKMj9omykITcbFTez7IigPAmumRrE1H8GACnI6a1gkwA2neX-JowZL8q3piV9q1-mQzdc1aL2rIFHRPIWzvIaxvp0pZwheZ51p1pBNzzorkEq9T_5q26okDYA5Bo3IipLKzA97jHrKjtMg396QOW1F9BQSYpSLXkjxVd9qk3nwe1g-0APzQ1_zTW35esNQRhldTm2-jEf5JTKXyPrKH7aovv6P-tCnYvqQ83u2e1QN7gXeqC4rlkuNHdEFz_JyAEE1WUbdBUEpdEhUHE1KGDNDyW0QQ8JhvWjgfqb5cZdMGnxXxXhjUCx97X6ed-ce9MLTRE9c_1rOzeIgL1LF7atBYQw42AXxmweox_TrtdGMXzBkVeyNNgWfxDzIiP3YHInLIonN252cHhc28NV_K864Snu83Aur272-LqeK0alpQLXhYf1hn1KSUg8vML-StLSYUe3myIG5uUN3-FvZ-ry4qnuemnJZnQuitzcvcOBDhJYI3Vy-mFkEyG5TvMDLHSQUEUuWeJDJYQ-nF7XZ_bB5gi8z8vx7EZVD3ww-vsxglJXnztDlhcIwsk4JkASLgi3tPKClwiijDcWgsZZm6nBImEvBEho_U5AioO_CS9wKbykrRpj3mZUtdXUtcaD0s6LJ60UTpnr3Gc0Gg8e-S1tWtqZzJz_-KBJ-LgsUf3qzH2nxLptzE4uzvMCcUeu-lNlLbNLUpTuPm6YEdFjhqUBjAUcd0UecnAd9w7xHu3fnihNy3nt5YqvGiidEzBbDqC2rF-WpMozWQv3fprjWOcWTreafUWO3GRdh2p7jPOtWflIpTivqdQ5ptzrTfOSVGj9HZM3clSn-sTnCejheAjHB2Kr6av37CwPAh96rAt-RULuQdZxoKEL-jKprJOMAkOYgliLY2RJt4AaPNnucrIdPUv3rF2r7b4fix_9aHly4Mz-jYRxb-lkzZdXE6JnctwIkoz1joKwuxUkB70xU4spLcrpFv9NnVWn2XxUPi3DClHlSldogmwRlEOC3MucSGQd3KbWWtVE1GClWdYUA9j2hJNgCfkIayNZFjAlJBHcIxlNREMG9uxY5Jh58AXbBwhpuZz8v91V5QZILhQz9RvwZxXgUUYQb_J79VQmjFUOAN-Nn8BbHYeDcOlwZnwhwPgZ9-vUdWzXjZQtLZ2aiTXliyI2oq4V4gcA9KUyPalxcqClaOA5ZbkJm7FflREeTJON-65KDp3Z69yMEWg6PjqrIEE5rQdQcg-NDCTQ2gD6oV0000]--></g></svg>