<?xml version="1.0" encoding="us-ascii" standalone="no"?><svg xmlns="http://www.w3.org/2000/svg" xmlns:xlink="http://www.w3.org/1999/xlink" contentStyleType="text/css" height="2118px" preserveAspectRatio="none" style="width:1414px;height:2118px;background:#CED4DA;" version="1.1" viewBox="0 0 1414 2118" width="1414px" zoomAndPan="magnify"><defs/><g><rect fill="#CED4DA" height="2118" style="stroke:none;stroke-width:1.0;" width="1414" x="0" y="0"/><!--class AbstractCarousel<P, C>--><g id="elem_AbstractCarousel&lt;P, C&gt;"><rect codeLine="7" fill="#FFFFFF" height="553.2031" id="AbstractCarousel&lt;P, C&gt;" rx="2.5" ry="2.5" style="stroke:#272B30;stroke-width:0.5;" width="707" x="413.5" y="636"/><ellipse cx="679.25" cy="652" fill="#A9DCDF" rx="11" ry="11" style="stroke:#181818;stroke-width:1.0;"/><path d="M679.3594,647.3438 L678.2031,652.4219 L680.5313,652.4219 L679.3594,647.3438 Z M677.875,645.1094 L680.8594,645.1094 L684.2188,657.5 L681.7656,657.5 L681,654.4375 L677.7188,654.4375 L676.9688,657.5 L674.5313,657.5 L677.875,645.1094 Z " fill="#000000"/><text fill="#000000" font-family="sans-serif" font-size="14" font-style="italic" lengthAdjust="spacing" textLength="167" x="699.75" y="656.8467">AbstractCarousel&lt;P, C&gt;</text><line style="stroke:#272B30;stroke-width:0.5;" x1="414.5" x2="1119.5" y1="668" y2="668"/><polygon fill="none" points="424.5,676.6484,428.5,680.6484,424.5,684.6484,420.5,680.6484" style="stroke:#B38D22;stroke-width:1.0;"/><text fill="#000000" font-family="sans-serif" font-size="14" lengthAdjust="spacing" textLength="180" x="433.5" y="684.9951">isProviderBased : boolean</text><polygon fill="none" points="424.5,692.9453,428.5,696.9453,424.5,700.9453,420.5,696.9453" style="stroke:#B38D22;stroke-width:1.0;"/><text fill="#000000" font-family="sans-serif" font-size="14" lengthAdjust="spacing" textLength="393" x="433.5" y="701.292">providerEventsManagerInstance : IProviderEventManager</text><line style="stroke:#272B30;stroke-width:0.5;" x1="414.5" x2="1119.5" y1="708.5938" y2="708.5938"/><ellipse cx="424.5" cy="722.2422" fill="#84BE84" rx="3" ry="3" style="stroke:#038048;stroke-width:1.0;"/><text fill="#000000" font-family="sans-serif" font-size="14" lengthAdjust="spacing" textLength="84" x="433.5" y="725.5889">build() : void</text><ellipse cx="424.5" cy="738.5391" fill="#84BE84" rx="3" ry="3" style="stroke:#038048;stroke-width:1.0;"/><text fill="#000000" font-family="sans-serif" font-size="14" lengthAdjust="spacing" textLength="484" x="433.5" y="741.8857">changeProperty(propertyName: string, propertyValue: unknown) : void</text><ellipse cx="424.5" cy="754.8359" fill="#84BE84" rx="3" ry="3" style="stroke:#038048;stroke-width:1.0;"/><text fill="#000000" font-family="sans-serif" font-size="14" lengthAdjust="spacing" textLength="241" x="433.5" y="758.1826">checkAddedProviderEvents() : void</text><ellipse cx="424.5" cy="771.1328" fill="#84BE84" rx="3" ry="3" style="stroke:#038048;stroke-width:1.0;"/><text fill="#000000" font-family="sans-serif" font-size="14" lengthAdjust="spacing" textLength="253" x="433.5" y="774.4795">checkPendingProviderEvents() : void</text><ellipse cx="424.5" cy="787.4297" fill="#84BE84" rx="3" ry="3" style="stroke:#038048;stroke-width:1.0;"/><text fill="#000000" font-family="sans-serif" font-size="14" lengthAdjust="spacing" textLength="106" x="433.5" y="790.7764">dispose() : void</text><ellipse cx="424.5" cy="803.7266" fill="#84BE84" rx="3" ry="3" style="stroke:#038048;stroke-width:1.0;"/><text fill="#000000" font-family="sans-serif" font-size="14" lengthAdjust="spacing" textLength="267" x="433.5" y="807.0732">equalsToID(patternId: string) : boolean</text><ellipse cx="424.5" cy="820.0234" fill="#84BE84" rx="3" ry="3" style="stroke:#038048;stroke-width:1.0;"/><text fill="#000000" font-family="sans-serif" font-size="14" font-style="italic" lengthAdjust="spacing" textLength="189" x="433.5" y="823.3701">goTo(index: number) : void</text><ellipse cx="424.5" cy="836.3203" fill="#84BE84" rx="3" ry="3" style="stroke:#038048;stroke-width:1.0;"/><text fill="#000000" font-family="sans-serif" font-size="14" font-style="italic" lengthAdjust="spacing" textLength="83" x="433.5" y="839.667">next() : void</text><ellipse cx="424.5" cy="852.6172" fill="#84BE84" rx="3" ry="3" style="stroke:#038048;stroke-width:1.0;"/><text fill="#000000" font-family="sans-serif" font-size="14" font-style="italic" lengthAdjust="spacing" textLength="111" x="433.5" y="855.9639">previous() : void</text><ellipse cx="424.5" cy="868.9141" fill="#84BE84" rx="3" ry="3" style="stroke:#038048;stroke-width:1.0;"/><text fill="#000000" font-family="sans-serif" font-size="14" lengthAdjust="spacing" textLength="434" x="433.5" y="872.2607">registerCallback(eventName: string, callback: OSGeneric) : void</text><ellipse cx="424.5" cy="885.2109" fill="#84BE84" rx="3" ry="3" style="stroke:#038048;stroke-width:1.0;"/><text fill="#000000" font-family="sans-serif" font-size="14" font-style="italic" lengthAdjust="spacing" textLength="302" x="433.5" y="888.5576">setCarouselDirection(direction: string) : void</text><ellipse cx="424.5" cy="901.5078" fill="#84BE84" rx="3" ry="3" style="stroke:#038048;stroke-width:1.0;"/><text fill="#000000" font-family="sans-serif" font-size="14" lengthAdjust="spacing" textLength="362" x="433.5" y="904.8545">setProviderConfigs(providerConfigs: unknown) : void</text><ellipse cx="424.5" cy="917.8047" fill="#84BE84" rx="3" ry="3" style="stroke:#038048;stroke-width:1.0;"/><text fill="#000000" font-family="sans-serif" font-size="14" lengthAdjust="spacing" textLength="681" x="433.5" y="921.1514">setProviderEvent(eventName: string, callback: Generic, uniqueId: string, saveEvent: boolean) : void</text><ellipse cx="424.5" cy="934.1016" fill="#84BE84" rx="3" ry="3" style="stroke:#038048;stroke-width:1.0;"/><text fill="#000000" font-family="sans-serif" font-size="14" font-style="italic" lengthAdjust="spacing" textLength="251" x="433.5" y="937.4482">toggleDrag(hasDrag: boolean) : void</text><ellipse cx="424.5" cy="950.3984" fill="#84BE84" rx="3" ry="3" style="stroke:#038048;stroke-width:1.0;"/><text fill="#000000" font-family="sans-serif" font-size="14" font-style="italic" lengthAdjust="spacing" textLength="340" x="433.5" y="953.7451">toggleOnRender(blockOnRender: boolean) : void</text><ellipse cx="424.5" cy="966.6953" fill="#84BE84" rx="3" ry="3" style="stroke:#038048;stroke-width:1.0;"/><text fill="#000000" font-family="sans-serif" font-size="14" lengthAdjust="spacing" textLength="285" x="433.5" y="970.042">unsetProviderEvent(eventId: string) : void</text><ellipse cx="424.5" cy="982.9922" fill="#84BE84" rx="3" ry="3" style="stroke:#038048;stroke-width:1.0;"/><text fill="#000000" font-family="sans-serif" font-size="14" font-style="italic" lengthAdjust="spacing" textLength="172" x="433.5" y="986.3389">updateOnRender() : void</text><ellipse cx="424.5" cy="999.2891" fill="#84BE84" rx="3" ry="3" style="stroke:#038048;stroke-width:1.0;"/><text fill="#000000" font-family="sans-serif" font-size="14" lengthAdjust="spacing" textLength="374" x="433.5" y="1002.6357">updateProviderEvents(providerInfo: ProviderInfo) : void</text><polygon fill="#FFFF44" points="424.5,1010.5859,428.5,1014.5859,424.5,1018.5859,420.5,1014.5859" style="stroke:#B38D22;stroke-width:1.0;"/><text fill="#000000" font-family="sans-serif" font-size="14" lengthAdjust="spacing" textLength="121" x="433.5" y="1018.9326">finishBuild() : void</text><polygon fill="#FFFF44" points="424.5,1026.8828,428.5,1030.8828,424.5,1034.8828,420.5,1030.8828" style="stroke:#B38D22;stroke-width:1.0;"/><text fill="#000000" font-family="sans-serif" font-size="14" font-style="italic" lengthAdjust="spacing" textLength="157" x="433.5" y="1035.2295">prepareConfigs() : void</text><polygon fill="#FFFF44" points="424.5,1043.1797,428.5,1047.1797,424.5,1051.1797,420.5,1047.1797" style="stroke:#B38D22;stroke-width:1.0;"/><text fill="#000000" font-family="sans-serif" font-size="14" lengthAdjust="spacing" textLength="98" x="433.5" y="1051.5264">redraw() : void</text><polygon fill="#FFFF44" points="424.5,1059.4766,428.5,1063.4766,424.5,1067.4766,420.5,1063.4766" style="stroke:#B38D22;stroke-width:1.0;"/><text fill="#000000" font-family="sans-serif" font-size="14" font-style="italic" lengthAdjust="spacing" textLength="179" x="433.5" y="1067.8232">setA11YProperties() : void</text><polygon fill="#FFFF44" points="424.5,1075.7734,428.5,1079.7734,424.5,1083.7734,420.5,1079.7734" style="stroke:#B38D22;stroke-width:1.0;"/><text fill="#000000" font-family="sans-serif" font-size="14" font-style="italic" lengthAdjust="spacing" textLength="137" x="433.5" y="1084.1201">setCallbacks() : void</text><polygon fill="#FFFF44" points="424.5,1092.0703,428.5,1096.0703,424.5,1100.0703,420.5,1096.0703" style="stroke:#B38D22;stroke-width:1.0;"/><text fill="#000000" font-family="sans-serif" font-size="14" font-style="italic" lengthAdjust="spacing" textLength="169" x="433.5" y="1100.417">setHtmlElements() : void</text><polygon fill="#FFFF44" points="424.5,1108.3672,428.5,1112.3672,424.5,1116.3672,420.5,1112.3672" style="stroke:#B38D22;stroke-width:1.0;"/><text fill="#000000" font-family="sans-serif" font-size="14" lengthAdjust="spacing" textLength="569" x="433.5" y="1116.7139">triggerPlatformEventCallback(platFormCallback: OSGeneric, args: unknown[]) : void</text><polygon fill="#FFFF44" points="424.5,1124.6641,428.5,1128.6641,424.5,1132.6641,420.5,1128.6641" style="stroke:#B38D22;stroke-width:1.0;"/><text fill="#000000" font-family="sans-serif" font-size="14" lengthAdjust="spacing" textLength="311" x="433.5" y="1133.0107">triggerPlatformInitializedEventCallback() : void</text><polygon fill="#FFFF44" points="424.5,1140.9609,428.5,1144.9609,424.5,1148.9609,420.5,1144.9609" style="stroke:#B38D22;stroke-width:1.0;"/><text fill="#000000" font-family="sans-serif" font-size="14" lengthAdjust="spacing" textLength="156" x="433.5" y="1149.3076">unsetCallbacks() : void</text><polygon fill="#FFFF44" points="424.5,1157.2578,428.5,1161.2578,424.5,1165.2578,420.5,1161.2578" style="stroke:#B38D22;stroke-width:1.0;"/><text fill="#000000" font-family="sans-serif" font-size="14" lengthAdjust="spacing" textLength="199" x="433.5" y="1165.6045">unsetGlobalCallbacks() : void</text><polygon fill="#FFFF44" points="424.5,1173.5547,428.5,1177.5547,424.5,1181.5547,420.5,1177.5547" style="stroke:#B38D22;stroke-width:1.0;"/><text fill="#000000" font-family="sans-serif" font-size="14" font-style="italic" lengthAdjust="spacing" textLength="187" x="433.5" y="1181.9014">unsetHtmlElements() : void</text></g><!--class AbstractProviderPattern<P, C>--><g id="elem_AbstractProviderPattern&lt;P, C&gt;"><rect codeLine="40" fill="#FFFFFF" height="569.5" id="AbstractProviderPattern&lt;P, C&gt;" rx="2.5" ry="2.5" style="stroke:#272B30;stroke-width:0.5;" width="800" x="9" y="7"/><ellipse cx="298.75" cy="23" fill="#A9DCDF" rx="11" ry="11" style="stroke:#181818;stroke-width:1.0;"/><path d="M298.8594,18.3438 L297.7031,23.4219 L300.0313,23.4219 L298.8594,18.3438 Z M297.375,16.1094 L300.3594,16.1094 L303.7188,28.5 L301.2656,28.5 L300.5,25.4375 L297.2188,25.4375 L296.4688,28.5 L294.0313,28.5 L297.375,16.1094 Z " fill="#000000"/><text fill="#000000" font-family="sans-serif" font-size="14" font-style="italic" lengthAdjust="spacing" textLength="212" x="319.25" y="27.8467">AbstractProviderPattern&lt;P, C&gt;</text><line style="stroke:#272B30;stroke-width:0.5;" x1="10" x2="808" y1="39" y2="39"/><polygon fill="none" points="20,47.6484,24,51.6484,20,55.6484,16,51.6484" style="stroke:#B38D22;stroke-width:1.0;"/><text fill="#000000" font-family="sans-serif" font-size="14" lengthAdjust="spacing" textLength="180" x="29" y="55.9951">isProviderBased : boolean</text><polygon fill="none" points="20,63.9453,24,67.9453,20,71.9453,16,67.9453" style="stroke:#B38D22;stroke-width:1.0;"/><text fill="#000000" font-family="sans-serif" font-size="14" lengthAdjust="spacing" textLength="393" x="29" y="72.292">providerEventsManagerInstance : IProviderEventManager</text><rect fill="none" height="6" style="stroke:#C82930;stroke-width:1.0;" width="6" x="17" y="82.2422"/><text fill="#000000" font-family="sans-serif" font-size="14" lengthAdjust="spacing" textLength="196" x="29" y="88.5889">_asyncInvocationId : number</text><rect fill="none" height="6" style="stroke:#C82930;stroke-width:1.0;" width="6" x="17" y="98.5391"/><text fill="#000000" font-family="sans-serif" font-size="14" lengthAdjust="spacing" textLength="405" x="29" y="104.8857">_platformEventProviderConfigsAppliedCallback : OSGeneric</text><rect fill="none" height="6" style="stroke:#C82930;stroke-width:1.0;" width="6" x="17" y="114.8359"/><text fill="#000000" font-family="sans-serif" font-size="14" lengthAdjust="spacing" textLength="85" x="29" y="121.1826">_provider : P</text><rect fill="none" height="6" style="stroke:#C82930;stroke-width:1.0;" width="6" x="17" y="131.1328"/><text fill="#000000" font-family="sans-serif" font-size="14" lengthAdjust="spacing" textLength="182" x="29" y="137.4795">_providerInfo : ProviderInfo</text><line style="stroke:#272B30;stroke-width:0.5;" x1="10" x2="808" y1="144.7813" y2="144.7813"/><ellipse cx="20" cy="158.4297" fill="#84BE84" rx="3" ry="3" style="stroke:#038048;stroke-width:1.0;"/><text fill="#000000" font-family="sans-serif" font-size="14" lengthAdjust="spacing" textLength="84" x="29" y="161.7764">build() : void</text><ellipse cx="20" cy="174.7266" fill="#84BE84" rx="3" ry="3" style="stroke:#038048;stroke-width:1.0;"/><text fill="#000000" font-family="sans-serif" font-size="14" lengthAdjust="spacing" textLength="484" x="29" y="178.0732">changeProperty(propertyName: string, propertyValue: unknown) : void</text><ellipse cx="20" cy="191.0234" fill="#84BE84" rx="3" ry="3" style="stroke:#038048;stroke-width:1.0;"/><text fill="#000000" font-family="sans-serif" font-size="14" lengthAdjust="spacing" textLength="241" x="29" y="194.3701">checkAddedProviderEvents() : void</text><ellipse cx="20" cy="207.3203" fill="#84BE84" rx="3" ry="3" style="stroke:#038048;stroke-width:1.0;"/><text fill="#000000" font-family="sans-serif" font-size="14" lengthAdjust="spacing" textLength="253" x="29" y="210.667">checkPendingProviderEvents() : void</text><ellipse cx="20" cy="223.6172" fill="#84BE84" rx="3" ry="3" style="stroke:#038048;stroke-width:1.0;"/><text fill="#000000" font-family="sans-serif" font-size="14" lengthAdjust="spacing" textLength="106" x="29" y="226.9639">dispose() : void</text><ellipse cx="20" cy="239.9141" fill="#84BE84" rx="3" ry="3" style="stroke:#038048;stroke-width:1.0;"/><text fill="#000000" font-family="sans-serif" font-size="14" lengthAdjust="spacing" textLength="267" x="29" y="243.2607">equalsToID(patternId: string) : boolean</text><ellipse cx="20" cy="256.2109" fill="#84BE84" rx="3" ry="3" style="stroke:#038048;stroke-width:1.0;"/><text fill="#000000" font-family="sans-serif" font-size="14" lengthAdjust="spacing" textLength="434" x="29" y="259.5576">registerCallback(eventName: string, callback: OSGeneric) : void</text><ellipse cx="20" cy="272.5078" fill="#84BE84" rx="3" ry="3" style="stroke:#038048;stroke-width:1.0;"/><text fill="#000000" font-family="sans-serif" font-size="14" lengthAdjust="spacing" textLength="362" x="29" y="275.8545">setProviderConfigs(providerConfigs: unknown) : void</text><ellipse cx="20" cy="288.8047" fill="#84BE84" rx="3" ry="3" style="stroke:#038048;stroke-width:1.0;"/><text fill="#000000" font-family="sans-serif" font-size="14" lengthAdjust="spacing" textLength="681" x="29" y="292.1514">setProviderEvent(eventName: string, callback: Generic, uniqueId: string, saveEvent: boolean) : void</text><ellipse cx="20" cy="305.1016" fill="#84BE84" rx="3" ry="3" style="stroke:#038048;stroke-width:1.0;"/><text fill="#000000" font-family="sans-serif" font-size="14" lengthAdjust="spacing" textLength="285" x="29" y="308.4482">unsetProviderEvent(eventId: string) : void</text><ellipse cx="20" cy="321.3984" fill="#84BE84" rx="3" ry="3" style="stroke:#038048;stroke-width:1.0;"/><text fill="#000000" font-family="sans-serif" font-size="14" lengthAdjust="spacing" textLength="374" x="29" y="324.7451">updateProviderEvents(providerInfo: ProviderInfo) : void</text><polygon fill="#FFFF44" points="20,332.6953,24,336.6953,20,340.6953,16,336.6953" style="stroke:#B38D22;stroke-width:1.0;"/><text fill="#000000" font-family="sans-serif" font-size="14" lengthAdjust="spacing" textLength="121" x="29" y="341.042">finishBuild() : void</text><polygon fill="#FFFF44" points="20,348.9922,24,352.9922,20,356.9922,16,352.9922" style="stroke:#B38D22;stroke-width:1.0;"/><text fill="#000000" font-family="sans-serif" font-size="14" font-style="italic" lengthAdjust="spacing" textLength="157" x="29" y="357.3389">prepareConfigs() : void</text><polygon fill="#FFFF44" points="20,365.2891,24,369.2891,20,373.2891,16,369.2891" style="stroke:#B38D22;stroke-width:1.0;"/><text fill="#000000" font-family="sans-serif" font-size="14" lengthAdjust="spacing" textLength="98" x="29" y="373.6357">redraw() : void</text><polygon fill="#FFFF44" points="20,381.5859,24,385.5859,20,389.5859,16,385.5859" style="stroke:#B38D22;stroke-width:1.0;"/><text fill="#000000" font-family="sans-serif" font-size="14" font-style="italic" lengthAdjust="spacing" textLength="179" x="29" y="389.9326">setA11YProperties() : void</text><polygon fill="#FFFF44" points="20,397.8828,24,401.8828,20,405.8828,16,401.8828" style="stroke:#B38D22;stroke-width:1.0;"/><text fill="#000000" font-family="sans-serif" font-size="14" font-style="italic" lengthAdjust="spacing" textLength="137" x="29" y="406.2295">setCallbacks() : void</text><polygon fill="#FFFF44" points="20,414.1797,24,418.1797,20,422.1797,16,418.1797" style="stroke:#B38D22;stroke-width:1.0;"/><text fill="#000000" font-family="sans-serif" font-size="14" font-style="italic" lengthAdjust="spacing" textLength="169" x="29" y="422.5264">setHtmlElements() : void</text><polygon fill="#FFFF44" points="20,430.4766,24,434.4766,20,438.4766,16,434.4766" style="stroke:#B38D22;stroke-width:1.0;"/><text fill="#000000" font-family="sans-serif" font-size="14" lengthAdjust="spacing" textLength="569" x="29" y="438.8232">triggerPlatformEventCallback(platFormCallback: OSGeneric, args: unknown[]) : void</text><polygon fill="#FFFF44" points="20,446.7734,24,450.7734,20,454.7734,16,450.7734" style="stroke:#B38D22;stroke-width:1.0;"/><text fill="#000000" font-family="sans-serif" font-size="14" lengthAdjust="spacing" textLength="311" x="29" y="455.1201">triggerPlatformInitializedEventCallback() : void</text><polygon fill="#FFFF44" points="20,463.0703,24,467.0703,20,471.0703,16,467.0703" style="stroke:#B38D22;stroke-width:1.0;"/><text fill="#000000" font-family="sans-serif" font-size="14" lengthAdjust="spacing" textLength="156" x="29" y="471.417">unsetCallbacks() : void</text><polygon fill="#FFFF44" points="20,479.3672,24,483.3672,20,487.3672,16,483.3672" style="stroke:#B38D22;stroke-width:1.0;"/><text fill="#000000" font-family="sans-serif" font-size="14" lengthAdjust="spacing" textLength="199" x="29" y="487.7139">unsetGlobalCallbacks() : void</text><polygon fill="#FFFF44" points="20,495.6641,24,499.6641,20,503.6641,16,499.6641" style="stroke:#B38D22;stroke-width:1.0;"/><text fill="#000000" font-family="sans-serif" font-size="14" font-style="italic" lengthAdjust="spacing" textLength="187" x="29" y="504.0107">unsetHtmlElements() : void</text><rect fill="#F24D5C" height="6" style="stroke:#C82930;stroke-width:1.0;" width="6" x="17" y="513.9609"/><text fill="#000000" font-family="sans-serif" font-size="14" lengthAdjust="spacing" textLength="155" x="29" y="520.3076">_cancelRedraw() : void</text><rect fill="#F24D5C" height="6" style="stroke:#C82930;stroke-width:1.0;" width="6" x="17" y="530.2578"/><text fill="#000000" font-family="sans-serif" font-size="14" lengthAdjust="spacing" textLength="398" x="29" y="536.6045">_getEventIndexFromArray(event: IProviderEvent) : number</text><rect fill="#F24D5C" height="6" style="stroke:#C82930;stroke-width:1.0;" width="6" x="17" y="546.5547"/><text fill="#000000" font-family="sans-serif" font-size="14" lengthAdjust="spacing" textLength="774" x="29" y="552.9014">_handleProviderEventsAPI(eventName: string, callback: Generic, addEvent: boolean, event: IProviderEvent) : void</text><rect fill="#F24D5C" height="6" style="stroke:#C82930;stroke-width:1.0;" width="6" x="17" y="562.8516"/><text fill="#000000" font-family="sans-serif" font-size="14" lengthAdjust="spacing" textLength="157" x="29" y="569.1982">_handleRedraw() : void</text></g><!--class ICarousel--><g id="elem_ICarousel"><rect codeLine="75" fill="#FFFFFF" height="357.6406" id="ICarousel" rx="2.5" ry="2.5" style="stroke:#272B30;stroke-width:0.5;" width="563" x="844.5" y="112.5"/><ellipse cx="1089.75" cy="128.5" fill="#B4A7E5" rx="11" ry="11" style="stroke:#181818;stroke-width:1.0;"/><path d="M1085.6719,124.2656 L1085.6719,122.1094 L1093.0625,122.1094 L1093.0625,124.2656 L1090.5938,124.2656 L1090.5938,132.3438 L1093.0625,132.3438 L1093.0625,134.5 L1085.6719,134.5 L1085.6719,132.3438 L1088.1406,132.3438 L1088.1406,124.2656 L1085.6719,124.2656 Z " fill="#000000"/><text fill="#000000" font-family="sans-serif" font-size="14" font-style="italic" lengthAdjust="spacing" textLength="64" x="1110.25" y="133.3467">ICarousel</text><line style="stroke:#272B30;stroke-width:0.5;" x1="845.5" x2="1406.5" y1="144.5" y2="144.5"/><ellipse cx="855.5" cy="158.1484" fill="none" rx="3" ry="3" style="stroke:#038048;stroke-width:1.0;"/><text fill="#000000" font-family="sans-serif" font-size="14" lengthAdjust="spacing" textLength="110" x="864.5" y="161.4951">isBuilt : boolean</text><ellipse cx="855.5" cy="174.4453" fill="none" rx="3" ry="3" style="stroke:#038048;stroke-width:1.0;"/><text fill="#000000" font-family="sans-serif" font-size="14" lengthAdjust="spacing" textLength="189" x="864.5" y="177.792">selfElement : HTMLElement</text><ellipse cx="855.5" cy="190.7422" fill="none" rx="3" ry="3" style="stroke:#038048;stroke-width:1.0;"/><text fill="#000000" font-family="sans-serif" font-size="14" lengthAdjust="spacing" textLength="112" x="864.5" y="194.0889">uniqueId : string</text><ellipse cx="855.5" cy="207.0391" fill="none" rx="3" ry="3" style="stroke:#038048;stroke-width:1.0;"/><text fill="#000000" font-family="sans-serif" font-size="14" lengthAdjust="spacing" textLength="110" x="864.5" y="210.3857">widgetId : string</text><line style="stroke:#272B30;stroke-width:0.5;" x1="845.5" x2="1406.5" y1="217.6875" y2="217.6875"/><ellipse cx="855.5" cy="231.3359" fill="#84BE84" rx="3" ry="3" style="stroke:#038048;stroke-width:1.0;"/><text fill="#000000" font-family="sans-serif" font-size="14" lengthAdjust="spacing" textLength="84" x="864.5" y="234.6826">build() : void</text><ellipse cx="855.5" cy="247.6328" fill="#84BE84" rx="3" ry="3" style="stroke:#038048;stroke-width:1.0;"/><text fill="#000000" font-family="sans-serif" font-size="14" lengthAdjust="spacing" textLength="484" x="864.5" y="250.9795">changeProperty(propertyName: string, propertyValue: unknown) : void</text><ellipse cx="855.5" cy="263.9297" fill="#84BE84" rx="3" ry="3" style="stroke:#038048;stroke-width:1.0;"/><text fill="#000000" font-family="sans-serif" font-size="14" lengthAdjust="spacing" textLength="106" x="864.5" y="267.2764">dispose() : void</text><ellipse cx="855.5" cy="280.2266" fill="#84BE84" rx="3" ry="3" style="stroke:#038048;stroke-width:1.0;"/><text fill="#000000" font-family="sans-serif" font-size="14" lengthAdjust="spacing" textLength="217" x="864.5" y="283.5732">equalsToID(id: string) : boolean</text><ellipse cx="855.5" cy="296.5234" fill="#84BE84" rx="3" ry="3" style="stroke:#038048;stroke-width:1.0;"/><text fill="#000000" font-family="sans-serif" font-size="14" lengthAdjust="spacing" textLength="187" x="864.5" y="299.8701">goTo(index: number) : void</text><ellipse cx="855.5" cy="312.8203" fill="#84BE84" rx="3" ry="3" style="stroke:#038048;stroke-width:1.0;"/><text fill="#000000" font-family="sans-serif" font-size="14" lengthAdjust="spacing" textLength="81" x="864.5" y="316.167">next() : void</text><ellipse cx="855.5" cy="329.1172" fill="#84BE84" rx="3" ry="3" style="stroke:#038048;stroke-width:1.0;"/><text fill="#000000" font-family="sans-serif" font-size="14" lengthAdjust="spacing" textLength="110" x="864.5" y="332.4639">previous() : void</text><ellipse cx="855.5" cy="345.4141" fill="#84BE84" rx="3" ry="3" style="stroke:#038048;stroke-width:1.0;"/><text fill="#000000" font-family="sans-serif" font-size="14" lengthAdjust="spacing" textLength="434" x="864.5" y="348.7607">registerCallback(eventName: string, callback: OSGeneric) : void</text><ellipse cx="855.5" cy="361.7109" fill="#84BE84" rx="3" ry="3" style="stroke:#038048;stroke-width:1.0;"/><text fill="#000000" font-family="sans-serif" font-size="14" lengthAdjust="spacing" textLength="304" x="864.5" y="365.0576">setCarouselDirection(direction: string) : void</text><ellipse cx="855.5" cy="378.0078" fill="#84BE84" rx="3" ry="3" style="stroke:#038048;stroke-width:1.0;"/><text fill="#000000" font-family="sans-serif" font-size="14" lengthAdjust="spacing" textLength="322" x="864.5" y="381.3545">setProviderConfigs(providerConfigs: any) : void</text><ellipse cx="855.5" cy="394.3047" fill="#84BE84" rx="3" ry="3" style="stroke:#038048;stroke-width:1.0;"/><text fill="#000000" font-family="sans-serif" font-size="14" lengthAdjust="spacing" textLength="537" x="864.5" y="397.6514">setProviderEvent(eventName: string, callback: Generic, uniqueId: string) : void</text><ellipse cx="855.5" cy="410.6016" fill="#84BE84" rx="3" ry="3" style="stroke:#038048;stroke-width:1.0;"/><text fill="#000000" font-family="sans-serif" font-size="14" lengthAdjust="spacing" textLength="251" x="864.5" y="413.9482">toggleDrag(hasDrag: boolean) : void</text><ellipse cx="855.5" cy="426.8984" fill="#84BE84" rx="3" ry="3" style="stroke:#038048;stroke-width:1.0;"/><text fill="#000000" font-family="sans-serif" font-size="14" lengthAdjust="spacing" textLength="339" x="864.5" y="430.2451">toggleOnRender(blockOnRender: boolean) : void</text><ellipse cx="855.5" cy="443.1953" fill="#84BE84" rx="3" ry="3" style="stroke:#038048;stroke-width:1.0;"/><text fill="#000000" font-family="sans-serif" font-size="14" lengthAdjust="spacing" textLength="285" x="864.5" y="446.542">unsetProviderEvent(eventId: string) : void</text><ellipse cx="855.5" cy="459.4922" fill="#84BE84" rx="3" ry="3" style="stroke:#038048;stroke-width:1.0;"/><text fill="#000000" font-family="sans-serif" font-size="14" lengthAdjust="spacing" textLength="171" x="864.5" y="462.8389">updateOnRender() : void</text></g><!--class OSUISplide--><g id="elem_OSUISplide"><rect codeLine="97" fill="#FFFFFF" height="862.8438" id="OSUISplide" rx="2.5" ry="2.5" style="stroke:#272B30;stroke-width:0.5;" width="707" x="413.5" y="1249"/><ellipse cx="725.25" cy="1265" fill="#ADD1B2" rx="11" ry="11" style="stroke:#181818;stroke-width:1.0;"/><path d="M728.2188,1270.6406 Q727.6406,1270.9375 727,1271.0781 Q726.3594,1271.2344 725.6563,1271.2344 Q723.1563,1271.2344 721.8281,1269.5938 Q720.5156,1267.9375 720.5156,1264.8125 Q720.5156,1261.6875 721.8281,1260.0313 Q723.1563,1258.375 725.6563,1258.375 Q726.3594,1258.375 727,1258.5313 Q727.6563,1258.6875 728.2188,1258.9844 L728.2188,1261.7031 Q727.5938,1261.125 727,1260.8594 Q726.4063,1260.5781 725.7813,1260.5781 Q724.4375,1260.5781 723.75,1261.6563 Q723.0625,1262.7188 723.0625,1264.8125 Q723.0625,1266.9063 723.75,1267.9844 Q724.4375,1269.0469 725.7813,1269.0469 Q726.4063,1269.0469 727,1268.7813 Q727.5938,1268.5 728.2188,1267.9219 L728.2188,1270.6406 Z " fill="#000000"/><text fill="#000000" font-family="sans-serif" font-size="14" lengthAdjust="spacing" textLength="75" x="745.75" y="1269.8467">OSUISplide</text><line style="stroke:#272B30;stroke-width:0.5;" x1="414.5" x2="1119.5" y1="1281" y2="1281"/><polygon fill="none" points="424.5,1289.6484,428.5,1293.6484,424.5,1297.6484,420.5,1293.6484" style="stroke:#B38D22;stroke-width:1.0;"/><text fill="#000000" font-family="sans-serif" font-size="14" lengthAdjust="spacing" textLength="180" x="433.5" y="1297.9951">isProviderBased : boolean</text><polygon fill="none" points="424.5,1305.9453,428.5,1309.9453,424.5,1313.9453,420.5,1309.9453" style="stroke:#B38D22;stroke-width:1.0;"/><text fill="#000000" font-family="sans-serif" font-size="14" lengthAdjust="spacing" textLength="393" x="433.5" y="1314.292">providerEventsManagerInstance : IProviderEventManager</text><rect fill="none" height="6" style="stroke:#C82930;stroke-width:1.0;" width="6" x="421.5" y="1324.2422"/><text fill="#000000" font-family="sans-serif" font-size="14" lengthAdjust="spacing" textLength="184" x="433.5" y="1330.5889">_blockOnRender : boolean</text><rect fill="none" height="6" style="stroke:#C82930;stroke-width:1.0;" width="6" x="421.5" y="1340.5391"/><text fill="#000000" font-family="sans-serif" font-size="14" lengthAdjust="spacing" textLength="279" x="433.5" y="1346.8857">_carouselListWidgetElem : HTMLElement</text><rect fill="none" height="6" style="stroke:#C82930;stroke-width:1.0;" width="6" x="421.5" y="1356.8359"/><text fill="#000000" font-family="sans-serif" font-size="14" lengthAdjust="spacing" textLength="289" x="433.5" y="1363.1826">_carouselPlaceholderElem : HTMLElement</text><rect fill="none" height="6" style="stroke:#C82930;stroke-width:1.0;" width="6" x="421.5" y="1373.1328"/><text fill="#000000" font-family="sans-serif" font-size="14" lengthAdjust="spacing" textLength="264" x="433.5" y="1379.4795">_carouselProviderElem : HTMLElement</text><rect fill="none" height="6" style="stroke:#C82930;stroke-width:1.0;" width="6" x="421.5" y="1389.4297"/><text fill="#000000" font-family="sans-serif" font-size="14" lengthAdjust="spacing" textLength="246" x="433.5" y="1395.7764">_carouselTrackElem : HTMLElement</text><rect fill="none" height="6" style="stroke:#C82930;stroke-width:1.0;" width="6" x="421.5" y="1405.7266"/><text fill="#000000" font-family="sans-serif" font-size="14" lengthAdjust="spacing" textLength="161" x="433.5" y="1412.0732">_currentIndex : number</text><rect fill="none" height="6" style="stroke:#C82930;stroke-width:1.0;" width="6" x="421.5" y="1422.0234"/><text fill="#000000" font-family="sans-serif" font-size="14" lengthAdjust="spacing" textLength="180" x="433.5" y="1428.3701">_eventOnResize : Generic</text><rect fill="none" height="6" style="stroke:#C82930;stroke-width:1.0;" width="6" x="421.5" y="1438.3203"/><text fill="#000000" font-family="sans-serif" font-size="14" lengthAdjust="spacing" textLength="124" x="433.5" y="1444.667">_hasList : boolean</text><rect fill="none" height="6" style="stroke:#C82930;stroke-width:1.0;" width="6" x="421.5" y="1454.6172"/><text fill="#000000" font-family="sans-serif" font-size="14" lengthAdjust="spacing" textLength="372" x="433.5" y="1460.9639">_platformEventOnSlideMoved : OSOnSlideMovedEvent</text><rect fill="none" height="6" style="stroke:#C82930;stroke-width:1.0;" width="6" x="421.5" y="1470.9141"/><text fill="#000000" font-family="sans-serif" font-size="14" lengthAdjust="spacing" textLength="169" x="433.5" y="1477.2607">_splideOptions : Options</text><line style="stroke:#272B30;stroke-width:0.5;" x1="414.5" x2="1119.5" y1="1484.5625" y2="1484.5625"/><ellipse cx="424.5" cy="1498.2109" fill="#84BE84" rx="3" ry="3" style="stroke:#038048;stroke-width:1.0;"/><text fill="#000000" font-family="sans-serif" font-size="14" lengthAdjust="spacing" textLength="84" x="433.5" y="1501.5576">build() : void</text><ellipse cx="424.5" cy="1514.5078" fill="#84BE84" rx="3" ry="3" style="stroke:#038048;stroke-width:1.0;"/><text fill="#000000" font-family="sans-serif" font-size="14" lengthAdjust="spacing" textLength="484" x="433.5" y="1517.8545">changeProperty(propertyName: string, propertyValue: unknown) : void</text><ellipse cx="424.5" cy="1530.8047" fill="#84BE84" rx="3" ry="3" style="stroke:#038048;stroke-width:1.0;"/><text fill="#000000" font-family="sans-serif" font-size="14" lengthAdjust="spacing" textLength="241" x="433.5" y="1534.1514">checkAddedProviderEvents() : void</text><ellipse cx="424.5" cy="1547.1016" fill="#84BE84" rx="3" ry="3" style="stroke:#038048;stroke-width:1.0;"/><text fill="#000000" font-family="sans-serif" font-size="14" lengthAdjust="spacing" textLength="253" x="433.5" y="1550.4482">checkPendingProviderEvents() : void</text><ellipse cx="424.5" cy="1563.3984" fill="#84BE84" rx="3" ry="3" style="stroke:#038048;stroke-width:1.0;"/><text fill="#000000" font-family="sans-serif" font-size="14" lengthAdjust="spacing" textLength="106" x="433.5" y="1566.7451">dispose() : void</text><ellipse cx="424.5" cy="1579.6953" fill="#84BE84" rx="3" ry="3" style="stroke:#038048;stroke-width:1.0;"/><text fill="#000000" font-family="sans-serif" font-size="14" lengthAdjust="spacing" textLength="267" x="433.5" y="1583.042">equalsToID(patternId: string) : boolean</text><ellipse cx="424.5" cy="1595.9922" fill="#84BE84" rx="3" ry="3" style="stroke:#038048;stroke-width:1.0;"/><text fill="#000000" font-family="sans-serif" font-size="14" lengthAdjust="spacing" textLength="187" x="433.5" y="1599.3389">goTo(index: number) : void</text><ellipse cx="424.5" cy="1612.2891" fill="#84BE84" rx="3" ry="3" style="stroke:#038048;stroke-width:1.0;"/><text fill="#000000" font-family="sans-serif" font-size="14" lengthAdjust="spacing" textLength="81" x="433.5" y="1615.6357">next() : void</text><ellipse cx="424.5" cy="1628.5859" fill="#84BE84" rx="3" ry="3" style="stroke:#038048;stroke-width:1.0;"/><text fill="#000000" font-family="sans-serif" font-size="14" lengthAdjust="spacing" textLength="110" x="433.5" y="1631.9326">previous() : void</text><ellipse cx="424.5" cy="1644.8828" fill="#84BE84" rx="3" ry="3" style="stroke:#038048;stroke-width:1.0;"/><text fill="#000000" font-family="sans-serif" font-size="14" lengthAdjust="spacing" textLength="434" x="433.5" y="1648.2295">registerCallback(eventName: string, callback: OSGeneric) : void</text><ellipse cx="424.5" cy="1661.1797" fill="#84BE84" rx="3" ry="3" style="stroke:#038048;stroke-width:1.0;"/><text fill="#000000" font-family="sans-serif" font-size="14" lengthAdjust="spacing" textLength="304" x="433.5" y="1664.5264">setCarouselDirection(direction: string) : void</text><ellipse cx="424.5" cy="1677.4766" fill="#84BE84" rx="3" ry="3" style="stroke:#038048;stroke-width:1.0;"/><text fill="#000000" font-family="sans-serif" font-size="14" lengthAdjust="spacing" textLength="325" x="433.5" y="1680.8232">setProviderConfigs(newConfigs: Options) : void</text><ellipse cx="424.5" cy="1693.7734" fill="#84BE84" rx="3" ry="3" style="stroke:#038048;stroke-width:1.0;"/><text fill="#000000" font-family="sans-serif" font-size="14" lengthAdjust="spacing" textLength="681" x="433.5" y="1697.1201">setProviderEvent(eventName: string, callback: Generic, uniqueId: string, saveEvent: boolean) : void</text><ellipse cx="424.5" cy="1710.0703" fill="#84BE84" rx="3" ry="3" style="stroke:#038048;stroke-width:1.0;"/><text fill="#000000" font-family="sans-serif" font-size="14" lengthAdjust="spacing" textLength="251" x="433.5" y="1713.417">toggleDrag(hasDrag: boolean) : void</text><ellipse cx="424.5" cy="1726.3672" fill="#84BE84" rx="3" ry="3" style="stroke:#038048;stroke-width:1.0;"/><text fill="#000000" font-family="sans-serif" font-size="14" lengthAdjust="spacing" textLength="339" x="433.5" y="1729.7139">toggleOnRender(blockOnRender: boolean) : void</text><ellipse cx="424.5" cy="1742.6641" fill="#84BE84" rx="3" ry="3" style="stroke:#038048;stroke-width:1.0;"/><text fill="#000000" font-family="sans-serif" font-size="14" lengthAdjust="spacing" textLength="285" x="433.5" y="1746.0107">unsetProviderEvent(eventId: string) : void</text><ellipse cx="424.5" cy="1758.9609" fill="#84BE84" rx="3" ry="3" style="stroke:#038048;stroke-width:1.0;"/><text fill="#000000" font-family="sans-serif" font-size="14" lengthAdjust="spacing" textLength="171" x="433.5" y="1762.3076">updateOnRender() : void</text><ellipse cx="424.5" cy="1775.2578" fill="#84BE84" rx="3" ry="3" style="stroke:#038048;stroke-width:1.0;"/><text fill="#000000" font-family="sans-serif" font-size="14" lengthAdjust="spacing" textLength="374" x="433.5" y="1778.6045">updateProviderEvents(providerInfo: ProviderInfo) : void</text><polygon fill="#FFFF44" points="424.5,1786.5547,428.5,1790.5547,424.5,1794.5547,420.5,1790.5547" style="stroke:#B38D22;stroke-width:1.0;"/><text fill="#000000" font-family="sans-serif" font-size="14" lengthAdjust="spacing" textLength="121" x="433.5" y="1794.9014">finishBuild() : void</text><polygon fill="#FFFF44" points="424.5,1802.8516,428.5,1806.8516,424.5,1810.8516,420.5,1806.8516" style="stroke:#B38D22;stroke-width:1.0;"/><text fill="#000000" font-family="sans-serif" font-size="14" lengthAdjust="spacing" textLength="157" x="433.5" y="1811.1982">prepareConfigs() : void</text><polygon fill="#FFFF44" points="424.5,1819.1484,428.5,1823.1484,424.5,1827.1484,420.5,1823.1484" style="stroke:#B38D22;stroke-width:1.0;"/><text fill="#000000" font-family="sans-serif" font-size="14" lengthAdjust="spacing" textLength="98" x="433.5" y="1827.4951">redraw() : void</text><polygon fill="#FFFF44" points="424.5,1835.4453,428.5,1839.4453,424.5,1843.4453,420.5,1839.4453" style="stroke:#B38D22;stroke-width:1.0;"/><text fill="#000000" font-family="sans-serif" font-size="14" lengthAdjust="spacing" textLength="180" x="433.5" y="1843.792">setA11YProperties() : void</text><polygon fill="#FFFF44" points="424.5,1851.7422,428.5,1855.7422,424.5,1859.7422,420.5,1855.7422" style="stroke:#B38D22;stroke-width:1.0;"/><text fill="#000000" font-family="sans-serif" font-size="14" lengthAdjust="spacing" textLength="138" x="433.5" y="1860.0889">setCallbacks() : void</text><polygon fill="#FFFF44" points="424.5,1868.0391,428.5,1872.0391,424.5,1876.0391,420.5,1872.0391" style="stroke:#B38D22;stroke-width:1.0;"/><text fill="#000000" font-family="sans-serif" font-size="14" lengthAdjust="spacing" textLength="169" x="433.5" y="1876.3857">setHtmlElements() : void</text><polygon fill="#FFFF44" points="424.5,1884.3359,428.5,1888.3359,424.5,1892.3359,420.5,1888.3359" style="stroke:#B38D22;stroke-width:1.0;"/><text fill="#000000" font-family="sans-serif" font-size="14" lengthAdjust="spacing" textLength="187" x="433.5" y="1892.6826">setInitialCssClasses() : void</text><polygon fill="#FFFF44" points="424.5,1900.6328,428.5,1904.6328,424.5,1908.6328,420.5,1904.6328" style="stroke:#B38D22;stroke-width:1.0;"/><text fill="#000000" font-family="sans-serif" font-size="14" lengthAdjust="spacing" textLength="569" x="433.5" y="1908.9795">triggerPlatformEventCallback(platFormCallback: OSGeneric, args: unknown[]) : void</text><polygon fill="#FFFF44" points="424.5,1916.9297,428.5,1920.9297,424.5,1924.9297,420.5,1920.9297" style="stroke:#B38D22;stroke-width:1.0;"/><text fill="#000000" font-family="sans-serif" font-size="14" lengthAdjust="spacing" textLength="311" x="433.5" y="1925.2764">triggerPlatformInitializedEventCallback() : void</text><polygon fill="#FFFF44" points="424.5,1933.2266,428.5,1937.2266,424.5,1941.2266,420.5,1937.2266" style="stroke:#B38D22;stroke-width:1.0;"/><text fill="#000000" font-family="sans-serif" font-size="14" lengthAdjust="spacing" textLength="156" x="433.5" y="1941.5732">unsetCallbacks() : void</text><polygon fill="#FFFF44" points="424.5,1949.5234,428.5,1953.5234,424.5,1957.5234,420.5,1953.5234" style="stroke:#B38D22;stroke-width:1.0;"/><text fill="#000000" font-family="sans-serif" font-size="14" lengthAdjust="spacing" textLength="199" x="433.5" y="1957.8701">unsetGlobalCallbacks() : void</text><polygon fill="#FFFF44" points="424.5,1965.8203,428.5,1969.8203,424.5,1973.8203,420.5,1969.8203" style="stroke:#B38D22;stroke-width:1.0;"/><text fill="#000000" font-family="sans-serif" font-size="14" lengthAdjust="spacing" textLength="187" x="433.5" y="1974.167">unsetHtmlElements() : void</text><rect fill="#F24D5C" height="6" style="stroke:#C82930;stroke-width:1.0;" width="6" x="421.5" y="1984.1172"/><text fill="#000000" font-family="sans-serif" font-size="14" lengthAdjust="spacing" textLength="171" x="433.5" y="1990.4639">_checkListWidget() : void</text><rect fill="#F24D5C" height="6" style="stroke:#C82930;stroke-width:1.0;" width="6" x="421.5" y="2000.4141"/><text fill="#000000" font-family="sans-serif" font-size="14" lengthAdjust="spacing" textLength="134" x="433.5" y="2006.7607">_initProvider() : void</text><rect fill="#F24D5C" height="6" style="stroke:#C82930;stroke-width:1.0;" width="6" x="421.5" y="2016.7109"/><text fill="#000000" font-family="sans-serif" font-size="14" lengthAdjust="spacing" textLength="211" x="433.5" y="2023.0576">_prepareCarouselItems() : void</text><rect fill="#F24D5C" height="6" style="stroke:#C82930;stroke-width:1.0;" width="6" x="421.5" y="2033.0078"/><text fill="#000000" font-family="sans-serif" font-size="14" lengthAdjust="spacing" textLength="215" x="433.5" y="2039.3545">_redefineCarouselWidth() : void</text><rect fill="#F24D5C" height="6" style="stroke:#C82930;stroke-width:1.0;" width="6" x="421.5" y="2049.3047"/><text fill="#000000" font-family="sans-serif" font-size="14" lengthAdjust="spacing" textLength="180" x="433.5" y="2055.6514">_setCarouselWidth() : void</text><rect fill="#F24D5C" height="6" style="stroke:#C82930;stroke-width:1.0;" width="6" x="421.5" y="2065.6016"/><text fill="#000000" font-family="sans-serif" font-size="14" lengthAdjust="spacing" textLength="202" x="433.5" y="2071.9482">_setOnInitializedEvent() : void</text><rect fill="#F24D5C" height="6" style="stroke:#C82930;stroke-width:1.0;" width="6" x="421.5" y="2081.8984"/><text fill="#000000" font-family="sans-serif" font-size="14" lengthAdjust="spacing" textLength="218" x="433.5" y="2088.2451">_setOnSlideMovedEvent() : void</text><rect fill="#F24D5C" height="6" style="stroke:#C82930;stroke-width:1.0;" width="6" x="421.5" y="2098.1953"/><text fill="#000000" font-family="sans-serif" font-size="14" lengthAdjust="spacing" textLength="211" x="433.5" y="2104.542">_togglePaginationClass() : void</text></g><!--reverse link AbstractProviderPattern<P, C> to AbstractCarousel<P, C>--><g id="link_AbstractProviderPattern&lt;P, C&gt;_AbstractCarousel&lt;P, C&gt;"><path codeLine="74" d="M582.0831,591.7609 C593.5831,611.6409 596.15,616.09 607.62,635.92 " fill="none" id="AbstractProviderPattern&lt;P, C&gt;-backto-AbstractCarousel&lt;P, C&gt;" style="stroke:#272B30;stroke-width:1.0;"/><polygon fill="none" points="573.07,576.18,576.8895,594.7653,587.2767,588.7565,573.07,576.18" style="stroke:#272B30;stroke-width:1.0;"/></g><!--reverse link ICarousel to AbstractCarousel<P, C>--><g id="link_ICarousel_AbstractCarousel&lt;P, C&gt;"><path codeLine="96" d="M1013.6099,486.2811 C983.6799,537.8911 959.31,579.91 926.79,635.99 " fill="none" id="ICarousel-backto-AbstractCarousel&lt;P, C&gt;" style="stroke:#272B30;stroke-width:1.0;stroke-dasharray:7.0,7.0;"/><polygon fill="none" points="1022.64,470.71,1008.4196,483.271,1018.8003,489.2911,1022.64,470.71" style="stroke:#272B30;stroke-width:1.0;"/></g><!--reverse link AbstractCarousel<P, C> to OSUISplide--><g id="link_AbstractCarousel&lt;P, C&gt;_OSUISplide"><path codeLine="149" d="M767,1207.23 C767,1226.74 767,1228.66 767,1248.75 " fill="none" id="AbstractCarousel&lt;P, C&gt;-backto-OSUISplide" style="stroke:#272B30;stroke-width:1.0;"/><polygon fill="none" points="767,1189.23,761,1207.23,773,1207.23,767,1189.23" style="stroke:#272B30;stroke-width:1.0;"/></g><!--SRC=[xLXRRzis57xtho2I5mLnYhKRKC081ZXEBmAQMQYp3SCm5BHu91EcI9MaxNfj_lkERhP4IxOBpDdMB2-HU3uUakVoyRFCdCkKQfgGaQ363BLMgv4IIfFp5ozVJB__hcUQY1kb6UZz41hEOwqMafMmA8fgc1rp2Em7Hdippe10ajerIS3E53FreOY3m14wDLRJq98mMucS3Slt4KMF1iHrq2UZ7y_8vnx1ltDk0gsMw4NVK0EC3CXKAG5K5kQqDBvQWhJcZaeQW_QbiLI6W60_g0DAUpxrShhWWdaN25egpegnS4Pb33Wd1MtNNbe-_4GJ613S9vTndrIZlr2nmE65d4kraguZ2ET3ne0rDc2y5bW0ag7ZlK36JQeCEAFmSK65kLV-hPTIQq5BdrNxl712zRaA_0EvZDMzyhXay6b0v2APWcxuhKCbVB9UfpNLiEIODcTV6c9kS3iZAiGKYyM3x4pDA8QbRK36apSWGVEmSna3c_AuvHf2ovNqMFLKF_5s3pYdYkX8oOZ7nakRxnsfgqtCKx5_y-NM- -YBVrp0DlvzOkWISW-RH7GUqAeu5d2hQUpDgCd-7pjdBDzZ-O3sfaA5y-gjVVRbGhOVhbarhQijKaRjTZN7Rsvq2hYAjYyZDI11xQqn-JpYaflPpMutrfR7FWVa7gWosVIWWMcwwfwCXnu-V_vRsTOSp5veLRJxKMzj8bu9I7PxzHm36IFB18BQIEaa3yUc4r8SVOsZeztoxnEgQrNv-nzxtVgIMqu5_nDOSuNch3pb7KSgZ6-4cb9nnAbpTFkv7pfflSfxKF3JOx7xrGTgrZBqvLA5D2C9FtDUS5q9IElvSQXYcAQ20wk2GcfPgcQN4z0KE4DPYPDcnJ_96-TlkGR-_Jp-jQpwFri-TROiw2BCI4oyRyd6rOSORBvDFzDehxLAKDRJTL5MBkrTkCI6ZCA4Kr_3m3-o_YbZpMBlayvbQpik5dLFyz0xT15SVxcwwlmHqECIiH55iZ_pArjrULnoaxM1TLa78L4PSpIzlRzxLxvLtLhqDwcYK0olECEWxmoVbB8FKYplvjO34hv5jvzIh9zCeLEvFWchDvqUAxyVGNDt2crifLeBN7zvzgoxRKeDDfxyx4zGo31u3C7L28RZE6ExOelliDP-pNijwygM1jr2aRj3c2cHBNSGM-th4F0UupNlHYsqhcZNfTKyQzdv3DuYP5DR6_upsT5spjrGcMCvoR9nfvPvwCUJ-a2EA6UPF6lZD6iUao6BfwSf8xzDgfEmsh1ScTv_IB_-5zZlXCBvwzNo8OcyHnSV4CDeBPNgo9ZyKonyothv296SySpspd3DcDDDTRcsAgrbh_eMaXttc5t0mjY0S1KxSq6rXk-oZwKRi5QGG_OkfkYlWCPSvjyiyW9e5TFkn_92HTVk-xy0]--></g></svg>