<?xml version="1.0" encoding="us-ascii" standalone="no"?><svg xmlns="http://www.w3.org/2000/svg" xmlns:xlink="http://www.w3.org/1999/xlink" contentStyleType="text/css" height="2053px" preserveAspectRatio="none" style="width:1414px;height:2053px;background:#CED4DA;" version="1.1" viewBox="0 0 1414 2053" width="1414px" zoomAndPan="magnify"><defs/><g><rect fill="#CED4DA" height="2053" style="stroke:none;stroke-width:1.0;" width="1414" x="0" y="0"/><!--class AbstractTimePicker<P, C>--><g id="elem_AbstractTimePicker&lt;P, C&gt;"><rect codeLine="7" fill="#FFFFFF" height="536.9063" id="AbstractTimePicker&lt;P, C&gt;" rx="2.5" ry="2.5" style="stroke:#272B30;stroke-width:0.5;" width="707" x="413.5" y="636"/><ellipse cx="671.75" cy="652" fill="#A9DCDF" rx="11" ry="11" style="stroke:#181818;stroke-width:1.0;"/><path d="M671.8594,647.3438 L670.7031,652.4219 L673.0313,652.4219 L671.8594,647.3438 Z M670.375,645.1094 L673.3594,645.1094 L676.7188,657.5 L674.2656,657.5 L673.5,654.4375 L670.2188,654.4375 L669.4688,657.5 L667.0313,657.5 L670.375,645.1094 Z " fill="#000000"/><text fill="#000000" font-family="sans-serif" font-size="14" font-style="italic" lengthAdjust="spacing" textLength="182" x="692.25" y="656.8467">AbstractTimePicker&lt;P, C&gt;</text><line style="stroke:#272B30;stroke-width:0.5;" x1="414.5" x2="1119.5" y1="668" y2="668"/><polygon fill="none" points="424.5,676.6484,428.5,680.6484,424.5,684.6484,420.5,680.6484" style="stroke:#B38D22;stroke-width:1.0;"/><text fill="#000000" font-family="sans-serif" font-size="14" lengthAdjust="spacing" textLength="180" x="433.5" y="684.9951">isProviderBased : boolean</text><polygon fill="none" points="424.5,692.9453,428.5,696.9453,424.5,700.9453,420.5,696.9453" style="stroke:#B38D22;stroke-width:1.0;"/><text fill="#000000" font-family="sans-serif" font-size="14" lengthAdjust="spacing" textLength="393" x="433.5" y="701.292">providerEventsManagerInstance : IProviderEventManager</text><line style="stroke:#272B30;stroke-width:0.5;" x1="414.5" x2="1119.5" y1="708.5938" y2="708.5938"/><ellipse cx="424.5" cy="722.2422" fill="#84BE84" rx="3" ry="3" style="stroke:#038048;stroke-width:1.0;"/><text fill="#000000" font-family="sans-serif" font-size="14" lengthAdjust="spacing" textLength="84" x="433.5" y="725.5889">build() : void</text><ellipse cx="424.5" cy="738.5391" fill="#84BE84" rx="3" ry="3" style="stroke:#038048;stroke-width:1.0;"/><text fill="#000000" font-family="sans-serif" font-size="14" lengthAdjust="spacing" textLength="484" x="433.5" y="741.8857">changeProperty(propertyName: string, propertyValue: unknown) : void</text><ellipse cx="424.5" cy="754.8359" fill="#84BE84" rx="3" ry="3" style="stroke:#038048;stroke-width:1.0;"/><text fill="#000000" font-family="sans-serif" font-size="14" lengthAdjust="spacing" textLength="241" x="433.5" y="758.1826">checkAddedProviderEvents() : void</text><ellipse cx="424.5" cy="771.1328" fill="#84BE84" rx="3" ry="3" style="stroke:#038048;stroke-width:1.0;"/><text fill="#000000" font-family="sans-serif" font-size="14" lengthAdjust="spacing" textLength="253" x="433.5" y="774.4795">checkPendingProviderEvents() : void</text><ellipse cx="424.5" cy="787.4297" fill="#84BE84" rx="3" ry="3" style="stroke:#038048;stroke-width:1.0;"/><text fill="#000000" font-family="sans-serif" font-size="14" font-style="italic" lengthAdjust="spacing" textLength="85" x="433.5" y="790.7764">clear() : void</text><ellipse cx="424.5" cy="803.7266" fill="#84BE84" rx="3" ry="3" style="stroke:#038048;stroke-width:1.0;"/><text fill="#000000" font-family="sans-serif" font-size="14" font-style="italic" lengthAdjust="spacing" textLength="88" x="433.5" y="807.0732">close() : void</text><ellipse cx="424.5" cy="820.0234" fill="#84BE84" rx="3" ry="3" style="stroke:#038048;stroke-width:1.0;"/><text fill="#000000" font-family="sans-serif" font-size="14" lengthAdjust="spacing" textLength="106" x="433.5" y="823.3701">dispose() : void</text><ellipse cx="424.5" cy="836.3203" fill="#84BE84" rx="3" ry="3" style="stroke:#038048;stroke-width:1.0;"/><text fill="#000000" font-family="sans-serif" font-size="14" lengthAdjust="spacing" textLength="267" x="433.5" y="839.667">equalsToID(patternId: string) : boolean</text><ellipse cx="424.5" cy="852.6172" fill="#84BE84" rx="3" ry="3" style="stroke:#038048;stroke-width:1.0;"/><text fill="#000000" font-family="sans-serif" font-size="14" font-style="italic" lengthAdjust="spacing" textLength="88" x="433.5" y="855.9639">open() : void</text><ellipse cx="424.5" cy="868.9141" fill="#84BE84" rx="3" ry="3" style="stroke:#038048;stroke-width:1.0;"/><text fill="#000000" font-family="sans-serif" font-size="14" lengthAdjust="spacing" textLength="434" x="433.5" y="872.2607">registerCallback(eventName: string, callback: OSGeneric) : void</text><ellipse cx="424.5" cy="885.2109" fill="#84BE84" rx="3" ry="3" style="stroke:#038048;stroke-width:1.0;"/><text fill="#000000" font-family="sans-serif" font-size="14" font-style="italic" lengthAdjust="spacing" textLength="226" x="433.5" y="888.5576">setLanguage(value: string) : void</text><ellipse cx="424.5" cy="901.5078" fill="#84BE84" rx="3" ry="3" style="stroke:#038048;stroke-width:1.0;"/><text fill="#000000" font-family="sans-serif" font-size="14" lengthAdjust="spacing" textLength="362" x="433.5" y="904.8545">setProviderConfigs(providerConfigs: unknown) : void</text><ellipse cx="424.5" cy="917.8047" fill="#84BE84" rx="3" ry="3" style="stroke:#038048;stroke-width:1.0;"/><text fill="#000000" font-family="sans-serif" font-size="14" lengthAdjust="spacing" textLength="681" x="433.5" y="921.1514">setProviderEvent(eventName: string, callback: Generic, uniqueId: string, saveEvent: boolean) : void</text><ellipse cx="424.5" cy="934.1016" fill="#84BE84" rx="3" ry="3" style="stroke:#038048;stroke-width:1.0;"/><text fill="#000000" font-family="sans-serif" font-size="14" lengthAdjust="spacing" textLength="285" x="433.5" y="937.4482">unsetProviderEvent(eventId: string) : void</text><ellipse cx="424.5" cy="950.3984" fill="#84BE84" rx="3" ry="3" style="stroke:#038048;stroke-width:1.0;"/><text fill="#000000" font-family="sans-serif" font-size="14" font-style="italic" lengthAdjust="spacing" textLength="247" x="433.5" y="953.7451">updateInitialTime(time: string) : void</text><ellipse cx="424.5" cy="966.6953" fill="#84BE84" rx="3" ry="3" style="stroke:#038048;stroke-width:1.0;"/><text fill="#000000" font-family="sans-serif" font-size="14" font-style="italic" lengthAdjust="spacing" textLength="308" x="433.5" y="970.042">updatePrompt(promptMessage: string) : void</text><ellipse cx="424.5" cy="982.9922" fill="#84BE84" rx="3" ry="3" style="stroke:#038048;stroke-width:1.0;"/><text fill="#000000" font-family="sans-serif" font-size="14" lengthAdjust="spacing" textLength="374" x="433.5" y="986.3389">updateProviderEvents(providerInfo: ProviderInfo) : void</text><polygon fill="#FFFF44" points="424.5,994.2891,428.5,998.2891,424.5,1002.2891,420.5,998.2891" style="stroke:#B38D22;stroke-width:1.0;"/><text fill="#000000" font-family="sans-serif" font-size="14" lengthAdjust="spacing" textLength="121" x="433.5" y="1002.6357">finishBuild() : void</text><polygon fill="#FFFF44" points="424.5,1010.5859,428.5,1014.5859,424.5,1018.5859,420.5,1014.5859" style="stroke:#B38D22;stroke-width:1.0;"/><text fill="#000000" font-family="sans-serif" font-size="14" font-style="italic" lengthAdjust="spacing" textLength="157" x="433.5" y="1018.9326">prepareConfigs() : void</text><polygon fill="#FFFF44" points="424.5,1026.8828,428.5,1030.8828,424.5,1034.8828,420.5,1030.8828" style="stroke:#B38D22;stroke-width:1.0;"/><text fill="#000000" font-family="sans-serif" font-size="14" lengthAdjust="spacing" textLength="98" x="433.5" y="1035.2295">redraw() : void</text><polygon fill="#FFFF44" points="424.5,1043.1797,428.5,1047.1797,424.5,1051.1797,420.5,1047.1797" style="stroke:#B38D22;stroke-width:1.0;"/><text fill="#000000" font-family="sans-serif" font-size="14" font-style="italic" lengthAdjust="spacing" textLength="179" x="433.5" y="1051.5264">setA11YProperties() : void</text><polygon fill="#FFFF44" points="424.5,1059.4766,428.5,1063.4766,424.5,1067.4766,420.5,1063.4766" style="stroke:#B38D22;stroke-width:1.0;"/><text fill="#000000" font-family="sans-serif" font-size="14" font-style="italic" lengthAdjust="spacing" textLength="137" x="433.5" y="1067.8232">setCallbacks() : void</text><polygon fill="#FFFF44" points="424.5,1075.7734,428.5,1079.7734,424.5,1083.7734,420.5,1079.7734" style="stroke:#B38D22;stroke-width:1.0;"/><text fill="#000000" font-family="sans-serif" font-size="14" font-style="italic" lengthAdjust="spacing" textLength="169" x="433.5" y="1084.1201">setHtmlElements() : void</text><polygon fill="#FFFF44" points="424.5,1092.0703,428.5,1096.0703,424.5,1100.0703,420.5,1096.0703" style="stroke:#B38D22;stroke-width:1.0;"/><text fill="#000000" font-family="sans-serif" font-size="14" lengthAdjust="spacing" textLength="569" x="433.5" y="1100.417">triggerPlatformEventCallback(platFormCallback: OSGeneric, args: unknown[]) : void</text><polygon fill="#FFFF44" points="424.5,1108.3672,428.5,1112.3672,424.5,1116.3672,420.5,1112.3672" style="stroke:#B38D22;stroke-width:1.0;"/><text fill="#000000" font-family="sans-serif" font-size="14" lengthAdjust="spacing" textLength="311" x="433.5" y="1116.7139">triggerPlatformInitializedEventCallback() : void</text><polygon fill="#FFFF44" points="424.5,1124.6641,428.5,1128.6641,424.5,1132.6641,420.5,1128.6641" style="stroke:#B38D22;stroke-width:1.0;"/><text fill="#000000" font-family="sans-serif" font-size="14" lengthAdjust="spacing" textLength="156" x="433.5" y="1133.0107">unsetCallbacks() : void</text><polygon fill="#FFFF44" points="424.5,1140.9609,428.5,1144.9609,424.5,1148.9609,420.5,1144.9609" style="stroke:#B38D22;stroke-width:1.0;"/><text fill="#000000" font-family="sans-serif" font-size="14" lengthAdjust="spacing" textLength="199" x="433.5" y="1149.3076">unsetGlobalCallbacks() : void</text><polygon fill="#FFFF44" points="424.5,1157.2578,428.5,1161.2578,424.5,1165.2578,420.5,1161.2578" style="stroke:#B38D22;stroke-width:1.0;"/><text fill="#000000" font-family="sans-serif" font-size="14" font-style="italic" lengthAdjust="spacing" textLength="187" x="433.5" y="1165.6045">unsetHtmlElements() : void</text></g><!--class AbstractProviderPattern<P, C>--><g id="elem_AbstractProviderPattern&lt;P, C&gt;"><rect codeLine="39" fill="#FFFFFF" height="569.5" id="AbstractProviderPattern&lt;P, C&gt;" rx="2.5" ry="2.5" style="stroke:#272B30;stroke-width:0.5;" width="800" x="9" y="7"/><ellipse cx="298.75" cy="23" fill="#A9DCDF" rx="11" ry="11" style="stroke:#181818;stroke-width:1.0;"/><path d="M298.8594,18.3438 L297.7031,23.4219 L300.0313,23.4219 L298.8594,18.3438 Z M297.375,16.1094 L300.3594,16.1094 L303.7188,28.5 L301.2656,28.5 L300.5,25.4375 L297.2188,25.4375 L296.4688,28.5 L294.0313,28.5 L297.375,16.1094 Z " fill="#000000"/><text fill="#000000" font-family="sans-serif" font-size="14" font-style="italic" lengthAdjust="spacing" textLength="212" x="319.25" y="27.8467">AbstractProviderPattern&lt;P, C&gt;</text><line style="stroke:#272B30;stroke-width:0.5;" x1="10" x2="808" y1="39" y2="39"/><polygon fill="none" points="20,47.6484,24,51.6484,20,55.6484,16,51.6484" style="stroke:#B38D22;stroke-width:1.0;"/><text fill="#000000" font-family="sans-serif" font-size="14" lengthAdjust="spacing" textLength="180" x="29" y="55.9951">isProviderBased : boolean</text><polygon fill="none" points="20,63.9453,24,67.9453,20,71.9453,16,67.9453" style="stroke:#B38D22;stroke-width:1.0;"/><text fill="#000000" font-family="sans-serif" font-size="14" lengthAdjust="spacing" textLength="393" x="29" y="72.292">providerEventsManagerInstance : IProviderEventManager</text><rect fill="none" height="6" style="stroke:#C82930;stroke-width:1.0;" width="6" x="17" y="82.2422"/><text fill="#000000" font-family="sans-serif" font-size="14" lengthAdjust="spacing" textLength="196" x="29" y="88.5889">_asyncInvocationId : number</text><rect fill="none" height="6" style="stroke:#C82930;stroke-width:1.0;" width="6" x="17" y="98.5391"/><text fill="#000000" font-family="sans-serif" font-size="14" lengthAdjust="spacing" textLength="405" x="29" y="104.8857">_platformEventProviderConfigsAppliedCallback : OSGeneric</text><rect fill="none" height="6" style="stroke:#C82930;stroke-width:1.0;" width="6" x="17" y="114.8359"/><text fill="#000000" font-family="sans-serif" font-size="14" lengthAdjust="spacing" textLength="85" x="29" y="121.1826">_provider : P</text><rect fill="none" height="6" style="stroke:#C82930;stroke-width:1.0;" width="6" x="17" y="131.1328"/><text fill="#000000" font-family="sans-serif" font-size="14" lengthAdjust="spacing" textLength="182" x="29" y="137.4795">_providerInfo : ProviderInfo</text><line style="stroke:#272B30;stroke-width:0.5;" x1="10" x2="808" y1="144.7813" y2="144.7813"/><ellipse cx="20" cy="158.4297" fill="#84BE84" rx="3" ry="3" style="stroke:#038048;stroke-width:1.0;"/><text fill="#000000" font-family="sans-serif" font-size="14" lengthAdjust="spacing" textLength="84" x="29" y="161.7764">build() : void</text><ellipse cx="20" cy="174.7266" fill="#84BE84" rx="3" ry="3" style="stroke:#038048;stroke-width:1.0;"/><text fill="#000000" font-family="sans-serif" font-size="14" lengthAdjust="spacing" textLength="484" x="29" y="178.0732">changeProperty(propertyName: string, propertyValue: unknown) : void</text><ellipse cx="20" cy="191.0234" fill="#84BE84" rx="3" ry="3" style="stroke:#038048;stroke-width:1.0;"/><text fill="#000000" font-family="sans-serif" font-size="14" lengthAdjust="spacing" textLength="241" x="29" y="194.3701">checkAddedProviderEvents() : void</text><ellipse cx="20" cy="207.3203" fill="#84BE84" rx="3" ry="3" style="stroke:#038048;stroke-width:1.0;"/><text fill="#000000" font-family="sans-serif" font-size="14" lengthAdjust="spacing" textLength="253" x="29" y="210.667">checkPendingProviderEvents() : void</text><ellipse cx="20" cy="223.6172" fill="#84BE84" rx="3" ry="3" style="stroke:#038048;stroke-width:1.0;"/><text fill="#000000" font-family="sans-serif" font-size="14" lengthAdjust="spacing" textLength="106" x="29" y="226.9639">dispose() : void</text><ellipse cx="20" cy="239.9141" fill="#84BE84" rx="3" ry="3" style="stroke:#038048;stroke-width:1.0;"/><text fill="#000000" font-family="sans-serif" font-size="14" lengthAdjust="spacing" textLength="267" x="29" y="243.2607">equalsToID(patternId: string) : boolean</text><ellipse cx="20" cy="256.2109" fill="#84BE84" rx="3" ry="3" style="stroke:#038048;stroke-width:1.0;"/><text fill="#000000" font-family="sans-serif" font-size="14" lengthAdjust="spacing" textLength="434" x="29" y="259.5576">registerCallback(eventName: string, callback: OSGeneric) : void</text><ellipse cx="20" cy="272.5078" fill="#84BE84" rx="3" ry="3" style="stroke:#038048;stroke-width:1.0;"/><text fill="#000000" font-family="sans-serif" font-size="14" lengthAdjust="spacing" textLength="362" x="29" y="275.8545">setProviderConfigs(providerConfigs: unknown) : void</text><ellipse cx="20" cy="288.8047" fill="#84BE84" rx="3" ry="3" style="stroke:#038048;stroke-width:1.0;"/><text fill="#000000" font-family="sans-serif" font-size="14" lengthAdjust="spacing" textLength="681" x="29" y="292.1514">setProviderEvent(eventName: string, callback: Generic, uniqueId: string, saveEvent: boolean) : void</text><ellipse cx="20" cy="305.1016" fill="#84BE84" rx="3" ry="3" style="stroke:#038048;stroke-width:1.0;"/><text fill="#000000" font-family="sans-serif" font-size="14" lengthAdjust="spacing" textLength="285" x="29" y="308.4482">unsetProviderEvent(eventId: string) : void</text><ellipse cx="20" cy="321.3984" fill="#84BE84" rx="3" ry="3" style="stroke:#038048;stroke-width:1.0;"/><text fill="#000000" font-family="sans-serif" font-size="14" lengthAdjust="spacing" textLength="374" x="29" y="324.7451">updateProviderEvents(providerInfo: ProviderInfo) : void</text><polygon fill="#FFFF44" points="20,332.6953,24,336.6953,20,340.6953,16,336.6953" style="stroke:#B38D22;stroke-width:1.0;"/><text fill="#000000" font-family="sans-serif" font-size="14" lengthAdjust="spacing" textLength="121" x="29" y="341.042">finishBuild() : void</text><polygon fill="#FFFF44" points="20,348.9922,24,352.9922,20,356.9922,16,352.9922" style="stroke:#B38D22;stroke-width:1.0;"/><text fill="#000000" font-family="sans-serif" font-size="14" font-style="italic" lengthAdjust="spacing" textLength="157" x="29" y="357.3389">prepareConfigs() : void</text><polygon fill="#FFFF44" points="20,365.2891,24,369.2891,20,373.2891,16,369.2891" style="stroke:#B38D22;stroke-width:1.0;"/><text fill="#000000" font-family="sans-serif" font-size="14" lengthAdjust="spacing" textLength="98" x="29" y="373.6357">redraw() : void</text><polygon fill="#FFFF44" points="20,381.5859,24,385.5859,20,389.5859,16,385.5859" style="stroke:#B38D22;stroke-width:1.0;"/><text fill="#000000" font-family="sans-serif" font-size="14" font-style="italic" lengthAdjust="spacing" textLength="179" x="29" y="389.9326">setA11YProperties() : void</text><polygon fill="#FFFF44" points="20,397.8828,24,401.8828,20,405.8828,16,401.8828" style="stroke:#B38D22;stroke-width:1.0;"/><text fill="#000000" font-family="sans-serif" font-size="14" font-style="italic" lengthAdjust="spacing" textLength="137" x="29" y="406.2295">setCallbacks() : void</text><polygon fill="#FFFF44" points="20,414.1797,24,418.1797,20,422.1797,16,418.1797" style="stroke:#B38D22;stroke-width:1.0;"/><text fill="#000000" font-family="sans-serif" font-size="14" font-style="italic" lengthAdjust="spacing" textLength="169" x="29" y="422.5264">setHtmlElements() : void</text><polygon fill="#FFFF44" points="20,430.4766,24,434.4766,20,438.4766,16,434.4766" style="stroke:#B38D22;stroke-width:1.0;"/><text fill="#000000" font-family="sans-serif" font-size="14" lengthAdjust="spacing" textLength="569" x="29" y="438.8232">triggerPlatformEventCallback(platFormCallback: OSGeneric, args: unknown[]) : void</text><polygon fill="#FFFF44" points="20,446.7734,24,450.7734,20,454.7734,16,450.7734" style="stroke:#B38D22;stroke-width:1.0;"/><text fill="#000000" font-family="sans-serif" font-size="14" lengthAdjust="spacing" textLength="311" x="29" y="455.1201">triggerPlatformInitializedEventCallback() : void</text><polygon fill="#FFFF44" points="20,463.0703,24,467.0703,20,471.0703,16,467.0703" style="stroke:#B38D22;stroke-width:1.0;"/><text fill="#000000" font-family="sans-serif" font-size="14" lengthAdjust="spacing" textLength="156" x="29" y="471.417">unsetCallbacks() : void</text><polygon fill="#FFFF44" points="20,479.3672,24,483.3672,20,487.3672,16,483.3672" style="stroke:#B38D22;stroke-width:1.0;"/><text fill="#000000" font-family="sans-serif" font-size="14" lengthAdjust="spacing" textLength="199" x="29" y="487.7139">unsetGlobalCallbacks() : void</text><polygon fill="#FFFF44" points="20,495.6641,24,499.6641,20,503.6641,16,499.6641" style="stroke:#B38D22;stroke-width:1.0;"/><text fill="#000000" font-family="sans-serif" font-size="14" font-style="italic" lengthAdjust="spacing" textLength="187" x="29" y="504.0107">unsetHtmlElements() : void</text><rect fill="#F24D5C" height="6" style="stroke:#C82930;stroke-width:1.0;" width="6" x="17" y="513.9609"/><text fill="#000000" font-family="sans-serif" font-size="14" lengthAdjust="spacing" textLength="155" x="29" y="520.3076">_cancelRedraw() : void</text><rect fill="#F24D5C" height="6" style="stroke:#C82930;stroke-width:1.0;" width="6" x="17" y="530.2578"/><text fill="#000000" font-family="sans-serif" font-size="14" lengthAdjust="spacing" textLength="398" x="29" y="536.6045">_getEventIndexFromArray(event: IProviderEvent) : number</text><rect fill="#F24D5C" height="6" style="stroke:#C82930;stroke-width:1.0;" width="6" x="17" y="546.5547"/><text fill="#000000" font-family="sans-serif" font-size="14" lengthAdjust="spacing" textLength="774" x="29" y="552.9014">_handleProviderEventsAPI(eventName: string, callback: Generic, addEvent: boolean, event: IProviderEvent) : void</text><rect fill="#F24D5C" height="6" style="stroke:#C82930;stroke-width:1.0;" width="6" x="17" y="562.8516"/><text fill="#000000" font-family="sans-serif" font-size="14" lengthAdjust="spacing" textLength="157" x="29" y="569.1982">_handleRedraw() : void</text></g><!--class ITimePicker--><g id="elem_ITimePicker"><rect codeLine="74" fill="#FFFFFF" height="341.3438" id="ITimePicker" rx="2.5" ry="2.5" style="stroke:#272B30;stroke-width:0.5;" width="563" x="844.5" y="121"/><ellipse cx="1082.25" cy="137" fill="#B4A7E5" rx="11" ry="11" style="stroke:#181818;stroke-width:1.0;"/><path d="M1078.1719,132.7656 L1078.1719,130.6094 L1085.5625,130.6094 L1085.5625,132.7656 L1083.0938,132.7656 L1083.0938,140.8438 L1085.5625,140.8438 L1085.5625,143 L1078.1719,143 L1078.1719,140.8438 L1080.6406,140.8438 L1080.6406,132.7656 L1078.1719,132.7656 Z " fill="#000000"/><text fill="#000000" font-family="sans-serif" font-size="14" font-style="italic" lengthAdjust="spacing" textLength="79" x="1102.75" y="141.8467">ITimePicker</text><line style="stroke:#272B30;stroke-width:0.5;" x1="845.5" x2="1406.5" y1="153" y2="153"/><ellipse cx="855.5" cy="166.6484" fill="none" rx="3" ry="3" style="stroke:#038048;stroke-width:1.0;"/><text fill="#000000" font-family="sans-serif" font-size="14" lengthAdjust="spacing" textLength="110" x="864.5" y="169.9951">isBuilt : boolean</text><ellipse cx="855.5" cy="182.9453" fill="none" rx="3" ry="3" style="stroke:#038048;stroke-width:1.0;"/><text fill="#000000" font-family="sans-serif" font-size="14" lengthAdjust="spacing" textLength="118" x="864.5" y="186.292">isOpen : boolean</text><ellipse cx="855.5" cy="199.2422" fill="none" rx="3" ry="3" style="stroke:#038048;stroke-width:1.0;"/><text fill="#000000" font-family="sans-serif" font-size="14" lengthAdjust="spacing" textLength="189" x="864.5" y="202.5889">selfElement : HTMLElement</text><ellipse cx="855.5" cy="215.5391" fill="none" rx="3" ry="3" style="stroke:#038048;stroke-width:1.0;"/><text fill="#000000" font-family="sans-serif" font-size="14" lengthAdjust="spacing" textLength="112" x="864.5" y="218.8857">uniqueId : string</text><ellipse cx="855.5" cy="231.8359" fill="none" rx="3" ry="3" style="stroke:#038048;stroke-width:1.0;"/><text fill="#000000" font-family="sans-serif" font-size="14" lengthAdjust="spacing" textLength="110" x="864.5" y="235.1826">widgetId : string</text><line style="stroke:#272B30;stroke-width:0.5;" x1="845.5" x2="1406.5" y1="242.4844" y2="242.4844"/><ellipse cx="855.5" cy="256.1328" fill="#84BE84" rx="3" ry="3" style="stroke:#038048;stroke-width:1.0;"/><text fill="#000000" font-family="sans-serif" font-size="14" lengthAdjust="spacing" textLength="84" x="864.5" y="259.4795">build() : void</text><ellipse cx="855.5" cy="272.4297" fill="#84BE84" rx="3" ry="3" style="stroke:#038048;stroke-width:1.0;"/><text fill="#000000" font-family="sans-serif" font-size="14" lengthAdjust="spacing" textLength="484" x="864.5" y="275.7764">changeProperty(propertyName: string, propertyValue: unknown) : void</text><ellipse cx="855.5" cy="288.7266" fill="#84BE84" rx="3" ry="3" style="stroke:#038048;stroke-width:1.0;"/><text fill="#000000" font-family="sans-serif" font-size="14" lengthAdjust="spacing" textLength="84" x="864.5" y="292.0732">clear() : void</text><ellipse cx="855.5" cy="305.0234" fill="#84BE84" rx="3" ry="3" style="stroke:#038048;stroke-width:1.0;"/><text fill="#000000" font-family="sans-serif" font-size="14" lengthAdjust="spacing" textLength="88" x="864.5" y="308.3701">close() : void</text><ellipse cx="855.5" cy="321.3203" fill="#84BE84" rx="3" ry="3" style="stroke:#038048;stroke-width:1.0;"/><text fill="#000000" font-family="sans-serif" font-size="14" lengthAdjust="spacing" textLength="106" x="864.5" y="324.667">dispose() : void</text><ellipse cx="855.5" cy="337.6172" fill="#84BE84" rx="3" ry="3" style="stroke:#038048;stroke-width:1.0;"/><text fill="#000000" font-family="sans-serif" font-size="14" lengthAdjust="spacing" textLength="217" x="864.5" y="340.9639">equalsToID(id: string) : boolean</text><ellipse cx="855.5" cy="353.9141" fill="#84BE84" rx="3" ry="3" style="stroke:#038048;stroke-width:1.0;"/><text fill="#000000" font-family="sans-serif" font-size="14" lengthAdjust="spacing" textLength="257" x="864.5" y="357.2607">open(isOpenedByApi: boolean) : void</text><ellipse cx="855.5" cy="370.2109" fill="#84BE84" rx="3" ry="3" style="stroke:#038048;stroke-width:1.0;"/><text fill="#000000" font-family="sans-serif" font-size="14" lengthAdjust="spacing" textLength="434" x="864.5" y="373.5576">registerCallback(eventName: string, callback: OSGeneric) : void</text><ellipse cx="855.5" cy="386.5078" fill="#84BE84" rx="3" ry="3" style="stroke:#038048;stroke-width:1.0;"/><text fill="#000000" font-family="sans-serif" font-size="14" lengthAdjust="spacing" textLength="225" x="864.5" y="389.8545">setLanguage(value: string) : void</text><ellipse cx="855.5" cy="402.8047" fill="#84BE84" rx="3" ry="3" style="stroke:#038048;stroke-width:1.0;"/><text fill="#000000" font-family="sans-serif" font-size="14" lengthAdjust="spacing" textLength="322" x="864.5" y="406.1514">setProviderConfigs(providerConfigs: any) : void</text><ellipse cx="855.5" cy="419.1016" fill="#84BE84" rx="3" ry="3" style="stroke:#038048;stroke-width:1.0;"/><text fill="#000000" font-family="sans-serif" font-size="14" lengthAdjust="spacing" textLength="537" x="864.5" y="422.4482">setProviderEvent(eventName: string, callback: Generic, uniqueId: string) : void</text><ellipse cx="855.5" cy="435.3984" fill="#84BE84" rx="3" ry="3" style="stroke:#038048;stroke-width:1.0;"/><text fill="#000000" font-family="sans-serif" font-size="14" lengthAdjust="spacing" textLength="285" x="864.5" y="438.7451">unsetProviderEvent(eventId: string) : void</text><ellipse cx="855.5" cy="451.6953" fill="#84BE84" rx="3" ry="3" style="stroke:#038048;stroke-width:1.0;"/><text fill="#000000" font-family="sans-serif" font-size="14" lengthAdjust="spacing" textLength="246" x="864.5" y="455.042">updateInitialTime(time: string) : void</text></g><!--class OSUIFlatpickrTime--><g id="elem_OSUIFlatpickrTime"><rect codeLine="95" fill="#FFFFFF" height="813.9531" id="OSUIFlatpickrTime" rx="2.5" ry="2.5" style="stroke:#272B30;stroke-width:0.5;" width="707" x="413.5" y="1233"/><ellipse cx="700.75" cy="1249" fill="#ADD1B2" rx="11" ry="11" style="stroke:#181818;stroke-width:1.0;"/><path d="M703.7188,1254.6406 Q703.1406,1254.9375 702.5,1255.0781 Q701.8594,1255.2344 701.1563,1255.2344 Q698.6563,1255.2344 697.3281,1253.5938 Q696.0156,1251.9375 696.0156,1248.8125 Q696.0156,1245.6875 697.3281,1244.0313 Q698.6563,1242.375 701.1563,1242.375 Q701.8594,1242.375 702.5,1242.5313 Q703.1563,1242.6875 703.7188,1242.9844 L703.7188,1245.7031 Q703.0938,1245.125 702.5,1244.8594 Q701.9063,1244.5781 701.2813,1244.5781 Q699.9375,1244.5781 699.25,1245.6563 Q698.5625,1246.7188 698.5625,1248.8125 Q698.5625,1250.9063 699.25,1251.9844 Q699.9375,1253.0469 701.2813,1253.0469 Q701.9063,1253.0469 702.5,1252.7813 Q703.0938,1252.5 703.7188,1251.9219 L703.7188,1254.6406 Z " fill="#000000"/><text fill="#000000" font-family="sans-serif" font-size="14" lengthAdjust="spacing" textLength="124" x="721.25" y="1253.8467">OSUIFlatpickrTime</text><line style="stroke:#272B30;stroke-width:0.5;" x1="414.5" x2="1119.5" y1="1265" y2="1265"/><polygon fill="none" points="424.5,1273.6484,428.5,1277.6484,424.5,1281.6484,420.5,1277.6484" style="stroke:#B38D22;stroke-width:1.0;"/><text fill="#000000" font-family="sans-serif" font-size="14" lengthAdjust="spacing" textLength="265" x="433.5" y="1281.9951">flatpickrInputElem : HTMLInputElement</text><polygon fill="none" points="424.5,1289.9453,428.5,1293.9453,424.5,1297.9453,420.5,1293.9453" style="stroke:#B38D22;stroke-width:1.0;"/><text fill="#000000" font-family="sans-serif" font-size="14" lengthAdjust="spacing" textLength="180" x="433.5" y="1298.292">isProviderBased : boolean</text><polygon fill="none" points="424.5,1306.2422,428.5,1310.2422,424.5,1314.2422,420.5,1310.2422" style="stroke:#B38D22;stroke-width:1.0;"/><text fill="#000000" font-family="sans-serif" font-size="14" lengthAdjust="spacing" textLength="314" x="433.5" y="1314.5889">onChangeCallbackEvent : OSOnChangeEvent</text><polygon fill="none" points="424.5,1322.5391,428.5,1326.5391,424.5,1330.5391,420.5,1326.5391" style="stroke:#B38D22;stroke-width:1.0;"/><text fill="#000000" font-family="sans-serif" font-size="14" lengthAdjust="spacing" textLength="393" x="433.5" y="1330.8857">providerEventsManagerInstance : IProviderEventManager</text><polygon fill="none" points="424.5,1338.8359,428.5,1342.8359,424.5,1346.8359,420.5,1342.8359" style="stroke:#B38D22;stroke-width:1.0;"/><text fill="#000000" font-family="sans-serif" font-size="14" lengthAdjust="spacing" textLength="340" x="433.5" y="1347.1826">timePickerPlatformInputElem : HTMLInputElement</text><rect fill="none" height="6" style="stroke:#C82930;stroke-width:1.0;" width="6" x="421.5" y="1357.1328"/><text fill="#000000" font-family="sans-serif" font-size="14" lengthAdjust="spacing" textLength="246" x="433.5" y="1363.4795">_bodyOnClickGlobalEvent : IListener</text><rect fill="none" height="6" style="stroke:#C82930;stroke-width:1.0;" width="6" x="421.5" y="1373.4297"/><text fill="#000000" font-family="sans-serif" font-size="14" lengthAdjust="spacing" textLength="385" x="433.5" y="1379.7764">_bodyScrollCommonBehaviour : UpdatePositionOnScroll</text><rect fill="none" height="6" style="stroke:#C82930;stroke-width:1.0;" width="6" x="421.5" y="1389.7266"/><text fill="#000000" font-family="sans-serif" font-size="14" lengthAdjust="spacing" textLength="217" x="433.5" y="1396.0732">_flatpickrOpts : FlatpickrOptions</text><rect fill="none" height="6" style="stroke:#C82930;stroke-width:1.0;" width="6" x="421.5" y="1406.0234"/><text fill="#000000" font-family="sans-serif" font-size="14" lengthAdjust="spacing" textLength="285" x="433.5" y="1412.3701">_zindexCommonBehavior : UpdateZindex</text><line style="stroke:#272B30;stroke-width:0.5;" x1="414.5" x2="1119.5" y1="1419.6719" y2="1419.6719"/><ellipse cx="424.5" cy="1433.3203" fill="#84BE84" rx="3" ry="3" style="stroke:#038048;stroke-width:1.0;"/><text fill="#000000" font-family="sans-serif" font-size="14" lengthAdjust="spacing" textLength="84" x="433.5" y="1436.667">build() : void</text><ellipse cx="424.5" cy="1449.6172" fill="#84BE84" rx="3" ry="3" style="stroke:#038048;stroke-width:1.0;"/><text fill="#000000" font-family="sans-serif" font-size="14" lengthAdjust="spacing" textLength="484" x="433.5" y="1452.9639">changeProperty(propertyName: string, propertyValue: unknown) : void</text><ellipse cx="424.5" cy="1465.9141" fill="#84BE84" rx="3" ry="3" style="stroke:#038048;stroke-width:1.0;"/><text fill="#000000" font-family="sans-serif" font-size="14" lengthAdjust="spacing" textLength="241" x="433.5" y="1469.2607">checkAddedProviderEvents() : void</text><ellipse cx="424.5" cy="1482.2109" fill="#84BE84" rx="3" ry="3" style="stroke:#038048;stroke-width:1.0;"/><text fill="#000000" font-family="sans-serif" font-size="14" lengthAdjust="spacing" textLength="253" x="433.5" y="1485.5576">checkPendingProviderEvents() : void</text><ellipse cx="424.5" cy="1498.5078" fill="#84BE84" rx="3" ry="3" style="stroke:#038048;stroke-width:1.0;"/><text fill="#000000" font-family="sans-serif" font-size="14" lengthAdjust="spacing" textLength="84" x="433.5" y="1501.8545">clear() : void</text><ellipse cx="424.5" cy="1514.8047" fill="#84BE84" rx="3" ry="3" style="stroke:#038048;stroke-width:1.0;"/><text fill="#000000" font-family="sans-serif" font-size="14" lengthAdjust="spacing" textLength="88" x="433.5" y="1518.1514">close() : void</text><ellipse cx="424.5" cy="1531.1016" fill="#84BE84" rx="3" ry="3" style="stroke:#038048;stroke-width:1.0;"/><text fill="#000000" font-family="sans-serif" font-size="14" lengthAdjust="spacing" textLength="106" x="433.5" y="1534.4482">dispose() : void</text><ellipse cx="424.5" cy="1547.3984" fill="#84BE84" rx="3" ry="3" style="stroke:#038048;stroke-width:1.0;"/><text fill="#000000" font-family="sans-serif" font-size="14" lengthAdjust="spacing" textLength="267" x="433.5" y="1550.7451">equalsToID(patternId: string) : boolean</text><ellipse cx="424.5" cy="1563.6953" fill="#84BE84" rx="3" ry="3" style="stroke:#038048;stroke-width:1.0;"/><text fill="#000000" font-family="sans-serif" font-size="14" lengthAdjust="spacing" textLength="87" x="433.5" y="1567.042">open() : void</text><ellipse cx="424.5" cy="1579.9922" fill="#84BE84" rx="3" ry="3" style="stroke:#038048;stroke-width:1.0;"/><text fill="#000000" font-family="sans-serif" font-size="14" lengthAdjust="spacing" textLength="434" x="433.5" y="1583.3389">registerCallback(eventName: string, callback: OSGeneric) : void</text><ellipse cx="424.5" cy="1596.2891" fill="#84BE84" rx="3" ry="3" style="stroke:#038048;stroke-width:1.0;"/><text fill="#000000" font-family="sans-serif" font-size="14" lengthAdjust="spacing" textLength="294" x="433.5" y="1599.6357">setEditableInput(isEditable: boolean) : void</text><ellipse cx="424.5" cy="1612.5859" fill="#84BE84" rx="3" ry="3" style="stroke:#038048;stroke-width:1.0;"/><text fill="#000000" font-family="sans-serif" font-size="14" lengthAdjust="spacing" textLength="225" x="433.5" y="1615.9326">setLanguage(value: string) : void</text><ellipse cx="424.5" cy="1628.8828" fill="#84BE84" rx="3" ry="3" style="stroke:#038048;stroke-width:1.0;"/><text fill="#000000" font-family="sans-serif" font-size="14" lengthAdjust="spacing" textLength="382" x="433.5" y="1632.2295">setProviderConfigs(newConfigs: FlatpickrOptions) : void</text><ellipse cx="424.5" cy="1645.1797" fill="#84BE84" rx="3" ry="3" style="stroke:#038048;stroke-width:1.0;"/><text fill="#000000" font-family="sans-serif" font-size="14" lengthAdjust="spacing" textLength="681" x="433.5" y="1648.5264">setProviderEvent(eventName: string, callback: Generic, uniqueId: string, saveEvent: boolean) : void</text><ellipse cx="424.5" cy="1661.4766" fill="#84BE84" rx="3" ry="3" style="stroke:#038048;stroke-width:1.0;"/><text fill="#000000" font-family="sans-serif" font-size="14" lengthAdjust="spacing" textLength="315" x="433.5" y="1664.8232">toggleNativeBehavior(isNative: boolean) : void</text><ellipse cx="424.5" cy="1677.7734" fill="#84BE84" rx="3" ry="3" style="stroke:#038048;stroke-width:1.0;"/><text fill="#000000" font-family="sans-serif" font-size="14" lengthAdjust="spacing" textLength="285" x="433.5" y="1681.1201">unsetProviderEvent(eventId: string) : void</text><ellipse cx="424.5" cy="1694.0703" fill="#84BE84" rx="3" ry="3" style="stroke:#038048;stroke-width:1.0;"/><text fill="#000000" font-family="sans-serif" font-size="14" lengthAdjust="spacing" textLength="252" x="433.5" y="1697.417">updateInitialTime(value: string) : void</text><ellipse cx="424.5" cy="1710.3672" fill="#84BE84" rx="3" ry="3" style="stroke:#038048;stroke-width:1.0;"/><text fill="#000000" font-family="sans-serif" font-size="14" lengthAdjust="spacing" textLength="311" x="433.5" y="1713.7139">updatePrompt(promptMessage: string) : void</text><ellipse cx="424.5" cy="1726.6641" fill="#84BE84" rx="3" ry="3" style="stroke:#038048;stroke-width:1.0;"/><text fill="#000000" font-family="sans-serif" font-size="14" lengthAdjust="spacing" textLength="374" x="433.5" y="1730.0107">updateProviderEvents(providerInfo: ProviderInfo) : void</text><polygon fill="#FFFF44" points="424.5,1737.9609,428.5,1741.9609,424.5,1745.9609,420.5,1741.9609" style="stroke:#B38D22;stroke-width:1.0;"/><text fill="#000000" font-family="sans-serif" font-size="14" lengthAdjust="spacing" textLength="210" x="433.5" y="1746.3076">createProviderInstance() : void</text><polygon fill="#FFFF44" points="424.5,1754.2578,428.5,1758.2578,424.5,1762.2578,420.5,1758.2578" style="stroke:#B38D22;stroke-width:1.0;"/><text fill="#000000" font-family="sans-serif" font-size="14" lengthAdjust="spacing" textLength="121" x="433.5" y="1762.6045">finishBuild() : void</text><polygon fill="#FFFF44" points="424.5,1770.5547,428.5,1774.5547,424.5,1778.5547,420.5,1774.5547" style="stroke:#B38D22;stroke-width:1.0;"/><text fill="#000000" font-family="sans-serif" font-size="14" lengthAdjust="spacing" textLength="108" x="433.5" y="1778.9014">onClose() : void</text><polygon fill="#FFFF44" points="424.5,1786.8516,428.5,1790.8516,424.5,1794.8516,420.5,1790.8516" style="stroke:#B38D22;stroke-width:1.0;"/><text fill="#000000" font-family="sans-serif" font-size="14" lengthAdjust="spacing" textLength="107" x="433.5" y="1795.1982">onOpen() : void</text><polygon fill="#FFFF44" points="424.5,1803.1484,428.5,1807.1484,424.5,1811.1484,420.5,1807.1484" style="stroke:#B38D22;stroke-width:1.0;"/><text fill="#000000" font-family="sans-serif" font-size="14" lengthAdjust="spacing" textLength="349" x="433.5" y="1811.4951">onTimeSelectedEvent(selectedTime: Date[]) : void</text><polygon fill="#FFFF44" points="424.5,1819.4453,428.5,1823.4453,424.5,1827.4453,420.5,1823.4453" style="stroke:#B38D22;stroke-width:1.0;"/><text fill="#000000" font-family="sans-serif" font-size="14" lengthAdjust="spacing" textLength="157" x="433.5" y="1827.792">prepareConfigs() : void</text><polygon fill="#FFFF44" points="424.5,1835.7422,428.5,1839.7422,424.5,1843.7422,420.5,1839.7422" style="stroke:#B38D22;stroke-width:1.0;"/><text fill="#000000" font-family="sans-serif" font-size="14" lengthAdjust="spacing" textLength="98" x="433.5" y="1844.0889">redraw() : void</text><polygon fill="#FFFF44" points="424.5,1852.0391,428.5,1856.0391,424.5,1860.0391,420.5,1856.0391" style="stroke:#B38D22;stroke-width:1.0;"/><text fill="#000000" font-family="sans-serif" font-size="14" lengthAdjust="spacing" textLength="180" x="433.5" y="1860.3857">setA11YProperties() : void</text><polygon fill="#FFFF44" points="424.5,1868.3359,428.5,1872.3359,424.5,1876.3359,420.5,1872.3359" style="stroke:#B38D22;stroke-width:1.0;"/><text fill="#000000" font-family="sans-serif" font-size="14" lengthAdjust="spacing" textLength="138" x="433.5" y="1876.6826">setCallbacks() : void</text><polygon fill="#FFFF44" points="424.5,1884.6328,428.5,1888.6328,424.5,1892.6328,420.5,1888.6328" style="stroke:#B38D22;stroke-width:1.0;"/><text fill="#000000" font-family="sans-serif" font-size="14" lengthAdjust="spacing" textLength="169" x="433.5" y="1892.9795">setHtmlElements() : void</text><polygon fill="#FFFF44" points="424.5,1900.9297,428.5,1904.9297,424.5,1908.9297,420.5,1904.9297" style="stroke:#B38D22;stroke-width:1.0;"/><text fill="#000000" font-family="sans-serif" font-size="14" lengthAdjust="spacing" textLength="569" x="433.5" y="1909.2764">triggerPlatformEventCallback(platFormCallback: OSGeneric, args: unknown[]) : void</text><polygon fill="#FFFF44" points="424.5,1917.2266,428.5,1921.2266,424.5,1925.2266,420.5,1921.2266" style="stroke:#B38D22;stroke-width:1.0;"/><text fill="#000000" font-family="sans-serif" font-size="14" lengthAdjust="spacing" textLength="311" x="433.5" y="1925.5732">triggerPlatformInitializedEventCallback() : void</text><polygon fill="#FFFF44" points="424.5,1933.5234,428.5,1937.5234,424.5,1941.5234,420.5,1937.5234" style="stroke:#B38D22;stroke-width:1.0;"/><text fill="#000000" font-family="sans-serif" font-size="14" lengthAdjust="spacing" textLength="156" x="433.5" y="1941.8701">unsetCallbacks() : void</text><polygon fill="#FFFF44" points="424.5,1949.8203,428.5,1953.8203,424.5,1957.8203,420.5,1953.8203" style="stroke:#B38D22;stroke-width:1.0;"/><text fill="#000000" font-family="sans-serif" font-size="14" lengthAdjust="spacing" textLength="199" x="433.5" y="1958.167">unsetGlobalCallbacks() : void</text><polygon fill="#FFFF44" points="424.5,1966.1172,428.5,1970.1172,424.5,1974.1172,420.5,1970.1172" style="stroke:#B38D22;stroke-width:1.0;"/><text fill="#000000" font-family="sans-serif" font-size="14" lengthAdjust="spacing" textLength="187" x="433.5" y="1974.4639">unsetHtmlElements() : void</text><polygon fill="#FFFF44" points="424.5,1982.4141,428.5,1986.4141,424.5,1990.4141,420.5,1986.4141" style="stroke:#B38D22;stroke-width:1.0;"/><text fill="#000000" font-family="sans-serif" font-size="14" lengthAdjust="spacing" textLength="223" x="433.5" y="1990.7607">updatePlatformInputAttrs() : void</text><rect fill="#F24D5C" height="6" style="stroke:#C82930;stroke-width:1.0;" width="6" x="421.5" y="2000.7109"/><text fill="#000000" font-family="sans-serif" font-size="14" lengthAdjust="spacing" textLength="250" x="433.5" y="2007.0576">_getBodyOnClickGlobalEvent() : void</text><rect fill="#F24D5C" height="6" style="stroke:#C82930;stroke-width:1.0;" width="6" x="421.5" y="2017.0078"/><text fill="#000000" font-family="sans-serif" font-size="14" lengthAdjust="spacing" textLength="147" x="433.5" y="2023.3545">_setAttributes() : void</text><rect fill="#F24D5C" height="6" style="stroke:#C82930;stroke-width:1.0;" width="6" x="421.5" y="2033.3047"/><text fill="#000000" font-family="sans-serif" font-size="14" lengthAdjust="spacing" textLength="221" x="433.5" y="2039.6514">_setCalendarCssClasses() : void</text></g><!--reverse link AbstractProviderPattern<P, C> to AbstractTimePicker<P, C>--><g id="link_AbstractProviderPattern&lt;P, C&gt;_AbstractTimePicker&lt;P, C&gt;"><path codeLine="73" d="M584.2648,591.6175 C595.8748,611.4175 598.44,615.82 610,635.54 " fill="none" id="AbstractProviderPattern&lt;P, C&gt;-backto-AbstractTimePicker&lt;P, C&gt;" style="stroke:#272B30;stroke-width:1.0;"/><polygon fill="none" points="575.16,576.09,579.0889,594.6524,589.4406,588.5826,575.16,576.09" style="stroke:#272B30;stroke-width:1.0;"/></g><!--reverse link ITimePicker to AbstractTimePicker<P, C>--><g id="link_ITimePicker_AbstractTimePicker&lt;P, C&gt;"><path codeLine="94" d="M1017.1221,477.8098 C985.5321,531.5798 958.92,576.86 924.31,635.76 " fill="none" id="ITimePicker-backto-AbstractTimePicker&lt;P, C&gt;" style="stroke:#272B30;stroke-width:1.0;stroke-dasharray:7.0,7.0;"/><polygon fill="none" points="1026.24,462.29,1011.9488,474.7705,1022.2954,480.8491,1026.24,462.29" style="stroke:#272B30;stroke-width:1.0;"/></g><!--reverse link AbstractTimePicker<P, C> to OSUIFlatpickrTime--><g id="link_AbstractTimePicker&lt;P, C&gt;_OSUIFlatpickrTime"><path codeLine="144" d="M767,1191.16 C767,1210.71 767,1212.66 767,1232.77 " fill="none" id="AbstractTimePicker&lt;P, C&gt;-backto-OSUIFlatpickrTime" style="stroke:#272B30;stroke-width:1.0;"/><polygon fill="none" points="767,1173.16,761,1191.16,773,1191.16,767,1173.16" style="stroke:#272B30;stroke-width:1.0;"/></g><!--SRC=[xLXTRzis57tFho3Y5mUrYxKRC2081jXkqWf8QcD91sp34D3YbKoO8bMIikUs-U-xaYXRNvQppkdGTNbnU3_8oyl3msER9PSnrJGY4q6D6McjrXCbb2Qzbp- -d7__tOcfHeoLPg2xGwY_3BLA97DXGH2KOXfk7zWFZ9uiE0C2KMmt90AxKCoKJG47WHOwDrPJtn8_NOcSZjpuZaSmu_uIzCLiG2O_dPAF9mJ_UjpCj5hXF7fC3J1oJkPA2Q0oTyVEURa2QSqDbJG4xKbZgVG1WxrPES3vizHdyuGBrZ_3e9NYBBVv2of3m9mOjDtqO_VFMnh1ES5AkGm7fB3-GaM2vaGkfLhB-aJWBqUC0QiKOFejOJEG32Vk2lnOzEq1St3tkikj3DIMOTp4JIkyJwWmTyfxrO-fjQ2bnufTdjKQNLu1TozhKsa8kS4P9bI8EUAZ3-acgctpdU-SJ6zVWmJD_RsRC62lyIGIFAt-Ac_phgxTiXXMT6sYPC13qu-hupt7KqhCsjrThwjsW7FnzmdikZGWXguWcs7Rhkf2YMnVgjhfrXuaCQCMFCajfoAz7ttB8tXa6Yw9roxj1dxSW37OoVOURkFBu2kwwCb0dPDPQLH9xWLSShCODszIgIAyeu3C0SK9LMVGm3HTxq_6zerUlFZLNKaEfZEqm5ztr1iRYKi1KVEUzR118JB4J50RA1rbxTY2EaRh5LedJIGF2DKbjFt-H-Uqxb3v1s3L5QfP6NZsR2btlXPgJiKZTfr5j-_xOIyf5-S-ozdXIp7py9wQZVGzkL8-jLmXBM6yJABvDY0kdq-D0aPnB3YmeYcaT4f5jaj0rwncIY5EgeZ_-bwB8_3zKHZzlyVF_xFbjywMELtuAOc9drjEOtWVWitAz2I3Fw_m0KPHJZSvhEgqTrOdDcGK9chu6isyH-AVCbO5-u3iNRPKSRveVJSF9uSUWejFms67X3_X4gC3YdH_wksynGFoZ9lqAjWwyt0pHO5PjneGWJiDTBsvkxbse-8UvpUV5Ft9pMlEy3WQvgSbywO-_pnHplUpSoR1yqO16sz6CT_3RyUYyMEfSIetJyBqns3rWr8RRqG5nnUVdZ_lmh-JKzFRTzuLSbcCJfr6RILKK5Wz6ISs1RJ3zdPS0FoGsb9oak6tEETiqvdqcJfFPlcdqgndjvlSiVE1qeVtSyKsM8R0l9o2Y-gywnISSij-QU2jhvKG4nL5IevXGLTS9QbIUvU_lChmL19EPHxd4hUDdCRMOF1LQOpHneLzu2adL-RUJVrRvlmArTxH2EUmAdoYh_uf2rmoRkbSG8OVvBPYl8VOFf-J9AotT5J7oR-aGgqAGm5lySlE2WfSOWjomr6LQvdZEjhsHNz4y3MKaWiUwZzIEwVKrmGxMgSDhA8ntVWj2F2j4vDzuqPt6UE_mahgSlHlA_93Chn3Utz3WlkGokuvK9NVcP6rshG8xd7h2rCFJ8y59-3pn89fSMAXIBTKJup9VWW7qwg6cxzLvqAu-Sx_1G00]--></g></svg>