<?xml version="1.0" encoding="us-ascii" standalone="no"?><svg xmlns="http://www.w3.org/2000/svg" xmlns:xlink="http://www.w3.org/1999/xlink" contentStyleType="text/css" height="739px" preserveAspectRatio="none" style="width:761px;height:739px;background:#CED4DA;" version="1.1" viewBox="0 0 761 739" width="761px" zoomAndPan="magnify"><defs/><g><rect fill="#CED4DA" height="739" style="stroke:none;stroke-width:1.0;" width="761" x="0" y="0"/><!--class AbstractEvent<T>--><g id="elem_AbstractEvent&lt;T&gt;"><rect codeLine="7" fill="#FFFFFF" height="179.9063" id="AbstractEvent&lt;T&gt;" rx="2.5" ry="2.5" style="stroke:#272B30;stroke-width:0.5;" width="314" x="232" y="246.9"/><ellipse cx="322.25" cy="262.9" fill="#A9DCDF" rx="11" ry="11" style="stroke:#181818;stroke-width:1.0;"/><path d="M322.1133,258.2481 L320.9595,263.3199 L323.2754,263.3199 Z M320.6191,256.0069 L323.6157,256.0069 L326.9609,268.4 L324.5122,268.4 L323.7485,265.337 L320.4697,265.337 L319.7227,268.4 L317.2739,268.4 Z " fill="#000000"/><text fill="#000000" font-family="sans-serif" font-size="14" font-style="italic" lengthAdjust="spacing" textLength="125" x="342.75" y="268.191">AbstractEvent&lt;T&gt;</text><line style="stroke:#272B30;stroke-width:0.5;" x1="233" x2="545" y1="278.9" y2="278.9"/><rect fill="none" height="6" style="stroke:#C82930;stroke-width:1.0;" width="6" x="240" y="289.6441"/><text fill="#000000" font-family="sans-serif" font-size="14" lengthAdjust="spacing" textLength="160" x="252" y="296.4352">_handlers : OSGeneric[]</text><line style="stroke:#272B30;stroke-width:0.5;" x1="233" x2="545" y1="303.3883" y2="303.3883"/><ellipse cx="243" cy="317.1324" fill="#84BE84" rx="3" ry="3" style="stroke:#038048;stroke-width:1.0;"/><text fill="#000000" font-family="sans-serif" font-size="14" font-style="italic" lengthAdjust="spacing" textLength="114" x="252" y="320.9234">addEvent() : void</text><ellipse cx="243" cy="333.6207" fill="#84BE84" rx="3" ry="3" style="stroke:#038048;stroke-width:1.0;"/><text fill="#000000" font-family="sans-serif" font-size="14" lengthAdjust="spacing" textLength="263" x="252" y="337.4117">addHandler(handler: OSGeneric) : void</text><ellipse cx="243" cy="350.109" fill="#84BE84" rx="3" ry="3" style="stroke:#038048;stroke-width:1.0;"/><text fill="#000000" font-family="sans-serif" font-size="14" lengthAdjust="spacing" textLength="288" x="252" y="353.9">hasHandler(handler: OSGeneric) : boolean</text><ellipse cx="243" cy="366.5973" fill="#84BE84" rx="3" ry="3" style="stroke:#038048;stroke-width:1.0;"/><text fill="#000000" font-family="sans-serif" font-size="14" lengthAdjust="spacing" textLength="163" x="252" y="370.3883">hasHandlers() : boolean</text><ellipse cx="243" cy="383.0855" fill="#84BE84" rx="3" ry="3" style="stroke:#038048;stroke-width:1.0;"/><text fill="#000000" font-family="sans-serif" font-size="14" font-style="italic" lengthAdjust="spacing" textLength="139" x="252" y="386.8766">removeEvent() : void</text><ellipse cx="243" cy="399.5738" fill="#84BE84" rx="3" ry="3" style="stroke:#038048;stroke-width:1.0;"/><text fill="#000000" font-family="sans-serif" font-size="14" lengthAdjust="spacing" textLength="288" x="252" y="403.3648">removeHandler(handler: OSGeneric) : void</text><ellipse cx="243" cy="416.0621" fill="#84BE84" rx="3" ry="3" style="stroke:#038048;stroke-width:1.0;"/><text fill="#000000" font-family="sans-serif" font-size="14" lengthAdjust="spacing" textLength="265" x="252" y="419.8531">trigger(data: T, args: unknown[]) : void</text></g><!--class IEvent<T>--><g id="elem_IEvent&lt;T&gt;"><rect codeLine="17" fill="#FFFFFF" height="179.9063" id="IEvent&lt;T&gt;" rx="2.5" ry="2.5" style="stroke:#272B30;stroke-width:0.5;" width="369" x="204.5" y="7"/><ellipse cx="348.75" cy="23" fill="#B4A7E5" rx="11" ry="11" style="stroke:#181818;stroke-width:1.0;"/><path d="M345.1777,19.2651 L345.1777,17.1069 L352.5571,17.1069 L352.5571,19.2651 L350.0918,19.2651 L350.0918,27.3418 L352.5571,27.3418 L352.5571,29.5 L345.1777,29.5 L345.1777,27.3418 L347.6431,27.3418 L347.6431,19.2651 Z " fill="#000000"/><text fill="#000000" font-family="sans-serif" font-size="14" font-style="italic" lengthAdjust="spacing" textLength="72" x="369.25" y="28.291">IEvent&lt;T&gt;</text><line style="stroke:#272B30;stroke-width:0.5;" x1="205.5" x2="572.5" y1="39" y2="39"/><ellipse cx="215.5" cy="52.7441" fill="none" rx="3" ry="3" style="stroke:#038048;stroke-width:1.0;"/><text fill="#000000" font-family="sans-serif" font-size="14" lengthAdjust="spacing" textLength="153" x="224.5" y="56.5352">handlers : OSGeneric[]</text><line style="stroke:#272B30;stroke-width:0.5;" x1="205.5" x2="572.5" y1="63.4883" y2="63.4883"/><ellipse cx="215.5" cy="77.2324" fill="#84BE84" rx="3" ry="3" style="stroke:#038048;stroke-width:1.0;"/><text fill="#000000" font-family="sans-serif" font-size="14" lengthAdjust="spacing" textLength="114" x="224.5" y="81.0234">addEvent() : void</text><ellipse cx="215.5" cy="93.7207" fill="#84BE84" rx="3" ry="3" style="stroke:#038048;stroke-width:1.0;"/><text fill="#000000" font-family="sans-serif" font-size="14" lengthAdjust="spacing" textLength="343" x="224.5" y="97.5117">addHandler(handler: OSGeneric, args: any[]) : void</text><ellipse cx="215.5" cy="110.209" fill="#84BE84" rx="3" ry="3" style="stroke:#038048;stroke-width:1.0;"/><text fill="#000000" font-family="sans-serif" font-size="14" lengthAdjust="spacing" textLength="288" x="224.5" y="114">hasHandler(handler: OSGeneric) : boolean</text><ellipse cx="215.5" cy="126.6973" fill="#84BE84" rx="3" ry="3" style="stroke:#038048;stroke-width:1.0;"/><text fill="#000000" font-family="sans-serif" font-size="14" lengthAdjust="spacing" textLength="163" x="224.5" y="130.4883">hasHandlers() : boolean</text><ellipse cx="215.5" cy="143.1855" fill="#84BE84" rx="3" ry="3" style="stroke:#038048;stroke-width:1.0;"/><text fill="#000000" font-family="sans-serif" font-size="14" lengthAdjust="spacing" textLength="139" x="224.5" y="146.9766">removeEvent() : void</text><ellipse cx="215.5" cy="159.6738" fill="#84BE84" rx="3" ry="3" style="stroke:#038048;stroke-width:1.0;"/><text fill="#000000" font-family="sans-serif" font-size="14" lengthAdjust="spacing" textLength="288" x="224.5" y="163.4648">removeHandler(handler: OSGeneric) : void</text><ellipse cx="215.5" cy="176.1621" fill="#84BE84" rx="3" ry="3" style="stroke:#038048;stroke-width:1.0;"/><text fill="#000000" font-family="sans-serif" font-size="14" lengthAdjust="spacing" textLength="300" x="224.5" y="179.9531">trigger(data: T, args: unknown[]) : unknown</text></g><!--class AbstractListener<T>--><g id="elem_AbstractListener&lt;T&gt;"><rect codeLine="28" fill="#FFFFFF" height="245.8594" id="AbstractListener&lt;T&gt;" rx="2.5" ry="2.5" style="stroke:#272B30;stroke-width:0.5;" width="370" x="9" y="486.81"/><ellipse cx="118.75" cy="502.81" fill="#A9DCDF" rx="11" ry="11" style="stroke:#181818;stroke-width:1.0;"/><path d="M118.6133,498.1581 L117.4595,503.2299 L119.7754,503.2299 Z M117.1191,495.9169 L120.1157,495.9169 L123.4609,508.31 L121.0122,508.31 L120.2485,505.247 L116.9697,505.247 L116.2227,508.31 L113.7739,508.31 Z " fill="#000000"/><text fill="#000000" font-family="sans-serif" font-size="14" font-style="italic" lengthAdjust="spacing" textLength="142" x="139.25" y="508.101">AbstractListener&lt;T&gt;</text><line style="stroke:#272B30;stroke-width:0.5;" x1="10" x2="378" y1="518.81" y2="518.81"/><polygon fill="none" points="20,527.5541,24,531.5541,20,535.5541,16,531.5541" style="stroke:#B38D22;stroke-width:1.0;"/><text fill="#000000" font-family="sans-serif" font-size="14" lengthAdjust="spacing" textLength="242" x="29" y="536.3452">eventCallback : EventListenerObject</text><polygon fill="none" points="20,544.0424,24,548.0424,20,552.0424,16,548.0424" style="stroke:#B38D22;stroke-width:1.0;"/><text fill="#000000" font-family="sans-serif" font-size="14" lengthAdjust="spacing" textLength="147" x="29" y="552.8334">useCapture : boolean</text><rect fill="none" height="6" style="stroke:#C82930;stroke-width:1.0;" width="6" x="17" y="562.5307"/><text fill="#000000" font-family="sans-serif" font-size="14" lengthAdjust="spacing" textLength="135" x="29" y="569.3217">_eventName : string</text><rect fill="none" height="6" style="stroke:#C82930;stroke-width:1.0;" width="6" x="17" y="579.019"/><text fill="#000000" font-family="sans-serif" font-size="14" lengthAdjust="spacing" textLength="344" x="29" y="585.81">_eventTarget : HTMLElement | Document | Window</text><rect fill="none" height="6" style="stroke:#C82930;stroke-width:1.0;" width="6" x="17" y="595.5073"/><text fill="#000000" font-family="sans-serif" font-size="14" lengthAdjust="spacing" textLength="296" x="29" y="602.2983">_eventType : HTMLEvent | BalloonOnToggle</text><line style="stroke:#272B30;stroke-width:0.5;" x1="10" x2="378" y1="609.2514" y2="609.2514"/><ellipse cx="20" cy="622.9955" fill="#84BE84" rx="3" ry="3" style="stroke:#038048;stroke-width:1.0;"/><text fill="#000000" font-family="sans-serif" font-size="14" lengthAdjust="spacing" textLength="114" x="29" y="626.7866">addEvent() : void</text><ellipse cx="20" cy="639.4838" fill="#84BE84" rx="3" ry="3" style="stroke:#038048;stroke-width:1.0;"/><text fill="#000000" font-family="sans-serif" font-size="14" lengthAdjust="spacing" textLength="263" x="29" y="643.2748">addHandler(handler: OSGeneric) : void</text><ellipse cx="20" cy="655.9721" fill="#84BE84" rx="3" ry="3" style="stroke:#038048;stroke-width:1.0;"/><text fill="#000000" font-family="sans-serif" font-size="14" lengthAdjust="spacing" textLength="288" x="29" y="659.7631">hasHandler(handler: OSGeneric) : boolean</text><ellipse cx="20" cy="672.4604" fill="#84BE84" rx="3" ry="3" style="stroke:#038048;stroke-width:1.0;"/><text fill="#000000" font-family="sans-serif" font-size="14" lengthAdjust="spacing" textLength="163" x="29" y="676.2514">hasHandlers() : boolean</text><ellipse cx="20" cy="688.9487" fill="#84BE84" rx="3" ry="3" style="stroke:#038048;stroke-width:1.0;"/><text fill="#000000" font-family="sans-serif" font-size="14" lengthAdjust="spacing" textLength="139" x="29" y="692.7397">removeEvent() : void</text><ellipse cx="20" cy="705.437" fill="#84BE84" rx="3" ry="3" style="stroke:#038048;stroke-width:1.0;"/><text fill="#000000" font-family="sans-serif" font-size="14" lengthAdjust="spacing" textLength="288" x="29" y="709.228">removeHandler(handler: OSGeneric) : void</text><ellipse cx="20" cy="721.9252" fill="#84BE84" rx="3" ry="3" style="stroke:#038048;stroke-width:1.0;"/><text fill="#000000" font-family="sans-serif" font-size="14" lengthAdjust="spacing" textLength="265" x="29" y="725.7163">trigger(data: T, args: unknown[]) : void</text></g><!--class AbstractObserver<O>--><g id="elem_AbstractObserver&lt;O&gt;"><rect codeLine="43" fill="#FFFFFF" height="229.3711" id="AbstractObserver&lt;O&gt;" rx="2.5" ry="2.5" style="stroke:#272B30;stroke-width:0.5;" width="340" x="414" y="495.05"/><ellipse cx="503.75" cy="511.05" fill="#A9DCDF" rx="11" ry="11" style="stroke:#181818;stroke-width:1.0;"/><path d="M503.6133,506.3981 L502.4595,511.4699 L504.7754,511.4699 Z M502.1191,504.1569 L505.1157,504.1569 L508.4609,516.55 L506.0122,516.55 L505.2485,513.487 L501.9697,513.487 L501.2227,516.55 L498.7739,516.55 Z " fill="#000000"/><text fill="#000000" font-family="sans-serif" font-size="14" font-style="italic" lengthAdjust="spacing" textLength="152" x="524.25" y="516.341">AbstractObserver&lt;O&gt;</text><line style="stroke:#272B30;stroke-width:0.5;" x1="415" x2="753" y1="527.05" y2="527.05"/><polygon fill="none" points="425,535.7941,429,539.7941,425,543.7941,421,539.7941" style="stroke:#B38D22;stroke-width:1.0;"/><text fill="#000000" font-family="sans-serif" font-size="14" lengthAdjust="spacing" textLength="314" x="434" y="544.5852">observer : ResizeObserver | MutationObserver</text><rect fill="none" height="6" style="stroke:#C82930;stroke-width:1.0;" width="6" x="422" y="554.2824"/><text fill="#000000" font-family="sans-serif" font-size="14" lengthAdjust="spacing" textLength="144" x="434" y="561.0734">_observerOptions : O</text><rect fill="none" height="6" style="stroke:#C82930;stroke-width:1.0;" width="6" x="422" y="570.7707"/><text fill="#000000" font-family="sans-serif" font-size="14" lengthAdjust="spacing" textLength="217" x="434" y="577.5617">_observerTarget : HTMLElement</text><line style="stroke:#272B30;stroke-width:0.5;" x1="415" x2="753" y1="584.5148" y2="584.5148"/><ellipse cx="425" cy="598.259" fill="#84BE84" rx="3" ry="3" style="stroke:#038048;stroke-width:1.0;"/><text fill="#000000" font-family="sans-serif" font-size="14" font-style="italic" lengthAdjust="spacing" textLength="114" x="434" y="602.05">addEvent() : void</text><ellipse cx="425" cy="614.7473" fill="#84BE84" rx="3" ry="3" style="stroke:#038048;stroke-width:1.0;"/><text fill="#000000" font-family="sans-serif" font-size="14" lengthAdjust="spacing" textLength="263" x="434" y="618.5383">addHandler(handler: OSGeneric) : void</text><ellipse cx="425" cy="631.2355" fill="#84BE84" rx="3" ry="3" style="stroke:#038048;stroke-width:1.0;"/><text fill="#000000" font-family="sans-serif" font-size="14" lengthAdjust="spacing" textLength="288" x="434" y="635.0266">hasHandler(handler: OSGeneric) : boolean</text><ellipse cx="425" cy="647.7238" fill="#84BE84" rx="3" ry="3" style="stroke:#038048;stroke-width:1.0;"/><text fill="#000000" font-family="sans-serif" font-size="14" lengthAdjust="spacing" textLength="163" x="434" y="651.5148">hasHandlers() : boolean</text><ellipse cx="425" cy="664.2121" fill="#84BE84" rx="3" ry="3" style="stroke:#038048;stroke-width:1.0;"/><text fill="#000000" font-family="sans-serif" font-size="14" lengthAdjust="spacing" textLength="139" x="434" y="668.0031">removeEvent() : void</text><ellipse cx="425" cy="680.7004" fill="#84BE84" rx="3" ry="3" style="stroke:#038048;stroke-width:1.0;"/><text fill="#000000" font-family="sans-serif" font-size="14" lengthAdjust="spacing" textLength="288" x="434" y="684.4914">removeHandler(handler: OSGeneric) : void</text><ellipse cx="425" cy="697.1887" fill="#84BE84" rx="3" ry="3" style="stroke:#038048;stroke-width:1.0;"/><text fill="#000000" font-family="sans-serif" font-size="14" lengthAdjust="spacing" textLength="296" x="434" y="700.9797">trigger(data: string, args: unknown[]) : void</text><polygon fill="#FFFF44" points="425,708.677,429,712.677,425,716.677,421,712.677" style="stroke:#B38D22;stroke-width:1.0;"/><text fill="#000000" font-family="sans-serif" font-size="14" lengthAdjust="spacing" textLength="144" x="434" y="717.468">startObserver() : void</text></g><!--reverse link IEvent<T> to AbstractEvent<T>--><g id="link_IEvent&lt;T&gt;_AbstractEvent&lt;T&gt;"><path codeLine="27" d="M389,205.22 C389,224.6 389,227.1 389,246.49 " fill="none" id="IEvent&lt;T&gt;-backto-AbstractEvent&lt;T&gt;" style="stroke:#272B30;stroke-width:1.0;stroke-dasharray:7.0,7.0;"/><polygon fill="none" points="389,187.22,383,205.22,395,205.22,389,187.22" style="stroke:#272B30;stroke-width:1.0;"/></g><!--reverse link AbstractEvent<T> to AbstractListener<T>--><g id="link_AbstractEvent&lt;T&gt;_AbstractListener&lt;T&gt;"><path codeLine="42" d="M314.0895,441.9154 C300.4395,460.8654 296.34,466.58 281.99,486.51 " fill="none" id="AbstractEvent&lt;T&gt;-backto-AbstractListener&lt;T&gt;" style="stroke:#272B30;stroke-width:1.0;"/><polygon fill="none" points="324.61,427.31,309.221,438.4086,318.9579,445.4223,324.61,427.31" style="stroke:#272B30;stroke-width:1.0;"/></g><!--reverse link AbstractEvent<T> to AbstractObserver<O>--><g id="link_AbstractEvent&lt;T&gt;_AbstractObserver&lt;O&gt;"><path codeLine="56" d="M463.9073,441.9177 C479.4373,463.4877 485.72,472.22 501.94,494.75 " fill="none" id="AbstractEvent&lt;T&gt;-backto-AbstractObserver&lt;O&gt;" style="stroke:#272B30;stroke-width:1.0;"/><polygon fill="none" points="453.39,427.31,459.0381,445.4235,468.7766,438.412,453.39,427.31" style="stroke:#272B30;stroke-width:1.0;"/></g><!--SRC=[tLHTQzim57tFhn3fIqgNCjh188H1cvMsqDQm6lPGIhcshXqjicGasI5h-jyhstAdU4xOIZV6_6JVS-w7pxcINZ2HWuACp3XeVQAKNCuabuhi7NqyYexV3_GcurGgYcet1U95gcGXgACbIU9nVe9Zf1ye3EQC8i4iDokIePbBglrGmf3R24JQA8WDYQjEP7ZYlizA56OQVXgInm6np_XX3e9oL9fCI71xZW8LY-_kQ_2nhV943e3IEdUqRucbPBHcLE6Bfi385VBAR5Bde7TJ8oavWkYozQWB-dCfp6I9VQCroAzEPnHBKykZO612mdS4LAedf10B8PVYxlw5_JHWmg1A84OolEpgUR13pbTfs0u2OkKDySQ2_bKLtOSLqfTlkZuyx5dJhOjynRIf9l2qtyCgQmQSH_Res4vrbPOOHDymDWsnq3Y3t1GAEqAC7-eQDv1LYEt4HEe3eVqVD1Qw2A-lpZXcDaRMvBEC2_VwbGagbnivgnpRZB8XdTePfHI126MQSdpzTlmN2-6ELSyTDLsFn_sMRzsB8DAeIaiAVko5T37RwmjgzXrRahNYkZ1WcFN2XPnpRKgGLs1zcZj8tohyqxVc7_AqEIJRZQqTq0RKYpMZtp7Tz_CP]--></g></svg>