<?xml version="1.0" encoding="us-ascii" standalone="no"?><svg xmlns="http://www.w3.org/2000/svg" xmlns:xlink="http://www.w3.org/1999/xlink" contentStyleType="text/css" height="1340px" preserveAspectRatio="none" style="width:1236px;height:1340px;background:#CED4DA;" version="1.1" viewBox="0 0 1236 1340" width="1236px" zoomAndPan="magnify"><defs/><g><rect fill="#CED4DA" height="1340" style="stroke:none;stroke-width:1.0;" width="1236" x="0" y="0"/><!--class AccordionItem--><g id="elem_AccordionItem"><rect codeLine="7" fill="#FFFFFF" height="872.4141" id="AccordionItem" rx="2.5" ry="2.5" style="stroke:#272B30;stroke-width:0.5;" width="677" x="323" y="461.26"/><ellipse cx="607.25" cy="477.26" fill="#ADD1B2" rx="11" ry="11" style="stroke:#181818;stroke-width:1.0;"/><path d="M609.7231,483.4031 Q609.1421,483.7019 608.5029,483.8513 Q607.8638,484.0007 607.1582,484.0007 Q604.6514,484.0007 603.3315,482.3489 Q602.0117,480.697 602.0117,477.5759 Q602.0117,474.4465 603.3315,472.7947 Q604.6514,471.1428 607.1582,471.1428 Q607.8638,471.1428 608.5112,471.2922 Q609.1587,471.4416 609.7231,471.7405 L609.7231,474.4631 Q609.0923,473.8821 608.4988,473.6123 Q607.9053,473.3425 607.2744,473.3425 Q605.9297,473.3425 605.2449,474.4092 Q604.5601,475.4758 604.5601,477.5759 Q604.5601,479.6677 605.2449,480.7344 Q605.9297,481.801 607.2744,481.801 Q607.9053,481.801 608.4988,481.5312 Q609.0923,481.2615 609.7231,480.6804 Z " fill="#000000"/><text fill="#000000" font-family="sans-serif" font-size="14" lengthAdjust="spacing" textLength="100" x="627.75" y="482.551">AccordionItem</text><line style="stroke:#272B30;stroke-width:0.5;" x1="324" x2="999" y1="493.26" y2="493.26"/><polygon fill="none" points="334,502.0041,338,506.0041,334,510.0041,330,506.0041" style="stroke:#B38D22;stroke-width:1.0;"/><text fill="#000000" font-family="sans-serif" font-size="14" lengthAdjust="spacing" textLength="176" x="343" y="510.7952">isProviderBased : boolean</text><rect fill="none" height="6" style="stroke:#C82930;stroke-width:1.0;" width="6" x="331" y="520.4924"/><text fill="#000000" font-family="sans-serif" font-size="14" lengthAdjust="spacing" textLength="298" x="343" y="527.2834">_accordionItemContentElem : HTMLElement</text><rect fill="none" height="6" style="stroke:#C82930;stroke-width:1.0;" width="6" x="331" y="536.9807"/><text fill="#000000" font-family="sans-serif" font-size="14" lengthAdjust="spacing" textLength="325" x="343" y="543.7717">_accordionItemIconCustomElem : HTMLElement</text><rect fill="none" height="6" style="stroke:#C82930;stroke-width:1.0;" width="6" x="331" y="553.469"/><text fill="#000000" font-family="sans-serif" font-size="14" lengthAdjust="spacing" textLength="272" x="343" y="560.26">_accordionItemIconElem : HTMLElement</text><rect fill="none" height="6" style="stroke:#C82930;stroke-width:1.0;" width="6" x="331" y="569.9573"/><text fill="#000000" font-family="sans-serif" font-size="14" lengthAdjust="spacing" textLength="290" x="343" y="576.7483">_accordionItemPlaceholder : HTMLElement</text><rect fill="none" height="6" style="stroke:#C82930;stroke-width:1.0;" width="6" x="331" y="586.4455"/><text fill="#000000" font-family="sans-serif" font-size="14" lengthAdjust="spacing" textLength="273" x="343" y="593.2366">_accordionItemTitleElem : HTMLElement</text><rect fill="none" height="6" style="stroke:#C82930;stroke-width:1.0;" width="6" x="331" y="602.9338"/><text fill="#000000" font-family="sans-serif" font-size="14" lengthAdjust="spacing" textLength="348" x="343" y="609.7248">_accordionTitleFocusableChildren : HTMLElement[]</text><rect fill="none" height="6" style="stroke:#C82930;stroke-width:1.0;" width="6" x="331" y="619.4221"/><text fill="#000000" font-family="sans-serif" font-size="14" lengthAdjust="spacing" textLength="185" x="343" y="626.2131">_allowTitleEvents : boolean</text><rect fill="none" height="6" style="stroke:#C82930;stroke-width:1.0;" width="6" x="331" y="635.9104"/><text fill="#000000" font-family="sans-serif" font-size="14" lengthAdjust="spacing" textLength="183" x="343" y="642.7014">_collapsedHeight : number</text><rect fill="none" height="6" style="stroke:#C82930;stroke-width:1.0;" width="6" x="331" y="652.3987"/><text fill="#000000" font-family="sans-serif" font-size="14" lengthAdjust="spacing" textLength="161" x="343" y="659.1897">_eventOnClick : Generic</text><rect fill="none" height="6" style="stroke:#C82930;stroke-width:1.0;" width="6" x="331" y="668.887"/><text fill="#000000" font-family="sans-serif" font-size="14" lengthAdjust="spacing" textLength="187" x="343" y="675.678">_eventOnkeyPress : Generic</text><rect fill="none" height="6" style="stroke:#C82930;stroke-width:1.0;" width="6" x="331" y="685.3752"/><text fill="#000000" font-family="sans-serif" font-size="14" lengthAdjust="spacing" textLength="224" x="343" y="692.1663">_eventOnTransitionEnd : Generic</text><rect fill="none" height="6" style="stroke:#C82930;stroke-width:1.0;" width="6" x="331" y="701.8635"/><text fill="#000000" font-family="sans-serif" font-size="14" lengthAdjust="spacing" textLength="187" x="343" y="708.6545">_expandedHeight : number</text><rect fill="none" height="6" style="stroke:#C82930;stroke-width:1.0;" width="6" x="331" y="718.3518"/><text fill="#000000" font-family="sans-serif" font-size="14" lengthAdjust="spacing" textLength="123" x="343" y="725.1428">_isOpen : boolean</text><rect fill="none" height="6" style="stroke:#C82930;stroke-width:1.0;" width="6" x="331" y="734.8401"/><text fill="#000000" font-family="sans-serif" font-size="14" lengthAdjust="spacing" textLength="235" x="343" y="741.6311">_platformEventOnToggle : Generic</text><line style="stroke:#272B30;stroke-width:0.5;" x1="324" x2="999" y1="748.5842" y2="748.5842"/><ellipse cx="334" cy="762.3284" fill="#84BE84" rx="3" ry="3" style="stroke:#038048;stroke-width:1.0;"/><text fill="#000000" font-family="sans-serif" font-size="14" lengthAdjust="spacing" textLength="161" x="343" y="766.1194">allowTitleEvents() : void</text><ellipse cx="334" cy="778.8166" fill="#84BE84" rx="3" ry="3" style="stroke:#038048;stroke-width:1.0;"/><text fill="#000000" font-family="sans-serif" font-size="14" lengthAdjust="spacing" textLength="86" x="343" y="782.6077">build() : void</text><ellipse cx="334" cy="795.3049" fill="#84BE84" rx="3" ry="3" style="stroke:#038048;stroke-width:1.0;"/><text fill="#000000" font-family="sans-serif" font-size="14" lengthAdjust="spacing" textLength="482" x="343" y="799.0959">changeProperty(propertyName: string, propertyValue: unknown) : void</text><ellipse cx="334" cy="811.7932" fill="#84BE84" rx="3" ry="3" style="stroke:#038048;stroke-width:1.0;"/><text fill="#000000" font-family="sans-serif" font-size="14" lengthAdjust="spacing" textLength="86" x="343" y="815.5842">close() : void</text><ellipse cx="334" cy="828.2815" fill="#84BE84" rx="3" ry="3" style="stroke:#038048;stroke-width:1.0;"/><text fill="#000000" font-family="sans-serif" font-size="14" lengthAdjust="spacing" textLength="104" x="343" y="832.0725">dispose() : void</text><ellipse cx="334" cy="844.7698" fill="#84BE84" rx="3" ry="3" style="stroke:#038048;stroke-width:1.0;"/><text fill="#000000" font-family="sans-serif" font-size="14" lengthAdjust="spacing" textLength="266" x="343" y="848.5608">equalsToID(patternId: string) : boolean</text><ellipse cx="334" cy="861.258" fill="#84BE84" rx="3" ry="3" style="stroke:#038048;stroke-width:1.0;"/><text fill="#000000" font-family="sans-serif" font-size="14" lengthAdjust="spacing" textLength="86" x="343" y="865.0491">open() : void</text><ellipse cx="334" cy="877.7463" fill="#84BE84" rx="3" ry="3" style="stroke:#038048;stroke-width:1.0;"/><text fill="#000000" font-family="sans-serif" font-size="14" lengthAdjust="spacing" textLength="428" x="343" y="881.5373">registerCallback(eventName: string, callback: OSGeneric) : void</text><polygon fill="#FFFF44" points="334,889.2346,338,893.2346,334,897.2346,330,893.2346" style="stroke:#B38D22;stroke-width:1.0;"/><text fill="#000000" font-family="sans-serif" font-size="14" lengthAdjust="spacing" textLength="123" x="343" y="898.0256">finishBuild() : void</text><polygon fill="#FFFF44" points="334,905.7229,338,909.7229,334,913.7229,330,909.7229" style="stroke:#B38D22;stroke-width:1.0;"/><text fill="#000000" font-family="sans-serif" font-size="14" lengthAdjust="spacing" textLength="257" x="343" y="914.5139">notifyParent(actionType: string) : void</text><polygon fill="#FFFF44" points="334,922.2112,338,926.2112,334,930.2112,330,926.2112" style="stroke:#B38D22;stroke-width:1.0;"/><text fill="#000000" font-family="sans-serif" font-size="14" lengthAdjust="spacing" textLength="178" x="343" y="931.0022">setA11YProperties() : void</text><polygon fill="#FFFF44" points="334,938.6995,338,942.6995,334,946.6995,330,942.6995" style="stroke:#B38D22;stroke-width:1.0;"/><text fill="#000000" font-family="sans-serif" font-size="14" lengthAdjust="spacing" textLength="136" x="343" y="947.4905">setCallbacks() : void</text><polygon fill="#FFFF44" points="334,955.1877,338,959.1877,334,963.1877,330,959.1877" style="stroke:#B38D22;stroke-width:1.0;"/><text fill="#000000" font-family="sans-serif" font-size="14" lengthAdjust="spacing" textLength="165" x="343" y="963.9788">setHtmlElements() : void</text><polygon fill="#FFFF44" points="334,971.676,338,975.676,334,979.676,330,975.676" style="stroke:#B38D22;stroke-width:1.0;"/><text fill="#000000" font-family="sans-serif" font-size="14" lengthAdjust="spacing" textLength="184" x="343" y="980.467">setInitialCssClasses() : void</text><polygon fill="#FFFF44" points="334,988.1643,338,992.1643,334,996.1643,330,992.1643" style="stroke:#B38D22;stroke-width:1.0;"/><text fill="#000000" font-family="sans-serif" font-size="14" lengthAdjust="spacing" textLength="651" x="343" y="996.9553">setParentInfo(parentSelector: string, getPatternByIdAPI: Function, canBeOrphan: boolean) : void</text><polygon fill="#FFFF44" points="334,1004.6526,338,1008.6526,334,1012.6526,330,1008.6526" style="stroke:#B38D22;stroke-width:1.0;"/><text fill="#000000" font-family="sans-serif" font-size="14" lengthAdjust="spacing" textLength="570" x="343" y="1013.4436">triggerPlatformEventCallback(platFormCallback: OSGeneric, args: unknown[]) : void</text><polygon fill="#FFFF44" points="334,1021.1409,338,1025.1409,334,1029.1409,330,1025.1409" style="stroke:#B38D22;stroke-width:1.0;"/><text fill="#000000" font-family="sans-serif" font-size="14" lengthAdjust="spacing" textLength="318" x="343" y="1029.9319">triggerPlatformInitializedEventCallback() : void</text><polygon fill="#FFFF44" points="334,1037.6291,338,1041.6291,334,1045.6291,330,1041.6291" style="stroke:#B38D22;stroke-width:1.0;"/><text fill="#000000" font-family="sans-serif" font-size="14" lengthAdjust="spacing" textLength="154" x="343" y="1046.4202">unsetCallbacks() : void</text><polygon fill="#FFFF44" points="334,1054.1174,338,1058.1174,334,1062.1174,330,1058.1174" style="stroke:#B38D22;stroke-width:1.0;"/><text fill="#000000" font-family="sans-serif" font-size="14" lengthAdjust="spacing" textLength="198" x="343" y="1062.9084">unsetGlobalCallbacks() : void</text><polygon fill="#FFFF44" points="334,1070.6057,338,1074.6057,334,1078.6057,330,1074.6057" style="stroke:#B38D22;stroke-width:1.0;"/><text fill="#000000" font-family="sans-serif" font-size="14" lengthAdjust="spacing" textLength="183" x="343" y="1079.3967">unsetHtmlElements() : void</text><rect fill="#F24D5C" height="6" style="stroke:#C82930;stroke-width:1.0;" width="6" x="331" y="1089.094"/><text fill="#000000" font-family="sans-serif" font-size="14" lengthAdjust="spacing" textLength="360" x="343" y="1095.885">_accordionOnClickHandler(event: MouseEvent) : void</text><rect fill="#F24D5C" height="6" style="stroke:#C82930;stroke-width:1.0;" width="6" x="331" y="1105.5823"/><text fill="#000000" font-family="sans-serif" font-size="14" lengthAdjust="spacing" textLength="128" x="343" y="1112.3733">_addEvents() : void</text><rect fill="#F24D5C" height="6" style="stroke:#C82930;stroke-width:1.0;" width="6" x="331" y="1122.0705"/><text fill="#000000" font-family="sans-serif" font-size="14" lengthAdjust="spacing" textLength="294" x="343" y="1128.8616">_animationAsync(isExpand: boolean) : void</text><rect fill="#F24D5C" height="6" style="stroke:#C82930;stroke-width:1.0;" width="6" x="331" y="1138.5588"/><text fill="#000000" font-family="sans-serif" font-size="14" lengthAdjust="spacing" textLength="240" x="343" y="1145.3498">_changeClikableTargetArea() : void</text><rect fill="#F24D5C" height="6" style="stroke:#C82930;stroke-width:1.0;" width="6" x="331" y="1155.0471"/><text fill="#000000" font-family="sans-serif" font-size="14" lengthAdjust="spacing" textLength="170" x="343" y="1161.8381">_handleTabIndex() : void</text><rect fill="#F24D5C" height="6" style="stroke:#C82930;stroke-width:1.0;" width="6" x="331" y="1171.5354"/><text fill="#000000" font-family="sans-serif" font-size="14" lengthAdjust="spacing" textLength="324" x="343" y="1178.3264">_onKeyboardPress(event: KeyboardEvent) : void</text><rect fill="#F24D5C" height="6" style="stroke:#C82930;stroke-width:1.0;" width="6" x="331" y="1188.0237"/><text fill="#000000" font-family="sans-serif" font-size="14" lengthAdjust="spacing" textLength="182" x="343" y="1194.8147">_onToggleCallback() : void</text><rect fill="#F24D5C" height="6" style="stroke:#C82930;stroke-width:1.0;" width="6" x="331" y="1204.512"/><text fill="#000000" font-family="sans-serif" font-size="14" lengthAdjust="spacing" textLength="207" x="343" y="1211.303">_removeA11Properties() : void</text><rect fill="#F24D5C" height="6" style="stroke:#C82930;stroke-width:1.0;" width="6" x="331" y="1221.0002"/><text fill="#000000" font-family="sans-serif" font-size="14" lengthAdjust="spacing" textLength="153" x="343" y="1227.7913">_removeEvents() : void</text><rect fill="#F24D5C" height="6" style="stroke:#C82930;stroke-width:1.0;" width="6" x="331" y="1237.4885"/><text fill="#000000" font-family="sans-serif" font-size="14" lengthAdjust="spacing" textLength="209" x="343" y="1244.2795">_setA11ToogleElement() : void</text><rect fill="#F24D5C" height="6" style="stroke:#C82930;stroke-width:1.0;" width="6" x="331" y="1253.9768"/><text fill="#000000" font-family="sans-serif" font-size="14" lengthAdjust="spacing" textLength="192" x="343" y="1260.7678">_setAccordionParent() : void</text><rect fill="#F24D5C" height="6" style="stroke:#C82930;stroke-width:1.0;" width="6" x="331" y="1270.4651"/><text fill="#000000" font-family="sans-serif" font-size="14" lengthAdjust="spacing" textLength="162" x="343" y="1277.2561">_setIconPosition() : void</text><rect fill="#F24D5C" height="6" style="stroke:#C82930;stroke-width:1.0;" width="6" x="331" y="1286.9534"/><text fill="#000000" font-family="sans-serif" font-size="14" lengthAdjust="spacing" textLength="140" x="343" y="1293.7444">_setIconType() : void</text><rect fill="#F24D5C" height="6" style="stroke:#C82930;stroke-width:1.0;" width="6" x="331" y="1303.4416"/><text fill="#000000" font-family="sans-serif" font-size="14" lengthAdjust="spacing" textLength="182" x="343" y="1310.2327">_setIsDisabledState() : void</text><rect fill="#F24D5C" height="6" style="stroke:#C82930;stroke-width:1.0;" width="6" x="331" y="1319.9299"/><text fill="#000000" font-family="sans-serif" font-size="14" lengthAdjust="spacing" textLength="204" x="343" y="1326.7209">_transitionEndHandler() : void</text></g><!--class AbstractChild<AccordionItemConfig, IAccordion>--><g id="elem_AbstractChild&lt;AccordionItemConfig, IAccordion&gt;"><rect codeLine="59" fill="#FFFFFF" height="394.2539" id="AbstractChild&lt;AccordionItemConfig, IAccordion&gt;" rx="2.5" ry="2.5" style="stroke:#272B30;stroke-width:0.5;" width="677" x="9" y="7"/><ellipse cx="171.75" cy="23" fill="#A9DCDF" rx="11" ry="11" style="stroke:#181818;stroke-width:1.0;"/><path d="M171.6133,18.3481 L170.4595,23.4199 L172.7754,23.4199 Z M170.1191,16.1069 L173.1157,16.1069 L176.4609,28.5 L174.0122,28.5 L173.2485,25.437 L169.9697,25.437 L169.2227,28.5 L166.7739,28.5 Z " fill="#000000"/><text fill="#000000" font-family="sans-serif" font-size="14" font-style="italic" lengthAdjust="spacing" textLength="343" x="192.25" y="28.291">AbstractChild&lt;AccordionItemConfig, IAccordion&gt;</text><line style="stroke:#272B30;stroke-width:0.5;" x1="10" x2="685" y1="39" y2="39"/><polygon fill="none" points="20,47.7441,24,51.7441,20,55.7441,16,51.7441" style="stroke:#B38D22;stroke-width:1.0;"/><text fill="#000000" font-family="sans-serif" font-size="14" lengthAdjust="spacing" textLength="176" x="29" y="56.5352">isProviderBased : boolean</text><rect fill="none" height="6" style="stroke:#C82930;stroke-width:1.0;" width="6" x="17" y="66.2324"/><text fill="#000000" font-family="sans-serif" font-size="14" lengthAdjust="spacing" textLength="152" x="29" y="73.0234">_isFirstChild : boolean</text><rect fill="none" height="6" style="stroke:#C82930;stroke-width:1.0;" width="6" x="17" y="82.7207"/><text fill="#000000" font-family="sans-serif" font-size="14" lengthAdjust="spacing" textLength="149" x="29" y="89.5117">_isLastChild : boolean</text><rect fill="none" height="6" style="stroke:#C82930;stroke-width:1.0;" width="6" x="17" y="99.209"/><text fill="#000000" font-family="sans-serif" font-size="14" lengthAdjust="spacing" textLength="117" x="29" y="106">_parentId : string</text><rect fill="none" height="6" style="stroke:#C82930;stroke-width:1.0;" width="6" x="17" y="115.6973"/><text fill="#000000" font-family="sans-serif" font-size="14" lengthAdjust="spacing" textLength="182" x="29" y="122.4883">_parentObject : IAccordion</text><line style="stroke:#272B30;stroke-width:0.5;" x1="10" x2="685" y1="129.4414" y2="129.4414"/><ellipse cx="20" cy="143.1855" fill="#84BE84" rx="3" ry="3" style="stroke:#038048;stroke-width:1.0;"/><text fill="#000000" font-family="sans-serif" font-size="14" lengthAdjust="spacing" textLength="86" x="29" y="146.9766">build() : void</text><ellipse cx="20" cy="159.6738" fill="#84BE84" rx="3" ry="3" style="stroke:#038048;stroke-width:1.0;"/><text fill="#000000" font-family="sans-serif" font-size="14" lengthAdjust="spacing" textLength="482" x="29" y="163.4648">changeProperty(propertyName: string, propertyValue: unknown) : void</text><ellipse cx="20" cy="176.1621" fill="#84BE84" rx="3" ry="3" style="stroke:#038048;stroke-width:1.0;"/><text fill="#000000" font-family="sans-serif" font-size="14" lengthAdjust="spacing" textLength="104" x="29" y="179.9531">dispose() : void</text><ellipse cx="20" cy="192.6504" fill="#84BE84" rx="3" ry="3" style="stroke:#038048;stroke-width:1.0;"/><text fill="#000000" font-family="sans-serif" font-size="14" lengthAdjust="spacing" textLength="266" x="29" y="196.4414">equalsToID(patternId: string) : boolean</text><ellipse cx="20" cy="209.1387" fill="#84BE84" rx="3" ry="3" style="stroke:#038048;stroke-width:1.0;"/><text fill="#000000" font-family="sans-serif" font-size="14" lengthAdjust="spacing" textLength="428" x="29" y="212.9297">registerCallback(eventName: string, callback: OSGeneric) : void</text><polygon fill="#FFFF44" points="20,220.627,24,224.627,20,228.627,16,224.627" style="stroke:#B38D22;stroke-width:1.0;"/><text fill="#000000" font-family="sans-serif" font-size="14" lengthAdjust="spacing" textLength="123" x="29" y="229.418">finishBuild() : void</text><polygon fill="#FFFF44" points="20,237.1152,24,241.1152,20,245.1152,16,241.1152" style="stroke:#B38D22;stroke-width:1.0;"/><text fill="#000000" font-family="sans-serif" font-size="14" lengthAdjust="spacing" textLength="257" x="29" y="245.9063">notifyParent(actionType: string) : void</text><polygon fill="#FFFF44" points="20,253.6035,24,257.6035,20,261.6035,16,257.6035" style="stroke:#B38D22;stroke-width:1.0;"/><text fill="#000000" font-family="sans-serif" font-size="14" font-style="italic" lengthAdjust="spacing" textLength="178" x="29" y="262.3945">setA11YProperties() : void</text><polygon fill="#FFFF44" points="20,270.0918,24,274.0918,20,278.0918,16,274.0918" style="stroke:#B38D22;stroke-width:1.0;"/><text fill="#000000" font-family="sans-serif" font-size="14" font-style="italic" lengthAdjust="spacing" textLength="136" x="29" y="278.8828">setCallbacks() : void</text><polygon fill="#FFFF44" points="20,286.5801,24,290.5801,20,294.5801,16,290.5801" style="stroke:#B38D22;stroke-width:1.0;"/><text fill="#000000" font-family="sans-serif" font-size="14" font-style="italic" lengthAdjust="spacing" textLength="165" x="29" y="295.3711">setHtmlElements() : void</text><polygon fill="#FFFF44" points="20,303.0684,24,307.0684,20,311.0684,16,307.0684" style="stroke:#B38D22;stroke-width:1.0;"/><text fill="#000000" font-family="sans-serif" font-size="14" lengthAdjust="spacing" textLength="651" x="29" y="311.8594">setParentInfo(parentSelector: string, getPatternByIdAPI: Function, canBeOrphan: boolean) : void</text><polygon fill="#FFFF44" points="20,319.5566,24,323.5566,20,327.5566,16,323.5566" style="stroke:#B38D22;stroke-width:1.0;"/><text fill="#000000" font-family="sans-serif" font-size="14" lengthAdjust="spacing" textLength="570" x="29" y="328.3477">triggerPlatformEventCallback(platFormCallback: OSGeneric, args: unknown[]) : void</text><polygon fill="#FFFF44" points="20,336.0449,24,340.0449,20,344.0449,16,340.0449" style="stroke:#B38D22;stroke-width:1.0;"/><text fill="#000000" font-family="sans-serif" font-size="14" lengthAdjust="spacing" textLength="318" x="29" y="344.8359">triggerPlatformInitializedEventCallback() : void</text><polygon fill="#FFFF44" points="20,352.5332,24,356.5332,20,360.5332,16,356.5332" style="stroke:#B38D22;stroke-width:1.0;"/><text fill="#000000" font-family="sans-serif" font-size="14" font-style="italic" lengthAdjust="spacing" textLength="154" x="29" y="361.3242">unsetCallbacks() : void</text><polygon fill="#FFFF44" points="20,369.0215,24,373.0215,20,377.0215,16,373.0215" style="stroke:#B38D22;stroke-width:1.0;"/><text fill="#000000" font-family="sans-serif" font-size="14" lengthAdjust="spacing" textLength="198" x="29" y="377.8125">unsetGlobalCallbacks() : void</text><polygon fill="#FFFF44" points="20,385.5098,24,389.5098,20,393.5098,16,389.5098" style="stroke:#B38D22;stroke-width:1.0;"/><text fill="#000000" font-family="sans-serif" font-size="14" font-style="italic" lengthAdjust="spacing" textLength="183" x="29" y="394.3008">unsetHtmlElements() : void</text></g><!--class IAccordionItem--><g id="elem_IAccordionItem"><rect codeLine="83" fill="#FFFFFF" height="344.7891" id="IAccordionItem" rx="2.5" ry="2.5" style="stroke:#272B30;stroke-width:0.5;" width="508" x="721.5" y="31.73"/><ellipse cx="919.25" cy="47.73" fill="#B4A7E5" rx="11" ry="11" style="stroke:#181818;stroke-width:1.0;"/><path d="M915.6777,43.9951 L915.6777,41.8369 L923.0571,41.8369 L923.0571,43.9951 L920.5918,43.9951 L920.5918,52.0718 L923.0571,52.0718 L923.0571,54.23 L915.6777,54.23 L915.6777,52.0718 L918.1431,52.0718 L918.1431,43.9951 Z " fill="#000000"/><text fill="#000000" font-family="sans-serif" font-size="14" font-style="italic" lengthAdjust="spacing" textLength="104" x="939.75" y="53.021">IAccordionItem</text><line style="stroke:#272B30;stroke-width:0.5;" x1="722.5" x2="1228.5" y1="63.73" y2="63.73"/><ellipse cx="732.5" cy="77.4741" fill="none" rx="3" ry="3" style="stroke:#038048;stroke-width:1.0;"/><text fill="#000000" font-family="sans-serif" font-size="14" lengthAdjust="spacing" textLength="109" x="741.5" y="81.2652">isBuilt : boolean</text><ellipse cx="732.5" cy="93.9624" fill="none" rx="3" ry="3" style="stroke:#038048;stroke-width:1.0;"/><text fill="#000000" font-family="sans-serif" font-size="14" lengthAdjust="spacing" textLength="138" x="741.5" y="97.7534">isDisabled : boolean</text><ellipse cx="732.5" cy="110.4507" fill="none" rx="3" ry="3" style="stroke:#038048;stroke-width:1.0;"/><text fill="#000000" font-family="sans-serif" font-size="14" lengthAdjust="spacing" textLength="116" x="741.5" y="114.2417">isOpen : boolean</text><ellipse cx="732.5" cy="126.939" fill="none" rx="3" ry="3" style="stroke:#038048;stroke-width:1.0;"/><text fill="#000000" font-family="sans-serif" font-size="14" lengthAdjust="spacing" textLength="184" x="741.5" y="130.73">selfElement : HTMLElement</text><ellipse cx="732.5" cy="143.4273" fill="none" rx="3" ry="3" style="stroke:#038048;stroke-width:1.0;"/><text fill="#000000" font-family="sans-serif" font-size="14" lengthAdjust="spacing" textLength="113" x="741.5" y="147.2183">uniqueId : string</text><ellipse cx="732.5" cy="159.9155" fill="none" rx="3" ry="3" style="stroke:#038048;stroke-width:1.0;"/><text fill="#000000" font-family="sans-serif" font-size="14" lengthAdjust="spacing" textLength="111" x="741.5" y="163.7066">widgetId : string</text><line style="stroke:#272B30;stroke-width:0.5;" x1="722.5" x2="1228.5" y1="170.6597" y2="170.6597"/><ellipse cx="732.5" cy="184.4038" fill="#84BE84" rx="3" ry="3" style="stroke:#038048;stroke-width:1.0;"/><text fill="#000000" font-family="sans-serif" font-size="14" lengthAdjust="spacing" textLength="161" x="741.5" y="188.1948">allowTitleEvents() : void</text><ellipse cx="732.5" cy="200.8921" fill="#84BE84" rx="3" ry="3" style="stroke:#038048;stroke-width:1.0;"/><text fill="#000000" font-family="sans-serif" font-size="14" lengthAdjust="spacing" textLength="86" x="741.5" y="204.6831">build() : void</text><ellipse cx="732.5" cy="217.3804" fill="#84BE84" rx="3" ry="3" style="stroke:#038048;stroke-width:1.0;"/><text fill="#000000" font-family="sans-serif" font-size="14" lengthAdjust="spacing" textLength="482" x="741.5" y="221.1714">changeProperty(propertyName: string, propertyValue: unknown) : void</text><ellipse cx="732.5" cy="233.8687" fill="#84BE84" rx="3" ry="3" style="stroke:#038048;stroke-width:1.0;"/><text fill="#000000" font-family="sans-serif" font-size="14" lengthAdjust="spacing" textLength="86" x="741.5" y="237.6597">close() : void</text><ellipse cx="732.5" cy="250.357" fill="#84BE84" rx="3" ry="3" style="stroke:#038048;stroke-width:1.0;"/><text fill="#000000" font-family="sans-serif" font-size="14" lengthAdjust="spacing" textLength="104" x="741.5" y="254.148">dispose() : void</text><ellipse cx="732.5" cy="266.8452" fill="#84BE84" rx="3" ry="3" style="stroke:#038048;stroke-width:1.0;"/><text fill="#000000" font-family="sans-serif" font-size="14" lengthAdjust="spacing" textLength="216" x="741.5" y="270.6363">equalsToID(id: string) : boolean</text><ellipse cx="732.5" cy="283.3335" fill="#84BE84" rx="3" ry="3" style="stroke:#038048;stroke-width:1.0;"/><text fill="#000000" font-family="sans-serif" font-size="14" lengthAdjust="spacing" textLength="253" x="741.5" y="287.1245">open(isOpenedByApi: boolean) : void</text><ellipse cx="732.5" cy="299.8218" fill="#84BE84" rx="3" ry="3" style="stroke:#038048;stroke-width:1.0;"/><text fill="#000000" font-family="sans-serif" font-size="14" lengthAdjust="spacing" textLength="428" x="741.5" y="303.6128">registerCallback(eventName: string, callback: OSGeneric) : void</text><ellipse cx="732.5" cy="316.3101" fill="#84BE84" rx="3" ry="3" style="stroke:#038048;stroke-width:1.0;"/><text fill="#000000" font-family="sans-serif" font-size="14" lengthAdjust="spacing" textLength="98" x="741.5" y="320.1011">setBlur() : void</text><ellipse cx="732.5" cy="332.7984" fill="#84BE84" rx="3" ry="3" style="stroke:#038048;stroke-width:1.0;"/><text fill="#000000" font-family="sans-serif" font-size="14" lengthAdjust="spacing" textLength="111" x="741.5" y="336.5894">setFocus() : void</text><ellipse cx="732.5" cy="349.2866" fill="#84BE84" rx="3" ry="3" style="stroke:#038048;stroke-width:1.0;"/><text fill="#000000" font-family="sans-serif" font-size="14" lengthAdjust="spacing" textLength="136" x="741.5" y="353.0777">setTabindex() : void</text><ellipse cx="732.5" cy="365.7749" fill="#84BE84" rx="3" ry="3" style="stroke:#038048;stroke-width:1.0;"/><text fill="#000000" font-family="sans-serif" font-size="14" lengthAdjust="spacing" textLength="154" x="741.5" y="369.5659">unsetTabindex() : void</text></g><!--reverse link AbstractChild<AccordionItemConfig, IAccordion> to AccordionItem--><g id="link_AbstractChild&lt;AccordionItemConfig, IAccordion&gt;_AccordionItem"><path codeLine="82" d="M444.082,417.7795 C452.782,436.9395 454.39,440.47 463.64,460.84 " fill="none" id="AbstractChild&lt;AccordionItemConfig, IAccordion&gt;-backto-AccordionItem" style="stroke:#272B30;stroke-width:1.0;"/><polygon fill="none" points="436.64,401.39,438.6188,420.2602,449.5452,415.2989,436.64,401.39" style="stroke:#272B30;stroke-width:1.0;"/></g><!--reverse link IAccordionItem to AccordionItem--><g id="link_IAccordionItem_AccordionItem"><path codeLine="103" d="M890.0371,393.2991 C878.0071,419.7891 872.58,431.74 859.29,461 " fill="none" id="IAccordionItem-backto-AccordionItem" style="stroke:#272B30;stroke-width:1.0;stroke-dasharray:7.0,7.0;"/><polygon fill="none" points="897.48,376.91,884.5741,390.8182,895.5002,395.7801,897.48,376.91" style="stroke:#272B30;stroke-width:1.0;"/></g><!--SRC=[vLVRRjiu47ttLmZ9YmitHTjTO04ZA62hIIFqOWCn2XH5KL3YI9wQ8bMIIgAs-VSTtHoBafqKMonsqJmvSmw7m-EPGzfiK6PCizJp1JDcfhMwzfLGsZj-_jVpy8-d8zDbp9Nce0zJMBH9jCebRsXn7EzmUd04_4_EHclau46QsS9BmQuLDxkX645G92ety8vcKKHre9A1XVJ8-pxowEyOpLAhArgZvym0zwPUg9G09Yluv3FRNUKhQK7QCm4f4IzMRz-K7oaoH0uY9VtSM9K-dFymvbAm2DPAKD7tarTe1ToVjwATgoWtB1JWhr5m3RAxvkEdTfKGwhfEV4LnqrCjKaAmZFIy04pMbd2Pfo7e1ePorKBw0gCDOQz0WiQe2swWM6emPX- -qamQj5JwcUHzqat69D-tFvf5LXskMtKcc8sLJi-Q7LII271IJzopZnyHuqeXh-4m9-MSMBHcCW7gimoqBSPPy-4TIs7g6QjH9e-zDlgUYPp2kTn8TIsTH48PS99pD5a_2bzp9inA1I_76RCMj0nukzSZv-0JsbWwwpKaQ6YPJySDQVZ6bUhTYgC6ctgBoqQYJfBZ62MQzRoloB5K5kDYoQZ5x9X5vRUuAZBOhV2ERC3EdZtxqEY7u4XUucsP0z25JKNJlmDe8Ac5cF2DgMneA7TTPI1ZHLAM7oz1G6ILlbCYALcLolCYuBDbCFNESraTgvH9pc6XCsg2hUxTJIXBae1UxhRVLlYoASyfwlVLVkmndPXjhtpyT31jSrJy1hoxGtTLBW_eMO6lX0f9iaEK_QBlM4vZ01Sqg09qtM5JxwtAJJrQxZhEXoQE08afAxMUcK96OpHdrV0FYqtUL4qZRRqfdMv54b9_QM1ksdLLrug50Hd9ZOig-HgAK37DAvTggs-3GmTGZQCC2t_oMKEghe1QVL-djvHX6UenMIcLr7vVZjO0fLM_6Ru-exo7bggsrZrmEQj3a7c9rVN1BospFORTTUpsMzzoRaSif7aYC_3Q2xlvlxgCJcVEHHmZ3LwmZRvuy8sEvXorgRCEW6_OFgoU_g04wi7ln1VX5t85mkvg-XTkX5_W_lyXg__Uji3jlQxlKFUuaSCwV1VyNaQ_Ayq_zFnUgc6TRqS_FTAdFqvEt9Vx2EaHhcDw0dj7mU2ZVeAcx4JhTZfk_QcF33m89mP4t1nZuF4yoIL-pS7rWyarScgJNlX_zsx4UnwCjMR0vyKim-66_oNUGb-3dOjSZtlHwkTAFqnNDlQlx4dLcNsCkjBjejCVJvwuNVSt]--></g></svg>