<?xml version="1.0" encoding="us-ascii" standalone="no"?><svg xmlns="http://www.w3.org/2000/svg" xmlns:xlink="http://www.w3.org/1999/xlink" contentStyleType="text/css" height="1245px" preserveAspectRatio="none" style="width:636px;height:1245px;background:#CED4DA;" version="1.1" viewBox="0 0 636 1245" width="636px" zoomAndPan="magnify"><defs/><g><rect fill="#CED4DA" height="1245" style="stroke:none;stroke-width:1.0;" width="636" x="0" y="0"/><!--class FlatpickrRangeDateConfig--><g id="elem_FlatpickrRangeDateConfig"><rect codeLine="7" fill="#FFFFFF" height="520.6094" id="FlatpickrRangeDateConfig" rx="2.5" ry="2.5" style="stroke:#272B30;stroke-width:0.5;" width="620" x="9" y="718"/><ellipse cx="225.25" cy="734" fill="#ADD1B2" rx="11" ry="11" style="stroke:#181818;stroke-width:1.0;"/><path d="M228.2188,739.6406 Q227.6406,739.9375 227,740.0781 Q226.3594,740.2344 225.6563,740.2344 Q223.1563,740.2344 221.8281,738.5938 Q220.5156,736.9375 220.5156,733.8125 Q220.5156,730.6875 221.8281,729.0313 Q223.1563,727.375 225.6563,727.375 Q226.3594,727.375 227,727.5313 Q227.6563,727.6875 228.2188,727.9844 L228.2188,730.7031 Q227.5938,730.125 227,729.8594 Q226.4063,729.5781 225.7813,729.5781 Q224.4375,729.5781 223.75,730.6563 Q223.0625,731.7188 223.0625,733.8125 Q223.0625,735.9063 223.75,736.9844 Q224.4375,738.0469 225.7813,738.0469 Q226.4063,738.0469 227,737.7813 Q227.5938,737.5 228.2188,736.9219 L228.2188,739.6406 Z " fill="#000000"/><text fill="#000000" font-family="sans-serif" font-size="14" lengthAdjust="spacing" textLength="179" x="245.75" y="738.8467">FlatpickrRangeDateConfig</text><line style="stroke:#272B30;stroke-width:0.5;" x1="10" x2="628" y1="750" y2="750"/><ellipse cx="20" cy="763.6484" fill="none" rx="3" ry="3" style="stroke:#038048;stroke-width:1.0;"/><text fill="#000000" font-family="sans-serif" font-size="14" lengthAdjust="spacing" textLength="139" x="29" y="766.9951">AllowInput : boolean</text><ellipse cx="20" cy="779.9453" fill="none" rx="3" ry="3" style="stroke:#038048;stroke-width:1.0;"/><text fill="#000000" font-family="sans-serif" font-size="14" lengthAdjust="spacing" textLength="152" x="29" y="783.292">CalendarMode : Mode</text><ellipse cx="20" cy="796.2422" fill="none" rx="3" ry="3" style="stroke:#038048;stroke-width:1.0;"/><text fill="#000000" font-family="sans-serif" font-size="14" lengthAdjust="spacing" textLength="133" x="29" y="799.5889">DateFormat : string</text><ellipse cx="20" cy="812.5391" fill="none" rx="3" ry="3" style="stroke:#038048;stroke-width:1.0;"/><text fill="#000000" font-family="sans-serif" font-size="14" lengthAdjust="spacing" textLength="98" x="29" y="815.8857">Disable : any[]</text><ellipse cx="20" cy="828.8359" fill="none" rx="3" ry="3" style="stroke:#038048;stroke-width:1.0;"/><text fill="#000000" font-family="sans-serif" font-size="14" lengthAdjust="spacing" textLength="165" x="29" y="832.1826">DisableMobile : boolean</text><ellipse cx="20" cy="845.1328" fill="none" rx="3" ry="3" style="stroke:#038048;stroke-width:1.0;"/><text fill="#000000" font-family="sans-serif" font-size="14" lengthAdjust="spacing" textLength="155" x="29" y="848.4795">ExtendedClass : string</text><ellipse cx="20" cy="861.4297" fill="none" rx="3" ry="3" style="stroke:#038048;stroke-width:1.0;"/><text fill="#000000" font-family="sans-serif" font-size="14" lengthAdjust="spacing" textLength="161" x="29" y="864.7764">FirstWeekDay : number</text><ellipse cx="20" cy="877.7266" fill="none" rx="3" ry="3" style="stroke:#038048;stroke-width:1.0;"/><text fill="#000000" font-family="sans-serif" font-size="14" lengthAdjust="spacing" textLength="146" x="29" y="881.0732">InitialEndDate : string</text><ellipse cx="20" cy="894.0234" fill="none" rx="3" ry="3" style="stroke:#038048;stroke-width:1.0;"/><text fill="#000000" font-family="sans-serif" font-size="14" lengthAdjust="spacing" textLength="151" x="29" y="897.3701">InitialStartDate : string</text><ellipse cx="20" cy="910.3203" fill="none" rx="3" ry="3" style="stroke:#038048;stroke-width:1.0;"/><text fill="#000000" font-family="sans-serif" font-size="14" lengthAdjust="spacing" textLength="112" x="29" y="913.667">MaxDate : string</text><ellipse cx="20" cy="926.6172" fill="none" rx="3" ry="3" style="stroke:#038048;stroke-width:1.0;"/><text fill="#000000" font-family="sans-serif" font-size="14" lengthAdjust="spacing" textLength="109" x="29" y="929.9639">MinDate : string</text><ellipse cx="20" cy="942.9141" fill="none" rx="3" ry="3" style="stroke:#038048;stroke-width:1.0;"/><text fill="#000000" font-family="sans-serif" font-size="14" lengthAdjust="spacing" textLength="141" x="29" y="946.2607">OnChange : Generic</text><ellipse cx="20" cy="959.2109" fill="none" rx="3" ry="3" style="stroke:#038048;stroke-width:1.0;"/><text fill="#000000" font-family="sans-serif" font-size="14" lengthAdjust="spacing" textLength="126" x="29" y="962.5576">OnClose : Generic</text><ellipse cx="20" cy="975.5078" fill="none" rx="3" ry="3" style="stroke:#038048;stroke-width:1.0;"/><text fill="#000000" font-family="sans-serif" font-size="14" lengthAdjust="spacing" textLength="196" x="29" y="978.8545">ShowTodayButton : boolean</text><ellipse cx="20" cy="991.8047" fill="none" rx="3" ry="3" style="stroke:#038048;stroke-width:1.0;"/><text fill="#000000" font-family="sans-serif" font-size="14" lengthAdjust="spacing" textLength="209" x="29" y="995.1514">ShowWeekNumbers : boolean</text><ellipse cx="20" cy="1008.1016" fill="none" rx="3" ry="3" style="stroke:#038048;stroke-width:1.0;"/><text fill="#000000" font-family="sans-serif" font-size="14" lengthAdjust="spacing" textLength="134" x="29" y="1011.4482">TimeFormat : string</text><polygon fill="none" points="20,1019.3984,24,1023.3984,20,1027.3984,16,1023.3984" style="stroke:#B38D22;stroke-width:1.0;"/><text fill="#000000" font-family="sans-serif" font-size="14" lengthAdjust="spacing" textLength="300" x="29" y="1027.7451">providerExtendedOptions : FlatpickrOptions</text><line style="stroke:#272B30;stroke-width:0.5;" x1="10" x2="628" y1="1035.0469" y2="1035.0469"/><ellipse cx="20" cy="1048.6953" fill="#84BE84" rx="3" ry="3" style="stroke:#038048;stroke-width:1.0;"/><text fill="#000000" font-family="sans-serif" font-size="14" lengthAdjust="spacing" textLength="257" x="29" y="1052.042">getProviderConfig() : FlatpickrOptions</text><ellipse cx="20" cy="1064.9922" fill="#84BE84" rx="3" ry="3" style="stroke:#038048;stroke-width:1.0;"/><text fill="#000000" font-family="sans-serif" font-size="14" lengthAdjust="spacing" textLength="406" x="29" y="1068.3389">setExtensibilityConfigs(newConfigs: FlatpickrOptions) : void</text><ellipse cx="20" cy="1081.2891" fill="#84BE84" rx="3" ry="3" style="stroke:#038048;stroke-width:1.0;"/><text fill="#000000" font-family="sans-serif" font-size="14" lengthAdjust="spacing" textLength="412" x="29" y="1084.6357">validateCanChange(_isBuilt: boolean, _key: string) : boolean</text><ellipse cx="20" cy="1097.5859" fill="#84BE84" rx="3" ry="3" style="stroke:#038048;stroke-width:1.0;"/><text fill="#000000" font-family="sans-serif" font-size="14" lengthAdjust="spacing" textLength="377" x="29" y="1100.9326">validateDefault(key: string, value: unknown) : unknown</text><polygon fill="#FFFF44" points="20,1108.8828,24,1112.8828,20,1116.8828,16,1112.8828" style="stroke:#B38D22;stroke-width:1.0;"/><text fill="#000000" font-family="sans-serif" font-size="14" lengthAdjust="spacing" textLength="594" x="29" y="1117.2295">mergeConfigs(commonConfigs: any, specificConfigs: any, extendedConfigs: any) : any</text><polygon fill="#FFFF44" points="20,1125.1797,24,1129.1797,20,1133.1797,16,1129.1797" style="stroke:#B38D22;stroke-width:1.0;"/><text fill="#000000" font-family="sans-serif" font-size="14" lengthAdjust="spacing" textLength="447" x="29" y="1133.5264">validateBoolean(value: boolean, defaultValue: boolean) : boolean</text><polygon fill="#FFFF44" points="20,1141.4766,24,1145.4766,20,1149.4766,16,1145.4766" style="stroke:#B38D22;stroke-width:1.0;"/><text fill="#000000" font-family="sans-serif" font-size="14" lengthAdjust="spacing" textLength="464" x="29" y="1149.8232">validateDate(value: string | Date, defaultValue: string) : string | Date</text><polygon fill="#FFFF44" points="20,1157.7734,24,1161.7734,20,1165.7734,16,1161.7734" style="stroke:#B38D22;stroke-width:1.0;"/><text fill="#000000" font-family="sans-serif" font-size="14" lengthAdjust="spacing" textLength="592" x="29" y="1166.1201">validateInRange(value: unknown, defaultValue: unknown, args: unknown[]) : unknown</text><polygon fill="#FFFF44" points="20,1174.0703,24,1178.0703,20,1182.0703,16,1178.0703" style="stroke:#B38D22;stroke-width:1.0;"/><text fill="#000000" font-family="sans-serif" font-size="14" lengthAdjust="spacing" textLength="439" x="29" y="1182.417">validateNumber(value: number, defaultValue: number) : number</text><polygon fill="#FFFF44" points="20,1190.3672,24,1194.3672,20,1198.3672,16,1194.3672" style="stroke:#B38D22;stroke-width:1.0;"/><text fill="#000000" font-family="sans-serif" font-size="14" lengthAdjust="spacing" textLength="379" x="29" y="1198.7139">validateString(value: string, defaultValue: string) : string</text><polygon fill="#FFFF44" points="20,1206.6641,24,1210.6641,20,1214.6641,16,1210.6641" style="stroke:#B38D22;stroke-width:1.0;"/><text fill="#000000" font-family="sans-serif" font-size="14" lengthAdjust="spacing" textLength="373" x="29" y="1215.0107">validateTime(value: string, defaultValue: string) : string</text><rect fill="#F24D5C" height="6" style="stroke:#C82930;stroke-width:1.0;" width="6" x="17" y="1224.9609"/><text fill="#000000" font-family="sans-serif" font-size="14" lengthAdjust="spacing" textLength="183" x="29" y="1231.3076">_setDefaultDate() : string[]</text></g><!--class AbstractFlatpickrConfig--><g id="elem_AbstractFlatpickrConfig"><rect codeLine="38" fill="#FFFFFF" height="650.9844" id="AbstractFlatpickrConfig" rx="2.5" ry="2.5" style="stroke:#272B30;stroke-width:0.5;" width="620" x="9" y="7"/><ellipse cx="235.75" cy="23" fill="#A9DCDF" rx="11" ry="11" style="stroke:#181818;stroke-width:1.0;"/><path d="M235.8594,18.3438 L234.7031,23.4219 L237.0313,23.4219 L235.8594,18.3438 Z M234.375,16.1094 L237.3594,16.1094 L240.7188,28.5 L238.2656,28.5 L237.5,25.4375 L234.2188,25.4375 L233.4688,28.5 L231.0313,28.5 L234.375,16.1094 Z " fill="#000000"/><text fill="#000000" font-family="sans-serif" font-size="14" font-style="italic" lengthAdjust="spacing" textLength="158" x="256.25" y="27.8467">AbstractFlatpickrConfig</text><line style="stroke:#272B30;stroke-width:0.5;" x1="10" x2="628" y1="39" y2="39"/><ellipse cx="20" cy="52.6484" fill="none" rx="3" ry="3" style="stroke:#038048;stroke-width:1.0;"/><text fill="#000000" font-family="sans-serif" font-size="14" lengthAdjust="spacing" textLength="139" x="29" y="55.9951">AllowInput : boolean</text><ellipse cx="20" cy="68.9453" fill="none" rx="3" ry="3" style="stroke:#038048;stroke-width:1.0;"/><text fill="#000000" font-family="sans-serif" font-size="14" lengthAdjust="spacing" textLength="152" x="29" y="72.292">CalendarMode : Mode</text><ellipse cx="20" cy="85.2422" fill="none" rx="3" ry="3" style="stroke:#038048;stroke-width:1.0;"/><text fill="#000000" font-family="sans-serif" font-size="14" lengthAdjust="spacing" textLength="133" x="29" y="88.5889">DateFormat : string</text><ellipse cx="20" cy="101.5391" fill="none" rx="3" ry="3" style="stroke:#038048;stroke-width:1.0;"/><text fill="#000000" font-family="sans-serif" font-size="14" lengthAdjust="spacing" textLength="98" x="29" y="104.8857">Disable : any[]</text><ellipse cx="20" cy="117.8359" fill="none" rx="3" ry="3" style="stroke:#038048;stroke-width:1.0;"/><text fill="#000000" font-family="sans-serif" font-size="14" lengthAdjust="spacing" textLength="165" x="29" y="121.1826">DisableMobile : boolean</text><ellipse cx="20" cy="134.1328" fill="none" rx="3" ry="3" style="stroke:#038048;stroke-width:1.0;"/><text fill="#000000" font-family="sans-serif" font-size="14" lengthAdjust="spacing" textLength="155" x="29" y="137.4795">ExtendedClass : string</text><ellipse cx="20" cy="150.4297" fill="none" rx="3" ry="3" style="stroke:#038048;stroke-width:1.0;"/><text fill="#000000" font-family="sans-serif" font-size="14" lengthAdjust="spacing" textLength="161" x="29" y="153.7764">FirstWeekDay : number</text><ellipse cx="20" cy="166.7266" fill="none" rx="3" ry="3" style="stroke:#038048;stroke-width:1.0;"/><text fill="#000000" font-family="sans-serif" font-size="14" lengthAdjust="spacing" textLength="112" x="29" y="170.0732">MaxDate : string</text><ellipse cx="20" cy="183.0234" fill="none" rx="3" ry="3" style="stroke:#038048;stroke-width:1.0;"/><text fill="#000000" font-family="sans-serif" font-size="14" lengthAdjust="spacing" textLength="109" x="29" y="186.3701">MinDate : string</text><ellipse cx="20" cy="199.3203" fill="none" rx="3" ry="3" style="stroke:#038048;stroke-width:1.0;"/><text fill="#000000" font-family="sans-serif" font-size="14" lengthAdjust="spacing" textLength="141" x="29" y="202.667">OnChange : Generic</text><ellipse cx="20" cy="215.6172" fill="none" rx="3" ry="3" style="stroke:#038048;stroke-width:1.0;"/><text fill="#000000" font-family="sans-serif" font-size="14" lengthAdjust="spacing" textLength="126" x="29" y="218.9639">OnClose : Generic</text><ellipse cx="20" cy="231.9141" fill="none" rx="3" ry="3" style="stroke:#038048;stroke-width:1.0;"/><text fill="#000000" font-family="sans-serif" font-size="14" lengthAdjust="spacing" textLength="196" x="29" y="235.2607">ShowTodayButton : boolean</text><ellipse cx="20" cy="248.2109" fill="none" rx="3" ry="3" style="stroke:#038048;stroke-width:1.0;"/><text fill="#000000" font-family="sans-serif" font-size="14" lengthAdjust="spacing" textLength="209" x="29" y="251.5576">ShowWeekNumbers : boolean</text><ellipse cx="20" cy="264.5078" fill="none" rx="3" ry="3" style="stroke:#038048;stroke-width:1.0;"/><text fill="#000000" font-family="sans-serif" font-size="14" lengthAdjust="spacing" textLength="134" x="29" y="267.8545">TimeFormat : string</text><polygon fill="none" points="20,275.8047,24,279.8047,20,283.8047,16,279.8047" style="stroke:#B38D22;stroke-width:1.0;"/><text fill="#000000" font-family="sans-serif" font-size="14" lengthAdjust="spacing" textLength="300" x="29" y="284.1514">providerExtendedOptions : FlatpickrOptions</text><rect fill="none" height="6" style="stroke:#C82930;stroke-width:1.0;" width="6" x="17" y="294.1016"/><text fill="#000000" font-family="sans-serif" font-size="14" lengthAdjust="spacing" textLength="146" x="29" y="300.4482">_disabledDays : any[]</text><rect fill="none" height="6" style="stroke:#C82930;stroke-width:1.0;" width="6" x="17" y="310.3984"/><text fill="#000000" font-family="sans-serif" font-size="14" lengthAdjust="spacing" textLength="185" x="29" y="316.7451">_disabledWeekDays : any[]</text><rect fill="none" height="6" style="stroke:#C82930;stroke-width:1.0;" width="6" x="17" y="326.6953"/><text fill="#000000" font-family="sans-serif" font-size="14" lengthAdjust="spacing" textLength="193" x="29" y="333.042">_isUsingDateTime : boolean</text><rect fill="none" height="6" style="stroke:#C82930;stroke-width:1.0;" width="6" x="17" y="342.9922"/><text fill="#000000" font-family="sans-serif" font-size="14" lengthAdjust="spacing" textLength="88" x="29" y="349.3389">_lang : string</text><rect fill="none" height="6" style="stroke:#C82930;stroke-width:1.0;" width="6" x="17" y="359.2891"/><text fill="#000000" font-family="sans-serif" font-size="14" lengthAdjust="spacing" textLength="241" x="29" y="365.6357">_providerOptions : FlatpickrOptions</text><line style="stroke:#272B30;stroke-width:0.5;" x1="10" x2="628" y1="372.9375" y2="372.9375"/><ellipse cx="20" cy="386.5859" fill="#84BE84" rx="3" ry="3" style="stroke:#038048;stroke-width:1.0;"/><text fill="#000000" font-family="sans-serif" font-size="14" lengthAdjust="spacing" textLength="257" x="29" y="389.9326">getProviderConfig() : FlatpickrOptions</text><ellipse cx="20" cy="402.8828" fill="#84BE84" rx="3" ry="3" style="stroke:#038048;stroke-width:1.0;"/><text fill="#000000" font-family="sans-serif" font-size="14" lengthAdjust="spacing" textLength="406" x="29" y="406.2295">setExtensibilityConfigs(newConfigs: FlatpickrOptions) : void</text><ellipse cx="20" cy="419.1797" fill="#84BE84" rx="3" ry="3" style="stroke:#038048;stroke-width:1.0;"/><text fill="#000000" font-family="sans-serif" font-size="14" lengthAdjust="spacing" textLength="412" x="29" y="422.5264">validateCanChange(_isBuilt: boolean, _key: string) : boolean</text><ellipse cx="20" cy="435.4766" fill="#84BE84" rx="3" ry="3" style="stroke:#038048;stroke-width:1.0;"/><text fill="#000000" font-family="sans-serif" font-size="14" lengthAdjust="spacing" textLength="377" x="29" y="438.8232">validateDefault(key: string, value: unknown) : unknown</text><polygon fill="#FFFF44" points="20,446.7734,24,450.7734,20,454.7734,16,450.7734" style="stroke:#B38D22;stroke-width:1.0;"/><text fill="#000000" font-family="sans-serif" font-size="14" lengthAdjust="spacing" textLength="594" x="29" y="455.1201">mergeConfigs(commonConfigs: any, specificConfigs: any, extendedConfigs: any) : any</text><polygon fill="#FFFF44" points="20,463.0703,24,467.0703,20,471.0703,16,467.0703" style="stroke:#B38D22;stroke-width:1.0;"/><text fill="#000000" font-family="sans-serif" font-size="14" lengthAdjust="spacing" textLength="447" x="29" y="471.417">validateBoolean(value: boolean, defaultValue: boolean) : boolean</text><polygon fill="#FFFF44" points="20,479.3672,24,483.3672,20,487.3672,16,483.3672" style="stroke:#B38D22;stroke-width:1.0;"/><text fill="#000000" font-family="sans-serif" font-size="14" lengthAdjust="spacing" textLength="464" x="29" y="487.7139">validateDate(value: string | Date, defaultValue: string) : string | Date</text><polygon fill="#FFFF44" points="20,495.6641,24,499.6641,20,503.6641,16,499.6641" style="stroke:#B38D22;stroke-width:1.0;"/><text fill="#000000" font-family="sans-serif" font-size="14" lengthAdjust="spacing" textLength="592" x="29" y="504.0107">validateInRange(value: unknown, defaultValue: unknown, args: unknown[]) : unknown</text><polygon fill="#FFFF44" points="20,511.9609,24,515.9609,20,519.9609,16,515.9609" style="stroke:#B38D22;stroke-width:1.0;"/><text fill="#000000" font-family="sans-serif" font-size="14" lengthAdjust="spacing" textLength="439" x="29" y="520.3076">validateNumber(value: number, defaultValue: number) : number</text><polygon fill="#FFFF44" points="20,528.2578,24,532.2578,20,536.2578,16,532.2578" style="stroke:#B38D22;stroke-width:1.0;"/><text fill="#000000" font-family="sans-serif" font-size="14" lengthAdjust="spacing" textLength="379" x="29" y="536.6045">validateString(value: string, defaultValue: string) : string</text><polygon fill="#FFFF44" points="20,544.5547,24,548.5547,20,552.5547,16,548.5547" style="stroke:#B38D22;stroke-width:1.0;"/><text fill="#000000" font-family="sans-serif" font-size="14" lengthAdjust="spacing" textLength="373" x="29" y="552.9014">validateTime(value: string, defaultValue: string) : string</text><rect fill="#F24D5C" height="6" style="stroke:#C82930;stroke-width:1.0;" width="6" x="17" y="562.8516"/><text fill="#000000" font-family="sans-serif" font-size="14" lengthAdjust="spacing" textLength="176" x="29" y="569.1982">_checkAltFormat() : string</text><rect fill="#F24D5C" height="6" style="stroke:#C82930;stroke-width:1.0;" width="6" x="17" y="579.1484"/><text fill="#000000" font-family="sans-serif" font-size="14" lengthAdjust="spacing" textLength="325" x="29" y="585.4951">_checkDisableWeeksDay(date: Date) : boolean</text><rect fill="#F24D5C" height="6" style="stroke:#C82930;stroke-width:1.0;" width="6" x="17" y="595.4453"/><text fill="#000000" font-family="sans-serif" font-size="14" lengthAdjust="spacing" textLength="214" x="29" y="601.792">_checkLocale() : CustomLocale</text><rect fill="#F24D5C" height="6" style="stroke:#C82930;stroke-width:1.0;" width="6" x="17" y="611.7422"/><text fill="#000000" font-family="sans-serif" font-size="14" lengthAdjust="spacing" textLength="236" x="29" y="618.0889">_mapProviderDateFormat() : string</text><rect fill="#F24D5C" height="6" style="stroke:#C82930;stroke-width:1.0;" width="6" x="17" y="628.0391"/><text fill="#000000" font-family="sans-serif" font-size="14" lengthAdjust="spacing" textLength="131" x="29" y="634.3857">_setDisable() : void</text><rect fill="#F24D5C" height="6" style="stroke:#C82930;stroke-width:1.0;" width="6" x="17" y="644.3359"/><text fill="#000000" font-family="sans-serif" font-size="14" lengthAdjust="spacing" textLength="423" x="29" y="650.6826">_validateDate(date: string, isMaxDate: boolean) : string | Date</text></g><!--reverse link AbstractFlatpickrConfig to FlatpickrRangeDateConfig--><g id="link_AbstractFlatpickrConfig_FlatpickrRangeDateConfig"><path codeLine="77" d="M319,676.33 C319,696.34 319,698.33 319,718 " fill="none" id="AbstractFlatpickrConfig-backto-FlatpickrRangeDateConfig" style="stroke:#272B30;stroke-width:1.0;"/><polygon fill="none" points="319,658.33,313,676.33,325,676.33,319,658.33" style="stroke:#272B30;stroke-width:1.0;"/></g><!--SRC=[xLRVQzim47xFNo7Q5uSrCBh18EmbFzfHMDUnTjj3AU5YdHDXMJAItDIi_TydMR8JEMa7UopDI-Blk_jqTxexH-TCbA2W83CEMa-KafkPv5AHuzDFfyiFxmSwjfXAHL6zR09flbAo4ZIOPLcsOxD7fqW_KXYi6KM2HMbgKg1PIwfteOmXjqZg3Y17vnnCoT9S_G2nmZaOd4cHiTKH-JCWzlDkmhdSN8YoCcHCbb9o1E6P6N0K5DIbjDfZuhuyuLJEfIh0kMYZc5W5WcbOScSCehwzYy1BkMGD5Prnzc3i6KYRSlJKpfdIvZTYFeVQKg8gbgWyTI6OOS3F17MnzFm2UMr0cGFq9JmSGfauW5w9sThLpS9VKA1YQOTpgVVWwxNSt4WAzRGoHef-ievs-NnhCj5z-eOL1yjwN2fvR-zNjSMwAWsJmlbtjniWBxH2ypsu-CjEXi_QQZIDh6RsUfYflODE16x2ptrFftOl6VKAzy0PTNq5eLZ9WkbfnRZfyZiXYnphDgbXF_5MOOuPLDmaExOdn98LZaabSY4tmlc6dxus1QeLja6diYYawEAsJNX2T8aforWQezZstGuwz7thTTkOfZxG98JH9KHzhByYk9zPf-9QgvNmYP57ui2-qBP2aLciTY6QOKxYqlIbEXYKIp0ytjxjbR2LzMtPglfnwujwT1YFOwTmtSGS9_gl36C5DmF_uJzQs3uExTFKUilRDVGqWALzWDIGi1KduRdhxDUm55_zOXijg2-RtVgrZWgwfK9j-ZJJFxKzTnvwh1VYQC5jDVezrORtjc_VzktRlerd8rrZca-uyNET7ER3bdCZgUrC9kx4SLFWuTu0DWvVPMhtQwCsgxIHXGU2IG5bEsVRRPiSV1NuWvDeSaQBg3ryC6tIJ8Vr6JLNt1HFW-TV79yVHwCN_ct_1G00]--></g></svg>