<?xml version="1.0" encoding="us-ascii" standalone="no"?><svg xmlns="http://www.w3.org/2000/svg" xmlns:xlink="http://www.w3.org/1999/xlink" contentStyleType="text/css" height="1213px" preserveAspectRatio="none" style="width:636px;height:1213px;background:#CED4DA;" version="1.1" viewBox="0 0 636 1213" width="636px" zoomAndPan="magnify"><defs/><g><rect fill="#CED4DA" height="1213" style="stroke:none;stroke-width:1.0;" width="636" x="0" y="0"/><!--class FlatpickrSingleDateConfig--><g id="elem_FlatpickrSingleDateConfig"><rect codeLine="7" fill="#FFFFFF" height="488.0156" id="FlatpickrSingleDateConfig" rx="2.5" ry="2.5" style="stroke:#272B30;stroke-width:0.5;" width="620" x="9" y="718"/><ellipse cx="226.75" cy="734" fill="#ADD1B2" rx="11" ry="11" style="stroke:#181818;stroke-width:1.0;"/><path d="M229.7188,739.6406 Q229.1406,739.9375 228.5,740.0781 Q227.8594,740.2344 227.1563,740.2344 Q224.6563,740.2344 223.3281,738.5938 Q222.0156,736.9375 222.0156,733.8125 Q222.0156,730.6875 223.3281,729.0313 Q224.6563,727.375 227.1563,727.375 Q227.8594,727.375 228.5,727.5313 Q229.1563,727.6875 229.7188,727.9844 L229.7188,730.7031 Q229.0938,730.125 228.5,729.8594 Q227.9063,729.5781 227.2813,729.5781 Q225.9375,729.5781 225.25,730.6563 Q224.5625,731.7188 224.5625,733.8125 Q224.5625,735.9063 225.25,736.9844 Q225.9375,738.0469 227.2813,738.0469 Q227.9063,738.0469 228.5,737.7813 Q229.0938,737.5 229.7188,736.9219 L229.7188,739.6406 Z " fill="#000000"/><text fill="#000000" font-family="sans-serif" font-size="14" lengthAdjust="spacing" textLength="176" x="247.25" y="738.8467">FlatpickrSingleDateConfig</text><line style="stroke:#272B30;stroke-width:0.5;" x1="10" x2="628" y1="750" y2="750"/><ellipse cx="20" cy="763.6484" fill="none" rx="3" ry="3" style="stroke:#038048;stroke-width:1.0;"/><text fill="#000000" font-family="sans-serif" font-size="14" lengthAdjust="spacing" textLength="139" x="29" y="766.9951">AllowInput : boolean</text><ellipse cx="20" cy="779.9453" fill="none" rx="3" ry="3" style="stroke:#038048;stroke-width:1.0;"/><text fill="#000000" font-family="sans-serif" font-size="14" lengthAdjust="spacing" textLength="152" x="29" y="783.292">CalendarMode : Mode</text><ellipse cx="20" cy="796.2422" fill="none" rx="3" ry="3" style="stroke:#038048;stroke-width:1.0;"/><text fill="#000000" font-family="sans-serif" font-size="14" lengthAdjust="spacing" textLength="133" x="29" y="799.5889">DateFormat : string</text><ellipse cx="20" cy="812.5391" fill="none" rx="3" ry="3" style="stroke:#038048;stroke-width:1.0;"/><text fill="#000000" font-family="sans-serif" font-size="14" lengthAdjust="spacing" textLength="98" x="29" y="815.8857">Disable : any[]</text><ellipse cx="20" cy="828.8359" fill="none" rx="3" ry="3" style="stroke:#038048;stroke-width:1.0;"/><text fill="#000000" font-family="sans-serif" font-size="14" lengthAdjust="spacing" textLength="165" x="29" y="832.1826">DisableMobile : boolean</text><ellipse cx="20" cy="845.1328" fill="none" rx="3" ry="3" style="stroke:#038048;stroke-width:1.0;"/><text fill="#000000" font-family="sans-serif" font-size="14" lengthAdjust="spacing" textLength="155" x="29" y="848.4795">ExtendedClass : string</text><ellipse cx="20" cy="861.4297" fill="none" rx="3" ry="3" style="stroke:#038048;stroke-width:1.0;"/><text fill="#000000" font-family="sans-serif" font-size="14" lengthAdjust="spacing" textLength="161" x="29" y="864.7764">FirstWeekDay : number</text><ellipse cx="20" cy="877.7266" fill="none" rx="3" ry="3" style="stroke:#038048;stroke-width:1.0;"/><text fill="#000000" font-family="sans-serif" font-size="14" lengthAdjust="spacing" textLength="165" x="29" y="881.0732">InitialDate : string | Date</text><ellipse cx="20" cy="894.0234" fill="none" rx="3" ry="3" style="stroke:#038048;stroke-width:1.0;"/><text fill="#000000" font-family="sans-serif" font-size="14" lengthAdjust="spacing" textLength="112" x="29" y="897.3701">MaxDate : string</text><ellipse cx="20" cy="910.3203" fill="none" rx="3" ry="3" style="stroke:#038048;stroke-width:1.0;"/><text fill="#000000" font-family="sans-serif" font-size="14" lengthAdjust="spacing" textLength="109" x="29" y="913.667">MinDate : string</text><ellipse cx="20" cy="926.6172" fill="none" rx="3" ry="3" style="stroke:#038048;stroke-width:1.0;"/><text fill="#000000" font-family="sans-serif" font-size="14" lengthAdjust="spacing" textLength="141" x="29" y="929.9639">OnChange : Generic</text><ellipse cx="20" cy="942.9141" fill="none" rx="3" ry="3" style="stroke:#038048;stroke-width:1.0;"/><text fill="#000000" font-family="sans-serif" font-size="14" lengthAdjust="spacing" textLength="126" x="29" y="946.2607">OnClose : Generic</text><ellipse cx="20" cy="959.2109" fill="none" rx="3" ry="3" style="stroke:#038048;stroke-width:1.0;"/><text fill="#000000" font-family="sans-serif" font-size="14" lengthAdjust="spacing" textLength="196" x="29" y="962.5576">ShowTodayButton : boolean</text><ellipse cx="20" cy="975.5078" fill="none" rx="3" ry="3" style="stroke:#038048;stroke-width:1.0;"/><text fill="#000000" font-family="sans-serif" font-size="14" lengthAdjust="spacing" textLength="209" x="29" y="978.8545">ShowWeekNumbers : boolean</text><ellipse cx="20" cy="991.8047" fill="none" rx="3" ry="3" style="stroke:#038048;stroke-width:1.0;"/><text fill="#000000" font-family="sans-serif" font-size="14" lengthAdjust="spacing" textLength="134" x="29" y="995.1514">TimeFormat : string</text><polygon fill="none" points="20,1003.1016,24,1007.1016,20,1011.1016,16,1007.1016" style="stroke:#B38D22;stroke-width:1.0;"/><text fill="#000000" font-family="sans-serif" font-size="14" lengthAdjust="spacing" textLength="300" x="29" y="1011.4482">providerExtendedOptions : FlatpickrOptions</text><line style="stroke:#272B30;stroke-width:0.5;" x1="10" x2="628" y1="1018.75" y2="1018.75"/><ellipse cx="20" cy="1032.3984" fill="#84BE84" rx="3" ry="3" style="stroke:#038048;stroke-width:1.0;"/><text fill="#000000" font-family="sans-serif" font-size="14" lengthAdjust="spacing" textLength="257" x="29" y="1035.7451">getProviderConfig() : FlatpickrOptions</text><ellipse cx="20" cy="1048.6953" fill="#84BE84" rx="3" ry="3" style="stroke:#038048;stroke-width:1.0;"/><text fill="#000000" font-family="sans-serif" font-size="14" lengthAdjust="spacing" textLength="406" x="29" y="1052.042">setExtensibilityConfigs(newConfigs: FlatpickrOptions) : void</text><ellipse cx="20" cy="1064.9922" fill="#84BE84" rx="3" ry="3" style="stroke:#038048;stroke-width:1.0;"/><text fill="#000000" font-family="sans-serif" font-size="14" lengthAdjust="spacing" textLength="412" x="29" y="1068.3389">validateCanChange(_isBuilt: boolean, _key: string) : boolean</text><ellipse cx="20" cy="1081.2891" fill="#84BE84" rx="3" ry="3" style="stroke:#038048;stroke-width:1.0;"/><text fill="#000000" font-family="sans-serif" font-size="14" lengthAdjust="spacing" textLength="377" x="29" y="1084.6357">validateDefault(key: string, value: unknown) : unknown</text><polygon fill="#FFFF44" points="20,1092.5859,24,1096.5859,20,1100.5859,16,1096.5859" style="stroke:#B38D22;stroke-width:1.0;"/><text fill="#000000" font-family="sans-serif" font-size="14" lengthAdjust="spacing" textLength="594" x="29" y="1100.9326">mergeConfigs(commonConfigs: any, specificConfigs: any, extendedConfigs: any) : any</text><polygon fill="#FFFF44" points="20,1108.8828,24,1112.8828,20,1116.8828,16,1112.8828" style="stroke:#B38D22;stroke-width:1.0;"/><text fill="#000000" font-family="sans-serif" font-size="14" lengthAdjust="spacing" textLength="447" x="29" y="1117.2295">validateBoolean(value: boolean, defaultValue: boolean) : boolean</text><polygon fill="#FFFF44" points="20,1125.1797,24,1129.1797,20,1133.1797,16,1129.1797" style="stroke:#B38D22;stroke-width:1.0;"/><text fill="#000000" font-family="sans-serif" font-size="14" lengthAdjust="spacing" textLength="464" x="29" y="1133.5264">validateDate(value: string | Date, defaultValue: string) : string | Date</text><polygon fill="#FFFF44" points="20,1141.4766,24,1145.4766,20,1149.4766,16,1145.4766" style="stroke:#B38D22;stroke-width:1.0;"/><text fill="#000000" font-family="sans-serif" font-size="14" lengthAdjust="spacing" textLength="592" x="29" y="1149.8232">validateInRange(value: unknown, defaultValue: unknown, args: unknown[]) : unknown</text><polygon fill="#FFFF44" points="20,1157.7734,24,1161.7734,20,1165.7734,16,1161.7734" style="stroke:#B38D22;stroke-width:1.0;"/><text fill="#000000" font-family="sans-serif" font-size="14" lengthAdjust="spacing" textLength="439" x="29" y="1166.1201">validateNumber(value: number, defaultValue: number) : number</text><polygon fill="#FFFF44" points="20,1174.0703,24,1178.0703,20,1182.0703,16,1178.0703" style="stroke:#B38D22;stroke-width:1.0;"/><text fill="#000000" font-family="sans-serif" font-size="14" lengthAdjust="spacing" textLength="379" x="29" y="1182.417">validateString(value: string, defaultValue: string) : string</text><polygon fill="#FFFF44" points="20,1190.3672,24,1194.3672,20,1198.3672,16,1194.3672" style="stroke:#B38D22;stroke-width:1.0;"/><text fill="#000000" font-family="sans-serif" font-size="14" lengthAdjust="spacing" textLength="373" x="29" y="1198.7139">validateTime(value: string, defaultValue: string) : string</text></g><!--class AbstractFlatpickrConfig--><g id="elem_AbstractFlatpickrConfig"><rect codeLine="36" fill="#FFFFFF" height="650.9844" id="AbstractFlatpickrConfig" rx="2.5" ry="2.5" style="stroke:#272B30;stroke-width:0.5;" width="620" x="9" y="7"/><ellipse cx="235.75" cy="23" fill="#A9DCDF" rx="11" ry="11" style="stroke:#181818;stroke-width:1.0;"/><path d="M235.8594,18.3438 L234.7031,23.4219 L237.0313,23.4219 L235.8594,18.3438 Z M234.375,16.1094 L237.3594,16.1094 L240.7188,28.5 L238.2656,28.5 L237.5,25.4375 L234.2188,25.4375 L233.4688,28.5 L231.0313,28.5 L234.375,16.1094 Z " fill="#000000"/><text fill="#000000" font-family="sans-serif" font-size="14" font-style="italic" lengthAdjust="spacing" textLength="158" x="256.25" y="27.8467">AbstractFlatpickrConfig</text><line style="stroke:#272B30;stroke-width:0.5;" x1="10" x2="628" y1="39" y2="39"/><ellipse cx="20" cy="52.6484" fill="none" rx="3" ry="3" style="stroke:#038048;stroke-width:1.0;"/><text fill="#000000" font-family="sans-serif" font-size="14" lengthAdjust="spacing" textLength="139" x="29" y="55.9951">AllowInput : boolean</text><ellipse cx="20" cy="68.9453" fill="none" rx="3" ry="3" style="stroke:#038048;stroke-width:1.0;"/><text fill="#000000" font-family="sans-serif" font-size="14" lengthAdjust="spacing" textLength="152" x="29" y="72.292">CalendarMode : Mode</text><ellipse cx="20" cy="85.2422" fill="none" rx="3" ry="3" style="stroke:#038048;stroke-width:1.0;"/><text fill="#000000" font-family="sans-serif" font-size="14" lengthAdjust="spacing" textLength="133" x="29" y="88.5889">DateFormat : string</text><ellipse cx="20" cy="101.5391" fill="none" rx="3" ry="3" style="stroke:#038048;stroke-width:1.0;"/><text fill="#000000" font-family="sans-serif" font-size="14" lengthAdjust="spacing" textLength="98" x="29" y="104.8857">Disable : any[]</text><ellipse cx="20" cy="117.8359" fill="none" rx="3" ry="3" style="stroke:#038048;stroke-width:1.0;"/><text fill="#000000" font-family="sans-serif" font-size="14" lengthAdjust="spacing" textLength="165" x="29" y="121.1826">DisableMobile : boolean</text><ellipse cx="20" cy="134.1328" fill="none" rx="3" ry="3" style="stroke:#038048;stroke-width:1.0;"/><text fill="#000000" font-family="sans-serif" font-size="14" lengthAdjust="spacing" textLength="155" x="29" y="137.4795">ExtendedClass : string</text><ellipse cx="20" cy="150.4297" fill="none" rx="3" ry="3" style="stroke:#038048;stroke-width:1.0;"/><text fill="#000000" font-family="sans-serif" font-size="14" lengthAdjust="spacing" textLength="161" x="29" y="153.7764">FirstWeekDay : number</text><ellipse cx="20" cy="166.7266" fill="none" rx="3" ry="3" style="stroke:#038048;stroke-width:1.0;"/><text fill="#000000" font-family="sans-serif" font-size="14" lengthAdjust="spacing" textLength="112" x="29" y="170.0732">MaxDate : string</text><ellipse cx="20" cy="183.0234" fill="none" rx="3" ry="3" style="stroke:#038048;stroke-width:1.0;"/><text fill="#000000" font-family="sans-serif" font-size="14" lengthAdjust="spacing" textLength="109" x="29" y="186.3701">MinDate : string</text><ellipse cx="20" cy="199.3203" fill="none" rx="3" ry="3" style="stroke:#038048;stroke-width:1.0;"/><text fill="#000000" font-family="sans-serif" font-size="14" lengthAdjust="spacing" textLength="141" x="29" y="202.667">OnChange : Generic</text><ellipse cx="20" cy="215.6172" fill="none" rx="3" ry="3" style="stroke:#038048;stroke-width:1.0;"/><text fill="#000000" font-family="sans-serif" font-size="14" lengthAdjust="spacing" textLength="126" x="29" y="218.9639">OnClose : Generic</text><ellipse cx="20" cy="231.9141" fill="none" rx="3" ry="3" style="stroke:#038048;stroke-width:1.0;"/><text fill="#000000" font-family="sans-serif" font-size="14" lengthAdjust="spacing" textLength="196" x="29" y="235.2607">ShowTodayButton : boolean</text><ellipse cx="20" cy="248.2109" fill="none" rx="3" ry="3" style="stroke:#038048;stroke-width:1.0;"/><text fill="#000000" font-family="sans-serif" font-size="14" lengthAdjust="spacing" textLength="209" x="29" y="251.5576">ShowWeekNumbers : boolean</text><ellipse cx="20" cy="264.5078" fill="none" rx="3" ry="3" style="stroke:#038048;stroke-width:1.0;"/><text fill="#000000" font-family="sans-serif" font-size="14" lengthAdjust="spacing" textLength="134" x="29" y="267.8545">TimeFormat : string</text><polygon fill="none" points="20,275.8047,24,279.8047,20,283.8047,16,279.8047" style="stroke:#B38D22;stroke-width:1.0;"/><text fill="#000000" font-family="sans-serif" font-size="14" lengthAdjust="spacing" textLength="300" x="29" y="284.1514">providerExtendedOptions : FlatpickrOptions</text><rect fill="none" height="6" style="stroke:#C82930;stroke-width:1.0;" width="6" x="17" y="294.1016"/><text fill="#000000" font-family="sans-serif" font-size="14" lengthAdjust="spacing" textLength="146" x="29" y="300.4482">_disabledDays : any[]</text><rect fill="none" height="6" style="stroke:#C82930;stroke-width:1.0;" width="6" x="17" y="310.3984"/><text fill="#000000" font-family="sans-serif" font-size="14" lengthAdjust="spacing" textLength="185" x="29" y="316.7451">_disabledWeekDays : any[]</text><rect fill="none" height="6" style="stroke:#C82930;stroke-width:1.0;" width="6" x="17" y="326.6953"/><text fill="#000000" font-family="sans-serif" font-size="14" lengthAdjust="spacing" textLength="193" x="29" y="333.042">_isUsingDateTime : boolean</text><rect fill="none" height="6" style="stroke:#C82930;stroke-width:1.0;" width="6" x="17" y="342.9922"/><text fill="#000000" font-family="sans-serif" font-size="14" lengthAdjust="spacing" textLength="88" x="29" y="349.3389">_lang : string</text><rect fill="none" height="6" style="stroke:#C82930;stroke-width:1.0;" width="6" x="17" y="359.2891"/><text fill="#000000" font-family="sans-serif" font-size="14" lengthAdjust="spacing" textLength="241" x="29" y="365.6357">_providerOptions : FlatpickrOptions</text><line style="stroke:#272B30;stroke-width:0.5;" x1="10" x2="628" y1="372.9375" y2="372.9375"/><ellipse cx="20" cy="386.5859" fill="#84BE84" rx="3" ry="3" style="stroke:#038048;stroke-width:1.0;"/><text fill="#000000" font-family="sans-serif" font-size="14" lengthAdjust="spacing" textLength="257" x="29" y="389.9326">getProviderConfig() : FlatpickrOptions</text><ellipse cx="20" cy="402.8828" fill="#84BE84" rx="3" ry="3" style="stroke:#038048;stroke-width:1.0;"/><text fill="#000000" font-family="sans-serif" font-size="14" lengthAdjust="spacing" textLength="406" x="29" y="406.2295">setExtensibilityConfigs(newConfigs: FlatpickrOptions) : void</text><ellipse cx="20" cy="419.1797" fill="#84BE84" rx="3" ry="3" style="stroke:#038048;stroke-width:1.0;"/><text fill="#000000" font-family="sans-serif" font-size="14" lengthAdjust="spacing" textLength="412" x="29" y="422.5264">validateCanChange(_isBuilt: boolean, _key: string) : boolean</text><ellipse cx="20" cy="435.4766" fill="#84BE84" rx="3" ry="3" style="stroke:#038048;stroke-width:1.0;"/><text fill="#000000" font-family="sans-serif" font-size="14" lengthAdjust="spacing" textLength="377" x="29" y="438.8232">validateDefault(key: string, value: unknown) : unknown</text><polygon fill="#FFFF44" points="20,446.7734,24,450.7734,20,454.7734,16,450.7734" style="stroke:#B38D22;stroke-width:1.0;"/><text fill="#000000" font-family="sans-serif" font-size="14" lengthAdjust="spacing" textLength="594" x="29" y="455.1201">mergeConfigs(commonConfigs: any, specificConfigs: any, extendedConfigs: any) : any</text><polygon fill="#FFFF44" points="20,463.0703,24,467.0703,20,471.0703,16,467.0703" style="stroke:#B38D22;stroke-width:1.0;"/><text fill="#000000" font-family="sans-serif" font-size="14" lengthAdjust="spacing" textLength="447" x="29" y="471.417">validateBoolean(value: boolean, defaultValue: boolean) : boolean</text><polygon fill="#FFFF44" points="20,479.3672,24,483.3672,20,487.3672,16,483.3672" style="stroke:#B38D22;stroke-width:1.0;"/><text fill="#000000" font-family="sans-serif" font-size="14" lengthAdjust="spacing" textLength="464" x="29" y="487.7139">validateDate(value: string | Date, defaultValue: string) : string | Date</text><polygon fill="#FFFF44" points="20,495.6641,24,499.6641,20,503.6641,16,499.6641" style="stroke:#B38D22;stroke-width:1.0;"/><text fill="#000000" font-family="sans-serif" font-size="14" lengthAdjust="spacing" textLength="592" x="29" y="504.0107">validateInRange(value: unknown, defaultValue: unknown, args: unknown[]) : unknown</text><polygon fill="#FFFF44" points="20,511.9609,24,515.9609,20,519.9609,16,515.9609" style="stroke:#B38D22;stroke-width:1.0;"/><text fill="#000000" font-family="sans-serif" font-size="14" lengthAdjust="spacing" textLength="439" x="29" y="520.3076">validateNumber(value: number, defaultValue: number) : number</text><polygon fill="#FFFF44" points="20,528.2578,24,532.2578,20,536.2578,16,532.2578" style="stroke:#B38D22;stroke-width:1.0;"/><text fill="#000000" font-family="sans-serif" font-size="14" lengthAdjust="spacing" textLength="379" x="29" y="536.6045">validateString(value: string, defaultValue: string) : string</text><polygon fill="#FFFF44" points="20,544.5547,24,548.5547,20,552.5547,16,548.5547" style="stroke:#B38D22;stroke-width:1.0;"/><text fill="#000000" font-family="sans-serif" font-size="14" lengthAdjust="spacing" textLength="373" x="29" y="552.9014">validateTime(value: string, defaultValue: string) : string</text><rect fill="#F24D5C" height="6" style="stroke:#C82930;stroke-width:1.0;" width="6" x="17" y="562.8516"/><text fill="#000000" font-family="sans-serif" font-size="14" lengthAdjust="spacing" textLength="176" x="29" y="569.1982">_checkAltFormat() : string</text><rect fill="#F24D5C" height="6" style="stroke:#C82930;stroke-width:1.0;" width="6" x="17" y="579.1484"/><text fill="#000000" font-family="sans-serif" font-size="14" lengthAdjust="spacing" textLength="325" x="29" y="585.4951">_checkDisableWeeksDay(date: Date) : boolean</text><rect fill="#F24D5C" height="6" style="stroke:#C82930;stroke-width:1.0;" width="6" x="17" y="595.4453"/><text fill="#000000" font-family="sans-serif" font-size="14" lengthAdjust="spacing" textLength="214" x="29" y="601.792">_checkLocale() : CustomLocale</text><rect fill="#F24D5C" height="6" style="stroke:#C82930;stroke-width:1.0;" width="6" x="17" y="611.7422"/><text fill="#000000" font-family="sans-serif" font-size="14" lengthAdjust="spacing" textLength="236" x="29" y="618.0889">_mapProviderDateFormat() : string</text><rect fill="#F24D5C" height="6" style="stroke:#C82930;stroke-width:1.0;" width="6" x="17" y="628.0391"/><text fill="#000000" font-family="sans-serif" font-size="14" lengthAdjust="spacing" textLength="131" x="29" y="634.3857">_setDisable() : void</text><rect fill="#F24D5C" height="6" style="stroke:#C82930;stroke-width:1.0;" width="6" x="17" y="644.3359"/><text fill="#000000" font-family="sans-serif" font-size="14" lengthAdjust="spacing" textLength="423" x="29" y="650.6826">_validateDate(date: string, isMaxDate: boolean) : string | Date</text></g><!--reverse link AbstractFlatpickrConfig to FlatpickrSingleDateConfig--><g id="link_AbstractFlatpickrConfig_FlatpickrSingleDateConfig"><path codeLine="75" d="M319,676.28 C319,696.31 319,698.29 319,717.88 " fill="none" id="AbstractFlatpickrConfig-backto-FlatpickrSingleDateConfig" style="stroke:#272B30;stroke-width:1.0;"/><polygon fill="none" points="319,658.28,313,676.28,325,676.28,319,658.28" style="stroke:#272B30;stroke-width:1.0;"/></g><!--SRC=[xLPDRzim3BtdLmZjnS4QOEW630XsoSSo15ZNOUssGr44Z4KdWcN9aEIcmTh_NicItSXkE-nQD9VOZ-JJ8qKoqJaJ9IWeo8o3rXEbv6uckLJa-FJJwVh3-u6EFQPIKLGlkq2QRvIi10rkMPOT-FJCATAF50PRHf5WKPezAT1i9TM7KCQGMoHr1v2Z1GTJiZHN5qniECx1u4oAZ6sEoDy1iPzt4yxbRYdAof0nMKl94OItp82ZeA3Ef2KV4_Vb3Ovb8LK1BaGRPQc3WMbOS-SCOdzr7O5dSirgKtJ6brjZpq1QrwF3jc1Acp-8-HpsrYIgOetAcvQ26GRS2Mc3o1rnxzxX36uZOq2PU08z5xCjY8s3lw90nT8MvrBtu8kjt5rA2ljfPOmKtOoSsOd-NilLNVCbAvwitN6fv8szHTLKvBmqJ0eNtzvXW3pH1isF4E9lD1a-wwlHrBIQsJjWPky3T29m5nxxaOxjHZBg6Mw0C-gQ1qAnaXNJqufnq-PtGbOvxfkaXjt46uOvPb1nanpudX1hh71CAf4BkHCkDZpwsXIeDjY8JcLHID7gjfrsGdI9ASjO6gFODDS1ElJDwNaRJLClD0aoseIer_exWhkPjIokjHgAg2MxH8yLwdTkoxOKF-iwnwNfKhKmA9TWUBswxfMmeVLjsR3wcUgIUdGOprpBS55hZXFzLuOnWvk1_uo_7y3QFa9gIDXia_3Uzkrhs6klVcsDLjINZThaTLJGHrEeJTVCz2zjpvs73kf87AsuhKQiRhHgvBrjqxTj-hPDuzb8jvZc4sxyN2TFsyEMSoEfxKmcxiHnNU1XRm3hW6yojVkrPfjLsiZ20y6bWBAPiyTjsp_QZbWuE8acPxIAsiEBQP9cEgpFgBdYfhWVFF_3yVbkD7hf7_C3]--></g></svg>