<?xml version="1.0" encoding="us-ascii" standalone="no"?><svg xmlns="http://www.w3.org/2000/svg" xmlns:xlink="http://www.w3.org/1999/xlink" contentStyleType="text/css" height="1382px" preserveAspectRatio="none" style="width:810px;height:1382px;background:#CED4DA;" version="1.1" viewBox="0 0 810 1382" width="810px" zoomAndPan="magnify"><defs/><g><rect fill="#CED4DA" height="1382" style="stroke:none;stroke-width:1.0;" width="810" x="0" y="0"/><!--class IBottomSheet--><g id="elem_IBottomSheet"><rect codeLine="7" fill="#FFFFFF" height="229.3711" id="IBottomSheet" rx="2.5" ry="2.5" style="stroke:#272B30;stroke-width:0.5;" width="508" x="152" y="263.39"/><ellipse cx="356.25" cy="279.39" fill="#B4A7E5" rx="11" ry="11" style="stroke:#181818;stroke-width:1.0;"/><path d="M352.6777,275.6551 L352.6777,273.4969 L360.0571,273.4969 L360.0571,275.6551 L357.5918,275.6551 L357.5918,283.7318 L360.0571,283.7318 L360.0571,285.89 L352.6777,285.89 L352.6777,283.7318 L355.1431,283.7318 L355.1431,275.6551 Z " fill="#000000"/><text fill="#000000" font-family="sans-serif" font-size="14" font-style="italic" lengthAdjust="spacing" textLength="91" x="376.75" y="284.681">IBottomSheet</text><line style="stroke:#272B30;stroke-width:0.5;" x1="153" x2="659" y1="295.39" y2="295.39"/><ellipse cx="163" cy="309.1341" fill="none" rx="3" ry="3" style="stroke:#038048;stroke-width:1.0;"/><text fill="#000000" font-family="sans-serif" font-size="14" lengthAdjust="spacing" textLength="109" x="172" y="312.9252">isBuilt : boolean</text><ellipse cx="163" cy="325.6224" fill="none" rx="3" ry="3" style="stroke:#038048;stroke-width:1.0;"/><text fill="#000000" font-family="sans-serif" font-size="14" lengthAdjust="spacing" textLength="184" x="172" y="329.4134">selfElement : HTMLElement</text><ellipse cx="163" cy="342.1107" fill="none" rx="3" ry="3" style="stroke:#038048;stroke-width:1.0;"/><text fill="#000000" font-family="sans-serif" font-size="14" lengthAdjust="spacing" textLength="113" x="172" y="345.9017">uniqueId : string</text><ellipse cx="163" cy="358.599" fill="none" rx="3" ry="3" style="stroke:#038048;stroke-width:1.0;"/><text fill="#000000" font-family="sans-serif" font-size="14" lengthAdjust="spacing" textLength="111" x="172" y="362.39">widgetId : string</text><line style="stroke:#272B30;stroke-width:0.5;" x1="153" x2="659" y1="369.3431" y2="369.3431"/><ellipse cx="163" cy="383.0873" fill="#84BE84" rx="3" ry="3" style="stroke:#038048;stroke-width:1.0;"/><text fill="#000000" font-family="sans-serif" font-size="14" lengthAdjust="spacing" textLength="86" x="172" y="386.8783">build() : void</text><ellipse cx="163" cy="399.5755" fill="#84BE84" rx="3" ry="3" style="stroke:#038048;stroke-width:1.0;"/><text fill="#000000" font-family="sans-serif" font-size="14" lengthAdjust="spacing" textLength="482" x="172" y="403.3666">changeProperty(propertyName: string, propertyValue: unknown) : void</text><ellipse cx="163" cy="416.0638" fill="#84BE84" rx="3" ry="3" style="stroke:#038048;stroke-width:1.0;"/><text fill="#000000" font-family="sans-serif" font-size="14" lengthAdjust="spacing" textLength="86" x="172" y="419.8548">close() : void</text><ellipse cx="163" cy="432.5521" fill="#84BE84" rx="3" ry="3" style="stroke:#038048;stroke-width:1.0;"/><text fill="#000000" font-family="sans-serif" font-size="14" lengthAdjust="spacing" textLength="104" x="172" y="436.3431">dispose() : void</text><ellipse cx="163" cy="449.0404" fill="#84BE84" rx="3" ry="3" style="stroke:#038048;stroke-width:1.0;"/><text fill="#000000" font-family="sans-serif" font-size="14" lengthAdjust="spacing" textLength="216" x="172" y="452.8314">equalsToID(id: string) : boolean</text><ellipse cx="163" cy="465.5287" fill="#84BE84" rx="3" ry="3" style="stroke:#038048;stroke-width:1.0;"/><text fill="#000000" font-family="sans-serif" font-size="14" lengthAdjust="spacing" textLength="86" x="172" y="469.3197">open() : void</text><ellipse cx="163" cy="482.017" fill="#84BE84" rx="3" ry="3" style="stroke:#038048;stroke-width:1.0;"/><text fill="#000000" font-family="sans-serif" font-size="14" lengthAdjust="spacing" textLength="428" x="172" y="485.808">registerCallback(eventName: string, callback: OSGeneric) : void</text></g><!--class IPattern--><g id="elem_IPattern"><rect codeLine="20" fill="#FFFFFF" height="196.3945" id="IPattern" rx="2.5" ry="2.5" style="stroke:#272B30;stroke-width:0.5;" width="508" x="152" y="7"/><ellipse cx="375.25" cy="23" fill="#B4A7E5" rx="11" ry="11" style="stroke:#181818;stroke-width:1.0;"/><path d="M371.6777,19.2651 L371.6777,17.1069 L379.0571,17.1069 L379.0571,19.2651 L376.5918,19.2651 L376.5918,27.3418 L379.0571,27.3418 L379.0571,29.5 L371.6777,29.5 L371.6777,27.3418 L374.1431,27.3418 L374.1431,19.2651 Z " fill="#000000"/><text fill="#000000" font-family="sans-serif" font-size="14" font-style="italic" lengthAdjust="spacing" textLength="53" x="395.75" y="28.291">IPattern</text><line style="stroke:#272B30;stroke-width:0.5;" x1="153" x2="659" y1="39" y2="39"/><ellipse cx="163" cy="52.7441" fill="none" rx="3" ry="3" style="stroke:#038048;stroke-width:1.0;"/><text fill="#000000" font-family="sans-serif" font-size="14" lengthAdjust="spacing" textLength="109" x="172" y="56.5352">isBuilt : boolean</text><ellipse cx="163" cy="69.2324" fill="none" rx="3" ry="3" style="stroke:#038048;stroke-width:1.0;"/><text fill="#000000" font-family="sans-serif" font-size="14" lengthAdjust="spacing" textLength="184" x="172" y="73.0234">selfElement : HTMLElement</text><ellipse cx="163" cy="85.7207" fill="none" rx="3" ry="3" style="stroke:#038048;stroke-width:1.0;"/><text fill="#000000" font-family="sans-serif" font-size="14" lengthAdjust="spacing" textLength="113" x="172" y="89.5117">uniqueId : string</text><ellipse cx="163" cy="102.209" fill="none" rx="3" ry="3" style="stroke:#038048;stroke-width:1.0;"/><text fill="#000000" font-family="sans-serif" font-size="14" lengthAdjust="spacing" textLength="111" x="172" y="106">widgetId : string</text><line style="stroke:#272B30;stroke-width:0.5;" x1="153" x2="659" y1="112.9531" y2="112.9531"/><ellipse cx="163" cy="126.6973" fill="#84BE84" rx="3" ry="3" style="stroke:#038048;stroke-width:1.0;"/><text fill="#000000" font-family="sans-serif" font-size="14" lengthAdjust="spacing" textLength="86" x="172" y="130.4883">build() : void</text><ellipse cx="163" cy="143.1855" fill="#84BE84" rx="3" ry="3" style="stroke:#038048;stroke-width:1.0;"/><text fill="#000000" font-family="sans-serif" font-size="14" lengthAdjust="spacing" textLength="482" x="172" y="146.9766">changeProperty(propertyName: string, propertyValue: unknown) : void</text><ellipse cx="163" cy="159.6738" fill="#84BE84" rx="3" ry="3" style="stroke:#038048;stroke-width:1.0;"/><text fill="#000000" font-family="sans-serif" font-size="14" lengthAdjust="spacing" textLength="104" x="172" y="163.4648">dispose() : void</text><ellipse cx="163" cy="176.1621" fill="#84BE84" rx="3" ry="3" style="stroke:#038048;stroke-width:1.0;"/><text fill="#000000" font-family="sans-serif" font-size="14" lengthAdjust="spacing" textLength="216" x="172" y="179.9531">equalsToID(id: string) : boolean</text><ellipse cx="163" cy="192.6504" fill="#84BE84" rx="3" ry="3" style="stroke:#038048;stroke-width:1.0;"/><text fill="#000000" font-family="sans-serif" font-size="14" lengthAdjust="spacing" textLength="428" x="172" y="196.4414">registerCallback(eventName: string, callback: OSGeneric) : void</text></g><!--class BottomSheet--><g id="elem_BottomSheet"><rect codeLine="32" fill="#FFFFFF" height="822.9492" id="BottomSheet" rx="2.5" ry="2.5" style="stroke:#272B30;stroke-width:0.5;" width="794" x="9" y="552.76"/><ellipse cx="358.25" cy="568.76" fill="#ADD1B2" rx="11" ry="11" style="stroke:#181818;stroke-width:1.0;"/><path d="M360.7231,574.9031 Q360.1421,575.2019 359.5029,575.3513 Q358.8638,575.5007 358.1582,575.5007 Q355.6514,575.5007 354.3315,573.8489 Q353.0117,572.197 353.0117,569.0759 Q353.0117,565.9465 354.3315,564.2947 Q355.6514,562.6428 358.1582,562.6428 Q358.8638,562.6428 359.5112,562.7922 Q360.1587,562.9416 360.7231,563.2405 L360.7231,565.9631 Q360.0923,565.3821 359.4988,565.1123 Q358.9053,564.8425 358.2744,564.8425 Q356.9297,564.8425 356.2449,565.9092 Q355.5601,566.9758 355.5601,569.0759 Q355.5601,571.1677 356.2449,572.2344 Q356.9297,573.301 358.2744,573.301 Q358.9053,573.301 359.4988,573.0312 Q360.0923,572.7615 360.7231,572.1804 Z " fill="#000000"/><text fill="#000000" font-family="sans-serif" font-size="14" lengthAdjust="spacing" textLength="87" x="378.75" y="574.051">BottomSheet</text><line style="stroke:#272B30;stroke-width:0.5;" x1="10" x2="802" y1="584.76" y2="584.76"/><ellipse cx="20" cy="598.5041" fill="none" rx="3" ry="3" style="stroke:#038048;stroke-width:1.0;"/><text fill="#000000" font-family="sans-serif" font-size="14" lengthAdjust="spacing" textLength="224" x="29" y="602.2952">springAnimationConfigs : Object</text><polygon fill="none" points="20,609.9924,24,613.9924,20,617.9924,16,613.9924" style="stroke:#B38D22;stroke-width:1.0;"/><text fill="#000000" font-family="sans-serif" font-size="14" lengthAdjust="spacing" textLength="176" x="29" y="618.7834">isProviderBased : boolean</text><rect fill="none" height="6" style="stroke:#C82930;stroke-width:1.0;" width="6" x="17" y="628.4807"/><text fill="#000000" font-family="sans-serif" font-size="14" lengthAdjust="spacing" textLength="294" x="29" y="635.2717">_animateOnDragInstance : AnimateOnDrag</text><rect fill="none" height="6" style="stroke:#C82930;stroke-width:1.0;" width="6" x="17" y="644.969"/><text fill="#000000" font-family="sans-serif" font-size="14" lengthAdjust="spacing" textLength="288" x="29" y="651.76">_bottomSheetContentElem : HTMLElement</text><rect fill="none" height="6" style="stroke:#C82930;stroke-width:1.0;" width="6" x="17" y="661.4573"/><text fill="#000000" font-family="sans-serif" font-size="14" lengthAdjust="spacing" textLength="282" x="29" y="668.2483">_bottomSheetHeaderElem : HTMLElement</text><rect fill="none" height="6" style="stroke:#C82930;stroke-width:1.0;" width="6" x="17" y="677.9455"/><text fill="#000000" font-family="sans-serif" font-size="14" lengthAdjust="spacing" textLength="221" x="29" y="684.7366">_eventOnContentScroll : Generic</text><rect fill="none" height="6" style="stroke:#C82930;stroke-width:1.0;" width="6" x="17" y="694.4338"/><text fill="#000000" font-family="sans-serif" font-size="14" lengthAdjust="spacing" textLength="189" x="29" y="701.2248">_eventOnKeypress : Generic</text><rect fill="none" height="6" style="stroke:#C82930;stroke-width:1.0;" width="6" x="17" y="710.9221"/><text fill="#000000" font-family="sans-serif" font-size="14" lengthAdjust="spacing" textLength="273" x="29" y="717.7131">_focusManagerInstance : FocusManager</text><rect fill="none" height="6" style="stroke:#C82930;stroke-width:1.0;" width="6" x="17" y="727.4104"/><text fill="#000000" font-family="sans-serif" font-size="14" lengthAdjust="spacing" textLength="217" x="29" y="734.2014">_focusTrapInstance : FocusTrap</text><rect fill="none" height="6" style="stroke:#C82930;stroke-width:1.0;" width="6" x="17" y="743.8987"/><text fill="#000000" font-family="sans-serif" font-size="14" lengthAdjust="spacing" textLength="235" x="29" y="750.6897">_gestureEventInstance : DragEvent</text><rect fill="none" height="6" style="stroke:#C82930;stroke-width:1.0;" width="6" x="17" y="760.387"/><text fill="#000000" font-family="sans-serif" font-size="14" lengthAdjust="spacing" textLength="196" x="29" y="767.178">_hasGestureEvents : boolean</text><rect fill="none" height="6" style="stroke:#C82930;stroke-width:1.0;" width="6" x="17" y="776.8752"/><text fill="#000000" font-family="sans-serif" font-size="14" lengthAdjust="spacing" textLength="123" x="29" y="783.6663">_isOpen : boolean</text><rect fill="none" height="6" style="stroke:#C82930;stroke-width:1.0;" width="6" x="17" y="793.3635"/><text fill="#000000" font-family="sans-serif" font-size="14" lengthAdjust="spacing" textLength="182" x="29" y="800.1545">_parentSelf : HTMLElement</text><rect fill="none" height="6" style="stroke:#C82930;stroke-width:1.0;" width="6" x="17" y="809.8518"/><text fill="#000000" font-family="sans-serif" font-size="14" lengthAdjust="spacing" textLength="307" x="29" y="816.6428">_platformEventOnToggle : OSOnToggleEvent</text><line style="stroke:#272B30;stroke-width:0.5;" x1="10" x2="802" y1="823.5959" y2="823.5959"/><ellipse cx="20" cy="837.3401" fill="#84BE84" rx="3" ry="3" style="stroke:#038048;stroke-width:1.0;"/><text fill="#000000" font-family="sans-serif" font-size="14" lengthAdjust="spacing" textLength="86" x="29" y="841.1311">build() : void</text><ellipse cx="20" cy="853.8284" fill="#84BE84" rx="3" ry="3" style="stroke:#038048;stroke-width:1.0;"/><text fill="#000000" font-family="sans-serif" font-size="14" lengthAdjust="spacing" textLength="482" x="29" y="857.6194">changeProperty(propertyName: string, propertyValue: unknown) : void</text><ellipse cx="20" cy="870.3166" fill="#84BE84" rx="3" ry="3" style="stroke:#038048;stroke-width:1.0;"/><text fill="#000000" font-family="sans-serif" font-size="14" lengthAdjust="spacing" textLength="86" x="29" y="874.1077">close() : void</text><ellipse cx="20" cy="886.8049" fill="#84BE84" rx="3" ry="3" style="stroke:#038048;stroke-width:1.0;"/><text fill="#000000" font-family="sans-serif" font-size="14" lengthAdjust="spacing" textLength="104" x="29" y="890.5959">dispose() : void</text><ellipse cx="20" cy="903.2932" fill="#84BE84" rx="3" ry="3" style="stroke:#038048;stroke-width:1.0;"/><text fill="#000000" font-family="sans-serif" font-size="14" lengthAdjust="spacing" textLength="266" x="29" y="907.0842">equalsToID(patternId: string) : boolean</text><ellipse cx="20" cy="919.7815" fill="#84BE84" rx="3" ry="3" style="stroke:#038048;stroke-width:1.0;"/><text fill="#000000" font-family="sans-serif" font-size="14" lengthAdjust="spacing" textLength="86" x="29" y="923.5725">open() : void</text><ellipse cx="20" cy="936.2698" fill="#84BE84" rx="3" ry="3" style="stroke:#038048;stroke-width:1.0;"/><text fill="#000000" font-family="sans-serif" font-size="14" lengthAdjust="spacing" textLength="428" x="29" y="940.0608">registerCallback(eventName: string, callback: OSGeneric) : void</text><ellipse cx="20" cy="952.758" fill="#84BE84" rx="3" ry="3" style="stroke:#038048;stroke-width:1.0;"/><text fill="#000000" font-family="sans-serif" font-size="14" lengthAdjust="spacing" textLength="199" x="29" y="956.5491">removeGestureEvents() : void</text><polygon fill="#FFFF44" points="20,964.2463,24,968.2463,20,972.2463,16,968.2463" style="stroke:#B38D22;stroke-width:1.0;"/><text fill="#000000" font-family="sans-serif" font-size="14" lengthAdjust="spacing" textLength="123" x="29" y="973.0373">finishBuild() : void</text><polygon fill="#FFFF44" points="20,980.7346,24,984.7346,20,988.7346,16,984.7346" style="stroke:#B38D22;stroke-width:1.0;"/><text fill="#000000" font-family="sans-serif" font-size="14" lengthAdjust="spacing" textLength="200" x="29" y="989.5256">removeEventListeners() : void</text><polygon fill="#FFFF44" points="20,997.2229,24,1001.2229,20,1005.2229,16,1001.2229" style="stroke:#B38D22;stroke-width:1.0;"/><text fill="#000000" font-family="sans-serif" font-size="14" lengthAdjust="spacing" textLength="178" x="29" y="1006.0139">setA11YProperties() : void</text><polygon fill="#FFFF44" points="20,1013.7112,24,1017.7112,20,1021.7112,16,1017.7112" style="stroke:#B38D22;stroke-width:1.0;"/><text fill="#000000" font-family="sans-serif" font-size="14" lengthAdjust="spacing" textLength="136" x="29" y="1022.5022">setCallbacks() : void</text><polygon fill="#FFFF44" points="20,1030.1995,24,1034.1995,20,1038.1995,16,1034.1995" style="stroke:#B38D22;stroke-width:1.0;"/><text fill="#000000" font-family="sans-serif" font-size="14" lengthAdjust="spacing" textLength="169" x="29" y="1038.9905">setEventListeners() : void</text><polygon fill="#FFFF44" points="20,1046.6877,24,1050.6877,20,1054.6877,16,1050.6877" style="stroke:#B38D22;stroke-width:1.0;"/><text fill="#000000" font-family="sans-serif" font-size="14" lengthAdjust="spacing" textLength="768" x="29" y="1055.4788">setGestureEvents(onGestureStart: GestureStart, onGestureMove: GestureMove, onGestureEnd: GestureEnd) : void</text><polygon fill="#FFFF44" points="20,1063.176,24,1067.176,20,1071.176,16,1067.176" style="stroke:#B38D22;stroke-width:1.0;"/><text fill="#000000" font-family="sans-serif" font-size="14" lengthAdjust="spacing" textLength="165" x="29" y="1071.967">setHtmlElements() : void</text><polygon fill="#FFFF44" points="20,1079.6643,24,1083.6643,20,1087.6643,16,1083.6643" style="stroke:#B38D22;stroke-width:1.0;"/><text fill="#000000" font-family="sans-serif" font-size="14" lengthAdjust="spacing" textLength="163" x="29" y="1088.4553">setInitialOptions() : void</text><polygon fill="#FFFF44" points="20,1096.1526,24,1100.1526,20,1104.1526,16,1100.1526" style="stroke:#B38D22;stroke-width:1.0;"/><text fill="#000000" font-family="sans-serif" font-size="14" lengthAdjust="spacing" textLength="570" x="29" y="1104.9436">triggerPlatformEventCallback(platFormCallback: OSGeneric, args: unknown[]) : void</text><polygon fill="#FFFF44" points="20,1112.6409,24,1116.6409,20,1120.6409,16,1116.6409" style="stroke:#B38D22;stroke-width:1.0;"/><text fill="#000000" font-family="sans-serif" font-size="14" lengthAdjust="spacing" textLength="318" x="29" y="1121.4319">triggerPlatformInitializedEventCallback() : void</text><polygon fill="#FFFF44" points="20,1129.1291,24,1133.1291,20,1137.1291,16,1133.1291" style="stroke:#B38D22;stroke-width:1.0;"/><text fill="#000000" font-family="sans-serif" font-size="14" lengthAdjust="spacing" textLength="154" x="29" y="1137.9202">unsetCallbacks() : void</text><polygon fill="#FFFF44" points="20,1145.6174,24,1149.6174,20,1153.6174,16,1149.6174" style="stroke:#B38D22;stroke-width:1.0;"/><text fill="#000000" font-family="sans-serif" font-size="14" lengthAdjust="spacing" textLength="198" x="29" y="1154.4084">unsetGlobalCallbacks() : void</text><polygon fill="#FFFF44" points="20,1162.1057,24,1166.1057,20,1170.1057,16,1166.1057" style="stroke:#B38D22;stroke-width:1.0;"/><text fill="#000000" font-family="sans-serif" font-size="14" lengthAdjust="spacing" textLength="183" x="29" y="1170.8967">unsetHtmlElements() : void</text><rect fill="#F24D5C" height="6" style="stroke:#C82930;stroke-width:1.0;" width="6" x="17" y="1180.594"/><text fill="#000000" font-family="sans-serif" font-size="14" lengthAdjust="spacing" textLength="204" x="29" y="1187.385">_handleFocusBehavior() : void</text><rect fill="#F24D5C" height="6" style="stroke:#C82930;stroke-width:1.0;" width="6" x="17" y="1197.0823"/><text fill="#000000" font-family="sans-serif" font-size="14" lengthAdjust="spacing" textLength="202" x="29" y="1203.8733">_handleGestureEvents() : void</text><rect fill="#F24D5C" height="6" style="stroke:#C82930;stroke-width:1.0;" width="6" x="17" y="1213.5705"/><text fill="#000000" font-family="sans-serif" font-size="14" lengthAdjust="spacing" textLength="278" x="29" y="1220.3616">_handleShape(shape: ShapeTypes) : void</text><rect fill="#F24D5C" height="6" style="stroke:#C82930;stroke-width:1.0;" width="6" x="17" y="1230.0588"/><text fill="#000000" font-family="sans-serif" font-size="14" lengthAdjust="spacing" textLength="227" x="29" y="1236.8498">_onContentScrollCallback() : void</text><rect fill="#F24D5C" height="6" style="stroke:#C82930;stroke-width:1.0;" width="6" x="17" y="1246.5471"/><text fill="#000000" font-family="sans-serif" font-size="14" lengthAdjust="spacing" textLength="525" x="29" y="1253.3381">_onGestureEnd(offsetX: number, offsetY: number, timeTaken: number) : void</text><rect fill="#F24D5C" height="6" style="stroke:#C82930;stroke-width:1.0;" width="6" x="17" y="1263.0354"/><text fill="#000000" font-family="sans-serif" font-size="14" lengthAdjust="spacing" textLength="665" x="29" y="1269.8264">_onGestureMove(x: number, y: number, offsetX: number, offsetY: number, evt: TouchEvent) : void</text><rect fill="#F24D5C" height="6" style="stroke:#C82930;stroke-width:1.0;" width="6" x="17" y="1279.5237"/><text fill="#000000" font-family="sans-serif" font-size="14" lengthAdjust="spacing" textLength="309" x="29" y="1286.3147">_onGestureStart(x: number, y: number) : void</text><rect fill="#F24D5C" height="6" style="stroke:#C82930;stroke-width:1.0;" width="6" x="17" y="1296.012"/><text fill="#000000" font-family="sans-serif" font-size="14" lengthAdjust="spacing" textLength="312" x="29" y="1302.803">_onkeypressCallback(e: KeyboardEvent) : void</text><rect fill="#F24D5C" height="6" style="stroke:#C82930;stroke-width:1.0;" width="6" x="17" y="1312.5002"/><text fill="#000000" font-family="sans-serif" font-size="14" lengthAdjust="spacing" textLength="192" x="29" y="1319.2913">_removeHtmlClasses() : void</text><rect fill="#F24D5C" height="6" style="stroke:#C82930;stroke-width:1.0;" width="6" x="17" y="1328.9885"/><text fill="#000000" font-family="sans-serif" font-size="14" lengthAdjust="spacing" textLength="301" x="29" y="1335.7795">_toggleBottomSheet(isOpen: boolean) : void</text><rect fill="#F24D5C" height="6" style="stroke:#C82930;stroke-width:1.0;" width="6" x="17" y="1345.4768"/><text fill="#000000" font-family="sans-serif" font-size="14" lengthAdjust="spacing" textLength="311" x="29" y="1352.2678">_toggleHandler(ShowHandler: boolean) : void</text><rect fill="#F24D5C" height="6" style="stroke:#C82930;stroke-width:1.0;" width="6" x="17" y="1361.9651"/><text fill="#000000" font-family="sans-serif" font-size="14" lengthAdjust="spacing" textLength="210" x="29" y="1368.7561">_triggerOnToggleEvent() : void</text></g><!--reverse link IPattern to IBottomSheet--><g id="link_IPattern_IBottomSheet"><path codeLine="31" d="M406,221.6 C406,240.87 406,243.25 406,263.01 " fill="none" id="IPattern-backto-IBottomSheet" style="stroke:#272B30;stroke-width:1.0;"/><polygon fill="none" points="406,203.6,400,221.6,412,221.6,406,203.6" style="stroke:#272B30;stroke-width:1.0;"/></g><!--reverse link IBottomSheet to BottomSheet--><g id="link_IBottomSheet_BottomSheet"><path codeLine="81" d="M406,511.09 C406,529.52 406,531.48 406,552.42 " fill="none" id="IBottomSheet-backto-BottomSheet" style="stroke:#272B30;stroke-width:1.0;stroke-dasharray:7.0,7.0;"/><polygon fill="none" points="406,493.09,400,511.09,412,511.09,406,493.09" style="stroke:#272B30;stroke-width:1.0;"/></g><!--SRC=[tLPRJzim57xdLrZm4ZH0WqsQLF52Iw7LO4LgDGrDqtGIdoHU7JlOJhjkxB_FJj8sjtOFIDCq7b3ydUzSV6wkdZEHWeA433XeVQMKN0uabueSNRoxyD-yFj1rHbygYce_1O9vf6GcQ4aBmx32QOa3f6yf7CIC8i4aDIkIe8abrLKePCWjmeH15KA0v73SbyR8P1eZcaFoyu3OlrTCzpF63UaHNqgE80fO8m-771CKJZIQtT-LfqAS2VQKuPXQcJQAYQY0bun6Q5gmRprGxzYY2ybeWGKnY0WVb4nHcPMNbXyV8C6ryWbPen-1PnREn5p8fMWOub9ZmpXbEcsZ-9G1rpCvllOONJivRjxSUXGDHOKHqpQD0-3SjyNmS64pKGyrA6KzCfdUea35WesHNxKgF82n1_7_LE0bsNvvQYi9lNm-FMsq-K7W1emSThM-JftzAy4IC4oAWHGXYxIrFF6_OL3a-OXfcw657IlL1usq4V_fLyZLSIAk5KHZeGq8M-KUkQhY9TVV1c6T6NjHLzAEwjQe8mJhVISpJzX4b0QdWPASMsAPg3hfFQvIXLgtvA4CCdqF0Y9KbKlSLE0gSwOWRT8SLd8Yr2PJE7HEApINYHmhQJ7esmfJjtBBzCGEOmksMz7TrCv7Pq9I3YQKAXaMTvx9AEBE_MIwFco3-0TNKrfqy_YlRgZII28NM2j9tSrHo0JJSR-TiwD2DrUwSv5OyqrbZURg_Fonp2l33law_0xHdqpNmvQYF4yDAEEwVNiw8HlflOrv8tI7Ycmew4PalriEHoRXPUDrX3CMp33WazHjbgRS5YIo4_LGRTHDvLpxtbXqq2xN2G4LwKspVVworsmP0lk1jEwXhfM9FOdFXRTS-i3tKdOdmusve1pp7T7761PCgcxAdivRKwOnfEXfzxz7yiDibQ9kS6Lz6tPVtD6svVLa6DfxVEeHaIK-Aji8EV2u1GnBS0Pp56jebpdNIDxthUAgQNIV5rpOTft9B8ZpFEpoaNTofvEMnhnS-jlTq2Fs8V0bADhbenXbLz7ynocsIc7o9LfvKRrYKM_ML2T_b1TGUTDOBilldGf58zVMjLTxyclF-UNpsLdzXVyD]--></g></svg>