<?xml version="1.0" encoding="us-ascii" standalone="no"?><svg xmlns="http://www.w3.org/2000/svg" xmlns:xlink="http://www.w3.org/1999/xlink" contentStyleType="text/css" height="1250px" preserveAspectRatio="none" style="width:693px;height:1250px;background:#CED4DA;" version="1.1" viewBox="0 0 693 1250" width="693px" zoomAndPan="magnify"><defs/><g><rect fill="#CED4DA" height="1250" style="stroke:none;stroke-width:1.0;" width="693" x="0" y="0"/><!--class IDropdownServerSideItem--><g id="elem_IDropdownServerSideItem"><rect codeLine="7" fill="#FFFFFF" height="295.3242" id="IDropdownServerSideItem" rx="2.5" ry="2.5" style="stroke:#272B30;stroke-width:0.5;" width="508" x="93.5" y="329.35"/><ellipse cx="254.25" cy="345.35" fill="#B4A7E5" rx="11" ry="11" style="stroke:#181818;stroke-width:1.0;"/><path d="M250.6777,341.6151 L250.6777,339.4569 L258.0571,339.4569 L258.0571,341.6151 L255.5918,341.6151 L255.5918,349.6918 L258.0571,349.6918 L258.0571,351.85 L250.6777,351.85 L250.6777,349.6918 L253.1431,349.6918 L253.1431,341.6151 Z " fill="#000000"/><text fill="#000000" font-family="sans-serif" font-size="14" font-style="italic" lengthAdjust="spacing" textLength="178" x="274.75" y="350.641">IDropdownServerSideItem</text><line style="stroke:#272B30;stroke-width:0.5;" x1="94.5" x2="600.5" y1="361.35" y2="361.35"/><ellipse cx="104.5" cy="375.0941" fill="none" rx="3" ry="3" style="stroke:#038048;stroke-width:1.0;"/><text fill="#000000" font-family="sans-serif" font-size="14" lengthAdjust="spacing" textLength="109" x="113.5" y="378.8852">isBuilt : boolean</text><ellipse cx="104.5" cy="391.5824" fill="none" rx="3" ry="3" style="stroke:#038048;stroke-width:1.0;"/><text fill="#000000" font-family="sans-serif" font-size="14" lengthAdjust="spacing" textLength="208" x="113.5" y="395.3734">keyboardTriggeredKey : string</text><ellipse cx="104.5" cy="408.0707" fill="none" rx="3" ry="3" style="stroke:#038048;stroke-width:1.0;"/><text fill="#000000" font-family="sans-serif" font-size="14" lengthAdjust="spacing" textLength="184" x="113.5" y="411.8617">selfElement : HTMLElement</text><ellipse cx="104.5" cy="424.559" fill="none" rx="3" ry="3" style="stroke:#038048;stroke-width:1.0;"/><text fill="#000000" font-family="sans-serif" font-size="14" lengthAdjust="spacing" textLength="113" x="113.5" y="428.35">uniqueId : string</text><ellipse cx="104.5" cy="441.0473" fill="none" rx="3" ry="3" style="stroke:#038048;stroke-width:1.0;"/><text fill="#000000" font-family="sans-serif" font-size="14" lengthAdjust="spacing" textLength="111" x="113.5" y="444.8383">widgetId : string</text><line style="stroke:#272B30;stroke-width:0.5;" x1="94.5" x2="600.5" y1="451.7914" y2="451.7914"/><ellipse cx="104.5" cy="465.5355" fill="#84BE84" rx="3" ry="3" style="stroke:#038048;stroke-width:1.0;"/><text fill="#000000" font-family="sans-serif" font-size="14" lengthAdjust="spacing" textLength="86" x="113.5" y="469.3266">build() : void</text><ellipse cx="104.5" cy="482.0238" fill="#84BE84" rx="3" ry="3" style="stroke:#038048;stroke-width:1.0;"/><text fill="#000000" font-family="sans-serif" font-size="14" lengthAdjust="spacing" textLength="482" x="113.5" y="485.8148">changeProperty(propertyName: string, propertyValue: unknown) : void</text><ellipse cx="104.5" cy="498.5121" fill="#84BE84" rx="3" ry="3" style="stroke:#038048;stroke-width:1.0;"/><text fill="#000000" font-family="sans-serif" font-size="14" lengthAdjust="spacing" textLength="104" x="113.5" y="502.3031">dispose() : void</text><ellipse cx="104.5" cy="515.0004" fill="#84BE84" rx="3" ry="3" style="stroke:#038048;stroke-width:1.0;"/><text fill="#000000" font-family="sans-serif" font-size="14" lengthAdjust="spacing" textLength="216" x="113.5" y="518.7914">equalsToID(id: string) : boolean</text><ellipse cx="104.5" cy="531.4887" fill="#84BE84" rx="3" ry="3" style="stroke:#038048;stroke-width:1.0;"/><text fill="#000000" font-family="sans-serif" font-size="14" lengthAdjust="spacing" textLength="428" x="113.5" y="535.2797">registerCallback(eventName: string, callback: OSGeneric) : void</text><ellipse cx="104.5" cy="547.977" fill="#84BE84" rx="3" ry="3" style="stroke:#038048;stroke-width:1.0;"/><text fill="#000000" font-family="sans-serif" font-size="14" lengthAdjust="spacing" textLength="98" x="113.5" y="551.768">setBlur() : void</text><ellipse cx="104.5" cy="564.4652" fill="#84BE84" rx="3" ry="3" style="stroke:#038048;stroke-width:1.0;"/><text fill="#000000" font-family="sans-serif" font-size="14" lengthAdjust="spacing" textLength="111" x="113.5" y="568.2562">setFocus() : void</text><ellipse cx="104.5" cy="580.9535" fill="#84BE84" rx="3" ry="3" style="stroke:#038048;stroke-width:1.0;"/><text fill="#000000" font-family="sans-serif" font-size="14" lengthAdjust="spacing" textLength="136" x="113.5" y="584.7445">setTabindex() : void</text><ellipse cx="104.5" cy="597.4418" fill="#84BE84" rx="3" ry="3" style="stroke:#038048;stroke-width:1.0;"/><text fill="#000000" font-family="sans-serif" font-size="14" lengthAdjust="spacing" textLength="321" x="113.5" y="601.2328">toggleSelected(triggerCallback: boolean) : void</text><ellipse cx="104.5" cy="613.9301" fill="#84BE84" rx="3" ry="3" style="stroke:#038048;stroke-width:1.0;"/><text fill="#000000" font-family="sans-serif" font-size="14" lengthAdjust="spacing" textLength="154" x="113.5" y="617.7211">unsetTabindex() : void</text></g><!--class IChild--><g id="elem_IChild"><rect codeLine="24" fill="#FFFFFF" height="262.3477" id="IChild" rx="2.5" ry="2.5" style="stroke:#272B30;stroke-width:0.5;" width="508" x="93.5" y="7"/><ellipse cx="323.25" cy="23" fill="#B4A7E5" rx="11" ry="11" style="stroke:#181818;stroke-width:1.0;"/><path d="M319.6777,19.2651 L319.6777,17.1069 L327.0571,17.1069 L327.0571,19.2651 L324.5918,19.2651 L324.5918,27.3418 L327.0571,27.3418 L327.0571,29.5 L319.6777,29.5 L319.6777,27.3418 L322.1431,27.3418 L322.1431,19.2651 Z " fill="#000000"/><text fill="#000000" font-family="sans-serif" font-size="14" font-style="italic" lengthAdjust="spacing" textLength="40" x="343.75" y="28.291">IChild</text><line style="stroke:#272B30;stroke-width:0.5;" x1="94.5" x2="600.5" y1="39" y2="39"/><ellipse cx="104.5" cy="52.7441" fill="none" rx="3" ry="3" style="stroke:#038048;stroke-width:1.0;"/><text fill="#000000" font-family="sans-serif" font-size="14" lengthAdjust="spacing" textLength="109" x="113.5" y="56.5352">isBuilt : boolean</text><ellipse cx="104.5" cy="69.2324" fill="none" rx="3" ry="3" style="stroke:#038048;stroke-width:1.0;"/><text fill="#000000" font-family="sans-serif" font-size="14" lengthAdjust="spacing" textLength="184" x="113.5" y="73.0234">selfElement : HTMLElement</text><ellipse cx="104.5" cy="85.7207" fill="none" rx="3" ry="3" style="stroke:#038048;stroke-width:1.0;"/><text fill="#000000" font-family="sans-serif" font-size="14" lengthAdjust="spacing" textLength="113" x="113.5" y="89.5117">uniqueId : string</text><ellipse cx="104.5" cy="102.209" fill="none" rx="3" ry="3" style="stroke:#038048;stroke-width:1.0;"/><text fill="#000000" font-family="sans-serif" font-size="14" lengthAdjust="spacing" textLength="111" x="113.5" y="106">widgetId : string</text><line style="stroke:#272B30;stroke-width:0.5;" x1="94.5" x2="600.5" y1="112.9531" y2="112.9531"/><ellipse cx="104.5" cy="126.6973" fill="#84BE84" rx="3" ry="3" style="stroke:#038048;stroke-width:1.0;"/><text fill="#000000" font-family="sans-serif" font-size="14" lengthAdjust="spacing" textLength="86" x="113.5" y="130.4883">build() : void</text><ellipse cx="104.5" cy="143.1855" fill="#84BE84" rx="3" ry="3" style="stroke:#038048;stroke-width:1.0;"/><text fill="#000000" font-family="sans-serif" font-size="14" lengthAdjust="spacing" textLength="482" x="113.5" y="146.9766">changeProperty(propertyName: string, propertyValue: unknown) : void</text><ellipse cx="104.5" cy="159.6738" fill="#84BE84" rx="3" ry="3" style="stroke:#038048;stroke-width:1.0;"/><text fill="#000000" font-family="sans-serif" font-size="14" lengthAdjust="spacing" textLength="104" x="113.5" y="163.4648">dispose() : void</text><ellipse cx="104.5" cy="176.1621" fill="#84BE84" rx="3" ry="3" style="stroke:#038048;stroke-width:1.0;"/><text fill="#000000" font-family="sans-serif" font-size="14" lengthAdjust="spacing" textLength="216" x="113.5" y="179.9531">equalsToID(id: string) : boolean</text><ellipse cx="104.5" cy="192.6504" fill="#84BE84" rx="3" ry="3" style="stroke:#038048;stroke-width:1.0;"/><text fill="#000000" font-family="sans-serif" font-size="14" lengthAdjust="spacing" textLength="428" x="113.5" y="196.4414">registerCallback(eventName: string, callback: OSGeneric) : void</text><ellipse cx="104.5" cy="209.1387" fill="#84BE84" rx="3" ry="3" style="stroke:#038048;stroke-width:1.0;"/><text fill="#000000" font-family="sans-serif" font-size="14" lengthAdjust="spacing" textLength="98" x="113.5" y="212.9297">setBlur() : void</text><ellipse cx="104.5" cy="225.627" fill="#84BE84" rx="3" ry="3" style="stroke:#038048;stroke-width:1.0;"/><text fill="#000000" font-family="sans-serif" font-size="14" lengthAdjust="spacing" textLength="111" x="113.5" y="229.418">setFocus() : void</text><ellipse cx="104.5" cy="242.1152" fill="#84BE84" rx="3" ry="3" style="stroke:#038048;stroke-width:1.0;"/><text fill="#000000" font-family="sans-serif" font-size="14" lengthAdjust="spacing" textLength="136" x="113.5" y="245.9063">setTabindex() : void</text><ellipse cx="104.5" cy="258.6035" fill="#84BE84" rx="3" ry="3" style="stroke:#038048;stroke-width:1.0;"/><text fill="#000000" font-family="sans-serif" font-size="14" lengthAdjust="spacing" textLength="154" x="113.5" y="262.3945">unsetTabindex() : void</text></g><!--class DropdownServerSideItem--><g id="elem_DropdownServerSideItem"><rect codeLine="40" fill="#FFFFFF" height="559.1367" id="DropdownServerSideItem" rx="2.5" ry="2.5" style="stroke:#272B30;stroke-width:0.5;" width="677" x="9" y="684.67"/><ellipse cx="256.25" cy="700.67" fill="#ADD1B2" rx="11" ry="11" style="stroke:#181818;stroke-width:1.0;"/><path d="M258.7231,706.8131 Q258.1421,707.1119 257.5029,707.2613 Q256.8638,707.4107 256.1582,707.4107 Q253.6514,707.4107 252.3315,705.7589 Q251.0117,704.107 251.0117,700.9859 Q251.0117,697.8565 252.3315,696.2047 Q253.6514,694.5528 256.1582,694.5528 Q256.8638,694.5528 257.5112,694.7022 Q258.1587,694.8516 258.7231,695.1505 L258.7231,697.8731 Q258.0923,697.2921 257.4988,697.0223 Q256.9053,696.7525 256.2744,696.7525 Q254.9297,696.7525 254.2449,697.8192 Q253.5601,698.8858 253.5601,700.9859 Q253.5601,703.0777 254.2449,704.1444 Q254.9297,705.211 256.2744,705.211 Q256.9053,705.211 257.4988,704.9412 Q258.0923,704.6715 258.7231,704.0904 Z " fill="#000000"/><text fill="#000000" font-family="sans-serif" font-size="14" lengthAdjust="spacing" textLength="174" x="276.75" y="705.961">DropdownServerSideItem</text><line style="stroke:#272B30;stroke-width:0.5;" x1="10" x2="685" y1="716.67" y2="716.67"/><ellipse cx="20" cy="730.4141" fill="none" rx="3" ry="3" style="stroke:#038048;stroke-width:1.0;"/><text fill="#000000" font-family="sans-serif" font-size="14" lengthAdjust="spacing" textLength="208" x="29" y="734.2052">keyboardTriggeredKey : string</text><polygon fill="none" points="20,741.9024,24,745.9024,20,749.9024,16,745.9024" style="stroke:#B38D22;stroke-width:1.0;"/><text fill="#000000" font-family="sans-serif" font-size="14" lengthAdjust="spacing" textLength="176" x="29" y="750.6934">isProviderBased : boolean</text><rect fill="none" height="6" style="stroke:#C82930;stroke-width:1.0;" width="6" x="17" y="760.3907"/><text fill="#000000" font-family="sans-serif" font-size="14" lengthAdjust="spacing" textLength="161" x="29" y="767.1817">_eventOnClick : Generic</text><rect fill="none" height="6" style="stroke:#C82930;stroke-width:1.0;" width="6" x="17" y="776.879"/><text fill="#000000" font-family="sans-serif" font-size="14" lengthAdjust="spacing" textLength="228" x="29" y="783.67">_eventOnkeyboardPress : Generic</text><rect fill="none" height="6" style="stroke:#C82930;stroke-width:1.0;" width="6" x="17" y="793.3673"/><text fill="#000000" font-family="sans-serif" font-size="14" lengthAdjust="spacing" textLength="342" x="29" y="800.1583">_platformEventOnClickCallback : OSOnSelectEvent</text><line style="stroke:#272B30;stroke-width:0.5;" x1="10" x2="685" y1="807.1114" y2="807.1114"/><ellipse cx="20" cy="820.8555" fill="#84BE84" rx="3" ry="3" style="stroke:#038048;stroke-width:1.0;"/><text fill="#000000" font-family="sans-serif" font-size="14" lengthAdjust="spacing" textLength="86" x="29" y="824.6466">build() : void</text><ellipse cx="20" cy="837.3438" fill="#84BE84" rx="3" ry="3" style="stroke:#038048;stroke-width:1.0;"/><text fill="#000000" font-family="sans-serif" font-size="14" lengthAdjust="spacing" textLength="482" x="29" y="841.1348">changeProperty(propertyName: string, propertyValue: unknown) : void</text><ellipse cx="20" cy="853.8321" fill="#84BE84" rx="3" ry="3" style="stroke:#038048;stroke-width:1.0;"/><text fill="#000000" font-family="sans-serif" font-size="14" lengthAdjust="spacing" textLength="104" x="29" y="857.6231">dispose() : void</text><ellipse cx="20" cy="870.3204" fill="#84BE84" rx="3" ry="3" style="stroke:#038048;stroke-width:1.0;"/><text fill="#000000" font-family="sans-serif" font-size="14" lengthAdjust="spacing" textLength="266" x="29" y="874.1114">equalsToID(patternId: string) : boolean</text><ellipse cx="20" cy="886.8087" fill="#84BE84" rx="3" ry="3" style="stroke:#038048;stroke-width:1.0;"/><text fill="#000000" font-family="sans-serif" font-size="14" lengthAdjust="spacing" textLength="428" x="29" y="890.5997">registerCallback(eventName: string, callback: OSGeneric) : void</text><ellipse cx="20" cy="903.297" fill="#84BE84" rx="3" ry="3" style="stroke:#038048;stroke-width:1.0;"/><text fill="#000000" font-family="sans-serif" font-size="14" lengthAdjust="spacing" textLength="98" x="29" y="907.088">setBlur() : void</text><ellipse cx="20" cy="919.7852" fill="#84BE84" rx="3" ry="3" style="stroke:#038048;stroke-width:1.0;"/><text fill="#000000" font-family="sans-serif" font-size="14" lengthAdjust="spacing" textLength="111" x="29" y="923.5763">setFocus() : void</text><ellipse cx="20" cy="936.2735" fill="#84BE84" rx="3" ry="3" style="stroke:#038048;stroke-width:1.0;"/><text fill="#000000" font-family="sans-serif" font-size="14" lengthAdjust="spacing" textLength="136" x="29" y="940.0645">setTabindex() : void</text><ellipse cx="20" cy="952.7618" fill="#84BE84" rx="3" ry="3" style="stroke:#038048;stroke-width:1.0;"/><text fill="#000000" font-family="sans-serif" font-size="14" lengthAdjust="spacing" textLength="321" x="29" y="956.5528">toggleSelected(triggerCallback: boolean) : void</text><ellipse cx="20" cy="969.2501" fill="#84BE84" rx="3" ry="3" style="stroke:#038048;stroke-width:1.0;"/><text fill="#000000" font-family="sans-serif" font-size="14" lengthAdjust="spacing" textLength="154" x="29" y="973.0411">unsetTabindex() : void</text><polygon fill="#FFFF44" points="20,980.7384,24,984.7384,20,988.7384,16,984.7384" style="stroke:#B38D22;stroke-width:1.0;"/><text fill="#000000" font-family="sans-serif" font-size="14" lengthAdjust="spacing" textLength="123" x="29" y="989.5294">finishBuild() : void</text><polygon fill="#FFFF44" points="20,997.2266,24,1001.2266,20,1005.2266,16,1001.2266" style="stroke:#B38D22;stroke-width:1.0;"/><text fill="#000000" font-family="sans-serif" font-size="14" lengthAdjust="spacing" textLength="257" x="29" y="1006.0177">notifyParent(actionType: string) : void</text><polygon fill="#FFFF44" points="20,1013.7149,24,1017.7149,20,1021.7149,16,1017.7149" style="stroke:#B38D22;stroke-width:1.0;"/><text fill="#000000" font-family="sans-serif" font-size="14" lengthAdjust="spacing" textLength="178" x="29" y="1022.5059">setA11YProperties() : void</text><polygon fill="#FFFF44" points="20,1030.2032,24,1034.2032,20,1038.2032,16,1034.2032" style="stroke:#B38D22;stroke-width:1.0;"/><text fill="#000000" font-family="sans-serif" font-size="14" lengthAdjust="spacing" textLength="136" x="29" y="1038.9942">setCallbacks() : void</text><polygon fill="#FFFF44" points="20,1046.6915,24,1050.6915,20,1054.6915,16,1050.6915" style="stroke:#B38D22;stroke-width:1.0;"/><text fill="#000000" font-family="sans-serif" font-size="14" lengthAdjust="spacing" textLength="165" x="29" y="1055.4825">setHtmlElements() : void</text><polygon fill="#FFFF44" points="20,1063.1798,24,1067.1798,20,1071.1798,16,1067.1798" style="stroke:#B38D22;stroke-width:1.0;"/><text fill="#000000" font-family="sans-serif" font-size="14" lengthAdjust="spacing" textLength="651" x="29" y="1071.9708">setParentInfo(parentSelector: string, getPatternByIdAPI: Function, canBeOrphan: boolean) : void</text><polygon fill="#FFFF44" points="20,1079.668,24,1083.668,20,1087.668,16,1083.668" style="stroke:#B38D22;stroke-width:1.0;"/><text fill="#000000" font-family="sans-serif" font-size="14" lengthAdjust="spacing" textLength="570" x="29" y="1088.4591">triggerPlatformEventCallback(platFormCallback: OSGeneric, args: unknown[]) : void</text><polygon fill="#FFFF44" points="20,1096.1563,24,1100.1563,20,1104.1563,16,1100.1563" style="stroke:#B38D22;stroke-width:1.0;"/><text fill="#000000" font-family="sans-serif" font-size="14" lengthAdjust="spacing" textLength="318" x="29" y="1104.9473">triggerPlatformInitializedEventCallback() : void</text><polygon fill="#FFFF44" points="20,1112.6446,24,1116.6446,20,1120.6446,16,1116.6446" style="stroke:#B38D22;stroke-width:1.0;"/><text fill="#000000" font-family="sans-serif" font-size="14" lengthAdjust="spacing" textLength="154" x="29" y="1121.4356">unsetCallbacks() : void</text><polygon fill="#FFFF44" points="20,1129.1329,24,1133.1329,20,1137.1329,16,1133.1329" style="stroke:#B38D22;stroke-width:1.0;"/><text fill="#000000" font-family="sans-serif" font-size="14" lengthAdjust="spacing" textLength="198" x="29" y="1137.9239">unsetGlobalCallbacks() : void</text><polygon fill="#FFFF44" points="20,1145.6212,24,1149.6212,20,1153.6212,16,1149.6212" style="stroke:#B38D22;stroke-width:1.0;"/><text fill="#000000" font-family="sans-serif" font-size="14" lengthAdjust="spacing" textLength="183" x="29" y="1154.4122">unsetHtmlElements() : void</text><rect fill="#F24D5C" height="6" style="stroke:#C82930;stroke-width:1.0;" width="6" x="17" y="1164.1095"/><text fill="#000000" font-family="sans-serif" font-size="14" lengthAdjust="spacing" textLength="341" x="29" y="1170.9005">_onKeyboardPressed(event: KeyboardEvent) : void</text><rect fill="#F24D5C" height="6" style="stroke:#C82930;stroke-width:1.0;" width="6" x="17" y="1180.5977"/><text fill="#000000" font-family="sans-serif" font-size="14" lengthAdjust="spacing" textLength="375" x="29" y="1187.3888">_onSelected(event: MouseEvent | KeyboardEvent) : void</text><rect fill="#F24D5C" height="6" style="stroke:#C82930;stroke-width:1.0;" width="6" x="17" y="1197.086"/><text fill="#000000" font-family="sans-serif" font-size="14" lengthAdjust="spacing" textLength="153" x="29" y="1203.877">_removeEvents() : void</text><rect fill="#F24D5C" height="6" style="stroke:#C82930;stroke-width:1.0;" width="6" x="17" y="1213.5743"/><text fill="#000000" font-family="sans-serif" font-size="14" lengthAdjust="spacing" textLength="141" x="29" y="1220.3653">_setUpEvents() : void</text><rect fill="#F24D5C" height="6" style="stroke:#C82930;stroke-width:1.0;" width="6" x="17" y="1230.0626"/><text fill="#000000" font-family="sans-serif" font-size="14" lengthAdjust="spacing" textLength="310" x="29" y="1236.8536">_updateSelectedStatus(status: boolean) : void</text></g><!--reverse link IChild to IDropdownServerSideItem--><g id="link_IChild_IDropdownServerSideItem"><path codeLine="39" d="M347.5,287.4 C347.5,306.94 347.5,309.19 347.5,329.04 " fill="none" id="IChild-backto-IDropdownServerSideItem" style="stroke:#272B30;stroke-width:1.0;"/><polygon fill="none" points="347.5,269.4,341.5,287.4,353.5,287.4,347.5,269.4" style="stroke:#272B30;stroke-width:1.0;"/></g><!--reverse link IDropdownServerSideItem to DropdownServerSideItem--><g id="link_IDropdownServerSideItem_DropdownServerSideItem"><path codeLine="73" d="M347.5,642.91 C347.5,662.02 347.5,664.07 347.5,684.47 " fill="none" id="IDropdownServerSideItem-backto-DropdownServerSideItem" style="stroke:#272B30;stroke-width:1.0;stroke-dasharray:7.0,7.0;"/><polygon fill="none" points="347.5,624.91,341.5,642.91,353.5,642.91,347.5,624.91" style="stroke:#272B30;stroke-width:1.0;"/></g><!--SRC=[xLJBRjim4BpxAuZueg1nqAG52XYvHCfBI5CRi5kWA8g04bSoOOfKbfGJjUc_btevbcGxjw90wuljtTdbScQuUibbIf4cn1DKwtD4zUWfeP0CJp-S1k_U3dGRuIfaWFiXD5p6g3B9QbWKHHkONZe4zfxHmO8p892a9YS9c8LYUZCKSH0smgK1Z6W8vC2_G9KozIXdW2l0cSNw1f83ydD0xESDrsx6XI5Z4YWbWCegl8GyK1JP77aS0mAxXTnYj44kumgYGKIN0XAGHVND_EvZ_QzAPv8_PE2pJjKZPp6ONZYmGp3dq4PNYhCg5YweZ65gvmSqkPFMFpxH19hY8z94lr2HsN0cbz9Ujjs8SPqg3Ptsy91HeUVAlt0uQneUTeb0YBcsR7fKYC1gui3ANh4zGrZdncGokmO9oCFsKHgCAp9qUj4h5MQw7vxJW4i6JvsCKN4iO0O2GWFCCPKstlhqUl1sKIQtDlpLCectiFI_ved_WlzfmNTgjrRix7aqslt81s6nQSZ1AplWzSS-vDhAihA5w58Dh4FQwBuaQI8zmSEbJTQaj9FDCLC4ErGNb0fg8eN9vKQdHWDI43sHbVDBmDzWefGQwnFf_tlBexH4n2NN2xSlmL0gmwDyIj5Urg6XuKhEynGsQNe1smFEJqw-re9nwDoeo3T3RadTc4JKMsXBjXh1bv6oOXK_g-ihVA4_Bb2bZcxki_EfFoPNcIndBhIHBammjPRQJj2mfd6wQTwrseMbhspKwqjyH2Z6UksyRz_tjlKbDvmA_WDO-uHsLQdMBhBAvBLG0HLx8RiP7TqhURlvXgsDIaEFIHCkf-iLhKrNe-zKfg64akUzfGY9MbN8tYnsrC_fzbIMCchMLfyPQkmxqULNNyPYcUxQZsVFnySxj-Tl]--></g></svg>