<?xml version="1.0" encoding="us-ascii" standalone="no"?><svg xmlns="http://www.w3.org/2000/svg" xmlns:xlink="http://www.w3.org/1999/xlink" contentStyleType="text/css" height="2091px" preserveAspectRatio="none" style="width:1112px;height:2091px;background:#CED4DA;" version="1.1" viewBox="0 0 1112 2091" width="1112px" zoomAndPan="magnify"><defs/><g><rect fill="#CED4DA" height="2091" style="stroke:none;stroke-width:1.0;" width="1112" x="0" y="0"/><!--class IFlatpickr--><g id="elem_IFlatpickr"><rect codeLine="7" fill="#FFFFFF" height="443.7188" id="IFlatpickr" rx="2.5" ry="2.5" style="stroke:#272B30;stroke-width:0.5;" width="555" x="290" y="461.25"/><ellipse cx="531.75" cy="477.25" fill="#B4A7E5" rx="11" ry="11" style="stroke:#181818;stroke-width:1.0;"/><path d="M528.1777,473.5151 L528.1777,471.3569 L535.5571,471.3569 L535.5571,473.5151 L533.0918,473.5151 L533.0918,481.5918 L535.5571,481.5918 L535.5571,483.75 L528.1777,483.75 L528.1777,481.5918 L530.6431,481.5918 L530.6431,473.5151 Z " fill="#000000"/><text fill="#000000" font-family="sans-serif" font-size="14" font-style="italic" lengthAdjust="spacing" textLength="63" x="552.25" y="482.541">IFlatpickr</text><line style="stroke:#272B30;stroke-width:0.5;" x1="291" x2="844" y1="493.25" y2="493.25"/><ellipse cx="301" cy="506.9941" fill="none" rx="3" ry="3" style="stroke:#038048;stroke-width:1.0;"/><text fill="#000000" font-family="sans-serif" font-size="14" lengthAdjust="spacing" textLength="109" x="310" y="510.7852">isBuilt : boolean</text><ellipse cx="301" cy="523.4824" fill="none" rx="3" ry="3" style="stroke:#038048;stroke-width:1.0;"/><text fill="#000000" font-family="sans-serif" font-size="14" lengthAdjust="spacing" textLength="126" x="310" y="527.2734">provider : flatpickr</text><ellipse cx="301" cy="539.9707" fill="none" rx="3" ry="3" style="stroke:#038048;stroke-width:1.0;"/><text fill="#000000" font-family="sans-serif" font-size="14" lengthAdjust="spacing" textLength="181" x="310" y="543.7617">providerInfo : ProviderInfo</text><ellipse cx="301" cy="556.459" fill="none" rx="3" ry="3" style="stroke:#038048;stroke-width:1.0;"/><text fill="#000000" font-family="sans-serif" font-size="14" lengthAdjust="spacing" textLength="184" x="310" y="560.25">selfElement : HTMLElement</text><ellipse cx="301" cy="572.9473" fill="none" rx="3" ry="3" style="stroke:#038048;stroke-width:1.0;"/><text fill="#000000" font-family="sans-serif" font-size="14" lengthAdjust="spacing" textLength="113" x="310" y="576.7383">uniqueId : string</text><ellipse cx="301" cy="589.4355" fill="none" rx="3" ry="3" style="stroke:#038048;stroke-width:1.0;"/><text fill="#000000" font-family="sans-serif" font-size="14" lengthAdjust="spacing" textLength="111" x="310" y="593.2266">widgetId : string</text><line style="stroke:#272B30;stroke-width:0.5;" x1="291" x2="844" y1="600.1797" y2="600.1797"/><ellipse cx="301" cy="613.9238" fill="#84BE84" rx="3" ry="3" style="stroke:#038048;stroke-width:1.0;"/><text fill="#000000" font-family="sans-serif" font-size="14" lengthAdjust="spacing" textLength="86" x="310" y="617.7148">build() : void</text><ellipse cx="301" cy="630.4121" fill="#84BE84" rx="3" ry="3" style="stroke:#038048;stroke-width:1.0;"/><text fill="#000000" font-family="sans-serif" font-size="14" lengthAdjust="spacing" textLength="482" x="310" y="634.2031">changeProperty(propertyName: string, propertyValue: unknown) : void</text><ellipse cx="301" cy="646.9004" fill="#84BE84" rx="3" ry="3" style="stroke:#038048;stroke-width:1.0;"/><text fill="#000000" font-family="sans-serif" font-size="14" lengthAdjust="spacing" textLength="84" x="310" y="650.6914">clear() : void</text><ellipse cx="301" cy="663.3887" fill="#84BE84" rx="3" ry="3" style="stroke:#038048;stroke-width:1.0;"/><text fill="#000000" font-family="sans-serif" font-size="14" lengthAdjust="spacing" textLength="86" x="310" y="667.1797">close() : void</text><ellipse cx="301" cy="679.877" fill="#84BE84" rx="3" ry="3" style="stroke:#038048;stroke-width:1.0;"/><text fill="#000000" font-family="sans-serif" font-size="14" lengthAdjust="spacing" textLength="271" x="310" y="683.668">disableDays(disableDays: string[]) : void</text><ellipse cx="301" cy="696.3652" fill="#84BE84" rx="3" ry="3" style="stroke:#038048;stroke-width:1.0;"/><text fill="#000000" font-family="sans-serif" font-size="14" lengthAdjust="spacing" textLength="321" x="310" y="700.1563">disableWeekDays(disableDays: number[]) : void</text><ellipse cx="301" cy="712.8535" fill="#84BE84" rx="3" ry="3" style="stroke:#038048;stroke-width:1.0;"/><text fill="#000000" font-family="sans-serif" font-size="14" lengthAdjust="spacing" textLength="104" x="310" y="716.6445">dispose() : void</text><ellipse cx="301" cy="729.3418" fill="#84BE84" rx="3" ry="3" style="stroke:#038048;stroke-width:1.0;"/><text fill="#000000" font-family="sans-serif" font-size="14" lengthAdjust="spacing" textLength="216" x="310" y="733.1328">equalsToID(id: string) : boolean</text><ellipse cx="301" cy="745.8301" fill="#84BE84" rx="3" ry="3" style="stroke:#038048;stroke-width:1.0;"/><text fill="#000000" font-family="sans-serif" font-size="14" lengthAdjust="spacing" textLength="118" x="310" y="749.6211">onRender() : void</text><ellipse cx="301" cy="762.3184" fill="#84BE84" rx="3" ry="3" style="stroke:#038048;stroke-width:1.0;"/><text fill="#000000" font-family="sans-serif" font-size="14" lengthAdjust="spacing" textLength="86" x="310" y="766.1094">open() : void</text><ellipse cx="301" cy="778.8066" fill="#84BE84" rx="3" ry="3" style="stroke:#038048;stroke-width:1.0;"/><text fill="#000000" font-family="sans-serif" font-size="14" lengthAdjust="spacing" textLength="428" x="310" y="782.5977">registerCallback(eventName: string, callback: OSGeneric) : void</text><ellipse cx="301" cy="795.2949" fill="#84BE84" rx="3" ry="3" style="stroke:#038048;stroke-width:1.0;"/><text fill="#000000" font-family="sans-serif" font-size="14" lengthAdjust="spacing" textLength="222" x="310" y="799.0859">setLanguage(value: string) : void</text><ellipse cx="301" cy="811.7832" fill="#84BE84" rx="3" ry="3" style="stroke:#038048;stroke-width:1.0;"/><text fill="#000000" font-family="sans-serif" font-size="14" lengthAdjust="spacing" textLength="324" x="310" y="815.5742">setProviderConfigs(providerConfigs: any) : void</text><ellipse cx="301" cy="828.2715" fill="#84BE84" rx="3" ry="3" style="stroke:#038048;stroke-width:1.0;"/><text fill="#000000" font-family="sans-serif" font-size="14" lengthAdjust="spacing" textLength="529" x="310" y="832.0625">setProviderEvent(eventName: string, callback: Generic, uniqueId: string) : void</text><ellipse cx="301" cy="844.7598" fill="#84BE84" rx="3" ry="3" style="stroke:#038048;stroke-width:1.0;"/><text fill="#000000" font-family="sans-serif" font-size="14" lengthAdjust="spacing" textLength="281" x="310" y="848.5508">unsetProviderEvent(eventId: string) : void</text><ellipse cx="301" cy="861.248" fill="#84BE84" rx="3" ry="3" style="stroke:#038048;stroke-width:1.0;"/><text fill="#000000" font-family="sans-serif" font-size="14" lengthAdjust="spacing" textLength="350" x="310" y="865.0391">updateInitialDate(date1: string, date2: string) : void</text><ellipse cx="301" cy="877.7363" fill="#84BE84" rx="3" ry="3" style="stroke:#038048;stroke-width:1.0;"/><text fill="#000000" font-family="sans-serif" font-size="14" lengthAdjust="spacing" textLength="307" x="310" y="881.5273">updatePrompt(promptMessage: string) : void</text><ellipse cx="301" cy="894.2246" fill="#84BE84" rx="3" ry="3" style="stroke:#038048;stroke-width:1.0;"/><text fill="#000000" font-family="sans-serif" font-size="14" lengthAdjust="spacing" textLength="377" x="310" y="898.0156">updateProviderEvents(providerInfo: ProviderInfo) : void</text></g><!--class IDatePicker--><g id="elem_IDatePicker"><rect codeLine="33" fill="#FFFFFF" height="394.2539" id="IDatePicker" rx="2.5" ry="2.5" style="stroke:#272B30;stroke-width:0.5;" width="555" x="7" y="7"/><ellipse cx="242.25" cy="23" fill="#B4A7E5" rx="11" ry="11" style="stroke:#181818;stroke-width:1.0;"/><path d="M238.6777,19.2651 L238.6777,17.1069 L246.0571,17.1069 L246.0571,19.2651 L243.5918,19.2651 L243.5918,27.3418 L246.0571,27.3418 L246.0571,29.5 L238.6777,29.5 L238.6777,27.3418 L241.1431,27.3418 L241.1431,19.2651 Z " fill="#000000"/><text fill="#000000" font-family="sans-serif" font-size="14" font-style="italic" lengthAdjust="spacing" textLength="76" x="262.75" y="28.291">IDatePicker</text><line style="stroke:#272B30;stroke-width:0.5;" x1="8" x2="561" y1="39" y2="39"/><ellipse cx="18" cy="52.7441" fill="none" rx="3" ry="3" style="stroke:#038048;stroke-width:1.0;"/><text fill="#000000" font-family="sans-serif" font-size="14" lengthAdjust="spacing" textLength="109" x="27" y="56.5352">isBuilt : boolean</text><ellipse cx="18" cy="69.2324" fill="none" rx="3" ry="3" style="stroke:#038048;stroke-width:1.0;"/><text fill="#000000" font-family="sans-serif" font-size="14" lengthAdjust="spacing" textLength="184" x="27" y="73.0234">selfElement : HTMLElement</text><ellipse cx="18" cy="85.7207" fill="none" rx="3" ry="3" style="stroke:#038048;stroke-width:1.0;"/><text fill="#000000" font-family="sans-serif" font-size="14" lengthAdjust="spacing" textLength="113" x="27" y="89.5117">uniqueId : string</text><ellipse cx="18" cy="102.209" fill="none" rx="3" ry="3" style="stroke:#038048;stroke-width:1.0;"/><text fill="#000000" font-family="sans-serif" font-size="14" lengthAdjust="spacing" textLength="111" x="27" y="106">widgetId : string</text><line style="stroke:#272B30;stroke-width:0.5;" x1="8" x2="561" y1="112.9531" y2="112.9531"/><ellipse cx="18" cy="126.6973" fill="#84BE84" rx="3" ry="3" style="stroke:#038048;stroke-width:1.0;"/><text fill="#000000" font-family="sans-serif" font-size="14" lengthAdjust="spacing" textLength="86" x="27" y="130.4883">build() : void</text><ellipse cx="18" cy="143.1855" fill="#84BE84" rx="3" ry="3" style="stroke:#038048;stroke-width:1.0;"/><text fill="#000000" font-family="sans-serif" font-size="14" lengthAdjust="spacing" textLength="482" x="27" y="146.9766">changeProperty(propertyName: string, propertyValue: unknown) : void</text><ellipse cx="18" cy="159.6738" fill="#84BE84" rx="3" ry="3" style="stroke:#038048;stroke-width:1.0;"/><text fill="#000000" font-family="sans-serif" font-size="14" lengthAdjust="spacing" textLength="84" x="27" y="163.4648">clear() : void</text><ellipse cx="18" cy="176.1621" fill="#84BE84" rx="3" ry="3" style="stroke:#038048;stroke-width:1.0;"/><text fill="#000000" font-family="sans-serif" font-size="14" lengthAdjust="spacing" textLength="86" x="27" y="179.9531">close() : void</text><ellipse cx="18" cy="192.6504" fill="#84BE84" rx="3" ry="3" style="stroke:#038048;stroke-width:1.0;"/><text fill="#000000" font-family="sans-serif" font-size="14" lengthAdjust="spacing" textLength="271" x="27" y="196.4414">disableDays(disableDays: string[]) : void</text><ellipse cx="18" cy="209.1387" fill="#84BE84" rx="3" ry="3" style="stroke:#038048;stroke-width:1.0;"/><text fill="#000000" font-family="sans-serif" font-size="14" lengthAdjust="spacing" textLength="321" x="27" y="212.9297">disableWeekDays(disableDays: number[]) : void</text><ellipse cx="18" cy="225.627" fill="#84BE84" rx="3" ry="3" style="stroke:#038048;stroke-width:1.0;"/><text fill="#000000" font-family="sans-serif" font-size="14" lengthAdjust="spacing" textLength="104" x="27" y="229.418">dispose() : void</text><ellipse cx="18" cy="242.1152" fill="#84BE84" rx="3" ry="3" style="stroke:#038048;stroke-width:1.0;"/><text fill="#000000" font-family="sans-serif" font-size="14" lengthAdjust="spacing" textLength="216" x="27" y="245.9063">equalsToID(id: string) : boolean</text><ellipse cx="18" cy="258.6035" fill="#84BE84" rx="3" ry="3" style="stroke:#038048;stroke-width:1.0;"/><text fill="#000000" font-family="sans-serif" font-size="14" lengthAdjust="spacing" textLength="118" x="27" y="262.3945">onRender() : void</text><ellipse cx="18" cy="275.0918" fill="#84BE84" rx="3" ry="3" style="stroke:#038048;stroke-width:1.0;"/><text fill="#000000" font-family="sans-serif" font-size="14" lengthAdjust="spacing" textLength="86" x="27" y="278.8828">open() : void</text><ellipse cx="18" cy="291.5801" fill="#84BE84" rx="3" ry="3" style="stroke:#038048;stroke-width:1.0;"/><text fill="#000000" font-family="sans-serif" font-size="14" lengthAdjust="spacing" textLength="428" x="27" y="295.3711">registerCallback(eventName: string, callback: OSGeneric) : void</text><ellipse cx="18" cy="308.0684" fill="#84BE84" rx="3" ry="3" style="stroke:#038048;stroke-width:1.0;"/><text fill="#000000" font-family="sans-serif" font-size="14" lengthAdjust="spacing" textLength="222" x="27" y="311.8594">setLanguage(value: string) : void</text><ellipse cx="18" cy="324.5566" fill="#84BE84" rx="3" ry="3" style="stroke:#038048;stroke-width:1.0;"/><text fill="#000000" font-family="sans-serif" font-size="14" lengthAdjust="spacing" textLength="324" x="27" y="328.3477">setProviderConfigs(providerConfigs: any) : void</text><ellipse cx="18" cy="341.0449" fill="#84BE84" rx="3" ry="3" style="stroke:#038048;stroke-width:1.0;"/><text fill="#000000" font-family="sans-serif" font-size="14" lengthAdjust="spacing" textLength="529" x="27" y="344.8359">setProviderEvent(eventName: string, callback: Generic, uniqueId: string) : void</text><ellipse cx="18" cy="357.5332" fill="#84BE84" rx="3" ry="3" style="stroke:#038048;stroke-width:1.0;"/><text fill="#000000" font-family="sans-serif" font-size="14" lengthAdjust="spacing" textLength="281" x="27" y="361.3242">unsetProviderEvent(eventId: string) : void</text><ellipse cx="18" cy="374.0215" fill="#84BE84" rx="3" ry="3" style="stroke:#038048;stroke-width:1.0;"/><text fill="#000000" font-family="sans-serif" font-size="14" lengthAdjust="spacing" textLength="350" x="27" y="377.8125">updateInitialDate(date1: string, date2: string) : void</text><ellipse cx="18" cy="390.5098" fill="#84BE84" rx="3" ry="3" style="stroke:#038048;stroke-width:1.0;"/><text fill="#000000" font-family="sans-serif" font-size="14" lengthAdjust="spacing" textLength="307" x="27" y="394.3008">updatePrompt(promptMessage: string) : void</text></g><!--class IProviderPattern<Flatpickr>--><g id="elem_IProviderPattern&lt;Flatpickr&gt;"><rect codeLine="57" fill="#FFFFFF" height="262.3477" id="IProviderPattern&lt;Flatpickr&gt;" rx="2.5" ry="2.5" style="stroke:#272B30;stroke-width:0.5;" width="508" x="597.5" y="72.95"/><ellipse cx="751.75" cy="88.95" fill="#B4A7E5" rx="11" ry="11" style="stroke:#181818;stroke-width:1.0;"/><path d="M748.1777,85.2151 L748.1777,83.0569 L755.5571,83.0569 L755.5571,85.2151 L753.0918,85.2151 L753.0918,93.2918 L755.5571,93.2918 L755.5571,95.45 L748.1777,95.45 L748.1777,93.2918 L750.6431,93.2918 L750.6431,85.2151 Z " fill="#000000"/><text fill="#000000" font-family="sans-serif" font-size="14" font-style="italic" lengthAdjust="spacing" textLength="191" x="772.25" y="94.241">IProviderPattern&lt;Flatpickr&gt;</text><line style="stroke:#272B30;stroke-width:0.5;" x1="598.5" x2="1104.5" y1="104.95" y2="104.95"/><ellipse cx="608.5" cy="118.6941" fill="none" rx="3" ry="3" style="stroke:#038048;stroke-width:1.0;"/><text fill="#000000" font-family="sans-serif" font-size="14" lengthAdjust="spacing" textLength="109" x="617.5" y="122.4852">isBuilt : boolean</text><ellipse cx="608.5" cy="135.1824" fill="none" rx="3" ry="3" style="stroke:#038048;stroke-width:1.0;"/><text fill="#000000" font-family="sans-serif" font-size="14" lengthAdjust="spacing" textLength="129" x="617.5" y="138.9734">provider : Flatpickr</text><ellipse cx="608.5" cy="151.6707" fill="none" rx="3" ry="3" style="stroke:#038048;stroke-width:1.0;"/><text fill="#000000" font-family="sans-serif" font-size="14" lengthAdjust="spacing" textLength="181" x="617.5" y="155.4617">providerInfo : ProviderInfo</text><ellipse cx="608.5" cy="168.159" fill="none" rx="3" ry="3" style="stroke:#038048;stroke-width:1.0;"/><text fill="#000000" font-family="sans-serif" font-size="14" lengthAdjust="spacing" textLength="184" x="617.5" y="171.95">selfElement : HTMLElement</text><ellipse cx="608.5" cy="184.6473" fill="none" rx="3" ry="3" style="stroke:#038048;stroke-width:1.0;"/><text fill="#000000" font-family="sans-serif" font-size="14" lengthAdjust="spacing" textLength="113" x="617.5" y="188.4383">uniqueId : string</text><ellipse cx="608.5" cy="201.1355" fill="none" rx="3" ry="3" style="stroke:#038048;stroke-width:1.0;"/><text fill="#000000" font-family="sans-serif" font-size="14" lengthAdjust="spacing" textLength="111" x="617.5" y="204.9266">widgetId : string</text><line style="stroke:#272B30;stroke-width:0.5;" x1="598.5" x2="1104.5" y1="211.8797" y2="211.8797"/><ellipse cx="608.5" cy="225.6238" fill="#84BE84" rx="3" ry="3" style="stroke:#038048;stroke-width:1.0;"/><text fill="#000000" font-family="sans-serif" font-size="14" lengthAdjust="spacing" textLength="86" x="617.5" y="229.4148">build() : void</text><ellipse cx="608.5" cy="242.1121" fill="#84BE84" rx="3" ry="3" style="stroke:#038048;stroke-width:1.0;"/><text fill="#000000" font-family="sans-serif" font-size="14" lengthAdjust="spacing" textLength="482" x="617.5" y="245.9031">changeProperty(propertyName: string, propertyValue: unknown) : void</text><ellipse cx="608.5" cy="258.6004" fill="#84BE84" rx="3" ry="3" style="stroke:#038048;stroke-width:1.0;"/><text fill="#000000" font-family="sans-serif" font-size="14" lengthAdjust="spacing" textLength="104" x="617.5" y="262.3914">dispose() : void</text><ellipse cx="608.5" cy="275.0887" fill="#84BE84" rx="3" ry="3" style="stroke:#038048;stroke-width:1.0;"/><text fill="#000000" font-family="sans-serif" font-size="14" lengthAdjust="spacing" textLength="216" x="617.5" y="278.8797">equalsToID(id: string) : boolean</text><ellipse cx="608.5" cy="291.577" fill="#84BE84" rx="3" ry="3" style="stroke:#038048;stroke-width:1.0;"/><text fill="#000000" font-family="sans-serif" font-size="14" lengthAdjust="spacing" textLength="428" x="617.5" y="295.368">registerCallback(eventName: string, callback: OSGeneric) : void</text><ellipse cx="608.5" cy="308.0652" fill="#84BE84" rx="3" ry="3" style="stroke:#038048;stroke-width:1.0;"/><text fill="#000000" font-family="sans-serif" font-size="14" lengthAdjust="spacing" textLength="294" x="617.5" y="311.8563">setProviderConfigs(newConfigs: any) : void</text><ellipse cx="608.5" cy="324.5535" fill="#84BE84" rx="3" ry="3" style="stroke:#038048;stroke-width:1.0;"/><text fill="#000000" font-family="sans-serif" font-size="14" lengthAdjust="spacing" textLength="377" x="617.5" y="328.3445">updateProviderEvents(providerInfo: ProviderInfo) : void</text></g><!--class AbstractFlatpickr<C>--><g id="elem_AbstractFlatpickr&lt;C&gt;"><rect codeLine="73" fill="#FFFFFF" height="1119.7383" id="AbstractFlatpickr&lt;C&gt;" rx="2.5" ry="2.5" style="stroke:#272B30;stroke-width:0.5;" width="694" x="220.5" y="964.97"/><ellipse cx="489.25" cy="980.97" fill="#A9DCDF" rx="11" ry="11" style="stroke:#181818;stroke-width:1.0;"/><path d="M489.1133,976.3181 L487.9595,981.3899 L490.2754,981.3899 Z M487.6191,974.0769 L490.6157,974.0769 L493.9609,986.47 L491.5122,986.47 L490.7485,983.407 L487.4697,983.407 L486.7227,986.47 L484.2739,986.47 Z " fill="#000000"/><text fill="#000000" font-family="sans-serif" font-size="14" font-style="italic" lengthAdjust="spacing" textLength="148" x="509.75" y="986.261">AbstractFlatpickr&lt;C&gt;</text><line style="stroke:#272B30;stroke-width:0.5;" x1="221.5" x2="913.5" y1="996.97" y2="996.97"/><ellipse cx="231.5" cy="1010.7141" fill="none" rx="3" ry="3" style="stroke:#038048;stroke-width:1.0;"/><text fill="#000000" font-family="sans-serif" font-size="14" lengthAdjust="spacing" textLength="203" x="240.5" y="1014.5052">onCloseCustomCallback : any</text><polygon fill="none" points="231.5,1022.2024,235.5,1026.2024,231.5,1030.2024,227.5,1026.2024" style="stroke:#B38D22;stroke-width:1.0;"/><text fill="#000000" font-family="sans-serif" font-size="14" lengthAdjust="spacing" textLength="339" x="240.5" y="1030.9934">datePickerPlatformInputElem : HTMLInputElement</text><polygon fill="none" points="231.5,1038.6907,235.5,1042.6907,231.5,1046.6907,227.5,1042.6907" style="stroke:#B38D22;stroke-width:1.0;"/><text fill="#000000" font-family="sans-serif" font-size="14" lengthAdjust="spacing" textLength="266" x="240.5" y="1047.4817">flatpickrInputElem : HTMLInputElement</text><polygon fill="none" points="231.5,1055.179,235.5,1059.179,231.5,1063.179,227.5,1059.179" style="stroke:#B38D22;stroke-width:1.0;"/><text fill="#000000" font-family="sans-serif" font-size="14" lengthAdjust="spacing" textLength="213" x="240.5" y="1063.97">flatpickrOpts : FlatpickrOptions</text><polygon fill="none" points="231.5,1071.6673,235.5,1075.6673,231.5,1079.6673,227.5,1075.6673" style="stroke:#B38D22;stroke-width:1.0;"/><text fill="#000000" font-family="sans-serif" font-size="14" lengthAdjust="spacing" textLength="176" x="240.5" y="1080.4583">isProviderBased : boolean</text><polygon fill="none" points="231.5,1088.1555,235.5,1092.1555,231.5,1096.1555,227.5,1092.1555" style="stroke:#B38D22;stroke-width:1.0;"/><text fill="#000000" font-family="sans-serif" font-size="14" lengthAdjust="spacing" textLength="311" x="240.5" y="1096.9466">onSelectedCallbackEvent : OSOnChangeEvent</text><polygon fill="none" points="231.5,1104.6438,235.5,1108.6438,231.5,1112.6438,227.5,1108.6438" style="stroke:#B38D22;stroke-width:1.0;"/><text fill="#000000" font-family="sans-serif" font-size="14" lengthAdjust="spacing" textLength="389" x="240.5" y="1113.4348">providerEventsManagerInstance : IProviderEventManager</text><rect fill="none" height="6" style="stroke:#C82930;stroke-width:1.0;" width="6" x="228.5" y="1123.1321"/><text fill="#000000" font-family="sans-serif" font-size="14" lengthAdjust="spacing" textLength="273" x="240.5" y="1129.9231">_a11yInfoContainerElem : HTMLElement</text><rect fill="none" height="6" style="stroke:#C82930;stroke-width:1.0;" width="6" x="228.5" y="1139.6204"/><text fill="#000000" font-family="sans-serif" font-size="14" lengthAdjust="spacing" textLength="303" x="240.5" y="1146.4114">_a11yMonthInformationElem : HTMLElement</text><rect fill="none" height="6" style="stroke:#C82930;stroke-width:1.0;" width="6" x="228.5" y="1156.1087"/><text fill="#000000" font-family="sans-serif" font-size="14" lengthAdjust="spacing" textLength="384" x="240.5" y="1162.8997">_bodyScrollCommonBehaviour : UpdatePositionOnScroll</text><rect fill="none" height="6" style="stroke:#C82930;stroke-width:1.0;" width="6" x="228.5" y="1172.597"/><text fill="#000000" font-family="sans-serif" font-size="14" lengthAdjust="spacing" textLength="309" x="240.5" y="1179.388">_flatpickrInputLabelElem : HTMLLabelElement</text><rect fill="none" height="6" style="stroke:#C82930;stroke-width:1.0;" width="6" x="228.5" y="1189.0852"/><text fill="#000000" font-family="sans-serif" font-size="14" lengthAdjust="spacing" textLength="239" x="240.5" y="1195.8763">_isPlatformInputDisabled : boolean</text><rect fill="none" height="6" style="stroke:#C82930;stroke-width:1.0;" width="6" x="228.5" y="1205.5735"/><text fill="#000000" font-family="sans-serif" font-size="14" lengthAdjust="spacing" textLength="289" x="240.5" y="1212.3645">_providerFocusSpanTarget : HTMLElement</text><rect fill="none" height="6" style="stroke:#C82930;stroke-width:1.0;" width="6" x="228.5" y="1222.0618"/><text fill="#000000" font-family="sans-serif" font-size="14" lengthAdjust="spacing" textLength="228" x="240.5" y="1228.8528">_todayButtonElem : HTMLElement</text><rect fill="none" height="6" style="stroke:#C82930;stroke-width:1.0;" width="6" x="228.5" y="1238.5501"/><text fill="#000000" font-family="sans-serif" font-size="14" lengthAdjust="spacing" textLength="284" x="240.5" y="1245.3411">_zindexCommonBehavior : UpdateZindex</text><line style="stroke:#272B30;stroke-width:0.5;" x1="221.5" x2="913.5" y1="1252.2942" y2="1252.2942"/><ellipse cx="231.5" cy="1266.0384" fill="#84BE84" rx="3" ry="3" style="stroke:#038048;stroke-width:1.0;"/><text fill="#000000" font-family="sans-serif" font-size="14" lengthAdjust="spacing" textLength="86" x="240.5" y="1269.8294">build() : void</text><ellipse cx="231.5" cy="1282.5266" fill="#84BE84" rx="3" ry="3" style="stroke:#038048;stroke-width:1.0;"/><text fill="#000000" font-family="sans-serif" font-size="14" lengthAdjust="spacing" textLength="482" x="240.5" y="1286.3177">changeProperty(propertyName: string, propertyValue: unknown) : void</text><ellipse cx="231.5" cy="1299.0149" fill="#84BE84" rx="3" ry="3" style="stroke:#038048;stroke-width:1.0;"/><text fill="#000000" font-family="sans-serif" font-size="14" lengthAdjust="spacing" textLength="236" x="240.5" y="1302.8059">checkAddedProviderEvents() : void</text><ellipse cx="231.5" cy="1315.5032" fill="#84BE84" rx="3" ry="3" style="stroke:#038048;stroke-width:1.0;"/><text fill="#000000" font-family="sans-serif" font-size="14" lengthAdjust="spacing" textLength="247" x="240.5" y="1319.2942">checkPendingProviderEvents() : void</text><ellipse cx="231.5" cy="1331.9915" fill="#84BE84" rx="3" ry="3" style="stroke:#038048;stroke-width:1.0;"/><text fill="#000000" font-family="sans-serif" font-size="14" lengthAdjust="spacing" textLength="84" x="240.5" y="1335.7825">clear() : void</text><ellipse cx="231.5" cy="1348.4798" fill="#84BE84" rx="3" ry="3" style="stroke:#038048;stroke-width:1.0;"/><text fill="#000000" font-family="sans-serif" font-size="14" lengthAdjust="spacing" textLength="86" x="240.5" y="1352.2708">close() : void</text><ellipse cx="231.5" cy="1364.968" fill="#84BE84" rx="3" ry="3" style="stroke:#038048;stroke-width:1.0;"/><text fill="#000000" font-family="sans-serif" font-size="14" lengthAdjust="spacing" textLength="271" x="240.5" y="1368.7591">disableDays(disableDays: string[]) : void</text><ellipse cx="231.5" cy="1381.4563" fill="#84BE84" rx="3" ry="3" style="stroke:#038048;stroke-width:1.0;"/><text fill="#000000" font-family="sans-serif" font-size="14" lengthAdjust="spacing" textLength="357" x="240.5" y="1385.2473">disableWeekDays(disableWeekDays: number[]) : void</text><ellipse cx="231.5" cy="1397.9446" fill="#84BE84" rx="3" ry="3" style="stroke:#038048;stroke-width:1.0;"/><text fill="#000000" font-family="sans-serif" font-size="14" lengthAdjust="spacing" textLength="104" x="240.5" y="1401.7356">dispose() : void</text><ellipse cx="231.5" cy="1414.4329" fill="#84BE84" rx="3" ry="3" style="stroke:#038048;stroke-width:1.0;"/><text fill="#000000" font-family="sans-serif" font-size="14" lengthAdjust="spacing" textLength="266" x="240.5" y="1418.2239">equalsToID(patternId: string) : boolean</text><ellipse cx="231.5" cy="1430.9212" fill="#84BE84" rx="3" ry="3" style="stroke:#038048;stroke-width:1.0;"/><text fill="#000000" font-family="sans-serif" font-size="14" lengthAdjust="spacing" textLength="118" x="240.5" y="1434.7122">onRender() : void</text><ellipse cx="231.5" cy="1447.4095" fill="#84BE84" rx="3" ry="3" style="stroke:#038048;stroke-width:1.0;"/><text fill="#000000" font-family="sans-serif" font-size="14" lengthAdjust="spacing" textLength="86" x="240.5" y="1451.2005">open() : void</text><ellipse cx="231.5" cy="1463.8977" fill="#84BE84" rx="3" ry="3" style="stroke:#038048;stroke-width:1.0;"/><text fill="#000000" font-family="sans-serif" font-size="14" lengthAdjust="spacing" textLength="428" x="240.5" y="1467.6888">registerCallback(eventName: string, callback: OSGeneric) : void</text><ellipse cx="231.5" cy="1480.386" fill="#84BE84" rx="3" ry="3" style="stroke:#038048;stroke-width:1.0;"/><text fill="#000000" font-family="sans-serif" font-size="14" lengthAdjust="spacing" textLength="292" x="240.5" y="1484.177">setEditableInput(isEditable: boolean) : void</text><ellipse cx="231.5" cy="1496.8743" fill="#84BE84" rx="3" ry="3" style="stroke:#038048;stroke-width:1.0;"/><text fill="#000000" font-family="sans-serif" font-size="14" lengthAdjust="spacing" textLength="222" x="240.5" y="1500.6653">setLanguage(value: string) : void</text><ellipse cx="231.5" cy="1513.3626" fill="#84BE84" rx="3" ry="3" style="stroke:#038048;stroke-width:1.0;"/><text fill="#000000" font-family="sans-serif" font-size="14" lengthAdjust="spacing" textLength="383" x="240.5" y="1517.1536">setProviderConfigs(newConfigs: FlatpickrOptions) : void</text><ellipse cx="231.5" cy="1529.8509" fill="#84BE84" rx="3" ry="3" style="stroke:#038048;stroke-width:1.0;"/><text fill="#000000" font-family="sans-serif" font-size="14" lengthAdjust="spacing" textLength="668" x="240.5" y="1533.6419">setProviderEvent(eventName: string, callback: Generic, uniqueId: string, saveEvent: boolean) : void</text><ellipse cx="231.5" cy="1546.3391" fill="#84BE84" rx="3" ry="3" style="stroke:#038048;stroke-width:1.0;"/><text fill="#000000" font-family="sans-serif" font-size="14" lengthAdjust="spacing" textLength="281" x="240.5" y="1550.1302">unsetProviderEvent(eventId: string) : void</text><ellipse cx="231.5" cy="1562.8274" fill="#84BE84" rx="3" ry="3" style="stroke:#038048;stroke-width:1.0;"/><text fill="#000000" font-family="sans-serif" font-size="14" font-style="italic" lengthAdjust="spacing" textLength="329" x="240.5" y="1566.6184">updateInitialDate(start: string, end: string) : void</text><ellipse cx="231.5" cy="1579.3157" fill="#84BE84" rx="3" ry="3" style="stroke:#038048;stroke-width:1.0;"/><text fill="#000000" font-family="sans-serif" font-size="14" lengthAdjust="spacing" textLength="307" x="240.5" y="1583.1067">updatePrompt(promptMessage: string) : void</text><ellipse cx="231.5" cy="1595.804" fill="#84BE84" rx="3" ry="3" style="stroke:#038048;stroke-width:1.0;"/><text fill="#000000" font-family="sans-serif" font-size="14" lengthAdjust="spacing" textLength="377" x="240.5" y="1599.595">updateProviderEvents(providerInfo: ProviderInfo) : void</text><polygon fill="#FFFF44" points="231.5,1607.2923,235.5,1611.2923,231.5,1615.2923,227.5,1611.2923" style="stroke:#B38D22;stroke-width:1.0;"/><text fill="#000000" font-family="sans-serif" font-size="14" lengthAdjust="spacing" textLength="141" x="240.5" y="1616.0833">addTodayBtn() : void</text><polygon fill="#FFFF44" points="231.5,1623.7805,235.5,1627.7805,231.5,1631.7805,227.5,1627.7805" style="stroke:#B38D22;stroke-width:1.0;"/><text fill="#000000" font-family="sans-serif" font-size="14" lengthAdjust="spacing" textLength="207" x="240.5" y="1632.5716">createProviderInstance() : void</text><polygon fill="#FFFF44" points="231.5,1640.2688,235.5,1644.2688,231.5,1648.2688,227.5,1644.2688" style="stroke:#B38D22;stroke-width:1.0;"/><text fill="#000000" font-family="sans-serif" font-size="14" lengthAdjust="spacing" textLength="123" x="240.5" y="1649.0598">finishBuild() : void</text><polygon fill="#FFFF44" points="231.5,1656.7571,235.5,1660.7571,231.5,1664.7571,227.5,1660.7571" style="stroke:#B38D22;stroke-width:1.0;"/><text fill="#000000" font-family="sans-serif" font-size="14" lengthAdjust="spacing" textLength="155" x="240.5" y="1665.5481">jumpIntoToday() : void</text><polygon fill="#FFFF44" points="231.5,1673.2454,235.5,1677.2454,231.5,1681.2454,227.5,1677.2454" style="stroke:#B38D22;stroke-width:1.0;"/><text fill="#000000" font-family="sans-serif" font-size="14" lengthAdjust="spacing" textLength="179" x="240.5" y="1682.0364">onDatePickerClose() : void</text><polygon fill="#FFFF44" points="231.5,1689.7337,235.5,1693.7337,231.5,1697.7337,227.5,1693.7337" style="stroke:#B38D22;stroke-width:1.0;"/><text fill="#000000" font-family="sans-serif" font-size="14" lengthAdjust="spacing" textLength="178" x="240.5" y="1698.5247">onDatePickerOpen() : void</text><polygon fill="#FFFF44" points="231.5,1706.222,235.5,1710.222,231.5,1714.222,227.5,1710.222" style="stroke:#B38D22;stroke-width:1.0;"/><text fill="#000000" font-family="sans-serif" font-size="14" font-style="italic" lengthAdjust="spacing" textLength="337" x="240.5" y="1715.013">onDateSelectedEvent(selectedDates: Date[]) : void</text><polygon fill="#FFFF44" points="231.5,1722.7102,235.5,1726.7102,231.5,1730.7102,227.5,1726.7102" style="stroke:#B38D22;stroke-width:1.0;"/><text fill="#000000" font-family="sans-serif" font-size="14" lengthAdjust="spacing" textLength="158" x="240.5" y="1731.5013">prepareConfigs() : void</text><polygon fill="#FFFF44" points="231.5,1739.1985,235.5,1743.1985,231.5,1747.1985,227.5,1743.1985" style="stroke:#B38D22;stroke-width:1.0;"/><text fill="#000000" font-family="sans-serif" font-size="14" lengthAdjust="spacing" textLength="202" x="240.5" y="1747.9895">prepareToAndRedraw() : void</text><polygon fill="#FFFF44" points="231.5,1755.6868,235.5,1759.6868,231.5,1763.6868,227.5,1759.6868" style="stroke:#B38D22;stroke-width:1.0;"/><text fill="#000000" font-family="sans-serif" font-size="14" lengthAdjust="spacing" textLength="99" x="240.5" y="1764.4778">redraw() : void</text><polygon fill="#FFFF44" points="231.5,1772.1751,235.5,1776.1751,231.5,1780.1751,227.5,1776.1751" style="stroke:#B38D22;stroke-width:1.0;"/><text fill="#000000" font-family="sans-serif" font-size="14" lengthAdjust="spacing" textLength="178" x="240.5" y="1780.9661">setA11YProperties() : void</text><polygon fill="#FFFF44" points="231.5,1788.6634,235.5,1792.6634,231.5,1796.6634,227.5,1792.6634" style="stroke:#B38D22;stroke-width:1.0;"/><text fill="#000000" font-family="sans-serif" font-size="14" lengthAdjust="spacing" textLength="136" x="240.5" y="1797.4544">setCallbacks() : void</text><polygon fill="#FFFF44" points="231.5,1805.1516,235.5,1809.1516,231.5,1813.1516,227.5,1809.1516" style="stroke:#B38D22;stroke-width:1.0;"/><text fill="#000000" font-family="sans-serif" font-size="14" lengthAdjust="spacing" textLength="165" x="240.5" y="1813.9427">setHtmlElements() : void</text><polygon fill="#FFFF44" points="231.5,1821.6399,235.5,1825.6399,231.5,1829.6399,227.5,1825.6399" style="stroke:#B38D22;stroke-width:1.0;"/><text fill="#000000" font-family="sans-serif" font-size="14" font-style="italic" lengthAdjust="spacing" textLength="271" x="240.5" y="1830.4309">todayBtnClick(event: MouseEvent) : void</text><polygon fill="#FFFF44" points="231.5,1838.1282,235.5,1842.1282,231.5,1846.1282,227.5,1842.1282" style="stroke:#B38D22;stroke-width:1.0;"/><text fill="#000000" font-family="sans-serif" font-size="14" lengthAdjust="spacing" textLength="570" x="240.5" y="1846.9192">triggerPlatformEventCallback(platFormCallback: OSGeneric, args: unknown[]) : void</text><polygon fill="#FFFF44" points="231.5,1854.6165,235.5,1858.6165,231.5,1862.6165,227.5,1858.6165" style="stroke:#B38D22;stroke-width:1.0;"/><text fill="#000000" font-family="sans-serif" font-size="14" lengthAdjust="spacing" textLength="318" x="240.5" y="1863.4075">triggerPlatformInitializedEventCallback() : void</text><polygon fill="#FFFF44" points="231.5,1871.1048,235.5,1875.1048,231.5,1879.1048,227.5,1875.1048" style="stroke:#B38D22;stroke-width:1.0;"/><text fill="#000000" font-family="sans-serif" font-size="14" lengthAdjust="spacing" textLength="154" x="240.5" y="1879.8958">unsetCallbacks() : void</text><polygon fill="#FFFF44" points="231.5,1887.593,235.5,1891.593,231.5,1895.593,227.5,1891.593" style="stroke:#B38D22;stroke-width:1.0;"/><text fill="#000000" font-family="sans-serif" font-size="14" lengthAdjust="spacing" textLength="198" x="240.5" y="1896.3841">unsetGlobalCallbacks() : void</text><polygon fill="#FFFF44" points="231.5,1904.0813,235.5,1908.0813,231.5,1912.0813,227.5,1908.0813" style="stroke:#B38D22;stroke-width:1.0;"/><text fill="#000000" font-family="sans-serif" font-size="14" lengthAdjust="spacing" textLength="183" x="240.5" y="1912.8723">unsetHtmlElements() : void</text><polygon fill="#FFFF44" points="231.5,1920.5696,235.5,1924.5696,231.5,1928.5696,227.5,1924.5696" style="stroke:#B38D22;stroke-width:1.0;"/><text fill="#000000" font-family="sans-serif" font-size="14" font-style="italic" lengthAdjust="spacing" textLength="226" x="240.5" y="1929.3606">updatePlatformInputAttrs() : void</text><rect fill="#F24D5C" height="6" style="stroke:#C82930;stroke-width:1.0;" width="6" x="228.5" y="1939.0579"/><text fill="#000000" font-family="sans-serif" font-size="14" lengthAdjust="spacing" textLength="293" x="240.5" y="1945.8489">_createA11yMonthInformationElem() : void</text><rect fill="#F24D5C" height="6" style="stroke:#C82930;stroke-width:1.0;" width="6" x="228.5" y="1955.5462"/><text fill="#000000" font-family="sans-serif" font-size="14" lengthAdjust="spacing" textLength="173" x="240.5" y="1962.3372">_onMonthChange() : void</text><rect fill="#F24D5C" height="6" style="stroke:#C82930;stroke-width:1.0;" width="6" x="228.5" y="1972.0345"/><text fill="#000000" font-family="sans-serif" font-size="14" lengthAdjust="spacing" textLength="146" x="240.5" y="1978.8255">_setAttributes() : void</text><rect fill="#F24D5C" height="6" style="stroke:#C82930;stroke-width:1.0;" width="6" x="228.5" y="1988.5227"/><text fill="#000000" font-family="sans-serif" font-size="14" lengthAdjust="spacing" textLength="215" x="240.5" y="1995.3138">_setCalendarCssClasses() : void</text><rect fill="#F24D5C" height="6" style="stroke:#C82930;stroke-width:1.0;" width="6" x="228.5" y="2005.011"/><text fill="#000000" font-family="sans-serif" font-size="14" lengthAdjust="spacing" textLength="332" x="240.5" y="2011.802">_setCurrentMonthAcessibilityInformation() : void</text><rect fill="#F24D5C" height="6" style="stroke:#C82930;stroke-width:1.0;" width="6" x="228.5" y="2021.4993"/><text fill="#000000" font-family="sans-serif" font-size="14" lengthAdjust="spacing" textLength="192" x="240.5" y="2028.2903">_setParentMinHeight() : void</text><rect fill="#F24D5C" height="6" style="stroke:#C82930;stroke-width:1.0;" width="6" x="228.5" y="2037.9876"/><text fill="#000000" font-family="sans-serif" font-size="14" lengthAdjust="spacing" textLength="321" x="240.5" y="2044.7786">_todayButtonKeydown(e: KeyboardEvent) : void</text><rect fill="#F24D5C" height="6" style="stroke:#C82930;stroke-width:1.0;" width="6" x="228.5" y="2054.4759"/><text fill="#000000" font-family="sans-serif" font-size="14" lengthAdjust="spacing" textLength="210" x="240.5" y="2061.2669">_unsetParentMinHeight() : void</text><rect fill="#F24D5C" height="6" style="stroke:#C82930;stroke-width:1.0;" width="6" x="228.5" y="2070.9641"/><text fill="#000000" font-family="sans-serif" font-size="14" lengthAdjust="spacing" textLength="211" x="240.5" y="2077.7552">_updateA11yProperties() : void</text></g><!--reverse link IDatePicker to IFlatpickr--><g id="link_IDatePicker_IFlatpickr"><path codeLine="56" d="M410.2197,417.0233 C421.8697,436.6733 424.58,441.23 436.37,461.1 " fill="none" id="IDatePicker-backto-IFlatpickr" style="stroke:#272B30;stroke-width:1.0;"/><polygon fill="none" points="401.04,401.54,405.0586,420.0832,415.3808,413.9634,401.04,401.54" style="stroke:#272B30;stroke-width:1.0;"/></g><!--reverse link IProviderPattern<Flatpickr> to IFlatpickr--><g id="link_IProviderPattern&lt;Flatpickr&gt;_IFlatpickr"><path codeLine="72" d="M764.499,351.2447 C741.419,389.9947 724.7,418.1 699.2,460.91 " fill="none" id="IProviderPattern&lt;Flatpickr&gt;-backto-IFlatpickr" style="stroke:#272B30;stroke-width:1.0;"/><polygon fill="none" points="773.71,335.78,759.3441,348.1744,769.6539,354.3151,773.71,335.78" style="stroke:#272B30;stroke-width:1.0;"/></g><!--reverse link IFlatpickr to AbstractFlatpickr<C>--><g id="link_IFlatpickr_AbstractFlatpickr&lt;C&gt;"><path codeLine="140" d="M567.5,923.29 C567.5,942.48 567.5,944.4 567.5,964.81 " fill="none" id="IFlatpickr-backto-AbstractFlatpickr&lt;C&gt;" style="stroke:#272B30;stroke-width:1.0;stroke-dasharray:7.0,7.0;"/><polygon fill="none" points="567.5,905.29,561.5,923.29,573.5,923.29,567.5,905.29" style="stroke:#272B30;stroke-width:1.0;"/></g><!--SRC=[xLXHRzis47xFhn3Y5nUBYoKRC2081jXAqXXB5gD9Esp3453YoUPCaIf9ENFR_FST9L6MADbPkguRXkJ5vjrtvDtnk-F5Uib4HXH9Wv0JhSTAoVjGSgc2mT5tHz4tN-_fDc8Y5GMr6qBYvLp9ND0AbYH90zDHnq2_fMHlmIW4a6Pc7QHW5fBgfYXXm572X06La1Y2_Uav9oPZyLBj1n_s0lpxYkb9phW9ZeD8IWv4bE9CoHNkf52UE9ksPYeIYTfPOra2DF3aZ4CAmkvwSNjrMQrATIxOknoc57NQA2RcfVYUqJcOZZX2v-Zm1KfNaj5I5Y-8c0CUd84ows5MVVcHfE2C3m8dVKjuZk9SB8My5zv66A_oD-TIWoUZJ9E8mobPws7ZkplirzzwuJy1BBic8ayZK3qcMVTSU9SJhc_bz7J8g3ljXNzLKhm6WJVW6MFumXCfc3EDP0W9vn5IQWWhl9Pstk9ATnnStxm20Oh5xKqqc4lCVqxcC5oLoTqure8vQeHI96okXrbxVHmGiTvgT6PTs-rWvTv1u2ZLxqak-hVTYiyeCJ0Lp332J_7hqAuFDnxOvT4kMpmC2z36YnzNe3NcwX7ynhbDdcn9jGkiDdveLRLrSeOL2e-MzNDjFjVcSsq-MfiFU-sYElau6hLUprRvEVzdnA1GdDImxv_mofx_Rr_PlrC_dwigVBeBkD_Ez4zlohkvq6KHYJ084fiWjaDWi3-krZNa9DnmI8hGzhymrqQcBY51uNy16D2QiJEqJwHAfoBBZUL5HP5wxNWog8Ux9q2lCwERZCKraqANAAPT2YP40_KkT2353N283L0NGP7Vm5xUjGWBpXMI4fwrBk6A2AnMT5KR8h3qZeDfwvOgVM4wkYE7XsjxFtZHXZ3aHIEwPc0byWfH2mjNAR7XR0L7agvlOYKv3sMQIZ611LancTiYVbCoHsfcjxWM9QuoRAVwaaJ06uVKwyr9cChcFPwMJvMVqj6TIzAvZ7Dzan5nInHMUQ_tHbAodkJ6x8ZmFSCdwuzMT9lWVYcKNs80M42y75CArAl47jWC7rdSU3VmYmuKRlt9GqLMDf3fVscsEAFCsE0AEWwPTklQiSyrZJJRizzc_f6fv23GP5KsdYt1F75I-U1Q-qFVq8BzIvdDsNYD_-w_4qMl9PJU5jt1UFmPn0eQsxhswu4I9fXUJBejOV1xdcPJOMInkwUJOZDdXTrgREclEynkPBb2kjUbl25ThQm6gMG_l4B45mOoei0nhrTvAyU2lWQgoBq7K7r29ChuyF3dgWSoq5szgyGUrOL9tJkWjqThgfiAENFrV1nSoLoN96xlYaoPppTJGO6eUq66qdEKXjq6S13WGwBh_kodpjks8ZXxNsM_Fg5jLHJIjlWBvIik8y9tGlvQagfoQ3wYOsEKPp6wA_aztZ85-6Wf2bGvg_XAU_Tu18jo0xf7YL5XjHCLQbtyyDSFofMouumzPXnZmRE8SMRM3STwh6QaC6BY0jXyONn4u-N_0TOKxtE8NGI_Hf8escNDwAviURjtBLDiKzT7TpiHDtvoFFduykMM8VTF]--></g></svg>