<?xml version="1.0" encoding="us-ascii" standalone="no"?><svg xmlns="http://www.w3.org/2000/svg" xmlns:xlink="http://www.w3.org/1999/xlink" contentStyleType="text/css" height="1432px" preserveAspectRatio="none" style="width:1128px;height:1432px;background:#CED4DA;" version="1.1" viewBox="0 0 1128 1432" width="1128px" zoomAndPan="magnify"><defs/><g><rect fill="#CED4DA" height="1432" style="stroke:none;stroke-width:1.0;" width="1128" x="0" y="0"/><!--class INotification--><g id="elem_INotification"><rect codeLine="7" fill="#FFFFFF" height="229.3711" id="INotification" rx="2.5" ry="2.5" style="stroke:#272B30;stroke-width:0.5;" width="508" x="311" y="263.39"/><ellipse cx="519.25" cy="279.39" fill="#B4A7E5" rx="11" ry="11" style="stroke:#181818;stroke-width:1.0;"/><path d="M515.6777,275.6551 L515.6777,273.4969 L523.0571,273.4969 L523.0571,275.6551 L520.5918,275.6551 L520.5918,283.7318 L523.0571,283.7318 L523.0571,285.89 L515.6777,285.89 L515.6777,283.7318 L518.1431,283.7318 L518.1431,275.6551 Z " fill="#000000"/><text fill="#000000" font-family="sans-serif" font-size="14" font-style="italic" lengthAdjust="spacing" textLength="83" x="539.75" y="284.681">INotification</text><line style="stroke:#272B30;stroke-width:0.5;" x1="312" x2="818" y1="295.39" y2="295.39"/><ellipse cx="322" cy="309.1341" fill="none" rx="3" ry="3" style="stroke:#038048;stroke-width:1.0;"/><text fill="#000000" font-family="sans-serif" font-size="14" lengthAdjust="spacing" textLength="109" x="331" y="312.9252">isBuilt : boolean</text><ellipse cx="322" cy="325.6224" fill="none" rx="3" ry="3" style="stroke:#038048;stroke-width:1.0;"/><text fill="#000000" font-family="sans-serif" font-size="14" lengthAdjust="spacing" textLength="184" x="331" y="329.4134">selfElement : HTMLElement</text><ellipse cx="322" cy="342.1107" fill="none" rx="3" ry="3" style="stroke:#038048;stroke-width:1.0;"/><text fill="#000000" font-family="sans-serif" font-size="14" lengthAdjust="spacing" textLength="113" x="331" y="345.9017">uniqueId : string</text><ellipse cx="322" cy="358.599" fill="none" rx="3" ry="3" style="stroke:#038048;stroke-width:1.0;"/><text fill="#000000" font-family="sans-serif" font-size="14" lengthAdjust="spacing" textLength="111" x="331" y="362.39">widgetId : string</text><line style="stroke:#272B30;stroke-width:0.5;" x1="312" x2="818" y1="369.3431" y2="369.3431"/><ellipse cx="322" cy="383.0873" fill="#84BE84" rx="3" ry="3" style="stroke:#038048;stroke-width:1.0;"/><text fill="#000000" font-family="sans-serif" font-size="14" lengthAdjust="spacing" textLength="86" x="331" y="386.8783">build() : void</text><ellipse cx="322" cy="399.5755" fill="#84BE84" rx="3" ry="3" style="stroke:#038048;stroke-width:1.0;"/><text fill="#000000" font-family="sans-serif" font-size="14" lengthAdjust="spacing" textLength="482" x="331" y="403.3666">changeProperty(propertyName: string, propertyValue: unknown) : void</text><ellipse cx="322" cy="416.0638" fill="#84BE84" rx="3" ry="3" style="stroke:#038048;stroke-width:1.0;"/><text fill="#000000" font-family="sans-serif" font-size="14" lengthAdjust="spacing" textLength="104" x="331" y="419.8548">dispose() : void</text><ellipse cx="322" cy="432.5521" fill="#84BE84" rx="3" ry="3" style="stroke:#038048;stroke-width:1.0;"/><text fill="#000000" font-family="sans-serif" font-size="14" lengthAdjust="spacing" textLength="216" x="331" y="436.3431">equalsToID(id: string) : boolean</text><ellipse cx="322" cy="449.0404" fill="#84BE84" rx="3" ry="3" style="stroke:#038048;stroke-width:1.0;"/><text fill="#000000" font-family="sans-serif" font-size="14" lengthAdjust="spacing" textLength="81" x="331" y="452.8314">hide() : void</text><ellipse cx="322" cy="465.5287" fill="#84BE84" rx="3" ry="3" style="stroke:#038048;stroke-width:1.0;"/><text fill="#000000" font-family="sans-serif" font-size="14" lengthAdjust="spacing" textLength="428" x="331" y="469.3197">registerCallback(eventName: string, callback: OSGeneric) : void</text><ellipse cx="322" cy="482.017" fill="#84BE84" rx="3" ry="3" style="stroke:#038048;stroke-width:1.0;"/><text fill="#000000" font-family="sans-serif" font-size="14" lengthAdjust="spacing" textLength="87" x="331" y="485.808">show() : void</text></g><!--class IPattern--><g id="elem_IPattern"><rect codeLine="20" fill="#FFFFFF" height="196.3945" id="IPattern" rx="2.5" ry="2.5" style="stroke:#272B30;stroke-width:0.5;" width="508" x="311" y="7"/><ellipse cx="534.25" cy="23" fill="#B4A7E5" rx="11" ry="11" style="stroke:#181818;stroke-width:1.0;"/><path d="M530.6777,19.2651 L530.6777,17.1069 L538.0571,17.1069 L538.0571,19.2651 L535.5918,19.2651 L535.5918,27.3418 L538.0571,27.3418 L538.0571,29.5 L530.6777,29.5 L530.6777,27.3418 L533.1431,27.3418 L533.1431,19.2651 Z " fill="#000000"/><text fill="#000000" font-family="sans-serif" font-size="14" font-style="italic" lengthAdjust="spacing" textLength="53" x="554.75" y="28.291">IPattern</text><line style="stroke:#272B30;stroke-width:0.5;" x1="312" x2="818" y1="39" y2="39"/><ellipse cx="322" cy="52.7441" fill="none" rx="3" ry="3" style="stroke:#038048;stroke-width:1.0;"/><text fill="#000000" font-family="sans-serif" font-size="14" lengthAdjust="spacing" textLength="109" x="331" y="56.5352">isBuilt : boolean</text><ellipse cx="322" cy="69.2324" fill="none" rx="3" ry="3" style="stroke:#038048;stroke-width:1.0;"/><text fill="#000000" font-family="sans-serif" font-size="14" lengthAdjust="spacing" textLength="184" x="331" y="73.0234">selfElement : HTMLElement</text><ellipse cx="322" cy="85.7207" fill="none" rx="3" ry="3" style="stroke:#038048;stroke-width:1.0;"/><text fill="#000000" font-family="sans-serif" font-size="14" lengthAdjust="spacing" textLength="113" x="331" y="89.5117">uniqueId : string</text><ellipse cx="322" cy="102.209" fill="none" rx="3" ry="3" style="stroke:#038048;stroke-width:1.0;"/><text fill="#000000" font-family="sans-serif" font-size="14" lengthAdjust="spacing" textLength="111" x="331" y="106">widgetId : string</text><line style="stroke:#272B30;stroke-width:0.5;" x1="312" x2="818" y1="112.9531" y2="112.9531"/><ellipse cx="322" cy="126.6973" fill="#84BE84" rx="3" ry="3" style="stroke:#038048;stroke-width:1.0;"/><text fill="#000000" font-family="sans-serif" font-size="14" lengthAdjust="spacing" textLength="86" x="331" y="130.4883">build() : void</text><ellipse cx="322" cy="143.1855" fill="#84BE84" rx="3" ry="3" style="stroke:#038048;stroke-width:1.0;"/><text fill="#000000" font-family="sans-serif" font-size="14" lengthAdjust="spacing" textLength="482" x="331" y="146.9766">changeProperty(propertyName: string, propertyValue: unknown) : void</text><ellipse cx="322" cy="159.6738" fill="#84BE84" rx="3" ry="3" style="stroke:#038048;stroke-width:1.0;"/><text fill="#000000" font-family="sans-serif" font-size="14" lengthAdjust="spacing" textLength="104" x="331" y="163.4648">dispose() : void</text><ellipse cx="322" cy="176.1621" fill="#84BE84" rx="3" ry="3" style="stroke:#038048;stroke-width:1.0;"/><text fill="#000000" font-family="sans-serif" font-size="14" lengthAdjust="spacing" textLength="216" x="331" y="179.9531">equalsToID(id: string) : boolean</text><ellipse cx="322" cy="192.6504" fill="#84BE84" rx="3" ry="3" style="stroke:#038048;stroke-width:1.0;"/><text fill="#000000" font-family="sans-serif" font-size="14" lengthAdjust="spacing" textLength="428" x="331" y="196.4414">registerCallback(eventName: string, callback: OSGeneric) : void</text></g><!--class Notification--><g id="elem_Notification"><rect codeLine="32" fill="#FFFFFF" height="872.4141" id="Notification" rx="2.5" ry="2.5" style="stroke:#272B30;stroke-width:0.5;" width="1112" x="9" y="552.77"/><ellipse cx="521.25" cy="568.77" fill="#ADD1B2" rx="11" ry="11" style="stroke:#181818;stroke-width:1.0;"/><path d="M523.7231,574.9131 Q523.1421,575.2119 522.5029,575.3613 Q521.8638,575.5107 521.1582,575.5107 Q518.6514,575.5107 517.3315,573.8589 Q516.0117,572.207 516.0117,569.0859 Q516.0117,565.9565 517.3315,564.3047 Q518.6514,562.6528 521.1582,562.6528 Q521.8638,562.6528 522.5112,562.8022 Q523.1587,562.9516 523.7231,563.2505 L523.7231,565.9731 Q523.0923,565.3921 522.4988,565.1223 Q521.9053,564.8525 521.2744,564.8525 Q519.9297,564.8525 519.2449,565.9192 Q518.5601,566.9858 518.5601,569.0859 Q518.5601,571.1777 519.2449,572.2444 Q519.9297,573.311 521.2744,573.311 Q521.9053,573.311 522.4988,573.0412 Q523.0923,572.7715 523.7231,572.1904 Z " fill="#000000"/><text fill="#000000" font-family="sans-serif" font-size="14" lengthAdjust="spacing" textLength="79" x="541.75" y="574.061">Notification</text><line style="stroke:#272B30;stroke-width:0.5;" x1="10" x2="1120" y1="584.77" y2="584.77"/><polygon fill="none" points="20,593.5141,24,597.5141,20,601.5141,16,597.5141" style="stroke:#B38D22;stroke-width:1.0;"/><text fill="#000000" font-family="sans-serif" font-size="14" lengthAdjust="spacing" textLength="176" x="29" y="602.3052">isProviderBased : boolean</text><rect fill="none" height="6" style="stroke:#C82930;stroke-width:1.0;" width="6" x="17" y="612.0024"/><text fill="#000000" font-family="sans-serif" font-size="14" lengthAdjust="spacing" textLength="212" x="29" y="618.7934">_autoCloseTimeoutId : number</text><rect fill="none" height="6" style="stroke:#C82930;stroke-width:1.0;" width="6" x="17" y="628.4907"/><text fill="#000000" font-family="sans-serif" font-size="14" lengthAdjust="spacing" textLength="161" x="29" y="635.2817">_eventOnClick : Generic</text><rect fill="none" height="6" style="stroke:#C82930;stroke-width:1.0;" width="6" x="17" y="644.979"/><text fill="#000000" font-family="sans-serif" font-size="14" lengthAdjust="spacing" textLength="189" x="29" y="651.77">_eventOnKeypress : Generic</text><rect fill="none" height="6" style="stroke:#C82930;stroke-width:1.0;" width="6" x="17" y="661.4673"/><text fill="#000000" font-family="sans-serif" font-size="14" lengthAdjust="spacing" textLength="129" x="29" y="668.2583">_eventType : string</text><rect fill="none" height="6" style="stroke:#C82930;stroke-width:1.0;" width="6" x="17" y="677.9555"/><text fill="#000000" font-family="sans-serif" font-size="14" lengthAdjust="spacing" textLength="273" x="29" y="684.7466">_focusManagerInstance : FocusManager</text><rect fill="none" height="6" style="stroke:#C82930;stroke-width:1.0;" width="6" x="17" y="694.4438"/><text fill="#000000" font-family="sans-serif" font-size="14" lengthAdjust="spacing" textLength="217" x="29" y="701.2348">_focusTrapInstance : FocusTrap</text><rect fill="none" height="6" style="stroke:#C82930;stroke-width:1.0;" width="6" x="17" y="710.9321"/><text fill="#000000" font-family="sans-serif" font-size="14" lengthAdjust="spacing" textLength="242" x="29" y="717.7231">_gestureEventInstance : SwipeEvent</text><rect fill="none" height="6" style="stroke:#C82930;stroke-width:1.0;" width="6" x="17" y="727.4204"/><text fill="#000000" font-family="sans-serif" font-size="14" lengthAdjust="spacing" textLength="196" x="29" y="734.2114">_hasGestureEvents : boolean</text><rect fill="none" height="6" style="stroke:#C82930;stroke-width:1.0;" width="6" x="17" y="743.9087"/><text fill="#000000" font-family="sans-serif" font-size="14" lengthAdjust="spacing" textLength="123" x="29" y="750.6997">_isOpen : boolean</text><rect fill="none" height="6" style="stroke:#C82930;stroke-width:1.0;" width="6" x="17" y="760.397"/><text fill="#000000" font-family="sans-serif" font-size="14" lengthAdjust="spacing" textLength="182" x="29" y="767.188">_parentSelf : HTMLElement</text><rect fill="none" height="6" style="stroke:#C82930;stroke-width:1.0;" width="6" x="17" y="776.8852"/><text fill="#000000" font-family="sans-serif" font-size="14" lengthAdjust="spacing" textLength="307" x="29" y="783.6763">_platformEventOnToggle : OSOnToggleEvent</text><line style="stroke:#272B30;stroke-width:0.5;" x1="10" x2="1120" y1="790.6294" y2="790.6294"/><ellipse cx="20" cy="804.3735" fill="#84BE84" rx="3" ry="3" style="stroke:#038048;stroke-width:1.0;"/><text fill="#000000" font-family="sans-serif" font-size="14" lengthAdjust="spacing" textLength="86" x="29" y="808.1645">build() : void</text><ellipse cx="20" cy="820.8618" fill="#84BE84" rx="3" ry="3" style="stroke:#038048;stroke-width:1.0;"/><text fill="#000000" font-family="sans-serif" font-size="14" lengthAdjust="spacing" textLength="482" x="29" y="824.6528">changeProperty(propertyName: string, propertyValue: unknown) : void</text><ellipse cx="20" cy="837.3501" fill="#84BE84" rx="3" ry="3" style="stroke:#038048;stroke-width:1.0;"/><text fill="#000000" font-family="sans-serif" font-size="14" lengthAdjust="spacing" textLength="104" x="29" y="841.1411">dispose() : void</text><ellipse cx="20" cy="853.8384" fill="#84BE84" rx="3" ry="3" style="stroke:#038048;stroke-width:1.0;"/><text fill="#000000" font-family="sans-serif" font-size="14" lengthAdjust="spacing" textLength="266" x="29" y="857.6294">equalsToID(patternId: string) : boolean</text><ellipse cx="20" cy="870.3266" fill="#84BE84" rx="3" ry="3" style="stroke:#038048;stroke-width:1.0;"/><text fill="#000000" font-family="sans-serif" font-size="14" lengthAdjust="spacing" textLength="81" x="29" y="874.1177">hide() : void</text><ellipse cx="20" cy="886.8149" fill="#84BE84" rx="3" ry="3" style="stroke:#038048;stroke-width:1.0;"/><text fill="#000000" font-family="sans-serif" font-size="14" lengthAdjust="spacing" textLength="158" x="29" y="890.6059">onSwipeBottom() : void</text><ellipse cx="20" cy="903.3032" fill="#84BE84" rx="3" ry="3" style="stroke:#038048;stroke-width:1.0;"/><text fill="#000000" font-family="sans-serif" font-size="14" lengthAdjust="spacing" textLength="134" x="29" y="907.0942">onSwipeLeft() : void</text><ellipse cx="20" cy="919.7915" fill="#84BE84" rx="3" ry="3" style="stroke:#038048;stroke-width:1.0;"/><text fill="#000000" font-family="sans-serif" font-size="14" lengthAdjust="spacing" textLength="145" x="29" y="923.5825">onSwipeRight() : void</text><ellipse cx="20" cy="936.2798" fill="#84BE84" rx="3" ry="3" style="stroke:#038048;stroke-width:1.0;"/><text fill="#000000" font-family="sans-serif" font-size="14" lengthAdjust="spacing" textLength="128" x="29" y="940.0708">onSwipeUp() : void</text><ellipse cx="20" cy="952.768" fill="#84BE84" rx="3" ry="3" style="stroke:#038048;stroke-width:1.0;"/><text fill="#000000" font-family="sans-serif" font-size="14" lengthAdjust="spacing" textLength="428" x="29" y="956.5591">registerCallback(eventName: string, callback: OSGeneric) : void</text><ellipse cx="20" cy="969.2563" fill="#84BE84" rx="3" ry="3" style="stroke:#038048;stroke-width:1.0;"/><text fill="#000000" font-family="sans-serif" font-size="14" lengthAdjust="spacing" textLength="199" x="29" y="973.0473">removeGestureEvents() : void</text><ellipse cx="20" cy="985.7446" fill="#84BE84" rx="3" ry="3" style="stroke:#038048;stroke-width:1.0;"/><text fill="#000000" font-family="sans-serif" font-size="14" lengthAdjust="spacing" textLength="87" x="29" y="989.5356">show() : void</text><polygon fill="#FFFF44" points="20,997.2329,24,1001.2329,20,1005.2329,16,1001.2329" style="stroke:#B38D22;stroke-width:1.0;"/><text fill="#000000" font-family="sans-serif" font-size="14" lengthAdjust="spacing" textLength="148" x="29" y="1006.0239">clearTimeouts() : void</text><polygon fill="#FFFF44" points="20,1013.7212,24,1017.7212,20,1021.7212,16,1017.7212" style="stroke:#B38D22;stroke-width:1.0;"/><text fill="#000000" font-family="sans-serif" font-size="14" lengthAdjust="spacing" textLength="123" x="29" y="1022.5122">finishBuild() : void</text><polygon fill="#FFFF44" points="20,1030.2095,24,1034.2095,20,1038.2095,16,1034.2095" style="stroke:#B38D22;stroke-width:1.0;"/><text fill="#000000" font-family="sans-serif" font-size="14" lengthAdjust="spacing" textLength="178" x="29" y="1039.0005">setA11YProperties() : void</text><polygon fill="#FFFF44" points="20,1046.6977,24,1050.6977,20,1054.6977,16,1050.6977" style="stroke:#B38D22;stroke-width:1.0;"/><text fill="#000000" font-family="sans-serif" font-size="14" lengthAdjust="spacing" textLength="136" x="29" y="1055.4888">setCallbacks() : void</text><polygon fill="#FFFF44" points="20,1063.186,24,1067.186,20,1071.186,16,1067.186" style="stroke:#B38D22;stroke-width:1.0;"/><text fill="#000000" font-family="sans-serif" font-size="14" lengthAdjust="spacing" textLength="1086" x="29" y="1071.977">setGestureEvents(onSwipeDownCallback: SwipeDown, onSwipeLeftCallback: SwipeLeft, onSwipeRightCallback: SwipeRight, onSwipeUpCallback: SwipeUp) : void</text><polygon fill="#FFFF44" points="20,1079.6743,24,1083.6743,20,1087.6743,16,1083.6743" style="stroke:#B38D22;stroke-width:1.0;"/><text fill="#000000" font-family="sans-serif" font-size="14" lengthAdjust="spacing" textLength="165" x="29" y="1088.4653">setHtmlElements() : void</text><polygon fill="#FFFF44" points="20,1096.1626,24,1100.1626,20,1104.1626,16,1100.1626" style="stroke:#B38D22;stroke-width:1.0;"/><text fill="#000000" font-family="sans-serif" font-size="14" lengthAdjust="spacing" textLength="150" x="29" y="1104.9536">setInitialStates() : void</text><polygon fill="#FFFF44" points="20,1112.6509,24,1116.6509,20,1120.6509,16,1116.6509" style="stroke:#B38D22;stroke-width:1.0;"/><text fill="#000000" font-family="sans-serif" font-size="14" lengthAdjust="spacing" textLength="570" x="29" y="1121.4419">triggerPlatformEventCallback(platFormCallback: OSGeneric, args: unknown[]) : void</text><polygon fill="#FFFF44" points="20,1129.1391,24,1133.1391,20,1137.1391,16,1133.1391" style="stroke:#B38D22;stroke-width:1.0;"/><text fill="#000000" font-family="sans-serif" font-size="14" lengthAdjust="spacing" textLength="318" x="29" y="1137.9302">triggerPlatformInitializedEventCallback() : void</text><polygon fill="#FFFF44" points="20,1145.6274,24,1149.6274,20,1153.6274,16,1149.6274" style="stroke:#B38D22;stroke-width:1.0;"/><text fill="#000000" font-family="sans-serif" font-size="14" lengthAdjust="spacing" textLength="154" x="29" y="1154.4184">unsetCallbacks() : void</text><polygon fill="#FFFF44" points="20,1162.1157,24,1166.1157,20,1170.1157,16,1166.1157" style="stroke:#B38D22;stroke-width:1.0;"/><text fill="#000000" font-family="sans-serif" font-size="14" lengthAdjust="spacing" textLength="198" x="29" y="1170.9067">unsetGlobalCallbacks() : void</text><polygon fill="#FFFF44" points="20,1178.604,24,1182.604,20,1186.604,16,1182.604" style="stroke:#B38D22;stroke-width:1.0;"/><text fill="#000000" font-family="sans-serif" font-size="14" lengthAdjust="spacing" textLength="183" x="29" y="1187.395">unsetHtmlElements() : void</text><rect fill="#F24D5C" height="6" style="stroke:#C82930;stroke-width:1.0;" width="6" x="17" y="1197.0923"/><text fill="#000000" font-family="sans-serif" font-size="14" lengthAdjust="spacing" textLength="206" x="29" y="1203.8833">_autoCloseNotification() : void</text><rect fill="#F24D5C" height="6" style="stroke:#C82930;stroke-width:1.0;" width="6" x="17" y="1213.5805"/><text fill="#000000" font-family="sans-serif" font-size="14" lengthAdjust="spacing" textLength="244" x="29" y="1220.3716">_clickCallback(e: MouseEvent) : void</text><rect fill="#F24D5C" height="6" style="stroke:#C82930;stroke-width:1.0;" width="6" x="17" y="1230.0688"/><text fill="#000000" font-family="sans-serif" font-size="14" lengthAdjust="spacing" textLength="204" x="29" y="1236.8598">_handleFocusBehavior() : void</text><rect fill="#F24D5C" height="6" style="stroke:#C82930;stroke-width:1.0;" width="6" x="17" y="1246.5571"/><text fill="#000000" font-family="sans-serif" font-size="14" lengthAdjust="spacing" textLength="202" x="29" y="1253.3481">_handleGestureEvents() : void</text><rect fill="#F24D5C" height="6" style="stroke:#C82930;stroke-width:1.0;" width="6" x="17" y="1263.0454"/><text fill="#000000" font-family="sans-serif" font-size="14" lengthAdjust="spacing" textLength="167" x="29" y="1269.8364">_hideNotification() : void</text><rect fill="#F24D5C" height="6" style="stroke:#C82930;stroke-width:1.0;" width="6" x="17" y="1279.5337"/><text fill="#000000" font-family="sans-serif" font-size="14" lengthAdjust="spacing" textLength="294" x="29" y="1286.3247">_keypressCallback(e: KeyboardEvent) : void</text><rect fill="#F24D5C" height="6" style="stroke:#C82930;stroke-width:1.0;" width="6" x="17" y="1296.022"/><text fill="#000000" font-family="sans-serif" font-size="14" lengthAdjust="spacing" textLength="153" x="29" y="1302.813">_removeEvents() : void</text><rect fill="#F24D5C" height="6" style="stroke:#C82930;stroke-width:1.0;" width="6" x="17" y="1312.5102"/><text fill="#000000" font-family="sans-serif" font-size="14" lengthAdjust="spacing" textLength="173" x="29" y="1319.3013">_showNotification() : void</text><rect fill="#F24D5C" height="6" style="stroke:#C82930;stroke-width:1.0;" width="6" x="17" y="1328.9985"/><text fill="#000000" font-family="sans-serif" font-size="14" lengthAdjust="spacing" textLength="322" x="29" y="1335.7895">_triggerOnToggleEvent(isOpen: boolean) : void</text><rect fill="#F24D5C" height="6" style="stroke:#C82930;stroke-width:1.0;" width="6" x="17" y="1345.4868"/><text fill="#000000" font-family="sans-serif" font-size="14" lengthAdjust="spacing" textLength="211" x="29" y="1352.2778">_updateA11yProperties() : void</text><rect fill="#F24D5C" height="6" style="stroke:#C82930;stroke-width:1.0;" width="6" x="17" y="1361.9751"/><text fill="#000000" font-family="sans-serif" font-size="14" lengthAdjust="spacing" textLength="310" x="29" y="1368.7661">_updateCloseAfterTime(value: number) : void</text><rect fill="#F24D5C" height="6" style="stroke:#C82930;stroke-width:1.0;" width="6" x="17" y="1378.4634"/><text fill="#000000" font-family="sans-serif" font-size="14" lengthAdjust="spacing" textLength="314" x="29" y="1385.2544">_updateInteractToClose(value: boolean) : void</text><rect fill="#F24D5C" height="6" style="stroke:#C82930;stroke-width:1.0;" width="6" x="17" y="1394.9516"/><text fill="#000000" font-family="sans-serif" font-size="14" lengthAdjust="spacing" textLength="265" x="29" y="1401.7427">_updatePosition(position: string) : void</text><rect fill="#F24D5C" height="6" style="stroke:#C82930;stroke-width:1.0;" width="6" x="17" y="1411.4399"/><text fill="#000000" font-family="sans-serif" font-size="14" lengthAdjust="spacing" textLength="231" x="29" y="1418.2309">_updateWidth(width: string) : void</text></g><!--reverse link IPattern to INotification--><g id="link_IPattern_INotification"><path codeLine="31" d="M565,221.61 C565,240.87 565,243.25 565,263.01 " fill="none" id="IPattern-backto-INotification" style="stroke:#272B30;stroke-width:1.0;"/><polygon fill="none" points="565,203.61,559,221.61,571,221.61,565,203.61" style="stroke:#272B30;stroke-width:1.0;"/></g><!--reverse link INotification to Notification--><g id="link_INotification_Notification"><path codeLine="84" d="M565,511.25 C565,529.59 565,531.46 565,552.35 " fill="none" id="INotification-backto-Notification" style="stroke:#272B30;stroke-width:1.0;stroke-dasharray:7.0,7.0;"/><polygon fill="none" points="565,493.25,559,511.25,571,511.25,565,493.25" style="stroke:#272B30;stroke-width:1.0;"/></g><!--SRC=[xLPTQzim57tFhp3DYykQidQ3GUbBatw5jKrOqeqnHb6iQ_iIML8bEI5R-zydsqhghne66tjP7a9ypf5qTJ-EevV89L4ayKQCQ7scb5YF11FAwnz_E5wyUzlJLSLGA0ggMqA2PQH4ogcJXM5OqZJe0EXxIdenKl0WaMRZ9M1YGNKP2X6OHP0RK249mDiRtmc38GR4eE1xti-UPpzlK0zJPCOxyHP2C22yW3Mmy8910ZoZhkUtD-wfe5EEZocCgUMqKSYZ0buZZS0qu8KzWVhx5bq9f0KMn8H7C5L2WZ8RNxeVToI1xU83Ruj-9YorSCgNNAnvTIEAMWeDjUtXCILCpyNut4UwtN2_ViiiNxM52YBKDcSZmjZ2Pjw7bRrrDQp0SIVUP7O571G6rKrqBDOl-pvNgZ0bnZxyBy0VoVPphvJGqwV1eDxclI2RC6-lhVVxgEtrLxO7r91eeBNW1WyaDMB4xDtcc818YxpoD5c0Seeyt0aVCGoMbdFXLScFi94AR12j_7mZeLgjmKCeWbJV4auYK6Ek3U51fhaimMNbN15PbsMOqqIWJQhW8Zkj99kjKHQWqyL4NvMakf4Er1C9l05RbxBocUtNbaQrD2Cc52gvAB8n5r74ilCdi-t3In3_k55bqKdZtp8CmVDC3eKn8cddRY0qxSmdZE9Ng7lvDvn9GI9MKAcpt-LT-Pm4DW7ApK1DtW-Heuw7pRhrDPYpewElhd08kiblhz92LKDqEJctDHtjhhY33hnIecjy1ktuFDqrGOxj5FUoHj_BHcZN9c6knri27tCqIDZC4DEuigrIP8TtMXw9NJcpGRcqwAXPmmEFg4ZlslhRzyvjNGJu0sZrXEggb7TK82Ulc5WGrYbvFHSb-ooRRrqKPDRvqj8dtgr8TL7scjBQ06MGkziGOh92eVnMIKTtMucTuAvubiwjoo5P1ry8ecXRLCL0jP-LZLBNMQvk5H_q2vVT-KvjIIgfxIixLvlNvcghoJD_5bh3o2RNNnN6MBozMXUCipyf933pecZR5LrnJ8N6_6BI_IWRPqFz1Qc9_NNstT1bB_BgE_hqwV2mzjx-1G00]--></g></svg>