<?xml version="1.0" encoding="us-ascii" standalone="no"?><svg xmlns="http://www.w3.org/2000/svg" xmlns:xlink="http://www.w3.org/1999/xlink" contentStyleType="text/css" height="1481px" preserveAspectRatio="none" style="width:1112px;height:1481px;background:#CED4DA;" version="1.1" viewBox="0 0 1112 1481" width="1112px" zoomAndPan="magnify"><defs/><g><rect fill="#CED4DA" height="1481" style="stroke:none;stroke-width:1.0;" width="1112" x="0" y="0"/><!--class INoUiSlider--><g id="elem_INoUiSlider"><rect codeLine="7" fill="#FFFFFF" height="328.3008" id="INoUiSlider" rx="2.5" ry="2.5" style="stroke:#272B30;stroke-width:0.5;" width="555" x="290" y="345.83"/><ellipse cx="525.25" cy="361.83" fill="#B4A7E5" rx="11" ry="11" style="stroke:#181818;stroke-width:1.0;"/><path d="M521.6777,358.0951 L521.6777,355.9369 L529.0571,355.9369 L529.0571,358.0951 L526.5918,358.0951 L526.5918,366.1718 L529.0571,366.1718 L529.0571,368.33 L521.6777,368.33 L521.6777,366.1718 L524.1431,366.1718 L524.1431,358.0951 Z " fill="#000000"/><text fill="#000000" font-family="sans-serif" font-size="14" font-style="italic" lengthAdjust="spacing" textLength="76" x="545.75" y="367.121">INoUiSlider</text><line style="stroke:#272B30;stroke-width:0.5;" x1="291" x2="844" y1="377.83" y2="377.83"/><ellipse cx="301" cy="391.5741" fill="none" rx="3" ry="3" style="stroke:#038048;stroke-width:1.0;"/><text fill="#000000" font-family="sans-serif" font-size="14" lengthAdjust="spacing" textLength="109" x="310" y="395.3652">isBuilt : boolean</text><ellipse cx="301" cy="408.0624" fill="none" rx="3" ry="3" style="stroke:#038048;stroke-width:1.0;"/><text fill="#000000" font-family="sans-serif" font-size="14" lengthAdjust="spacing" textLength="141" x="310" y="411.8534">provider : noUiSlider</text><ellipse cx="301" cy="424.5507" fill="none" rx="3" ry="3" style="stroke:#038048;stroke-width:1.0;"/><text fill="#000000" font-family="sans-serif" font-size="14" lengthAdjust="spacing" textLength="181" x="310" y="428.3417">providerInfo : ProviderInfo</text><ellipse cx="301" cy="441.039" fill="none" rx="3" ry="3" style="stroke:#038048;stroke-width:1.0;"/><text fill="#000000" font-family="sans-serif" font-size="14" lengthAdjust="spacing" textLength="184" x="310" y="444.83">selfElement : HTMLElement</text><ellipse cx="301" cy="457.5273" fill="none" rx="3" ry="3" style="stroke:#038048;stroke-width:1.0;"/><text fill="#000000" font-family="sans-serif" font-size="14" lengthAdjust="spacing" textLength="113" x="310" y="461.3183">uniqueId : string</text><ellipse cx="301" cy="474.0155" fill="none" rx="3" ry="3" style="stroke:#038048;stroke-width:1.0;"/><text fill="#000000" font-family="sans-serif" font-size="14" lengthAdjust="spacing" textLength="111" x="310" y="477.8066">widgetId : string</text><line style="stroke:#272B30;stroke-width:0.5;" x1="291" x2="844" y1="484.7597" y2="484.7597"/><ellipse cx="301" cy="498.5038" fill="#84BE84" rx="3" ry="3" style="stroke:#038048;stroke-width:1.0;"/><text fill="#000000" font-family="sans-serif" font-size="14" lengthAdjust="spacing" textLength="86" x="310" y="502.2948">build() : void</text><ellipse cx="301" cy="514.9921" fill="#84BE84" rx="3" ry="3" style="stroke:#038048;stroke-width:1.0;"/><text fill="#000000" font-family="sans-serif" font-size="14" lengthAdjust="spacing" textLength="482" x="310" y="518.7831">changeProperty(propertyName: string, propertyValue: unknown) : void</text><ellipse cx="301" cy="531.4804" fill="#84BE84" rx="3" ry="3" style="stroke:#038048;stroke-width:1.0;"/><text fill="#000000" font-family="sans-serif" font-size="14" lengthAdjust="spacing" textLength="209" x="310" y="535.2714">disable(uniqueId: string) : void</text><ellipse cx="301" cy="547.9687" fill="#84BE84" rx="3" ry="3" style="stroke:#038048;stroke-width:1.0;"/><text fill="#000000" font-family="sans-serif" font-size="14" lengthAdjust="spacing" textLength="104" x="310" y="551.7597">dispose() : void</text><ellipse cx="301" cy="564.457" fill="#84BE84" rx="3" ry="3" style="stroke:#038048;stroke-width:1.0;"/><text fill="#000000" font-family="sans-serif" font-size="14" lengthAdjust="spacing" textLength="206" x="310" y="568.248">enable(uniqueId: string) : void</text><ellipse cx="301" cy="580.9452" fill="#84BE84" rx="3" ry="3" style="stroke:#038048;stroke-width:1.0;"/><text fill="#000000" font-family="sans-serif" font-size="14" lengthAdjust="spacing" textLength="216" x="310" y="584.7363">equalsToID(id: string) : boolean</text><ellipse cx="301" cy="597.4335" fill="#84BE84" rx="3" ry="3" style="stroke:#038048;stroke-width:1.0;"/><text fill="#000000" font-family="sans-serif" font-size="14" lengthAdjust="spacing" textLength="428" x="310" y="601.2245">registerCallback(eventName: string, callback: OSGeneric) : void</text><ellipse cx="301" cy="613.9218" fill="#84BE84" rx="3" ry="3" style="stroke:#038048;stroke-width:1.0;"/><text fill="#000000" font-family="sans-serif" font-size="14" lengthAdjust="spacing" textLength="324" x="310" y="617.7128">setProviderConfigs(providerConfigs: any) : void</text><ellipse cx="301" cy="630.4101" fill="#84BE84" rx="3" ry="3" style="stroke:#038048;stroke-width:1.0;"/><text fill="#000000" font-family="sans-serif" font-size="14" lengthAdjust="spacing" textLength="529" x="310" y="634.2011">setProviderEvent(eventName: string, callback: Generic, uniqueId: string) : void</text><ellipse cx="301" cy="646.8984" fill="#84BE84" rx="3" ry="3" style="stroke:#038048;stroke-width:1.0;"/><text fill="#000000" font-family="sans-serif" font-size="14" lengthAdjust="spacing" textLength="281" x="310" y="650.6894">unsetProviderEvent(eventId: string) : void</text><ellipse cx="301" cy="663.3866" fill="#84BE84" rx="3" ry="3" style="stroke:#038048;stroke-width:1.0;"/><text fill="#000000" font-family="sans-serif" font-size="14" lengthAdjust="spacing" textLength="377" x="310" y="667.1777">updateProviderEvents(providerInfo: ProviderInfo) : void</text></g><!--class IRangeSlider--><g id="elem_IRangeSlider"><rect codeLine="26" fill="#FFFFFF" height="278.8359" id="IRangeSlider" rx="2.5" ry="2.5" style="stroke:#272B30;stroke-width:0.5;" width="555" x="7" y="7"/><ellipse cx="237.25" cy="23" fill="#B4A7E5" rx="11" ry="11" style="stroke:#181818;stroke-width:1.0;"/><path d="M233.6777,19.2651 L233.6777,17.1069 L241.0571,17.1069 L241.0571,19.2651 L238.5918,19.2651 L238.5918,27.3418 L241.0571,27.3418 L241.0571,29.5 L233.6777,29.5 L233.6777,27.3418 L236.1431,27.3418 L236.1431,19.2651 Z " fill="#000000"/><text fill="#000000" font-family="sans-serif" font-size="14" font-style="italic" lengthAdjust="spacing" textLength="86" x="257.75" y="28.291">IRangeSlider</text><line style="stroke:#272B30;stroke-width:0.5;" x1="8" x2="561" y1="39" y2="39"/><ellipse cx="18" cy="52.7441" fill="none" rx="3" ry="3" style="stroke:#038048;stroke-width:1.0;"/><text fill="#000000" font-family="sans-serif" font-size="14" lengthAdjust="spacing" textLength="109" x="27" y="56.5352">isBuilt : boolean</text><ellipse cx="18" cy="69.2324" fill="none" rx="3" ry="3" style="stroke:#038048;stroke-width:1.0;"/><text fill="#000000" font-family="sans-serif" font-size="14" lengthAdjust="spacing" textLength="184" x="27" y="73.0234">selfElement : HTMLElement</text><ellipse cx="18" cy="85.7207" fill="none" rx="3" ry="3" style="stroke:#038048;stroke-width:1.0;"/><text fill="#000000" font-family="sans-serif" font-size="14" lengthAdjust="spacing" textLength="113" x="27" y="89.5117">uniqueId : string</text><ellipse cx="18" cy="102.209" fill="none" rx="3" ry="3" style="stroke:#038048;stroke-width:1.0;"/><text fill="#000000" font-family="sans-serif" font-size="14" lengthAdjust="spacing" textLength="111" x="27" y="106">widgetId : string</text><line style="stroke:#272B30;stroke-width:0.5;" x1="8" x2="561" y1="112.9531" y2="112.9531"/><ellipse cx="18" cy="126.6973" fill="#84BE84" rx="3" ry="3" style="stroke:#038048;stroke-width:1.0;"/><text fill="#000000" font-family="sans-serif" font-size="14" lengthAdjust="spacing" textLength="86" x="27" y="130.4883">build() : void</text><ellipse cx="18" cy="143.1855" fill="#84BE84" rx="3" ry="3" style="stroke:#038048;stroke-width:1.0;"/><text fill="#000000" font-family="sans-serif" font-size="14" lengthAdjust="spacing" textLength="482" x="27" y="146.9766">changeProperty(propertyName: string, propertyValue: unknown) : void</text><ellipse cx="18" cy="159.6738" fill="#84BE84" rx="3" ry="3" style="stroke:#038048;stroke-width:1.0;"/><text fill="#000000" font-family="sans-serif" font-size="14" lengthAdjust="spacing" textLength="209" x="27" y="163.4648">disable(uniqueId: string) : void</text><ellipse cx="18" cy="176.1621" fill="#84BE84" rx="3" ry="3" style="stroke:#038048;stroke-width:1.0;"/><text fill="#000000" font-family="sans-serif" font-size="14" lengthAdjust="spacing" textLength="104" x="27" y="179.9531">dispose() : void</text><ellipse cx="18" cy="192.6504" fill="#84BE84" rx="3" ry="3" style="stroke:#038048;stroke-width:1.0;"/><text fill="#000000" font-family="sans-serif" font-size="14" lengthAdjust="spacing" textLength="206" x="27" y="196.4414">enable(uniqueId: string) : void</text><ellipse cx="18" cy="209.1387" fill="#84BE84" rx="3" ry="3" style="stroke:#038048;stroke-width:1.0;"/><text fill="#000000" font-family="sans-serif" font-size="14" lengthAdjust="spacing" textLength="216" x="27" y="212.9297">equalsToID(id: string) : boolean</text><ellipse cx="18" cy="225.627" fill="#84BE84" rx="3" ry="3" style="stroke:#038048;stroke-width:1.0;"/><text fill="#000000" font-family="sans-serif" font-size="14" lengthAdjust="spacing" textLength="428" x="27" y="229.418">registerCallback(eventName: string, callback: OSGeneric) : void</text><ellipse cx="18" cy="242.1152" fill="#84BE84" rx="3" ry="3" style="stroke:#038048;stroke-width:1.0;"/><text fill="#000000" font-family="sans-serif" font-size="14" lengthAdjust="spacing" textLength="324" x="27" y="245.9063">setProviderConfigs(providerConfigs: any) : void</text><ellipse cx="18" cy="258.6035" fill="#84BE84" rx="3" ry="3" style="stroke:#038048;stroke-width:1.0;"/><text fill="#000000" font-family="sans-serif" font-size="14" lengthAdjust="spacing" textLength="529" x="27" y="262.3945">setProviderEvent(eventName: string, callback: Generic, uniqueId: string) : void</text><ellipse cx="18" cy="275.0918" fill="#84BE84" rx="3" ry="3" style="stroke:#038048;stroke-width:1.0;"/><text fill="#000000" font-family="sans-serif" font-size="14" lengthAdjust="spacing" textLength="281" x="27" y="278.8828">unsetProviderEvent(eventId: string) : void</text></g><!--class IProviderPattern<NoUiSlider>--><g id="elem_IProviderPattern&lt;NoUiSlider&gt;"><rect codeLine="43" fill="#FFFFFF" height="262.3477" id="IProviderPattern&lt;NoUiSlider&gt;" rx="2.5" ry="2.5" style="stroke:#272B30;stroke-width:0.5;" width="508" x="597.5" y="15.24"/><ellipse cx="745.25" cy="31.24" fill="#B4A7E5" rx="11" ry="11" style="stroke:#181818;stroke-width:1.0;"/><path d="M741.6777,27.5051 L741.6777,25.3469 L749.0571,25.3469 L749.0571,27.5051 L746.5918,27.5051 L746.5918,35.5818 L749.0571,35.5818 L749.0571,37.74 L741.6777,37.74 L741.6777,35.5818 L744.1431,35.5818 L744.1431,27.5051 Z " fill="#000000"/><text fill="#000000" font-family="sans-serif" font-size="14" font-style="italic" lengthAdjust="spacing" textLength="204" x="765.75" y="36.531">IProviderPattern&lt;NoUiSlider&gt;</text><line style="stroke:#272B30;stroke-width:0.5;" x1="598.5" x2="1104.5" y1="47.24" y2="47.24"/><ellipse cx="608.5" cy="60.9841" fill="none" rx="3" ry="3" style="stroke:#038048;stroke-width:1.0;"/><text fill="#000000" font-family="sans-serif" font-size="14" lengthAdjust="spacing" textLength="109" x="617.5" y="64.7752">isBuilt : boolean</text><ellipse cx="608.5" cy="77.4724" fill="none" rx="3" ry="3" style="stroke:#038048;stroke-width:1.0;"/><text fill="#000000" font-family="sans-serif" font-size="14" lengthAdjust="spacing" textLength="142" x="617.5" y="81.2634">provider : NoUiSlider</text><ellipse cx="608.5" cy="93.9607" fill="none" rx="3" ry="3" style="stroke:#038048;stroke-width:1.0;"/><text fill="#000000" font-family="sans-serif" font-size="14" lengthAdjust="spacing" textLength="181" x="617.5" y="97.7517">providerInfo : ProviderInfo</text><ellipse cx="608.5" cy="110.449" fill="none" rx="3" ry="3" style="stroke:#038048;stroke-width:1.0;"/><text fill="#000000" font-family="sans-serif" font-size="14" lengthAdjust="spacing" textLength="184" x="617.5" y="114.24">selfElement : HTMLElement</text><ellipse cx="608.5" cy="126.9373" fill="none" rx="3" ry="3" style="stroke:#038048;stroke-width:1.0;"/><text fill="#000000" font-family="sans-serif" font-size="14" lengthAdjust="spacing" textLength="113" x="617.5" y="130.7283">uniqueId : string</text><ellipse cx="608.5" cy="143.4255" fill="none" rx="3" ry="3" style="stroke:#038048;stroke-width:1.0;"/><text fill="#000000" font-family="sans-serif" font-size="14" lengthAdjust="spacing" textLength="111" x="617.5" y="147.2166">widgetId : string</text><line style="stroke:#272B30;stroke-width:0.5;" x1="598.5" x2="1104.5" y1="154.1697" y2="154.1697"/><ellipse cx="608.5" cy="167.9138" fill="#84BE84" rx="3" ry="3" style="stroke:#038048;stroke-width:1.0;"/><text fill="#000000" font-family="sans-serif" font-size="14" lengthAdjust="spacing" textLength="86" x="617.5" y="171.7048">build() : void</text><ellipse cx="608.5" cy="184.4021" fill="#84BE84" rx="3" ry="3" style="stroke:#038048;stroke-width:1.0;"/><text fill="#000000" font-family="sans-serif" font-size="14" lengthAdjust="spacing" textLength="482" x="617.5" y="188.1931">changeProperty(propertyName: string, propertyValue: unknown) : void</text><ellipse cx="608.5" cy="200.8904" fill="#84BE84" rx="3" ry="3" style="stroke:#038048;stroke-width:1.0;"/><text fill="#000000" font-family="sans-serif" font-size="14" lengthAdjust="spacing" textLength="104" x="617.5" y="204.6814">dispose() : void</text><ellipse cx="608.5" cy="217.3787" fill="#84BE84" rx="3" ry="3" style="stroke:#038048;stroke-width:1.0;"/><text fill="#000000" font-family="sans-serif" font-size="14" lengthAdjust="spacing" textLength="216" x="617.5" y="221.1697">equalsToID(id: string) : boolean</text><ellipse cx="608.5" cy="233.867" fill="#84BE84" rx="3" ry="3" style="stroke:#038048;stroke-width:1.0;"/><text fill="#000000" font-family="sans-serif" font-size="14" lengthAdjust="spacing" textLength="428" x="617.5" y="237.658">registerCallback(eventName: string, callback: OSGeneric) : void</text><ellipse cx="608.5" cy="250.3552" fill="#84BE84" rx="3" ry="3" style="stroke:#038048;stroke-width:1.0;"/><text fill="#000000" font-family="sans-serif" font-size="14" lengthAdjust="spacing" textLength="294" x="617.5" y="254.1463">setProviderConfigs(newConfigs: any) : void</text><ellipse cx="608.5" cy="266.8435" fill="#84BE84" rx="3" ry="3" style="stroke:#038048;stroke-width:1.0;"/><text fill="#000000" font-family="sans-serif" font-size="14" lengthAdjust="spacing" textLength="377" x="617.5" y="270.6345">updateProviderEvents(providerInfo: ProviderInfo) : void</text></g><!--class AbstractNoUiSlider<C>--><g id="elem_AbstractNoUiSlider&lt;C&gt;"><rect codeLine="59" fill="#FFFFFF" height="740.5078" id="AbstractNoUiSlider&lt;C&gt;" rx="2.5" ry="2.5" style="stroke:#272B30;stroke-width:0.5;" width="694" x="220.5" y="734.13"/><ellipse cx="482.75" cy="750.13" fill="#A9DCDF" rx="11" ry="11" style="stroke:#181818;stroke-width:1.0;"/><path d="M482.6133,745.4781 L481.4595,750.5499 L483.7754,750.5499 Z M481.1191,743.2369 L484.1157,743.2369 L487.4609,755.63 L485.0122,755.63 L484.2485,752.567 L480.9697,752.567 L480.2227,755.63 L477.7739,755.63 Z " fill="#000000"/><text fill="#000000" font-family="sans-serif" font-size="14" font-style="italic" lengthAdjust="spacing" textLength="161" x="503.25" y="755.421">AbstractNoUiSlider&lt;C&gt;</text><line style="stroke:#272B30;stroke-width:0.5;" x1="221.5" x2="913.5" y1="766.13" y2="766.13"/><polygon fill="none" points="231.5,774.8741,235.5,778.8741,231.5,782.8741,227.5,778.8741" style="stroke:#B38D22;stroke-width:1.0;"/><text fill="#000000" font-family="sans-serif" font-size="14" lengthAdjust="spacing" textLength="258" x="240.5" y="783.6652">eventProviderValueChanged : Generic</text><polygon fill="none" points="231.5,791.3624,235.5,795.3624,231.5,799.3624,227.5,795.3624" style="stroke:#B38D22;stroke-width:1.0;"/><text fill="#000000" font-family="sans-serif" font-size="14" lengthAdjust="spacing" textLength="176" x="240.5" y="800.1534">isProviderBased : boolean</text><polygon fill="none" points="231.5,807.8507,235.5,811.8507,231.5,815.8507,227.5,811.8507" style="stroke:#B38D22;stroke-width:1.0;"/><text fill="#000000" font-family="sans-serif" font-size="14" lengthAdjust="spacing" textLength="169" x="240.5" y="816.6417">noUiSliderOpts : Options</text><polygon fill="none" points="231.5,824.339,235.5,828.339,231.5,832.339,227.5,828.339" style="stroke:#B38D22;stroke-width:1.0;"/><text fill="#000000" font-family="sans-serif" font-size="14" lengthAdjust="spacing" textLength="366" x="240.5" y="833.13">platformEventValueChange : OSOnValueChangeEvent</text><polygon fill="none" points="231.5,840.8273,235.5,844.8273,231.5,848.8273,227.5,844.8273" style="stroke:#B38D22;stroke-width:1.0;"/><text fill="#000000" font-family="sans-serif" font-size="14" lengthAdjust="spacing" textLength="389" x="240.5" y="849.6183">providerEventsManagerInstance : IProviderEventManager</text><polygon fill="none" points="231.5,857.3155,235.5,861.3155,231.5,865.3155,227.5,861.3155" style="stroke:#B38D22;stroke-width:1.0;"/><text fill="#000000" font-family="sans-serif" font-size="14" lengthAdjust="spacing" textLength="127" x="240.5" y="866.1066">throttleTimer : any</text><polygon fill="none" points="231.5,873.8038,235.5,877.8038,231.5,881.8038,227.5,877.8038" style="stroke:#B38D22;stroke-width:1.0;"/><text fill="#000000" font-family="sans-serif" font-size="14" lengthAdjust="spacing" textLength="189" x="240.5" y="882.5948">throttleTimeValue : number</text><rect fill="none" height="6" style="stroke:#C82930;stroke-width:1.0;" width="6" x="228.5" y="892.2921"/><text fill="#000000" font-family="sans-serif" font-size="14" lengthAdjust="spacing" textLength="137" x="240.5" y="899.0831">_isInterval : boolean</text><rect fill="none" height="6" style="stroke:#C82930;stroke-width:1.0;" width="6" x="228.5" y="908.7804"/><text fill="#000000" font-family="sans-serif" font-size="14" lengthAdjust="spacing" textLength="281" x="240.5" y="915.5714">_rangeSliderProviderElem : HTMLElement</text><line style="stroke:#272B30;stroke-width:0.5;" x1="221.5" x2="913.5" y1="922.5245" y2="922.5245"/><ellipse cx="231.5" cy="936.2687" fill="#84BE84" rx="3" ry="3" style="stroke:#038048;stroke-width:1.0;"/><text fill="#000000" font-family="sans-serif" font-size="14" lengthAdjust="spacing" textLength="86" x="240.5" y="940.0597">build() : void</text><ellipse cx="231.5" cy="952.757" fill="#84BE84" rx="3" ry="3" style="stroke:#038048;stroke-width:1.0;"/><text fill="#000000" font-family="sans-serif" font-size="14" lengthAdjust="spacing" textLength="482" x="240.5" y="956.548">changeProperty(propertyName: string, propertyValue: unknown) : void</text><ellipse cx="231.5" cy="969.2452" fill="#84BE84" rx="3" ry="3" style="stroke:#038048;stroke-width:1.0;"/><text fill="#000000" font-family="sans-serif" font-size="14" lengthAdjust="spacing" textLength="236" x="240.5" y="973.0363">checkAddedProviderEvents() : void</text><ellipse cx="231.5" cy="985.7335" fill="#84BE84" rx="3" ry="3" style="stroke:#038048;stroke-width:1.0;"/><text fill="#000000" font-family="sans-serif" font-size="14" lengthAdjust="spacing" textLength="247" x="240.5" y="989.5245">checkPendingProviderEvents() : void</text><ellipse cx="231.5" cy="1002.2218" fill="#84BE84" rx="3" ry="3" style="stroke:#038048;stroke-width:1.0;"/><text fill="#000000" font-family="sans-serif" font-size="14" lengthAdjust="spacing" textLength="100" x="240.5" y="1006.0128">disable() : void</text><ellipse cx="231.5" cy="1018.7101" fill="#84BE84" rx="3" ry="3" style="stroke:#038048;stroke-width:1.0;"/><text fill="#000000" font-family="sans-serif" font-size="14" lengthAdjust="spacing" textLength="104" x="240.5" y="1022.5011">dispose() : void</text><ellipse cx="231.5" cy="1035.1984" fill="#84BE84" rx="3" ry="3" style="stroke:#038048;stroke-width:1.0;"/><text fill="#000000" font-family="sans-serif" font-size="14" lengthAdjust="spacing" textLength="97" x="240.5" y="1038.9894">enable() : void</text><ellipse cx="231.5" cy="1051.6866" fill="#84BE84" rx="3" ry="3" style="stroke:#038048;stroke-width:1.0;"/><text fill="#000000" font-family="sans-serif" font-size="14" lengthAdjust="spacing" textLength="266" x="240.5" y="1055.4777">equalsToID(patternId: string) : boolean</text><ellipse cx="231.5" cy="1068.1749" fill="#84BE84" rx="3" ry="3" style="stroke:#038048;stroke-width:1.0;"/><text fill="#000000" font-family="sans-serif" font-size="14" lengthAdjust="spacing" textLength="213" x="240.5" y="1071.9659">getValue() : number | number[]</text><ellipse cx="231.5" cy="1084.6632" fill="#84BE84" rx="3" ry="3" style="stroke:#038048;stroke-width:1.0;"/><text fill="#000000" font-family="sans-serif" font-size="14" lengthAdjust="spacing" textLength="428" x="240.5" y="1088.4542">registerCallback(eventName: string, callback: OSGeneric) : void</text><ellipse cx="231.5" cy="1101.1515" fill="#84BE84" rx="3" ry="3" style="stroke:#038048;stroke-width:1.0;"/><text fill="#000000" font-family="sans-serif" font-size="14" lengthAdjust="spacing" textLength="324" x="240.5" y="1104.9425">setProviderConfigs(newConfigs: Options) : void</text><ellipse cx="231.5" cy="1117.6398" fill="#84BE84" rx="3" ry="3" style="stroke:#038048;stroke-width:1.0;"/><text fill="#000000" font-family="sans-serif" font-size="14" lengthAdjust="spacing" textLength="668" x="240.5" y="1121.4308">setProviderEvent(eventName: string, callback: Generic, uniqueId: string, saveEvent: boolean) : void</text><ellipse cx="231.5" cy="1134.128" fill="#84BE84" rx="3" ry="3" style="stroke:#038048;stroke-width:1.0;"/><text fill="#000000" font-family="sans-serif" font-size="14" lengthAdjust="spacing" textLength="297" x="240.5" y="1137.9191">setRangeIntervalChangeOnDragEnd() : void</text><ellipse cx="231.5" cy="1150.6163" fill="#84BE84" rx="3" ry="3" style="stroke:#038048;stroke-width:1.0;"/><text fill="#000000" font-family="sans-serif" font-size="14" lengthAdjust="spacing" textLength="281" x="240.5" y="1154.4073">unsetProviderEvent(eventId: string) : void</text><ellipse cx="231.5" cy="1167.1046" fill="#84BE84" rx="3" ry="3" style="stroke:#038048;stroke-width:1.0;"/><text fill="#000000" font-family="sans-serif" font-size="14" lengthAdjust="spacing" textLength="377" x="240.5" y="1170.8956">updateProviderEvents(providerInfo: ProviderInfo) : void</text><polygon fill="#FFFF44" points="231.5,1178.5929,235.5,1182.5929,231.5,1186.5929,227.5,1182.5929" style="stroke:#B38D22;stroke-width:1.0;"/><text fill="#000000" font-family="sans-serif" font-size="14" lengthAdjust="spacing" textLength="123" x="240.5" y="1187.3839">finishBuild() : void</text><polygon fill="#FFFF44" points="231.5,1195.0812,235.5,1199.0812,231.5,1203.0812,227.5,1199.0812" style="stroke:#B38D22;stroke-width:1.0;"/><text fill="#000000" font-family="sans-serif" font-size="14" font-style="italic" lengthAdjust="spacing" textLength="158" x="240.5" y="1203.8722">prepareConfigs() : void</text><polygon fill="#FFFF44" points="231.5,1211.5695,235.5,1215.5695,231.5,1219.5695,227.5,1215.5695" style="stroke:#B38D22;stroke-width:1.0;"/><text fill="#000000" font-family="sans-serif" font-size="14" lengthAdjust="spacing" textLength="99" x="240.5" y="1220.3605">redraw() : void</text><polygon fill="#FFFF44" points="231.5,1228.0577,235.5,1232.0577,231.5,1236.0577,227.5,1232.0577" style="stroke:#B38D22;stroke-width:1.0;"/><text fill="#000000" font-family="sans-serif" font-size="14" font-style="italic" lengthAdjust="spacing" textLength="178" x="240.5" y="1236.8488">setA11YProperties() : void</text><polygon fill="#FFFF44" points="231.5,1244.546,235.5,1248.546,231.5,1252.546,227.5,1248.546" style="stroke:#B38D22;stroke-width:1.0;"/><text fill="#000000" font-family="sans-serif" font-size="14" font-style="italic" lengthAdjust="spacing" textLength="136" x="240.5" y="1253.337">setCallbacks() : void</text><polygon fill="#FFFF44" points="231.5,1261.0343,235.5,1265.0343,231.5,1269.0343,227.5,1265.0343" style="stroke:#B38D22;stroke-width:1.0;"/><text fill="#000000" font-family="sans-serif" font-size="14" lengthAdjust="spacing" textLength="165" x="240.5" y="1269.8253">setHtmlElements() : void</text><polygon fill="#FFFF44" points="231.5,1277.5226,235.5,1281.5226,231.5,1285.5226,227.5,1281.5226" style="stroke:#B38D22;stroke-width:1.0;"/><text fill="#000000" font-family="sans-serif" font-size="14" lengthAdjust="spacing" textLength="186" x="240.5" y="1286.3136">setInitialCSSClasses() : void</text><polygon fill="#FFFF44" points="231.5,1294.0109,235.5,1298.0109,231.5,1302.0109,227.5,1298.0109" style="stroke:#B38D22;stroke-width:1.0;"/><text fill="#000000" font-family="sans-serif" font-size="14" lengthAdjust="spacing" textLength="570" x="240.5" y="1302.8019">triggerPlatformEventCallback(platFormCallback: OSGeneric, args: unknown[]) : void</text><polygon fill="#FFFF44" points="231.5,1310.4991,235.5,1314.4991,231.5,1318.4991,227.5,1314.4991" style="stroke:#B38D22;stroke-width:1.0;"/><text fill="#000000" font-family="sans-serif" font-size="14" lengthAdjust="spacing" textLength="318" x="240.5" y="1319.2902">triggerPlatformInitializedEventCallback() : void</text><polygon fill="#FFFF44" points="231.5,1326.9874,235.5,1330.9874,231.5,1334.9874,227.5,1330.9874" style="stroke:#B38D22;stroke-width:1.0;"/><text fill="#000000" font-family="sans-serif" font-size="14" lengthAdjust="spacing" textLength="154" x="240.5" y="1335.7784">unsetCallbacks() : void</text><polygon fill="#FFFF44" points="231.5,1343.4757,235.5,1347.4757,231.5,1351.4757,227.5,1347.4757" style="stroke:#B38D22;stroke-width:1.0;"/><text fill="#000000" font-family="sans-serif" font-size="14" lengthAdjust="spacing" textLength="198" x="240.5" y="1352.2667">unsetGlobalCallbacks() : void</text><polygon fill="#FFFF44" points="231.5,1359.964,235.5,1363.964,231.5,1367.964,227.5,1363.964" style="stroke:#B38D22;stroke-width:1.0;"/><text fill="#000000" font-family="sans-serif" font-size="14" lengthAdjust="spacing" textLength="183" x="240.5" y="1368.755">unsetHtmlElements() : void</text><rect fill="#F24D5C" height="6" style="stroke:#C82930;stroke-width:1.0;" width="6" x="228.5" y="1378.4523"/><text fill="#000000" font-family="sans-serif" font-size="14" lengthAdjust="spacing" textLength="207" x="240.5" y="1385.2433">createProviderInstance() : void</text><rect fill="#F24D5C" height="6" style="stroke:#C82930;stroke-width:1.0;" width="6" x="228.5" y="1394.9405"/><text fill="#000000" font-family="sans-serif" font-size="14" lengthAdjust="spacing" textLength="150" x="240.5" y="1401.7316">setInitialStates() : void</text><rect fill="#F24D5C" height="6" style="stroke:#C82930;stroke-width:1.0;" width="6" x="228.5" y="1411.4288"/><text fill="#000000" font-family="sans-serif" font-size="14" lengthAdjust="spacing" textLength="282" x="240.5" y="1418.2198">_setIsDisabled(isDisabled: boolean) : void</text><rect fill="#F24D5C" height="6" style="stroke:#C82930;stroke-width:1.0;" width="6" x="228.5" y="1427.9171"/><text fill="#000000" font-family="sans-serif" font-size="14" lengthAdjust="spacing" textLength="437" x="240.5" y="1434.7081">_setOnValueChangeEvent(changeEvent: NoUISliderEvents) : void</text><rect fill="#F24D5C" height="6" style="stroke:#C82930;stroke-width:1.0;" width="6" x="228.5" y="1444.4054"/><text fill="#000000" font-family="sans-serif" font-size="14" lengthAdjust="spacing" textLength="106" x="240.5" y="1451.1964">_setSize() : void</text><rect fill="#F24D5C" height="6" style="stroke:#C82930;stroke-width:1.0;" width="6" x="228.5" y="1460.8937"/><text fill="#000000" font-family="sans-serif" font-size="14" lengthAdjust="spacing" textLength="194" x="240.5" y="1467.6847">_updateRangeValues() : void</text></g><!--reverse link IRangeSlider to INoUiSlider--><g id="link_IRangeSlider_INoUiSlider"><path codeLine="42" d="M404.1998,300.348 C419.3898,319.768 424.04,325.69 439.55,345.51 " fill="none" id="IRangeSlider-backto-INoUiSlider" style="stroke:#272B30;stroke-width:1.0;"/><polygon fill="none" points="393.11,286.17,399.4738,304.0446,408.9258,296.6514,393.11,286.17" style="stroke:#272B30;stroke-width:1.0;"/></g><!--reverse link IProviderPattern<NoUiSlider> to INoUiSlider--><g id="link_IProviderPattern&lt;NoUiSlider&gt;_INoUiSlider"><path codeLine="58" d="M737.8518,292.1057 C720.6118,314.0557 713.65,322.92 695.86,345.57 " fill="none" id="IProviderPattern&lt;NoUiSlider&gt;-backto-INoUiSlider" style="stroke:#272B30;stroke-width:1.0;"/><polygon fill="none" points="748.97,277.95,733.1332,288.3997,742.5704,295.8118,748.97,277.95" style="stroke:#272B30;stroke-width:1.0;"/></g><!--reverse link INoUiSlider to AbstractNoUiSlider<C>--><g id="link_INoUiSlider_AbstractNoUiSlider&lt;C&gt;"><path codeLine="103" d="M567.5,692.43 C567.5,711.43 567.5,713.36 567.5,733.79 " fill="none" id="INoUiSlider-backto-AbstractNoUiSlider&lt;C&gt;" style="stroke:#272B30;stroke-width:1.0;stroke-dasharray:7.0,7.0;"/><polygon fill="none" points="567.5,674.43,561.5,692.43,573.5,692.43,567.5,674.43" style="stroke:#272B30;stroke-width:1.0;"/></g><!--SRC=[xLTHJzim47xlhx3WfTCe6cpI98GcqS8WqaQhbKsQ449kV4cjEdQmdLOC-E-pdQIDawQ3IJ1feYzDxhwxyvs_EpjgHdcA9KxGW66bZgGKYu5WGgBj_O_xa_VlEif7z8Ka83T3S3YBfSWuAM1H55Km3NK8v0F1dIabW219zIrAG4y5KLLHH84P2UKQP8H3G5l1kVXEnyn0v1Qwwo3pUqjLFwDCemCq4O81vhaubM9kSKREbqQ-Ak2HCEfHvJK7A63H2OC4k7LxTl7rI_6MgpDERp88YD4fBIcFS_62aXXqGpmngoFTDqOw5vJaid2AUGmcS0fIttRJuk4S9r0Qxw1I-WEpp8WpFkDYmNr7X2eyOT0jbrHQDr2fK51R1F17cC9DXfcw4C5nbteGhzWIOghCBWqmOnEprrsOcshvwOI5xW0DnwV0GTBG3wL0brin43oYiUgc_li1mlosrUZ4njmSkOYxWpOddV7rRblnAS4QF8FLsYsjV98jZHyyRd-pd7WSkLy9-ahGHnBqeLDZrk5zh-TFKe-5fTSHraR83rUuJqyOkUV_zSXTnzL_IaCEYtO6_lrq-WCRrZ09JqmQEDGejBS2j7LKlAymXuCbZxPTzcK8L_E1soMxdqNgEP2g4jN7ogchPTrU7V33L2kZDNzKS9LhKuPr96JYCgz4iRZna5Sa3b4OUUNwYZcERNcKnZoqbe5NpqAVc-gf55epkA29wmMp8Ks5Yshl9baoAGnxrrG5jXFdcDKox5tBLGil8vi6MTShpyh-S0hXx8WG83L2hO6DW1FZU2EmF1-US1wqDbwQapHexpypB5nopaTUUdHVF5nUlLoF5lnybfDY1oaypwcypBuHo9q89TboyW_viSJn2QzJvwKkGwv58igfclQR3Buh9yk3xKqmdnLG5jRt8858l6WtDiaSxUtzB5g1Wje8BKbGZs9KPpfXHT-jqGQSQcfAEnwxxwDwc6rJkDXCZ55rDYqPPoVMPoCTD6csWx2q32gQy_9gezjY5VGN43-2R-Msk2rLfpnbOcAosGHfhqSlb52XH3b5Qw1LqSRQeEi-hgrU7UVZWdJfyd4zoHs-EToxuUhPtLA2VARcD6rw69lIrHUI4znra7DVMQazCgkVg8VtkxjjX-1l]--></g></svg>