<?xml version="1.0" encoding="us-ascii" standalone="no"?><svg xmlns="http://www.w3.org/2000/svg" xmlns:xlink="http://www.w3.org/1999/xlink" contentStyleType="text/css" height="1158px" preserveAspectRatio="none" style="width:3206px;height:1158px;background:#CED4DA;" version="1.1" viewBox="0 0 3206 1158" width="3206px" zoomAndPan="magnify"><defs/><g><rect fill="#CED4DA" height="1158" style="stroke:none;stroke-width:1.0;" width="3206" x="0" y="0"/><!--class IProviderPattern<P>--><g id="elem_IProviderPattern&lt;P&gt;"><rect codeLine="7" fill="#FFFFFF" height="259.8594" id="IProviderPattern&lt;P&gt;" rx="2.5" ry="2.5" style="stroke:#272B30;stroke-width:0.5;" width="510" x="1229.5" y="262"/><ellipse cx="1409.75" cy="278" fill="#B4A7E5" rx="11" ry="11" style="stroke:#181818;stroke-width:1.0;"/><path d="M1405.6719,273.7656 L1405.6719,271.6094 L1413.0625,271.6094 L1413.0625,273.7656 L1410.5938,273.7656 L1410.5938,281.8438 L1413.0625,281.8438 L1413.0625,284 L1405.6719,284 L1405.6719,281.8438 L1408.1406,281.8438 L1408.1406,273.7656 L1405.6719,273.7656 Z " fill="#000000"/><text fill="#000000" font-family="sans-serif" font-size="14" font-style="italic" lengthAdjust="spacing" textLength="141" x="1430.25" y="282.8467">IProviderPattern&lt;P&gt;</text><line style="stroke:#272B30;stroke-width:0.5;" x1="1230.5" x2="1738.5" y1="294" y2="294"/><ellipse cx="1240.5" cy="307.6484" fill="none" rx="3" ry="3" style="stroke:#038048;stroke-width:1.0;"/><text fill="#000000" font-family="sans-serif" font-size="14" lengthAdjust="spacing" textLength="110" x="1249.5" y="310.9951">isBuilt : boolean</text><ellipse cx="1240.5" cy="323.9453" fill="none" rx="3" ry="3" style="stroke:#038048;stroke-width:1.0;"/><text fill="#000000" font-family="sans-serif" font-size="14" lengthAdjust="spacing" textLength="78" x="1249.5" y="327.292">provider : P</text><ellipse cx="1240.5" cy="340.2422" fill="none" rx="3" ry="3" style="stroke:#038048;stroke-width:1.0;"/><text fill="#000000" font-family="sans-serif" font-size="14" lengthAdjust="spacing" textLength="175" x="1249.5" y="343.5889">providerInfo : ProviderInfo</text><ellipse cx="1240.5" cy="356.5391" fill="none" rx="3" ry="3" style="stroke:#038048;stroke-width:1.0;"/><text fill="#000000" font-family="sans-serif" font-size="14" lengthAdjust="spacing" textLength="189" x="1249.5" y="359.8857">selfElement : HTMLElement</text><ellipse cx="1240.5" cy="372.8359" fill="none" rx="3" ry="3" style="stroke:#038048;stroke-width:1.0;"/><text fill="#000000" font-family="sans-serif" font-size="14" lengthAdjust="spacing" textLength="112" x="1249.5" y="376.1826">uniqueId : string</text><ellipse cx="1240.5" cy="389.1328" fill="none" rx="3" ry="3" style="stroke:#038048;stroke-width:1.0;"/><text fill="#000000" font-family="sans-serif" font-size="14" lengthAdjust="spacing" textLength="110" x="1249.5" y="392.4795">widgetId : string</text><line style="stroke:#272B30;stroke-width:0.5;" x1="1230.5" x2="1738.5" y1="399.7813" y2="399.7813"/><ellipse cx="1240.5" cy="413.4297" fill="#84BE84" rx="3" ry="3" style="stroke:#038048;stroke-width:1.0;"/><text fill="#000000" font-family="sans-serif" font-size="14" lengthAdjust="spacing" textLength="84" x="1249.5" y="416.7764">build() : void</text><ellipse cx="1240.5" cy="429.7266" fill="#84BE84" rx="3" ry="3" style="stroke:#038048;stroke-width:1.0;"/><text fill="#000000" font-family="sans-serif" font-size="14" lengthAdjust="spacing" textLength="484" x="1249.5" y="433.0732">changeProperty(propertyName: string, propertyValue: unknown) : void</text><ellipse cx="1240.5" cy="446.0234" fill="#84BE84" rx="3" ry="3" style="stroke:#038048;stroke-width:1.0;"/><text fill="#000000" font-family="sans-serif" font-size="14" lengthAdjust="spacing" textLength="106" x="1249.5" y="449.3701">dispose() : void</text><ellipse cx="1240.5" cy="462.3203" fill="#84BE84" rx="3" ry="3" style="stroke:#038048;stroke-width:1.0;"/><text fill="#000000" font-family="sans-serif" font-size="14" lengthAdjust="spacing" textLength="217" x="1249.5" y="465.667">equalsToID(id: string) : boolean</text><ellipse cx="1240.5" cy="478.6172" fill="#84BE84" rx="3" ry="3" style="stroke:#038048;stroke-width:1.0;"/><text fill="#000000" font-family="sans-serif" font-size="14" lengthAdjust="spacing" textLength="434" x="1249.5" y="481.9639">registerCallback(eventName: string, callback: OSGeneric) : void</text><ellipse cx="1240.5" cy="494.9141" fill="#84BE84" rx="3" ry="3" style="stroke:#038048;stroke-width:1.0;"/><text fill="#000000" font-family="sans-serif" font-size="14" lengthAdjust="spacing" textLength="295" x="1249.5" y="498.2607">setProviderConfigs(newConfigs: any) : void</text><ellipse cx="1240.5" cy="511.2109" fill="#84BE84" rx="3" ry="3" style="stroke:#038048;stroke-width:1.0;"/><text fill="#000000" font-family="sans-serif" font-size="14" lengthAdjust="spacing" textLength="374" x="1249.5" y="514.5576">updateProviderEvents(providerInfo: ProviderInfo) : void</text></g><!--class IPattern--><g id="elem_IPattern"><rect codeLine="22" fill="#FFFFFF" height="194.6719" id="IPattern" rx="2.5" ry="2.5" style="stroke:#272B30;stroke-width:0.5;" width="510" x="1229.5" y="7"/><ellipse cx="1453.75" cy="23" fill="#B4A7E5" rx="11" ry="11" style="stroke:#181818;stroke-width:1.0;"/><path d="M1449.6719,18.7656 L1449.6719,16.6094 L1457.0625,16.6094 L1457.0625,18.7656 L1454.5938,18.7656 L1454.5938,26.8438 L1457.0625,26.8438 L1457.0625,29 L1449.6719,29 L1449.6719,26.8438 L1452.1406,26.8438 L1452.1406,18.7656 L1449.6719,18.7656 Z " fill="#000000"/><text fill="#000000" font-family="sans-serif" font-size="14" font-style="italic" lengthAdjust="spacing" textLength="53" x="1474.25" y="27.8467">IPattern</text><line style="stroke:#272B30;stroke-width:0.5;" x1="1230.5" x2="1738.5" y1="39" y2="39"/><ellipse cx="1240.5" cy="52.6484" fill="none" rx="3" ry="3" style="stroke:#038048;stroke-width:1.0;"/><text fill="#000000" font-family="sans-serif" font-size="14" lengthAdjust="spacing" textLength="110" x="1249.5" y="55.9951">isBuilt : boolean</text><ellipse cx="1240.5" cy="68.9453" fill="none" rx="3" ry="3" style="stroke:#038048;stroke-width:1.0;"/><text fill="#000000" font-family="sans-serif" font-size="14" lengthAdjust="spacing" textLength="189" x="1249.5" y="72.292">selfElement : HTMLElement</text><ellipse cx="1240.5" cy="85.2422" fill="none" rx="3" ry="3" style="stroke:#038048;stroke-width:1.0;"/><text fill="#000000" font-family="sans-serif" font-size="14" lengthAdjust="spacing" textLength="112" x="1249.5" y="88.5889">uniqueId : string</text><ellipse cx="1240.5" cy="101.5391" fill="none" rx="3" ry="3" style="stroke:#038048;stroke-width:1.0;"/><text fill="#000000" font-family="sans-serif" font-size="14" lengthAdjust="spacing" textLength="110" x="1249.5" y="104.8857">widgetId : string</text><line style="stroke:#272B30;stroke-width:0.5;" x1="1230.5" x2="1738.5" y1="112.1875" y2="112.1875"/><ellipse cx="1240.5" cy="125.8359" fill="#84BE84" rx="3" ry="3" style="stroke:#038048;stroke-width:1.0;"/><text fill="#000000" font-family="sans-serif" font-size="14" lengthAdjust="spacing" textLength="84" x="1249.5" y="129.1826">build() : void</text><ellipse cx="1240.5" cy="142.1328" fill="#84BE84" rx="3" ry="3" style="stroke:#038048;stroke-width:1.0;"/><text fill="#000000" font-family="sans-serif" font-size="14" lengthAdjust="spacing" textLength="484" x="1249.5" y="145.4795">changeProperty(propertyName: string, propertyValue: unknown) : void</text><ellipse cx="1240.5" cy="158.4297" fill="#84BE84" rx="3" ry="3" style="stroke:#038048;stroke-width:1.0;"/><text fill="#000000" font-family="sans-serif" font-size="14" lengthAdjust="spacing" textLength="106" x="1249.5" y="161.7764">dispose() : void</text><ellipse cx="1240.5" cy="174.7266" fill="#84BE84" rx="3" ry="3" style="stroke:#038048;stroke-width:1.0;"/><text fill="#000000" font-family="sans-serif" font-size="14" lengthAdjust="spacing" textLength="217" x="1249.5" y="178.0732">equalsToID(id: string) : boolean</text><ellipse cx="1240.5" cy="191.0234" fill="#84BE84" rx="3" ry="3" style="stroke:#038048;stroke-width:1.0;"/><text fill="#000000" font-family="sans-serif" font-size="14" lengthAdjust="spacing" textLength="434" x="1249.5" y="194.3701">registerCallback(eventName: string, callback: OSGeneric) : void</text></g><!--class IFlatpickr--><g id="elem_IFlatpickr"><rect codeLine="34" fill="#FFFFFF" height="422.8281" id="IFlatpickr" rx="2.5" ry="2.5" style="stroke:#272B30;stroke-width:0.5;" width="563" x="7" y="655"/><ellipse cx="253.75" cy="671" fill="#B4A7E5" rx="11" ry="11" style="stroke:#181818;stroke-width:1.0;"/><path d="M249.6719,666.7656 L249.6719,664.6094 L257.0625,664.6094 L257.0625,666.7656 L254.5938,666.7656 L254.5938,674.8438 L257.0625,674.8438 L257.0625,677 L249.6719,677 L249.6719,674.8438 L252.1406,674.8438 L252.1406,666.7656 L249.6719,666.7656 Z " fill="#000000"/><text fill="#000000" font-family="sans-serif" font-size="14" font-style="italic" lengthAdjust="spacing" textLength="61" x="274.25" y="675.8467">IFlatpickr</text><line style="stroke:#272B30;stroke-width:0.5;" x1="8" x2="569" y1="687" y2="687"/><ellipse cx="18" cy="700.6484" fill="none" rx="3" ry="3" style="stroke:#038048;stroke-width:1.0;"/><text fill="#000000" font-family="sans-serif" font-size="14" lengthAdjust="spacing" textLength="110" x="27" y="703.9951">isBuilt : boolean</text><ellipse cx="18" cy="716.9453" fill="none" rx="3" ry="3" style="stroke:#038048;stroke-width:1.0;"/><text fill="#000000" font-family="sans-serif" font-size="14" lengthAdjust="spacing" textLength="122" x="27" y="720.292">provider : flatpickr</text><ellipse cx="18" cy="733.2422" fill="none" rx="3" ry="3" style="stroke:#038048;stroke-width:1.0;"/><text fill="#000000" font-family="sans-serif" font-size="14" lengthAdjust="spacing" textLength="175" x="27" y="736.5889">providerInfo : ProviderInfo</text><ellipse cx="18" cy="749.5391" fill="none" rx="3" ry="3" style="stroke:#038048;stroke-width:1.0;"/><text fill="#000000" font-family="sans-serif" font-size="14" lengthAdjust="spacing" textLength="189" x="27" y="752.8857">selfElement : HTMLElement</text><ellipse cx="18" cy="765.8359" fill="none" rx="3" ry="3" style="stroke:#038048;stroke-width:1.0;"/><text fill="#000000" font-family="sans-serif" font-size="14" lengthAdjust="spacing" textLength="112" x="27" y="769.1826">uniqueId : string</text><ellipse cx="18" cy="782.1328" fill="none" rx="3" ry="3" style="stroke:#038048;stroke-width:1.0;"/><text fill="#000000" font-family="sans-serif" font-size="14" lengthAdjust="spacing" textLength="110" x="27" y="785.4795">widgetId : string</text><line style="stroke:#272B30;stroke-width:0.5;" x1="8" x2="569" y1="792.7813" y2="792.7813"/><ellipse cx="18" cy="806.4297" fill="#84BE84" rx="3" ry="3" style="stroke:#038048;stroke-width:1.0;"/><text fill="#000000" font-family="sans-serif" font-size="14" lengthAdjust="spacing" textLength="84" x="27" y="809.7764">build() : void</text><ellipse cx="18" cy="822.7266" fill="#84BE84" rx="3" ry="3" style="stroke:#038048;stroke-width:1.0;"/><text fill="#000000" font-family="sans-serif" font-size="14" lengthAdjust="spacing" textLength="484" x="27" y="826.0732">changeProperty(propertyName: string, propertyValue: unknown) : void</text><ellipse cx="18" cy="839.0234" fill="#84BE84" rx="3" ry="3" style="stroke:#038048;stroke-width:1.0;"/><text fill="#000000" font-family="sans-serif" font-size="14" lengthAdjust="spacing" textLength="84" x="27" y="842.3701">clear() : void</text><ellipse cx="18" cy="855.3203" fill="#84BE84" rx="3" ry="3" style="stroke:#038048;stroke-width:1.0;"/><text fill="#000000" font-family="sans-serif" font-size="14" lengthAdjust="spacing" textLength="88" x="27" y="858.667">close() : void</text><ellipse cx="18" cy="871.6172" fill="#84BE84" rx="3" ry="3" style="stroke:#038048;stroke-width:1.0;"/><text fill="#000000" font-family="sans-serif" font-size="14" lengthAdjust="spacing" textLength="275" x="27" y="874.9639">disableDays(disableDays: string[]) : void</text><ellipse cx="18" cy="887.9141" fill="#84BE84" rx="3" ry="3" style="stroke:#038048;stroke-width:1.0;"/><text fill="#000000" font-family="sans-serif" font-size="14" lengthAdjust="spacing" textLength="329" x="27" y="891.2607">disableWeekDays(disableDays: number[]) : void</text><ellipse cx="18" cy="904.2109" fill="#84BE84" rx="3" ry="3" style="stroke:#038048;stroke-width:1.0;"/><text fill="#000000" font-family="sans-serif" font-size="14" lengthAdjust="spacing" textLength="106" x="27" y="907.5576">dispose() : void</text><ellipse cx="18" cy="920.5078" fill="#84BE84" rx="3" ry="3" style="stroke:#038048;stroke-width:1.0;"/><text fill="#000000" font-family="sans-serif" font-size="14" lengthAdjust="spacing" textLength="217" x="27" y="923.8545">equalsToID(id: string) : boolean</text><ellipse cx="18" cy="936.8047" fill="#84BE84" rx="3" ry="3" style="stroke:#038048;stroke-width:1.0;"/><text fill="#000000" font-family="sans-serif" font-size="14" lengthAdjust="spacing" textLength="87" x="27" y="940.1514">open() : void</text><ellipse cx="18" cy="953.1016" fill="#84BE84" rx="3" ry="3" style="stroke:#038048;stroke-width:1.0;"/><text fill="#000000" font-family="sans-serif" font-size="14" lengthAdjust="spacing" textLength="434" x="27" y="956.4482">registerCallback(eventName: string, callback: OSGeneric) : void</text><ellipse cx="18" cy="969.3984" fill="#84BE84" rx="3" ry="3" style="stroke:#038048;stroke-width:1.0;"/><text fill="#000000" font-family="sans-serif" font-size="14" lengthAdjust="spacing" textLength="225" x="27" y="972.7451">setLanguage(value: string) : void</text><ellipse cx="18" cy="985.6953" fill="#84BE84" rx="3" ry="3" style="stroke:#038048;stroke-width:1.0;"/><text fill="#000000" font-family="sans-serif" font-size="14" lengthAdjust="spacing" textLength="322" x="27" y="989.042">setProviderConfigs(providerConfigs: any) : void</text><ellipse cx="18" cy="1001.9922" fill="#84BE84" rx="3" ry="3" style="stroke:#038048;stroke-width:1.0;"/><text fill="#000000" font-family="sans-serif" font-size="14" lengthAdjust="spacing" textLength="537" x="27" y="1005.3389">setProviderEvent(eventName: string, callback: Generic, uniqueId: string) : void</text><ellipse cx="18" cy="1018.2891" fill="#84BE84" rx="3" ry="3" style="stroke:#038048;stroke-width:1.0;"/><text fill="#000000" font-family="sans-serif" font-size="14" lengthAdjust="spacing" textLength="285" x="27" y="1021.6357">unsetProviderEvent(eventId: string) : void</text><ellipse cx="18" cy="1034.5859" fill="#84BE84" rx="3" ry="3" style="stroke:#038048;stroke-width:1.0;"/><text fill="#000000" font-family="sans-serif" font-size="14" lengthAdjust="spacing" textLength="351" x="27" y="1037.9326">updateInitialDate(date1: string, date2: string) : void</text><ellipse cx="18" cy="1050.8828" fill="#84BE84" rx="3" ry="3" style="stroke:#038048;stroke-width:1.0;"/><text fill="#000000" font-family="sans-serif" font-size="14" lengthAdjust="spacing" textLength="311" x="27" y="1054.2295">updatePrompt(promptMessage: string) : void</text><ellipse cx="18" cy="1067.1797" fill="#84BE84" rx="3" ry="3" style="stroke:#038048;stroke-width:1.0;"/><text fill="#000000" font-family="sans-serif" font-size="14" lengthAdjust="spacing" textLength="374" x="27" y="1070.5264">updateProviderEvents(providerInfo: ProviderInfo) : void</text></g><!--class IFlatpickrMonth--><g id="elem_IFlatpickrMonth"><rect codeLine="60" fill="#FFFFFF" height="390.2344" id="IFlatpickrMonth" rx="2.5" ry="2.5" style="stroke:#272B30;stroke-width:0.5;" width="563" x="605" y="671.5"/><ellipse cx="829.75" cy="687.5" fill="#B4A7E5" rx="11" ry="11" style="stroke:#181818;stroke-width:1.0;"/><path d="M825.6719,683.2656 L825.6719,681.1094 L833.0625,681.1094 L833.0625,683.2656 L830.5938,683.2656 L830.5938,691.3438 L833.0625,691.3438 L833.0625,693.5 L825.6719,693.5 L825.6719,691.3438 L828.1406,691.3438 L828.1406,683.2656 L825.6719,683.2656 Z " fill="#000000"/><text fill="#000000" font-family="sans-serif" font-size="14" font-style="italic" lengthAdjust="spacing" textLength="105" x="850.25" y="692.3467">IFlatpickrMonth</text><line style="stroke:#272B30;stroke-width:0.5;" x1="606" x2="1167" y1="703.5" y2="703.5"/><ellipse cx="616" cy="717.1484" fill="none" rx="3" ry="3" style="stroke:#038048;stroke-width:1.0;"/><text fill="#000000" font-family="sans-serif" font-size="14" lengthAdjust="spacing" textLength="110" x="625" y="720.4951">isBuilt : boolean</text><ellipse cx="616" cy="733.4453" fill="none" rx="3" ry="3" style="stroke:#038048;stroke-width:1.0;"/><text fill="#000000" font-family="sans-serif" font-size="14" lengthAdjust="spacing" textLength="118" x="625" y="736.792">isOpen : boolean</text><ellipse cx="616" cy="749.7422" fill="none" rx="3" ry="3" style="stroke:#038048;stroke-width:1.0;"/><text fill="#000000" font-family="sans-serif" font-size="14" lengthAdjust="spacing" textLength="122" x="625" y="753.0889">provider : flatpickr</text><ellipse cx="616" cy="766.0391" fill="none" rx="3" ry="3" style="stroke:#038048;stroke-width:1.0;"/><text fill="#000000" font-family="sans-serif" font-size="14" lengthAdjust="spacing" textLength="175" x="625" y="769.3857">providerInfo : ProviderInfo</text><ellipse cx="616" cy="782.3359" fill="none" rx="3" ry="3" style="stroke:#038048;stroke-width:1.0;"/><text fill="#000000" font-family="sans-serif" font-size="14" lengthAdjust="spacing" textLength="189" x="625" y="785.6826">selfElement : HTMLElement</text><ellipse cx="616" cy="798.6328" fill="none" rx="3" ry="3" style="stroke:#038048;stroke-width:1.0;"/><text fill="#000000" font-family="sans-serif" font-size="14" lengthAdjust="spacing" textLength="112" x="625" y="801.9795">uniqueId : string</text><ellipse cx="616" cy="814.9297" fill="none" rx="3" ry="3" style="stroke:#038048;stroke-width:1.0;"/><text fill="#000000" font-family="sans-serif" font-size="14" lengthAdjust="spacing" textLength="110" x="625" y="818.2764">widgetId : string</text><line style="stroke:#272B30;stroke-width:0.5;" x1="606" x2="1167" y1="825.5781" y2="825.5781"/><ellipse cx="616" cy="839.2266" fill="#84BE84" rx="3" ry="3" style="stroke:#038048;stroke-width:1.0;"/><text fill="#000000" font-family="sans-serif" font-size="14" lengthAdjust="spacing" textLength="84" x="625" y="842.5732">build() : void</text><ellipse cx="616" cy="855.5234" fill="#84BE84" rx="3" ry="3" style="stroke:#038048;stroke-width:1.0;"/><text fill="#000000" font-family="sans-serif" font-size="14" lengthAdjust="spacing" textLength="484" x="625" y="858.8701">changeProperty(propertyName: string, propertyValue: unknown) : void</text><ellipse cx="616" cy="871.8203" fill="#84BE84" rx="3" ry="3" style="stroke:#038048;stroke-width:1.0;"/><text fill="#000000" font-family="sans-serif" font-size="14" lengthAdjust="spacing" textLength="84" x="625" y="875.167">clear() : void</text><ellipse cx="616" cy="888.1172" fill="#84BE84" rx="3" ry="3" style="stroke:#038048;stroke-width:1.0;"/><text fill="#000000" font-family="sans-serif" font-size="14" lengthAdjust="spacing" textLength="88" x="625" y="891.4639">close() : void</text><ellipse cx="616" cy="904.4141" fill="#84BE84" rx="3" ry="3" style="stroke:#038048;stroke-width:1.0;"/><text fill="#000000" font-family="sans-serif" font-size="14" lengthAdjust="spacing" textLength="106" x="625" y="907.7607">dispose() : void</text><ellipse cx="616" cy="920.7109" fill="#84BE84" rx="3" ry="3" style="stroke:#038048;stroke-width:1.0;"/><text fill="#000000" font-family="sans-serif" font-size="14" lengthAdjust="spacing" textLength="217" x="625" y="924.0576">equalsToID(id: string) : boolean</text><ellipse cx="616" cy="937.0078" fill="#84BE84" rx="3" ry="3" style="stroke:#038048;stroke-width:1.0;"/><text fill="#000000" font-family="sans-serif" font-size="14" lengthAdjust="spacing" textLength="257" x="625" y="940.3545">open(isOpenedByApi: boolean) : void</text><ellipse cx="616" cy="953.3047" fill="#84BE84" rx="3" ry="3" style="stroke:#038048;stroke-width:1.0;"/><text fill="#000000" font-family="sans-serif" font-size="14" lengthAdjust="spacing" textLength="434" x="625" y="956.6514">registerCallback(eventName: string, callback: OSGeneric) : void</text><ellipse cx="616" cy="969.6016" fill="#84BE84" rx="3" ry="3" style="stroke:#038048;stroke-width:1.0;"/><text fill="#000000" font-family="sans-serif" font-size="14" lengthAdjust="spacing" textLength="225" x="625" y="972.9482">setLanguage(value: string) : void</text><ellipse cx="616" cy="985.8984" fill="#84BE84" rx="3" ry="3" style="stroke:#038048;stroke-width:1.0;"/><text fill="#000000" font-family="sans-serif" font-size="14" lengthAdjust="spacing" textLength="322" x="625" y="989.2451">setProviderConfigs(providerConfigs: any) : void</text><ellipse cx="616" cy="1002.1953" fill="#84BE84" rx="3" ry="3" style="stroke:#038048;stroke-width:1.0;"/><text fill="#000000" font-family="sans-serif" font-size="14" lengthAdjust="spacing" textLength="537" x="625" y="1005.542">setProviderEvent(eventName: string, callback: Generic, uniqueId: string) : void</text><ellipse cx="616" cy="1018.4922" fill="#84BE84" rx="3" ry="3" style="stroke:#038048;stroke-width:1.0;"/><text fill="#000000" font-family="sans-serif" font-size="14" lengthAdjust="spacing" textLength="285" x="625" y="1021.8389">unsetProviderEvent(eventId: string) : void</text><ellipse cx="616" cy="1034.7891" fill="#84BE84" rx="3" ry="3" style="stroke:#038048;stroke-width:1.0;"/><text fill="#000000" font-family="sans-serif" font-size="14" lengthAdjust="spacing" textLength="338" x="625" y="1038.1357">updateInitialMonth(monthYear: MonthYear) : void</text><ellipse cx="616" cy="1051.0859" fill="#84BE84" rx="3" ry="3" style="stroke:#038048;stroke-width:1.0;"/><text fill="#000000" font-family="sans-serif" font-size="14" lengthAdjust="spacing" textLength="374" x="625" y="1054.4326">updateProviderEvents(providerInfo: ProviderInfo) : void</text></g><!--class INoUiSlider--><g id="elem_INoUiSlider"><rect codeLine="84" fill="#FFFFFF" height="325.0469" id="INoUiSlider" rx="2.5" ry="2.5" style="stroke:#272B30;stroke-width:0.5;" width="563" x="1203" y="704"/><ellipse cx="1442.75" cy="720" fill="#B4A7E5" rx="11" ry="11" style="stroke:#181818;stroke-width:1.0;"/><path d="M1438.6719,715.7656 L1438.6719,713.6094 L1446.0625,713.6094 L1446.0625,715.7656 L1443.5938,715.7656 L1443.5938,723.8438 L1446.0625,723.8438 L1446.0625,726 L1438.6719,726 L1438.6719,723.8438 L1441.1406,723.8438 L1441.1406,715.7656 L1438.6719,715.7656 Z " fill="#000000"/><text fill="#000000" font-family="sans-serif" font-size="14" font-style="italic" lengthAdjust="spacing" textLength="75" x="1463.25" y="724.8467">INoUiSlider</text><line style="stroke:#272B30;stroke-width:0.5;" x1="1204" x2="1765" y1="736" y2="736"/><ellipse cx="1214" cy="749.6484" fill="none" rx="3" ry="3" style="stroke:#038048;stroke-width:1.0;"/><text fill="#000000" font-family="sans-serif" font-size="14" lengthAdjust="spacing" textLength="110" x="1223" y="752.9951">isBuilt : boolean</text><ellipse cx="1214" cy="765.9453" fill="none" rx="3" ry="3" style="stroke:#038048;stroke-width:1.0;"/><text fill="#000000" font-family="sans-serif" font-size="14" lengthAdjust="spacing" textLength="138" x="1223" y="769.292">provider : noUiSlider</text><ellipse cx="1214" cy="782.2422" fill="none" rx="3" ry="3" style="stroke:#038048;stroke-width:1.0;"/><text fill="#000000" font-family="sans-serif" font-size="14" lengthAdjust="spacing" textLength="175" x="1223" y="785.5889">providerInfo : ProviderInfo</text><ellipse cx="1214" cy="798.5391" fill="none" rx="3" ry="3" style="stroke:#038048;stroke-width:1.0;"/><text fill="#000000" font-family="sans-serif" font-size="14" lengthAdjust="spacing" textLength="189" x="1223" y="801.8857">selfElement : HTMLElement</text><ellipse cx="1214" cy="814.8359" fill="none" rx="3" ry="3" style="stroke:#038048;stroke-width:1.0;"/><text fill="#000000" font-family="sans-serif" font-size="14" lengthAdjust="spacing" textLength="112" x="1223" y="818.1826">uniqueId : string</text><ellipse cx="1214" cy="831.1328" fill="none" rx="3" ry="3" style="stroke:#038048;stroke-width:1.0;"/><text fill="#000000" font-family="sans-serif" font-size="14" lengthAdjust="spacing" textLength="110" x="1223" y="834.4795">widgetId : string</text><line style="stroke:#272B30;stroke-width:0.5;" x1="1204" x2="1765" y1="841.7813" y2="841.7813"/><ellipse cx="1214" cy="855.4297" fill="#84BE84" rx="3" ry="3" style="stroke:#038048;stroke-width:1.0;"/><text fill="#000000" font-family="sans-serif" font-size="14" lengthAdjust="spacing" textLength="84" x="1223" y="858.7764">build() : void</text><ellipse cx="1214" cy="871.7266" fill="#84BE84" rx="3" ry="3" style="stroke:#038048;stroke-width:1.0;"/><text fill="#000000" font-family="sans-serif" font-size="14" lengthAdjust="spacing" textLength="484" x="1223" y="875.0732">changeProperty(propertyName: string, propertyValue: unknown) : void</text><ellipse cx="1214" cy="888.0234" fill="#84BE84" rx="3" ry="3" style="stroke:#038048;stroke-width:1.0;"/><text fill="#000000" font-family="sans-serif" font-size="14" lengthAdjust="spacing" textLength="208" x="1223" y="891.3701">disable(uniqueId: string) : void</text><ellipse cx="1214" cy="904.3203" fill="#84BE84" rx="3" ry="3" style="stroke:#038048;stroke-width:1.0;"/><text fill="#000000" font-family="sans-serif" font-size="14" lengthAdjust="spacing" textLength="106" x="1223" y="907.667">dispose() : void</text><ellipse cx="1214" cy="920.6172" fill="#84BE84" rx="3" ry="3" style="stroke:#038048;stroke-width:1.0;"/><text fill="#000000" font-family="sans-serif" font-size="14" lengthAdjust="spacing" textLength="206" x="1223" y="923.9639">enable(uniqueId: string) : void</text><ellipse cx="1214" cy="936.9141" fill="#84BE84" rx="3" ry="3" style="stroke:#038048;stroke-width:1.0;"/><text fill="#000000" font-family="sans-serif" font-size="14" lengthAdjust="spacing" textLength="217" x="1223" y="940.2607">equalsToID(id: string) : boolean</text><ellipse cx="1214" cy="953.2109" fill="#84BE84" rx="3" ry="3" style="stroke:#038048;stroke-width:1.0;"/><text fill="#000000" font-family="sans-serif" font-size="14" lengthAdjust="spacing" textLength="434" x="1223" y="956.5576">registerCallback(eventName: string, callback: OSGeneric) : void</text><ellipse cx="1214" cy="969.5078" fill="#84BE84" rx="3" ry="3" style="stroke:#038048;stroke-width:1.0;"/><text fill="#000000" font-family="sans-serif" font-size="14" lengthAdjust="spacing" textLength="322" x="1223" y="972.8545">setProviderConfigs(providerConfigs: any) : void</text><ellipse cx="1214" cy="985.8047" fill="#84BE84" rx="3" ry="3" style="stroke:#038048;stroke-width:1.0;"/><text fill="#000000" font-family="sans-serif" font-size="14" lengthAdjust="spacing" textLength="537" x="1223" y="989.1514">setProviderEvent(eventName: string, callback: Generic, uniqueId: string) : void</text><ellipse cx="1214" cy="1002.1016" fill="#84BE84" rx="3" ry="3" style="stroke:#038048;stroke-width:1.0;"/><text fill="#000000" font-family="sans-serif" font-size="14" lengthAdjust="spacing" textLength="285" x="1223" y="1005.4482">unsetProviderEvent(eventId: string) : void</text><ellipse cx="1214" cy="1018.3984" fill="#84BE84" rx="3" ry="3" style="stroke:#038048;stroke-width:1.0;"/><text fill="#000000" font-family="sans-serif" font-size="14" lengthAdjust="spacing" textLength="374" x="1223" y="1021.7451">updateProviderEvents(providerInfo: ProviderInfo) : void</text></g><!--class IFlatpickrTime--><g id="elem_IFlatpickrTime"><rect codeLine="104" fill="#FFFFFF" height="390.2344" id="IFlatpickrTime" rx="2.5" ry="2.5" style="stroke:#272B30;stroke-width:0.5;" width="563" x="1801" y="671.5"/><ellipse cx="2030.75" cy="687.5" fill="#B4A7E5" rx="11" ry="11" style="stroke:#181818;stroke-width:1.0;"/><path d="M2026.6719,683.2656 L2026.6719,681.1094 L2034.0625,681.1094 L2034.0625,683.2656 L2031.5938,683.2656 L2031.5938,691.3438 L2034.0625,691.3438 L2034.0625,693.5 L2026.6719,693.5 L2026.6719,691.3438 L2029.1406,691.3438 L2029.1406,683.2656 L2026.6719,683.2656 Z " fill="#000000"/><text fill="#000000" font-family="sans-serif" font-size="14" font-style="italic" lengthAdjust="spacing" textLength="95" x="2051.25" y="692.3467">IFlatpickrTime</text><line style="stroke:#272B30;stroke-width:0.5;" x1="1802" x2="2363" y1="703.5" y2="703.5"/><ellipse cx="1812" cy="717.1484" fill="none" rx="3" ry="3" style="stroke:#038048;stroke-width:1.0;"/><text fill="#000000" font-family="sans-serif" font-size="14" lengthAdjust="spacing" textLength="110" x="1821" y="720.4951">isBuilt : boolean</text><ellipse cx="1812" cy="733.4453" fill="none" rx="3" ry="3" style="stroke:#038048;stroke-width:1.0;"/><text fill="#000000" font-family="sans-serif" font-size="14" lengthAdjust="spacing" textLength="118" x="1821" y="736.792">isOpen : boolean</text><ellipse cx="1812" cy="749.7422" fill="none" rx="3" ry="3" style="stroke:#038048;stroke-width:1.0;"/><text fill="#000000" font-family="sans-serif" font-size="14" lengthAdjust="spacing" textLength="122" x="1821" y="753.0889">provider : flatpickr</text><ellipse cx="1812" cy="766.0391" fill="none" rx="3" ry="3" style="stroke:#038048;stroke-width:1.0;"/><text fill="#000000" font-family="sans-serif" font-size="14" lengthAdjust="spacing" textLength="175" x="1821" y="769.3857">providerInfo : ProviderInfo</text><ellipse cx="1812" cy="782.3359" fill="none" rx="3" ry="3" style="stroke:#038048;stroke-width:1.0;"/><text fill="#000000" font-family="sans-serif" font-size="14" lengthAdjust="spacing" textLength="189" x="1821" y="785.6826">selfElement : HTMLElement</text><ellipse cx="1812" cy="798.6328" fill="none" rx="3" ry="3" style="stroke:#038048;stroke-width:1.0;"/><text fill="#000000" font-family="sans-serif" font-size="14" lengthAdjust="spacing" textLength="112" x="1821" y="801.9795">uniqueId : string</text><ellipse cx="1812" cy="814.9297" fill="none" rx="3" ry="3" style="stroke:#038048;stroke-width:1.0;"/><text fill="#000000" font-family="sans-serif" font-size="14" lengthAdjust="spacing" textLength="110" x="1821" y="818.2764">widgetId : string</text><line style="stroke:#272B30;stroke-width:0.5;" x1="1802" x2="2363" y1="825.5781" y2="825.5781"/><ellipse cx="1812" cy="839.2266" fill="#84BE84" rx="3" ry="3" style="stroke:#038048;stroke-width:1.0;"/><text fill="#000000" font-family="sans-serif" font-size="14" lengthAdjust="spacing" textLength="84" x="1821" y="842.5732">build() : void</text><ellipse cx="1812" cy="855.5234" fill="#84BE84" rx="3" ry="3" style="stroke:#038048;stroke-width:1.0;"/><text fill="#000000" font-family="sans-serif" font-size="14" lengthAdjust="spacing" textLength="484" x="1821" y="858.8701">changeProperty(propertyName: string, propertyValue: unknown) : void</text><ellipse cx="1812" cy="871.8203" fill="#84BE84" rx="3" ry="3" style="stroke:#038048;stroke-width:1.0;"/><text fill="#000000" font-family="sans-serif" font-size="14" lengthAdjust="spacing" textLength="84" x="1821" y="875.167">clear() : void</text><ellipse cx="1812" cy="888.1172" fill="#84BE84" rx="3" ry="3" style="stroke:#038048;stroke-width:1.0;"/><text fill="#000000" font-family="sans-serif" font-size="14" lengthAdjust="spacing" textLength="88" x="1821" y="891.4639">close() : void</text><ellipse cx="1812" cy="904.4141" fill="#84BE84" rx="3" ry="3" style="stroke:#038048;stroke-width:1.0;"/><text fill="#000000" font-family="sans-serif" font-size="14" lengthAdjust="spacing" textLength="106" x="1821" y="907.7607">dispose() : void</text><ellipse cx="1812" cy="920.7109" fill="#84BE84" rx="3" ry="3" style="stroke:#038048;stroke-width:1.0;"/><text fill="#000000" font-family="sans-serif" font-size="14" lengthAdjust="spacing" textLength="217" x="1821" y="924.0576">equalsToID(id: string) : boolean</text><ellipse cx="1812" cy="937.0078" fill="#84BE84" rx="3" ry="3" style="stroke:#038048;stroke-width:1.0;"/><text fill="#000000" font-family="sans-serif" font-size="14" lengthAdjust="spacing" textLength="257" x="1821" y="940.3545">open(isOpenedByApi: boolean) : void</text><ellipse cx="1812" cy="953.3047" fill="#84BE84" rx="3" ry="3" style="stroke:#038048;stroke-width:1.0;"/><text fill="#000000" font-family="sans-serif" font-size="14" lengthAdjust="spacing" textLength="434" x="1821" y="956.6514">registerCallback(eventName: string, callback: OSGeneric) : void</text><ellipse cx="1812" cy="969.6016" fill="#84BE84" rx="3" ry="3" style="stroke:#038048;stroke-width:1.0;"/><text fill="#000000" font-family="sans-serif" font-size="14" lengthAdjust="spacing" textLength="225" x="1821" y="972.9482">setLanguage(value: string) : void</text><ellipse cx="1812" cy="985.8984" fill="#84BE84" rx="3" ry="3" style="stroke:#038048;stroke-width:1.0;"/><text fill="#000000" font-family="sans-serif" font-size="14" lengthAdjust="spacing" textLength="322" x="1821" y="989.2451">setProviderConfigs(providerConfigs: any) : void</text><ellipse cx="1812" cy="1002.1953" fill="#84BE84" rx="3" ry="3" style="stroke:#038048;stroke-width:1.0;"/><text fill="#000000" font-family="sans-serif" font-size="14" lengthAdjust="spacing" textLength="537" x="1821" y="1005.542">setProviderEvent(eventName: string, callback: Generic, uniqueId: string) : void</text><ellipse cx="1812" cy="1018.4922" fill="#84BE84" rx="3" ry="3" style="stroke:#038048;stroke-width:1.0;"/><text fill="#000000" font-family="sans-serif" font-size="14" lengthAdjust="spacing" textLength="285" x="1821" y="1021.8389">unsetProviderEvent(eventId: string) : void</text><ellipse cx="1812" cy="1034.7891" fill="#84BE84" rx="3" ry="3" style="stroke:#038048;stroke-width:1.0;"/><text fill="#000000" font-family="sans-serif" font-size="14" lengthAdjust="spacing" textLength="246" x="1821" y="1038.1357">updateInitialTime(time: string) : void</text><ellipse cx="1812" cy="1051.0859" fill="#84BE84" rx="3" ry="3" style="stroke:#038048;stroke-width:1.0;"/><text fill="#000000" font-family="sans-serif" font-size="14" lengthAdjust="spacing" textLength="374" x="1821" y="1054.4326">updateProviderEvents(providerInfo: ProviderInfo) : void</text></g><!--class AbstractProviderPattern<P, C>--><g id="elem_AbstractProviderPattern&lt;P, C&gt;"><rect codeLine="128" fill="#FFFFFF" height="569.5" id="AbstractProviderPattern&lt;P, C&gt;" rx="2.5" ry="2.5" style="stroke:#272B30;stroke-width:0.5;" width="800" x="2399.5" y="582"/><ellipse cx="2689.25" cy="598" fill="#A9DCDF" rx="11" ry="11" style="stroke:#181818;stroke-width:1.0;"/><path d="M2689.3594,593.3438 L2688.2031,598.4219 L2690.5313,598.4219 L2689.3594,593.3438 Z M2687.875,591.1094 L2690.8594,591.1094 L2694.2188,603.5 L2691.7656,603.5 L2691,600.4375 L2687.7188,600.4375 L2686.9688,603.5 L2684.5313,603.5 L2687.875,591.1094 Z " fill="#000000"/><text fill="#000000" font-family="sans-serif" font-size="14" font-style="italic" lengthAdjust="spacing" textLength="212" x="2709.75" y="602.8467">AbstractProviderPattern&lt;P, C&gt;</text><line style="stroke:#272B30;stroke-width:0.5;" x1="2400.5" x2="3198.5" y1="614" y2="614"/><polygon fill="none" points="2410.5,622.6484,2414.5,626.6484,2410.5,630.6484,2406.5,626.6484" style="stroke:#B38D22;stroke-width:1.0;"/><text fill="#000000" font-family="sans-serif" font-size="14" lengthAdjust="spacing" textLength="180" x="2419.5" y="630.9951">isProviderBased : boolean</text><polygon fill="none" points="2410.5,638.9453,2414.5,642.9453,2410.5,646.9453,2406.5,642.9453" style="stroke:#B38D22;stroke-width:1.0;"/><text fill="#000000" font-family="sans-serif" font-size="14" lengthAdjust="spacing" textLength="393" x="2419.5" y="647.292">providerEventsManagerInstance : IProviderEventManager</text><rect fill="none" height="6" style="stroke:#C82930;stroke-width:1.0;" width="6" x="2407.5" y="657.2422"/><text fill="#000000" font-family="sans-serif" font-size="14" lengthAdjust="spacing" textLength="196" x="2419.5" y="663.5889">_asyncInvocationId : number</text><rect fill="none" height="6" style="stroke:#C82930;stroke-width:1.0;" width="6" x="2407.5" y="673.5391"/><text fill="#000000" font-family="sans-serif" font-size="14" lengthAdjust="spacing" textLength="405" x="2419.5" y="679.8857">_platformEventProviderConfigsAppliedCallback : OSGeneric</text><rect fill="none" height="6" style="stroke:#C82930;stroke-width:1.0;" width="6" x="2407.5" y="689.8359"/><text fill="#000000" font-family="sans-serif" font-size="14" lengthAdjust="spacing" textLength="85" x="2419.5" y="696.1826">_provider : P</text><rect fill="none" height="6" style="stroke:#C82930;stroke-width:1.0;" width="6" x="2407.5" y="706.1328"/><text fill="#000000" font-family="sans-serif" font-size="14" lengthAdjust="spacing" textLength="182" x="2419.5" y="712.4795">_providerInfo : ProviderInfo</text><line style="stroke:#272B30;stroke-width:0.5;" x1="2400.5" x2="3198.5" y1="719.7813" y2="719.7813"/><ellipse cx="2410.5" cy="733.4297" fill="#84BE84" rx="3" ry="3" style="stroke:#038048;stroke-width:1.0;"/><text fill="#000000" font-family="sans-serif" font-size="14" lengthAdjust="spacing" textLength="84" x="2419.5" y="736.7764">build() : void</text><ellipse cx="2410.5" cy="749.7266" fill="#84BE84" rx="3" ry="3" style="stroke:#038048;stroke-width:1.0;"/><text fill="#000000" font-family="sans-serif" font-size="14" lengthAdjust="spacing" textLength="484" x="2419.5" y="753.0732">changeProperty(propertyName: string, propertyValue: unknown) : void</text><ellipse cx="2410.5" cy="766.0234" fill="#84BE84" rx="3" ry="3" style="stroke:#038048;stroke-width:1.0;"/><text fill="#000000" font-family="sans-serif" font-size="14" lengthAdjust="spacing" textLength="241" x="2419.5" y="769.3701">checkAddedProviderEvents() : void</text><ellipse cx="2410.5" cy="782.3203" fill="#84BE84" rx="3" ry="3" style="stroke:#038048;stroke-width:1.0;"/><text fill="#000000" font-family="sans-serif" font-size="14" lengthAdjust="spacing" textLength="253" x="2419.5" y="785.667">checkPendingProviderEvents() : void</text><ellipse cx="2410.5" cy="798.6172" fill="#84BE84" rx="3" ry="3" style="stroke:#038048;stroke-width:1.0;"/><text fill="#000000" font-family="sans-serif" font-size="14" lengthAdjust="spacing" textLength="106" x="2419.5" y="801.9639">dispose() : void</text><ellipse cx="2410.5" cy="814.9141" fill="#84BE84" rx="3" ry="3" style="stroke:#038048;stroke-width:1.0;"/><text fill="#000000" font-family="sans-serif" font-size="14" lengthAdjust="spacing" textLength="267" x="2419.5" y="818.2607">equalsToID(patternId: string) : boolean</text><ellipse cx="2410.5" cy="831.2109" fill="#84BE84" rx="3" ry="3" style="stroke:#038048;stroke-width:1.0;"/><text fill="#000000" font-family="sans-serif" font-size="14" lengthAdjust="spacing" textLength="434" x="2419.5" y="834.5576">registerCallback(eventName: string, callback: OSGeneric) : void</text><ellipse cx="2410.5" cy="847.5078" fill="#84BE84" rx="3" ry="3" style="stroke:#038048;stroke-width:1.0;"/><text fill="#000000" font-family="sans-serif" font-size="14" lengthAdjust="spacing" textLength="362" x="2419.5" y="850.8545">setProviderConfigs(providerConfigs: unknown) : void</text><ellipse cx="2410.5" cy="863.8047" fill="#84BE84" rx="3" ry="3" style="stroke:#038048;stroke-width:1.0;"/><text fill="#000000" font-family="sans-serif" font-size="14" lengthAdjust="spacing" textLength="681" x="2419.5" y="867.1514">setProviderEvent(eventName: string, callback: Generic, uniqueId: string, saveEvent: boolean) : void</text><ellipse cx="2410.5" cy="880.1016" fill="#84BE84" rx="3" ry="3" style="stroke:#038048;stroke-width:1.0;"/><text fill="#000000" font-family="sans-serif" font-size="14" lengthAdjust="spacing" textLength="285" x="2419.5" y="883.4482">unsetProviderEvent(eventId: string) : void</text><ellipse cx="2410.5" cy="896.3984" fill="#84BE84" rx="3" ry="3" style="stroke:#038048;stroke-width:1.0;"/><text fill="#000000" font-family="sans-serif" font-size="14" lengthAdjust="spacing" textLength="374" x="2419.5" y="899.7451">updateProviderEvents(providerInfo: ProviderInfo) : void</text><polygon fill="#FFFF44" points="2410.5,907.6953,2414.5,911.6953,2410.5,915.6953,2406.5,911.6953" style="stroke:#B38D22;stroke-width:1.0;"/><text fill="#000000" font-family="sans-serif" font-size="14" lengthAdjust="spacing" textLength="121" x="2419.5" y="916.042">finishBuild() : void</text><polygon fill="#FFFF44" points="2410.5,923.9922,2414.5,927.9922,2410.5,931.9922,2406.5,927.9922" style="stroke:#B38D22;stroke-width:1.0;"/><text fill="#000000" font-family="sans-serif" font-size="14" font-style="italic" lengthAdjust="spacing" textLength="157" x="2419.5" y="932.3389">prepareConfigs() : void</text><polygon fill="#FFFF44" points="2410.5,940.2891,2414.5,944.2891,2410.5,948.2891,2406.5,944.2891" style="stroke:#B38D22;stroke-width:1.0;"/><text fill="#000000" font-family="sans-serif" font-size="14" lengthAdjust="spacing" textLength="98" x="2419.5" y="948.6357">redraw() : void</text><polygon fill="#FFFF44" points="2410.5,956.5859,2414.5,960.5859,2410.5,964.5859,2406.5,960.5859" style="stroke:#B38D22;stroke-width:1.0;"/><text fill="#000000" font-family="sans-serif" font-size="14" font-style="italic" lengthAdjust="spacing" textLength="179" x="2419.5" y="964.9326">setA11YProperties() : void</text><polygon fill="#FFFF44" points="2410.5,972.8828,2414.5,976.8828,2410.5,980.8828,2406.5,976.8828" style="stroke:#B38D22;stroke-width:1.0;"/><text fill="#000000" font-family="sans-serif" font-size="14" font-style="italic" lengthAdjust="spacing" textLength="137" x="2419.5" y="981.2295">setCallbacks() : void</text><polygon fill="#FFFF44" points="2410.5,989.1797,2414.5,993.1797,2410.5,997.1797,2406.5,993.1797" style="stroke:#B38D22;stroke-width:1.0;"/><text fill="#000000" font-family="sans-serif" font-size="14" font-style="italic" lengthAdjust="spacing" textLength="169" x="2419.5" y="997.5264">setHtmlElements() : void</text><polygon fill="#FFFF44" points="2410.5,1005.4766,2414.5,1009.4766,2410.5,1013.4766,2406.5,1009.4766" style="stroke:#B38D22;stroke-width:1.0;"/><text fill="#000000" font-family="sans-serif" font-size="14" lengthAdjust="spacing" textLength="569" x="2419.5" y="1013.8232">triggerPlatformEventCallback(platFormCallback: OSGeneric, args: unknown[]) : void</text><polygon fill="#FFFF44" points="2410.5,1021.7734,2414.5,1025.7734,2410.5,1029.7734,2406.5,1025.7734" style="stroke:#B38D22;stroke-width:1.0;"/><text fill="#000000" font-family="sans-serif" font-size="14" lengthAdjust="spacing" textLength="311" x="2419.5" y="1030.1201">triggerPlatformInitializedEventCallback() : void</text><polygon fill="#FFFF44" points="2410.5,1038.0703,2414.5,1042.0703,2410.5,1046.0703,2406.5,1042.0703" style="stroke:#B38D22;stroke-width:1.0;"/><text fill="#000000" font-family="sans-serif" font-size="14" lengthAdjust="spacing" textLength="156" x="2419.5" y="1046.417">unsetCallbacks() : void</text><polygon fill="#FFFF44" points="2410.5,1054.3672,2414.5,1058.3672,2410.5,1062.3672,2406.5,1058.3672" style="stroke:#B38D22;stroke-width:1.0;"/><text fill="#000000" font-family="sans-serif" font-size="14" lengthAdjust="spacing" textLength="199" x="2419.5" y="1062.7139">unsetGlobalCallbacks() : void</text><polygon fill="#FFFF44" points="2410.5,1070.6641,2414.5,1074.6641,2410.5,1078.6641,2406.5,1074.6641" style="stroke:#B38D22;stroke-width:1.0;"/><text fill="#000000" font-family="sans-serif" font-size="14" font-style="italic" lengthAdjust="spacing" textLength="187" x="2419.5" y="1079.0107">unsetHtmlElements() : void</text><rect fill="#F24D5C" height="6" style="stroke:#C82930;stroke-width:1.0;" width="6" x="2407.5" y="1088.9609"/><text fill="#000000" font-family="sans-serif" font-size="14" lengthAdjust="spacing" textLength="155" x="2419.5" y="1095.3076">_cancelRedraw() : void</text><rect fill="#F24D5C" height="6" style="stroke:#C82930;stroke-width:1.0;" width="6" x="2407.5" y="1105.2578"/><text fill="#000000" font-family="sans-serif" font-size="14" lengthAdjust="spacing" textLength="398" x="2419.5" y="1111.6045">_getEventIndexFromArray(event: IProviderEvent) : number</text><rect fill="#F24D5C" height="6" style="stroke:#C82930;stroke-width:1.0;" width="6" x="2407.5" y="1121.5547"/><text fill="#000000" font-family="sans-serif" font-size="14" lengthAdjust="spacing" textLength="774" x="2419.5" y="1127.9014">_handleProviderEventsAPI(eventName: string, callback: Generic, addEvent: boolean, event: IProviderEvent) : void</text><rect fill="#F24D5C" height="6" style="stroke:#C82930;stroke-width:1.0;" width="6" x="2407.5" y="1137.8516"/><text fill="#000000" font-family="sans-serif" font-size="14" lengthAdjust="spacing" textLength="157" x="2419.5" y="1144.1982">_handleRedraw() : void</text></g><!--reverse link IPattern to IProviderPattern<P>--><g id="link_IPattern_IProviderPattern&lt;P&gt;"><path codeLine="33" d="M1484.5,220.16 C1484.5,239.33 1484.5,241.74 1484.5,261.79 " fill="none" id="IPattern-backto-IProviderPattern&lt;P&gt;" style="stroke:#272B30;stroke-width:1.0;"/><polygon fill="none" points="1484.5,202.16,1478.5,220.16,1490.5,220.16,1484.5,202.16" style="stroke:#272B30;stroke-width:1.0;"/></g><!--reverse link IProviderPattern<P> to IFlatpickr--><g id="link_IProviderPattern&lt;P&gt;_IFlatpickr"><path codeLine="59" d="M1211.4294,411.4616 C1024.7194,432.1416 787.97,476.81 587.5,582 C550.29,601.53 514.41,627.02 481.21,654.72 " fill="none" id="IProviderPattern&lt;P&gt;-backto-IFlatpickr" style="stroke:#272B30;stroke-width:1.0;"/><polygon fill="none" points="1229.32,409.48,1210.7689,405.498,1212.0899,417.4251,1229.32,409.48" style="stroke:#272B30;stroke-width:1.0;"/></g><!--reverse link IProviderPattern<P> to IFlatpickrMonth--><g id="link_IProviderPattern&lt;P&gt;_IFlatpickrMonth"><path codeLine="83" d="M1254.132,532.0378 C1225.422,551.2978 1211.79,561.54 1185.5,582 C1150.36,609.35 1114.62,640.16 1080.67,671.13 " fill="none" id="IProviderPattern&lt;P&gt;-backto-IFlatpickrMonth" style="stroke:#272B30;stroke-width:1.0;"/><polygon fill="none" points="1269.08,522.01,1250.7894,527.0551,1257.4746,537.0205,1269.08,522.01" style="stroke:#272B30;stroke-width:1.0;"/></g><!--reverse link IProviderPattern<P> to INoUiSlider--><g id="link_IProviderPattern&lt;P&gt;_INoUiSlider"><path codeLine="103" d="M1484.5,540.11 C1484.5,596.13 1484.5,644.34 1484.5,703.59 " fill="none" id="IProviderPattern&lt;P&gt;-backto-INoUiSlider" style="stroke:#272B30;stroke-width:1.0;"/><polygon fill="none" points="1484.5,522.11,1478.5,540.11,1490.5,540.11,1484.5,522.11" style="stroke:#272B30;stroke-width:1.0;"/></g><!--reverse link IProviderPattern<P> to IFlatpickrTime--><g id="link_IProviderPattern&lt;P&gt;_IFlatpickrTime"><path codeLine="127" d="M1714.868,532.0378 C1743.578,551.2978 1757.21,561.54 1783.5,582 C1818.64,609.35 1854.38,640.16 1888.33,671.13 " fill="none" id="IProviderPattern&lt;P&gt;-backto-IFlatpickrTime" style="stroke:#272B30;stroke-width:1.0;"/><polygon fill="none" points="1699.92,522.01,1711.5254,537.0205,1718.2106,527.0551,1699.92,522.01" style="stroke:#272B30;stroke-width:1.0;"/></g><!--reverse link IProviderPattern<P> to AbstractProviderPattern<P, C>--><g id="link_IProviderPattern&lt;P&gt;_AbstractProviderPattern&lt;P, C&gt;"><path codeLine="162" d="M1757.7055,422.5201 C1941.6555,448.3201 2174.97,494.24 2381.5,582 C2387.45,584.53 2393.41,587.15 2399.36,589.85 " fill="none" id="IProviderPattern&lt;P&gt;-backto-AbstractProviderPattern&lt;P, C&gt;" style="stroke:#272B30;stroke-width:1.0;stroke-dasharray:7.0,7.0;"/><polygon fill="none" points="1739.88,420.02,1756.8721,428.462,1758.5389,416.5783,1739.88,420.02" style="stroke:#272B30;stroke-width:1.0;"/></g><!--SRC=[xLXjRzis4FxkNq4aNnJCBfPim02Z660xJIkWReqrsr0CGq2B9vimHQeaPSzhyzzxUdD4MPAJDMktmFvWayUxuxqzTxBCYikOQXgHYQ36ZBHMcuaIIfFJYvykvZzytpCknrXf1hgRXGQhXLQ9P0LR68OLdhtZ0DYFZFQMd061ABPR4e5TAcQgf923G0gN5dH80o0d_aohDJBe6RL8bCzdFv-GZps2d- -u6ITSM38aSwK4K9cJuq82wJENuijGfTJADcSm8C8N0YAGgRPNrzFNnIu_JYJ_a83FyCnOpUKY9syuMu3T8y_HAEQT8NMjECjfmPBA1U35CMYxzU9YyOP6K0htIKdzZOe4oObSIRMHhYB6JQmCrDJ3XuGASwtyIu-pKk5PFJ0Q5jnW42TKY3dcnuCrkkZQ41HdG_BstKkGe7dWNcN0bl6RA1doXV4aR8hba52vTVcJc54BfSYBz4RZLHFYvcCdVEjMGPxzGwa_vl4-URpjLGBw_DDWq0mp9m5NWjgO1olz0FI5fSoJGs60_kgwSh6VJymodGkuf5lZLTRbPN_ysSZ-Ey1gNqGcqHnqWyW_hYFqKzO47wj5lCP09tG1tZgFufq5dPqaTlSDxQGYbFMIRWCBy_gah9rcInBPhBQLF-jflkIMKt69Io_TdzzPa6ulkcJnCXnugR_uCmLZC5O7-1_SFvjdPu7tEpmtmtogf5qUmZetRx64ZXsWkmDy6Jxp60CRRqSntp4SKVk5gCtgsulIx_UOoI6Pbikl2xySPmu6twXV-JkH2ZvWrigTq5Dyv4sdeDTT3Ir0a_SG_RPFp_yhz3mw42h5tZo8hda4npbqd4DFT0wbvUrP7dsZfxyCNJqwnxjfO4cGljaX9wDYlwUXJoQxro-dt9JdOsg0rQhcD7QCdbA92KKZZQKI4JualkDLSPw93cwesSh0bsiLKCkLp22L__yf669q85GwocHhTJ2AOy61bKL8AfLMIjVV4DsHMbl2lulY9GIh4MF0QgbkO9k1PAYua_4WskCye_v_ODmr1kIHWDedXguXqz3IihxM6CmW4NB9pNAyNqaVImJUfhY1c6eeu-LgqC0qtRGBepEZy_FtHKboC9siPMwxkLxPI1JZhsuE1cY1g9rLqRWhc1IZLqYTx5T9dr1ToNtjfKPTRT4g-T_0t1jSgIoLBIxbXo-5cbDn3wypxdQ_1pT1siJ4BmtP6DpWCq1cfYyP_7M5__17MjDjNbRrjdTMRspOKPYerTTevj-p_YbZRh7tIUkr5OlpI-lUjC-GPyyEpOZF]--></g></svg>