<?xml version="1.0" encoding="us-ascii" standalone="no"?><svg xmlns="http://www.w3.org/2000/svg" xmlns:xlink="http://www.w3.org/1999/xlink" contentStyleType="text/css" height="1174px" preserveAspectRatio="none" style="width:3206px;height:1174px;background:#CED4DA;" version="1.1" viewBox="0 0 3206 1174" width="3206px" zoomAndPan="magnify"><defs/><g><rect fill="#CED4DA" height="1174" style="stroke:none;stroke-width:1.0;" width="3206" x="0" y="0"/><!--class IProviderPattern<P>--><g id="elem_IProviderPattern&lt;P&gt;"><rect codeLine="7" fill="#FFFFFF" height="259.8594" id="IProviderPattern&lt;P&gt;" rx="2.5" ry="2.5" style="stroke:#272B30;stroke-width:0.5;" width="510" x="1229.5" y="262"/><ellipse cx="1409.75" cy="278" fill="#B4A7E5" rx="11" ry="11" style="stroke:#181818;stroke-width:1.0;"/><path d="M1405.6719,273.7656 L1405.6719,271.6094 L1413.0625,271.6094 L1413.0625,273.7656 L1410.5938,273.7656 L1410.5938,281.8438 L1413.0625,281.8438 L1413.0625,284 L1405.6719,284 L1405.6719,281.8438 L1408.1406,281.8438 L1408.1406,273.7656 L1405.6719,273.7656 Z " fill="#000000"/><text fill="#000000" font-family="sans-serif" font-size="14" font-style="italic" lengthAdjust="spacing" textLength="141" x="1430.25" y="282.8467">IProviderPattern&lt;P&gt;</text><line style="stroke:#272B30;stroke-width:0.5;" x1="1230.5" x2="1738.5" y1="294" y2="294"/><ellipse cx="1240.5" cy="307.6484" fill="none" rx="3" ry="3" style="stroke:#038048;stroke-width:1.0;"/><text fill="#000000" font-family="sans-serif" font-size="14" lengthAdjust="spacing" textLength="110" x="1249.5" y="310.9951">isBuilt : boolean</text><ellipse cx="1240.5" cy="323.9453" fill="none" rx="3" ry="3" style="stroke:#038048;stroke-width:1.0;"/><text fill="#000000" font-family="sans-serif" font-size="14" lengthAdjust="spacing" textLength="78" x="1249.5" y="327.292">provider : P</text><ellipse cx="1240.5" cy="340.2422" fill="none" rx="3" ry="3" style="stroke:#038048;stroke-width:1.0;"/><text fill="#000000" font-family="sans-serif" font-size="14" lengthAdjust="spacing" textLength="175" x="1249.5" y="343.5889">providerInfo : ProviderInfo</text><ellipse cx="1240.5" cy="356.5391" fill="none" rx="3" ry="3" style="stroke:#038048;stroke-width:1.0;"/><text fill="#000000" font-family="sans-serif" font-size="14" lengthAdjust="spacing" textLength="189" x="1249.5" y="359.8857">selfElement : HTMLElement</text><ellipse cx="1240.5" cy="372.8359" fill="none" rx="3" ry="3" style="stroke:#038048;stroke-width:1.0;"/><text fill="#000000" font-family="sans-serif" font-size="14" lengthAdjust="spacing" textLength="112" x="1249.5" y="376.1826">uniqueId : string</text><ellipse cx="1240.5" cy="389.1328" fill="none" rx="3" ry="3" style="stroke:#038048;stroke-width:1.0;"/><text fill="#000000" font-family="sans-serif" font-size="14" lengthAdjust="spacing" textLength="110" x="1249.5" y="392.4795">widgetId : string</text><line style="stroke:#272B30;stroke-width:0.5;" x1="1230.5" x2="1738.5" y1="399.7813" y2="399.7813"/><ellipse cx="1240.5" cy="413.4297" fill="#84BE84" rx="3" ry="3" style="stroke:#038048;stroke-width:1.0;"/><text fill="#000000" font-family="sans-serif" font-size="14" lengthAdjust="spacing" textLength="84" x="1249.5" y="416.7764">build() : void</text><ellipse cx="1240.5" cy="429.7266" fill="#84BE84" rx="3" ry="3" style="stroke:#038048;stroke-width:1.0;"/><text fill="#000000" font-family="sans-serif" font-size="14" lengthAdjust="spacing" textLength="484" x="1249.5" y="433.0732">changeProperty(propertyName: string, propertyValue: unknown) : void</text><ellipse cx="1240.5" cy="446.0234" fill="#84BE84" rx="3" ry="3" style="stroke:#038048;stroke-width:1.0;"/><text fill="#000000" font-family="sans-serif" font-size="14" lengthAdjust="spacing" textLength="106" x="1249.5" y="449.3701">dispose() : void</text><ellipse cx="1240.5" cy="462.3203" fill="#84BE84" rx="3" ry="3" style="stroke:#038048;stroke-width:1.0;"/><text fill="#000000" font-family="sans-serif" font-size="14" lengthAdjust="spacing" textLength="217" x="1249.5" y="465.667">equalsToID(id: string) : boolean</text><ellipse cx="1240.5" cy="478.6172" fill="#84BE84" rx="3" ry="3" style="stroke:#038048;stroke-width:1.0;"/><text fill="#000000" font-family="sans-serif" font-size="14" lengthAdjust="spacing" textLength="434" x="1249.5" y="481.9639">registerCallback(eventName: string, callback: OSGeneric) : void</text><ellipse cx="1240.5" cy="494.9141" fill="#84BE84" rx="3" ry="3" style="stroke:#038048;stroke-width:1.0;"/><text fill="#000000" font-family="sans-serif" font-size="14" lengthAdjust="spacing" textLength="295" x="1249.5" y="498.2607">setProviderConfigs(newConfigs: any) : void</text><ellipse cx="1240.5" cy="511.2109" fill="#84BE84" rx="3" ry="3" style="stroke:#038048;stroke-width:1.0;"/><text fill="#000000" font-family="sans-serif" font-size="14" lengthAdjust="spacing" textLength="374" x="1249.5" y="514.5576">updateProviderEvents(providerInfo: ProviderInfo) : void</text></g><!--class IPattern--><g id="elem_IPattern"><rect codeLine="22" fill="#FFFFFF" height="194.6719" id="IPattern" rx="2.5" ry="2.5" style="stroke:#272B30;stroke-width:0.5;" width="510" x="1229.5" y="7"/><ellipse cx="1453.75" cy="23" fill="#B4A7E5" rx="11" ry="11" style="stroke:#181818;stroke-width:1.0;"/><path d="M1449.6719,18.7656 L1449.6719,16.6094 L1457.0625,16.6094 L1457.0625,18.7656 L1454.5938,18.7656 L1454.5938,26.8438 L1457.0625,26.8438 L1457.0625,29 L1449.6719,29 L1449.6719,26.8438 L1452.1406,26.8438 L1452.1406,18.7656 L1449.6719,18.7656 Z " fill="#000000"/><text fill="#000000" font-family="sans-serif" font-size="14" font-style="italic" lengthAdjust="spacing" textLength="53" x="1474.25" y="27.8467">IPattern</text><line style="stroke:#272B30;stroke-width:0.5;" x1="1230.5" x2="1738.5" y1="39" y2="39"/><ellipse cx="1240.5" cy="52.6484" fill="none" rx="3" ry="3" style="stroke:#038048;stroke-width:1.0;"/><text fill="#000000" font-family="sans-serif" font-size="14" lengthAdjust="spacing" textLength="110" x="1249.5" y="55.9951">isBuilt : boolean</text><ellipse cx="1240.5" cy="68.9453" fill="none" rx="3" ry="3" style="stroke:#038048;stroke-width:1.0;"/><text fill="#000000" font-family="sans-serif" font-size="14" lengthAdjust="spacing" textLength="189" x="1249.5" y="72.292">selfElement : HTMLElement</text><ellipse cx="1240.5" cy="85.2422" fill="none" rx="3" ry="3" style="stroke:#038048;stroke-width:1.0;"/><text fill="#000000" font-family="sans-serif" font-size="14" lengthAdjust="spacing" textLength="112" x="1249.5" y="88.5889">uniqueId : string</text><ellipse cx="1240.5" cy="101.5391" fill="none" rx="3" ry="3" style="stroke:#038048;stroke-width:1.0;"/><text fill="#000000" font-family="sans-serif" font-size="14" lengthAdjust="spacing" textLength="110" x="1249.5" y="104.8857">widgetId : string</text><line style="stroke:#272B30;stroke-width:0.5;" x1="1230.5" x2="1738.5" y1="112.1875" y2="112.1875"/><ellipse cx="1240.5" cy="125.8359" fill="#84BE84" rx="3" ry="3" style="stroke:#038048;stroke-width:1.0;"/><text fill="#000000" font-family="sans-serif" font-size="14" lengthAdjust="spacing" textLength="84" x="1249.5" y="129.1826">build() : void</text><ellipse cx="1240.5" cy="142.1328" fill="#84BE84" rx="3" ry="3" style="stroke:#038048;stroke-width:1.0;"/><text fill="#000000" font-family="sans-serif" font-size="14" lengthAdjust="spacing" textLength="484" x="1249.5" y="145.4795">changeProperty(propertyName: string, propertyValue: unknown) : void</text><ellipse cx="1240.5" cy="158.4297" fill="#84BE84" rx="3" ry="3" style="stroke:#038048;stroke-width:1.0;"/><text fill="#000000" font-family="sans-serif" font-size="14" lengthAdjust="spacing" textLength="106" x="1249.5" y="161.7764">dispose() : void</text><ellipse cx="1240.5" cy="174.7266" fill="#84BE84" rx="3" ry="3" style="stroke:#038048;stroke-width:1.0;"/><text fill="#000000" font-family="sans-serif" font-size="14" lengthAdjust="spacing" textLength="217" x="1249.5" y="178.0732">equalsToID(id: string) : boolean</text><ellipse cx="1240.5" cy="191.0234" fill="#84BE84" rx="3" ry="3" style="stroke:#038048;stroke-width:1.0;"/><text fill="#000000" font-family="sans-serif" font-size="14" lengthAdjust="spacing" textLength="434" x="1249.5" y="194.3701">registerCallback(eventName: string, callback: OSGeneric) : void</text></g><!--class IFlatpickr--><g id="elem_IFlatpickr"><rect codeLine="34" fill="#FFFFFF" height="422.8281" id="IFlatpickr" rx="2.5" ry="2.5" style="stroke:#272B30;stroke-width:0.5;" width="563" x="7" y="663.5"/><ellipse cx="253.75" cy="679.5" fill="#B4A7E5" rx="11" ry="11" style="stroke:#181818;stroke-width:1.0;"/><path d="M249.6719,675.2656 L249.6719,673.1094 L257.0625,673.1094 L257.0625,675.2656 L254.5938,675.2656 L254.5938,683.3438 L257.0625,683.3438 L257.0625,685.5 L249.6719,685.5 L249.6719,683.3438 L252.1406,683.3438 L252.1406,675.2656 L249.6719,675.2656 Z " fill="#000000"/><text fill="#000000" font-family="sans-serif" font-size="14" font-style="italic" lengthAdjust="spacing" textLength="61" x="274.25" y="684.3467">IFlatpickr</text><line style="stroke:#272B30;stroke-width:0.5;" x1="8" x2="569" y1="695.5" y2="695.5"/><ellipse cx="18" cy="709.1484" fill="none" rx="3" ry="3" style="stroke:#038048;stroke-width:1.0;"/><text fill="#000000" font-family="sans-serif" font-size="14" lengthAdjust="spacing" textLength="110" x="27" y="712.4951">isBuilt : boolean</text><ellipse cx="18" cy="725.4453" fill="none" rx="3" ry="3" style="stroke:#038048;stroke-width:1.0;"/><text fill="#000000" font-family="sans-serif" font-size="14" lengthAdjust="spacing" textLength="122" x="27" y="728.792">provider : flatpickr</text><ellipse cx="18" cy="741.7422" fill="none" rx="3" ry="3" style="stroke:#038048;stroke-width:1.0;"/><text fill="#000000" font-family="sans-serif" font-size="14" lengthAdjust="spacing" textLength="175" x="27" y="745.0889">providerInfo : ProviderInfo</text><ellipse cx="18" cy="758.0391" fill="none" rx="3" ry="3" style="stroke:#038048;stroke-width:1.0;"/><text fill="#000000" font-family="sans-serif" font-size="14" lengthAdjust="spacing" textLength="189" x="27" y="761.3857">selfElement : HTMLElement</text><ellipse cx="18" cy="774.3359" fill="none" rx="3" ry="3" style="stroke:#038048;stroke-width:1.0;"/><text fill="#000000" font-family="sans-serif" font-size="14" lengthAdjust="spacing" textLength="112" x="27" y="777.6826">uniqueId : string</text><ellipse cx="18" cy="790.6328" fill="none" rx="3" ry="3" style="stroke:#038048;stroke-width:1.0;"/><text fill="#000000" font-family="sans-serif" font-size="14" lengthAdjust="spacing" textLength="110" x="27" y="793.9795">widgetId : string</text><line style="stroke:#272B30;stroke-width:0.5;" x1="8" x2="569" y1="801.2813" y2="801.2813"/><ellipse cx="18" cy="814.9297" fill="#84BE84" rx="3" ry="3" style="stroke:#038048;stroke-width:1.0;"/><text fill="#000000" font-family="sans-serif" font-size="14" lengthAdjust="spacing" textLength="84" x="27" y="818.2764">build() : void</text><ellipse cx="18" cy="831.2266" fill="#84BE84" rx="3" ry="3" style="stroke:#038048;stroke-width:1.0;"/><text fill="#000000" font-family="sans-serif" font-size="14" lengthAdjust="spacing" textLength="484" x="27" y="834.5732">changeProperty(propertyName: string, propertyValue: unknown) : void</text><ellipse cx="18" cy="847.5234" fill="#84BE84" rx="3" ry="3" style="stroke:#038048;stroke-width:1.0;"/><text fill="#000000" font-family="sans-serif" font-size="14" lengthAdjust="spacing" textLength="84" x="27" y="850.8701">clear() : void</text><ellipse cx="18" cy="863.8203" fill="#84BE84" rx="3" ry="3" style="stroke:#038048;stroke-width:1.0;"/><text fill="#000000" font-family="sans-serif" font-size="14" lengthAdjust="spacing" textLength="88" x="27" y="867.167">close() : void</text><ellipse cx="18" cy="880.1172" fill="#84BE84" rx="3" ry="3" style="stroke:#038048;stroke-width:1.0;"/><text fill="#000000" font-family="sans-serif" font-size="14" lengthAdjust="spacing" textLength="275" x="27" y="883.4639">disableDays(disableDays: string[]) : void</text><ellipse cx="18" cy="896.4141" fill="#84BE84" rx="3" ry="3" style="stroke:#038048;stroke-width:1.0;"/><text fill="#000000" font-family="sans-serif" font-size="14" lengthAdjust="spacing" textLength="329" x="27" y="899.7607">disableWeekDays(disableDays: number[]) : void</text><ellipse cx="18" cy="912.7109" fill="#84BE84" rx="3" ry="3" style="stroke:#038048;stroke-width:1.0;"/><text fill="#000000" font-family="sans-serif" font-size="14" lengthAdjust="spacing" textLength="106" x="27" y="916.0576">dispose() : void</text><ellipse cx="18" cy="929.0078" fill="#84BE84" rx="3" ry="3" style="stroke:#038048;stroke-width:1.0;"/><text fill="#000000" font-family="sans-serif" font-size="14" lengthAdjust="spacing" textLength="217" x="27" y="932.3545">equalsToID(id: string) : boolean</text><ellipse cx="18" cy="945.3047" fill="#84BE84" rx="3" ry="3" style="stroke:#038048;stroke-width:1.0;"/><text fill="#000000" font-family="sans-serif" font-size="14" lengthAdjust="spacing" textLength="87" x="27" y="948.6514">open() : void</text><ellipse cx="18" cy="961.6016" fill="#84BE84" rx="3" ry="3" style="stroke:#038048;stroke-width:1.0;"/><text fill="#000000" font-family="sans-serif" font-size="14" lengthAdjust="spacing" textLength="434" x="27" y="964.9482">registerCallback(eventName: string, callback: OSGeneric) : void</text><ellipse cx="18" cy="977.8984" fill="#84BE84" rx="3" ry="3" style="stroke:#038048;stroke-width:1.0;"/><text fill="#000000" font-family="sans-serif" font-size="14" lengthAdjust="spacing" textLength="225" x="27" y="981.2451">setLanguage(value: string) : void</text><ellipse cx="18" cy="994.1953" fill="#84BE84" rx="3" ry="3" style="stroke:#038048;stroke-width:1.0;"/><text fill="#000000" font-family="sans-serif" font-size="14" lengthAdjust="spacing" textLength="322" x="27" y="997.542">setProviderConfigs(providerConfigs: any) : void</text><ellipse cx="18" cy="1010.4922" fill="#84BE84" rx="3" ry="3" style="stroke:#038048;stroke-width:1.0;"/><text fill="#000000" font-family="sans-serif" font-size="14" lengthAdjust="spacing" textLength="537" x="27" y="1013.8389">setProviderEvent(eventName: string, callback: Generic, uniqueId: string) : void</text><ellipse cx="18" cy="1026.7891" fill="#84BE84" rx="3" ry="3" style="stroke:#038048;stroke-width:1.0;"/><text fill="#000000" font-family="sans-serif" font-size="14" lengthAdjust="spacing" textLength="285" x="27" y="1030.1357">unsetProviderEvent(eventId: string) : void</text><ellipse cx="18" cy="1043.0859" fill="#84BE84" rx="3" ry="3" style="stroke:#038048;stroke-width:1.0;"/><text fill="#000000" font-family="sans-serif" font-size="14" lengthAdjust="spacing" textLength="351" x="27" y="1046.4326">updateInitialDate(date1: string, date2: string) : void</text><ellipse cx="18" cy="1059.3828" fill="#84BE84" rx="3" ry="3" style="stroke:#038048;stroke-width:1.0;"/><text fill="#000000" font-family="sans-serif" font-size="14" lengthAdjust="spacing" textLength="311" x="27" y="1062.7295">updatePrompt(promptMessage: string) : void</text><ellipse cx="18" cy="1075.6797" fill="#84BE84" rx="3" ry="3" style="stroke:#038048;stroke-width:1.0;"/><text fill="#000000" font-family="sans-serif" font-size="14" lengthAdjust="spacing" textLength="374" x="27" y="1079.0264">updateProviderEvents(providerInfo: ProviderInfo) : void</text></g><!--class IFlatpickrMonth--><g id="elem_IFlatpickrMonth"><rect codeLine="60" fill="#FFFFFF" height="390.2344" id="IFlatpickrMonth" rx="2.5" ry="2.5" style="stroke:#272B30;stroke-width:0.5;" width="563" x="605" y="680"/><ellipse cx="829.75" cy="696" fill="#B4A7E5" rx="11" ry="11" style="stroke:#181818;stroke-width:1.0;"/><path d="M825.6719,691.7656 L825.6719,689.6094 L833.0625,689.6094 L833.0625,691.7656 L830.5938,691.7656 L830.5938,699.8438 L833.0625,699.8438 L833.0625,702 L825.6719,702 L825.6719,699.8438 L828.1406,699.8438 L828.1406,691.7656 L825.6719,691.7656 Z " fill="#000000"/><text fill="#000000" font-family="sans-serif" font-size="14" font-style="italic" lengthAdjust="spacing" textLength="105" x="850.25" y="700.8467">IFlatpickrMonth</text><line style="stroke:#272B30;stroke-width:0.5;" x1="606" x2="1167" y1="712" y2="712"/><ellipse cx="616" cy="725.6484" fill="none" rx="3" ry="3" style="stroke:#038048;stroke-width:1.0;"/><text fill="#000000" font-family="sans-serif" font-size="14" lengthAdjust="spacing" textLength="110" x="625" y="728.9951">isBuilt : boolean</text><ellipse cx="616" cy="741.9453" fill="none" rx="3" ry="3" style="stroke:#038048;stroke-width:1.0;"/><text fill="#000000" font-family="sans-serif" font-size="14" lengthAdjust="spacing" textLength="118" x="625" y="745.292">isOpen : boolean</text><ellipse cx="616" cy="758.2422" fill="none" rx="3" ry="3" style="stroke:#038048;stroke-width:1.0;"/><text fill="#000000" font-family="sans-serif" font-size="14" lengthAdjust="spacing" textLength="122" x="625" y="761.5889">provider : flatpickr</text><ellipse cx="616" cy="774.5391" fill="none" rx="3" ry="3" style="stroke:#038048;stroke-width:1.0;"/><text fill="#000000" font-family="sans-serif" font-size="14" lengthAdjust="spacing" textLength="175" x="625" y="777.8857">providerInfo : ProviderInfo</text><ellipse cx="616" cy="790.8359" fill="none" rx="3" ry="3" style="stroke:#038048;stroke-width:1.0;"/><text fill="#000000" font-family="sans-serif" font-size="14" lengthAdjust="spacing" textLength="189" x="625" y="794.1826">selfElement : HTMLElement</text><ellipse cx="616" cy="807.1328" fill="none" rx="3" ry="3" style="stroke:#038048;stroke-width:1.0;"/><text fill="#000000" font-family="sans-serif" font-size="14" lengthAdjust="spacing" textLength="112" x="625" y="810.4795">uniqueId : string</text><ellipse cx="616" cy="823.4297" fill="none" rx="3" ry="3" style="stroke:#038048;stroke-width:1.0;"/><text fill="#000000" font-family="sans-serif" font-size="14" lengthAdjust="spacing" textLength="110" x="625" y="826.7764">widgetId : string</text><line style="stroke:#272B30;stroke-width:0.5;" x1="606" x2="1167" y1="834.0781" y2="834.0781"/><ellipse cx="616" cy="847.7266" fill="#84BE84" rx="3" ry="3" style="stroke:#038048;stroke-width:1.0;"/><text fill="#000000" font-family="sans-serif" font-size="14" lengthAdjust="spacing" textLength="84" x="625" y="851.0732">build() : void</text><ellipse cx="616" cy="864.0234" fill="#84BE84" rx="3" ry="3" style="stroke:#038048;stroke-width:1.0;"/><text fill="#000000" font-family="sans-serif" font-size="14" lengthAdjust="spacing" textLength="484" x="625" y="867.3701">changeProperty(propertyName: string, propertyValue: unknown) : void</text><ellipse cx="616" cy="880.3203" fill="#84BE84" rx="3" ry="3" style="stroke:#038048;stroke-width:1.0;"/><text fill="#000000" font-family="sans-serif" font-size="14" lengthAdjust="spacing" textLength="84" x="625" y="883.667">clear() : void</text><ellipse cx="616" cy="896.6172" fill="#84BE84" rx="3" ry="3" style="stroke:#038048;stroke-width:1.0;"/><text fill="#000000" font-family="sans-serif" font-size="14" lengthAdjust="spacing" textLength="88" x="625" y="899.9639">close() : void</text><ellipse cx="616" cy="912.9141" fill="#84BE84" rx="3" ry="3" style="stroke:#038048;stroke-width:1.0;"/><text fill="#000000" font-family="sans-serif" font-size="14" lengthAdjust="spacing" textLength="106" x="625" y="916.2607">dispose() : void</text><ellipse cx="616" cy="929.2109" fill="#84BE84" rx="3" ry="3" style="stroke:#038048;stroke-width:1.0;"/><text fill="#000000" font-family="sans-serif" font-size="14" lengthAdjust="spacing" textLength="217" x="625" y="932.5576">equalsToID(id: string) : boolean</text><ellipse cx="616" cy="945.5078" fill="#84BE84" rx="3" ry="3" style="stroke:#038048;stroke-width:1.0;"/><text fill="#000000" font-family="sans-serif" font-size="14" lengthAdjust="spacing" textLength="257" x="625" y="948.8545">open(isOpenedByApi: boolean) : void</text><ellipse cx="616" cy="961.8047" fill="#84BE84" rx="3" ry="3" style="stroke:#038048;stroke-width:1.0;"/><text fill="#000000" font-family="sans-serif" font-size="14" lengthAdjust="spacing" textLength="434" x="625" y="965.1514">registerCallback(eventName: string, callback: OSGeneric) : void</text><ellipse cx="616" cy="978.1016" fill="#84BE84" rx="3" ry="3" style="stroke:#038048;stroke-width:1.0;"/><text fill="#000000" font-family="sans-serif" font-size="14" lengthAdjust="spacing" textLength="225" x="625" y="981.4482">setLanguage(value: string) : void</text><ellipse cx="616" cy="994.3984" fill="#84BE84" rx="3" ry="3" style="stroke:#038048;stroke-width:1.0;"/><text fill="#000000" font-family="sans-serif" font-size="14" lengthAdjust="spacing" textLength="322" x="625" y="997.7451">setProviderConfigs(providerConfigs: any) : void</text><ellipse cx="616" cy="1010.6953" fill="#84BE84" rx="3" ry="3" style="stroke:#038048;stroke-width:1.0;"/><text fill="#000000" font-family="sans-serif" font-size="14" lengthAdjust="spacing" textLength="537" x="625" y="1014.042">setProviderEvent(eventName: string, callback: Generic, uniqueId: string) : void</text><ellipse cx="616" cy="1026.9922" fill="#84BE84" rx="3" ry="3" style="stroke:#038048;stroke-width:1.0;"/><text fill="#000000" font-family="sans-serif" font-size="14" lengthAdjust="spacing" textLength="285" x="625" y="1030.3389">unsetProviderEvent(eventId: string) : void</text><ellipse cx="616" cy="1043.2891" fill="#84BE84" rx="3" ry="3" style="stroke:#038048;stroke-width:1.0;"/><text fill="#000000" font-family="sans-serif" font-size="14" lengthAdjust="spacing" textLength="338" x="625" y="1046.6357">updateInitialMonth(monthYear: MonthYear) : void</text><ellipse cx="616" cy="1059.5859" fill="#84BE84" rx="3" ry="3" style="stroke:#038048;stroke-width:1.0;"/><text fill="#000000" font-family="sans-serif" font-size="14" lengthAdjust="spacing" textLength="374" x="625" y="1062.9326">updateProviderEvents(providerInfo: ProviderInfo) : void</text></g><!--class INoUiSlider--><g id="elem_INoUiSlider"><rect codeLine="84" fill="#FFFFFF" height="325.0469" id="INoUiSlider" rx="2.5" ry="2.5" style="stroke:#272B30;stroke-width:0.5;" width="563" x="1203" y="712.5"/><ellipse cx="1442.75" cy="728.5" fill="#B4A7E5" rx="11" ry="11" style="stroke:#181818;stroke-width:1.0;"/><path d="M1438.6719,724.2656 L1438.6719,722.1094 L1446.0625,722.1094 L1446.0625,724.2656 L1443.5938,724.2656 L1443.5938,732.3438 L1446.0625,732.3438 L1446.0625,734.5 L1438.6719,734.5 L1438.6719,732.3438 L1441.1406,732.3438 L1441.1406,724.2656 L1438.6719,724.2656 Z " fill="#000000"/><text fill="#000000" font-family="sans-serif" font-size="14" font-style="italic" lengthAdjust="spacing" textLength="75" x="1463.25" y="733.3467">INoUiSlider</text><line style="stroke:#272B30;stroke-width:0.5;" x1="1204" x2="1765" y1="744.5" y2="744.5"/><ellipse cx="1214" cy="758.1484" fill="none" rx="3" ry="3" style="stroke:#038048;stroke-width:1.0;"/><text fill="#000000" font-family="sans-serif" font-size="14" lengthAdjust="spacing" textLength="110" x="1223" y="761.4951">isBuilt : boolean</text><ellipse cx="1214" cy="774.4453" fill="none" rx="3" ry="3" style="stroke:#038048;stroke-width:1.0;"/><text fill="#000000" font-family="sans-serif" font-size="14" lengthAdjust="spacing" textLength="138" x="1223" y="777.792">provider : noUiSlider</text><ellipse cx="1214" cy="790.7422" fill="none" rx="3" ry="3" style="stroke:#038048;stroke-width:1.0;"/><text fill="#000000" font-family="sans-serif" font-size="14" lengthAdjust="spacing" textLength="175" x="1223" y="794.0889">providerInfo : ProviderInfo</text><ellipse cx="1214" cy="807.0391" fill="none" rx="3" ry="3" style="stroke:#038048;stroke-width:1.0;"/><text fill="#000000" font-family="sans-serif" font-size="14" lengthAdjust="spacing" textLength="189" x="1223" y="810.3857">selfElement : HTMLElement</text><ellipse cx="1214" cy="823.3359" fill="none" rx="3" ry="3" style="stroke:#038048;stroke-width:1.0;"/><text fill="#000000" font-family="sans-serif" font-size="14" lengthAdjust="spacing" textLength="112" x="1223" y="826.6826">uniqueId : string</text><ellipse cx="1214" cy="839.6328" fill="none" rx="3" ry="3" style="stroke:#038048;stroke-width:1.0;"/><text fill="#000000" font-family="sans-serif" font-size="14" lengthAdjust="spacing" textLength="110" x="1223" y="842.9795">widgetId : string</text><line style="stroke:#272B30;stroke-width:0.5;" x1="1204" x2="1765" y1="850.2813" y2="850.2813"/><ellipse cx="1214" cy="863.9297" fill="#84BE84" rx="3" ry="3" style="stroke:#038048;stroke-width:1.0;"/><text fill="#000000" font-family="sans-serif" font-size="14" lengthAdjust="spacing" textLength="84" x="1223" y="867.2764">build() : void</text><ellipse cx="1214" cy="880.2266" fill="#84BE84" rx="3" ry="3" style="stroke:#038048;stroke-width:1.0;"/><text fill="#000000" font-family="sans-serif" font-size="14" lengthAdjust="spacing" textLength="484" x="1223" y="883.5732">changeProperty(propertyName: string, propertyValue: unknown) : void</text><ellipse cx="1214" cy="896.5234" fill="#84BE84" rx="3" ry="3" style="stroke:#038048;stroke-width:1.0;"/><text fill="#000000" font-family="sans-serif" font-size="14" lengthAdjust="spacing" textLength="208" x="1223" y="899.8701">disable(uniqueId: string) : void</text><ellipse cx="1214" cy="912.8203" fill="#84BE84" rx="3" ry="3" style="stroke:#038048;stroke-width:1.0;"/><text fill="#000000" font-family="sans-serif" font-size="14" lengthAdjust="spacing" textLength="106" x="1223" y="916.167">dispose() : void</text><ellipse cx="1214" cy="929.1172" fill="#84BE84" rx="3" ry="3" style="stroke:#038048;stroke-width:1.0;"/><text fill="#000000" font-family="sans-serif" font-size="14" lengthAdjust="spacing" textLength="206" x="1223" y="932.4639">enable(uniqueId: string) : void</text><ellipse cx="1214" cy="945.4141" fill="#84BE84" rx="3" ry="3" style="stroke:#038048;stroke-width:1.0;"/><text fill="#000000" font-family="sans-serif" font-size="14" lengthAdjust="spacing" textLength="217" x="1223" y="948.7607">equalsToID(id: string) : boolean</text><ellipse cx="1214" cy="961.7109" fill="#84BE84" rx="3" ry="3" style="stroke:#038048;stroke-width:1.0;"/><text fill="#000000" font-family="sans-serif" font-size="14" lengthAdjust="spacing" textLength="434" x="1223" y="965.0576">registerCallback(eventName: string, callback: OSGeneric) : void</text><ellipse cx="1214" cy="978.0078" fill="#84BE84" rx="3" ry="3" style="stroke:#038048;stroke-width:1.0;"/><text fill="#000000" font-family="sans-serif" font-size="14" lengthAdjust="spacing" textLength="322" x="1223" y="981.3545">setProviderConfigs(providerConfigs: any) : void</text><ellipse cx="1214" cy="994.3047" fill="#84BE84" rx="3" ry="3" style="stroke:#038048;stroke-width:1.0;"/><text fill="#000000" font-family="sans-serif" font-size="14" lengthAdjust="spacing" textLength="537" x="1223" y="997.6514">setProviderEvent(eventName: string, callback: Generic, uniqueId: string) : void</text><ellipse cx="1214" cy="1010.6016" fill="#84BE84" rx="3" ry="3" style="stroke:#038048;stroke-width:1.0;"/><text fill="#000000" font-family="sans-serif" font-size="14" lengthAdjust="spacing" textLength="285" x="1223" y="1013.9482">unsetProviderEvent(eventId: string) : void</text><ellipse cx="1214" cy="1026.8984" fill="#84BE84" rx="3" ry="3" style="stroke:#038048;stroke-width:1.0;"/><text fill="#000000" font-family="sans-serif" font-size="14" lengthAdjust="spacing" textLength="374" x="1223" y="1030.2451">updateProviderEvents(providerInfo: ProviderInfo) : void</text></g><!--class IFlatpickrTime--><g id="elem_IFlatpickrTime"><rect codeLine="104" fill="#FFFFFF" height="390.2344" id="IFlatpickrTime" rx="2.5" ry="2.5" style="stroke:#272B30;stroke-width:0.5;" width="563" x="1801" y="680"/><ellipse cx="2030.75" cy="696" fill="#B4A7E5" rx="11" ry="11" style="stroke:#181818;stroke-width:1.0;"/><path d="M2026.6719,691.7656 L2026.6719,689.6094 L2034.0625,689.6094 L2034.0625,691.7656 L2031.5938,691.7656 L2031.5938,699.8438 L2034.0625,699.8438 L2034.0625,702 L2026.6719,702 L2026.6719,699.8438 L2029.1406,699.8438 L2029.1406,691.7656 L2026.6719,691.7656 Z " fill="#000000"/><text fill="#000000" font-family="sans-serif" font-size="14" font-style="italic" lengthAdjust="spacing" textLength="95" x="2051.25" y="700.8467">IFlatpickrTime</text><line style="stroke:#272B30;stroke-width:0.5;" x1="1802" x2="2363" y1="712" y2="712"/><ellipse cx="1812" cy="725.6484" fill="none" rx="3" ry="3" style="stroke:#038048;stroke-width:1.0;"/><text fill="#000000" font-family="sans-serif" font-size="14" lengthAdjust="spacing" textLength="110" x="1821" y="728.9951">isBuilt : boolean</text><ellipse cx="1812" cy="741.9453" fill="none" rx="3" ry="3" style="stroke:#038048;stroke-width:1.0;"/><text fill="#000000" font-family="sans-serif" font-size="14" lengthAdjust="spacing" textLength="118" x="1821" y="745.292">isOpen : boolean</text><ellipse cx="1812" cy="758.2422" fill="none" rx="3" ry="3" style="stroke:#038048;stroke-width:1.0;"/><text fill="#000000" font-family="sans-serif" font-size="14" lengthAdjust="spacing" textLength="122" x="1821" y="761.5889">provider : flatpickr</text><ellipse cx="1812" cy="774.5391" fill="none" rx="3" ry="3" style="stroke:#038048;stroke-width:1.0;"/><text fill="#000000" font-family="sans-serif" font-size="14" lengthAdjust="spacing" textLength="175" x="1821" y="777.8857">providerInfo : ProviderInfo</text><ellipse cx="1812" cy="790.8359" fill="none" rx="3" ry="3" style="stroke:#038048;stroke-width:1.0;"/><text fill="#000000" font-family="sans-serif" font-size="14" lengthAdjust="spacing" textLength="189" x="1821" y="794.1826">selfElement : HTMLElement</text><ellipse cx="1812" cy="807.1328" fill="none" rx="3" ry="3" style="stroke:#038048;stroke-width:1.0;"/><text fill="#000000" font-family="sans-serif" font-size="14" lengthAdjust="spacing" textLength="112" x="1821" y="810.4795">uniqueId : string</text><ellipse cx="1812" cy="823.4297" fill="none" rx="3" ry="3" style="stroke:#038048;stroke-width:1.0;"/><text fill="#000000" font-family="sans-serif" font-size="14" lengthAdjust="spacing" textLength="110" x="1821" y="826.7764">widgetId : string</text><line style="stroke:#272B30;stroke-width:0.5;" x1="1802" x2="2363" y1="834.0781" y2="834.0781"/><ellipse cx="1812" cy="847.7266" fill="#84BE84" rx="3" ry="3" style="stroke:#038048;stroke-width:1.0;"/><text fill="#000000" font-family="sans-serif" font-size="14" lengthAdjust="spacing" textLength="84" x="1821" y="851.0732">build() : void</text><ellipse cx="1812" cy="864.0234" fill="#84BE84" rx="3" ry="3" style="stroke:#038048;stroke-width:1.0;"/><text fill="#000000" font-family="sans-serif" font-size="14" lengthAdjust="spacing" textLength="484" x="1821" y="867.3701">changeProperty(propertyName: string, propertyValue: unknown) : void</text><ellipse cx="1812" cy="880.3203" fill="#84BE84" rx="3" ry="3" style="stroke:#038048;stroke-width:1.0;"/><text fill="#000000" font-family="sans-serif" font-size="14" lengthAdjust="spacing" textLength="84" x="1821" y="883.667">clear() : void</text><ellipse cx="1812" cy="896.6172" fill="#84BE84" rx="3" ry="3" style="stroke:#038048;stroke-width:1.0;"/><text fill="#000000" font-family="sans-serif" font-size="14" lengthAdjust="spacing" textLength="88" x="1821" y="899.9639">close() : void</text><ellipse cx="1812" cy="912.9141" fill="#84BE84" rx="3" ry="3" style="stroke:#038048;stroke-width:1.0;"/><text fill="#000000" font-family="sans-serif" font-size="14" lengthAdjust="spacing" textLength="106" x="1821" y="916.2607">dispose() : void</text><ellipse cx="1812" cy="929.2109" fill="#84BE84" rx="3" ry="3" style="stroke:#038048;stroke-width:1.0;"/><text fill="#000000" font-family="sans-serif" font-size="14" lengthAdjust="spacing" textLength="217" x="1821" y="932.5576">equalsToID(id: string) : boolean</text><ellipse cx="1812" cy="945.5078" fill="#84BE84" rx="3" ry="3" style="stroke:#038048;stroke-width:1.0;"/><text fill="#000000" font-family="sans-serif" font-size="14" lengthAdjust="spacing" textLength="257" x="1821" y="948.8545">open(isOpenedByApi: boolean) : void</text><ellipse cx="1812" cy="961.8047" fill="#84BE84" rx="3" ry="3" style="stroke:#038048;stroke-width:1.0;"/><text fill="#000000" font-family="sans-serif" font-size="14" lengthAdjust="spacing" textLength="434" x="1821" y="965.1514">registerCallback(eventName: string, callback: OSGeneric) : void</text><ellipse cx="1812" cy="978.1016" fill="#84BE84" rx="3" ry="3" style="stroke:#038048;stroke-width:1.0;"/><text fill="#000000" font-family="sans-serif" font-size="14" lengthAdjust="spacing" textLength="225" x="1821" y="981.4482">setLanguage(value: string) : void</text><ellipse cx="1812" cy="994.3984" fill="#84BE84" rx="3" ry="3" style="stroke:#038048;stroke-width:1.0;"/><text fill="#000000" font-family="sans-serif" font-size="14" lengthAdjust="spacing" textLength="322" x="1821" y="997.7451">setProviderConfigs(providerConfigs: any) : void</text><ellipse cx="1812" cy="1010.6953" fill="#84BE84" rx="3" ry="3" style="stroke:#038048;stroke-width:1.0;"/><text fill="#000000" font-family="sans-serif" font-size="14" lengthAdjust="spacing" textLength="537" x="1821" y="1014.042">setProviderEvent(eventName: string, callback: Generic, uniqueId: string) : void</text><ellipse cx="1812" cy="1026.9922" fill="#84BE84" rx="3" ry="3" style="stroke:#038048;stroke-width:1.0;"/><text fill="#000000" font-family="sans-serif" font-size="14" lengthAdjust="spacing" textLength="285" x="1821" y="1030.3389">unsetProviderEvent(eventId: string) : void</text><ellipse cx="1812" cy="1043.2891" fill="#84BE84" rx="3" ry="3" style="stroke:#038048;stroke-width:1.0;"/><text fill="#000000" font-family="sans-serif" font-size="14" lengthAdjust="spacing" textLength="246" x="1821" y="1046.6357">updateInitialTime(time: string) : void</text><ellipse cx="1812" cy="1059.5859" fill="#84BE84" rx="3" ry="3" style="stroke:#038048;stroke-width:1.0;"/><text fill="#000000" font-family="sans-serif" font-size="14" lengthAdjust="spacing" textLength="374" x="1821" y="1062.9326">updateProviderEvents(providerInfo: ProviderInfo) : void</text></g><!--class AbstractProviderPattern<P, C>--><g id="elem_AbstractProviderPattern&lt;P, C&gt;"><rect codeLine="128" fill="#FFFFFF" height="585.7969" id="AbstractProviderPattern&lt;P, C&gt;" rx="2.5" ry="2.5" style="stroke:#272B30;stroke-width:0.5;" width="800" x="2399.5" y="582"/><ellipse cx="2689.25" cy="598" fill="#A9DCDF" rx="11" ry="11" style="stroke:#181818;stroke-width:1.0;"/><path d="M2689.3594,593.3438 L2688.2031,598.4219 L2690.5313,598.4219 L2689.3594,593.3438 Z M2687.875,591.1094 L2690.8594,591.1094 L2694.2188,603.5 L2691.7656,603.5 L2691,600.4375 L2687.7188,600.4375 L2686.9688,603.5 L2684.5313,603.5 L2687.875,591.1094 Z " fill="#000000"/><text fill="#000000" font-family="sans-serif" font-size="14" font-style="italic" lengthAdjust="spacing" textLength="212" x="2709.75" y="602.8467">AbstractProviderPattern&lt;P, C&gt;</text><line style="stroke:#272B30;stroke-width:0.5;" x1="2400.5" x2="3198.5" y1="614" y2="614"/><polygon fill="none" points="2410.5,622.6484,2414.5,626.6484,2410.5,630.6484,2406.5,626.6484" style="stroke:#B38D22;stroke-width:1.0;"/><text fill="#000000" font-family="sans-serif" font-size="14" lengthAdjust="spacing" textLength="180" x="2419.5" y="630.9951">isProviderBased : boolean</text><polygon fill="none" points="2410.5,638.9453,2414.5,642.9453,2410.5,646.9453,2406.5,642.9453" style="stroke:#B38D22;stroke-width:1.0;"/><text fill="#000000" font-family="sans-serif" font-size="14" lengthAdjust="spacing" textLength="393" x="2419.5" y="647.292">providerEventsManagerInstance : IProviderEventManager</text><rect fill="none" height="6" style="stroke:#C82930;stroke-width:1.0;" width="6" x="2407.5" y="657.2422"/><text fill="#000000" font-family="sans-serif" font-size="14" lengthAdjust="spacing" textLength="196" x="2419.5" y="663.5889">_asyncInvocationId : number</text><rect fill="none" height="6" style="stroke:#C82930;stroke-width:1.0;" width="6" x="2407.5" y="673.5391"/><text fill="#000000" font-family="sans-serif" font-size="14" lengthAdjust="spacing" textLength="405" x="2419.5" y="679.8857">_platformEventProviderConfigsAppliedCallback : OSGeneric</text><rect fill="none" height="6" style="stroke:#C82930;stroke-width:1.0;" width="6" x="2407.5" y="689.8359"/><text fill="#000000" font-family="sans-serif" font-size="14" lengthAdjust="spacing" textLength="85" x="2419.5" y="696.1826">_provider : P</text><rect fill="none" height="6" style="stroke:#C82930;stroke-width:1.0;" width="6" x="2407.5" y="706.1328"/><text fill="#000000" font-family="sans-serif" font-size="14" lengthAdjust="spacing" textLength="182" x="2419.5" y="712.4795">_providerInfo : ProviderInfo</text><rect fill="none" height="6" style="stroke:#C82930;stroke-width:1.0;" width="6" x="2407.5" y="722.4297"/><text fill="#000000" font-family="sans-serif" font-size="14" lengthAdjust="spacing" textLength="178" x="2419.5" y="728.7764">_redrawCallback : Generic</text><line style="stroke:#272B30;stroke-width:0.5;" x1="2400.5" x2="3198.5" y1="736.0781" y2="736.0781"/><ellipse cx="2410.5" cy="749.7266" fill="#84BE84" rx="3" ry="3" style="stroke:#038048;stroke-width:1.0;"/><text fill="#000000" font-family="sans-serif" font-size="14" lengthAdjust="spacing" textLength="84" x="2419.5" y="753.0732">build() : void</text><ellipse cx="2410.5" cy="766.0234" fill="#84BE84" rx="3" ry="3" style="stroke:#038048;stroke-width:1.0;"/><text fill="#000000" font-family="sans-serif" font-size="14" lengthAdjust="spacing" textLength="484" x="2419.5" y="769.3701">changeProperty(propertyName: string, propertyValue: unknown) : void</text><ellipse cx="2410.5" cy="782.3203" fill="#84BE84" rx="3" ry="3" style="stroke:#038048;stroke-width:1.0;"/><text fill="#000000" font-family="sans-serif" font-size="14" lengthAdjust="spacing" textLength="241" x="2419.5" y="785.667">checkAddedProviderEvents() : void</text><ellipse cx="2410.5" cy="798.6172" fill="#84BE84" rx="3" ry="3" style="stroke:#038048;stroke-width:1.0;"/><text fill="#000000" font-family="sans-serif" font-size="14" lengthAdjust="spacing" textLength="253" x="2419.5" y="801.9639">checkPendingProviderEvents() : void</text><ellipse cx="2410.5" cy="814.9141" fill="#84BE84" rx="3" ry="3" style="stroke:#038048;stroke-width:1.0;"/><text fill="#000000" font-family="sans-serif" font-size="14" lengthAdjust="spacing" textLength="106" x="2419.5" y="818.2607">dispose() : void</text><ellipse cx="2410.5" cy="831.2109" fill="#84BE84" rx="3" ry="3" style="stroke:#038048;stroke-width:1.0;"/><text fill="#000000" font-family="sans-serif" font-size="14" lengthAdjust="spacing" textLength="267" x="2419.5" y="834.5576">equalsToID(patternId: string) : boolean</text><ellipse cx="2410.5" cy="847.5078" fill="#84BE84" rx="3" ry="3" style="stroke:#038048;stroke-width:1.0;"/><text fill="#000000" font-family="sans-serif" font-size="14" lengthAdjust="spacing" textLength="434" x="2419.5" y="850.8545">registerCallback(eventName: string, callback: OSGeneric) : void</text><ellipse cx="2410.5" cy="863.8047" fill="#84BE84" rx="3" ry="3" style="stroke:#038048;stroke-width:1.0;"/><text fill="#000000" font-family="sans-serif" font-size="14" lengthAdjust="spacing" textLength="362" x="2419.5" y="867.1514">setProviderConfigs(providerConfigs: unknown) : void</text><ellipse cx="2410.5" cy="880.1016" fill="#84BE84" rx="3" ry="3" style="stroke:#038048;stroke-width:1.0;"/><text fill="#000000" font-family="sans-serif" font-size="14" lengthAdjust="spacing" textLength="681" x="2419.5" y="883.4482">setProviderEvent(eventName: string, callback: Generic, uniqueId: string, saveEvent: boolean) : void</text><ellipse cx="2410.5" cy="896.3984" fill="#84BE84" rx="3" ry="3" style="stroke:#038048;stroke-width:1.0;"/><text fill="#000000" font-family="sans-serif" font-size="14" lengthAdjust="spacing" textLength="285" x="2419.5" y="899.7451">unsetProviderEvent(eventId: string) : void</text><ellipse cx="2410.5" cy="912.6953" fill="#84BE84" rx="3" ry="3" style="stroke:#038048;stroke-width:1.0;"/><text fill="#000000" font-family="sans-serif" font-size="14" lengthAdjust="spacing" textLength="374" x="2419.5" y="916.042">updateProviderEvents(providerInfo: ProviderInfo) : void</text><polygon fill="#FFFF44" points="2410.5,923.9922,2414.5,927.9922,2410.5,931.9922,2406.5,927.9922" style="stroke:#B38D22;stroke-width:1.0;"/><text fill="#000000" font-family="sans-serif" font-size="14" lengthAdjust="spacing" textLength="121" x="2419.5" y="932.3389">finishBuild() : void</text><polygon fill="#FFFF44" points="2410.5,940.2891,2414.5,944.2891,2410.5,948.2891,2406.5,944.2891" style="stroke:#B38D22;stroke-width:1.0;"/><text fill="#000000" font-family="sans-serif" font-size="14" font-style="italic" lengthAdjust="spacing" textLength="157" x="2419.5" y="948.6357">prepareConfigs() : void</text><polygon fill="#FFFF44" points="2410.5,956.5859,2414.5,960.5859,2410.5,964.5859,2406.5,960.5859" style="stroke:#B38D22;stroke-width:1.0;"/><text fill="#000000" font-family="sans-serif" font-size="14" lengthAdjust="spacing" textLength="98" x="2419.5" y="964.9326">redraw() : void</text><polygon fill="#FFFF44" points="2410.5,972.8828,2414.5,976.8828,2410.5,980.8828,2406.5,976.8828" style="stroke:#B38D22;stroke-width:1.0;"/><text fill="#000000" font-family="sans-serif" font-size="14" font-style="italic" lengthAdjust="spacing" textLength="179" x="2419.5" y="981.2295">setA11YProperties() : void</text><polygon fill="#FFFF44" points="2410.5,989.1797,2414.5,993.1797,2410.5,997.1797,2406.5,993.1797" style="stroke:#B38D22;stroke-width:1.0;"/><text fill="#000000" font-family="sans-serif" font-size="14" font-style="italic" lengthAdjust="spacing" textLength="137" x="2419.5" y="997.5264">setCallbacks() : void</text><polygon fill="#FFFF44" points="2410.5,1005.4766,2414.5,1009.4766,2410.5,1013.4766,2406.5,1009.4766" style="stroke:#B38D22;stroke-width:1.0;"/><text fill="#000000" font-family="sans-serif" font-size="14" font-style="italic" lengthAdjust="spacing" textLength="169" x="2419.5" y="1013.8232">setHtmlElements() : void</text><polygon fill="#FFFF44" points="2410.5,1021.7734,2414.5,1025.7734,2410.5,1029.7734,2406.5,1025.7734" style="stroke:#B38D22;stroke-width:1.0;"/><text fill="#000000" font-family="sans-serif" font-size="14" lengthAdjust="spacing" textLength="569" x="2419.5" y="1030.1201">triggerPlatformEventCallback(platFormCallback: OSGeneric, args: unknown[]) : void</text><polygon fill="#FFFF44" points="2410.5,1038.0703,2414.5,1042.0703,2410.5,1046.0703,2406.5,1042.0703" style="stroke:#B38D22;stroke-width:1.0;"/><text fill="#000000" font-family="sans-serif" font-size="14" lengthAdjust="spacing" textLength="311" x="2419.5" y="1046.417">triggerPlatformInitializedEventCallback() : void</text><polygon fill="#FFFF44" points="2410.5,1054.3672,2414.5,1058.3672,2410.5,1062.3672,2406.5,1058.3672" style="stroke:#B38D22;stroke-width:1.0;"/><text fill="#000000" font-family="sans-serif" font-size="14" lengthAdjust="spacing" textLength="156" x="2419.5" y="1062.7139">unsetCallbacks() : void</text><polygon fill="#FFFF44" points="2410.5,1070.6641,2414.5,1074.6641,2410.5,1078.6641,2406.5,1074.6641" style="stroke:#B38D22;stroke-width:1.0;"/><text fill="#000000" font-family="sans-serif" font-size="14" lengthAdjust="spacing" textLength="199" x="2419.5" y="1079.0107">unsetGlobalCallbacks() : void</text><polygon fill="#FFFF44" points="2410.5,1086.9609,2414.5,1090.9609,2410.5,1094.9609,2406.5,1090.9609" style="stroke:#B38D22;stroke-width:1.0;"/><text fill="#000000" font-family="sans-serif" font-size="14" font-style="italic" lengthAdjust="spacing" textLength="187" x="2419.5" y="1095.3076">unsetHtmlElements() : void</text><rect fill="#F24D5C" height="6" style="stroke:#C82930;stroke-width:1.0;" width="6" x="2407.5" y="1105.2578"/><text fill="#000000" font-family="sans-serif" font-size="14" lengthAdjust="spacing" textLength="155" x="2419.5" y="1111.6045">_cancelRedraw() : void</text><rect fill="#F24D5C" height="6" style="stroke:#C82930;stroke-width:1.0;" width="6" x="2407.5" y="1121.5547"/><text fill="#000000" font-family="sans-serif" font-size="14" lengthAdjust="spacing" textLength="398" x="2419.5" y="1127.9014">_getEventIndexFromArray(event: IProviderEvent) : number</text><rect fill="#F24D5C" height="6" style="stroke:#C82930;stroke-width:1.0;" width="6" x="2407.5" y="1137.8516"/><text fill="#000000" font-family="sans-serif" font-size="14" lengthAdjust="spacing" textLength="774" x="2419.5" y="1144.1982">_handleProviderEventsAPI(eventName: string, callback: Generic, addEvent: boolean, event: IProviderEvent) : void</text><rect fill="#F24D5C" height="6" style="stroke:#C82930;stroke-width:1.0;" width="6" x="2407.5" y="1154.1484"/><text fill="#000000" font-family="sans-serif" font-size="14" lengthAdjust="spacing" textLength="157" x="2419.5" y="1160.4951">_handleRedraw() : void</text></g><!--reverse link IPattern to IProviderPattern<P>--><g id="link_IPattern_IProviderPattern&lt;P&gt;"><path codeLine="33" d="M1484.5,220.16 C1484.5,239.33 1484.5,241.74 1484.5,261.79 " fill="none" id="IPattern-backto-IProviderPattern&lt;P&gt;" style="stroke:#272B30;stroke-width:1.0;"/><polygon fill="none" points="1484.5,202.16,1478.5,220.16,1490.5,220.16,1484.5,202.16" style="stroke:#272B30;stroke-width:1.0;"/></g><!--reverse link IProviderPattern<P> to IFlatpickr--><g id="link_IProviderPattern&lt;P&gt;_IFlatpickr"><path codeLine="59" d="M1211.4543,410.4851 C1024.4643,430.7051 787.36,475.24 587.5,582 C547.02,603.62 508.29,632.39 472.92,663.44 " fill="none" id="IProviderPattern&lt;P&gt;-backto-IFlatpickr" style="stroke:#272B30;stroke-width:1.0;"/><polygon fill="none" points="1229.35,408.55,1210.8093,404.5199,1212.0994,416.4504,1229.35,408.55" style="stroke:#272B30;stroke-width:1.0;"/></g><!--reverse link IProviderPattern<P> to IFlatpickrMonth--><g id="link_IProviderPattern&lt;P&gt;_IFlatpickrMonth"><path codeLine="83" d="M1253.0859,532.2533 C1224.6859,551.4033 1211.4,561.54 1185.5,582 C1147.78,611.8 1109.56,645.73 1073.62,679.66 " fill="none" id="IProviderPattern&lt;P&gt;-backto-IFlatpickrMonth" style="stroke:#272B30;stroke-width:1.0;"/><polygon fill="none" points="1268.01,522.19,1249.7314,527.2786,1256.4403,537.228,1268.01,522.19" style="stroke:#272B30;stroke-width:1.0;"/></g><!--reverse link IProviderPattern<P> to INoUiSlider--><g id="link_IProviderPattern&lt;P&gt;_INoUiSlider"><path codeLine="103" d="M1484.5,540.22 C1484.5,598.65 1484.5,650.33 1484.5,712.2 " fill="none" id="IProviderPattern&lt;P&gt;-backto-INoUiSlider" style="stroke:#272B30;stroke-width:1.0;"/><polygon fill="none" points="1484.5,522.22,1478.5,540.22,1490.5,540.22,1484.5,522.22" style="stroke:#272B30;stroke-width:1.0;"/></g><!--reverse link IProviderPattern<P> to IFlatpickrTime--><g id="link_IProviderPattern&lt;P&gt;_IFlatpickrTime"><path codeLine="127" d="M1715.9141,532.2533 C1744.3141,551.4033 1757.6,561.54 1783.5,582 C1821.22,611.8 1859.44,645.73 1895.38,679.66 " fill="none" id="IProviderPattern&lt;P&gt;-backto-IFlatpickrTime" style="stroke:#272B30;stroke-width:1.0;"/><polygon fill="none" points="1700.99,522.19,1712.5597,537.228,1719.2686,527.2786,1700.99,522.19" style="stroke:#272B30;stroke-width:1.0;"/></g><!--reverse link IProviderPattern<P> to AbstractProviderPattern<P, C>--><g id="link_IProviderPattern&lt;P&gt;_AbstractProviderPattern&lt;P, C&gt;"><path codeLine="163" d="M1757.5918,421.5453 C1941.7718,446.9053 2175.4,492.74 2381.5,582 C2387.49,584.59 2393.48,587.28 2399.47,590.05 " fill="none" id="IProviderPattern&lt;P&gt;-backto-AbstractProviderPattern&lt;P, C&gt;" style="stroke:#272B30;stroke-width:1.0;stroke-dasharray:7.0,7.0;"/><polygon fill="none" points="1739.76,419.09,1756.7733,427.4892,1758.4102,415.6014,1739.76,419.09" style="stroke:#272B30;stroke-width:1.0;"/></g><!--SRC=[xLXjRzis4FxkNq4aNnJCBfPim02Z660xJIkWReqrsr0CGq2B9vimHQeaPSzhyzzxUdD4MPAJDMktmFcGYCUxuntlUUuKcHMNCTKq8XD1ZHbfhJOJ9PGcfnS_NSn_-BvdN8snqWnqjmeDLWkj4iaAjJ0CApfxsm6m7ndjBJa30b5ijoG2krJCL4KX1u4IBYtea0P0JloPLcjKq3DgKIYVptu-8Hzx17- -usQSS679aCoL4a1bBeuB2vJFN8alGvLAAyjSmO08NmY8GARUNbrFNnUhV3kH_4C2FiCzOpMNYroyuMm1Tayynw2OTuRIjU8ibmLBAXU01yUWxTQBYuStD8BIk4zAwMzK92XEv4ggZNGTCMvYPQ3c7ZuaL9XhvLzwd9KEp-eNes713LxYX0enn_fuiCOKtHY2Ocz8thvx2H8q3zoZ3DZo_YPAXdnXF0cRud58gDow-adCg8NIv4Lwel6g1N7hiJE-TL6GL_zGwOzrl4yTRtkL2tt-QJ1effbJW2j1RSo3bNu0-yBIvicnCC1yTTsvsAydLfdE1LpIhV4gp-LXV_pPgFuxm6hVH2RH77I3oJ_64UOfQuQFrI9UuqKdT07UEh_5kmWwEqdihXlQISKewoNT0HRXzKc9dUP84jdijbK_wsc-v9PJSOcFNhe-luiWNLvqsU9XEF3IVF7F58p1kpgW_-3-sJmx2xxVyRcPvbCbxV8GrxbvYn0wTe3k3l1b_Cpl6DXuEuhvJk78sYzaROPlBqf_lyTA3icqVFowzCjvvd3mZVgLlnEfuGDchTmPFSLNtdGAUjreQ26Ql8Vfjtrx_b-nvz69K05xyo2wvX4Svz1n3ZtHEPJ2sxCy-aPlVncxUdIEPzF0aY3ziaDEHiLwpqEVJ7QVNqwvAVV7r02heUOqTeAUKea5nI2DfH8PFYI-arMndvaERgZPoi2NQnLGovNCA9N__rCen9X0g7IKsTPmC8fZmO6L82GLf9NMzIz4TwAsbZ2uqS0qtLIyLdt-ooHVGh0QCGQiXeG6jHb8Xeux5GysWpWlkFyVc8QD5_98FEuJGzUGUMZfQ5zhIcQC2RdaPZdUHzB7ag2tAQqWfXhA-t8zv1XjDyPaHkVdxmj8SZ2TgcLjkxLUsKWKqx4U3bxG0aazgv9r1vYKmbSedUoZf4-ehjI-zisZxhRefFnlOEu9hbLMofQKyisNGisfk4VMcNPxteER8ErnufU6QWnky1KX2zEN3FwwqYeQQKstEQpgNV6itlUmep1HmzTevjyJ_vGn5-nzqdfi9UByq7esxIFcsRD38-Gp]--></g></svg>