<?xml version="1.0" encoding="us-ascii" standalone="no"?><svg xmlns="http://www.w3.org/2000/svg" xmlns:xlink="http://www.w3.org/1999/xlink" contentStyleType="text/css" height="326px" preserveAspectRatio="none" style="width:522px;height:326px;background:#CED4DA;" version="1.1" viewBox="0 0 522 326" width="522px" zoomAndPan="magnify"><defs/><g><rect fill="#CED4DA" height="326" style="stroke:none;stroke-width:1.0;" width="522" x="0" y="0"/><!--class ISearchById--><g id="elem_ISearchById"><rect codeLine="7" fill="#FFFFFF" height="56.4883" id="ISearchById" rx="2.5" ry="2.5" style="stroke:#272B30;stroke-width:0.5;" width="242" x="140" y="7"/><ellipse cx="217.75" cy="23" fill="#B4A7E5" rx="11" ry="11" style="stroke:#181818;stroke-width:1.0;"/><path d="M214.1777,19.2651 L214.1777,17.1069 L221.5571,17.1069 L221.5571,19.2651 L219.0918,19.2651 L219.0918,27.3418 L221.5571,27.3418 L221.5571,29.5 L214.1777,29.5 L214.1777,27.3418 L216.6431,27.3418 L216.6431,19.2651 Z " fill="#000000"/><text fill="#000000" font-family="sans-serif" font-size="14" font-style="italic" lengthAdjust="spacing" textLength="78" x="238.25" y="28.291">ISearchById</text><line style="stroke:#272B30;stroke-width:0.5;" x1="141" x2="381" y1="39" y2="39"/><ellipse cx="151" cy="52.7441" fill="#84BE84" rx="3" ry="3" style="stroke:#038048;stroke-width:1.0;"/><text fill="#000000" font-family="sans-serif" font-size="14" lengthAdjust="spacing" textLength="216" x="160" y="56.5352">equalsToID(id: string) : boolean</text></g><!--class IPattern--><g id="elem_IPattern"><rect codeLine="10" fill="#FFFFFF" height="196.3945" id="IPattern" rx="2.5" ry="2.5" style="stroke:#272B30;stroke-width:0.5;" width="508" x="7" y="123.49"/><ellipse cx="230.25" cy="139.49" fill="#B4A7E5" rx="11" ry="11" style="stroke:#181818;stroke-width:1.0;"/><path d="M226.6777,135.7551 L226.6777,133.5969 L234.0571,133.5969 L234.0571,135.7551 L231.5918,135.7551 L231.5918,143.8318 L234.0571,143.8318 L234.0571,145.99 L226.6777,145.99 L226.6777,143.8318 L229.1431,143.8318 L229.1431,135.7551 Z " fill="#000000"/><text fill="#000000" font-family="sans-serif" font-size="14" font-style="italic" lengthAdjust="spacing" textLength="53" x="250.75" y="144.781">IPattern</text><line style="stroke:#272B30;stroke-width:0.5;" x1="8" x2="514" y1="155.49" y2="155.49"/><ellipse cx="18" cy="169.2341" fill="none" rx="3" ry="3" style="stroke:#038048;stroke-width:1.0;"/><text fill="#000000" font-family="sans-serif" font-size="14" lengthAdjust="spacing" textLength="109" x="27" y="173.0252">isBuilt : boolean</text><ellipse cx="18" cy="185.7224" fill="none" rx="3" ry="3" style="stroke:#038048;stroke-width:1.0;"/><text fill="#000000" font-family="sans-serif" font-size="14" lengthAdjust="spacing" textLength="184" x="27" y="189.5134">selfElement : HTMLElement</text><ellipse cx="18" cy="202.2107" fill="none" rx="3" ry="3" style="stroke:#038048;stroke-width:1.0;"/><text fill="#000000" font-family="sans-serif" font-size="14" lengthAdjust="spacing" textLength="113" x="27" y="206.0017">uniqueId : string</text><ellipse cx="18" cy="218.699" fill="none" rx="3" ry="3" style="stroke:#038048;stroke-width:1.0;"/><text fill="#000000" font-family="sans-serif" font-size="14" lengthAdjust="spacing" textLength="111" x="27" y="222.49">widgetId : string</text><line style="stroke:#272B30;stroke-width:0.5;" x1="8" x2="514" y1="229.4431" y2="229.4431"/><ellipse cx="18" cy="243.1873" fill="#84BE84" rx="3" ry="3" style="stroke:#038048;stroke-width:1.0;"/><text fill="#000000" font-family="sans-serif" font-size="14" lengthAdjust="spacing" textLength="86" x="27" y="246.9783">build() : void</text><ellipse cx="18" cy="259.6755" fill="#84BE84" rx="3" ry="3" style="stroke:#038048;stroke-width:1.0;"/><text fill="#000000" font-family="sans-serif" font-size="14" lengthAdjust="spacing" textLength="482" x="27" y="263.4666">changeProperty(propertyName: string, propertyValue: unknown) : void</text><ellipse cx="18" cy="276.1638" fill="#84BE84" rx="3" ry="3" style="stroke:#038048;stroke-width:1.0;"/><text fill="#000000" font-family="sans-serif" font-size="14" lengthAdjust="spacing" textLength="104" x="27" y="279.9548">dispose() : void</text><ellipse cx="18" cy="292.6521" fill="#84BE84" rx="3" ry="3" style="stroke:#038048;stroke-width:1.0;"/><text fill="#000000" font-family="sans-serif" font-size="14" lengthAdjust="spacing" textLength="216" x="27" y="296.4431">equalsToID(id: string) : boolean</text><ellipse cx="18" cy="309.1404" fill="#84BE84" rx="3" ry="3" style="stroke:#038048;stroke-width:1.0;"/><text fill="#000000" font-family="sans-serif" font-size="14" lengthAdjust="spacing" textLength="428" x="27" y="312.9314">registerCallback(eventName: string, callback: OSGeneric) : void</text></g><!--reverse link ISearchById to IPattern--><g id="link_ISearchById_IPattern"><path codeLine="21" d="M261,81.85 C261,97.93 261,101.28 261,123.03 " fill="none" id="ISearchById-backto-IPattern" style="stroke:#272B30;stroke-width:1.0;"/><polygon fill="none" points="261,63.85,255,81.85,267,81.85,261,63.85" style="stroke:#272B30;stroke-width:1.0;"/></g><!--SRC=[XP5TQy8m58Rl-ok2k-dOXE460zdDT6Chx4DGl3zDJjk3QL9FKaKs__kYLcadRBbAdlSz7pd7BSXKm52AiGRd7fdjUcorPN4nk1-ajpUHwpf6bXNotnQGYvnjRLHZoxAivJcJ9Qex1L512WMMbT-84drXbMkZZ507GiOZPo1Hz98f0ijYj4bKJtn58fmhNDQWtSmcJp6feN2UoUINOYXIQpM2YRQT31FmuM5EuUH6DMdVyk-nGvqzQopHxAJNsVjRyph8jQ5bZOaInu87l2QLep_3QQYWubrFAqlgm6G19iS9smhPR-AgkNn0YSVWQt6aSz1rmBLP6BistKIAN6KT_ah_xrJsBiQSN1Z76BHEmuvYN8KlTdkGZJOKdzCNDCWaJwMsKNSb3z_zVcl6Fm00]--></g></svg>