<?xml version="1.0" encoding="us-ascii" standalone="no"?><svg xmlns="http://www.w3.org/2000/svg" xmlns:xlink="http://www.w3.org/1999/xlink" contentStyleType="text/css" height="565px" preserveAspectRatio="none" style="width:631px;height:565px;background:#CED4DA;" version="1.1" viewBox="0 0 631 565" width="631px" zoomAndPan="magnify"><defs/><g><rect fill="#CED4DA" height="565" style="stroke:none;stroke-width:1.0;" width="631" x="0" y="0"/><!--class NotificationConfig--><g id="elem_NotificationConfig"><rect codeLine="7" fill="#FFFFFF" height="295.3242" id="NotificationConfig" rx="2.5" ry="2.5" style="stroke:#272B30;stroke-width:0.5;" width="615" x="9" y="263.4"/><ellipse cx="249.75" cy="279.4" fill="#ADD1B2" rx="11" ry="11" style="stroke:#181818;stroke-width:1.0;"/><path d="M252.2231,285.5431 Q251.6421,285.8419 251.0029,285.9913 Q250.3638,286.1407 249.6582,286.1407 Q247.1514,286.1407 245.8315,284.4889 Q244.5117,282.837 244.5117,279.7159 Q244.5117,276.5865 245.8315,274.9347 Q247.1514,273.2828 249.6582,273.2828 Q250.3638,273.2828 251.0112,273.4322 Q251.6587,273.5816 252.2231,273.8805 L252.2231,276.6031 Q251.5923,276.0221 250.9988,275.7523 Q250.4053,275.4825 249.7744,275.4825 Q248.4297,275.4825 247.7449,276.5492 Q247.0601,277.6158 247.0601,279.7159 Q247.0601,281.8077 247.7449,282.8744 Q248.4297,283.941 249.7744,283.941 Q250.4053,283.941 250.9988,283.6712 Q251.5923,283.4015 252.2231,282.8204 Z " fill="#000000"/><text fill="#000000" font-family="sans-serif" font-size="14" lengthAdjust="spacing" textLength="125" x="270.25" y="284.691">NotificationConfig</text><line style="stroke:#272B30;stroke-width:0.5;" x1="10" x2="623" y1="295.4" y2="295.4"/><ellipse cx="20" cy="309.1441" fill="none" rx="3" ry="3" style="stroke:#038048;stroke-width:1.0;"/><text fill="#000000" font-family="sans-serif" font-size="14" lengthAdjust="spacing" textLength="172" x="29" y="312.9352">CloseAfterTime : number</text><ellipse cx="20" cy="325.6324" fill="none" rx="3" ry="3" style="stroke:#038048;stroke-width:1.0;"/><text fill="#000000" font-family="sans-serif" font-size="14" lengthAdjust="spacing" textLength="153" x="29" y="329.4234">ExtendedClass : string</text><ellipse cx="20" cy="342.1207" fill="none" rx="3" ry="3" style="stroke:#038048;stroke-width:1.0;"/><text fill="#000000" font-family="sans-serif" font-size="14" lengthAdjust="spacing" textLength="176" x="29" y="345.9117">InteractToClose : boolean</text><ellipse cx="20" cy="358.609" fill="none" rx="3" ry="3" style="stroke:#038048;stroke-width:1.0;"/><text fill="#000000" font-family="sans-serif" font-size="14" lengthAdjust="spacing" textLength="157" x="29" y="362.4">NeedsSwipes : boolean</text><ellipse cx="20" cy="375.0973" fill="none" rx="3" ry="3" style="stroke:#038048;stroke-width:1.0;"/><text fill="#000000" font-family="sans-serif" font-size="14" lengthAdjust="spacing" textLength="107" x="29" y="378.8883">Position : string</text><ellipse cx="20" cy="391.5855" fill="none" rx="3" ry="3" style="stroke:#038048;stroke-width:1.0;"/><text fill="#000000" font-family="sans-serif" font-size="14" lengthAdjust="spacing" textLength="144" x="29" y="395.3766">StartsOpen : boolean</text><ellipse cx="20" cy="408.0738" fill="none" rx="3" ry="3" style="stroke:#038048;stroke-width:1.0;"/><text fill="#000000" font-family="sans-serif" font-size="14" lengthAdjust="spacing" textLength="91" x="29" y="411.8648">Width : string</text><line style="stroke:#272B30;stroke-width:0.5;" x1="10" x2="623" y1="418.818" y2="418.818"/><ellipse cx="20" cy="432.5621" fill="#84BE84" rx="3" ry="3" style="stroke:#038048;stroke-width:1.0;"/><text fill="#000000" font-family="sans-serif" font-size="14" lengthAdjust="spacing" textLength="395" x="29" y="436.3531">validateCanChange(isBuilt: boolean, key: string) : boolean</text><ellipse cx="20" cy="449.0504" fill="#84BE84" rx="3" ry="3" style="stroke:#038048;stroke-width:1.0;"/><text fill="#000000" font-family="sans-serif" font-size="14" lengthAdjust="spacing" textLength="375" x="29" y="452.8414">validateDefault(key: string, value: unknown) : unknown</text><polygon fill="#FFFF44" points="20,460.5387,24,464.5387,20,468.5387,16,464.5387" style="stroke:#B38D22;stroke-width:1.0;"/><text fill="#000000" font-family="sans-serif" font-size="14" lengthAdjust="spacing" textLength="444" x="29" y="469.3297">validateBoolean(value: boolean, defaultValue: boolean) : boolean</text><polygon fill="#FFFF44" points="20,477.027,24,481.027,20,485.027,16,481.027" style="stroke:#B38D22;stroke-width:1.0;"/><text fill="#000000" font-family="sans-serif" font-size="14" lengthAdjust="spacing" textLength="460" x="29" y="485.818">validateDate(value: string | Date, defaultValue: string) : string | Date</text><polygon fill="#FFFF44" points="20,493.5152,24,497.5152,20,501.5152,16,497.5152" style="stroke:#B38D22;stroke-width:1.0;"/><text fill="#000000" font-family="sans-serif" font-size="14" lengthAdjust="spacing" textLength="589" x="29" y="502.3063">validateInRange(value: unknown, defaultValue: unknown, args: unknown[]) : unknown</text><polygon fill="#FFFF44" points="20,510.0035,24,514.0035,20,518.0035,16,514.0035" style="stroke:#B38D22;stroke-width:1.0;"/><text fill="#000000" font-family="sans-serif" font-size="14" lengthAdjust="spacing" textLength="438" x="29" y="518.7945">validateNumber(value: number, defaultValue: number) : number</text><polygon fill="#FFFF44" points="20,526.4918,24,530.4918,20,534.4918,16,530.4918" style="stroke:#B38D22;stroke-width:1.0;"/><text fill="#000000" font-family="sans-serif" font-size="14" lengthAdjust="spacing" textLength="382" x="29" y="535.2828">validateString(value: string, defaultValue: string) : string</text><polygon fill="#FFFF44" points="20,542.9801,24,546.9801,20,550.9801,16,546.9801" style="stroke:#B38D22;stroke-width:1.0;"/><text fill="#000000" font-family="sans-serif" font-size="14" lengthAdjust="spacing" textLength="375" x="29" y="551.7711">validateTime(value: string, defaultValue: string) : string</text></g><!--class AbstractConfiguration--><g id="elem_AbstractConfiguration"><rect codeLine="24" fill="#FFFFFF" height="196.3945" id="AbstractConfiguration" rx="2.5" ry="2.5" style="stroke:#272B30;stroke-width:0.5;" width="615" x="9" y="7"/><ellipse cx="235.75" cy="23" fill="#A9DCDF" rx="11" ry="11" style="stroke:#181818;stroke-width:1.0;"/><path d="M235.6133,18.3481 L234.4595,23.4199 L236.7754,23.4199 Z M234.1191,16.1069 L237.1157,16.1069 L240.4609,28.5 L238.0122,28.5 L237.2485,25.437 L233.9697,25.437 L233.2227,28.5 L230.7739,28.5 Z " fill="#000000"/><text fill="#000000" font-family="sans-serif" font-size="14" font-style="italic" lengthAdjust="spacing" textLength="153" x="256.25" y="28.291">AbstractConfiguration</text><line style="stroke:#272B30;stroke-width:0.5;" x1="10" x2="623" y1="39" y2="39"/><ellipse cx="20" cy="52.7441" fill="none" rx="3" ry="3" style="stroke:#038048;stroke-width:1.0;"/><text fill="#000000" font-family="sans-serif" font-size="14" lengthAdjust="spacing" textLength="153" x="29" y="56.5352">ExtendedClass : string</text><line style="stroke:#272B30;stroke-width:0.5;" x1="10" x2="623" y1="63.4883" y2="63.4883"/><ellipse cx="20" cy="77.2324" fill="#84BE84" rx="3" ry="3" style="stroke:#038048;stroke-width:1.0;"/><text fill="#000000" font-family="sans-serif" font-size="14" lengthAdjust="spacing" textLength="409" x="29" y="81.0234">validateCanChange(_isBuilt: boolean, _key: string) : boolean</text><ellipse cx="20" cy="93.7207" fill="#84BE84" rx="3" ry="3" style="stroke:#038048;stroke-width:1.0;"/><text fill="#000000" font-family="sans-serif" font-size="14" lengthAdjust="spacing" textLength="382" x="29" y="97.5117">validateDefault(_key: string, value: unknown) : unknown</text><polygon fill="#FFFF44" points="20,105.209,24,109.209,20,113.209,16,109.209" style="stroke:#B38D22;stroke-width:1.0;"/><text fill="#000000" font-family="sans-serif" font-size="14" lengthAdjust="spacing" textLength="444" x="29" y="114">validateBoolean(value: boolean, defaultValue: boolean) : boolean</text><polygon fill="#FFFF44" points="20,121.6973,24,125.6973,20,129.6973,16,125.6973" style="stroke:#B38D22;stroke-width:1.0;"/><text fill="#000000" font-family="sans-serif" font-size="14" lengthAdjust="spacing" textLength="460" x="29" y="130.4883">validateDate(value: string | Date, defaultValue: string) : string | Date</text><polygon fill="#FFFF44" points="20,138.1855,24,142.1855,20,146.1855,16,142.1855" style="stroke:#B38D22;stroke-width:1.0;"/><text fill="#000000" font-family="sans-serif" font-size="14" lengthAdjust="spacing" textLength="589" x="29" y="146.9766">validateInRange(value: unknown, defaultValue: unknown, args: unknown[]) : unknown</text><polygon fill="#FFFF44" points="20,154.6738,24,158.6738,20,162.6738,16,158.6738" style="stroke:#B38D22;stroke-width:1.0;"/><text fill="#000000" font-family="sans-serif" font-size="14" lengthAdjust="spacing" textLength="438" x="29" y="163.4648">validateNumber(value: number, defaultValue: number) : number</text><polygon fill="#FFFF44" points="20,171.1621,24,175.1621,20,179.1621,16,175.1621" style="stroke:#B38D22;stroke-width:1.0;"/><text fill="#000000" font-family="sans-serif" font-size="14" lengthAdjust="spacing" textLength="382" x="29" y="179.9531">validateString(value: string, defaultValue: string) : string</text><polygon fill="#FFFF44" points="20,187.6504,24,191.6504,20,195.6504,16,191.6504" style="stroke:#B38D22;stroke-width:1.0;"/><text fill="#000000" font-family="sans-serif" font-size="14" lengthAdjust="spacing" textLength="375" x="29" y="196.4414">validateTime(value: string, defaultValue: string) : string</text></g><!--reverse link AbstractConfiguration to NotificationConfig--><g id="link_AbstractConfiguration_NotificationConfig"><path codeLine="35" d="M316.5,221.6 C316.5,240.6 316.5,242.92 316.5,263.13 " fill="none" id="AbstractConfiguration-backto-NotificationConfig" style="stroke:#272B30;stroke-width:1.0;"/><polygon fill="none" points="316.5,203.6,310.5,221.6,322.5,221.6,316.5,203.6" style="stroke:#272B30;stroke-width:1.0;"/></g><!--SRC=[xLJFQy8m5BxthmXwKQOmt60WksZTmOiRKxR3698shsrecvGadPEv_trfqtOsJeVNiK8XUT-Fl5U-LCQKPLZW5Ba9bd8Y1D-uFE42TKSt8-_gqf5jnfGB0k8q1VjnA7ZEI4KBWc2FSm3xGAu9TY9A046QgIrAGKMSoFrIG27H5Ryu07KMND60-bXHpbpE0Xfsq8U3z7FX9bp2950WLZG5D4OiJpqG1hnxLy08aB9FZKabA0iDDcTQWtsrugM5HZtE4y3Cm0i08fSRce6qeGSkQT69PRXKM2Xvdm6p1S-KgCXYl-644gp0nSoDC0kXH-Kqfubgj0CKmxOMzMtFMZ-30EU9wkrn1qY3EOnHpcB6DwpGLijIswsrKsFOg-ZDkSHuFhNATWUDoqo_jOLf0ErGKRIDlYTfqTfkS_POVets2BPLKyOYbCtsvVNeg8io5RMhoOXjQghzTeOQXsNPStlGtoPiEnG1FLF_wM1FBtLCKNKL9jNUN8DSb7UYkGsd0d-OkFLXvDRdP6xz7xg_6RfZARlT3OS__es_0000]--></g></svg>