<?xml version="1.0" encoding="us-ascii" standalone="no"?><svg xmlns="http://www.w3.org/2000/svg" xmlns:xlink="http://www.w3.org/1999/xlink" contentStyleType="text/css" height="1881px" preserveAspectRatio="none" style="width:723px;height:1881px;background:#CED4DA;" version="1.1" viewBox="0 0 723 1881" width="723px" zoomAndPan="magnify"><defs/><g><rect fill="#CED4DA" height="1881" style="stroke:none;stroke-width:1.0;" width="723" x="0" y="0"/><!--class OSUIFlatpickrSingleDate--><g id="elem_OSUIFlatpickrSingleDate"><rect codeLine="7" fill="#FFFFFF" height="846.5469" id="OSUIFlatpickrSingleDate" rx="2.5" ry="2.5" style="stroke:#272B30;stroke-width:0.5;" width="707" x="9" y="1028"/><ellipse cx="275.75" cy="1044" fill="#ADD1B2" rx="11" ry="11" style="stroke:#181818;stroke-width:1.0;"/><path d="M278.7188,1049.6406 Q278.1406,1049.9375 277.5,1050.0781 Q276.8594,1050.2344 276.1563,1050.2344 Q273.6563,1050.2344 272.3281,1048.5938 Q271.0156,1046.9375 271.0156,1043.8125 Q271.0156,1040.6875 272.3281,1039.0313 Q273.6563,1037.375 276.1563,1037.375 Q276.8594,1037.375 277.5,1037.5313 Q278.1563,1037.6875 278.7188,1037.9844 L278.7188,1040.7031 Q278.0938,1040.125 277.5,1039.8594 Q276.9063,1039.5781 276.2813,1039.5781 Q274.9375,1039.5781 274.25,1040.6563 Q273.5625,1041.7188 273.5625,1043.8125 Q273.5625,1045.9063 274.25,1046.9844 Q274.9375,1048.0469 276.2813,1048.0469 Q276.9063,1048.0469 277.5,1047.7813 Q278.0938,1047.5 278.7188,1046.9219 L278.7188,1049.6406 Z " fill="#000000"/><text fill="#000000" font-family="sans-serif" font-size="14" lengthAdjust="spacing" textLength="165" x="296.25" y="1048.8467">OSUIFlatpickrSingleDate</text><line style="stroke:#272B30;stroke-width:0.5;" x1="10" x2="715" y1="1060" y2="1060"/><ellipse cx="20" cy="1073.6484" fill="none" rx="3" ry="3" style="stroke:#038048;stroke-width:1.0;"/><text fill="#000000" font-family="sans-serif" font-size="14" lengthAdjust="spacing" textLength="205" x="29" y="1076.9951">onCloseCustomCallback : any</text><polygon fill="none" points="20,1084.9453,24,1088.9453,20,1092.9453,16,1088.9453" style="stroke:#B38D22;stroke-width:1.0;"/><text fill="#000000" font-family="sans-serif" font-size="14" lengthAdjust="spacing" textLength="341" x="29" y="1093.292">datePickerPlatformInputElem : HTMLInputElement</text><polygon fill="none" points="20,1101.2422,24,1105.2422,20,1109.2422,16,1105.2422" style="stroke:#B38D22;stroke-width:1.0;"/><text fill="#000000" font-family="sans-serif" font-size="14" lengthAdjust="spacing" textLength="265" x="29" y="1109.5889">flatpickrInputElem : HTMLInputElement</text><polygon fill="none" points="20,1117.5391,24,1121.5391,20,1125.5391,16,1121.5391" style="stroke:#B38D22;stroke-width:1.0;"/><text fill="#000000" font-family="sans-serif" font-size="14" lengthAdjust="spacing" textLength="210" x="29" y="1125.8857">flatpickrOpts : FlatpickrOptions</text><polygon fill="none" points="20,1133.8359,24,1137.8359,20,1141.8359,16,1137.8359" style="stroke:#B38D22;stroke-width:1.0;"/><text fill="#000000" font-family="sans-serif" font-size="14" lengthAdjust="spacing" textLength="180" x="29" y="1142.1826">isProviderBased : boolean</text><polygon fill="none" points="20,1150.1328,24,1154.1328,20,1158.1328,16,1154.1328" style="stroke:#B38D22;stroke-width:1.0;"/><text fill="#000000" font-family="sans-serif" font-size="14" lengthAdjust="spacing" textLength="321" x="29" y="1158.4795">onSelectedCallbackEvent : OSOnChangeEvent</text><polygon fill="none" points="20,1166.4297,24,1170.4297,20,1174.4297,16,1170.4297" style="stroke:#B38D22;stroke-width:1.0;"/><text fill="#000000" font-family="sans-serif" font-size="14" lengthAdjust="spacing" textLength="393" x="29" y="1174.7764">providerEventsManagerInstance : IProviderEventManager</text><rect fill="none" height="6" style="stroke:#C82930;stroke-width:1.0;" width="6" x="17" y="1184.7266"/><text fill="#000000" font-family="sans-serif" font-size="14" lengthAdjust="spacing" textLength="312" x="29" y="1191.0732">_isUpdatedInitialDateByClientAction : boolean</text><line style="stroke:#272B30;stroke-width:0.5;" x1="10" x2="715" y1="1198.375" y2="1198.375"/><ellipse cx="20" cy="1212.0234" fill="#84BE84" rx="3" ry="3" style="stroke:#038048;stroke-width:1.0;"/><text fill="#000000" font-family="sans-serif" font-size="14" lengthAdjust="spacing" textLength="84" x="29" y="1215.3701">build() : void</text><ellipse cx="20" cy="1228.3203" fill="#84BE84" rx="3" ry="3" style="stroke:#038048;stroke-width:1.0;"/><text fill="#000000" font-family="sans-serif" font-size="14" lengthAdjust="spacing" textLength="484" x="29" y="1231.667">changeProperty(propertyName: string, propertyValue: unknown) : void</text><ellipse cx="20" cy="1244.6172" fill="#84BE84" rx="3" ry="3" style="stroke:#038048;stroke-width:1.0;"/><text fill="#000000" font-family="sans-serif" font-size="14" lengthAdjust="spacing" textLength="241" x="29" y="1247.9639">checkAddedProviderEvents() : void</text><ellipse cx="20" cy="1260.9141" fill="#84BE84" rx="3" ry="3" style="stroke:#038048;stroke-width:1.0;"/><text fill="#000000" font-family="sans-serif" font-size="14" lengthAdjust="spacing" textLength="253" x="29" y="1264.2607">checkPendingProviderEvents() : void</text><ellipse cx="20" cy="1277.2109" fill="#84BE84" rx="3" ry="3" style="stroke:#038048;stroke-width:1.0;"/><text fill="#000000" font-family="sans-serif" font-size="14" lengthAdjust="spacing" textLength="84" x="29" y="1280.5576">clear() : void</text><ellipse cx="20" cy="1293.5078" fill="#84BE84" rx="3" ry="3" style="stroke:#038048;stroke-width:1.0;"/><text fill="#000000" font-family="sans-serif" font-size="14" lengthAdjust="spacing" textLength="88" x="29" y="1296.8545">close() : void</text><ellipse cx="20" cy="1309.8047" fill="#84BE84" rx="3" ry="3" style="stroke:#038048;stroke-width:1.0;"/><text fill="#000000" font-family="sans-serif" font-size="14" lengthAdjust="spacing" textLength="275" x="29" y="1313.1514">disableDays(disableDays: string[]) : void</text><ellipse cx="20" cy="1326.1016" fill="#84BE84" rx="3" ry="3" style="stroke:#038048;stroke-width:1.0;"/><text fill="#000000" font-family="sans-serif" font-size="14" lengthAdjust="spacing" textLength="368" x="29" y="1329.4482">disableWeekDays(disableWeekDays: number[]) : void</text><ellipse cx="20" cy="1342.3984" fill="#84BE84" rx="3" ry="3" style="stroke:#038048;stroke-width:1.0;"/><text fill="#000000" font-family="sans-serif" font-size="14" lengthAdjust="spacing" textLength="106" x="29" y="1345.7451">dispose() : void</text><ellipse cx="20" cy="1358.6953" fill="#84BE84" rx="3" ry="3" style="stroke:#038048;stroke-width:1.0;"/><text fill="#000000" font-family="sans-serif" font-size="14" lengthAdjust="spacing" textLength="267" x="29" y="1362.042">equalsToID(patternId: string) : boolean</text><ellipse cx="20" cy="1374.9922" fill="#84BE84" rx="3" ry="3" style="stroke:#038048;stroke-width:1.0;"/><text fill="#000000" font-family="sans-serif" font-size="14" lengthAdjust="spacing" textLength="87" x="29" y="1378.3389">open() : void</text><ellipse cx="20" cy="1391.2891" fill="#84BE84" rx="3" ry="3" style="stroke:#038048;stroke-width:1.0;"/><text fill="#000000" font-family="sans-serif" font-size="14" lengthAdjust="spacing" textLength="434" x="29" y="1394.6357">registerCallback(eventName: string, callback: OSGeneric) : void</text><ellipse cx="20" cy="1407.5859" fill="#84BE84" rx="3" ry="3" style="stroke:#038048;stroke-width:1.0;"/><text fill="#000000" font-family="sans-serif" font-size="14" lengthAdjust="spacing" textLength="294" x="29" y="1410.9326">setEditableInput(isEditable: boolean) : void</text><ellipse cx="20" cy="1423.8828" fill="#84BE84" rx="3" ry="3" style="stroke:#038048;stroke-width:1.0;"/><text fill="#000000" font-family="sans-serif" font-size="14" lengthAdjust="spacing" textLength="225" x="29" y="1427.2295">setLanguage(value: string) : void</text><ellipse cx="20" cy="1440.1797" fill="#84BE84" rx="3" ry="3" style="stroke:#038048;stroke-width:1.0;"/><text fill="#000000" font-family="sans-serif" font-size="14" lengthAdjust="spacing" textLength="382" x="29" y="1443.5264">setProviderConfigs(newConfigs: FlatpickrOptions) : void</text><ellipse cx="20" cy="1456.4766" fill="#84BE84" rx="3" ry="3" style="stroke:#038048;stroke-width:1.0;"/><text fill="#000000" font-family="sans-serif" font-size="14" lengthAdjust="spacing" textLength="681" x="29" y="1459.8232">setProviderEvent(eventName: string, callback: Generic, uniqueId: string, saveEvent: boolean) : void</text><ellipse cx="20" cy="1472.7734" fill="#84BE84" rx="3" ry="3" style="stroke:#038048;stroke-width:1.0;"/><text fill="#000000" font-family="sans-serif" font-size="14" lengthAdjust="spacing" textLength="315" x="29" y="1476.1201">toggleNativeBehavior(isNative: boolean) : void</text><ellipse cx="20" cy="1489.0703" fill="#84BE84" rx="3" ry="3" style="stroke:#038048;stroke-width:1.0;"/><text fill="#000000" font-family="sans-serif" font-size="14" lengthAdjust="spacing" textLength="285" x="29" y="1492.417">unsetProviderEvent(eventId: string) : void</text><ellipse cx="20" cy="1505.3672" fill="#84BE84" rx="3" ry="3" style="stroke:#038048;stroke-width:1.0;"/><text fill="#000000" font-family="sans-serif" font-size="14" lengthAdjust="spacing" textLength="251" x="29" y="1508.7139">updateInitialDate(value: string) : void</text><ellipse cx="20" cy="1521.6641" fill="#84BE84" rx="3" ry="3" style="stroke:#038048;stroke-width:1.0;"/><text fill="#000000" font-family="sans-serif" font-size="14" lengthAdjust="spacing" textLength="311" x="29" y="1525.0107">updatePrompt(promptMessage: string) : void</text><ellipse cx="20" cy="1537.9609" fill="#84BE84" rx="3" ry="3" style="stroke:#038048;stroke-width:1.0;"/><text fill="#000000" font-family="sans-serif" font-size="14" lengthAdjust="spacing" textLength="374" x="29" y="1541.3076">updateProviderEvents(providerInfo: ProviderInfo) : void</text><polygon fill="#FFFF44" points="20,1549.2578,24,1553.2578,20,1557.2578,16,1553.2578" style="stroke:#B38D22;stroke-width:1.0;"/><text fill="#000000" font-family="sans-serif" font-size="14" lengthAdjust="spacing" textLength="143" x="29" y="1557.6045">addTodayBtn() : void</text><polygon fill="#FFFF44" points="20,1565.5547,24,1569.5547,20,1573.5547,16,1569.5547" style="stroke:#B38D22;stroke-width:1.0;"/><text fill="#000000" font-family="sans-serif" font-size="14" lengthAdjust="spacing" textLength="210" x="29" y="1573.9014">createProviderInstance() : void</text><polygon fill="#FFFF44" points="20,1581.8516,24,1585.8516,20,1589.8516,16,1585.8516" style="stroke:#B38D22;stroke-width:1.0;"/><text fill="#000000" font-family="sans-serif" font-size="14" lengthAdjust="spacing" textLength="121" x="29" y="1590.1982">finishBuild() : void</text><polygon fill="#FFFF44" points="20,1598.1484,24,1602.1484,20,1606.1484,16,1602.1484" style="stroke:#B38D22;stroke-width:1.0;"/><text fill="#000000" font-family="sans-serif" font-size="14" lengthAdjust="spacing" textLength="153" x="29" y="1606.4951">jumpIntoToday() : void</text><polygon fill="#FFFF44" points="20,1614.4453,24,1618.4453,20,1622.4453,16,1618.4453" style="stroke:#B38D22;stroke-width:1.0;"/><text fill="#000000" font-family="sans-serif" font-size="14" lengthAdjust="spacing" textLength="183" x="29" y="1622.792">onDatePickerClose() : void</text><polygon fill="#FFFF44" points="20,1630.7422,24,1634.7422,20,1638.7422,16,1634.7422" style="stroke:#B38D22;stroke-width:1.0;"/><text fill="#000000" font-family="sans-serif" font-size="14" lengthAdjust="spacing" textLength="355" x="29" y="1639.0889">onDateSelectedEvent(selectedDates: Date[]) : void</text><polygon fill="#FFFF44" points="20,1647.0391,24,1651.0391,20,1655.0391,16,1651.0391" style="stroke:#B38D22;stroke-width:1.0;"/><text fill="#000000" font-family="sans-serif" font-size="14" lengthAdjust="spacing" textLength="157" x="29" y="1655.3857">prepareConfigs() : void</text><polygon fill="#FFFF44" points="20,1663.3359,24,1667.3359,20,1671.3359,16,1667.3359" style="stroke:#B38D22;stroke-width:1.0;"/><text fill="#000000" font-family="sans-serif" font-size="14" lengthAdjust="spacing" textLength="202" x="29" y="1671.6826">prepareToAndRedraw() : void</text><polygon fill="#FFFF44" points="20,1679.6328,24,1683.6328,20,1687.6328,16,1683.6328" style="stroke:#B38D22;stroke-width:1.0;"/><text fill="#000000" font-family="sans-serif" font-size="14" lengthAdjust="spacing" textLength="98" x="29" y="1687.9795">redraw() : void</text><polygon fill="#FFFF44" points="20,1695.9297,24,1699.9297,20,1703.9297,16,1699.9297" style="stroke:#B38D22;stroke-width:1.0;"/><text fill="#000000" font-family="sans-serif" font-size="14" lengthAdjust="spacing" textLength="180" x="29" y="1704.2764">setA11YProperties() : void</text><polygon fill="#FFFF44" points="20,1712.2266,24,1716.2266,20,1720.2266,16,1716.2266" style="stroke:#B38D22;stroke-width:1.0;"/><text fill="#000000" font-family="sans-serif" font-size="14" lengthAdjust="spacing" textLength="138" x="29" y="1720.5732">setCallbacks() : void</text><polygon fill="#FFFF44" points="20,1728.5234,24,1732.5234,20,1736.5234,16,1732.5234" style="stroke:#B38D22;stroke-width:1.0;"/><text fill="#000000" font-family="sans-serif" font-size="14" lengthAdjust="spacing" textLength="169" x="29" y="1736.8701">setHtmlElements() : void</text><polygon fill="#FFFF44" points="20,1744.8203,24,1748.8203,20,1752.8203,16,1748.8203" style="stroke:#B38D22;stroke-width:1.0;"/><text fill="#000000" font-family="sans-serif" font-size="14" lengthAdjust="spacing" textLength="279" x="29" y="1753.167">todayBtnClick(event: MouseEvent) : void</text><polygon fill="#FFFF44" points="20,1761.1172,24,1765.1172,20,1769.1172,16,1765.1172" style="stroke:#B38D22;stroke-width:1.0;"/><text fill="#000000" font-family="sans-serif" font-size="14" lengthAdjust="spacing" textLength="569" x="29" y="1769.4639">triggerPlatformEventCallback(platFormCallback: OSGeneric, args: unknown[]) : void</text><polygon fill="#FFFF44" points="20,1777.4141,24,1781.4141,20,1785.4141,16,1781.4141" style="stroke:#B38D22;stroke-width:1.0;"/><text fill="#000000" font-family="sans-serif" font-size="14" lengthAdjust="spacing" textLength="311" x="29" y="1785.7607">triggerPlatformInitializedEventCallback() : void</text><polygon fill="#FFFF44" points="20,1793.7109,24,1797.7109,20,1801.7109,16,1797.7109" style="stroke:#B38D22;stroke-width:1.0;"/><text fill="#000000" font-family="sans-serif" font-size="14" lengthAdjust="spacing" textLength="156" x="29" y="1802.0576">unsetCallbacks() : void</text><polygon fill="#FFFF44" points="20,1810.0078,24,1814.0078,20,1818.0078,16,1814.0078" style="stroke:#B38D22;stroke-width:1.0;"/><text fill="#000000" font-family="sans-serif" font-size="14" lengthAdjust="spacing" textLength="199" x="29" y="1818.3545">unsetGlobalCallbacks() : void</text><polygon fill="#FFFF44" points="20,1826.3047,24,1830.3047,20,1834.3047,16,1830.3047" style="stroke:#B38D22;stroke-width:1.0;"/><text fill="#000000" font-family="sans-serif" font-size="14" lengthAdjust="spacing" textLength="187" x="29" y="1834.6514">unsetHtmlElements() : void</text><polygon fill="#FFFF44" points="20,1842.6016,24,1846.6016,20,1850.6016,16,1846.6016" style="stroke:#B38D22;stroke-width:1.0;"/><text fill="#000000" font-family="sans-serif" font-size="14" lengthAdjust="spacing" textLength="223" x="29" y="1850.9482">updatePlatformInputAttrs() : void</text><rect fill="#F24D5C" height="6" style="stroke:#C82930;stroke-width:1.0;" width="6" x="17" y="1860.8984"/><text fill="#000000" font-family="sans-serif" font-size="14" lengthAdjust="spacing" textLength="167" x="29" y="1867.2451">_checkInitialDate() : void</text></g><!--class AbstractFlatpickr<FlatpickrSingleDateConfig>--><g id="elem_AbstractFlatpickr&lt;FlatpickrSingleDateConfig&gt;"><rect codeLine="58" fill="#FFFFFF" height="960.625" id="AbstractFlatpickr&lt;FlatpickrSingleDateConfig&gt;" rx="2.5" ry="2.5" style="stroke:#272B30;stroke-width:0.5;" width="707" x="9" y="7"/><ellipse cx="201.25" cy="23" fill="#A9DCDF" rx="11" ry="11" style="stroke:#181818;stroke-width:1.0;"/><path d="M201.3594,18.3438 L200.2031,23.4219 L202.5313,23.4219 L201.3594,18.3438 Z M199.875,16.1094 L202.8594,16.1094 L206.2188,28.5 L203.7656,28.5 L203,25.4375 L199.7188,25.4375 L198.9688,28.5 L196.5313,28.5 L199.875,16.1094 Z " fill="#000000"/><text fill="#000000" font-family="sans-serif" font-size="14" font-style="italic" lengthAdjust="spacing" textLength="314" x="221.75" y="27.8467">AbstractFlatpickr&lt;FlatpickrSingleDateConfig&gt;</text><line style="stroke:#272B30;stroke-width:0.5;" x1="10" x2="715" y1="39" y2="39"/><ellipse cx="20" cy="52.6484" fill="none" rx="3" ry="3" style="stroke:#038048;stroke-width:1.0;"/><text fill="#000000" font-family="sans-serif" font-size="14" lengthAdjust="spacing" textLength="205" x="29" y="55.9951">onCloseCustomCallback : any</text><polygon fill="none" points="20,63.9453,24,67.9453,20,71.9453,16,67.9453" style="stroke:#B38D22;stroke-width:1.0;"/><text fill="#000000" font-family="sans-serif" font-size="14" lengthAdjust="spacing" textLength="341" x="29" y="72.292">datePickerPlatformInputElem : HTMLInputElement</text><polygon fill="none" points="20,80.2422,24,84.2422,20,88.2422,16,84.2422" style="stroke:#B38D22;stroke-width:1.0;"/><text fill="#000000" font-family="sans-serif" font-size="14" lengthAdjust="spacing" textLength="265" x="29" y="88.5889">flatpickrInputElem : HTMLInputElement</text><polygon fill="none" points="20,96.5391,24,100.5391,20,104.5391,16,100.5391" style="stroke:#B38D22;stroke-width:1.0;"/><text fill="#000000" font-family="sans-serif" font-size="14" lengthAdjust="spacing" textLength="210" x="29" y="104.8857">flatpickrOpts : FlatpickrOptions</text><polygon fill="none" points="20,112.8359,24,116.8359,20,120.8359,16,116.8359" style="stroke:#B38D22;stroke-width:1.0;"/><text fill="#000000" font-family="sans-serif" font-size="14" lengthAdjust="spacing" textLength="180" x="29" y="121.1826">isProviderBased : boolean</text><polygon fill="none" points="20,129.1328,24,133.1328,20,137.1328,16,133.1328" style="stroke:#B38D22;stroke-width:1.0;"/><text fill="#000000" font-family="sans-serif" font-size="14" lengthAdjust="spacing" textLength="321" x="29" y="137.4795">onSelectedCallbackEvent : OSOnChangeEvent</text><polygon fill="none" points="20,145.4297,24,149.4297,20,153.4297,16,149.4297" style="stroke:#B38D22;stroke-width:1.0;"/><text fill="#000000" font-family="sans-serif" font-size="14" lengthAdjust="spacing" textLength="393" x="29" y="153.7764">providerEventsManagerInstance : IProviderEventManager</text><rect fill="none" height="6" style="stroke:#C82930;stroke-width:1.0;" width="6" x="17" y="163.7266"/><text fill="#000000" font-family="sans-serif" font-size="14" lengthAdjust="spacing" textLength="274" x="29" y="170.0732">_a11yInfoContainerElem : HTMLElement</text><rect fill="none" height="6" style="stroke:#C82930;stroke-width:1.0;" width="6" x="17" y="180.0234"/><text fill="#000000" font-family="sans-serif" font-size="14" lengthAdjust="spacing" textLength="385" x="29" y="186.3701">_bodyScrollCommonBehaviour : UpdatePositionOnScroll</text><rect fill="none" height="6" style="stroke:#C82930;stroke-width:1.0;" width="6" x="17" y="196.3203"/><text fill="#000000" font-family="sans-serif" font-size="14" lengthAdjust="spacing" textLength="293" x="29" y="202.667">_providerFocusSpanTarget : HTMLElement</text><rect fill="none" height="6" style="stroke:#C82930;stroke-width:1.0;" width="6" x="17" y="212.6172"/><text fill="#000000" font-family="sans-serif" font-size="14" lengthAdjust="spacing" textLength="234" x="29" y="218.9639">_todayButtonElem : HTMLElement</text><rect fill="none" height="6" style="stroke:#C82930;stroke-width:1.0;" width="6" x="17" y="228.9141"/><text fill="#000000" font-family="sans-serif" font-size="14" lengthAdjust="spacing" textLength="285" x="29" y="235.2607">_zindexCommonBehavior : UpdateZindex</text><line style="stroke:#272B30;stroke-width:0.5;" x1="10" x2="715" y1="242.5625" y2="242.5625"/><ellipse cx="20" cy="256.2109" fill="#84BE84" rx="3" ry="3" style="stroke:#038048;stroke-width:1.0;"/><text fill="#000000" font-family="sans-serif" font-size="14" lengthAdjust="spacing" textLength="84" x="29" y="259.5576">build() : void</text><ellipse cx="20" cy="272.5078" fill="#84BE84" rx="3" ry="3" style="stroke:#038048;stroke-width:1.0;"/><text fill="#000000" font-family="sans-serif" font-size="14" lengthAdjust="spacing" textLength="484" x="29" y="275.8545">changeProperty(propertyName: string, propertyValue: unknown) : void</text><ellipse cx="20" cy="288.8047" fill="#84BE84" rx="3" ry="3" style="stroke:#038048;stroke-width:1.0;"/><text fill="#000000" font-family="sans-serif" font-size="14" lengthAdjust="spacing" textLength="241" x="29" y="292.1514">checkAddedProviderEvents() : void</text><ellipse cx="20" cy="305.1016" fill="#84BE84" rx="3" ry="3" style="stroke:#038048;stroke-width:1.0;"/><text fill="#000000" font-family="sans-serif" font-size="14" lengthAdjust="spacing" textLength="253" x="29" y="308.4482">checkPendingProviderEvents() : void</text><ellipse cx="20" cy="321.3984" fill="#84BE84" rx="3" ry="3" style="stroke:#038048;stroke-width:1.0;"/><text fill="#000000" font-family="sans-serif" font-size="14" lengthAdjust="spacing" textLength="84" x="29" y="324.7451">clear() : void</text><ellipse cx="20" cy="337.6953" fill="#84BE84" rx="3" ry="3" style="stroke:#038048;stroke-width:1.0;"/><text fill="#000000" font-family="sans-serif" font-size="14" lengthAdjust="spacing" textLength="88" x="29" y="341.042">close() : void</text><ellipse cx="20" cy="353.9922" fill="#84BE84" rx="3" ry="3" style="stroke:#038048;stroke-width:1.0;"/><text fill="#000000" font-family="sans-serif" font-size="14" lengthAdjust="spacing" textLength="275" x="29" y="357.3389">disableDays(disableDays: string[]) : void</text><ellipse cx="20" cy="370.2891" fill="#84BE84" rx="3" ry="3" style="stroke:#038048;stroke-width:1.0;"/><text fill="#000000" font-family="sans-serif" font-size="14" lengthAdjust="spacing" textLength="368" x="29" y="373.6357">disableWeekDays(disableWeekDays: number[]) : void</text><ellipse cx="20" cy="386.5859" fill="#84BE84" rx="3" ry="3" style="stroke:#038048;stroke-width:1.0;"/><text fill="#000000" font-family="sans-serif" font-size="14" lengthAdjust="spacing" textLength="106" x="29" y="389.9326">dispose() : void</text><ellipse cx="20" cy="402.8828" fill="#84BE84" rx="3" ry="3" style="stroke:#038048;stroke-width:1.0;"/><text fill="#000000" font-family="sans-serif" font-size="14" lengthAdjust="spacing" textLength="267" x="29" y="406.2295">equalsToID(patternId: string) : boolean</text><ellipse cx="20" cy="419.1797" fill="#84BE84" rx="3" ry="3" style="stroke:#038048;stroke-width:1.0;"/><text fill="#000000" font-family="sans-serif" font-size="14" lengthAdjust="spacing" textLength="87" x="29" y="422.5264">open() : void</text><ellipse cx="20" cy="435.4766" fill="#84BE84" rx="3" ry="3" style="stroke:#038048;stroke-width:1.0;"/><text fill="#000000" font-family="sans-serif" font-size="14" lengthAdjust="spacing" textLength="434" x="29" y="438.8232">registerCallback(eventName: string, callback: OSGeneric) : void</text><ellipse cx="20" cy="451.7734" fill="#84BE84" rx="3" ry="3" style="stroke:#038048;stroke-width:1.0;"/><text fill="#000000" font-family="sans-serif" font-size="14" lengthAdjust="spacing" textLength="294" x="29" y="455.1201">setEditableInput(isEditable: boolean) : void</text><ellipse cx="20" cy="468.0703" fill="#84BE84" rx="3" ry="3" style="stroke:#038048;stroke-width:1.0;"/><text fill="#000000" font-family="sans-serif" font-size="14" lengthAdjust="spacing" textLength="225" x="29" y="471.417">setLanguage(value: string) : void</text><ellipse cx="20" cy="484.3672" fill="#84BE84" rx="3" ry="3" style="stroke:#038048;stroke-width:1.0;"/><text fill="#000000" font-family="sans-serif" font-size="14" lengthAdjust="spacing" textLength="382" x="29" y="487.7139">setProviderConfigs(newConfigs: FlatpickrOptions) : void</text><ellipse cx="20" cy="500.6641" fill="#84BE84" rx="3" ry="3" style="stroke:#038048;stroke-width:1.0;"/><text fill="#000000" font-family="sans-serif" font-size="14" lengthAdjust="spacing" textLength="681" x="29" y="504.0107">setProviderEvent(eventName: string, callback: Generic, uniqueId: string, saveEvent: boolean) : void</text><ellipse cx="20" cy="516.9609" fill="#84BE84" rx="3" ry="3" style="stroke:#038048;stroke-width:1.0;"/><text fill="#000000" font-family="sans-serif" font-size="14" lengthAdjust="spacing" textLength="285" x="29" y="520.3076">unsetProviderEvent(eventId: string) : void</text><ellipse cx="20" cy="533.2578" fill="#84BE84" rx="3" ry="3" style="stroke:#038048;stroke-width:1.0;"/><text fill="#000000" font-family="sans-serif" font-size="14" font-style="italic" lengthAdjust="spacing" textLength="328" x="29" y="536.6045">updateInitialDate(start: string, end: string) : void</text><ellipse cx="20" cy="549.5547" fill="#84BE84" rx="3" ry="3" style="stroke:#038048;stroke-width:1.0;"/><text fill="#000000" font-family="sans-serif" font-size="14" lengthAdjust="spacing" textLength="311" x="29" y="552.9014">updatePrompt(promptMessage: string) : void</text><ellipse cx="20" cy="565.8516" fill="#84BE84" rx="3" ry="3" style="stroke:#038048;stroke-width:1.0;"/><text fill="#000000" font-family="sans-serif" font-size="14" lengthAdjust="spacing" textLength="374" x="29" y="569.1982">updateProviderEvents(providerInfo: ProviderInfo) : void</text><polygon fill="#FFFF44" points="20,577.1484,24,581.1484,20,585.1484,16,581.1484" style="stroke:#B38D22;stroke-width:1.0;"/><text fill="#000000" font-family="sans-serif" font-size="14" lengthAdjust="spacing" textLength="143" x="29" y="585.4951">addTodayBtn() : void</text><polygon fill="#FFFF44" points="20,593.4453,24,597.4453,20,601.4453,16,597.4453" style="stroke:#B38D22;stroke-width:1.0;"/><text fill="#000000" font-family="sans-serif" font-size="14" lengthAdjust="spacing" textLength="210" x="29" y="601.792">createProviderInstance() : void</text><polygon fill="#FFFF44" points="20,609.7422,24,613.7422,20,617.7422,16,613.7422" style="stroke:#B38D22;stroke-width:1.0;"/><text fill="#000000" font-family="sans-serif" font-size="14" lengthAdjust="spacing" textLength="121" x="29" y="618.0889">finishBuild() : void</text><polygon fill="#FFFF44" points="20,626.0391,24,630.0391,20,634.0391,16,630.0391" style="stroke:#B38D22;stroke-width:1.0;"/><text fill="#000000" font-family="sans-serif" font-size="14" lengthAdjust="spacing" textLength="153" x="29" y="634.3857">jumpIntoToday() : void</text><polygon fill="#FFFF44" points="20,642.3359,24,646.3359,20,650.3359,16,646.3359" style="stroke:#B38D22;stroke-width:1.0;"/><text fill="#000000" font-family="sans-serif" font-size="14" lengthAdjust="spacing" textLength="183" x="29" y="650.6826">onDatePickerClose() : void</text><polygon fill="#FFFF44" points="20,658.6328,24,662.6328,20,666.6328,16,662.6328" style="stroke:#B38D22;stroke-width:1.0;"/><text fill="#000000" font-family="sans-serif" font-size="14" font-style="italic" lengthAdjust="spacing" textLength="355" x="29" y="666.9795">onDateSelectedEvent(selectedDates: Date[]) : void</text><polygon fill="#FFFF44" points="20,674.9297,24,678.9297,20,682.9297,16,678.9297" style="stroke:#B38D22;stroke-width:1.0;"/><text fill="#000000" font-family="sans-serif" font-size="14" lengthAdjust="spacing" textLength="157" x="29" y="683.2764">prepareConfigs() : void</text><polygon fill="#FFFF44" points="20,691.2266,24,695.2266,20,699.2266,16,695.2266" style="stroke:#B38D22;stroke-width:1.0;"/><text fill="#000000" font-family="sans-serif" font-size="14" lengthAdjust="spacing" textLength="202" x="29" y="699.5732">prepareToAndRedraw() : void</text><polygon fill="#FFFF44" points="20,707.5234,24,711.5234,20,715.5234,16,711.5234" style="stroke:#B38D22;stroke-width:1.0;"/><text fill="#000000" font-family="sans-serif" font-size="14" lengthAdjust="spacing" textLength="98" x="29" y="715.8701">redraw() : void</text><polygon fill="#FFFF44" points="20,723.8203,24,727.8203,20,731.8203,16,727.8203" style="stroke:#B38D22;stroke-width:1.0;"/><text fill="#000000" font-family="sans-serif" font-size="14" lengthAdjust="spacing" textLength="180" x="29" y="732.167">setA11YProperties() : void</text><polygon fill="#FFFF44" points="20,740.1172,24,744.1172,20,748.1172,16,744.1172" style="stroke:#B38D22;stroke-width:1.0;"/><text fill="#000000" font-family="sans-serif" font-size="14" lengthAdjust="spacing" textLength="138" x="29" y="748.4639">setCallbacks() : void</text><polygon fill="#FFFF44" points="20,756.4141,24,760.4141,20,764.4141,16,760.4141" style="stroke:#B38D22;stroke-width:1.0;"/><text fill="#000000" font-family="sans-serif" font-size="14" lengthAdjust="spacing" textLength="169" x="29" y="764.7607">setHtmlElements() : void</text><polygon fill="#FFFF44" points="20,772.7109,24,776.7109,20,780.7109,16,776.7109" style="stroke:#B38D22;stroke-width:1.0;"/><text fill="#000000" font-family="sans-serif" font-size="14" font-style="italic" lengthAdjust="spacing" textLength="282" x="29" y="781.0576">todayBtnClick(event: MouseEvent) : void</text><polygon fill="#FFFF44" points="20,789.0078,24,793.0078,20,797.0078,16,793.0078" style="stroke:#B38D22;stroke-width:1.0;"/><text fill="#000000" font-family="sans-serif" font-size="14" lengthAdjust="spacing" textLength="569" x="29" y="797.3545">triggerPlatformEventCallback(platFormCallback: OSGeneric, args: unknown[]) : void</text><polygon fill="#FFFF44" points="20,805.3047,24,809.3047,20,813.3047,16,809.3047" style="stroke:#B38D22;stroke-width:1.0;"/><text fill="#000000" font-family="sans-serif" font-size="14" lengthAdjust="spacing" textLength="311" x="29" y="813.6514">triggerPlatformInitializedEventCallback() : void</text><polygon fill="#FFFF44" points="20,821.6016,24,825.6016,20,829.6016,16,825.6016" style="stroke:#B38D22;stroke-width:1.0;"/><text fill="#000000" font-family="sans-serif" font-size="14" lengthAdjust="spacing" textLength="156" x="29" y="829.9482">unsetCallbacks() : void</text><polygon fill="#FFFF44" points="20,837.8984,24,841.8984,20,845.8984,16,841.8984" style="stroke:#B38D22;stroke-width:1.0;"/><text fill="#000000" font-family="sans-serif" font-size="14" lengthAdjust="spacing" textLength="199" x="29" y="846.2451">unsetGlobalCallbacks() : void</text><polygon fill="#FFFF44" points="20,854.1953,24,858.1953,20,862.1953,16,858.1953" style="stroke:#B38D22;stroke-width:1.0;"/><text fill="#000000" font-family="sans-serif" font-size="14" lengthAdjust="spacing" textLength="187" x="29" y="862.542">unsetHtmlElements() : void</text><polygon fill="#FFFF44" points="20,870.4922,24,874.4922,20,878.4922,16,874.4922" style="stroke:#B38D22;stroke-width:1.0;"/><text fill="#000000" font-family="sans-serif" font-size="14" font-style="italic" lengthAdjust="spacing" textLength="224" x="29" y="878.8389">updatePlatformInputAttrs() : void</text><rect fill="#F24D5C" height="6" style="stroke:#C82930;stroke-width:1.0;" width="6" x="17" y="888.7891"/><text fill="#000000" font-family="sans-serif" font-size="14" lengthAdjust="spacing" textLength="147" x="29" y="895.1357">_setAttributes() : void</text><rect fill="#F24D5C" height="6" style="stroke:#C82930;stroke-width:1.0;" width="6" x="17" y="905.0859"/><text fill="#000000" font-family="sans-serif" font-size="14" lengthAdjust="spacing" textLength="221" x="29" y="911.4326">_setCalendarCssClasses() : void</text><rect fill="#F24D5C" height="6" style="stroke:#C82930;stroke-width:1.0;" width="6" x="17" y="921.3828"/><text fill="#000000" font-family="sans-serif" font-size="14" lengthAdjust="spacing" textLength="194" x="29" y="927.7295">_setParentMinHeight() : void</text><rect fill="#F24D5C" height="6" style="stroke:#C82930;stroke-width:1.0;" width="6" x="17" y="937.6797"/><text fill="#000000" font-family="sans-serif" font-size="14" lengthAdjust="spacing" textLength="328" x="29" y="944.0264">_todayButtonKeydown(e: KeyboardEvent) : void</text><rect fill="#F24D5C" height="6" style="stroke:#C82930;stroke-width:1.0;" width="6" x="17" y="953.9766"/><text fill="#000000" font-family="sans-serif" font-size="14" lengthAdjust="spacing" textLength="212" x="29" y="960.3232">_unsetParentMinHeight() : void</text></g><!--reverse link AbstractFlatpickr<FlatpickrSingleDateConfig> to OSUIFlatpickrSingleDate--><g id="link_AbstractFlatpickr&lt;FlatpickrSingleDateConfig&gt;_OSUIFlatpickrSingleDate"><path codeLine="116" d="M362.5,986.09 C362.5,1006.09 362.5,1008.1 362.5,1027.97 " fill="none" id="AbstractFlatpickr&lt;FlatpickrSingleDateConfig&gt;-backto-OSUIFlatpickrSingleDate" style="stroke:#272B30;stroke-width:1.0;"/><polygon fill="none" points="362.5,968.09,356.5,986.09,368.5,986.09,362.5,968.09" style="stroke:#272B30;stroke-width:1.0;"/></g><!--SRC=[xLXVRzis47_tfn3g5nMDWQKRCC0e1jXAqXXhQcDsDsp3453YMMPD7LMISkfs-UuxIPGjIxBNzB5rNYBU_Uulxuu7cxN0b6cMU85aneoqLW-1aafx_PS_lmn__A5d3X5ZfJdeqn0MhMEjCkGEjbmkQvWMEmB-4sUzbU3WGPBQhPU0NIbkwgIb04cKA3VWFPlEtqrk9BEfYDPwBZ2MSCKiFFC-zppwUw4maCf0a1chae196P9HR-Wnt1Q0FYVqZ8H1pqZDKkbaWcbchoKa1BjTtBtPdG5jAREi33u1Easj8THDxImKcX8bp4oh3SMenym09roeb0I69LlX72H45dWLmVM6B11iEfzYi68OGq4fuQdJLP3C7KCM0xbgBCC8I6WogmCSln0Tt0lpBirJmYSeh60oJ-Pu6qX1o56KkznmxaMO2SdzvqJUAC5BMbIuH6PIq7Rhf-xZBKjWw1chwPukl8hwEvCPaJDSeth0fYA8rYFEWH_uRFmEs0oGa-BJGF9RjsXK80qQ5uQ5UIbjZL_xhfp_-vzE-1y0wxf8THvwc2KXw0wnj6qRFcHCceMQNFafinOqJdXb-7ap-vH2RCXhY8KXiQfMVCWpSPZxoF7o2deD25f4XqeCs6ikR1v5KTI-CDLvvq5BuWtTUaR5v6_AAztxV02hRYXGk1InyH4Ut6UxFuuA5zTxEZGNs0MLblYGmJwB5vvXcx9ZZWHZLKoJv2spOWDZMB6DK9fIK1AEo6JOxTxXxTNmHQFL-knKsaemQQSPcFSJ_Ri3OoZP_uElzq8r62QuL4DlLZiT2FSPvml5sNPi6xNLZpJKr5OpfG5Q2XHcDMxFXVxxB4adQ5MXlS5JUBKRnK6x9Hs_6eHbVeqxvHmgdlnVeyTe60AzDb3LMYTpeKR8VmEksKC3eBk8TCsZoyi_tNWJODhyglSwMBSsaUw9Q7AjIpgDswfjXzwToanPgmsm5d6yVxKAnAxbKwBU43Lez_c5ntJUQMxUDlFLKElAKtnoATzPE9GgQlzOq0NpjLGXaoSX9pBZohd-Ge-irGtOuBvu2EejjUC_zbX8ZS8YwxdLOUJEkv7pgcEHAElcb_C-yPNx1BkytEO3Xl9ecQ02h4LN3snm7og-dKTQIHce957encwc2Ltk93DbH1xa54kS4wpSkr5HPkOfmmKLEDXE8sM7PTOgFEh89u4SFXuuiVVXhu9vtdpEcyytklaySOlvN4tLnww5XaQ4jdlRLARdxQPpkwcbyJjOTEhHddUUBqZIbwu_-OKHNOIPXIuckK8zo7HWJF43JITeHeL2pxZ0Mn3noZOHjIVqLzXoIgTFNKgVeMAQjozjS5-Eb6DQ7tjFtCHU_JiO7F_Xvpy0]--></g></svg>