<?xml version="1.0" encoding="us-ascii" standalone="no"?><svg xmlns="http://www.w3.org/2000/svg" xmlns:xlink="http://www.w3.org/1999/xlink" contentStyleType="text/css" height="1505px" preserveAspectRatio="none" style="width:710px;height:1505px;background:#CED4DA;" version="1.1" viewBox="0 0 710 1505" width="710px" zoomAndPan="magnify"><defs/><g><rect fill="#CED4DA" height="1505" style="stroke:none;stroke-width:1.0;" width="710" x="0" y="0"/><!--class OSUINoUiSliderSingle--><g id="elem_OSUINoUiSliderSingle"><rect codeLine="7" fill="#FFFFFF" height="691.043" id="OSUINoUiSliderSingle" rx="2.5" ry="2.5" style="stroke:#272B30;stroke-width:0.5;" width="694" x="9" y="807.51"/><ellipse cx="278.25" cy="823.51" fill="#ADD1B2" rx="11" ry="11" style="stroke:#181818;stroke-width:1.0;"/><path d="M280.7231,829.6531 Q280.1421,829.9519 279.5029,830.1013 Q278.8638,830.2507 278.1582,830.2507 Q275.6514,830.2507 274.3315,828.5989 Q273.0117,826.947 273.0117,823.8259 Q273.0117,820.6965 274.3315,819.0447 Q275.6514,817.3928 278.1582,817.3928 Q278.8638,817.3928 279.5112,817.5422 Q280.1587,817.6916 280.7231,817.9905 L280.7231,820.7131 Q280.0923,820.1321 279.4988,819.8623 Q278.9053,819.5925 278.2744,819.5925 Q276.9297,819.5925 276.2449,820.6592 Q275.5601,821.7258 275.5601,823.8259 Q275.5601,825.9177 276.2449,826.9844 Q276.9297,828.051 278.2744,828.051 Q278.9053,828.051 279.4988,827.7812 Q280.0923,827.5115 280.7231,826.9304 Z " fill="#000000"/><text fill="#000000" font-family="sans-serif" font-size="14" lengthAdjust="spacing" textLength="147" x="298.75" y="828.801">OSUINoUiSliderSingle</text><line style="stroke:#272B30;stroke-width:0.5;" x1="10" x2="702" y1="839.51" y2="839.51"/><polygon fill="none" points="20,848.2541,24,852.2541,20,856.2541,16,852.2541" style="stroke:#B38D22;stroke-width:1.0;"/><text fill="#000000" font-family="sans-serif" font-size="14" lengthAdjust="spacing" textLength="258" x="29" y="857.0452">eventProviderValueChanged : Generic</text><polygon fill="none" points="20,864.7424,24,868.7424,20,872.7424,16,868.7424" style="stroke:#B38D22;stroke-width:1.0;"/><text fill="#000000" font-family="sans-serif" font-size="14" lengthAdjust="spacing" textLength="176" x="29" y="873.5334">isProviderBased : boolean</text><polygon fill="none" points="20,881.2307,24,885.2307,20,889.2307,16,885.2307" style="stroke:#B38D22;stroke-width:1.0;"/><text fill="#000000" font-family="sans-serif" font-size="14" lengthAdjust="spacing" textLength="169" x="29" y="890.0217">noUiSliderOpts : Options</text><polygon fill="none" points="20,897.719,24,901.719,20,905.719,16,901.719" style="stroke:#B38D22;stroke-width:1.0;"/><text fill="#000000" font-family="sans-serif" font-size="14" lengthAdjust="spacing" textLength="366" x="29" y="906.51">platformEventValueChange : OSOnValueChangeEvent</text><polygon fill="none" points="20,914.2073,24,918.2073,20,922.2073,16,918.2073" style="stroke:#B38D22;stroke-width:1.0;"/><text fill="#000000" font-family="sans-serif" font-size="14" lengthAdjust="spacing" textLength="389" x="29" y="922.9983">providerEventsManagerInstance : IProviderEventManager</text><polygon fill="none" points="20,930.6955,24,934.6955,20,938.6955,16,934.6955" style="stroke:#B38D22;stroke-width:1.0;"/><text fill="#000000" font-family="sans-serif" font-size="14" lengthAdjust="spacing" textLength="127" x="29" y="939.4866">throttleTimer : any</text><polygon fill="none" points="20,947.1838,24,951.1838,20,955.1838,16,951.1838" style="stroke:#B38D22;stroke-width:1.0;"/><text fill="#000000" font-family="sans-serif" font-size="14" lengthAdjust="spacing" textLength="189" x="29" y="955.9748">throttleTimeValue : number</text><line style="stroke:#272B30;stroke-width:0.5;" x1="10" x2="702" y1="962.928" y2="962.928"/><ellipse cx="20" cy="976.6721" fill="#84BE84" rx="3" ry="3" style="stroke:#038048;stroke-width:1.0;"/><text fill="#000000" font-family="sans-serif" font-size="14" lengthAdjust="spacing" textLength="86" x="29" y="980.4631">build() : void</text><ellipse cx="20" cy="993.1604" fill="#84BE84" rx="3" ry="3" style="stroke:#038048;stroke-width:1.0;"/><text fill="#000000" font-family="sans-serif" font-size="14" lengthAdjust="spacing" textLength="482" x="29" y="996.9514">changeProperty(propertyName: string, propertyValue: unknown) : void</text><ellipse cx="20" cy="1009.6487" fill="#84BE84" rx="3" ry="3" style="stroke:#038048;stroke-width:1.0;"/><text fill="#000000" font-family="sans-serif" font-size="14" lengthAdjust="spacing" textLength="236" x="29" y="1013.4397">checkAddedProviderEvents() : void</text><ellipse cx="20" cy="1026.137" fill="#84BE84" rx="3" ry="3" style="stroke:#038048;stroke-width:1.0;"/><text fill="#000000" font-family="sans-serif" font-size="14" lengthAdjust="spacing" textLength="247" x="29" y="1029.928">checkPendingProviderEvents() : void</text><ellipse cx="20" cy="1042.6252" fill="#84BE84" rx="3" ry="3" style="stroke:#038048;stroke-width:1.0;"/><text fill="#000000" font-family="sans-serif" font-size="14" lengthAdjust="spacing" textLength="100" x="29" y="1046.4163">disable() : void</text><ellipse cx="20" cy="1059.1135" fill="#84BE84" rx="3" ry="3" style="stroke:#038048;stroke-width:1.0;"/><text fill="#000000" font-family="sans-serif" font-size="14" lengthAdjust="spacing" textLength="104" x="29" y="1062.9045">dispose() : void</text><ellipse cx="20" cy="1075.6018" fill="#84BE84" rx="3" ry="3" style="stroke:#038048;stroke-width:1.0;"/><text fill="#000000" font-family="sans-serif" font-size="14" lengthAdjust="spacing" textLength="97" x="29" y="1079.3928">enable() : void</text><ellipse cx="20" cy="1092.0901" fill="#84BE84" rx="3" ry="3" style="stroke:#038048;stroke-width:1.0;"/><text fill="#000000" font-family="sans-serif" font-size="14" lengthAdjust="spacing" textLength="266" x="29" y="1095.8811">equalsToID(patternId: string) : boolean</text><ellipse cx="20" cy="1108.5784" fill="#84BE84" rx="3" ry="3" style="stroke:#038048;stroke-width:1.0;"/><text fill="#000000" font-family="sans-serif" font-size="14" lengthAdjust="spacing" textLength="213" x="29" y="1112.3694">getValue() : number | number[]</text><ellipse cx="20" cy="1125.0666" fill="#84BE84" rx="3" ry="3" style="stroke:#038048;stroke-width:1.0;"/><text fill="#000000" font-family="sans-serif" font-size="14" lengthAdjust="spacing" textLength="428" x="29" y="1128.8577">registerCallback(eventName: string, callback: OSGeneric) : void</text><ellipse cx="20" cy="1141.5549" fill="#84BE84" rx="3" ry="3" style="stroke:#038048;stroke-width:1.0;"/><text fill="#000000" font-family="sans-serif" font-size="14" lengthAdjust="spacing" textLength="123" x="29" y="1145.3459">resetValue() : void</text><ellipse cx="20" cy="1158.0432" fill="#84BE84" rx="3" ry="3" style="stroke:#038048;stroke-width:1.0;"/><text fill="#000000" font-family="sans-serif" font-size="14" lengthAdjust="spacing" textLength="324" x="29" y="1161.8342">setProviderConfigs(newConfigs: Options) : void</text><ellipse cx="20" cy="1174.5315" fill="#84BE84" rx="3" ry="3" style="stroke:#038048;stroke-width:1.0;"/><text fill="#000000" font-family="sans-serif" font-size="14" lengthAdjust="spacing" textLength="668" x="29" y="1178.3225">setProviderEvent(eventName: string, callback: Generic, uniqueId: string, saveEvent: boolean) : void</text><ellipse cx="20" cy="1191.0198" fill="#84BE84" rx="3" ry="3" style="stroke:#038048;stroke-width:1.0;"/><text fill="#000000" font-family="sans-serif" font-size="14" lengthAdjust="spacing" textLength="297" x="29" y="1194.8108">setRangeIntervalChangeOnDragEnd() : void</text><ellipse cx="20" cy="1207.508" fill="#84BE84" rx="3" ry="3" style="stroke:#038048;stroke-width:1.0;"/><text fill="#000000" font-family="sans-serif" font-size="14" lengthAdjust="spacing" textLength="207" x="29" y="1211.2991">setValue(value: number) : void</text><ellipse cx="20" cy="1223.9963" fill="#84BE84" rx="3" ry="3" style="stroke:#038048;stroke-width:1.0;"/><text fill="#000000" font-family="sans-serif" font-size="14" lengthAdjust="spacing" textLength="281" x="29" y="1227.7873">unsetProviderEvent(eventId: string) : void</text><ellipse cx="20" cy="1240.4846" fill="#84BE84" rx="3" ry="3" style="stroke:#038048;stroke-width:1.0;"/><text fill="#000000" font-family="sans-serif" font-size="14" lengthAdjust="spacing" textLength="377" x="29" y="1244.2756">updateProviderEvents(providerInfo: ProviderInfo) : void</text><polygon fill="#FFFF44" points="20,1251.9729,24,1255.9729,20,1259.9729,16,1255.9729" style="stroke:#B38D22;stroke-width:1.0;"/><text fill="#000000" font-family="sans-serif" font-size="14" lengthAdjust="spacing" textLength="123" x="29" y="1260.7639">finishBuild() : void</text><polygon fill="#FFFF44" points="20,1268.4612,24,1272.4612,20,1276.4612,16,1272.4612" style="stroke:#B38D22;stroke-width:1.0;"/><text fill="#000000" font-family="sans-serif" font-size="14" lengthAdjust="spacing" textLength="158" x="29" y="1277.2522">prepareConfigs() : void</text><polygon fill="#FFFF44" points="20,1284.9495,24,1288.9495,20,1292.9495,16,1288.9495" style="stroke:#B38D22;stroke-width:1.0;"/><text fill="#000000" font-family="sans-serif" font-size="14" lengthAdjust="spacing" textLength="99" x="29" y="1293.7405">redraw() : void</text><polygon fill="#FFFF44" points="20,1301.4377,24,1305.4377,20,1309.4377,16,1305.4377" style="stroke:#B38D22;stroke-width:1.0;"/><text fill="#000000" font-family="sans-serif" font-size="14" lengthAdjust="spacing" textLength="178" x="29" y="1310.2288">setA11YProperties() : void</text><polygon fill="#FFFF44" points="20,1317.926,24,1321.926,20,1325.926,16,1321.926" style="stroke:#B38D22;stroke-width:1.0;"/><text fill="#000000" font-family="sans-serif" font-size="14" lengthAdjust="spacing" textLength="136" x="29" y="1326.717">setCallbacks() : void</text><polygon fill="#FFFF44" points="20,1334.4143,24,1338.4143,20,1342.4143,16,1338.4143" style="stroke:#B38D22;stroke-width:1.0;"/><text fill="#000000" font-family="sans-serif" font-size="14" lengthAdjust="spacing" textLength="165" x="29" y="1343.2053">setHtmlElements() : void</text><polygon fill="#FFFF44" points="20,1350.9026,24,1354.9026,20,1358.9026,16,1354.9026" style="stroke:#B38D22;stroke-width:1.0;"/><text fill="#000000" font-family="sans-serif" font-size="14" lengthAdjust="spacing" textLength="186" x="29" y="1359.6936">setInitialCSSClasses() : void</text><polygon fill="#FFFF44" points="20,1367.3909,24,1371.3909,20,1375.3909,16,1371.3909" style="stroke:#B38D22;stroke-width:1.0;"/><text fill="#000000" font-family="sans-serif" font-size="14" lengthAdjust="spacing" textLength="570" x="29" y="1376.1819">triggerPlatformEventCallback(platFormCallback: OSGeneric, args: unknown[]) : void</text><polygon fill="#FFFF44" points="20,1383.8791,24,1387.8791,20,1391.8791,16,1387.8791" style="stroke:#B38D22;stroke-width:1.0;"/><text fill="#000000" font-family="sans-serif" font-size="14" lengthAdjust="spacing" textLength="318" x="29" y="1392.6702">triggerPlatformInitializedEventCallback() : void</text><polygon fill="#FFFF44" points="20,1400.3674,24,1404.3674,20,1408.3674,16,1404.3674" style="stroke:#B38D22;stroke-width:1.0;"/><text fill="#000000" font-family="sans-serif" font-size="14" lengthAdjust="spacing" textLength="154" x="29" y="1409.1584">unsetCallbacks() : void</text><polygon fill="#FFFF44" points="20,1416.8557,24,1420.8557,20,1424.8557,16,1420.8557" style="stroke:#B38D22;stroke-width:1.0;"/><text fill="#000000" font-family="sans-serif" font-size="14" lengthAdjust="spacing" textLength="198" x="29" y="1425.6467">unsetGlobalCallbacks() : void</text><polygon fill="#FFFF44" points="20,1433.344,24,1437.344,20,1441.344,16,1437.344" style="stroke:#B38D22;stroke-width:1.0;"/><text fill="#000000" font-family="sans-serif" font-size="14" lengthAdjust="spacing" textLength="183" x="29" y="1442.135">unsetHtmlElements() : void</text><rect fill="#F24D5C" height="6" style="stroke:#C82930;stroke-width:1.0;" width="6" x="17" y="1451.8323"/><text fill="#000000" font-family="sans-serif" font-size="14" lengthAdjust="spacing" textLength="207" x="29" y="1458.6233">createProviderInstance() : void</text><rect fill="#F24D5C" height="6" style="stroke:#C82930;stroke-width:1.0;" width="6" x="17" y="1468.3205"/><text fill="#000000" font-family="sans-serif" font-size="14" lengthAdjust="spacing" textLength="150" x="29" y="1475.1116">setInitialStates() : void</text><rect fill="#F24D5C" height="6" style="stroke:#C82930;stroke-width:1.0;" width="6" x="17" y="1484.8088"/><text fill="#000000" font-family="sans-serif" font-size="14" lengthAdjust="spacing" textLength="313" x="29" y="1491.5998">_valueChangeCallback(value: number[]) : void</text></g><!--class AbstractNoUiSlider<NoUiSliderSingleConfig>--><g id="elem_AbstractNoUiSlider&lt;NoUiSliderSingleConfig&gt;"><rect codeLine="48" fill="#FFFFFF" height="740.5078" id="AbstractNoUiSlider&lt;NoUiSliderSingleConfig&gt;" rx="2.5" ry="2.5" style="stroke:#272B30;stroke-width:0.5;" width="694" x="9" y="7"/><ellipse cx="196.25" cy="23" fill="#A9DCDF" rx="11" ry="11" style="stroke:#181818;stroke-width:1.0;"/><path d="M196.1133,18.3481 L194.9595,23.4199 L197.2754,23.4199 Z M194.6191,16.1069 L197.6157,16.1069 L200.9609,28.5 L198.5122,28.5 L197.7485,25.437 L194.4697,25.437 L193.7227,28.5 L191.2739,28.5 Z " fill="#000000"/><text fill="#000000" font-family="sans-serif" font-size="14" font-style="italic" lengthAdjust="spacing" textLength="311" x="216.75" y="28.291">AbstractNoUiSlider&lt;NoUiSliderSingleConfig&gt;</text><line style="stroke:#272B30;stroke-width:0.5;" x1="10" x2="702" y1="39" y2="39"/><polygon fill="none" points="20,47.7441,24,51.7441,20,55.7441,16,51.7441" style="stroke:#B38D22;stroke-width:1.0;"/><text fill="#000000" font-family="sans-serif" font-size="14" lengthAdjust="spacing" textLength="258" x="29" y="56.5352">eventProviderValueChanged : Generic</text><polygon fill="none" points="20,64.2324,24,68.2324,20,72.2324,16,68.2324" style="stroke:#B38D22;stroke-width:1.0;"/><text fill="#000000" font-family="sans-serif" font-size="14" lengthAdjust="spacing" textLength="176" x="29" y="73.0234">isProviderBased : boolean</text><polygon fill="none" points="20,80.7207,24,84.7207,20,88.7207,16,84.7207" style="stroke:#B38D22;stroke-width:1.0;"/><text fill="#000000" font-family="sans-serif" font-size="14" lengthAdjust="spacing" textLength="169" x="29" y="89.5117">noUiSliderOpts : Options</text><polygon fill="none" points="20,97.209,24,101.209,20,105.209,16,101.209" style="stroke:#B38D22;stroke-width:1.0;"/><text fill="#000000" font-family="sans-serif" font-size="14" lengthAdjust="spacing" textLength="366" x="29" y="106">platformEventValueChange : OSOnValueChangeEvent</text><polygon fill="none" points="20,113.6973,24,117.6973,20,121.6973,16,117.6973" style="stroke:#B38D22;stroke-width:1.0;"/><text fill="#000000" font-family="sans-serif" font-size="14" lengthAdjust="spacing" textLength="389" x="29" y="122.4883">providerEventsManagerInstance : IProviderEventManager</text><polygon fill="none" points="20,130.1855,24,134.1855,20,138.1855,16,134.1855" style="stroke:#B38D22;stroke-width:1.0;"/><text fill="#000000" font-family="sans-serif" font-size="14" lengthAdjust="spacing" textLength="127" x="29" y="138.9766">throttleTimer : any</text><polygon fill="none" points="20,146.6738,24,150.6738,20,154.6738,16,150.6738" style="stroke:#B38D22;stroke-width:1.0;"/><text fill="#000000" font-family="sans-serif" font-size="14" lengthAdjust="spacing" textLength="189" x="29" y="155.4648">throttleTimeValue : number</text><rect fill="none" height="6" style="stroke:#C82930;stroke-width:1.0;" width="6" x="17" y="165.1621"/><text fill="#000000" font-family="sans-serif" font-size="14" lengthAdjust="spacing" textLength="137" x="29" y="171.9531">_isInterval : boolean</text><rect fill="none" height="6" style="stroke:#C82930;stroke-width:1.0;" width="6" x="17" y="181.6504"/><text fill="#000000" font-family="sans-serif" font-size="14" lengthAdjust="spacing" textLength="281" x="29" y="188.4414">_rangeSliderProviderElem : HTMLElement</text><line style="stroke:#272B30;stroke-width:0.5;" x1="10" x2="702" y1="195.3945" y2="195.3945"/><ellipse cx="20" cy="209.1387" fill="#84BE84" rx="3" ry="3" style="stroke:#038048;stroke-width:1.0;"/><text fill="#000000" font-family="sans-serif" font-size="14" lengthAdjust="spacing" textLength="86" x="29" y="212.9297">build() : void</text><ellipse cx="20" cy="225.627" fill="#84BE84" rx="3" ry="3" style="stroke:#038048;stroke-width:1.0;"/><text fill="#000000" font-family="sans-serif" font-size="14" lengthAdjust="spacing" textLength="482" x="29" y="229.418">changeProperty(propertyName: string, propertyValue: unknown) : void</text><ellipse cx="20" cy="242.1152" fill="#84BE84" rx="3" ry="3" style="stroke:#038048;stroke-width:1.0;"/><text fill="#000000" font-family="sans-serif" font-size="14" lengthAdjust="spacing" textLength="236" x="29" y="245.9063">checkAddedProviderEvents() : void</text><ellipse cx="20" cy="258.6035" fill="#84BE84" rx="3" ry="3" style="stroke:#038048;stroke-width:1.0;"/><text fill="#000000" font-family="sans-serif" font-size="14" lengthAdjust="spacing" textLength="247" x="29" y="262.3945">checkPendingProviderEvents() : void</text><ellipse cx="20" cy="275.0918" fill="#84BE84" rx="3" ry="3" style="stroke:#038048;stroke-width:1.0;"/><text fill="#000000" font-family="sans-serif" font-size="14" lengthAdjust="spacing" textLength="100" x="29" y="278.8828">disable() : void</text><ellipse cx="20" cy="291.5801" fill="#84BE84" rx="3" ry="3" style="stroke:#038048;stroke-width:1.0;"/><text fill="#000000" font-family="sans-serif" font-size="14" lengthAdjust="spacing" textLength="104" x="29" y="295.3711">dispose() : void</text><ellipse cx="20" cy="308.0684" fill="#84BE84" rx="3" ry="3" style="stroke:#038048;stroke-width:1.0;"/><text fill="#000000" font-family="sans-serif" font-size="14" lengthAdjust="spacing" textLength="97" x="29" y="311.8594">enable() : void</text><ellipse cx="20" cy="324.5566" fill="#84BE84" rx="3" ry="3" style="stroke:#038048;stroke-width:1.0;"/><text fill="#000000" font-family="sans-serif" font-size="14" lengthAdjust="spacing" textLength="266" x="29" y="328.3477">equalsToID(patternId: string) : boolean</text><ellipse cx="20" cy="341.0449" fill="#84BE84" rx="3" ry="3" style="stroke:#038048;stroke-width:1.0;"/><text fill="#000000" font-family="sans-serif" font-size="14" lengthAdjust="spacing" textLength="213" x="29" y="344.8359">getValue() : number | number[]</text><ellipse cx="20" cy="357.5332" fill="#84BE84" rx="3" ry="3" style="stroke:#038048;stroke-width:1.0;"/><text fill="#000000" font-family="sans-serif" font-size="14" lengthAdjust="spacing" textLength="428" x="29" y="361.3242">registerCallback(eventName: string, callback: OSGeneric) : void</text><ellipse cx="20" cy="374.0215" fill="#84BE84" rx="3" ry="3" style="stroke:#038048;stroke-width:1.0;"/><text fill="#000000" font-family="sans-serif" font-size="14" lengthAdjust="spacing" textLength="324" x="29" y="377.8125">setProviderConfigs(newConfigs: Options) : void</text><ellipse cx="20" cy="390.5098" fill="#84BE84" rx="3" ry="3" style="stroke:#038048;stroke-width:1.0;"/><text fill="#000000" font-family="sans-serif" font-size="14" lengthAdjust="spacing" textLength="668" x="29" y="394.3008">setProviderEvent(eventName: string, callback: Generic, uniqueId: string, saveEvent: boolean) : void</text><ellipse cx="20" cy="406.998" fill="#84BE84" rx="3" ry="3" style="stroke:#038048;stroke-width:1.0;"/><text fill="#000000" font-family="sans-serif" font-size="14" lengthAdjust="spacing" textLength="297" x="29" y="410.7891">setRangeIntervalChangeOnDragEnd() : void</text><ellipse cx="20" cy="423.4863" fill="#84BE84" rx="3" ry="3" style="stroke:#038048;stroke-width:1.0;"/><text fill="#000000" font-family="sans-serif" font-size="14" lengthAdjust="spacing" textLength="281" x="29" y="427.2773">unsetProviderEvent(eventId: string) : void</text><ellipse cx="20" cy="439.9746" fill="#84BE84" rx="3" ry="3" style="stroke:#038048;stroke-width:1.0;"/><text fill="#000000" font-family="sans-serif" font-size="14" lengthAdjust="spacing" textLength="377" x="29" y="443.7656">updateProviderEvents(providerInfo: ProviderInfo) : void</text><polygon fill="#FFFF44" points="20,451.4629,24,455.4629,20,459.4629,16,455.4629" style="stroke:#B38D22;stroke-width:1.0;"/><text fill="#000000" font-family="sans-serif" font-size="14" lengthAdjust="spacing" textLength="123" x="29" y="460.2539">finishBuild() : void</text><polygon fill="#FFFF44" points="20,467.9512,24,471.9512,20,475.9512,16,471.9512" style="stroke:#B38D22;stroke-width:1.0;"/><text fill="#000000" font-family="sans-serif" font-size="14" font-style="italic" lengthAdjust="spacing" textLength="158" x="29" y="476.7422">prepareConfigs() : void</text><polygon fill="#FFFF44" points="20,484.4395,24,488.4395,20,492.4395,16,488.4395" style="stroke:#B38D22;stroke-width:1.0;"/><text fill="#000000" font-family="sans-serif" font-size="14" lengthAdjust="spacing" textLength="99" x="29" y="493.2305">redraw() : void</text><polygon fill="#FFFF44" points="20,500.9277,24,504.9277,20,508.9277,16,504.9277" style="stroke:#B38D22;stroke-width:1.0;"/><text fill="#000000" font-family="sans-serif" font-size="14" font-style="italic" lengthAdjust="spacing" textLength="178" x="29" y="509.7188">setA11YProperties() : void</text><polygon fill="#FFFF44" points="20,517.416,24,521.416,20,525.416,16,521.416" style="stroke:#B38D22;stroke-width:1.0;"/><text fill="#000000" font-family="sans-serif" font-size="14" font-style="italic" lengthAdjust="spacing" textLength="136" x="29" y="526.207">setCallbacks() : void</text><polygon fill="#FFFF44" points="20,533.9043,24,537.9043,20,541.9043,16,537.9043" style="stroke:#B38D22;stroke-width:1.0;"/><text fill="#000000" font-family="sans-serif" font-size="14" lengthAdjust="spacing" textLength="165" x="29" y="542.6953">setHtmlElements() : void</text><polygon fill="#FFFF44" points="20,550.3926,24,554.3926,20,558.3926,16,554.3926" style="stroke:#B38D22;stroke-width:1.0;"/><text fill="#000000" font-family="sans-serif" font-size="14" lengthAdjust="spacing" textLength="186" x="29" y="559.1836">setInitialCSSClasses() : void</text><polygon fill="#FFFF44" points="20,566.8809,24,570.8809,20,574.8809,16,570.8809" style="stroke:#B38D22;stroke-width:1.0;"/><text fill="#000000" font-family="sans-serif" font-size="14" lengthAdjust="spacing" textLength="570" x="29" y="575.6719">triggerPlatformEventCallback(platFormCallback: OSGeneric, args: unknown[]) : void</text><polygon fill="#FFFF44" points="20,583.3691,24,587.3691,20,591.3691,16,587.3691" style="stroke:#B38D22;stroke-width:1.0;"/><text fill="#000000" font-family="sans-serif" font-size="14" lengthAdjust="spacing" textLength="318" x="29" y="592.1602">triggerPlatformInitializedEventCallback() : void</text><polygon fill="#FFFF44" points="20,599.8574,24,603.8574,20,607.8574,16,603.8574" style="stroke:#B38D22;stroke-width:1.0;"/><text fill="#000000" font-family="sans-serif" font-size="14" lengthAdjust="spacing" textLength="154" x="29" y="608.6484">unsetCallbacks() : void</text><polygon fill="#FFFF44" points="20,616.3457,24,620.3457,20,624.3457,16,620.3457" style="stroke:#B38D22;stroke-width:1.0;"/><text fill="#000000" font-family="sans-serif" font-size="14" lengthAdjust="spacing" textLength="198" x="29" y="625.1367">unsetGlobalCallbacks() : void</text><polygon fill="#FFFF44" points="20,632.834,24,636.834,20,640.834,16,636.834" style="stroke:#B38D22;stroke-width:1.0;"/><text fill="#000000" font-family="sans-serif" font-size="14" lengthAdjust="spacing" textLength="183" x="29" y="641.625">unsetHtmlElements() : void</text><rect fill="#F24D5C" height="6" style="stroke:#C82930;stroke-width:1.0;" width="6" x="17" y="651.3223"/><text fill="#000000" font-family="sans-serif" font-size="14" lengthAdjust="spacing" textLength="207" x="29" y="658.1133">createProviderInstance() : void</text><rect fill="#F24D5C" height="6" style="stroke:#C82930;stroke-width:1.0;" width="6" x="17" y="667.8105"/><text fill="#000000" font-family="sans-serif" font-size="14" lengthAdjust="spacing" textLength="150" x="29" y="674.6016">setInitialStates() : void</text><rect fill="#F24D5C" height="6" style="stroke:#C82930;stroke-width:1.0;" width="6" x="17" y="684.2988"/><text fill="#000000" font-family="sans-serif" font-size="14" lengthAdjust="spacing" textLength="282" x="29" y="691.0898">_setIsDisabled(isDisabled: boolean) : void</text><rect fill="#F24D5C" height="6" style="stroke:#C82930;stroke-width:1.0;" width="6" x="17" y="700.7871"/><text fill="#000000" font-family="sans-serif" font-size="14" lengthAdjust="spacing" textLength="437" x="29" y="707.5781">_setOnValueChangeEvent(changeEvent: NoUISliderEvents) : void</text><rect fill="#F24D5C" height="6" style="stroke:#C82930;stroke-width:1.0;" width="6" x="17" y="717.2754"/><text fill="#000000" font-family="sans-serif" font-size="14" lengthAdjust="spacing" textLength="106" x="29" y="724.0664">_setSize() : void</text><rect fill="#F24D5C" height="6" style="stroke:#C82930;stroke-width:1.0;" width="6" x="17" y="733.7637"/><text fill="#000000" font-family="sans-serif" font-size="14" lengthAdjust="spacing" textLength="194" x="29" y="740.5547">_updateRangeValues() : void</text></g><!--reverse link AbstractNoUiSlider<NoUiSliderSingleConfig> to OSUINoUiSliderSingle--><g id="link_AbstractNoUiSlider&lt;NoUiSliderSingleConfig&gt;_OSUINoUiSliderSingle"><path codeLine="92" d="M356,765.86 C356,785.59 356,787.38 356,807.02 " fill="none" id="AbstractNoUiSlider&lt;NoUiSliderSingleConfig&gt;-backto-OSUINoUiSliderSingle" style="stroke:#272B30;stroke-width:1.0;"/><polygon fill="none" points="356,747.86,350,765.86,362,765.86,356,747.86" style="stroke:#272B30;stroke-width:1.0;"/></g><!--SRC=[xLTRQzim57xFhn3jYqiJMBl189H1cdQjOMt2t0v6AKMsZXqHMN8bEQ5h-zydMtBYIvAnFPNHl4GvvpjNVJg7g3db6POuHME6bHf9APPZmOH4-yUVZyEF7tggYJWLae3S3S7HF94YvyJ1uZYkOJhg2CWdWdipIW11ckadb8AU2QBgefW2CvAe283s9i6jVorkQS0CGWQK9mpsq7CFcSy-B83hgHIBGlS3inp6CymJ86Y8Be23f945KbMXJh4grQ4G332tQhuACCcqCbhpHGLNLfinh6CXq_CYMYrAWGicl2Of4Sx8nIj5wWfpd83qkTAOHuMbFwq3dDwQwfaKMZEueIb80yNygQieenebpzFG6Hw6EMN4Ep3IXQ34og8oCHCi0wcVlCmThd4AGwIqD0tjeqfQEXsYdC-vMFAs8uZc8qA0D39NtWRO53WnZdS22LKuPD2LPaArfS0tGE4nnqpT2F_Cox3M8BbFgf8EMZTyc82zkTA7xHbwSOUxUukHa51b_8mnOw6XhbVIgzcfoEcAgtSCQsObGTL3hHL6NFLZB7XC4-LnMBhZYd5RRSeUxix8vTCtzqSVSrXteuyKNbXohjhI2VIzu8dFJVqBp2oT9_nCukISasufjiA5vOjjOnEJyyt9D- -eXiy8rj1YJFM8V1wB8PhMVZMCzsFAgPgTTkbldY6OMGHLnvjA2KJYPKjeqXuT7VrqBuQ2wkehWcnGNUgKdJD8kuGlj3wdcfhk1a4vFZk-JLyICmQczO6pOcCnXhuQwRXBmJx2iY2HUxXtzplTkYpeBo3D24shyWQtbLegBvW8JJMx8DlxCOWar6wy6eqjqBffWJReje-7nNhuhifeiBBMYzSU3WtrSAIHMouZztkzO4xQkyOovylxojcuSWOFL5KperNXu44M-TaQLv4D5GpkykRgcsF5- -PwAvlhFrfGRsFvF5VZvlKVzb3T-0yhgGLztqvlPZiLUdLcnmNnwEgucUGblZlSlMXz7YApdtmxKorDknu2qxfs8fRWvGigtTSoVUtzrHeyUHaCjlmh-mq0]--></g></svg>