<?xml version="1.0" encoding="us-ascii" standalone="no"?><svg xmlns="http://www.w3.org/2000/svg" xmlns:xlink="http://www.w3.org/1999/xlink" contentStyleType="text/css" height="1913px" preserveAspectRatio="none" style="width:723px;height:1913px;background:#CED4DA;" version="1.1" viewBox="0 0 723 1913" width="723px" zoomAndPan="magnify"><defs/><g><rect fill="#CED4DA" height="1913" style="stroke:none;stroke-width:1.0;" width="723" x="0" y="0"/><!--class OSUIFlatpickrRangeDate--><g id="elem_OSUIFlatpickrRangeDate"><rect codeLine="7" fill="#FFFFFF" height="862.8438" id="OSUIFlatpickrRangeDate" rx="2.5" ry="2.5" style="stroke:#272B30;stroke-width:0.5;" width="707" x="9" y="1044"/><ellipse cx="274.25" cy="1060" fill="#ADD1B2" rx="11" ry="11" style="stroke:#181818;stroke-width:1.0;"/><path d="M277.2188,1065.6406 Q276.6406,1065.9375 276,1066.0781 Q275.3594,1066.2344 274.6563,1066.2344 Q272.1563,1066.2344 270.8281,1064.5938 Q269.5156,1062.9375 269.5156,1059.8125 Q269.5156,1056.6875 270.8281,1055.0313 Q272.1563,1053.375 274.6563,1053.375 Q275.3594,1053.375 276,1053.5313 Q276.6563,1053.6875 277.2188,1053.9844 L277.2188,1056.7031 Q276.5938,1056.125 276,1055.8594 Q275.4063,1055.5781 274.7813,1055.5781 Q273.4375,1055.5781 272.75,1056.6563 Q272.0625,1057.7188 272.0625,1059.8125 Q272.0625,1061.9063 272.75,1062.9844 Q273.4375,1064.0469 274.7813,1064.0469 Q275.4063,1064.0469 276,1063.7813 Q276.5938,1063.5 277.2188,1062.9219 L277.2188,1065.6406 Z " fill="#000000"/><text fill="#000000" font-family="sans-serif" font-size="14" lengthAdjust="spacing" textLength="168" x="294.75" y="1064.8467">OSUIFlatpickrRangeDate</text><line style="stroke:#272B30;stroke-width:0.5;" x1="10" x2="715" y1="1076" y2="1076"/><ellipse cx="20" cy="1089.6484" fill="none" rx="3" ry="3" style="stroke:#038048;stroke-width:1.0;"/><text fill="#000000" font-family="sans-serif" font-size="14" lengthAdjust="spacing" textLength="205" x="29" y="1092.9951">onCloseCustomCallback : any</text><polygon fill="none" points="20,1100.9453,24,1104.9453,20,1108.9453,16,1104.9453" style="stroke:#B38D22;stroke-width:1.0;"/><text fill="#000000" font-family="sans-serif" font-size="14" lengthAdjust="spacing" textLength="341" x="29" y="1109.292">datePickerPlatformInputElem : HTMLInputElement</text><polygon fill="none" points="20,1117.2422,24,1121.2422,20,1125.2422,16,1121.2422" style="stroke:#B38D22;stroke-width:1.0;"/><text fill="#000000" font-family="sans-serif" font-size="14" lengthAdjust="spacing" textLength="265" x="29" y="1125.5889">flatpickrInputElem : HTMLInputElement</text><polygon fill="none" points="20,1133.5391,24,1137.5391,20,1141.5391,16,1137.5391" style="stroke:#B38D22;stroke-width:1.0;"/><text fill="#000000" font-family="sans-serif" font-size="14" lengthAdjust="spacing" textLength="210" x="29" y="1141.8857">flatpickrOpts : FlatpickrOptions</text><polygon fill="none" points="20,1149.8359,24,1153.8359,20,1157.8359,16,1153.8359" style="stroke:#B38D22;stroke-width:1.0;"/><text fill="#000000" font-family="sans-serif" font-size="14" lengthAdjust="spacing" textLength="180" x="29" y="1158.1826">isProviderBased : boolean</text><polygon fill="none" points="20,1166.1328,24,1170.1328,20,1174.1328,16,1170.1328" style="stroke:#B38D22;stroke-width:1.0;"/><text fill="#000000" font-family="sans-serif" font-size="14" lengthAdjust="spacing" textLength="321" x="29" y="1174.4795">onSelectedCallbackEvent : OSOnChangeEvent</text><polygon fill="none" points="20,1182.4297,24,1186.4297,20,1190.4297,16,1186.4297" style="stroke:#B38D22;stroke-width:1.0;"/><text fill="#000000" font-family="sans-serif" font-size="14" lengthAdjust="spacing" textLength="393" x="29" y="1190.7764">providerEventsManagerInstance : IProviderEventManager</text><line style="stroke:#272B30;stroke-width:0.5;" x1="10" x2="715" y1="1198.0781" y2="1198.0781"/><ellipse cx="20" cy="1211.7266" fill="#84BE84" rx="3" ry="3" style="stroke:#038048;stroke-width:1.0;"/><text fill="#000000" font-family="sans-serif" font-size="14" lengthAdjust="spacing" textLength="84" x="29" y="1215.0732">build() : void</text><ellipse cx="20" cy="1228.0234" fill="#84BE84" rx="3" ry="3" style="stroke:#038048;stroke-width:1.0;"/><text fill="#000000" font-family="sans-serif" font-size="14" lengthAdjust="spacing" textLength="484" x="29" y="1231.3701">changeProperty(propertyName: string, propertyValue: unknown) : void</text><ellipse cx="20" cy="1244.3203" fill="#84BE84" rx="3" ry="3" style="stroke:#038048;stroke-width:1.0;"/><text fill="#000000" font-family="sans-serif" font-size="14" lengthAdjust="spacing" textLength="241" x="29" y="1247.667">checkAddedProviderEvents() : void</text><ellipse cx="20" cy="1260.6172" fill="#84BE84" rx="3" ry="3" style="stroke:#038048;stroke-width:1.0;"/><text fill="#000000" font-family="sans-serif" font-size="14" lengthAdjust="spacing" textLength="253" x="29" y="1263.9639">checkPendingProviderEvents() : void</text><ellipse cx="20" cy="1276.9141" fill="#84BE84" rx="3" ry="3" style="stroke:#038048;stroke-width:1.0;"/><text fill="#000000" font-family="sans-serif" font-size="14" lengthAdjust="spacing" textLength="84" x="29" y="1280.2607">clear() : void</text><ellipse cx="20" cy="1293.2109" fill="#84BE84" rx="3" ry="3" style="stroke:#038048;stroke-width:1.0;"/><text fill="#000000" font-family="sans-serif" font-size="14" lengthAdjust="spacing" textLength="88" x="29" y="1296.5576">close() : void</text><ellipse cx="20" cy="1309.5078" fill="#84BE84" rx="3" ry="3" style="stroke:#038048;stroke-width:1.0;"/><text fill="#000000" font-family="sans-serif" font-size="14" lengthAdjust="spacing" textLength="275" x="29" y="1312.8545">disableDays(disableDays: string[]) : void</text><ellipse cx="20" cy="1325.8047" fill="#84BE84" rx="3" ry="3" style="stroke:#038048;stroke-width:1.0;"/><text fill="#000000" font-family="sans-serif" font-size="14" lengthAdjust="spacing" textLength="368" x="29" y="1329.1514">disableWeekDays(disableWeekDays: number[]) : void</text><ellipse cx="20" cy="1342.1016" fill="#84BE84" rx="3" ry="3" style="stroke:#038048;stroke-width:1.0;"/><text fill="#000000" font-family="sans-serif" font-size="14" lengthAdjust="spacing" textLength="106" x="29" y="1345.4482">dispose() : void</text><ellipse cx="20" cy="1358.3984" fill="#84BE84" rx="3" ry="3" style="stroke:#038048;stroke-width:1.0;"/><text fill="#000000" font-family="sans-serif" font-size="14" lengthAdjust="spacing" textLength="267" x="29" y="1361.7451">equalsToID(patternId: string) : boolean</text><ellipse cx="20" cy="1374.6953" fill="#84BE84" rx="3" ry="3" style="stroke:#038048;stroke-width:1.0;"/><text fill="#000000" font-family="sans-serif" font-size="14" lengthAdjust="spacing" textLength="87" x="29" y="1378.042">open() : void</text><ellipse cx="20" cy="1390.9922" fill="#84BE84" rx="3" ry="3" style="stroke:#038048;stroke-width:1.0;"/><text fill="#000000" font-family="sans-serif" font-size="14" lengthAdjust="spacing" textLength="434" x="29" y="1394.3389">registerCallback(eventName: string, callback: OSGeneric) : void</text><ellipse cx="20" cy="1407.2891" fill="#84BE84" rx="3" ry="3" style="stroke:#038048;stroke-width:1.0;"/><text fill="#000000" font-family="sans-serif" font-size="14" lengthAdjust="spacing" textLength="294" x="29" y="1410.6357">setEditableInput(isEditable: boolean) : void</text><ellipse cx="20" cy="1423.5859" fill="#84BE84" rx="3" ry="3" style="stroke:#038048;stroke-width:1.0;"/><text fill="#000000" font-family="sans-serif" font-size="14" lengthAdjust="spacing" textLength="225" x="29" y="1426.9326">setLanguage(value: string) : void</text><ellipse cx="20" cy="1439.8828" fill="#84BE84" rx="3" ry="3" style="stroke:#038048;stroke-width:1.0;"/><text fill="#000000" font-family="sans-serif" font-size="14" lengthAdjust="spacing" textLength="382" x="29" y="1443.2295">setProviderConfigs(newConfigs: FlatpickrOptions) : void</text><ellipse cx="20" cy="1456.1797" fill="#84BE84" rx="3" ry="3" style="stroke:#038048;stroke-width:1.0;"/><text fill="#000000" font-family="sans-serif" font-size="14" lengthAdjust="spacing" textLength="681" x="29" y="1459.5264">setProviderEvent(eventName: string, callback: Generic, uniqueId: string, saveEvent: boolean) : void</text><ellipse cx="20" cy="1472.4766" fill="#84BE84" rx="3" ry="3" style="stroke:#038048;stroke-width:1.0;"/><text fill="#000000" font-family="sans-serif" font-size="14" lengthAdjust="spacing" textLength="197" x="29" y="1475.8232">toggleNativeBehavior() : void</text><ellipse cx="20" cy="1488.7734" fill="#84BE84" rx="3" ry="3" style="stroke:#038048;stroke-width:1.0;"/><text fill="#000000" font-family="sans-serif" font-size="14" lengthAdjust="spacing" textLength="285" x="29" y="1492.1201">unsetProviderEvent(eventId: string) : void</text><ellipse cx="20" cy="1505.0703" fill="#84BE84" rx="3" ry="3" style="stroke:#038048;stroke-width:1.0;"/><text fill="#000000" font-family="sans-serif" font-size="14" lengthAdjust="spacing" textLength="395" x="29" y="1508.417">updateInitialDate(startDate: string, endDate: string) : void</text><ellipse cx="20" cy="1521.3672" fill="#84BE84" rx="3" ry="3" style="stroke:#038048;stroke-width:1.0;"/><text fill="#000000" font-family="sans-serif" font-size="14" lengthAdjust="spacing" textLength="311" x="29" y="1524.7139">updatePrompt(promptMessage: string) : void</text><ellipse cx="20" cy="1537.6641" fill="#84BE84" rx="3" ry="3" style="stroke:#038048;stroke-width:1.0;"/><text fill="#000000" font-family="sans-serif" font-size="14" lengthAdjust="spacing" textLength="374" x="29" y="1541.0107">updateProviderEvents(providerInfo: ProviderInfo) : void</text><polygon fill="#FFFF44" points="20,1548.9609,24,1552.9609,20,1556.9609,16,1552.9609" style="stroke:#B38D22;stroke-width:1.0;"/><text fill="#000000" font-family="sans-serif" font-size="14" lengthAdjust="spacing" textLength="143" x="29" y="1557.3076">addTodayBtn() : void</text><polygon fill="#FFFF44" points="20,1565.2578,24,1569.2578,20,1573.2578,16,1569.2578" style="stroke:#B38D22;stroke-width:1.0;"/><text fill="#000000" font-family="sans-serif" font-size="14" lengthAdjust="spacing" textLength="210" x="29" y="1573.6045">createProviderInstance() : void</text><polygon fill="#FFFF44" points="20,1581.5547,24,1585.5547,20,1589.5547,16,1585.5547" style="stroke:#B38D22;stroke-width:1.0;"/><text fill="#000000" font-family="sans-serif" font-size="14" lengthAdjust="spacing" textLength="121" x="29" y="1589.9014">finishBuild() : void</text><polygon fill="#FFFF44" points="20,1597.8516,24,1601.8516,20,1605.8516,16,1601.8516" style="stroke:#B38D22;stroke-width:1.0;"/><text fill="#000000" font-family="sans-serif" font-size="14" lengthAdjust="spacing" textLength="153" x="29" y="1606.1982">jumpIntoToday() : void</text><polygon fill="#FFFF44" points="20,1614.1484,24,1618.1484,20,1622.1484,16,1618.1484" style="stroke:#B38D22;stroke-width:1.0;"/><text fill="#000000" font-family="sans-serif" font-size="14" lengthAdjust="spacing" textLength="183" x="29" y="1622.4951">onDatePickerClose() : void</text><polygon fill="#FFFF44" points="20,1630.4453,24,1634.4453,20,1638.4453,16,1634.4453" style="stroke:#B38D22;stroke-width:1.0;"/><text fill="#000000" font-family="sans-serif" font-size="14" lengthAdjust="spacing" textLength="182" x="29" y="1638.792">onDatePickerOpen() : void</text><polygon fill="#FFFF44" points="20,1646.7422,24,1650.7422,20,1654.7422,16,1650.7422" style="stroke:#B38D22;stroke-width:1.0;"/><text fill="#000000" font-family="sans-serif" font-size="14" lengthAdjust="spacing" textLength="355" x="29" y="1655.0889">onDateSelectedEvent(selectedDates: Date[]) : void</text><polygon fill="#FFFF44" points="20,1663.0391,24,1667.0391,20,1671.0391,16,1667.0391" style="stroke:#B38D22;stroke-width:1.0;"/><text fill="#000000" font-family="sans-serif" font-size="14" lengthAdjust="spacing" textLength="157" x="29" y="1671.3857">prepareConfigs() : void</text><polygon fill="#FFFF44" points="20,1679.3359,24,1683.3359,20,1687.3359,16,1683.3359" style="stroke:#B38D22;stroke-width:1.0;"/><text fill="#000000" font-family="sans-serif" font-size="14" lengthAdjust="spacing" textLength="202" x="29" y="1687.6826">prepareToAndRedraw() : void</text><polygon fill="#FFFF44" points="20,1695.6328,24,1699.6328,20,1703.6328,16,1699.6328" style="stroke:#B38D22;stroke-width:1.0;"/><text fill="#000000" font-family="sans-serif" font-size="14" lengthAdjust="spacing" textLength="98" x="29" y="1703.9795">redraw() : void</text><polygon fill="#FFFF44" points="20,1711.9297,24,1715.9297,20,1719.9297,16,1715.9297" style="stroke:#B38D22;stroke-width:1.0;"/><text fill="#000000" font-family="sans-serif" font-size="14" lengthAdjust="spacing" textLength="180" x="29" y="1720.2764">setA11YProperties() : void</text><polygon fill="#FFFF44" points="20,1728.2266,24,1732.2266,20,1736.2266,16,1732.2266" style="stroke:#B38D22;stroke-width:1.0;"/><text fill="#000000" font-family="sans-serif" font-size="14" lengthAdjust="spacing" textLength="138" x="29" y="1736.5732">setCallbacks() : void</text><polygon fill="#FFFF44" points="20,1744.5234,24,1748.5234,20,1752.5234,16,1748.5234" style="stroke:#B38D22;stroke-width:1.0;"/><text fill="#000000" font-family="sans-serif" font-size="14" lengthAdjust="spacing" textLength="169" x="29" y="1752.8701">setHtmlElements() : void</text><polygon fill="#FFFF44" points="20,1760.8203,24,1764.8203,20,1768.8203,16,1764.8203" style="stroke:#B38D22;stroke-width:1.0;"/><text fill="#000000" font-family="sans-serif" font-size="14" lengthAdjust="spacing" textLength="279" x="29" y="1769.167">todayBtnClick(event: MouseEvent) : void</text><polygon fill="#FFFF44" points="20,1777.1172,24,1781.1172,20,1785.1172,16,1781.1172" style="stroke:#B38D22;stroke-width:1.0;"/><text fill="#000000" font-family="sans-serif" font-size="14" lengthAdjust="spacing" textLength="569" x="29" y="1785.4639">triggerPlatformEventCallback(platFormCallback: OSGeneric, args: unknown[]) : void</text><polygon fill="#FFFF44" points="20,1793.4141,24,1797.4141,20,1801.4141,16,1797.4141" style="stroke:#B38D22;stroke-width:1.0;"/><text fill="#000000" font-family="sans-serif" font-size="14" lengthAdjust="spacing" textLength="311" x="29" y="1801.7607">triggerPlatformInitializedEventCallback() : void</text><polygon fill="#FFFF44" points="20,1809.7109,24,1813.7109,20,1817.7109,16,1813.7109" style="stroke:#B38D22;stroke-width:1.0;"/><text fill="#000000" font-family="sans-serif" font-size="14" lengthAdjust="spacing" textLength="156" x="29" y="1818.0576">unsetCallbacks() : void</text><polygon fill="#FFFF44" points="20,1826.0078,24,1830.0078,20,1834.0078,16,1830.0078" style="stroke:#B38D22;stroke-width:1.0;"/><text fill="#000000" font-family="sans-serif" font-size="14" lengthAdjust="spacing" textLength="199" x="29" y="1834.3545">unsetGlobalCallbacks() : void</text><polygon fill="#FFFF44" points="20,1842.3047,24,1846.3047,20,1850.3047,16,1846.3047" style="stroke:#B38D22;stroke-width:1.0;"/><text fill="#000000" font-family="sans-serif" font-size="14" lengthAdjust="spacing" textLength="187" x="29" y="1850.6514">unsetHtmlElements() : void</text><polygon fill="#FFFF44" points="20,1858.6016,24,1862.6016,20,1866.6016,16,1862.6016" style="stroke:#B38D22;stroke-width:1.0;"/><text fill="#000000" font-family="sans-serif" font-size="14" lengthAdjust="spacing" textLength="223" x="29" y="1866.9482">updatePlatformInputAttrs() : void</text><rect fill="#F24D5C" height="6" style="stroke:#C82930;stroke-width:1.0;" width="6" x="17" y="1876.8984"/><text fill="#000000" font-family="sans-serif" font-size="14" lengthAdjust="spacing" textLength="207" x="29" y="1883.2451">_onUpdateDateFormat() : void</text><rect fill="#F24D5C" height="6" style="stroke:#C82930;stroke-width:1.0;" width="6" x="17" y="1893.1953"/><text fill="#000000" font-family="sans-serif" font-size="14" lengthAdjust="spacing" textLength="268" x="29" y="1899.542">_updateInitialStartAndEndDates() : void</text></g><!--class AbstractFlatpickr<FlatpickrRangeDateConfig>--><g id="elem_AbstractFlatpickr&lt;FlatpickrRangeDateConfig&gt;"><rect codeLine="59" fill="#FFFFFF" height="976.9219" id="AbstractFlatpickr&lt;FlatpickrRangeDateConfig&gt;" rx="2.5" ry="2.5" style="stroke:#272B30;stroke-width:0.5;" width="707" x="9" y="7"/><ellipse cx="199.75" cy="23" fill="#A9DCDF" rx="11" ry="11" style="stroke:#181818;stroke-width:1.0;"/><path d="M199.8594,18.3438 L198.7031,23.4219 L201.0313,23.4219 L199.8594,18.3438 Z M198.375,16.1094 L201.3594,16.1094 L204.7188,28.5 L202.2656,28.5 L201.5,25.4375 L198.2188,25.4375 L197.4688,28.5 L195.0313,28.5 L198.375,16.1094 Z " fill="#000000"/><text fill="#000000" font-family="sans-serif" font-size="14" font-style="italic" lengthAdjust="spacing" textLength="317" x="220.25" y="27.8467">AbstractFlatpickr&lt;FlatpickrRangeDateConfig&gt;</text><line style="stroke:#272B30;stroke-width:0.5;" x1="10" x2="715" y1="39" y2="39"/><ellipse cx="20" cy="52.6484" fill="none" rx="3" ry="3" style="stroke:#038048;stroke-width:1.0;"/><text fill="#000000" font-family="sans-serif" font-size="14" lengthAdjust="spacing" textLength="205" x="29" y="55.9951">onCloseCustomCallback : any</text><polygon fill="none" points="20,63.9453,24,67.9453,20,71.9453,16,67.9453" style="stroke:#B38D22;stroke-width:1.0;"/><text fill="#000000" font-family="sans-serif" font-size="14" lengthAdjust="spacing" textLength="341" x="29" y="72.292">datePickerPlatformInputElem : HTMLInputElement</text><polygon fill="none" points="20,80.2422,24,84.2422,20,88.2422,16,84.2422" style="stroke:#B38D22;stroke-width:1.0;"/><text fill="#000000" font-family="sans-serif" font-size="14" lengthAdjust="spacing" textLength="265" x="29" y="88.5889">flatpickrInputElem : HTMLInputElement</text><polygon fill="none" points="20,96.5391,24,100.5391,20,104.5391,16,100.5391" style="stroke:#B38D22;stroke-width:1.0;"/><text fill="#000000" font-family="sans-serif" font-size="14" lengthAdjust="spacing" textLength="210" x="29" y="104.8857">flatpickrOpts : FlatpickrOptions</text><polygon fill="none" points="20,112.8359,24,116.8359,20,120.8359,16,116.8359" style="stroke:#B38D22;stroke-width:1.0;"/><text fill="#000000" font-family="sans-serif" font-size="14" lengthAdjust="spacing" textLength="180" x="29" y="121.1826">isProviderBased : boolean</text><polygon fill="none" points="20,129.1328,24,133.1328,20,137.1328,16,133.1328" style="stroke:#B38D22;stroke-width:1.0;"/><text fill="#000000" font-family="sans-serif" font-size="14" lengthAdjust="spacing" textLength="321" x="29" y="137.4795">onSelectedCallbackEvent : OSOnChangeEvent</text><polygon fill="none" points="20,145.4297,24,149.4297,20,153.4297,16,149.4297" style="stroke:#B38D22;stroke-width:1.0;"/><text fill="#000000" font-family="sans-serif" font-size="14" lengthAdjust="spacing" textLength="393" x="29" y="153.7764">providerEventsManagerInstance : IProviderEventManager</text><rect fill="none" height="6" style="stroke:#C82930;stroke-width:1.0;" width="6" x="17" y="163.7266"/><text fill="#000000" font-family="sans-serif" font-size="14" lengthAdjust="spacing" textLength="274" x="29" y="170.0732">_a11yInfoContainerElem : HTMLElement</text><rect fill="none" height="6" style="stroke:#C82930;stroke-width:1.0;" width="6" x="17" y="180.0234"/><text fill="#000000" font-family="sans-serif" font-size="14" lengthAdjust="spacing" textLength="385" x="29" y="186.3701">_bodyScrollCommonBehaviour : UpdatePositionOnScroll</text><rect fill="none" height="6" style="stroke:#C82930;stroke-width:1.0;" width="6" x="17" y="196.3203"/><text fill="#000000" font-family="sans-serif" font-size="14" lengthAdjust="spacing" textLength="293" x="29" y="202.667">_providerFocusSpanTarget : HTMLElement</text><rect fill="none" height="6" style="stroke:#C82930;stroke-width:1.0;" width="6" x="17" y="212.6172"/><text fill="#000000" font-family="sans-serif" font-size="14" lengthAdjust="spacing" textLength="234" x="29" y="218.9639">_todayButtonElem : HTMLElement</text><rect fill="none" height="6" style="stroke:#C82930;stroke-width:1.0;" width="6" x="17" y="228.9141"/><text fill="#000000" font-family="sans-serif" font-size="14" lengthAdjust="spacing" textLength="285" x="29" y="235.2607">_zindexCommonBehavior : UpdateZindex</text><line style="stroke:#272B30;stroke-width:0.5;" x1="10" x2="715" y1="242.5625" y2="242.5625"/><ellipse cx="20" cy="256.2109" fill="#84BE84" rx="3" ry="3" style="stroke:#038048;stroke-width:1.0;"/><text fill="#000000" font-family="sans-serif" font-size="14" lengthAdjust="spacing" textLength="84" x="29" y="259.5576">build() : void</text><ellipse cx="20" cy="272.5078" fill="#84BE84" rx="3" ry="3" style="stroke:#038048;stroke-width:1.0;"/><text fill="#000000" font-family="sans-serif" font-size="14" lengthAdjust="spacing" textLength="484" x="29" y="275.8545">changeProperty(propertyName: string, propertyValue: unknown) : void</text><ellipse cx="20" cy="288.8047" fill="#84BE84" rx="3" ry="3" style="stroke:#038048;stroke-width:1.0;"/><text fill="#000000" font-family="sans-serif" font-size="14" lengthAdjust="spacing" textLength="241" x="29" y="292.1514">checkAddedProviderEvents() : void</text><ellipse cx="20" cy="305.1016" fill="#84BE84" rx="3" ry="3" style="stroke:#038048;stroke-width:1.0;"/><text fill="#000000" font-family="sans-serif" font-size="14" lengthAdjust="spacing" textLength="253" x="29" y="308.4482">checkPendingProviderEvents() : void</text><ellipse cx="20" cy="321.3984" fill="#84BE84" rx="3" ry="3" style="stroke:#038048;stroke-width:1.0;"/><text fill="#000000" font-family="sans-serif" font-size="14" lengthAdjust="spacing" textLength="84" x="29" y="324.7451">clear() : void</text><ellipse cx="20" cy="337.6953" fill="#84BE84" rx="3" ry="3" style="stroke:#038048;stroke-width:1.0;"/><text fill="#000000" font-family="sans-serif" font-size="14" lengthAdjust="spacing" textLength="88" x="29" y="341.042">close() : void</text><ellipse cx="20" cy="353.9922" fill="#84BE84" rx="3" ry="3" style="stroke:#038048;stroke-width:1.0;"/><text fill="#000000" font-family="sans-serif" font-size="14" lengthAdjust="spacing" textLength="275" x="29" y="357.3389">disableDays(disableDays: string[]) : void</text><ellipse cx="20" cy="370.2891" fill="#84BE84" rx="3" ry="3" style="stroke:#038048;stroke-width:1.0;"/><text fill="#000000" font-family="sans-serif" font-size="14" lengthAdjust="spacing" textLength="368" x="29" y="373.6357">disableWeekDays(disableWeekDays: number[]) : void</text><ellipse cx="20" cy="386.5859" fill="#84BE84" rx="3" ry="3" style="stroke:#038048;stroke-width:1.0;"/><text fill="#000000" font-family="sans-serif" font-size="14" lengthAdjust="spacing" textLength="106" x="29" y="389.9326">dispose() : void</text><ellipse cx="20" cy="402.8828" fill="#84BE84" rx="3" ry="3" style="stroke:#038048;stroke-width:1.0;"/><text fill="#000000" font-family="sans-serif" font-size="14" lengthAdjust="spacing" textLength="267" x="29" y="406.2295">equalsToID(patternId: string) : boolean</text><ellipse cx="20" cy="419.1797" fill="#84BE84" rx="3" ry="3" style="stroke:#038048;stroke-width:1.0;"/><text fill="#000000" font-family="sans-serif" font-size="14" lengthAdjust="spacing" textLength="87" x="29" y="422.5264">open() : void</text><ellipse cx="20" cy="435.4766" fill="#84BE84" rx="3" ry="3" style="stroke:#038048;stroke-width:1.0;"/><text fill="#000000" font-family="sans-serif" font-size="14" lengthAdjust="spacing" textLength="434" x="29" y="438.8232">registerCallback(eventName: string, callback: OSGeneric) : void</text><ellipse cx="20" cy="451.7734" fill="#84BE84" rx="3" ry="3" style="stroke:#038048;stroke-width:1.0;"/><text fill="#000000" font-family="sans-serif" font-size="14" lengthAdjust="spacing" textLength="294" x="29" y="455.1201">setEditableInput(isEditable: boolean) : void</text><ellipse cx="20" cy="468.0703" fill="#84BE84" rx="3" ry="3" style="stroke:#038048;stroke-width:1.0;"/><text fill="#000000" font-family="sans-serif" font-size="14" lengthAdjust="spacing" textLength="225" x="29" y="471.417">setLanguage(value: string) : void</text><ellipse cx="20" cy="484.3672" fill="#84BE84" rx="3" ry="3" style="stroke:#038048;stroke-width:1.0;"/><text fill="#000000" font-family="sans-serif" font-size="14" lengthAdjust="spacing" textLength="382" x="29" y="487.7139">setProviderConfigs(newConfigs: FlatpickrOptions) : void</text><ellipse cx="20" cy="500.6641" fill="#84BE84" rx="3" ry="3" style="stroke:#038048;stroke-width:1.0;"/><text fill="#000000" font-family="sans-serif" font-size="14" lengthAdjust="spacing" textLength="681" x="29" y="504.0107">setProviderEvent(eventName: string, callback: Generic, uniqueId: string, saveEvent: boolean) : void</text><ellipse cx="20" cy="516.9609" fill="#84BE84" rx="3" ry="3" style="stroke:#038048;stroke-width:1.0;"/><text fill="#000000" font-family="sans-serif" font-size="14" lengthAdjust="spacing" textLength="285" x="29" y="520.3076">unsetProviderEvent(eventId: string) : void</text><ellipse cx="20" cy="533.2578" fill="#84BE84" rx="3" ry="3" style="stroke:#038048;stroke-width:1.0;"/><text fill="#000000" font-family="sans-serif" font-size="14" font-style="italic" lengthAdjust="spacing" textLength="328" x="29" y="536.6045">updateInitialDate(start: string, end: string) : void</text><ellipse cx="20" cy="549.5547" fill="#84BE84" rx="3" ry="3" style="stroke:#038048;stroke-width:1.0;"/><text fill="#000000" font-family="sans-serif" font-size="14" lengthAdjust="spacing" textLength="311" x="29" y="552.9014">updatePrompt(promptMessage: string) : void</text><ellipse cx="20" cy="565.8516" fill="#84BE84" rx="3" ry="3" style="stroke:#038048;stroke-width:1.0;"/><text fill="#000000" font-family="sans-serif" font-size="14" lengthAdjust="spacing" textLength="374" x="29" y="569.1982">updateProviderEvents(providerInfo: ProviderInfo) : void</text><polygon fill="#FFFF44" points="20,577.1484,24,581.1484,20,585.1484,16,581.1484" style="stroke:#B38D22;stroke-width:1.0;"/><text fill="#000000" font-family="sans-serif" font-size="14" lengthAdjust="spacing" textLength="143" x="29" y="585.4951">addTodayBtn() : void</text><polygon fill="#FFFF44" points="20,593.4453,24,597.4453,20,601.4453,16,597.4453" style="stroke:#B38D22;stroke-width:1.0;"/><text fill="#000000" font-family="sans-serif" font-size="14" lengthAdjust="spacing" textLength="210" x="29" y="601.792">createProviderInstance() : void</text><polygon fill="#FFFF44" points="20,609.7422,24,613.7422,20,617.7422,16,613.7422" style="stroke:#B38D22;stroke-width:1.0;"/><text fill="#000000" font-family="sans-serif" font-size="14" lengthAdjust="spacing" textLength="121" x="29" y="618.0889">finishBuild() : void</text><polygon fill="#FFFF44" points="20,626.0391,24,630.0391,20,634.0391,16,630.0391" style="stroke:#B38D22;stroke-width:1.0;"/><text fill="#000000" font-family="sans-serif" font-size="14" lengthAdjust="spacing" textLength="153" x="29" y="634.3857">jumpIntoToday() : void</text><polygon fill="#FFFF44" points="20,642.3359,24,646.3359,20,650.3359,16,646.3359" style="stroke:#B38D22;stroke-width:1.0;"/><text fill="#000000" font-family="sans-serif" font-size="14" lengthAdjust="spacing" textLength="183" x="29" y="650.6826">onDatePickerClose() : void</text><polygon fill="#FFFF44" points="20,658.6328,24,662.6328,20,666.6328,16,662.6328" style="stroke:#B38D22;stroke-width:1.0;"/><text fill="#000000" font-family="sans-serif" font-size="14" lengthAdjust="spacing" textLength="182" x="29" y="666.9795">onDatePickerOpen() : void</text><polygon fill="#FFFF44" points="20,674.9297,24,678.9297,20,682.9297,16,678.9297" style="stroke:#B38D22;stroke-width:1.0;"/><text fill="#000000" font-family="sans-serif" font-size="14" font-style="italic" lengthAdjust="spacing" textLength="355" x="29" y="683.2764">onDateSelectedEvent(selectedDates: Date[]) : void</text><polygon fill="#FFFF44" points="20,691.2266,24,695.2266,20,699.2266,16,695.2266" style="stroke:#B38D22;stroke-width:1.0;"/><text fill="#000000" font-family="sans-serif" font-size="14" lengthAdjust="spacing" textLength="157" x="29" y="699.5732">prepareConfigs() : void</text><polygon fill="#FFFF44" points="20,707.5234,24,711.5234,20,715.5234,16,711.5234" style="stroke:#B38D22;stroke-width:1.0;"/><text fill="#000000" font-family="sans-serif" font-size="14" lengthAdjust="spacing" textLength="202" x="29" y="715.8701">prepareToAndRedraw() : void</text><polygon fill="#FFFF44" points="20,723.8203,24,727.8203,20,731.8203,16,727.8203" style="stroke:#B38D22;stroke-width:1.0;"/><text fill="#000000" font-family="sans-serif" font-size="14" lengthAdjust="spacing" textLength="98" x="29" y="732.167">redraw() : void</text><polygon fill="#FFFF44" points="20,740.1172,24,744.1172,20,748.1172,16,744.1172" style="stroke:#B38D22;stroke-width:1.0;"/><text fill="#000000" font-family="sans-serif" font-size="14" lengthAdjust="spacing" textLength="180" x="29" y="748.4639">setA11YProperties() : void</text><polygon fill="#FFFF44" points="20,756.4141,24,760.4141,20,764.4141,16,760.4141" style="stroke:#B38D22;stroke-width:1.0;"/><text fill="#000000" font-family="sans-serif" font-size="14" lengthAdjust="spacing" textLength="138" x="29" y="764.7607">setCallbacks() : void</text><polygon fill="#FFFF44" points="20,772.7109,24,776.7109,20,780.7109,16,776.7109" style="stroke:#B38D22;stroke-width:1.0;"/><text fill="#000000" font-family="sans-serif" font-size="14" lengthAdjust="spacing" textLength="169" x="29" y="781.0576">setHtmlElements() : void</text><polygon fill="#FFFF44" points="20,789.0078,24,793.0078,20,797.0078,16,793.0078" style="stroke:#B38D22;stroke-width:1.0;"/><text fill="#000000" font-family="sans-serif" font-size="14" font-style="italic" lengthAdjust="spacing" textLength="282" x="29" y="797.3545">todayBtnClick(event: MouseEvent) : void</text><polygon fill="#FFFF44" points="20,805.3047,24,809.3047,20,813.3047,16,809.3047" style="stroke:#B38D22;stroke-width:1.0;"/><text fill="#000000" font-family="sans-serif" font-size="14" lengthAdjust="spacing" textLength="569" x="29" y="813.6514">triggerPlatformEventCallback(platFormCallback: OSGeneric, args: unknown[]) : void</text><polygon fill="#FFFF44" points="20,821.6016,24,825.6016,20,829.6016,16,825.6016" style="stroke:#B38D22;stroke-width:1.0;"/><text fill="#000000" font-family="sans-serif" font-size="14" lengthAdjust="spacing" textLength="311" x="29" y="829.9482">triggerPlatformInitializedEventCallback() : void</text><polygon fill="#FFFF44" points="20,837.8984,24,841.8984,20,845.8984,16,841.8984" style="stroke:#B38D22;stroke-width:1.0;"/><text fill="#000000" font-family="sans-serif" font-size="14" lengthAdjust="spacing" textLength="156" x="29" y="846.2451">unsetCallbacks() : void</text><polygon fill="#FFFF44" points="20,854.1953,24,858.1953,20,862.1953,16,858.1953" style="stroke:#B38D22;stroke-width:1.0;"/><text fill="#000000" font-family="sans-serif" font-size="14" lengthAdjust="spacing" textLength="199" x="29" y="862.542">unsetGlobalCallbacks() : void</text><polygon fill="#FFFF44" points="20,870.4922,24,874.4922,20,878.4922,16,874.4922" style="stroke:#B38D22;stroke-width:1.0;"/><text fill="#000000" font-family="sans-serif" font-size="14" lengthAdjust="spacing" textLength="187" x="29" y="878.8389">unsetHtmlElements() : void</text><polygon fill="#FFFF44" points="20,886.7891,24,890.7891,20,894.7891,16,890.7891" style="stroke:#B38D22;stroke-width:1.0;"/><text fill="#000000" font-family="sans-serif" font-size="14" font-style="italic" lengthAdjust="spacing" textLength="224" x="29" y="895.1357">updatePlatformInputAttrs() : void</text><rect fill="#F24D5C" height="6" style="stroke:#C82930;stroke-width:1.0;" width="6" x="17" y="905.0859"/><text fill="#000000" font-family="sans-serif" font-size="14" lengthAdjust="spacing" textLength="147" x="29" y="911.4326">_setAttributes() : void</text><rect fill="#F24D5C" height="6" style="stroke:#C82930;stroke-width:1.0;" width="6" x="17" y="921.3828"/><text fill="#000000" font-family="sans-serif" font-size="14" lengthAdjust="spacing" textLength="221" x="29" y="927.7295">_setCalendarCssClasses() : void</text><rect fill="#F24D5C" height="6" style="stroke:#C82930;stroke-width:1.0;" width="6" x="17" y="937.6797"/><text fill="#000000" font-family="sans-serif" font-size="14" lengthAdjust="spacing" textLength="194" x="29" y="944.0264">_setParentMinHeight() : void</text><rect fill="#F24D5C" height="6" style="stroke:#C82930;stroke-width:1.0;" width="6" x="17" y="953.9766"/><text fill="#000000" font-family="sans-serif" font-size="14" lengthAdjust="spacing" textLength="328" x="29" y="960.3232">_todayButtonKeydown(e: KeyboardEvent) : void</text><rect fill="#F24D5C" height="6" style="stroke:#C82930;stroke-width:1.0;" width="6" x="17" y="970.2734"/><text fill="#000000" font-family="sans-serif" font-size="14" lengthAdjust="spacing" textLength="212" x="29" y="976.6201">_unsetParentMinHeight() : void</text></g><!--reverse link AbstractFlatpickr<FlatpickrRangeDateConfig> to OSUIFlatpickrRangeDate--><g id="link_AbstractFlatpickr&lt;FlatpickrRangeDateConfig&gt;_OSUIFlatpickrRangeDate"><path codeLine="118" d="M362.5,1002.07 C362.5,1022.04 362.5,1024.02 362.5,1043.87 " fill="none" id="AbstractFlatpickr&lt;FlatpickrRangeDateConfig&gt;-backto-OSUIFlatpickrRangeDate" style="stroke:#272B30;stroke-width:1.0;"/><polygon fill="none" points="362.5,984.07,356.5,1002.07,368.5,1002.07,362.5,984.07" style="stroke:#272B30;stroke-width:1.0;"/></g><!--SRC=[xLZTRzis47_tNo7KBoeQ0qitO41G5B2Lf37Mr4RjTjY68Q34iyoPEgeavTJjyh_l956ElkmrVToSbuXtlplUDmys6u4fqopn0icC6MkjxWCbbVQ6Btz-6Vxumy0q4HEbEUZZ41PjOgqov0wsMgrgc0ux0luJPuEruE11ajgTbu1TAsxgf9K0IPGely1xDbjyc5vBPbCHRVHxXZ5SCWlFlAy3Z_vUA0oaCX1angeaO5A6TATtuJ7S5O0X9_ISP47FISjAwMIAQMQl92G4krdUljsV0MqfiwhkUm9qbbf3gElQMIWq9KgOkLPRSb5Fc05Ek50f2GnBji85I8WiyCg3gotTGB3POeR1ElUwe9JmrEagIEQM8Ok1J3MMOGGaD9tN0OvVXYlCXEJ-Sm9jbU0bBIhqaqmAskxyr7syOmbSUCPgWV6PLr4_CfaHESCDgdjiAu9eC-OSUCC0u_V0ve2S51y7KeHqXqRPRj6uC2oKL1SxuzU-A-F_-BCN_Yl0fYvIdIyyp98GT8zOshqRFcLCcgMQNlefinOqJdbryVDMdbzG2B4bho4MXiIgnFkGHw8P-yZnyd9u0mXQH4qb1kmL5pRtegXGNvZglBUW8_6MifvHPVZRCgMFDZTWLOO2XIiH6n_XtdrsY_sWS97UuwuvnywejCId31wZUEOPjYtB_u0pLiMnX7VCYYrCOCssGhNB9iD-Qvh9gk7JV6vCKLZ1P3vmVEekRVElHxkeXEk4FWrq9SsqlAVetoqOGm7_5toz7wfEd-9ANNZpsgaXF6ISBnLdkubjrTSmqb1JMms95cWbK9Zrf3iRXdzbIJf5gmhjBPx2o_ri3RfjsU3FEfNlsDNWAtDYt2ddK7tb_rfjICCFw761gXnxcKirHluUk6RtBO3k8r9fZC_FVtCJK83fyglsx67Ts4Iw9w7DjIudWHHLPrzujoepPJctm5h4yUChLI3sKo4bwZLHW-ueEFEOpflHZUHsl5fgNKcBBoxa-nkQKaM_77AwOBwHAcJoAEH8P5orrr_aiRMw1HlTAVnG8FDAoFrdjereTEeYRrBA_LNPcJLr3mCMKjkno7fkiHYxytw8lUgk6MMLlJvj6z-rROpksFdvBfzM54VB19LhpRkwOwExKF7T8j9Aoa0bYK8tnpDDwB84vig8tCaPbZWdM9bthQBCB5A6Ise7iBsNbFsOMQlme25V17But33YqORV2-PfbJgjKl_HLUg9UzBNQgW-75oP6klIQLNwdbMf5kN_mTPKz_QqG7r3aBvrbyeJHdGHPXRwc6GAjIZJWJ75Zpkze3aL2hto0cz0nElEDbPxON-17QTm-jJ4z1agfdatQRI_uJ6j3uEdxMcl_XwD3lvcz0y0]--></g></svg>