<?xml version="1.0" encoding="us-ascii" standalone="no"?><svg xmlns="http://www.w3.org/2000/svg" xmlns:xlink="http://www.w3.org/1999/xlink" contentStyleType="text/css" height="648px" preserveAspectRatio="none" style="width:1039px;height:648px;background:#CED4DA;" version="1.1" viewBox="0 0 1039 648" width="1039px" zoomAndPan="magnify"><defs/><g><rect fill="#CED4DA" height="648" style="stroke:none;stroke-width:1.0;" width="1039" x="0" y="0"/><!--class SwipeEvent--><g id="elem_SwipeEvent"><rect codeLine="7" fill="#FFFFFF" height="245.8594" id="SwipeEvent" rx="2.5" ry="2.5" style="stroke:#272B30;stroke-width:0.5;" width="1023" x="9" y="395.3"/><ellipse cx="477.75" cy="411.3" fill="#ADD1B2" rx="11" ry="11" style="stroke:#181818;stroke-width:1.0;"/><path d="M480.2231,417.4431 Q479.6421,417.7419 479.0029,417.8913 Q478.3638,418.0407 477.6582,418.0407 Q475.1514,418.0407 473.8315,416.3889 Q472.5117,414.737 472.5117,411.6159 Q472.5117,408.4865 473.8315,406.8347 Q475.1514,405.1828 477.6582,405.1828 Q478.3638,405.1828 479.0112,405.3322 Q479.6587,405.4816 480.2231,405.7805 L480.2231,408.5031 Q479.5923,407.9221 478.9988,407.6523 Q478.4053,407.3825 477.7744,407.3825 Q476.4297,407.3825 475.7449,408.4492 Q475.0601,409.5158 475.0601,411.6159 Q475.0601,413.7077 475.7449,414.7744 Q476.4297,415.841 477.7744,415.841 Q478.4053,415.841 478.9988,415.5712 Q479.5923,415.3015 480.2231,414.7204 Z " fill="#000000"/><text fill="#000000" font-family="sans-serif" font-size="14" lengthAdjust="spacing" textLength="77" x="498.25" y="416.591">SwipeEvent</text><line style="stroke:#272B30;stroke-width:0.5;" x1="10" x2="1031" y1="427.3" y2="427.3"/><rect fill="none" height="6" style="stroke:#C82930;stroke-width:1.0;" width="6" x="17" y="438.0441"/><text fill="#000000" font-family="sans-serif" font-size="14" lengthAdjust="spacing" textLength="207" x="29" y="444.8352">_swipeDownCallback : Generic</text><rect fill="none" height="6" style="stroke:#C82930;stroke-width:1.0;" width="6" x="17" y="454.5324"/><text fill="#000000" font-family="sans-serif" font-size="14" lengthAdjust="spacing" textLength="193" x="29" y="461.3234">_swipeLeftCallback : Generic</text><rect fill="none" height="6" style="stroke:#C82930;stroke-width:1.0;" width="6" x="17" y="471.0207"/><text fill="#000000" font-family="sans-serif" font-size="14" lengthAdjust="spacing" textLength="204" x="29" y="477.8117">_swipeRightCallback : Generic</text><rect fill="none" height="6" style="stroke:#C82930;stroke-width:1.0;" width="6" x="17" y="487.509"/><text fill="#000000" font-family="sans-serif" font-size="14" lengthAdjust="spacing" textLength="187" x="29" y="494.3">_swipeUpCallback : Generic</text><rect fill="none" height="6" style="stroke:#C82930;stroke-width:1.0;" width="6" x="17" y="503.9973"/><text fill="#000000" font-family="sans-serif" font-size="14" lengthAdjust="spacing" textLength="139" x="29" y="510.7883">_threshold : number</text><rect fill="none" height="6" style="stroke:#C82930;stroke-width:1.0;" width="6" x="17" y="520.4855"/><text fill="#000000" font-family="sans-serif" font-size="14" lengthAdjust="spacing" textLength="124" x="29" y="527.2766">_velocity : number</text><line style="stroke:#272B30;stroke-width:0.5;" x1="10" x2="1031" y1="534.2297" y2="534.2297"/><ellipse cx="20" cy="547.9738" fill="#84BE84" rx="3" ry="3" style="stroke:#038048;stroke-width:1.0;"/><text fill="#000000" font-family="sans-serif" font-size="14" lengthAdjust="spacing" textLength="997" x="29" y="551.7648">setSwipeEvents(swipeDownCallback: SwipeDown, swipeLeftCallback: SwipeLeft, swipeRightCallback: SwipeRight, swipeUpCallback: SwipeUp) : void</text><ellipse cx="20" cy="564.4621" fill="#84BE84" rx="3" ry="3" style="stroke:#038048;stroke-width:1.0;"/><text fill="#000000" font-family="sans-serif" font-size="14" lengthAdjust="spacing" textLength="176" x="29" y="568.2531">unsetTouchEvents() : void</text><polygon fill="#FFFF44" points="20,575.9504,24,579.9504,20,583.9504,16,579.9504" style="stroke:#B38D22;stroke-width:1.0;"/><text fill="#000000" font-family="sans-serif" font-size="14" lengthAdjust="spacing" textLength="654" x="29" y="584.7414">setCallbacks(onStartCallback: Generic, onMoveCallback: Generic, onEndCallback: Generic) : void</text><polygon fill="#FFFF44" points="20,592.4387,24,596.4387,20,600.4387,16,596.4387" style="stroke:#B38D22;stroke-width:1.0;"/><text fill="#000000" font-family="sans-serif" font-size="14" lengthAdjust="spacing" textLength="169" x="29" y="601.2297">setEventListeners() : void</text><polygon fill="#FFFF44" points="20,608.927,24,612.927,20,616.927,16,612.927" style="stroke:#B38D22;stroke-width:1.0;"/><text fill="#000000" font-family="sans-serif" font-size="14" lengthAdjust="spacing" textLength="947" x="29" y="617.718">setSwipeCallbacks(swipeDownCallback: Generic, swipeLeftCallback: Generic, swipeRightCallback: Generic, swipeUpCallback: Generic) : void</text><rect fill="#F24D5C" height="6" style="stroke:#C82930;stroke-width:1.0;" width="6" x="17" y="627.4152"/><text fill="#000000" font-family="sans-serif" font-size="14" lengthAdjust="spacing" textLength="525" x="29" y="634.2063">_onGestureEnd(offsetX: number, offsetY: number, timeTaken: number) : void</text></g><!--class AbstractGestureEvent--><g id="elem_AbstractGestureEvent"><rect codeLine="21" fill="#FFFFFF" height="328.3008" id="AbstractGestureEvent" rx="2.5" ry="2.5" style="stroke:#272B30;stroke-width:0.5;" width="680" x="180.5" y="7"/><ellipse cx="442.75" cy="23" fill="#A9DCDF" rx="11" ry="11" style="stroke:#181818;stroke-width:1.0;"/><path d="M442.6133,18.3481 L441.4595,23.4199 L443.7754,23.4199 Z M441.1191,16.1069 L444.1157,16.1069 L447.4609,28.5 L445.0122,28.5 L444.2485,25.437 L440.9697,25.437 L440.2227,28.5 L437.7739,28.5 Z " fill="#000000"/><text fill="#000000" font-family="sans-serif" font-size="14" font-style="italic" lengthAdjust="spacing" textLength="147" x="463.25" y="28.291">AbstractGestureEvent</text><line style="stroke:#272B30;stroke-width:0.5;" x1="181.5" x2="859.5" y1="39" y2="39"/><rect fill="none" height="6" style="stroke:#C82930;stroke-width:1.0;" width="6" x="188.5" y="49.7441"/><text fill="#000000" font-family="sans-serif" font-size="14" lengthAdjust="spacing" textLength="134" x="200.5" y="56.5352">_endEvent : Generic</text><rect fill="none" height="6" style="stroke:#C82930;stroke-width:1.0;" width="6" x="188.5" y="66.2324"/><text fill="#000000" font-family="sans-serif" font-size="14" lengthAdjust="spacing" textLength="206" x="200.5" y="73.0234">_endTriggerCallback : Generic</text><rect fill="none" height="6" style="stroke:#C82930;stroke-width:1.0;" width="6" x="188.5" y="82.7207"/><text fill="#000000" font-family="sans-serif" font-size="14" lengthAdjust="spacing" textLength="224" x="200.5" y="89.5117">_gestureParams : GestureParams</text><rect fill="none" height="6" style="stroke:#C82930;stroke-width:1.0;" width="6" x="188.5" y="99.209"/><text fill="#000000" font-family="sans-serif" font-size="14" lengthAdjust="spacing" textLength="145" x="200.5" y="106">_moveEvent : Generic</text><rect fill="none" height="6" style="stroke:#C82930;stroke-width:1.0;" width="6" x="188.5" y="115.6973"/><text fill="#000000" font-family="sans-serif" font-size="14" lengthAdjust="spacing" textLength="217" x="200.5" y="122.4883">_moveTriggerCallback : Generic</text><rect fill="none" height="6" style="stroke:#C82930;stroke-width:1.0;" width="6" x="188.5" y="132.1855"/><text fill="#000000" font-family="sans-serif" font-size="14" lengthAdjust="spacing" textLength="139" x="200.5" y="138.9766">_startEvent : Generic</text><rect fill="none" height="6" style="stroke:#C82930;stroke-width:1.0;" width="6" x="188.5" y="148.6738"/><text fill="#000000" font-family="sans-serif" font-size="14" lengthAdjust="spacing" textLength="211" x="200.5" y="155.4648">_startTriggerCallback : Generic</text><rect fill="none" height="6" style="stroke:#C82930;stroke-width:1.0;" width="6" x="188.5" y="165.1621"/><text fill="#000000" font-family="sans-serif" font-size="14" lengthAdjust="spacing" textLength="208" x="200.5" y="171.9531">_targetElement : HTMLElement</text><line style="stroke:#272B30;stroke-width:0.5;" x1="181.5" x2="859.5" y1="178.9063" y2="178.9063"/><ellipse cx="191.5" cy="192.6504" fill="#84BE84" rx="3" ry="3" style="stroke:#038048;stroke-width:1.0;"/><text fill="#000000" font-family="sans-serif" font-size="14" lengthAdjust="spacing" textLength="176" x="200.5" y="196.4414">unsetTouchEvents() : void</text><polygon fill="#FFFF44" points="191.5,204.1387,195.5,208.1387,191.5,212.1387,187.5,208.1387" style="stroke:#B38D22;stroke-width:1.0;"/><text fill="#000000" font-family="sans-serif" font-size="14" lengthAdjust="spacing" textLength="654" x="200.5" y="212.9297">setCallbacks(onStartCallback: Generic, onMoveCallback: Generic, onEndCallback: Generic) : void</text><polygon fill="#FFFF44" points="191.5,220.627,195.5,224.627,191.5,228.627,187.5,224.627" style="stroke:#B38D22;stroke-width:1.0;"/><text fill="#000000" font-family="sans-serif" font-size="14" lengthAdjust="spacing" textLength="169" x="200.5" y="229.418">setEventListeners() : void</text><polygon fill="#FFFF44" points="191.5,237.1152,195.5,241.1152,191.5,245.1152,187.5,241.1152" style="stroke:#B38D22;stroke-width:1.0;"/><text fill="#000000" font-family="sans-serif" font-size="14" font-style="italic" lengthAdjust="spacing" textLength="255" x="200.5" y="245.9063">setSwipeEvents(args: Generic[]) : void</text><rect fill="#F24D5C" height="6" style="stroke:#C82930;stroke-width:1.0;" width="6" x="188.5" y="255.6035"/><text fill="#000000" font-family="sans-serif" font-size="14" lengthAdjust="spacing" textLength="164" x="200.5" y="262.3945">_eventTouchEnd() : void</text><rect fill="#F24D5C" height="6" style="stroke:#C82930;stroke-width:1.0;" width="6" x="188.5" y="272.0918"/><text fill="#000000" font-family="sans-serif" font-size="14" lengthAdjust="spacing" textLength="282" x="200.5" y="278.8828">_eventTouchMove(evt: TouchEvent) : void</text><rect fill="#F24D5C" height="6" style="stroke:#C82930;stroke-width:1.0;" width="6" x="188.5" y="288.5801"/><text fill="#000000" font-family="sans-serif" font-size="14" lengthAdjust="spacing" textLength="278" x="200.5" y="295.3711">_eventTouchStart(evt: TouchEvent) : void</text><rect fill="#F24D5C" height="6" style="stroke:#C82930;stroke-width:1.0;" width="6" x="188.5" y="305.0684"/><text fill="#000000" font-family="sans-serif" font-size="14" lengthAdjust="spacing" textLength="207" x="200.5" y="311.8594">_removeEventListeners() : void</text><rect fill="#F24D5C" height="6" style="stroke:#C82930;stroke-width:1.0;" width="6" x="188.5" y="321.5566"/><text fill="#000000" font-family="sans-serif" font-size="14" lengthAdjust="spacing" textLength="161" x="200.5" y="328.3477">_unsetCallbacks() : void</text></g><!--reverse link AbstractGestureEvent to SwipeEvent--><g id="link_AbstractGestureEvent_SwipeEvent"><path codeLine="40" d="M520.5,353.6 C520.5,373.54 520.5,375.65 520.5,394.85 " fill="none" id="AbstractGestureEvent-backto-SwipeEvent" style="stroke:#272B30;stroke-width:1.0;"/><polygon fill="none" points="520.5,335.6,514.5,353.6,526.5,353.6,520.5,335.6" style="stroke:#272B30;stroke-width:1.0;"/></g><!--SRC=[rLJ1Yjim4BtdAqJsaj8rBDj28VIocmtf8GkbIQ2bbA1OOrl4bemaEvGq_zwH8iTsR6_EwvlUUzQycNcstdEHKqKpCakfrazAoSDCfbAHkySlZxjF3oFTLZnBnK2zBQ7XFbQo4CpBeYXgQ3fq2EmpewE4Co2GvUOloS0aakac57584Gbj0J9U7NWEynA46PFZYE0JRBN5NkH1p6YQxh08cP85250yR2gM49ct5JzudDoGRF91tYGAT29JXemeiXqeJvIGof1ZAotyemPJTwCddIwcP5L1zwJJWMSjvDcMUqyxpFErTKzkyWzegPISdGqL0YsjPH4ctbABlaEoka1Ff5WPgXhb_2pkYHIlieHUOewRlyOxDLpj9TV6yZqUdFNQIC_OBXLxXjRchaRM9flpwZCRRALOW3Q50cni8gC8tVsiTepzEk1N3HYUmPhkGLJGvRhJYEwqKJGqnEVyoP-h0kt4Ws0EwMGGYRNYSOmVwb1Cu_EDt-qdgHtRE7jDXXliBs2PMnMqJKR_wuwwzJvgOin12jdvYc_hrwK_lPUW7gjzdkhCUg_OdBvS-llFLQJ0YiwjOQO6IUjy0gMPadeCWs8tW1jg1PUT3xGKRDtOwyasqZiGrw__Wg3ro_uF]--></g></svg>